<?xml version="1.0" encoding="utf-8"?>
<!-- Generator: Adobe Illustrator 23.0.3, SVG Export Plug-In . SVG Version: 6.00 Build 0)  -->
<svg version="1.1" id="Layer_1" xmlns="http://www.w3.org/2000/svg" xmlns:xlink="http://www.w3.org/1999/xlink" x="0px" y="0px"
	 viewBox="0 0 976 688.7" style="enable-background:new 0 0 976 688.7;" xml:space="preserve">
<style type="text/css">
	.st0{fill:#F8F8FF;}
	.st1{fill:#FFFFFF;}
	.st2{fill:#BAC6F2;}
	.st3{fill:#E9EDFA;}
	.st4{fill:#BAC5F4;}
	.st5{fill:#FA5F5D;}
	.st6{fill:#FDBC4E;}
	.st7{fill:#37CD58;}
	.st8{fill:url(#SVGID_1_);}
	.st9{fill:url(#SVGID_2_);}
	.st10{fill:url(#SVGID_3_);}
	.st11{fill:url(#SVGID_4_);}
	.st12{fill:url(#SVGID_5_);}
	.st13{fill:#E9EDFB;}
	.st14{fill:url(#SVGID_6_);}
	.st15{fill:#FCFCFC;}
	.st16{fill:#58CAEA;}
	.st17{fill:url(#SVGID_7_);}
	.st18{fill:url(#SVGID_8_);}
	.st19{fill:url(#SVGID_9_);}
	.st20{fill:url(#SVGID_10_);}
	.st21{fill:url(#SVGID_11_);}
	.st22{fill:url(#SVGID_12_);}
	.st23{fill:none;stroke:url(#SVGID_13_);stroke-miterlimit:10;}
	.st24{fill:#4D54C2;}
	.st25{fill:none;stroke:url(#SVGID_14_);stroke-miterlimit:10;}
	.st26{fill:url(#SVGID_15_);}
	.st27{fill:none;stroke:url(#SVGID_16_);stroke-miterlimit:10;}
	.st28{font-family:'ArialMT';}
	.st29{font-size:15.5385px;}
	.st30{fill:url(#SVGID_17_);}
	.st31{fill:none;stroke:url(#SVGID_18_);stroke-miterlimit:10;}
	.st32{font-size:10.2271px;}
	.st33{fill:url(#SVGID_19_);}
	.st34{fill:none;stroke:url(#SVGID_20_);stroke-miterlimit:10;}
	.st35{font-size:7.3184px;}
</style>
<title>bg10</title>
<g id="bg">
	<path class="st0" d="M73,240c-0.4-1.2-0.8-2.4-1-3.6C68.5,214.9,52,93.9,143.4,53.2c45-20,96-53,261,8c194.7,72,322-50,352-50
		s98-44,178,42s20,190,20,190s-38,98-26,148s26,90,22,106s-6,124-72,148s-44,20-198,12s-234,14-266,26s-80,8-166-50s-106-40-150-66
		s-155.8-169.8-62-274C72.7,253,73.9,242.5,73,240z"/>
	<circle class="st1" cx="195.6" cy="162.5" r="30.1"/>
	<circle class="st1" cx="228.2" cy="162.4" r="20.5"/>
	<circle class="st1" cx="161.3" cy="162" r="16.5"/>
	<circle class="st1" cx="785.6" cy="114.8" r="30.1"/>
	<circle class="st1" cx="818.3" cy="114.7" r="20.5"/>
	<circle class="st1" cx="751.3" cy="114.3" r="16.5"/>
	<circle class="st1" cx="459.2" cy="219.7" r="30.1"/>
	
		<ellipse transform="matrix(0.3827 -0.9239 0.9239 0.3827 100.7802 589.9081)" class="st1" cx="491.8" cy="219.5" rx="20.5" ry="20.5"/>
	<circle class="st1" cx="424.9" cy="219.1" r="16.5"/>
</g>
<g id="build_1">
	<path class="st2" d="M23.4,485.2c0,0,19-28,21-32s1-20,1-20h-7c0,0,6-17,23-17s22,8,24,12s1,6,1,6h-6v16l29,48h12v78
		C121.4,576.2,50.4,539.2,23.4,485.2z"/>
	<path class="st1" d="M90.4,556.2h14v-20c0,0-7-11-14,0V556.2z"/>
	<circle class="st3" cx="94.8" cy="506.8" r="8.8"/>
	<path class="st3" d="M29.2,496.1c4-2.8,9.5-1.9,12.3,2.1c2.8,3.9,1.9,9.3-1.9,12.2"/>
	<circle class="st3" cx="63.2" cy="466.7" r="8.8"/>
	<path class="st1" d="M48.5,499.7c0-2.3,0.9-4.5,2.3-6.2c2.8-3.5,7-5.6,11.5-5.8c9.3-0.2,13.4,7.6,14,10.8
		c0.9,4.8,0.7,29.2,0.7,29.2l-21.8-0.1l-6.8-7.2L48.5,499.7z"/>
</g>
<g id="build_2">
	<path class="st3" d="M119.1,467.4l2.3,108.9c0,0,41.2,15.4,58.6,19s57.8,26.7,57.8,26.7l-0.7-154.2l-118-0.8"/>
	<path class="st2" d="M118.3,467.4l118.9,0.5l-0.5-28.4h-35.2c0,0-4.4-17-20.8-17c-20.1,0-23.5,17.9-23.5,17.9l-39-0.4L118.3,467.4z
		"/>
	<rect x="130.9" y="483.5" class="st2" width="21" height="22.8"/>
	<rect x="168.9" y="483.2" class="st2" width="21" height="22.8"/>
	<rect x="206.4" y="483.5" class="st1" width="21" height="22.8"/>
	<rect x="206.7" y="526.4" class="st2" width="21" height="22.8"/>
	<rect x="207" y="576.3" class="st2" width="21" height="22.8"/>
	<rect x="168" y="525.8" class="st2" width="21" height="22.8"/>
	<rect x="168" y="525.8" class="st1" width="21" height="22.8"/>
	<rect x="131" y="526.8" class="st2" width="21" height="22.8"/>
	<path class="st2" d="M131.5,579.7l-0.2-6.7l20.4,0.4l0.1,13.4C151.8,586.9,136.7,581.9,131.5,579.7z"/>
	<polygon class="st2" points="169.2,592.3 168.9,575.3 189.6,575.7 189.1,597.9 	"/>
	<circle class="st1" cx="179.6" cy="444.4" r="11.6"/>
</g>
<g id="build_3">
	<path class="st2" d="M236.8,543.8l1,78.3c0,0,62.3,41.4,66.2,44.4s36.5,18.8,51.3,19.7l2.7-157.9l-8.8-0.3l-42.8-53.1l-15.8-0.8
		L236.8,543.8"/>
	<polygon class="st3" points="236.8,543.8 290.7,476.1 296.6,476.3 303.4,476.7 307.2,477.1 349.3,528 358,528.3 358,525.3 
		349.6,524.9 309.3,475.6 309.5,456.6 290,455.6 289.3,475.1 237.5,500 	"/>
	<rect x="271" y="529.1" class="st1" width="9.8" height="11.5"/>
	<rect x="314.2" y="529.2" class="st1" width="9.8" height="11.5"/>
	<rect x="298.3" y="529.2" class="st1" width="9.8" height="11.5"/>
	<rect x="285.3" y="529.1" class="st1" width="9.8" height="11.5"/>
	<rect x="271" y="546.6" class="st1" width="9.8" height="11.5"/>
	<rect x="314.2" y="546.7" class="st1" width="9.8" height="11.5"/>
	<rect x="298.3" y="546.7" class="st1" width="9.8" height="11.5"/>
	<rect x="285.3" y="546.6" class="st1" width="9.8" height="11.5"/>
	<rect x="247.8" y="598.4" class="st1" width="9.8" height="11.5"/>
	<rect x="260.5" y="585.2" class="st1" width="9.8" height="11.5"/>
	<rect x="247.5" y="585.1" class="st1" width="9.8" height="11.5"/>
	<rect x="260.6" y="598.5" class="st1" width="9.8" height="11.5"/>
	<rect x="286.2" y="598.7" class="st1" width="9.8" height="11.5"/>
	<rect x="298.9" y="585.5" class="st1" width="9.8" height="11.5"/>
	<rect x="285.9" y="585.4" class="st1" width="9.8" height="11.5"/>
	<rect x="299" y="598.8" class="st1" width="9.8" height="11.5"/>
	<rect x="323.3" y="599" class="st1" width="9.8" height="11.5"/>
	<rect x="336" y="585.8" class="st1" width="9.8" height="11.5"/>
	<rect x="323" y="585.8" class="st1" width="9.8" height="11.5"/>
	<rect x="336.2" y="599.2" class="st1" width="9.8" height="11.5"/>
	<rect x="322.8" y="655" class="st1" width="9.8" height="16.3"/>
	<rect x="335.5" y="641.8" class="st1" width="9.8" height="11.5"/>
	<rect x="322.5" y="641.7" class="st1" width="9.8" height="11.5"/>
	<rect x="297" y="641.5" class="st1" width="9.8" height="11.5"/>
	<polygon class="st1" points="306.9,668.2 297.1,661.8 297,655.5 306.8,655.5 	"/>
	<rect x="284" y="641.4" class="st1" width="9.8" height="11.5"/>
	<polygon class="st1" points="293.7,659.4 291.2,657.7 287.1,655 293.7,655 	"/>
	<rect x="335.7" y="655.1" class="st1" width="9.8" height="16.3"/>
</g>
<g id="build_4">
	<polygon class="st2" points="408.8,424 427.2,424 426.9,415 408.5,414.8 	"/>
	<path class="st3" d="M357.2,508.5l-1.8,177.7c0,0,31.7,4.9,60.3-2.3s61.6-15,61.6-15l1.1-158.7l-19.2-9.4L428,445.5l-0.8-21.6
		h-18.5l-0.6,21.6l-32.8,54.2L357.2,508.5z"/>
	<rect x="404.7" y="523.7" class="st2" width="12.1" height="15.1"/>
	<rect x="421.1" y="524" class="st2" width="12.9" height="14.8"/>
	<rect x="404.4" y="541.6" class="st2" width="12.1" height="15.1"/>
	<rect x="420.8" y="541.9" class="st2" width="12.9" height="14.8"/>
	<rect x="404.9" y="577.6" class="st2" width="12.1" height="15.1"/>
	<rect x="376.4" y="577.5" class="st2" width="12.1" height="15.1"/>
	<rect x="448" y="578.1" class="st2" width="12.1" height="15.1"/>
	<rect x="448.4" y="644.6" class="st2" width="12.1" height="15.1"/>
	<rect x="376.5" y="645" class="st2" width="12.1" height="15.1"/>
	<rect x="421.4" y="577.8" class="st2" width="12.9" height="14.8"/>
	<rect x="404.6" y="595.5" class="st2" width="12.1" height="15.1"/>
	<rect x="421.1" y="595.7" class="st2" width="12.9" height="14.8"/>
	<rect x="404.7" y="642.9" class="st2" width="12.1" height="15.1"/>
	<rect x="421.1" y="643.2" class="st2" width="12.9" height="14.8"/>
	<rect x="404.4" y="660.8" class="st2" width="12.1" height="15.1"/>
	<rect x="420.9" y="661.1" class="st2" width="12.9" height="14.8"/>
	<circle class="st2" cx="383.1" cy="540.5" r="8.5"/>
	<circle class="st2" cx="451.8" cy="542.4" r="8.5"/>
	<polygon class="st2" points="357.2,508.5 375.7,508.5 375.4,499.5 356.9,499.3 	"/>
	<polygon class="st2" points="459.9,510.2 478.4,510.2 478.1,501.2 459.6,501 	"/>
	<circle class="st2" cx="418.7" cy="489.6" r="14.6"/>
</g>
<g id="build_5">
	<path class="st2" d="M470.8,510.9l1.1,76.7c0,0,2.8,82.2,3.1,81.9c6.6-6.8,108.1-13.7,119.8-14l-2.7-160l-8.8-0.3L540.4,442
		l-15.8-0.8L470.8,510.9"/>
	<polygon class="st3" points="470.8,510.9 524.6,443.3 530.6,443.5 537.4,443.9 541.1,444.3 583.2,495.1 592,495.5 592,492.4 
		583.6,492.1 543.2,442.8 543.5,423.7 524,422.7 523.2,442.2 470.8,501.1 	"/>
	<rect x="505" y="496.3" class="st1" width="9.8" height="11.5"/>
	<rect x="548.2" y="496.4" class="st1" width="9.8" height="11.5"/>
	<rect x="532.3" y="496.3" class="st1" width="9.8" height="11.5"/>
	<rect x="519.3" y="496.2" class="st1" width="9.8" height="11.5"/>
	<rect x="505" y="513.8" class="st1" width="9.8" height="11.5"/>
	<rect x="548.2" y="513.9" class="st1" width="9.8" height="11.5"/>
	<rect x="532.3" y="513.8" class="st1" width="9.8" height="11.5"/>
	<rect x="519.3" y="513.8" class="st1" width="9.8" height="11.5"/>
	<rect x="482" y="573.8" class="st1" width="9.8" height="11.5"/>
	<rect x="494.7" y="560.6" class="st1" width="9.8" height="11.5"/>
	<rect x="481.7" y="560.5" class="st1" width="9.8" height="11.5"/>
	<rect x="494.8" y="573.9" class="st1" width="9.8" height="11.5"/>
	<rect x="520.3" y="574" class="st1" width="9.8" height="11.5"/>
	<rect x="533.1" y="560.9" class="st1" width="9.8" height="11.5"/>
	<rect x="520" y="560.8" class="st1" width="9.8" height="11.5"/>
	<rect x="533.2" y="574.2" class="st1" width="9.8" height="11.5"/>
	<rect x="557.5" y="574.4" class="st1" width="9.8" height="11.5"/>
	<rect x="570.2" y="561.2" class="st1" width="9.8" height="11.5"/>
	<rect x="557.2" y="561.2" class="st1" width="9.8" height="11.5"/>
	<rect x="570.3" y="574.5" class="st1" width="9.8" height="11.5"/>
	<rect x="482.2" y="624" class="st1" width="9.8" height="11.5"/>
	<rect x="494.9" y="610.8" class="st1" width="9.8" height="11.5"/>
	<rect x="481.9" y="610.8" class="st1" width="9.8" height="11.5"/>
	<rect x="495.1" y="624.1" class="st1" width="9.8" height="11.5"/>
	<rect x="520.6" y="624.3" class="st1" width="9.8" height="11.5"/>
	<rect x="533.3" y="611.1" class="st1" width="9.8" height="11.5"/>
	<rect x="520.3" y="611" class="st1" width="9.8" height="11.5"/>
	<rect x="533.5" y="624.4" class="st1" width="9.8" height="11.5"/>
	<rect x="557.8" y="624.7" class="st1" width="9.8" height="11.5"/>
	<rect x="570.5" y="611.5" class="st1" width="9.8" height="11.5"/>
	<rect x="557.5" y="611.4" class="st1" width="9.8" height="11.5"/>
	<rect x="570.6" y="624.8" class="st1" width="9.8" height="11.5"/>
</g>
<g id="build_6">
	<path class="st3" d="M603.4,474.4c0,0,25.9-41.2,27.9-45.2s1-20,1-20h-7c0,0,6-17,23-17s22,8,24,12s1,6,1,6h-6v16l29,48h12
		l3.9,184.9c0,0-114.1-5.3-116.5-3.7c-0.8,0.5-0.7-4.7-0.8-5.6c-0.5-3.9-4.8-145.3-2.6-175.2C592.3,474.6,603.5,474.4,603.4,474.4z"
		/>
	<path class="st1" d="M676.8,532.7h14v-20c0,0-7-11-14,0V532.7z"/>
	<path class="st1" d="M609.6,534.3h14v-20c0,0-7-11-14,0V534.3z"/>
	<path class="st1" d="M609.6,586h14v-20c0,0-7-11-14,0V586z"/>
	<path class="st1" d="M643,586.6h14v-20c0,0-7-11-14,0V586.6z"/>
	<path class="st1" d="M676.4,587.2h14v-20c0,0-7-11-14,0V587.2z"/>
	<path class="st1" d="M610.4,635.4h14v-20c0,0-7-11-14,0V635.4z"/>
	<path class="st1" d="M643.9,636h14v-20c0,0-7-11-14,0V636z"/>
	<path class="st1" d="M677.3,636.6h14v-20c0,0-7-11-14,0V636.6z"/>
	<circle class="st3" cx="681.2" cy="483.2" r="8.8"/>
	<circle class="st3" cx="618" cy="481.9" r="8.8"/>
	<circle class="st3" cx="650.3" cy="525.5" r="8.8"/>
	<circle class="st3" cx="649.6" cy="443.2" r="8.8"/>
	<path class="st1" d="M634.9,476.1c0-2.3,0.9-4.5,2.3-6.2c2.8-3.5,7-5.6,11.4-5.8c9.3-0.2,13.4,7.6,13.9,10.8
		c0.9,4.8,0.7,29.2,0.7,29.2h-28.7l0.2-7.2L634.9,476.1z"/>
</g>
<g id="build_7">
	<path class="st2" d="M708.8,509.2l3,150.2c0,0,32.9,0.3,53.1,2.8c17.6,2.2,60,0.2,60,0.2l2-152.7l-118-0.8"/>
	<path class="st2" d="M708,509.2l118.9,0.5l-0.5-28.4h-35.2c0,0-4.4-17-20.8-17c-20.1,0-23.5,17.9-23.5,17.9l-39-0.4L708,509.2z"/>
	<rect x="720.5" y="525.3" class="st1" width="21" height="22.8"/>
	<rect x="758.5" y="525" class="st1" width="21" height="22.8"/>
	<rect x="796" y="525.3" class="st1" width="21" height="22.8"/>
	<rect x="796.3" y="568.2" class="st1" width="21" height="22.8"/>
	<rect x="796.6" y="618.1" class="st1" width="21" height="22.8"/>
	<rect x="758.5" y="617.2" class="st1" width="21" height="22.8"/>
	<rect x="720.5" y="616.7" class="st1" width="21" height="22.8"/>
	<rect x="757.7" y="567.5" class="st1" width="21" height="22.8"/>
	<rect x="757.7" y="567.5" class="st1" width="21" height="22.8"/>
	<rect x="720.7" y="568.5" class="st1" width="21" height="22.8"/>
	<circle class="st1" cx="769.2" cy="486.2" r="11.6"/>
</g>
<g id="build_8">
	<polygon class="st1" points="877.9,380.5 896.3,380.5 896.1,371.5 877.6,371.2 	"/>
	<path class="st3" d="M826.3,465l-2.2,197.6c0,0,39.5-10,64.6-22.4c23.7-11.8,35-37.7,37.7-42.7c0.3-0.5,0.5-1.1,0.7-1.7l13.7-40.8
		c0.4-1.1,0.7-2.3,0.8-3.4l6.3-40.2l3-18.4c0.2-1.1,0.2-2.3,0-3.4l-3.3-21.9c-0.1-0.5-0.4-0.9-0.8-1.2l-18.5-9.1L897.1,402
		l-0.8-21.6h-18.5l-0.6,21.6l-32.8,54.2L826.3,465z"/>
	<rect x="873.8" y="480.2" class="st1" width="12.1" height="15.1"/>
	<rect x="890.2" y="480.5" class="st1" width="12.9" height="14.8"/>
	<rect x="873.5" y="498.1" class="st1" width="12.1" height="15.1"/>
	<rect x="889.9" y="498.4" class="st1" width="12.9" height="14.8"/>
	<rect x="874" y="534" class="st1" width="12.1" height="15.1"/>
	<rect x="845.5" y="534" class="st1" width="12.1" height="15.1"/>
	<rect x="917.2" y="534.6" class="st1" width="12.1" height="15.1"/>
	<polygon class="st1" points="921.1,607.9 917.4,613.2 917.9,599.9 925.2,599.6 	"/>
	<rect x="845.6" y="601.5" class="st1" width="12.1" height="15.1"/>
	<rect x="890.5" y="534.3" class="st1" width="12.9" height="14.8"/>
	<rect x="873.8" y="552" class="st1" width="12.1" height="15.1"/>
	<rect x="890.2" y="552.2" class="st1" width="12.9" height="14.8"/>
	<rect x="873.8" y="599.4" class="st1" width="12.1" height="15.1"/>
	<rect x="890.2" y="599.7" class="st1" width="12.9" height="14.8"/>
	<rect x="873.6" y="617.3" class="st1" width="12.1" height="15.1"/>
	<polygon class="st1" points="901.9,631.3 900.5,632.4 890,632.4 890,617.6 902.9,617.6 902.9,630.4 	"/>
	<circle class="st1" cx="852.2" cy="497" r="8.5"/>
	<circle class="st1" cx="920.9" cy="498.9" r="8.5"/>
	<polygon class="st1" points="826.3,465 844.8,465 844.5,456 826,455.8 	"/>
	<polygon class="st1" points="929.1,466.7 947.5,466.7 946.3,461 945.5,457.6 928.8,457.5 	"/>
	<circle class="st1" cx="887.8" cy="446.1" r="14.6"/>
</g>
<g id="Computer">
	<title>Computer</title>
	<path class="st4" d="M231.9,308.9l147.9-36.4c0,0,5.5-1.7,3.9-8.1l-3.1-12.7l-159.3,39.2l3.8,15.4
		C226.4,308.6,229.2,309.7,231.9,308.9"/>
	<path class="st4" d="M197.6,194.8l24.7,101l159-40.7l-25.2-102.4c0,0-0.5-6.1-6.7-4.5l-148,36.4
		C201.5,184.6,194.8,186.2,197.6,194.8"/>
	<polygon class="st4" points="299.7,321 292.8,292.9 316.3,288.1 322.4,312.8 	"/>
	<polygon class="st4" points="262,327.3 358.8,303.4 360.1,308.3 263.2,332.1 	"/>
	<path class="st1" d="M301.1,278.6c2.6-0.6,5.2,0.9,5.8,3.5c0.6,2.6-0.9,5.2-3.5,5.8c-2.6,0.6-5.2-0.9-5.8-3.5
		C297,281.8,298.6,279.2,301.1,278.6L301.1,278.6"/>
	
		<rect x="211.3" y="169.9" transform="matrix(0.971 -0.2389 0.2389 0.971 -44.2992 75.2694)" class="st0" width="154" height="101"/>
	<path class="st5" d="M210.2,192.9c1.3-0.3,2.6,0.5,2.9,1.8c0.3,1.3-0.5,2.6-1.8,2.9c-1.3,0.3-2.6-0.5-2.9-1.8
		C208.2,194.6,209,193.2,210.2,192.9L210.2,192.9"/>
	<path class="st6" d="M218.2,191c1.3-0.3,2.6,0.5,2.9,1.8c0.3,1.3-0.5,2.6-1.8,2.9c-1.3,0.3-2.6-0.5-2.9-1.8
		C216.1,192.6,216.9,191.3,218.2,191L218.2,191"/>
	<path class="st7" d="M226.5,188.9c1.3-0.3,2.6,0.5,2.9,1.8c0.3,1.3-0.5,2.6-1.8,2.9c-1.3,0.3-2.6-0.5-2.9-1.8
		C224.5,190.6,225.3,189.2,226.5,188.9L226.5,188.9"/>
	
		<linearGradient id="SVGID_1_" gradientUnits="userSpaceOnUse" x1="1252.4393" y1="1156.6965" x2="1287.4393" y2="1156.6965" gradientTransform="matrix(0.971 -0.2389 0.2389 0.971 -1263.7836 -619.8368)">
		<stop  offset="0" style="stop-color:#F71D69"/>
		<stop  offset="1" style="stop-color:#F8C648"/>
	</linearGradient>
	<path class="st8" d="M263.3,198c0.2,1.3-0.6,2.5-1.9,2.7l-28.6,7c-1.5,0.4-3.2-0.3-3.4-1.4l-1.1-4.4c-0.3-1.2,0.8-2.6,2.4-3l28.5-7
		c1.2-0.4,2.6,0.3,3.1,1.5l0,0.1L263.3,198z"/>
	
		<linearGradient id="SVGID_2_" gradientUnits="userSpaceOnUse" x1="1252.4393" y1="1177.6965" x2="1358.4393" y2="1177.6965" gradientTransform="matrix(0.971 -0.2389 0.2389 0.971 -1263.7836 -619.8368)">
		<stop  offset="0" style="stop-color:#58CAEA"/>
		<stop  offset="1" style="stop-color:#4C4CBF"/>
	</linearGradient>
	<path class="st9" d="M339.3,210c0.2,1.4-0.7,2.7-2,3l0,0l-97.4,24c-1.5,0.4-3.2-0.4-3.5-1.6l-5.3-21.6c-0.3-1.3,0.9-2.7,2.3-3
		l97.4-24c1.3-0.4,2.8,0.3,3.2,1.7l0,0l0,0L339.3,210z"/>
	
		<linearGradient id="SVGID_3_" gradientUnits="userSpaceOnUse" x1="1252.4393" y1="1201.6931" x2="1285.4393" y2="1201.6931" gradientTransform="matrix(0.971 -0.2389 0.2389 0.971 -1263.7836 -619.8368)">
		<stop  offset="0" style="stop-color:#4C4FC0"/>
		<stop  offset="1" style="stop-color:#58CAEA"/>
	</linearGradient>
	<path class="st10" d="M273,245.9c0.3,1.3-0.5,2.6-1.8,2.9l0,0l-26.8,6.6c-1.6,0.4-3.2-0.4-3.5-1.6l-2.9-11.8
		c-0.3-1.3,0.9-2.7,2.3-3l26.6-6.5c1.2-0.4,2.6,0.3,3.1,1.6l0,0l0,0.1L273,245.9z"/>
	
		<linearGradient id="SVGID_4_" gradientUnits="userSpaceOnUse" x1="1288.4393" y1="1201.6931" x2="1321.4393" y2="1201.6931" gradientTransform="matrix(0.971 -0.2389 0.2389 0.971 -1263.7836 -619.8368)">
		<stop  offset="0" style="stop-color:#58CAEA"/>
		<stop  offset="1" style="stop-color:#4C4CBF"/>
	</linearGradient>
	<path class="st11" d="M307.9,237.3c0.3,1.3-0.5,2.6-1.8,2.9l0,0l-26.8,6.6c-1.6,0.4-3.2-0.4-3.5-1.6l-2.9-11.8
		c-0.3-1.3,0.9-2.7,2.3-3l26.6-6.5c1.2-0.4,2.6,0.3,3.1,1.6l0,0.1L307.9,237.3z"/>
	
		<linearGradient id="SVGID_5_" gradientUnits="userSpaceOnUse" x1="1325.4393" y1="1201.6963" x2="1358.4393" y2="1201.6963" gradientTransform="matrix(0.971 -0.2389 0.2389 0.971 -1263.7836 -619.8368)">
		<stop  offset="0" style="stop-color:#58CAEA"/>
		<stop  offset="1" style="stop-color:#4C4CBF"/>
	</linearGradient>
	<path class="st12" d="M343.9,228.4c0.2,1.4-0.7,2.7-2,3l-26.6,6.5c-1.4,0.5-2.9-0.3-3.4-1.6l-2.9-11.8c-0.3-1.5,0.8-2.8,2.2-3
		l26.6-6.5c1.3-0.4,2.9,0.3,3.3,1.7l0,0l0,0L343.9,228.4L343.9,228.4z"/>
	<path class="st13" d="M309.6,244c-0.1,0.5-0.4,0.9-0.9,1.1c-0.1,0-0.1,0-0.3-0.3l-29.3,7.2c-0.5,0.5-1.5,0.4-1.6-0.1l-0.1-0.4
		c-0.1-0.5,0.6-1.2,1.2-1.4l29.3-7.2c0.5,0,0.9,0.3,1.1,0.7c0,0.1,0,0.1,0.3,0.1L309.6,244L309.6,244z"/>
	<path class="st13" d="M310.5,247.8c-0.1,0.5-0.4,1-0.8,1.2c0,0-0.1,0-0.2-0.4l-29.4,7.2c-0.5,0.5-1.5,0.4-1.6-0.2l-0.1-0.4
		c-0.1-0.5,0.7-1.1,1.2-1.3l29.3-7.2c0.5,0,1.1,0.2,1.4,0.7L310.5,247.8L310.5,247.8z"/>
	<path class="st13" d="M311.5,251.6c-0.1,0.6-0.4,1.1-0.9,1.4c0-0.2-0.1-0.3-0.1-0.5l-29.4,7.2c-0.4,0.4-1,0.5-1.4,0
		c-0.1-0.1-0.1-0.2-0.2-0.3l-0.1-0.4c-0.1-0.5,0.7-1,1.2-1.3l29.3-7.2c0.5,0,1.1,0.2,1.4,0.7L311.5,251.6z"/>
	<path class="st13" d="M312.4,255.4c-0.1,0.7-0.4,1.3-0.8,1.9l-29.4,7.2c-0.7-0.3-1.7-0.7-1.9-1.3l-0.1-0.4
		c-0.1-0.5,0.6-1.3,1.2-1.2l29.3-7.2c0.4-0.2,0.8,0,1,0.4c0,0.1,0,0.2,0.1,0.3c0,0,0,0,0.3,0L312.4,255.4L312.4,255.4z"/>
	<path class="st13" d="M297.1,263.3c0.1,0.5-0.1,0.8-0.7,0.9l-13.5,3.3c-0.6,0.1-1.4,0.1-1.5-0.3l-0.1-0.4c-0.1-0.5,0.6-1.1,1.1-1.2
		l13.5-3.3c0.5-0.1,1,0.2,1.1,0.7l0,0L297.1,263.3z"/>
	<path class="st13" d="M345.5,235.1c-0.5,0.6-0.3,1-0.9,0.7l-29.3,7.2c-0.4,0.5-0.9,0.3-1.1-0.1c0,0,0,0,0.3-0.2l-0.1-0.4
		c-0.4-0.4-0.1-1,0.4-1.2l29.3-7.2c0.6,0.1,0.6,0.5,1.3,0.8L345.5,235.1z"/>
	<path class="st13" d="M346.5,238.9c-0.5,0.6-0.2,1.1-0.9,0.8l-29.3,7.2c-0.5,0.5-1,0.2-0.8-0.4l-0.1-0.4c-0.4-0.4-0.1-0.9,0.4-1.1
		l29.3-7.2c0.6,0.1,0.6,0.4,1.3,0.7L346.5,238.9z"/>
	<path class="st13" d="M347.4,242.8c-0.5,0.6-0.2,1.2-0.9,0.8l-29.3,7.2c-0.5,0.5-1,0.2-0.8-0.4l-0.1-0.4c-0.4-0.4-0.1-0.8,0.4-1.1
		l29.3-7.2c0.6,0.1,0.6,0.4,1.3,0.7L347.4,242.8z"/>
	<path class="st13" d="M348.3,246.6c-0.5,0.6-0.2,1.3-0.7,1.9l-29.3,7.2c-0.7-0.4-1.2-0.8-1.1-1.5l-0.1-0.4
		c-0.2-0.1-0.3-0.5-0.2-0.8c0.2-0.1,0.3-0.3,0.6-0.2l29.4-7.2c0.5-0.3,0.6,0.3,1.3,0.6L348.3,246.6z"/>
	<path class="st13" d="M333.2,254.4c0.1,0.5,0.2,0.7-0.3,0.8l-13.6,3.3c-0.6,0.1-0.9,0-1-0.5l-0.1-0.4c-0.1-0.5,0.2-1,0.7-1.1l0,0
		l13.5-3.3c0.6-0.1,0.6,0.3,0.7,0.8L333.2,254.4z"/>
	<path class="st13" d="M273.7,252.8c0.5,0.4,0.4,0.8-0.3,0.6l-29.4,7.2c-0.3,0.4-0.8,0.4-1.1,0.2c-0.1-0.1-0.1-0.2-0.3-0.3l-0.1-0.4
		c0.1-0.6,0.4-1.1,1-1.4l29.3-7.2c0.6,0.1,0.9,0.4,0.7,1L273.7,252.8L273.7,252.8z"/>
	<path class="st13" d="M274.6,256.6c0.5,0.4,0.4,0.9-0.2,0.7l-29.4,7.2c-0.5,0.6-1.1,0.3-1.4-0.3l-0.1-0.4c0-0.5,0.5-1,1-1.3
		l29.3-7.2c0.6,0.1,0.9,0.3,0.6,0.9L274.6,256.6L274.6,256.6z"/>
	<path class="st13" d="M275.6,260.5c0.5,0.4,0.5,1-0.2,0.7l-29.4,7.2c-0.5,0.6-1.1,0.3-1.4-0.3l-0.1-0.4c0-0.5,0.5-0.9,1-1.3
		l29.3-7.2c0.6,0.1,0.9,0.3,0.6,0.9L275.6,260.5L275.6,260.5z"/>
	<path class="st13" d="M267.4,265.2l8.4-2.1c0.5-0.3,0.9,0.2,0.6,0.8l0.1,0.4c0.5,0.4,0.5,1.1,0,1.7l-29.4,7.2
		c-0.7-0.2-1.2-0.7-1.7-1.3l-0.1-0.4c0-0.6,0.4-1.1,1-1.2l0,0L267.4,265.2"/>
	<path class="st13" d="M262.9,271.7c0.1,0.5-0.1,0.8-0.7,0.9l-14.6,3.6c-0.6,0.1-1.1,0.1-1.2-0.4l-0.1-0.4c0-0.5,0.4-1,0.9-1.1
		l14.6-3.6c0.5-0.1,1,0.2,1.1,0.6l0,0c0,0,0,0,0,0.1L262.9,271.7z"/>
</g>
<g id="Calendar">
	<title>Calendar</title>
	
		<linearGradient id="SVGID_6_" gradientUnits="userSpaceOnUse" x1="1432.8439" y1="1141.8318" x2="1460.1648" y2="1141.8318" gradientTransform="matrix(-0.8963 -0.1644 -0.1804 0.9836 2287.187 -639.8101)">
		<stop  offset="0" style="stop-color:#58CAEA"/>
		<stop  offset="1" style="stop-color:#4C4CBF"/>
	</linearGradient>
	<path class="st14" d="M791.3,205.6l-1.7,82c0,0-16-6.3-24.5-4.5L791.3,205.6"/>
	<path class="st15" d="M791.3,205.6l-26.2,77.5c0,0-48-15.8-86.8-16.5l27.8-76.4L791.3,205.6"/>
	<polygon class="st16" points="735,237.1 746.8,239.5 750.5,229.4 738.8,227.1 	"/>
	<polygon class="st16" points="716.2,233 728.1,235.5 731.7,225.3 720.1,223.1 	"/>
	<polygon class="st16" points="698.4,229.8 710.2,232.3 713.9,222.1 702.3,219.9 	"/>
	<polygon class="st16" points="693.4,243.5 705.3,246 708.9,235.8 697.3,233.6 	"/>
	<polygon class="st16" points="729.9,250.1 741.7,252.6 745.4,242.4 733.8,240.2 	"/>
	<polygon class="st16" points="748.2,254.1 760,256.6 763.7,246.4 752.1,244.2 	"/>
	<polygon class="st16" points="742.6,268.2 754.4,270.7 758.1,260.5 746.4,258.3 	"/>
	<polygon class="st16" points="724.4,264.6 736.2,267 739.9,256.9 728.2,254.7 	"/>
	<polygon class="st16" points="705.6,261.1 717.4,263.5 721,253.3 709.4,251.1 	"/>
	
		<linearGradient id="SVGID_7_" gradientUnits="userSpaceOnUse" x1="1496.2679" y1="1159.4843" x2="1511.2283" y2="1159.4843" gradientTransform="matrix(-0.8919 -0.187 -0.201 0.9795 2293.2371 -611.763)">
		<stop  offset="0" style="stop-color:#58CAEA"/>
		<stop  offset="1" style="stop-color:#4C4CBF"/>
	</linearGradient>
	<polygon class="st17" points="711.3,246.7 723.1,249.2 726.7,239 715.1,236.8 	"/>
	
		<linearGradient id="SVGID_8_" gradientUnits="userSpaceOnUse" x1="661.6416" y1="723.1208" x2="760.8376" y2="723.1208" gradientTransform="matrix(-0.8963 -0.1644 -0.1804 0.9836 1512.7413 -385.5951)">
		<stop  offset="0" style="stop-color:#4C4FC0"/>
		<stop  offset="1" style="stop-color:#58CAEA"/>
	</linearGradient>
	<polygon class="st18" points="791.3,205.6 783.9,227.6 698.3,211.6 706.2,190.3 	"/>
	
		<linearGradient id="SVGID_9_" gradientUnits="userSpaceOnUse" x1="687.7134" y1="711.3577" x2="695.7768" y2="711.3577" gradientTransform="matrix(-0.8963 -0.1644 -0.1804 0.9836 1512.7413 -385.5951)">
		<stop  offset="0" style="stop-color:#4D54C2"/>
		<stop  offset="1" style="stop-color:#4C4CBF"/>
	</linearGradient>
	<polygon class="st19" points="768.9,196.2 762.4,194.9 759.9,204.7 766.3,205.9 	"/>
	
		<linearGradient id="SVGID_10_" gradientUnits="userSpaceOnUse" x1="733.0425" y1="711.4683" x2="740.0119" y2="711.4683" gradientTransform="matrix(-0.8963 -0.1644 -0.1804 0.9836 1512.7413 -385.5951)">
		<stop  offset="0" style="stop-color:#4D54C2"/>
		<stop  offset="1" style="stop-color:#4C4CBF"/>
	</linearGradient>
	<polygon class="st20" points="728.2,189.2 722.6,188 720.2,197.2 725.8,198.2 	"/>
	
		<linearGradient id="SVGID_11_" gradientUnits="userSpaceOnUse" x1="1432.8439" y1="1182.3229" x2="1432.8439" y2="1182.3229" gradientTransform="matrix(-0.8963 -0.1644 -0.1804 0.9836 2287.187 -639.8101)">
		<stop  offset="0" style="stop-color:#58CAEA"/>
		<stop  offset="1" style="stop-color:#4C4CBF"/>
	</linearGradient>
	<path class="st21" d="M789.6,287.6"/>
</g>
<g>
	<title>Pig with coins</title>
	<g>
		
			<linearGradient id="SVGID_12_" gradientUnits="userSpaceOnUse" x1="1519.0773" y1="1365.6793" x2="1458.7673" y2="1321.8561" gradientTransform="matrix(0.991 0.134 -0.134 0.991 -761.0598 -1196.2941)">
			<stop  offset="0" style="stop-color:#4C4FC0"/>
			<stop  offset="1" style="stop-color:#58CAEA"/>
		</linearGradient>
		<path class="st22" d="M500,326.9l8.7,0.6c0,0,3.1-10.1,10.5-12.7l1.6-11.5c0,0,7.4,5.7,9.1,6.5c1.7,0.8,18.2-4.6,34.6,8.8
			c13.8,11.3,8.3,27,6.2,31.7c-0.3,0.8-0.9,1.6-1.5,2.3c-1.5,1.6-4.4,4.7-5.9,5.8c-2,1.5-0.4,11.5-2.8,12c-1.8,0.3-4.3-7.6-6.1-7.3
			c-9.7,1.9-19.8,0.8-28.9-3c-0.6-0.3-1.3-0.1-1.7,0.5c-1,1.5-2.9,4.2-4.3,4.8c-1.9,0.9-0.9-6.6-2.4-8c-1.6-1.4-18.3-20.7-18.3-20.7
			L500,326.9z"/>
		<linearGradient id="SVGID_13_" gradientUnits="userSpaceOnUse" x1="571.8527" y1="342.8128" x2="590.0739" y2="342.8128">
			<stop  offset="0" style="stop-color:#4D54C2"/>
			<stop  offset="1" style="stop-color:#4C4CBF"/>
		</linearGradient>
		<path class="st23" d="M572.1,338.4c0,0,7.8-4.1,11,0.2c3.2,4.3,2.1,8-1,8.6c-2.3,0.4-5.4-3.9-3.5-6.1c1.9-2.2,4.7-3.2,7.5-0.7
			c2.8,2.4,3.6,6.8,3.5,9.1"/>
		<circle class="st24" cx="518.3" cy="330.2" r="3.3"/>
		<linearGradient id="SVGID_14_" gradientUnits="userSpaceOnUse" x1="534.0375" y1="313.8184" x2="555.5933" y2="313.8184">
			<stop  offset="0" style="stop-color:#4D54C2"/>
			<stop  offset="1" style="stop-color:#4C4CBF"/>
		</linearGradient>
		<path class="st25" d="M534.1,312.4c0,0,13.4-1.7,21.2,3.2"/>
	</g>
	<g id="coin">
		
			<linearGradient id="SVGID_15_" gradientUnits="userSpaceOnUse" x1="544.7072" y1="911.4358" x2="569.4606" y2="874.5645" gradientTransform="matrix(0.991 0.134 -0.134 0.991 110.6455 -665.3152)">
			<stop  offset="0" style="stop-color:#4C4FC0"/>
			<stop  offset="1" style="stop-color:#58CAEA"/>
		</linearGradient>
		<circle class="st26" cx="548.5" cy="288.2" r="13"/>
		
			<linearGradient id="SVGID_16_" gradientUnits="userSpaceOnUse" x1="550.3929" y1="886.249" x2="572.6849" y2="886.249" gradientTransform="matrix(0.991 0.134 -0.134 0.991 110.6455 -665.3152)">
			<stop  offset="0" style="stop-color:#4D54C2"/>
			<stop  offset="1" style="stop-color:#4C4CBF"/>
		</linearGradient>
		<circle class="st27" cx="548.4" cy="288.2" r="10.6"/>
		<text transform="matrix(0.991 0.134 -0.134 0.991 543.5208 292.4824)" class="st24 st28 st29">$</text>
	</g>
	<g id="coin_copy">
		
			<linearGradient id="SVGID_17_" gradientUnits="userSpaceOnUse" x1="565.6205" y1="879.0823" x2="581.9153" y2="854.8059" gradientTransform="matrix(0.991 0.134 -0.134 0.991 110.6455 -665.3152)">
			<stop  offset="0" style="stop-color:#4C4FC0"/>
			<stop  offset="1" style="stop-color:#58CAEA"/>
		</linearGradient>
		<circle class="st30" cx="566.6" cy="266.7" r="8.6"/>
		
			<linearGradient id="SVGID_18_" gradientUnits="userSpaceOnUse" x1="569.2192" y1="862.5137" x2="584.2377" y2="862.5137" gradientTransform="matrix(0.991 0.134 -0.134 0.991 110.6455 -665.3152)">
			<stop  offset="0" style="stop-color:#4D54C2"/>
			<stop  offset="1" style="stop-color:#4C4CBF"/>
		</linearGradient>
		<circle class="st31" cx="566.6" cy="266.7" r="7"/>
		<text transform="matrix(0.991 0.134 -0.134 0.991 563.3973 269.5288)" class="st24 st28 st32">$</text>
	</g>
	<g id="coin_copy_2">
		
			<linearGradient id="SVGID_19_" gradientUnits="userSpaceOnUse" x1="538.1489" y1="880.0316" x2="549.813" y2="862.6605" gradientTransform="matrix(0.991 0.134 -0.134 0.991 110.6455 -665.3152)">
			<stop  offset="0" style="stop-color:#4C4FC0"/>
			<stop  offset="1" style="stop-color:#58CAEA"/>
		</linearGradient>
		<circle class="st33" cx="535.5" cy="268.2" r="6.1"/>
		<linearGradient id="SVGID_20_" gradientUnits="userSpaceOnUse" x1="529.9945" y1="268.1975" x2="541.0018" y2="268.1975">
			<stop  offset="0" style="stop-color:#4D54C2"/>
			<stop  offset="1" style="stop-color:#4C4CBF"/>
		</linearGradient>
		<circle class="st34" cx="535.5" cy="268.2" r="5"/>
		<text transform="matrix(0.991 0.134 -0.134 0.991 533.2032 270.2418)" class="st24 st28 st35">$</text>
	</g>
</g>
</svg>
