<?xml version="1.0" encoding="utf-8"?>
<!-- Generator: Adobe Illustrator 23.0.3, SVG Export Plug-In . SVG Version: 6.00 Build 0)  -->
<svg version="1.1" id="Layer_1" xmlns="http://www.w3.org/2000/svg" xmlns:xlink="http://www.w3.org/1999/xlink" x="0px" y="0px"
	 viewBox="0 0 976 688.7" style="enable-background:new 0 0 976 688.7;" xml:space="preserve">
<style type="text/css">
	.st0{fill:#F8F8FF;}
	.st1{fill:#FFFFFF;}
	.st2{fill:#BAC6F2;}
	.st3{fill:#E9EDFA;}
	.st4{fill:#4B49BB;}
	.st5{fill:url(#SVGID_1_);}
	.st6{fill:url(#SVGID_2_);}
	.st7{fill:url(#SVGID_3_);}
	.st8{fill:url(#SVGID_4_);}
	.st9{opacity:7.000000e-02;enable-background:new    ;}
	.st10{fill:url(#SVGID_5_);}
	.st11{fill:none;stroke:#F93764;stroke-width:4;stroke-linecap:round;stroke-miterlimit:10;}
	.st12{fill:#F7B14A;}
	.st13{fill:none;stroke:url(#SVGID_6_);stroke-linecap:round;stroke-linejoin:round;}
	.st14{fill:url(#SVGID_7_);}
	.st15{fill:none;stroke:url(#SVGID_8_);stroke-miterlimit:10;}
	.st16{fill:#F9B449;}
	.st17{font-family:'ArialMT';}
	.st18{font-size:17.9929px;}
	.st19{fill:url(#SVGID_9_);}
	.st20{fill:none;stroke:url(#SVGID_10_);stroke-miterlimit:10;}
	.st21{font-size:11.8425px;}
	.st22{fill:url(#SVGID_11_);}
	.st23{fill:none;stroke:url(#SVGID_12_);stroke-miterlimit:10;}
	.st24{font-size:8.4744px;}
</style>
<title>bg10</title>
<g id="bg">
	<path class="st0" d="M73,240c-0.4-1.2-0.8-2.4-1-3.6C68.5,214.9,52,93.9,143.4,53.2c45-20,96-53,261,8c194.7,72,322-50,352-50
		s98-44,178,42s20,190,20,190s-38,98-26,148s26,90,22,106s-6,124-72,148s-44,20-198,12s-234,14-266,26s-80,8-166-50s-106-40-150-66
		s-155.8-169.8-62-274C72.7,253,73.9,242.5,73,240z"/>
	<circle class="st1" cx="195.6" cy="162.5" r="30.1"/>
	<circle class="st1" cx="228.2" cy="162.4" r="20.5"/>
	<circle class="st1" cx="161.3" cy="162" r="16.5"/>
	<circle class="st1" cx="785.6" cy="114.8" r="30.1"/>
	<circle class="st1" cx="818.3" cy="114.7" r="20.5"/>
	<circle class="st1" cx="751.3" cy="114.3" r="16.5"/>
	<circle class="st1" cx="459.2" cy="219.7" r="30.1"/>
	
		<ellipse transform="matrix(0.3827 -0.9239 0.9239 0.3827 100.7802 589.9081)" class="st1" cx="491.8" cy="219.5" rx="20.5" ry="20.5"/>
	<circle class="st1" cx="424.9" cy="219.1" r="16.5"/>
</g>
<g id="build_1">
	<path class="st2" d="M23.4,485.2c0,0,19-28,21-32s1-20,1-20h-7c0,0,6-17,23-17s22,8,24,12s1,6,1,6h-6v16l29,48h12v78
		C121.4,576.2,50.4,539.2,23.4,485.2z"/>
	<path class="st1" d="M90.4,556.2h14v-20c0,0-7-11-14,0V556.2z"/>
	<circle class="st3" cx="94.8" cy="506.8" r="8.8"/>
	<path class="st3" d="M29.2,496.1c4-2.8,9.5-1.9,12.3,2.1c2.8,3.9,1.9,9.3-1.9,12.2"/>
	<circle class="st3" cx="63.2" cy="466.7" r="8.8"/>
	<path class="st1" d="M48.5,499.7c0-2.3,0.9-4.5,2.3-6.2c2.8-3.5,7-5.6,11.5-5.8c9.3-0.2,13.4,7.6,14,10.8
		c0.9,4.8,0.7,29.2,0.7,29.2l-21.8-0.1l-6.8-7.2L48.5,499.7z"/>
</g>
<g id="build_2">
	<path class="st3" d="M119.1,467.4l2.3,108.9c0,0,41.2,15.4,58.6,19s57.8,26.7,57.8,26.7l-0.7-154.2l-118-0.8"/>
	<path class="st2" d="M118.3,467.4l118.9,0.5l-0.5-28.4h-35.2c0,0-4.4-17-20.8-17c-20.1,0-23.5,17.9-23.5,17.9l-39-0.4L118.3,467.4z
		"/>
	<rect x="130.9" y="483.5" class="st2" width="21" height="22.8"/>
	<rect x="168.9" y="483.2" class="st2" width="21" height="22.8"/>
	<rect x="206.4" y="483.5" class="st1" width="21" height="22.8"/>
	<rect x="206.7" y="526.4" class="st2" width="21" height="22.8"/>
	<rect x="207" y="576.3" class="st2" width="21" height="22.8"/>
	<rect x="168" y="525.8" class="st2" width="21" height="22.8"/>
	<rect x="168" y="525.8" class="st1" width="21" height="22.8"/>
	<rect x="131" y="526.8" class="st2" width="21" height="22.8"/>
	<path class="st2" d="M131.5,579.7l-0.2-6.7l20.4,0.4l0.1,13.4C151.8,586.9,136.7,581.9,131.5,579.7z"/>
	<polygon class="st2" points="169.2,592.3 168.9,575.3 189.6,575.7 189.1,597.9 	"/>
	<circle class="st1" cx="179.6" cy="444.4" r="11.6"/>
</g>
<g id="build_3">
	<path class="st2" d="M236.8,543.8l1,78.3c0,0,62.3,41.4,66.2,44.4s36.5,18.8,51.3,19.7l2.7-157.9l-8.8-0.3l-42.8-53.1l-15.8-0.8
		L236.8,543.8"/>
	<polygon class="st3" points="236.8,543.8 290.7,476.1 296.6,476.3 303.4,476.7 307.2,477.1 349.3,528 358,528.3 358,525.3 
		349.6,524.9 309.3,475.6 309.5,456.6 290,455.6 289.3,475.1 237.5,500 	"/>
	<rect x="271" y="529.1" class="st1" width="9.8" height="11.5"/>
	<rect x="314.2" y="529.2" class="st1" width="9.8" height="11.5"/>
	<rect x="298.3" y="529.2" class="st1" width="9.8" height="11.5"/>
	<rect x="285.3" y="529.1" class="st1" width="9.8" height="11.5"/>
	<rect x="271" y="546.6" class="st1" width="9.8" height="11.5"/>
	<rect x="314.2" y="546.7" class="st1" width="9.8" height="11.5"/>
	<rect x="298.3" y="546.7" class="st1" width="9.8" height="11.5"/>
	<rect x="285.3" y="546.6" class="st1" width="9.8" height="11.5"/>
	<rect x="247.8" y="598.4" class="st1" width="9.8" height="11.5"/>
	<rect x="260.5" y="585.2" class="st1" width="9.8" height="11.5"/>
	<rect x="247.5" y="585.1" class="st1" width="9.8" height="11.5"/>
	<rect x="260.6" y="598.5" class="st1" width="9.8" height="11.5"/>
	<rect x="286.2" y="598.7" class="st1" width="9.8" height="11.5"/>
	<rect x="298.9" y="585.5" class="st1" width="9.8" height="11.5"/>
	<rect x="285.9" y="585.4" class="st1" width="9.8" height="11.5"/>
	<rect x="299" y="598.8" class="st1" width="9.8" height="11.5"/>
	<rect x="323.3" y="599" class="st1" width="9.8" height="11.5"/>
	<rect x="336" y="585.8" class="st1" width="9.8" height="11.5"/>
	<rect x="323" y="585.8" class="st1" width="9.8" height="11.5"/>
	<rect x="336.2" y="599.2" class="st1" width="9.8" height="11.5"/>
	<rect x="322.8" y="655" class="st1" width="9.8" height="16.3"/>
	<rect x="335.5" y="641.8" class="st1" width="9.8" height="11.5"/>
	<rect x="322.5" y="641.7" class="st1" width="9.8" height="11.5"/>
	<rect x="297" y="641.5" class="st1" width="9.8" height="11.5"/>
	<polygon class="st1" points="306.9,668.2 297.1,661.8 297,655.5 306.8,655.5 	"/>
	<rect x="284" y="641.4" class="st1" width="9.8" height="11.5"/>
	<polygon class="st1" points="293.7,659.4 291.2,657.7 287.1,655 293.7,655 	"/>
	<rect x="335.7" y="655.1" class="st1" width="9.8" height="16.3"/>
</g>
<g id="build_4">
	<polygon class="st2" points="408.8,424 427.2,424 426.9,415 408.5,414.8 	"/>
	<path class="st3" d="M357.2,508.5l-1.8,177.7c0,0,31.7,4.9,60.3-2.3s61.6-15,61.6-15l1.1-158.7l-19.2-9.4L428,445.5l-0.8-21.6
		h-18.5l-0.6,21.6l-32.8,54.2L357.2,508.5z"/>
	<rect x="404.7" y="523.7" class="st2" width="12.1" height="15.1"/>
	<rect x="421.1" y="524" class="st2" width="12.9" height="14.8"/>
	<rect x="404.4" y="541.6" class="st2" width="12.1" height="15.1"/>
	<rect x="420.8" y="541.9" class="st2" width="12.9" height="14.8"/>
	<rect x="404.9" y="577.6" class="st2" width="12.1" height="15.1"/>
	<rect x="376.4" y="577.5" class="st2" width="12.1" height="15.1"/>
	<rect x="448" y="578.1" class="st2" width="12.1" height="15.1"/>
	<rect x="448.4" y="644.6" class="st2" width="12.1" height="15.1"/>
	<rect x="376.5" y="645" class="st2" width="12.1" height="15.1"/>
	<rect x="421.4" y="577.8" class="st2" width="12.9" height="14.8"/>
	<rect x="404.6" y="595.5" class="st2" width="12.1" height="15.1"/>
	<rect x="421.1" y="595.7" class="st2" width="12.9" height="14.8"/>
	<rect x="404.7" y="642.9" class="st2" width="12.1" height="15.1"/>
	<rect x="421.1" y="643.2" class="st2" width="12.9" height="14.8"/>
	<rect x="404.4" y="660.8" class="st2" width="12.1" height="15.1"/>
	<rect x="420.9" y="661.1" class="st2" width="12.9" height="14.8"/>
	<circle class="st2" cx="383.1" cy="540.5" r="8.5"/>
	<circle class="st2" cx="451.8" cy="542.4" r="8.5"/>
	<polygon class="st2" points="357.2,508.5 375.7,508.5 375.4,499.5 356.9,499.3 	"/>
	<polygon class="st2" points="459.9,510.2 478.4,510.2 478.1,501.2 459.6,501 	"/>
	<circle class="st2" cx="418.7" cy="489.6" r="14.6"/>
</g>
<g id="build_5">
	<path class="st2" d="M470.8,510.9l1.1,76.7c0,0,2.8,82.2,3.1,81.9c6.6-6.8,108.1-13.7,119.8-14l-2.7-160l-8.8-0.3L540.4,442
		l-15.8-0.8L470.8,510.9"/>
	<polygon class="st3" points="470.8,510.9 524.6,443.3 530.6,443.5 537.4,443.9 541.1,444.3 583.2,495.1 592,495.5 592,492.4 
		583.6,492.1 543.2,442.8 543.5,423.7 524,422.7 523.2,442.2 470.8,501.1 	"/>
	<rect x="505" y="496.3" class="st1" width="9.8" height="11.5"/>
	<rect x="548.2" y="496.4" class="st1" width="9.8" height="11.5"/>
	<rect x="532.3" y="496.3" class="st1" width="9.8" height="11.5"/>
	<rect x="519.3" y="496.2" class="st1" width="9.8" height="11.5"/>
	<rect x="505" y="513.8" class="st1" width="9.8" height="11.5"/>
	<rect x="548.2" y="513.9" class="st1" width="9.8" height="11.5"/>
	<rect x="532.3" y="513.8" class="st1" width="9.8" height="11.5"/>
	<rect x="519.3" y="513.8" class="st1" width="9.8" height="11.5"/>
	<rect x="482" y="573.8" class="st1" width="9.8" height="11.5"/>
	<rect x="494.7" y="560.6" class="st1" width="9.8" height="11.5"/>
	<rect x="481.7" y="560.5" class="st1" width="9.8" height="11.5"/>
	<rect x="494.8" y="573.9" class="st1" width="9.8" height="11.5"/>
	<rect x="520.3" y="574" class="st1" width="9.8" height="11.5"/>
	<rect x="533.1" y="560.9" class="st1" width="9.8" height="11.5"/>
	<rect x="520" y="560.8" class="st1" width="9.8" height="11.5"/>
	<rect x="533.2" y="574.2" class="st1" width="9.8" height="11.5"/>
	<rect x="557.5" y="574.4" class="st1" width="9.8" height="11.5"/>
	<rect x="570.2" y="561.2" class="st1" width="9.8" height="11.5"/>
	<rect x="557.2" y="561.2" class="st1" width="9.8" height="11.5"/>
	<rect x="570.3" y="574.5" class="st1" width="9.8" height="11.5"/>
	<rect x="482.2" y="624" class="st1" width="9.8" height="11.5"/>
	<rect x="494.9" y="610.8" class="st1" width="9.8" height="11.5"/>
	<rect x="481.9" y="610.8" class="st1" width="9.8" height="11.5"/>
	<rect x="495.1" y="624.1" class="st1" width="9.8" height="11.5"/>
	<rect x="520.6" y="624.3" class="st1" width="9.8" height="11.5"/>
	<rect x="533.3" y="611.1" class="st1" width="9.8" height="11.5"/>
	<rect x="520.3" y="611" class="st1" width="9.8" height="11.5"/>
	<rect x="533.5" y="624.4" class="st1" width="9.8" height="11.5"/>
	<rect x="557.8" y="624.7" class="st1" width="9.8" height="11.5"/>
	<rect x="570.5" y="611.5" class="st1" width="9.8" height="11.5"/>
	<rect x="557.5" y="611.4" class="st1" width="9.8" height="11.5"/>
	<rect x="570.6" y="624.8" class="st1" width="9.8" height="11.5"/>
</g>
<g id="build_6">
	<path class="st3" d="M603.4,474.4c0,0,25.9-41.2,27.9-45.2s1-20,1-20h-7c0,0,6-17,23-17s22,8,24,12s1,6,1,6h-6v16l29,48h12
		l3.9,184.9c0,0-114.1-5.3-116.5-3.7c-0.8,0.5-0.7-4.7-0.8-5.6c-0.5-3.9-4.8-145.3-2.6-175.2C592.3,474.6,603.5,474.4,603.4,474.4z"
		/>
	<path class="st1" d="M676.8,532.7h14v-20c0,0-7-11-14,0V532.7z"/>
	<path class="st1" d="M609.6,534.3h14v-20c0,0-7-11-14,0V534.3z"/>
	<path class="st1" d="M609.6,586h14v-20c0,0-7-11-14,0V586z"/>
	<path class="st1" d="M643,586.6h14v-20c0,0-7-11-14,0V586.6z"/>
	<path class="st1" d="M676.4,587.2h14v-20c0,0-7-11-14,0V587.2z"/>
	<path class="st1" d="M610.4,635.4h14v-20c0,0-7-11-14,0V635.4z"/>
	<path class="st1" d="M643.9,636h14v-20c0,0-7-11-14,0V636z"/>
	<path class="st1" d="M677.3,636.6h14v-20c0,0-7-11-14,0V636.6z"/>
	<circle class="st3" cx="681.2" cy="483.2" r="8.8"/>
	<circle class="st3" cx="618" cy="481.9" r="8.8"/>
	<circle class="st3" cx="650.3" cy="525.5" r="8.8"/>
	<circle class="st3" cx="649.6" cy="443.2" r="8.8"/>
	<path class="st1" d="M634.9,476.1c0-2.3,0.9-4.5,2.3-6.2c2.8-3.5,7-5.6,11.4-5.8c9.3-0.2,13.4,7.6,13.9,10.8
		c0.9,4.8,0.7,29.2,0.7,29.2h-28.7l0.2-7.2L634.9,476.1z"/>
</g>
<g id="build_7">
	<path class="st2" d="M708.8,509.2l3,150.2c0,0,32.9,0.3,53.1,2.8c17.6,2.2,60,0.2,60,0.2l2-152.7l-118-0.8"/>
	<path class="st2" d="M708,509.2l118.9,0.5l-0.5-28.4h-35.2c0,0-4.4-17-20.8-17c-20.1,0-23.5,17.9-23.5,17.9l-39-0.4L708,509.2z"/>
	<rect x="720.5" y="525.3" class="st1" width="21" height="22.8"/>
	<rect x="758.5" y="525" class="st1" width="21" height="22.8"/>
	<rect x="796" y="525.3" class="st1" width="21" height="22.8"/>
	<rect x="796.3" y="568.2" class="st1" width="21" height="22.8"/>
	<rect x="796.6" y="618.1" class="st1" width="21" height="22.8"/>
	<rect x="758.5" y="617.2" class="st1" width="21" height="22.8"/>
	<rect x="720.5" y="616.7" class="st1" width="21" height="22.8"/>
	<rect x="757.7" y="567.5" class="st1" width="21" height="22.8"/>
	<rect x="757.7" y="567.5" class="st1" width="21" height="22.8"/>
	<rect x="720.7" y="568.5" class="st1" width="21" height="22.8"/>
	<circle class="st1" cx="769.2" cy="486.2" r="11.6"/>
</g>
<g id="build_8">
	<polygon class="st1" points="877.9,380.5 896.3,380.5 896.1,371.5 877.6,371.2 	"/>
	<path class="st3" d="M826.3,465l-2.2,197.6c0,0,39.5-10,64.6-22.4c23.7-11.8,35-37.7,37.7-42.7c0.3-0.5,0.5-1.1,0.7-1.7l13.7-40.8
		c0.4-1.1,0.7-2.3,0.8-3.4l6.3-40.2l3-18.4c0.2-1.1,0.2-2.3,0-3.4l-3.3-21.9c-0.1-0.5-0.4-0.9-0.8-1.2l-18.5-9.1L897.1,402
		l-0.8-21.6h-18.5l-0.6,21.6l-32.8,54.2L826.3,465z"/>
	<rect x="873.8" y="480.2" class="st1" width="12.1" height="15.1"/>
	<rect x="890.2" y="480.5" class="st1" width="12.9" height="14.8"/>
	<rect x="873.5" y="498.1" class="st1" width="12.1" height="15.1"/>
	<rect x="889.9" y="498.4" class="st1" width="12.9" height="14.8"/>
	<rect x="874" y="534" class="st1" width="12.1" height="15.1"/>
	<rect x="845.5" y="534" class="st1" width="12.1" height="15.1"/>
	<rect x="917.2" y="534.6" class="st1" width="12.1" height="15.1"/>
	<polygon class="st1" points="921.1,607.9 917.4,613.2 917.9,599.9 925.2,599.6 	"/>
	<rect x="845.6" y="601.5" class="st1" width="12.1" height="15.1"/>
	<rect x="890.5" y="534.3" class="st1" width="12.9" height="14.8"/>
	<rect x="873.8" y="552" class="st1" width="12.1" height="15.1"/>
	<rect x="890.2" y="552.2" class="st1" width="12.9" height="14.8"/>
	<rect x="873.8" y="599.4" class="st1" width="12.1" height="15.1"/>
	<rect x="890.2" y="599.7" class="st1" width="12.9" height="14.8"/>
	<rect x="873.6" y="617.3" class="st1" width="12.1" height="15.1"/>
	<polygon class="st1" points="901.9,631.3 900.5,632.4 890,632.4 890,617.6 902.9,617.6 902.9,630.4 	"/>
	<circle class="st1" cx="852.2" cy="497" r="8.5"/>
	<circle class="st1" cx="920.9" cy="498.9" r="8.5"/>
	<polygon class="st1" points="826.3,465 844.8,465 844.5,456 826,455.8 	"/>
	<polygon class="st1" points="929.1,466.7 947.5,466.7 946.3,461 945.5,457.6 928.8,457.5 	"/>
	<circle class="st1" cx="887.8" cy="446.1" r="14.6"/>
</g>
<g>
	<title>women handup</title>
	<g>
		<path class="st4" d="M491.2,662.4c2.7-1.8,6-4.1,13.9-5.7c6.5-1.2,10.4-11.7,10.4-11.7h15.2c0,0,1.4,17.4,0.7,18.8
			c-0.7,1.4-1.1,2.9-4.6,4c-3.5,1.1-34.3,0.7-35.7,0.4C489.9,667.9,486.1,665.8,491.2,662.4z"/>
		<path class="st4" d="M668.2,495.1c2,3.1,11,33.3,11.1,34.8s-0.7,5.8-5.4,1.8c-2.5-2.2-5.7-4.6-9.5-12c-3.1-6-14-6.7-14-6.7
			l-4.7-14.8c0,0,15.8-6.6,17.4-6.4C664.7,492,666.1,492,668.2,495.1z"/>
	</g>
	
		<linearGradient id="SVGID_1_" gradientUnits="userSpaceOnUse" x1="1110.7251" y1="1722.1567" x2="1275.2208" y2="1722.1567" gradientTransform="matrix(-0.9186 0 0 1 1671.3455 -1183.24)">
		<stop  offset="0" style="stop-color:#4F68CA"/>
		<stop  offset="1" style="stop-color:#5ACEED"/>
	</linearGradient>
	<path class="st5" d="M568,440.3c0.4,0.1,0.9,3,1,3.4c2.2,7.4,23.4,73.4,23.4,76.2c0,2.8,45.4-18.2,52.7-21.5c0.6-0.3,1.2,0,1.5,0.5
		c1.5,3.2,5.7,12.7,4.2,13.8c-1.9,1.3-49.6,36.2-53.5,37.2s-9.8,6-19.5-6c-8.4-10.3-31.8-49.3-38.3-60.2c-0.3-0.5-1-0.7-1.5-0.4
		c-0.3,0.2-0.5,0.5-0.6,0.9c-1.2,10.5-1.7,51.2-5.1,62.1c-3.4,10.9,1.5,22.6,1.5,38.6l-2.8,58.9c0,0.6-0.5,1.1-1.1,1.1l-13.2,0.3
		c-0.6,0-1.1-0.4-1.2-1c-0.9-9.5-9.6-80.7-10.4-91.8c-1-12-6.6-112.7-5.1-118.8C501.2,429.8,560.8,439.1,568,440.3z"/>
	
		<linearGradient id="SVGID_2_" gradientUnits="userSpaceOnUse" x1="1188.9967" y1="1468.8796" x2="1287.1028" y2="1468.8796" gradientTransform="matrix(-0.9186 0 0 1 1671.3455 -1183.24)">
		<stop  offset="0.11" style="stop-color:#F87B58"/>
		<stop  offset="0.5" style="stop-color:#F8C548"/>
		<stop  offset="1" style="stop-color:#F89C51"/>
	</linearGradient>
	<path class="st6" d="M563.1,263c0,0-3.3-13.6-6-13.6s-18.6,2-20.6,11.6c-2,9.6-9.3,15-9.3,26.6c0,11.6-4.7,17-4.7,17
		s-5.3-17.1-9.2-24.5c-3.9-7.4-10.8-12.1-10.8-17.1s5.9-61.8,6.3-63.3s2-10.5-1.5-15.6c0,0-10.5-8.9-11.9-12.5
		c-1.1-3-4.5-4.7-6.4-1.2s6.1,13,7.5,16.8c1.2,3.6,2,7.3,2.4,11.1c0,1,2,16.1,2,23.6s-4.4,31.2-4.4,38.7s16.2,37.6,17.7,43.2
		c1.5,5.6,48.6,58.3,49.6,59.8c1,1.5,5.9,13.1,5.9,17.1s0,17.1-2,14.6c-2-2.5-10-22.5-11.5-25s-13.1-4.9-18.5-6.4s-13.5,1.5-12.5,5
		c1,3.5,16.9,10.1,21.9,11.4c3.2,0.8,17.2,16.6,18.1,21.1s13.8-2,13.8-8.5s-1.5-39.7-3.4-44.2s-10.8-24.1-15.7-34.2
		c-4.9-10.1,5.9-15.1,7.8-22.1C569.8,285.4,563.1,263,563.1,263z"/>
	
		<linearGradient id="SVGID_3_" gradientUnits="userSpaceOnUse" x1="1191.1013" y1="1555.0066" x2="1338.801" y2="1452.2064" gradientTransform="matrix(-0.9186 0 0 1 1671.3455 -1183.24)">
		<stop  offset="0" style="stop-color:#7658F4"/>
		<stop  offset="1" style="stop-color:#E1A1ED"/>
	</linearGradient>
	<path class="st7" d="M521,295.1c0,0-12.8-23.5-14-29.4c-1.3-5.9,2-66.2,2-66.2L499,198c0,0-9.5,55.9-10.7,62.4s3.3,20.5,7.7,28.4
		s16.5,41,16.5,44.9s-0.8,41-2.7,48.2c-2,7.2-9.9,51.9-9.9,51.9l68.3,6.6c0,0-3-19.5-2.8-26c0.5-14.3,4.3-24.9-5.9-31.6
		c-6.8-4.4-13.3-2.3-20.6-6c-8.5-4.3-10.4-7.8-10.9-10.2c-0.3-1.4,1.9-4.6,15,0.4c4.4,1.7,13.3,1.6,13.5,7.4
		c0.1,4.9-6,15.5,1.4,20.3c0,0,8.5,20.5,16.4,23.7c6.8,2.7,14.9-4.7,14.7-14.4c-0.2-11.6-0.9-33.8-6-43.5
		c-5.2-9.7-19.3-34.6-21.8-36.6c-2.5-2-10.2,7.5-19.2,6.2c-9-1.3-12.7-5.6-14.6-10.1C525.3,315.5,521,295.1,521,295.1z"/>
	
		<linearGradient id="SVGID_4_" gradientUnits="userSpaceOnUse" x1="1182.1909" y1="1489.114" x2="1276.5067" y2="1489.114" gradientTransform="matrix(-0.9186 0 0 1 1671.3455 -1183.24)">
		<stop  offset="0" style="stop-color:#4B44BE"/>
		<stop  offset="1" style="stop-color:#5BD3EF"/>
	</linearGradient>
	<path class="st8" d="M549.5,252.4c-4,6.6-9.2,12.3-15.2,17c-10.3,8.2-0.1,31,0.4,42.4c0.4,9.1-4.9,21.7-17.7,30.2
		c-9.2,6.2-2.7,20.2-2.7,27.2s-14.8-9.9-15.4-17.9c-0.7-9.9,1.8-16.9,8.6-24.9c6.3-7.5,13.8-35.6,15.8-48.9c0.2-1.4,0.3-2.7,0.2-4.1
		c-0.2-4.7,0.4-19.6,13.5-28c15.6-10,25.4-0.8,31.7,4.7c7.7,6.7,10.8,25.4,8.9,54.4c-2,29,2.9,45.5,6.2,53.9
		c7.6,19.1-13.1,5.7-16.9-5.3c-4.9-14.1-8.3-15.2-15.2-26.2c-2.7-4.3,0.9-18.9,3.9-25c5.8-11.8,9.1-16.7,9.1-24.7
		S555.3,255.4,549.5,252.4z"/>
	<path class="st9" d="M546.5,304.2c0,0-11,0.7-14-6.5c-0.3-0.8,1.8,22,2.3,19C535.5,313.6,546.5,304.2,546.5,304.2z"/>
	<path class="st1" d="M337.8,241"/>
	<path class="st9" d="M565.9,356.9c0,0,2.5,16.2,3.9,23.6c0.8,4,1.3,8,1.4,12.1c0,0-9.4-12-12.4-16.8c-1.9-3,3.8-1.5,4.3-12.5
		c0.5-11,0.4-18.1,0.4-18.1L565.9,356.9z"/>
	<path class="st9" d="M565.1,409c0,0-8.4-8.4-8.8-12.8c-0.5-5.8-4.5-5.5-4.5-1.9s6.2,30.5,2.4,37.6c-3.8,7.1-6.8,7-6.8,7l20.5,1.5
		L565.1,409z"/>
	<path class="st9" d="M547.5,438.8c0,0-1.2,21.4,6.2,28.5c15.1,14.5,6.2,33.5,13,41.8c5.7,6.9,7.1,26.8,20.7,31.2
		c5.4,1.8,24.7-10.3,28.6-11.7c8.3-2.9,14.1-19.2,40-27.6c6-2-15.9,0.1-15.9,0.1l-47.6,20.2l-24.6-80.9L547.5,438.8z"/>
</g>
<g>
	<title>Pig with coins</title>
	<g>
		
			<linearGradient id="SVGID_5_" gradientUnits="userSpaceOnUse" x1="1460.4308" y1="1178.4319" x2="1390.5947" y2="1127.6868" gradientTransform="matrix(1 0 0 1 -935 -1005.37)">
			<stop  offset="0" style="stop-color:#F92468"/>
			<stop  offset="1" style="stop-color:#F9B449"/>
		</linearGradient>
		<path class="st10" d="M449.8,143.8l10.1-0.7c0,0,2-12.1,10.1-16.2v-13.5c0,0,9.4,5.4,11.5,6.1s20.2-8.1,41.1,4.7
			c17.6,10.8,13.7,29.7,12,35.4c-0.3,1-0.8,2-1.4,2.9c-1.5,2-4.4,6.1-5.9,7.5c-2,2,1.3,13.3-1.3,14.1c-2,0.7-6.1-8.1-8.1-7.4
			c-10.8,3.6-22.6,4-33.7,1.1c-0.7-0.2-1.5,0.1-1.9,0.9c-0.9,1.8-2.7,5.3-4.2,6.2c-2,1.3-2-7.4-4-8.8s-24.3-20.9-24.3-20.9V143.8z"
			/>
		<path class="st11" d="M534.4,145.9c0,0,8.3-5.9,12.7-1.5s3.7,8.9,0.2,10c-2.6,0.8-6.8-3.6-5-6.5c1.8-2.8,4.9-4.4,8.5-2
			c3.6,2.4,5.2,7.2,5.4,9.9"/>
		<circle class="st12" cx="471.4" cy="144.7" r="3.8"/>
		
			<linearGradient id="SVGID_6_" gradientUnits="userSpaceOnUse" x1="1421.2012" y1="1126.6433" x2="1447.0585" y2="1126.6433" gradientTransform="matrix(1 0 0 1 -935 -1005.37)">
			<stop  offset="0" style="stop-color:#F92468"/>
			<stop  offset="1" style="stop-color:#F93764"/>
		</linearGradient>
		<path class="st13" d="M486.7,121.9c0,0,15.1-4,24.9,0.4"/>
	</g>
	<g id="coin">
		
			<linearGradient id="SVGID_7_" gradientUnits="userSpaceOnUse" x1="479.842" y1="717.1005" x2="508.5053" y2="674.4054" gradientTransform="matrix(1 0 0 1 0 -596)">
			<stop  offset="0" style="stop-color:#F92468"/>
			<stop  offset="1" style="stop-color:#F9B449"/>
		</linearGradient>
		<circle class="st14" cx="499.5" cy="91.9" r="15.1"/>
		
			<linearGradient id="SVGID_8_" gradientUnits="userSpaceOnUse" x1="486.5048" y1="687.9355" x2="512.1599" y2="687.9355" gradientTransform="matrix(1 0 0 1 0 -596)">
			<stop  offset="0" style="stop-color:#F92468"/>
			<stop  offset="1" style="stop-color:#F93764"/>
		</linearGradient>
		<circle class="st15" cx="499.3" cy="91.9" r="12.3"/>
		<text transform="matrix(1 0 0 1 494.4549 97.6074)" class="st16 st17 st18">$</text>
	</g>
	<g id="coin_copy">
		
			<linearGradient id="SVGID_9_" gradientUnits="userSpaceOnUse" x1="504.0587" y1="679.6368" x2="522.9272" y2="651.5259" gradientTransform="matrix(1 0 0 1 0 -596)">
			<stop  offset="0" style="stop-color:#F92468"/>
			<stop  offset="1" style="stop-color:#F9B449"/>
		</linearGradient>
		<circle class="st19" cx="517" cy="64.4" r="9.9"/>
		
			<linearGradient id="SVGID_10_" gradientUnits="userSpaceOnUse" x1="508.3045" y1="660.4511" x2="525.5378" y2="660.4511" gradientTransform="matrix(1 0 0 1 0 -596)">
			<stop  offset="0" style="stop-color:#F92468"/>
			<stop  offset="1" style="stop-color:#F93764"/>
		</linearGradient>
		<circle class="st20" cx="516.9" cy="64.5" r="8.2"/>
		<text transform="matrix(1 0 0 1 513.701 68.1831)" class="st16 st17 st21">$</text>
	</g>
	<g id="coin_copy_2">
		
			<linearGradient id="SVGID_11_" gradientUnits="userSpaceOnUse" x1="472.2479" y1="680.736" x2="485.7544" y2="660.6211" gradientTransform="matrix(1 0 0 1 0 -596)">
			<stop  offset="0" style="stop-color:#F92468"/>
			<stop  offset="1" style="stop-color:#F9B449"/>
		</linearGradient>
		<circle class="st22" cx="481.5" cy="71" r="7.1"/>
		
			<linearGradient id="SVGID_12_" gradientUnits="userSpaceOnUse" x1="475.1531" y1="666.9854" x2="487.7673" y2="666.9854" gradientTransform="matrix(1 0 0 1 0 -596)">
			<stop  offset="0" style="stop-color:#F92468"/>
			<stop  offset="1" style="stop-color:#F93764"/>
		</linearGradient>
		<circle class="st23" cx="481.5" cy="71" r="5.8"/>
		<text transform="matrix(1 0 0 1 479.1639 73.6865)" class="st16 st17 st24">$</text>
	</g>
</g>
</svg>
