<?xml version="1.0" encoding="utf-8"?>
<!-- Generator: Adobe Illustrator 23.0.3, SVG Export Plug-In . SVG Version: 6.00 Build 0)  -->
<svg version="1.1" id="Layer_1" xmlns="http://www.w3.org/2000/svg" xmlns:xlink="http://www.w3.org/1999/xlink" x="0px" y="0px"
	 viewBox="0 0 1088.7 607.2" style="enable-background:new 0 0 1088.7 607.2;" xml:space="preserve">
<style type="text/css">
	.st0{fill:#F8F8FF;}
	.st1{fill:#F5F5FC;}
	.st2{fill:#BAC6F2;}
	.st3{fill:#FFFFFF;}
	.st4{fill:none;stroke:#FFFFFF;stroke-width:3;stroke-linecap:round;stroke-linejoin:round;}
	.st5{fill:none;stroke:#FFFFFF;stroke-width:3;stroke-miterlimit:10;}
	.st6{fill:url(#SVGID_1_);}
	.st7{fill:none;stroke:#F93764;stroke-width:4;stroke-linecap:round;stroke-miterlimit:10;}
	.st8{fill:#F7B14A;}
	.st9{fill:none;stroke:url(#SVGID_2_);stroke-linecap:round;stroke-linejoin:round;}
	.st10{fill:url(#SVGID_3_);}
	.st11{fill:none;stroke:url(#SVGID_4_);stroke-miterlimit:10;}
	.st12{fill:#F9B449;}
	.st13{font-family:'ArialMT';}
	.st14{font-size:26.71px;}
	.st15{fill:url(#SVGID_5_);}
	.st16{fill:none;stroke:url(#SVGID_6_);stroke-miterlimit:10;}
	.st17{font-size:17.58px;}
	.st18{fill:url(#SVGID_7_);}
	.st19{fill:none;stroke:url(#SVGID_8_);stroke-miterlimit:10;}
	.st20{font-size:12.58px;}
	.st21{fill:url(#SVGID_9_);}
	.st22{fill:url(#SVGID_10_);}
	.st23{fill:#7A5BF5;}
	.st24{fill:url(#SVGID_11_);}
	.st25{fill:#FCFCFC;}
	.st26{fill:#58CAEA;}
	.st27{fill:url(#SVGID_12_);}
	.st28{fill:url(#SVGID_13_);}
	.st29{fill:url(#SVGID_14_);}
	.st30{fill:url(#SVGID_15_);}
	.st31{fill:url(#SVGID_16_);}
</style>
<title>bg11</title>
<g id="bg">
	<path class="st0" d="M25.4,258.3c-12.4-57.4,13.6-121.9,68-144c42.8-17.4,108.3-23.2,196-2c232,56,212-8,302-58
		c79.2-44,176-98,344,4c127.4,77.4,52,198,138,272c55.3,47.6-38,278-306,228s-328.7,20.2-450,46c-122,26-373.9-128.7-306-200
		C51.4,362.3,33.2,294.3,25.4,258.3z"/>
	<path class="st1" d="M94.9,272.3c-10.6-49.3,11.7-104.8,58.5-123.8c36.8-15,93.1-19.9,168.5-1.7c199.4,48.1,182.2-6.9,259.6-49.9
		c68.1-37.8,151.3-84.2,295.7,3.4c109.5,66.5,44.7,170.2,118.6,233.8c47.5,40.9-32.7,239-263,196s-282.5,17.3-386.8,39.5
		C241,592,24.4,459.1,82.8,397.8C117.2,361.7,101.5,303.3,94.9,272.3z"/>
	<path class="st2" d="M172.7,275.4c-9.1-42.2,10-89.7,50-106c31.5-12.8,79.7-17,144.3-1.5c170.8,41.2,156-5.9,222.3-42.7
		c58.3-32.4,129.5-72.1,253.2,2.9c93.8,56.9,38.3,145.7,101.6,200.2c40.7,35-28,204.6-225.2,167.8S476.9,511,387.6,530
		c-89.8,19.1-275.2-94.7-225.2-147.2C191.9,351.9,178.4,301.9,172.7,275.4z"/>
</g>
<g id="Elippses">
	<circle class="st3" cx="204.4" cy="300.3" r="8"/>
	<circle class="st3" cx="266.9" cy="251.8" r="4.5"/>
	<circle class="st3" cx="282.4" cy="373.3" r="5"/>
	<circle class="st3" cx="239.9" cy="442.8" r="5.5"/>
	<circle class="st3" cx="366.9" cy="465.8" r="5.5"/>
	<circle class="st3" cx="604.4" cy="463.3" r="6"/>
	<circle class="st3" cx="702.9" cy="334.8" r="5.5"/>
	<circle class="st3" cx="778.4" cy="260.3" r="4"/>
	<circle class="st3" cx="839.9" cy="276.8" r="5.5"/>
	<circle class="st3" cx="885.4" cy="207.3" r="5"/>
	<circle class="st3" cx="876.4" cy="410.3" r="5"/>
	<circle class="st3" cx="793.9" cy="471.8" r="5.5"/>
	<circle class="st3" cx="494.4" cy="397.3" r="9"/>
	<circle class="st3" cx="538.4" cy="299.3" r="9"/>
	<circle class="st3" cx="653.4" cy="256.3" r="9"/>
	<circle class="st3" cx="652.9" cy="391.8" r="9.5"/>
	<circle class="st3" cx="750.9" cy="378.8" r="9.5"/>
	<circle class="st3" cx="457.4" cy="338.3" r="9"/>
	<circle class="st3" cx="515.4" cy="418.3" r="9"/>
	<circle class="st3" cx="580.4" cy="349.3" r="9"/>
	<circle class="st3" cx="347.9" cy="373.8" r="8.5"/>
	<circle class="st3" cx="433.9" cy="264.7" r="8.5"/>
	<polyline class="st4" points="171.8,439.7 204.4,300.3 344.4,374.3 456.4,338.3 494.4,397.3 515.4,421.3 580.4,348.3 652.4,393.3 
		749.4,378.3 	"/>
	<polyline class="st5" points="460.3,338.3 537.2,298.2 653.4,256.3 	"/>
	<circle class="st3" cx="352.9" cy="202.8" r="4.5"/>
	<circle class="st3" cx="679.4" cy="124.3" r="4"/>
	<circle class="st3" cx="440.9" cy="222.8" r="4.5"/>
	<circle class="st3" cx="582.4" cy="194.3" r="4"/>
	<circle class="st3" cx="345.9" cy="296.8" r="3.5"/>
	<circle class="st3" cx="742.4" cy="156.3" r="6"/>
	<circle class="st3" cx="628.4" cy="211.3" r="4"/>
	<circle class="st3" cx="224.4" cy="193.3" r="5"/>
	<circle class="st3" cx="820.4" cy="338.3" r="5"/>
	<polyline class="st5" points="876.4,410.3 820.4,338.3 839.4,276.3 778.4,260.3 	"/>
	<line class="st4" x1="433.9" y1="264.7" x2="456.4" y2="338.3"/>
</g>
<g>
	<title>Pig with coins</title>
	<g>
		
			<linearGradient id="SVGID_1_" gradientUnits="userSpaceOnUse" x1="1263.6946" y1="1218.3761" x2="1160.0245" y2="1143.046" gradientTransform="matrix(0.9616 -0.2745 0.2745 0.9616 -1235.0116 -552.5425)">
			<stop  offset="0" style="stop-color:#F92468"/>
			<stop  offset="1" style="stop-color:#F9B449"/>
		</linearGradient>
		<path class="st6" d="M194.7,261.2l14.1-5.1c0,0-2.1-18.1,7.8-27.2l-5.5-19.2c0,0,15.7,3.8,18.8,4c3.2,0.1,25.6-19.8,60.6-10
			c29.5,8.2,31.6,36.8,31.5,45.6c0,1.6-0.3,3.2-0.8,4.7c-1.3,3.5-3.8,10.4-5.3,13.2c-2.1,3.7,7.2,18.4,3.8,20.7
			c-2.6,1.8-11.9-9.1-14.6-7.3c-14,9.6-30.6,15-47.6,15.3c-1.1,0-2.2,0.8-2.3,2c-0.5,3-1.7,8.6-3.4,10.5c-2.3,2.7-5.9-9.8-9.3-10.9
			c-3.4-1.1-43.1-19.9-43.1-19.9L194.7,261.2z"/>
		<path class="st7" d="M316.3,229.7c0,0,9.4-11.7,17.5-7.3c8,4.5,8.9,11.2,4.4,14.1c-3.4,2.2-11.2-2.4-9.8-7.2
			c1.4-4.8,5.2-8.3,11.3-6.3c6.1,1.9,10.3,8.2,11.7,11.9"/>
		<circle class="st8" cx="225.9" cy="253.7" r="5.6"/>
		
			<linearGradient id="SVGID_2_" gradientUnits="userSpaceOnUse" x1="1205.702" y1="1141.4971" x2="1243.6021" y2="1141.4971" gradientTransform="matrix(0.9616 -0.2745 0.2745 0.9616 -1235.0116 -552.5425)">
			<stop  offset="0" style="stop-color:#F92468"/>
			<stop  offset="1" style="stop-color:#F93764"/>
		</linearGradient>
		<path class="st9" d="M238.5,214.9c0,0,19.9-11.9,35.6-9.6"/>
	</g>
	<g id="coin">
		
			<linearGradient id="SVGID_3_" gradientUnits="userSpaceOnUse" x1="261.0191" y1="731.8705" x2="303.5691" y2="668.4905" gradientTransform="matrix(0.9616 -0.2745 0.2745 0.9616 -223.5543 -415.5646)">
			<stop  offset="0" style="stop-color:#F92468"/>
			<stop  offset="1" style="stop-color:#F9B449"/>
		</linearGradient>
		<circle class="st10" cx="244.4" cy="166.8" r="22.4"/>
		
			<linearGradient id="SVGID_4_" gradientUnits="userSpaceOnUse" x1="271.1521" y1="688.5757" x2="308.752" y2="688.5757" gradientTransform="matrix(0.9616 -0.2745 0.2745 0.9616 -223.5543 -415.5646)">
			<stop  offset="0" style="stop-color:#F92468"/>
			<stop  offset="1" style="stop-color:#F93764"/>
		</linearGradient>
		<circle class="st11" cx="244.3" cy="167" r="18.3"/>
		<text transform="matrix(0.9616 -0.2745 0.2745 0.9616 239.6287 177.0486)" class="st12 st13 st14">$</text>
	</g>
	<g id="coin_copy">
		
			<linearGradient id="SVGID_5_" gradientUnits="userSpaceOnUse" x1="296.9681" y1="676.2564" x2="324.9781" y2="634.5264" gradientTransform="matrix(0.9616 -0.2745 0.2745 0.9616 -223.5543 -415.5646)">
			<stop  offset="0" style="stop-color:#F92468"/>
			<stop  offset="1" style="stop-color:#F9B449"/>
		</linearGradient>
		<circle class="st15" cx="258.2" cy="120.4" r="14.7"/>
		
			<linearGradient id="SVGID_6_" gradientUnits="userSpaceOnUse" x1="303.5121" y1="647.7758" x2="328.6121" y2="647.7758" gradientTransform="matrix(0.9616 -0.2745 0.2745 0.9616 -223.5543 -415.5646)">
			<stop  offset="0" style="stop-color:#F92468"/>
			<stop  offset="1" style="stop-color:#F93764"/>
		</linearGradient>
		<circle class="st16" cx="258.2" cy="120.6" r="12.1"/>
		<text transform="matrix(0.9616 -0.2745 0.2745 0.9616 255.1106 127.2038)" class="st12 st13 st17">$</text>
	</g>
	<g id="coin_copy_2">
		
			<linearGradient id="SVGID_7_" gradientUnits="userSpaceOnUse" x1="249.7458" y1="677.8881" x2="269.7958" y2="648.0281" gradientTransform="matrix(0.9616 -0.2745 0.2745 0.9616 -223.5543 -415.5646)">
			<stop  offset="0" style="stop-color:#F92468"/>
			<stop  offset="1" style="stop-color:#F9B449"/>
		</linearGradient>
		<circle class="st18" cx="210.3" cy="144.3" r="10.5"/>
		
			<linearGradient id="SVGID_8_" gradientUnits="userSpaceOnUse" x1="254.302" y1="657.4758" x2="272.5421" y2="657.4758" gradientTransform="matrix(0.9616 -0.2745 0.2745 0.9616 -223.5543 -415.5646)">
			<stop  offset="0" style="stop-color:#F92468"/>
			<stop  offset="1" style="stop-color:#F93764"/>
		</linearGradient>
		<circle class="st19" cx="210.3" cy="144.3" r="8.6"/>
		<text transform="matrix(0.9616 -0.2745 0.2745 0.9616 208.053 149.134)" class="st12 st13 st20">$</text>
	</g>
</g>
<g id="bag">
	<title>Bag</title>
	
		<linearGradient id="SVGID_9_" gradientUnits="userSpaceOnUse" x1="2261.8167" y1="-1238.9062" x2="2384.5935" y2="-1295.7734" gradientTransform="matrix(1 0 0 -1 -1511.98 -955.5601)">
		<stop  offset="0" style="stop-color:#7A5BF5"/>
		<stop  offset="1" style="stop-color:#CD94EF"/>
	</linearGradient>
	<path class="st21" d="M786.6,282.7c0,0-16,58.1-13.4,64.6s15.6,7.8,21.3,9.1s58.1,15,63.5,15.3c5.3,0.3,4.9,1,7.2,1
		s31.4-9.8,32.5-13.3c1-3.5,1.9-5.8,1-10.1s-14.1-59.7-17.7-60.9C877.3,287.3,786.6,282.7,786.6,282.7z"/>
	
		<linearGradient id="SVGID_10_" gradientUnits="userSpaceOnUse" x1="2280.8091" y1="-1223.8386" x2="2362.4104" y2="-1261.6393" gradientTransform="matrix(1 0 0 -1 -1511.98 -955.5601)">
		<stop  offset="0" style="stop-color:#7A5BF5"/>
		<stop  offset="1" style="stop-color:#E5A4ED"/>
	</linearGradient>
	<path class="st22" d="M783.9,293.1c0,0,1.2-9.1,2.7-10.4c1.6-1.3,6.1-7.2,10.4-7.5c4.3-0.3,74,8.5,76.6,9.1c2.6,0.6,6.1,1.9,7.2,4
		c1.2,2.2-10.1,4.8-12.3,11.7s-42,21.5-51.8,22.5C806.9,323.5,783.9,293.1,783.9,293.1z"/>
	<path class="st23" d="M806.6,277.5c0,0,7.5-16.3,11.1-19.3c3.2-2.7,14.6-8.7,21.5,0.1c7.8,10,7.1,21.5,7.1,22.9s-7.6,0.1-7.6,0.1
		s2.5-11.8,0.3-15.9c-2-3.7-3.2-8.2-10.4-7.8c-7.2,0.4-9.8,4.5-12,8.2c-1.9,3.7-3.3,7.6-4.6,11.7
		C811.7,278.1,806.6,277.5,806.6,277.5z"/>
	<path class="st23" d="M818.6,278.5c0,0,7.5-19.9,11.1-23.7c3.2-3.3,15.3-10,22.2,0.7c7.8,12.1,6.2,25.7,6.2,27.3s-7.6,0.3-7.6,0.3
		s2.3-14.4,0.1-19.5c-2-4.6-3.2-10.1-10.2-9.5c-7.1,0.6-9.8,5.3-12,10.1c-1.9,4.6-3.3,9.4-4.6,14.3
		C823.8,279.2,818.6,278.5,818.6,278.5z"/>
	<path class="st23" d="M865.5,304c0,0-6.6,55.8-5.8,59.6s3,9.1,4.6,9.1c1.6,0,4.2-0.3,3.2-1.6c-3.3-4.8-4.8-10.7-3.9-16.3
		c1-9.1,4.9-54.8,4.9-54.8L865.5,304z"/>
	<circle class="st3" cx="815" cy="322.5" r="4"/>
</g>
<g id="Calendar">
	<title>Calendar</title>
	
		<linearGradient id="SVGID_11_" gradientUnits="userSpaceOnUse" x1="1193.5304" y1="1335.1282" x2="1220.4309" y2="1335.1282" gradientTransform="matrix(1 0 0 1 -785.59 -907.73)">
		<stop  offset="0" style="stop-color:#58CAEA"/>
		<stop  offset="1" style="stop-color:#4C4CBF"/>
	</linearGradient>
	<path class="st24" d="M422.1,387.5l-14.2,79.7c0,0,18.3-3.2,26.9,0L422.1,387.5"/>
	<path class="st25" d="M422.1,387.5l12.7,79.7c0,0,54.1-6.8,95.5-0.6l-14.7-78.9L422.1,387.5"/>
	<polygon class="st26" points="475.9,428 462.8,428.3 460.9,417.8 473.7,417.7 	"/>
	<polygon class="st26" points="496.6,427.4 483.5,427.7 481.6,417.2 494.4,417.1 	"/>
	<polygon class="st26" points="516.2,427.5 503.1,427.8 501.2,417.3 514,417.2 	"/>
	<polygon class="st26" points="518.8,441.7 505.7,442 503.8,431.4 516.6,431.4 	"/>
	<polygon class="st26" points="478.7,441.5 465.7,441.8 463.8,431.3 476.6,431.2 	"/>
	<polygon class="st26" points="458.5,442.2 445.4,442.5 443.5,432 456.3,431.9 	"/>
	<polygon class="st26" points="461.7,456.8 448.6,457.1 446.8,446.6 459.6,446.5 	"/>
	<polygon class="st26" points="481.8,456.5 468.7,456.8 466.8,446.3 479.6,446.3 	"/>
	<polygon class="st26" points="502.5,456.5 489.4,456.8 487.5,446.3 500.3,446.2 	"/>
	
		<linearGradient id="SVGID_12_" gradientUnits="userSpaceOnUse" x1="1250.4576" y1="1345.7523" x2="1265.1877" y2="1345.7523" gradientTransform="matrix(0.9997 -2.303631e-02 2.303631e-02 0.9997 -796.7332 -879.9561)">
		<stop  offset="0" style="stop-color:#58CAEA"/>
		<stop  offset="1" style="stop-color:#4C4CBF"/>
	</linearGradient>
	<polygon class="st27" points="499.2,441.5 486.1,441.8 484.3,431.3 497,431.2 	"/>
	
		<linearGradient id="SVGID_13_" gradientUnits="userSpaceOnUse" x1="422.1067" y1="916.8631" x2="519.7768" y2="916.8631" gradientTransform="matrix(1 0 0 1 0 -518)">
		<stop  offset="0" style="stop-color:#4C4FC0"/>
		<stop  offset="1" style="stop-color:#58CAEA"/>
	</linearGradient>
	<polygon class="st28" points="422.1,387.5 425.7,410.2 519.8,409.9 515.6,387.8 	"/>
	
		<linearGradient id="SVGID_14_" gradientUnits="userSpaceOnUse" x1="447.7774" y1="905.2809" x2="455.7168" y2="905.2809" gradientTransform="matrix(1 0 0 1 0 -518)">
		<stop  offset="0" style="stop-color:#4D54C2"/>
		<stop  offset="1" style="stop-color:#4C4CBF"/>
	</linearGradient>
	<polygon class="st29" points="447.8,382.4 454.9,382.3 455.7,392.3 448.7,392.3 	"/>
	
		<linearGradient id="SVGID_15_" gradientUnits="userSpaceOnUse" x1="492.4092" y1="905.3899" x2="499.2714" y2="905.3899" gradientTransform="matrix(1 0 0 1 0 -518)">
		<stop  offset="0" style="stop-color:#4D54C2"/>
		<stop  offset="1" style="stop-color:#4C4CBF"/>
	</linearGradient>
	<polygon class="st30" points="492.4,382.9 498.6,382.7 499.3,392 493.2,392 	"/>
	
		<linearGradient id="SVGID_16_" gradientUnits="userSpaceOnUse" x1="1193.5304" y1="1374.9963" x2="1193.5304" y2="1374.9963" gradientTransform="matrix(1 0 0 1 -785.59 -907.73)">
		<stop  offset="0" style="stop-color:#58CAEA"/>
		<stop  offset="1" style="stop-color:#4C4CBF"/>
	</linearGradient>
	<path class="st31" d="M407.9,467.3"/>
</g>
</svg>
