<?xml version="1.0" encoding="utf-8"?>
<!-- Generator: Adobe Illustrator 23.0.3, SVG Export Plug-In . SVG Version: 6.00 Build 0)  -->
<svg version="1.1" id="Layer_1" xmlns="http://www.w3.org/2000/svg" xmlns:xlink="http://www.w3.org/1999/xlink" x="0px" y="0px"
	 viewBox="0 0 900.1 580.1" style="enable-background:new 0 0 900.1 580.1;" xml:space="preserve">
<style type="text/css">
	.st0{fill:#F8F8FF;}
	.st1{fill:#FFFFFF;}
	.st2{fill:none;stroke:#BAC6F2;stroke-width:5;stroke-linecap:round;stroke-linejoin:round;}
	.st3{fill:#4B44BE;}
	.st4{fill:url(#SVGID_1_);}
	.st5{fill:url(#SVGID_2_);}
	.st6{fill:url(#SVGID_3_);}
	.st7{fill:url(#SVGID_4_);}
	.st8{opacity:7.000000e-02;enable-background:new    ;}
	.st9{fill:url(#SVGID_5_);}
	.st10{fill:url(#SVGID_6_);}
	.st11{fill:url(#SVGID_7_);}
	.st12{fill:url(#SVGID_8_);}
	.st13{fill:#4A41BC;}
	.st14{fill:url(#SVGID_9_);}
	.st15{fill:url(#SVGID_10_);}
	.st16{fill:url(#SVGID_11_);}
	.st17{fill:url(#SVGID_12_);}
	.st18{fill:url(#SVGID_13_);}
	.st19{fill:url(#SVGID_14_);}
	.st20{fill:url(#SVGID_15_);}
</style>
<title>bg12</title>
<path class="st0" d="M69.1,264.2c0,0-168-204,20-256s254,160,382,166s278-80,318-80s112,4,108,74s-56,134-58,168s46,126,54,148
	s18,84-26,88c-22.5,2-151,27-325-24c-131.7-38.6-337.8,28-385.8,28c-15.6,0-30.7-4.8-43.5-13.8c-35.3-25.1-91.5-88.2-41.7-218.2
	C97.1,276.2,69.1,264.2,69.1,264.2z"/>
<circle class="st1" cx="237.1" cy="246.2" r="51"/>
<circle class="st1" cx="175.1" cy="255.2" r="34"/>
<circle class="st1" cx="291.1" cy="256.2" r="33"/>
<circle class="st1" cx="702.1" cy="402.2" r="51"/>
<circle class="st1" cx="639.1" cy="407.2" r="34"/>
<circle class="st1" cx="758.1" cy="411.2" r="33"/>
<circle class="st1" cx="152.1" cy="470.2" r="34"/>
<circle class="st1" cx="192.1" cy="476.2" r="24"/>
<path class="st2" d="M233.1,394.2c0,0,23-29,47,3c0,0,23-34,37-5"/>
<path class="st2" d="M177.1,368c0,0,16.5-20.8,33.8,2.2c0,0,16.5-24.4,26.6-3.6"/>
<path class="st2" d="M710.1,207.1c0,0,16.5-20.8,33.8,2.1c0,0,16.5-24.4,26.6-3.6"/>
<path class="st2" d="M70.1,105.1c0,0,16.5-20.9,33.8,2.1c0,0,16.5-24.4,26.6-3.6"/>
<g id="Boy">
	<title>Boy</title>
	<g>
		<path class="st3" d="M266.6,551c-5.5-0.3-11.7-6.6-11.7-6.6l-12.3-1.6c0,0-3.8,11.6,0.3,14c4.1,2.4,28.8,3.1,28.8,0
			C271.7,553.7,271.3,551.2,266.6,551z"/>
		<path class="st3" d="M182.9,550.6c-4.8-2.7-7.5-11.2-7.5-11.2l-10.3-6.9c0,0-8.7,8.7-6,12.6c2.7,3.9,24.3,15.8,25.7,13
			C186.2,555.3,187,553,182.9,550.6z"/>
	</g>
	
		<linearGradient id="SVGID_1_" gradientUnits="userSpaceOnUse" x1="1063.71" y1="1927.0037" x2="1258.15" y2="1927.0037" gradientTransform="matrix(1 0 0 1 -911.63 -1552.6599)">
		<stop  offset="0" style="stop-color:#F87B58"/>
		<stop  offset="0.5" style="stop-color:#F8C548"/>
		<stop  offset="1" style="stop-color:#F89C51"/>
	</linearGradient>
	<path class="st4" d="M201.3,220.4c0,0,11.8-25,30.8-12s19.4,30.1,13.7,38.3c-6.7,9.7-5,17.6-3.8,20.7c0.3,0.9,1,1.7,1.8,2.1
		l32.1,18l12.8,12.1l30.8-38.8c0,0,5-7,14-7s13,3,13,3s1,4-10,7l-11,3l-28,50c0,0-8.3,3.5-17.2-3.9c-7.8-6.5-15.1-13.5-21.8-21.1
		l-1,116l3.4,33.2l-1.4,19.6c0.1,1.8-0.7,21.2-0.8,23l-2.2,30l-2.7,30.4l-11.2-1.4l-1.9-22l-4.4-79.1l-0.5-71.5l-19.4,44.8l0.7,26.1
		l-16,49.6c-0.7,2.1-1.5,4.1-2.5,6l-22.9,43.2l-10.8-6.7l12.3-31.2c1.3-2.7,7.7-23.4,8.5-26.3l8.2-38.8L229.5,301l-17.9,9.1
		c0,0-13.1,29.3-15.1,32.3s-25.9,33.2-26.9,37.2s-4.8,11.7-9.8,13.7s-14,5.3-1-13.7c10.2-14.9,16.7-26,19.1-30
		c0.6-1.1,1.2-2.2,1.7-3.4l13.5-34l21.5-34.5l2.9-2.1l6.1-4.8c0.8-0.6,1.2-1.6,1.1-2.6c-0.7-4.6-3.1-8.8-6.8-11.6
		C210.9,251,196.7,240.4,201.3,220.4z"/>
	
		<linearGradient id="SVGID_2_" gradientUnits="userSpaceOnUse" x1="193.4964" y1="1543.8171" x2="263.4964" y2="1543.8171" gradientTransform="matrix(1 0 0 1 0 -1144)">
		<stop  offset="0" style="stop-color:#4F68CA"/>
		<stop  offset="1" style="stop-color:#5ACEED"/>
	</linearGradient>
	<polygon class="st5" points="205.5,371.8 193.5,436.8 217.5,441.8 232.5,387.8 236.1,441.7 261.2,441.7 263.5,357.8 	"/>
	
		<linearGradient id="SVGID_3_" gradientUnits="userSpaceOnUse" x1="1104.2263" y1="1872.9021" x2="1190.6263" y2="1872.9021" gradientTransform="matrix(1 0 0 1 -911.63 -1552.6599)">
		<stop  offset="0" style="stop-color:#7658F4"/>
		<stop  offset="1" style="stop-color:#E1A1ED"/>
	</linearGradient>
	<path class="st6" d="M192.6,312.9c0,0,7.7-27.8,23.2-37c1.6-0.9,4.4-3.8,4.6-2.1c0.3,3,2,10,9,10c11,0,14.2-9.2,14.2-14.2
		c0-1.5,6.2-1.2,11.6-0.3c5.1,0.8,10.2,3,13.6,6.8l10.2,14.3l-9.5,10.5l-3,1.6l-3,55.4c0,0-22.1,10.2-42,13c-5.3,0.6-10.7,1-16,1
		l4-57L192.6,312.9z"/>
	
		<linearGradient id="SVGID_4_" gradientUnits="userSpaceOnUse" x1="1111.6598" y1="1779.6991" x2="1159.7268" y2="1779.6991" gradientTransform="matrix(1 0 0 1 -911.63 -1552.6599)">
		<stop  offset="0" style="stop-color:#4F68CA"/>
		<stop  offset="1" style="stop-color:#5ACEED"/>
	</linearGradient>
	<path class="st7" d="M208.2,238c3.5-4.2,7.3-8.1,11.4-11.7c5.8-4.8,8.8-7.6,8.8-7.6s7.9,5.8,11.1,6.9c3.2,1.1,8,3.1,8,3.1
		s2.7-9-4-10.1s-26.8-8.4-31-5.2c-4.2,3.2-11.3,12.4-12.3,16.8c-1,4.4,1.5,10.1,3.1,11.2c0.9,0.6-1.6-4.5-0.2-5.5
		C204.1,235,208.2,238,208.2,238z"/>
	<path class="st3" d="M200.2,230.2l62.7-14.7c0,0,1.2-2.9-1.1-3c-2.3-0.1-16.6,4.7-16.6,4.7s-6.2-18.2-26.4-17.8
		c0,0,0.8-1.8-0.3-1.9c-1.1-0.1-6.3,1.3-6.7,1.7c-0.4,0.4,0.8,1.6,0.2,2.1C211.4,201.8,193.8,210.2,200.2,230.2z"/>
	<path class="st8" d="M244,248.8c0,0-4.1,5.1-7.4,6.2c-3.3,1.1-1.4,1.2,0,5.3c0.7,2.2,1.7,4.2,3,6.1
		C239.6,266.4,241.4,250.3,244,248.8z"/>
	<path class="st8" d="M212,201.4c0,0,2.8,2.7,1,9.8c-1.8,7.1-2.4,9.3-0.9,12c1.5,2.7,0.4,4.2,0.4,4.2l-12.3,2.9
		C200.3,230.2,192.6,212.2,212,201.4z"/>
	<path class="st8" d="M209.5,314.8c0,0,3.9-5.6,4.3-10.7c0.4-5.1-1.8,10.1,0.7,19.2s-0.4,17,4.7,20.2c5.1,3.2,1.1,14.1,2.2,18.8
		c0.7,2.8,2.7,5.1,5.4,6.2c0,0-0.7,2.5-9.4,2.9c-8.7,0.4-11.9,0.4-11.9,0.4L209.5,314.8z"/>
</g>
<g>
	<g>
		<path class="st3" d="M605.2,538.9c0,0-7.2,7.8-12.6,8.1c-4.6,0.2-5.2,2-5.2,5.1c0,3.1,20,2.5,26.5,1.3c4.6-0.8,1.4-14.3,1.4-14.3
			L605.2,538.9z"/>
		<path class="st3" d="M668.7,537.5l-9.1,0.9c0,0-6.8,7.9-12.1,8.6c-4.6,0.6-5.7,2.6-5.5,5.7c0.2,3.1,22.8,1,26.7-1.6
			C672.6,548.5,668.7,537.5,668.7,537.5z"/>
	</g>
	
		<linearGradient id="SVGID_5_" gradientUnits="userSpaceOnUse" x1="513.0136" y1="807.9212" x2="677.6722" y2="807.9212" gradientTransform="matrix(1 0 0 1 0 -436)">
		<stop  offset="2.000000e-02" style="stop-color:#F87B58"/>
		<stop  offset="0.51" style="stop-color:#F8C548"/>
		<stop  offset="1" style="stop-color:#F89C51"/>
	</linearGradient>
	<path class="st9" d="M650.7,224.3c-1.8,20.3-3.6,19.8-9.3,26.9c-2.8,3.5-7.4,7.8-7.9,12.3c-0.1,1,0.3,1.9,1.1,2.6l6,4.8l2.5,1.9
		c0.2,0.2,0.4,0.4,0.5,0.6l20.8,34.1l0.1,0.1l12.9,24.6c0.8,1.5-0.4,6.2-1.6,7.5c-6.2,6.6-20.5,13.6-18.4,20.2
		c6.9,21.8,1.3,16.7-2.7,13.2c-2.1-1.9-4.9-10.9-5.9-14.9s18-23,16-26c-1.8-2.8-15.9-23.1-18.1-26.3c-0.2-0.3-0.4-0.5-0.8-0.7
		l-13.3-6.9c-1-0.5-2.3-0.1-2.8,0.9c-0.2,0.4-0.3,0.8-0.2,1.3L650,418.8v0.1l3.6,31.6c0,0,0,0.1,0,0.2c0.1,3.8,1.8,21.8,2.2,25.4
		c1,7.2,2.7,10.7,4,17.4l8.4,41.7c0.2,1.2,1.2,4.3,0,4.5l-6.9,0.1c-1,0.1-2-1.9-2.3-2.9l-14.7-44.7c-1-3.4-6-13.1-7.4-20.6
		c-2-10.3-3.9-22-4.8-26.5l-4.3-24.6c-0.1-0.8,0.2-1.7,0.9-2.1l11.3-7.2c0.9-0.5,1.2-1.6,0.8-2.6l-12.5-30.1
		c-0.5-1.1-1.7-1.5-2.8-1.1c-0.8,0.4-1.3,1.2-1.2,2.1L628,416c0,0.1,0,0.3,0,0.4l-2.2,27.2c0,0.1,0,0.1,0,0.2l-6,36.2
		c0,0.1,0,0.1,0,0.2l-4.4,57.2c-0.1,1.1-0.3,3.5-1.3,3.5l-7.4,0.3c-1.2,0-1.7-2.7-1.7-3.9l-0.2-29v-0.1l-1.4-20.3c0,0,0-0.1,0-0.2
		c-0.7-4.1-0.2-12.9,0-19.1c0.3-8.5,1-13.3,1.1-14.8l0.7-23.7c0-0.1,0-0.2,0-0.3l-3.7-26.3c0-0.1,0-0.2,0-0.3v-110
		c0-1.2-0.9-2.1-2.1-2.1c-0.7,0-1.3,0.3-1.7,0.9c-4.9,7-10.7,13.5-17.2,19.1c-6,5-9.7,5.9-11.5,6c-0.7,0-1.4-0.3-1.8-0.9l-32-44.6
		c-0.4-0.6-1.2-0.9-1.9-0.9l-4.8,0.5c-0.1,0-0.3,0-0.4,0c-7.4-0.7-11.6-2.9-14.1-3.8c-0.8-0.3-1.2-1.1-0.9-1.8
		c0.1-0.3,0.3-0.5,0.5-0.7c3.8-2.7,8.4-4.3,13.1-4.5c5.4,0.1,10.8,1.5,15.6,4c0.2,0.1,0.5,0.3,0.6,0.5l26.4,33.3
		c0.7,0.9,2,1.1,2.9,0.4c0.2-0.1,0.3-0.3,0.4-0.5l10.5-15c0.2-0.3,0.4-0.5,0.7-0.6l31-17.8c0.8-0.5,1.5-1.2,1.8-2.1
		c1.1-3.1,2.3-6.2-2.3-15.1c-3.2-6.2-6.7-31,11.9-44c3.8-2.7,1.9,2,5.1,2c12.3,0,17,13.8,17,13.8"/>
	
		<linearGradient id="SVGID_6_" gradientUnits="userSpaceOnUse" x1="581.1132" y1="-407.5435" x2="670.1376" y2="-407.5435" gradientTransform="matrix(1 0 0 -1 0 -62)">
		<stop  offset="0" style="stop-color:#E1A1ED"/>
		<stop  offset="1" style="stop-color:#7658F4"/>
	</linearGradient>
	<path class="st10" d="M614.9,265c0,5,3.2,14.2,13.9,14.2c6.9,0,8.5-7.1,8.9-10c0.2-1.7,2.9,1.2,4.5,2.1c15.3,9.2,22.8,37,22.8,37
		l-16.5,1.9l-2.1,41.1l23.6,69.2c0.4,1.1-0.2,2.3-1.3,2.7c-0.3,0.1-0.6,0.1-1,0.1c-9.2-1.2-34.4-4.2-39-1c-11.8,8-41.7,4.5-41.7,1.5
		c0-4.4,14.1-78.2,14.1-78.2l-8.4-47.9l-2.4-1.9l-9.2-9.5l9.3-14.9c3.3-3.8,8.3-6,13.3-6.8c2.5-0.4,5.1-0.6,7.6-0.7
		C613.4,264.1,614.9,264.3,614.9,265"/>
	
		<linearGradient id="SVGID_7_" gradientUnits="userSpaceOnUse" x1="-6781.8066" y1="-1383.9133" x2="-6690.9868" y2="-1383.9133" gradientTransform="matrix(-0.88 0 0 -1 -5296.0596 -1153.35)">
		<stop  offset="0" style="stop-color:#4F6ACB"/>
		<stop  offset="1" style="stop-color:#5ACEED"/>
	</linearGradient>
	<path class="st11" d="M648,243.6c-0.8,0.3-1.7,0-2.2-0.7c-3.9-5.1-19.7-25.8-20.3-27.1c-0.7-1.5-11.6,11.5-13.3,16.4
		c-2,5.9-2.5-9.3-3.4-11.6s-8.4,9.5-12.3,10.5c-3.9,1-5.1-1.5-7.7,3.1c-1.5,2.8,1.4-17.1,11.4-23.7c6.5-4.3,8.3,6.8,8.3,6.8
		c3.7-5.1,8.5-9.3,14-12.3c8-4.4,15.7-4.7,25.9,4.8c5.9,5.5,10.9,16.5,10.7,21.6c-0.2,4.9,4.8,0.7,5.7-0.3c0.9-1,9.6,1.3,8.1,8.6
		c-1.5,7.3-1.8,6.9-7.2,11.2c-3,2.3-5.6,5.1-7.5,8.2v-18.5C658.1,238.6,652.3,242,648,243.6z"/>
	<path class="st8" d="M625.5,256c0,0,7.2,4.5,10.8-0.2c2.3-3.1-4.2,6.5-3.1,10.3C634.3,269.9,625.5,256,625.5,256z"/>
	<path class="st8" d="M639.3,292.2l9.1,18l-2.1,41.1l23.6,69.2c0,0,4.9,3.5-8.9,2s-22.7-2-27.1-2c-4.4,0-14.8-4.4,1-19.7
		c6.4-6.2,4.9-10.9,0.5-27.1c-4.4-16.2,9.4-13.3,0-26.7C626,333.6,648.7,314.9,639.3,292.2z"/>
</g>
<g>
	<title>Cup</title>
	<g id="Cup">
		
			<linearGradient id="SVGID_8_" gradientUnits="userSpaceOnUse" x1="576.1497" y1="239.5658" x2="515.9097" y2="260.4958" gradientTransform="matrix(-0.9263 0 0 1 1045.2943 0)">
			<stop  offset="0" style="stop-color:#59CFEE"/>
			<stop  offset="1" style="stop-color:#4A41BC"/>
		</linearGradient>
		<path class="st12" d="M543,234c0.7-0.2,1.5-0.4,2.2-0.5c1.6-0.4,3.3,0.1,4.4,1.4c0.7,1,1.2,2.2,1.4,3.4c0.7,3.9-0.5,7.9-3.1,10.5
			c-1.9,2-4,3.8-6.2,5.3c-0.6,0.4-1.1,1.1-1.2,1.9c-0.6,2.8-1.6,5.5-2.6,8.1c-0.1,0.3-0.4,0.4-0.6,0.5c-4.5,1.4-9.4,1.4-13.9,0.1
			c-1-0.4-1-0.4-1.6-1.5c-1.9-5.3-3.1-10.8-3.9-16.3c-0.7-5.1-1-10.2-0.9-15.3c0-0.9,0-1,0.9-1.3c1.4-0.5,2.9-0.7,4.4-0.8
			c3.8-0.3,7.7-0.4,11.6-0.3c2.4,0,4.9,0.3,7.3,0.9c0.6,0.1,1,0.4,1.6,0.5c0.2,0.1,0.4,0.2,0.4,0.5C543,232.2,543,233.1,543,234z
			 M541.4,251.7L541.4,251.7c4-2.2,6.7-5.5,6.9-10.5c0.1-1.1,0-2.1-0.3-3.2c-0.3-0.9-0.9-1.6-1.8-1.8c-1.3-0.2-2.6,0.5-3.2,1.8v1.4
			c-0.2,3.1-0.6,6.2-1,9.2C542,249.6,541.8,250.6,541.4,251.7L541.4,251.7z"/>
		<path class="st13" d="M542.8,230.7c0,0-12.5-4.1-25.7,0C517.1,230.7,528.1,235.5,542.8,230.7z"/>
		
			<linearGradient id="SVGID_9_" gradientUnits="userSpaceOnUse" x1="1607.7589" y1="982.9157" x2="1602.3389" y2="970.9456" gradientTransform="matrix(-0.9263 0 0 -1 2017.8218 1200.21)">
			<stop  offset="0" style="stop-color:#59CFEE"/>
			<stop  offset="1" style="stop-color:#4A41BC"/>
		</linearGradient>
		<path class="st14" d="M521.9,199.8c-0.8,5,0.5,10.1,3.5,14c1.2,1.8,2.5,3.3,3.8,5.1c1.9,2.7,3.2,5.9,3.8,9.3
			c0,0.4,0.3,1.1,0.3,1.5l0,0c0-0.9,0.3-1.5,0.3-2.4c0.1-4-1.2-7.9-3.5-11.1c-1-1.5-2.1-2.9-3.2-4.2c-2.6-3.2-4.2-6.9-4.9-10.9"/>
		
			<linearGradient id="SVGID_10_" gradientUnits="userSpaceOnUse" x1="1601.338" y1="985.3023" x2="1597.978" y2="976.1624" gradientTransform="matrix(-0.9263 0 0 -1 2017.8218 1200.21)">
			<stop  offset="0" style="stop-color:#59CFEE"/>
			<stop  offset="1" style="stop-color:#4A41BC"/>
		</linearGradient>
		<path class="st15" d="M538.2,224.4c0-0.5,0.1-0.9,0.3-1.3c0.1-3.3-0.9-6.6-3-9.1c-1.1-1.4-2.1-2.9-3-4.4c-1.1-1.9-1.9-4-2.2-6.2
			c-0.1-0.3-0.2-1.5-0.2-0.7l-0.1,0.2c-0.1,0.6-0.2,1.2-0.3,1.8c0,3,1,5.9,2.8,8.2l3,4c1.1,1.6,1.9,3.4,2.3,5.4
			c0.1,0.2,0.1,0.5,0.1,0.7C537.8,223.5,538,224,538.2,224.4L538.2,224.4z"/>
		
			<linearGradient id="SVGID_11_" gradientUnits="userSpaceOnUse" x1="1615.9231" y1="983.5237" x2="1612.5231" y2="974.2636" gradientTransform="matrix(-0.9263 0 0 -1 2017.8218 1200.21)">
			<stop  offset="0" style="stop-color:#59CFEE"/>
			<stop  offset="1" style="stop-color:#4A41BC"/>
		</linearGradient>
		<path class="st16" d="M524.6,226.4c0-0.1,0.2-1,0.3-1.7c0.1-3.3-0.9-6.6-3-9.1c-1.1-1.4-2.1-2.9-3-4.4c-1.1-1.9-1.9-4-2.2-6.2
			c-0.1-0.2-0.3-1.4-0.2-0.6v0.2c-0.1,0.6-0.2,1.1-0.3,1.7c0,3,1,5.9,2.8,8.2l3,4c1.1,1.6,1.9,3.4,2.3,5.4c0.1,0.2,0.1,0.5,0.1,0.7
			c0,0.5,0.1,1,0.3,1.5L524.6,226.4z"/>
	</g>
</g>
<g>
	<title>Cup</title>
	<g id="Cup_1_">
		
			<linearGradient id="SVGID_12_" gradientUnits="userSpaceOnUse" x1="1379.9713" y1="1442.2344" x2="1319.7313" y2="1463.1644" gradientTransform="matrix(1 0 0 1 -1025.09 -1209)">
			<stop  offset="0" style="stop-color:#59CFEE"/>
			<stop  offset="1" style="stop-color:#4A41BC"/>
		</linearGradient>
		<path class="st17" d="M321,227.7c-0.8-0.2-1.6-0.4-2.4-0.5c-1.7-0.4-3.6,0.1-4.8,1.4c-0.8,1-1.3,2.2-1.5,3.4
			c-0.8,3.9,0.5,7.9,3.4,10.5c2,2,4.3,3.8,6.7,5.3c0.7,0.4,1.2,1.1,1.3,1.9c0.7,2.8,1.7,5.5,2.8,8.1c0.1,0.3,0.4,0.4,0.6,0.5
			c4.9,1.4,10.1,1.4,15,0.1c1.1-0.4,1.1-0.4,1.7-1.5c2-5.3,3.4-10.8,4.2-16.3c0.8-5.1,1.1-10.2,1-15.3c0-0.9,0-1-1-1.3
			c-1.5-0.5-3.1-0.7-4.7-0.8c-4.1-0.3-8.3-0.4-12.5-0.3c-2.6,0-5.3,0.3-7.9,0.9c-0.6,0.1-1.1,0.4-1.7,0.5c-0.2,0.1-0.4,0.2-0.4,0.5
			C321,225.9,321,226.8,321,227.7z M322.7,245.4h-0.1c-4.2-2.2-7.1-5.5-7.4-10.5c-0.1-1.1,0-2.1,0.3-3.2c0.3-0.9,1-1.6,1.9-1.8
			c1.4-0.2,2.8,0.5,3.5,1.8v1.4c0.2,3.1,0.6,6.2,1.1,9.2C322.1,243.3,322.3,244.3,322.7,245.4L322.7,245.4z"/>
		<path class="st13" d="M321.2,224.4c0,0,13.5-4.1,27.7,0C349,224.4,337.1,229.2,321.2,224.4z"/>
		
			<linearGradient id="SVGID_13_" gradientUnits="userSpaceOnUse" x1="1386.4906" y1="989.2471" x2="1381.0706" y2="977.277" gradientTransform="matrix(1 0 0 -1 -1049.95 1200.21)">
			<stop  offset="0" style="stop-color:#59CFEE"/>
			<stop  offset="1" style="stop-color:#4A41BC"/>
		</linearGradient>
		<path class="st18" d="M343.8,193.5c0.9,5-0.5,10.1-3.8,14c-1.3,1.8-2.7,3.3-4.1,5.1c-2.1,2.7-3.5,5.9-4.1,9.3
			c0,0.4-0.3,1.1-0.3,1.5l0,0c0-0.9-0.3-1.5-0.3-2.4c-0.1-4,1.3-7.9,3.8-11.1c1.1-1.5,2.3-2.9,3.5-4.2c2.8-3.2,4.5-6.9,5.3-10.9"/>
		
			<linearGradient id="SVGID_14_" gradientUnits="userSpaceOnUse" x1="1380.0697" y1="991.6337" x2="1376.7097" y2="982.4938" gradientTransform="matrix(1 0 0 -1 -1049.95 1200.21)">
			<stop  offset="0" style="stop-color:#59CFEE"/>
			<stop  offset="1" style="stop-color:#4A41BC"/>
		</linearGradient>
		<path class="st19" d="M326.2,218.1c0-0.5-0.1-0.9-0.3-1.3c-0.1-3.3,1-6.6,3.2-9.1c1.2-1.4,2.3-2.9,3.2-4.4c1.2-1.9,2-4,2.4-6.2
			c0.1-0.3,0.2-1.5,0.2-0.7l0.1,0.2c0.1,0.6,0.2,1.2,0.3,1.8c0,3-1.1,5.9-3,8.2l-3.2,4c-1.2,1.6-2,3.4-2.5,5.4
			c-0.1,0.2-0.1,0.5-0.1,0.7C326.6,217.2,326.4,217.7,326.2,218.1L326.2,218.1z"/>
		
			<linearGradient id="SVGID_15_" gradientUnits="userSpaceOnUse" x1="1394.6547" y1="989.8552" x2="1391.2546" y2="980.595" gradientTransform="matrix(1 0 0 -1 -1049.95 1200.21)">
			<stop  offset="0" style="stop-color:#59CFEE"/>
			<stop  offset="1" style="stop-color:#4A41BC"/>
		</linearGradient>
		<path class="st20" d="M340.9,220.1c0-0.1-0.2-1-0.3-1.7c-0.1-3.3,1-6.6,3.2-9.1c1.2-1.4,2.3-2.9,3.2-4.4c1.2-1.9,2-4,2.4-6.2
			c0.1-0.2,0.3-1.4,0.2-0.6v0.2c0.1,0.6,0.2,1.1,0.3,1.7c0,3-1.1,5.9-3,8.2l-3.2,4c-1.2,1.6-2,3.4-2.5,5.4c-0.1,0.2-0.1,0.5-0.1,0.7
			c0,0.5-0.1,1-0.3,1.5L340.9,220.1z"/>
	</g>
</g>
</svg>
