<?xml version="1.0" encoding="utf-8"?>
<!-- Generator: Adobe Illustrator 23.0.3, SVG Export Plug-In . SVG Version: 6.00 Build 0)  -->
<svg version="1.1" id="Layer_1" xmlns="http://www.w3.org/2000/svg" xmlns:xlink="http://www.w3.org/1999/xlink" x="0px" y="0px"
	 viewBox="0 0 1073.4 635.1" style="enable-background:new 0 0 1073.4 635.1;" xml:space="preserve">
<style type="text/css">
	.st0{fill:#F8F8FF;}
	.st1{fill:url(#SVGID_1_);stroke:#BAC6F2;stroke-width:5;stroke-miterlimit:10;}
	.st2{fill:#BAC6F2;}
	.st3{fill:#FFFFFF;}
	.st4{fill:#4B44BE;}
	.st5{fill:url(#SVGID_2_);}
	.st6{fill:url(#SVGID_3_);}
	.st7{fill:url(#SVGID_4_);}
	.st8{fill:url(#SVGID_5_);}
	.st9{opacity:7.000000e-02;}
	.st10{clip-path:url(#SVGID_7_);}
	.st11{clip-path:url(#SVGID_9_);}
	.st12{clip-path:url(#SVGID_11_);}
	.st13{fill:url(#SVGID_12_);}
	.st14{fill:url(#SVGID_13_);}
	.st15{fill:url(#SVGID_14_);}
	.st16{fill:url(#SVGID_15_);}
	.st17{opacity:7.000000e-02;enable-background:new    ;}
	.st18{clip-path:url(#SVGID_17_);}
	.st19{fill:#EFEFEF;}
	.st20{fill:url(#SVGID_18_);}
	.st21{fill:none;stroke:#F93764;stroke-width:4;stroke-linecap:round;stroke-miterlimit:10;}
	.st22{fill:#F7B14A;}
	.st23{fill:none;stroke:url(#SVGID_19_);stroke-linecap:round;stroke-linejoin:round;}
	.st24{fill:url(#SVGID_20_);}
	.st25{fill:none;stroke:url(#SVGID_21_);stroke-miterlimit:10;}
	.st26{fill:#F9B449;}
	.st27{font-family:'ArialMT';}
	.st28{font-size:18.5393px;}
	.st29{fill:url(#SVGID_22_);}
	.st30{fill:none;stroke:url(#SVGID_23_);stroke-miterlimit:10;}
	.st31{font-size:12.2022px;}
	.st32{fill:url(#SVGID_24_);}
	.st33{fill:none;stroke:url(#SVGID_25_);stroke-miterlimit:10;}
	.st34{font-size:8.7317px;}
</style>
<title>bg14</title>
<path class="st0" d="M53.9,573.7c-32.5-30-54-73.4-47.7-117.2c13.1-90-45.9-204.4,49.3-237.9c48.1-17,40.2-142,78.8-176.8
	c66.7-60,173.5,16.1,384.7,4.8C725.8,35.5,817.2-72.8,958.7,84.8c110.3,122.9,26.9,190.2,105,303.3c47.8,69.2-94.8,216.1-94.8,216.1
	l-882.3-0.4L53.9,573.7z"/>
<linearGradient id="SVGID_1_" gradientUnits="userSpaceOnUse" x1="1044.2338" y1="-112.87" x2="1043.7037" y2="339.25" gradientTransform="matrix(1 0 0 -1 -517.22 491.38)">
	<stop  offset="0" style="stop-color:#FFFFFF"/>
	<stop  offset="1" style="stop-color:#BAC6F2"/>
</linearGradient>
<path class="st1" d="M61.8,623.4c0,0,9-126,79.5-113.5c70.1,12.4,62,76,98,68s38.9-93.8,53-196c12.2-88.7,60.8-61.5,69.9-32.9
	c7.6,24,10.6,99.4,39.6,104.4s39-52,41-80s12-142,48.5-143.5c34.5-1.4,49.5,49.5,49.5,146.5s4,160,20,186s37,19,43.5,15.5
	c8.1-4.4,32.5-45.5,38.5-147.5s46-87,55-72s33.5,97.5,63.5,95.5s38.5-21.5,43.5-67.5s12.4-159.9,50.5-158.5
	c39.5,1.5,55.3,181.6,54.7,235.8c-0.8,68.3,50.3,149.2,82.3,149.2"/>
<circle class="st2" cx="236.8" cy="577.4" r="13"/>
<circle class="st2" cx="60.8" cy="622.1" r="13"/>
<circle class="st2" cx="409.8" cy="451.4" r="13"/>
<circle class="st2" cx="329.8" cy="322.5" r="13"/>
<circle class="st2" cx="496" cy="231.2" r="13"/>
<circle class="st2" cx="680.8" cy="350.4" r="13"/>
<circle class="st2" cx="769.6" cy="453.6" r="13"/>
<circle class="st2" cx="853" cy="229.8" r="13"/>
<circle class="st2" cx="991.9" cy="614" r="13"/>
<circle class="st2" cx="589.8" cy="578.4" r="13"/>
<circle class="st3" cx="208.6" cy="180.8" r="47.9"/>
<ellipse transform="matrix(0.1602 -0.9871 0.9871 0.1602 33.409 407.8676)" class="st3" cx="256.4" cy="184.3" rx="34.6" ry="34.6"/>
<circle class="st3" cx="777.3" cy="114.7" r="47.9"/>
<circle class="st3" cx="825.2" cy="118.1" r="34.6"/>
<path class="st2" d="M939,335.1l23.8-34c2.6-4.6,9.9-4.2,13.4-0.3l23.4,32c4.8,5.4,2.3,15.4-4.9,15.5l-47.3,0.8
	c-5.2,0.1-9.5-4.1-9.5-9.3C937.8,338.2,938.2,336.6,939,335.1z"/>
<path class="st2" d="M91,358.8l-23.8,33.9c-2.6,4.6-9.9,4.2-13.4,0.2l-23.3-32.1c-4.8-5.4-2.2-15.4,5-15.5l47.3-0.7
	c5.2,0,9.5,4.1,9.5,9.3C92.2,355.7,91.8,357.4,91,358.8z"/>
<g id="man_with_ipad">
	<g>
		<path class="st4" d="M127,583l-3.2-0.1l-16.5,0.2c0,0-3.6,17-5.6,24c-0.1,0.4-0.5,1.6-0.7,2.5c-0.3,1.2-0.4,2.5-0.4,3.7
			c0.4,6.4,2.7,11.8,8.5,14.7c6.3,3.2,11.1,6.1,17.8,0c6.7-6.1,7.6-10,5-20.6C129.5,596.8,128.6,583.3,127,583z"/>
		<path class="st4" d="M196.1,604.1L196.1,604.1c-11.4-3.6-19-19.1-19-19.1l-19.4-1.1c0,0-1.1,15.7-1.6,23.7
			c-0.7,10.6,1.1,15.3,8,14.7c9.2-0.7,46.5,2.6,52.4-1.1C224.3,616.2,206.7,607.4,196.1,604.1z"/>
	</g>
	
		<linearGradient id="SVGID_2_" gradientUnits="userSpaceOnUse" x1="79.5081" y1="568.6436" x2="199.8547" y2="568.6436" gradientTransform="matrix(1 0 0 1 0 -124)">
		<stop  offset="0" style="stop-color:#4F68CA"/>
		<stop  offset="1" style="stop-color:#5ACEED"/>
	</linearGradient>
	<path class="st5" d="M79.5,303.9v23.2l28.1,256.1h19.9c0,0,6.9-175.6,6.9-181.7c0-6.1,1.8-25.2,1.8-25.2s25,72.1,25.4,78.1
		s-4.1,130.2-4.1,130.2l19.9,0.8c0,0,17.4-84.1,17.4-92s5.9-49.3,5-57.2c-0.9-7.9-15.6-131.7-15.6-131.7l-30.5-0.8L79.5,303.9z"/>
	
		<linearGradient id="SVGID_3_" gradientUnits="userSpaceOnUse" x1="51.6072" y1="294.181" x2="214.9779" y2="294.181" gradientTransform="matrix(1 0 0 1 0 -124)">
		<stop  offset="0" style="stop-color:#F87B58"/>
		<stop  offset="0" style="stop-color:#F87B58"/>
		<stop  offset="0.41" style="stop-color:#F89453"/>
		<stop  offset="0.71" style="stop-color:#F8C548"/>
		<stop  offset="1" style="stop-color:#F89C51"/>
	</linearGradient>
	<path class="st6" d="M208.3,277l-0.3-0.4C208.2,276.9,208.2,277.1,208.3,277 M150,254.5l-11.1,4.6l-0.6,15.4l12.3,4.9
		c0-0.1,13.4-0.5,13.4-0.6c0.1-0.6,5.3-0.4,7.7,1.1l41.6-14.3l1.5-10c0,0,3.1,12.5-10.9-12.7L150,254.5z M199.7,203.8l-0.9-5
		l-2.1-0.4L199.7,203.8 M122.8,70.1c-5.1,2.1-7.6,9.6-7.6,9.6s-2.5-1.5-2.5,2.7c0,4.2,2.1,13.8,3.6,16.2c2.6,4.1,5,8.4,7.2,12.8
		c2,4.4,1.3,13.4-0.8,14.7c-2.1,1.3-39.9,35.2-39.9,35.2l-31.2,95.7v3.8l4.8,1.7l4.9,4.2c0.4,0.1,6.7,3.5,7.6,4.1
		c4.9,2.5,10.2,4.3,15.6,5.6c3.5,0.7,19.2,0.4,19.2,0.4l15.8-0.4l-2.7-20.1l-23.4-0.3l-32-1.6l32.4-74.5l102.2,18.3
		c-18.2-32.8-38.6-69.8-40.4-73.6c-1.5-3.2,0.1-10.8,1-14.7c0.8-3.6,2.6-8,4.2-9.4s4.7-7.2,4.7-9.7c0-2.6,0.7-12.5-1.4-10.4
		c-0.6,0.6-3.1-3.2-4-7c-1.4-5.5-5.2-9.4-9.6-12.9c0,0-22.5,7.4-27.5,9.5"/>
	
		<linearGradient id="SVGID_4_" gradientUnits="userSpaceOnUse" x1="45.128" y1="352.4993" x2="217.8114" y2="352.4993" gradientTransform="matrix(1 0 0 1 0 -124)">
		<stop  offset="0" style="stop-color:#E1A1ED"/>
		<stop  offset="1" style="stop-color:#7658F4"/>
	</linearGradient>
	<path class="st7" d="M83.7,140.9c-4.9,3.4-9.5,7.9-11.2,13.7c-1.7,5.8-13.6,51.2-15.2,56.9c-3.9,14-6.2,18.1-10.8,34.6
		c-5.7,20.3,7.3,23.4,20.6,26.4c13.8,3.1,13.9,4.4,17.1,4.4c0.5,0,16.9,3.4,17.4-5.9c0.4-5.8-0.7-15.1-2.9-14.8
		c-5,0.7-21.3-3.6-22.1-4.1c-1.1-0.7,3.5-13.4,6.2-21.3c1.9-5.8,9.4-30,11.1-34.5c0.9-2.5-4.2,23.5-7.3,48.9c-0.1,1-1.3,10.9-1,10.9
		c3.7,0,13.9,0.2,17,0.5c14.3,1.7,17,8.5,16.2,14c-1.6,9.5-36.4,5.1-36.2,6.4c0,0-6,27-2.6,28.7c2.9,1.5,41.9,17.7,50.2,20.9
		c0.9,0.4,1.9-0.1,2.3-1.1c0,0,0,0,0-0.1l5.3-15.2c0.1-0.2,0.3-0.3,0.4-0.2c0.1,0,0.2,0.1,0.2,0.2l5,16.6c0.1,0.4,0.4,0.8,0.8,1h2.2
		l43.4-9.4c0,0-0.2-17.1-0.3-39c0-2.2-0.4-10.3-1.9-8.8c-1.6,1.5-37.8,6.3-41.8,4.6c-8.4-3.5-6.2-12.3-3.3-15.9
		c3.4-4.1,46.1-6.2,46.3-9.3c0.7-13.4-0.4-48.7-1.1-44.4c-1.1,6.6-26,42.8-26,49.1s-0.4,22.2-0.4,22.2l41.1-3.2
		c0,0,13.8-4.8,15-12.7c1.2-7.9-0.3-11.5-0.8-23.3c-0.4-7.5-10.9-52.6-14-65.4c-0.4-1.9-0.7-3.9-0.9-5.8c-0.4-5.3-2.5-17.7-13.9-23
		c-14.1-6.7-25.2-12-28-12c-2.6,0-9.9,15.9-13.7,20.4c-1.7,2-1.3,3-3.5,6c-1.1,1.6-3.3,1.9-4.9,0.8c-0.4-0.3-0.6-0.6-0.9-1
		c-1.2-1.8-2.3-3.7-3.3-5.7c-1.7-3.4-14.7-22.5-14.7-22.5S88.6,137.4,83.7,140.9"/>
	
		<linearGradient id="SVGID_5_" gradientUnits="userSpaceOnUse" x1="109.5184" y1="188.14" x2="167.0037" y2="188.14" gradientTransform="matrix(1 0 0 1 0 -124)">
		<stop  offset="0" style="stop-color:#5ACEED"/>
		<stop  offset="0.55" style="stop-color:#4F68CA"/>
		<stop  offset="1" style="stop-color:#5282D3"/>
	</linearGradient>
	<path class="st8" d="M150.5,60.7c0,0-27.7,10.3-29.7,11.8c-1.9,1.5-5.7,7.2-5.7,7.2s-1.9-1.1-2.4,1.9c0,0-2.8-5.8-3.2-9.1
		c-0.4-3.3,0-11.7,5.3-17.2c5.3-5.6,16-12.9,22.6-11.9c6.6,1,9.4,1.8,13.6,5.9s7.7,5.4,8.9,6c1.2,0.6,6,4.1,6.8,10.5
		s-1.4,19.3-1.4,19.3s0.6-5-1.4-3.4c-1.4,1.1-3.4-3.5-4.1-6.3C159.1,72.7,152,61.4,150.5,60.7z"/>
	<g class="st9">
		<g>
			<g>
				<g>
					<defs>
						<rect id="SVGID_6_" x="142" y="112.1" width="18.4" height="30.1"/>
					</defs>
					<clipPath id="SVGID_7_">
						<use xlink:href="#SVGID_6_"  style="overflow:visible;"/>
					</clipPath>
					<g class="st10">
						<path d="M159.8,131.3c-0.2-0.5,3,1.9-0.7-0.8c-5.2-3.8-2.7-19.3-2.7-19.3c-1.9,4.1-5.3,7.2-9.4,8.8c-6.6,2.5-8.7,0.6,1.6,6.5
							c10.1,5.8,4.9,7.9,4.1,15.5"/>
					</g>
				</g>
			</g>
		</g>
	</g>
	<g>
		<g class="st9">
			<g>
				<g>
					<g>
						<defs>
							<rect id="SVGID_8_" x="150.7" y="167.7" width="51.2" height="88.9"/>
						</defs>
						<clipPath id="SVGID_9_">
							<use xlink:href="#SVGID_8_"  style="overflow:visible;"/>
						</clipPath>
						<g class="st11">
							<path d="M180.1,186.3l13.8,52.2c0,0-0.1,9.3-2.8,10.7c-2.7,1.4-11.4,2.3-13.4,3.2c-2,0.9-23.1,5.3-17.7-2.1
								c1.2-1.7,29.8-11.7,17-22.2s-10.5-25.1-4.3-35.1c6.2-10.1,4.9-18.6,4.9-18.6L180.1,186.3z"/>
						</g>
					</g>
				</g>
			</g>
		</g>
		<g class="st9">
			<g>
				<g>
					<g>
						<defs>
							<rect id="SVGID_10_" x="75.1" y="304.4" width="41.8" height="317.8"/>
						</defs>
						<clipPath id="SVGID_11_">
							<use xlink:href="#SVGID_10_"  style="overflow:visible;"/>
						</clipPath>
						<g class="st12">
							<path d="M121.7,323.8c0,0-11.9,63.2-5.7,88.5c9.4,38.3-4.1,90.1-4.1,115c0,16.2,6.4,60.8,6.8,79c0.1,5.5,4.1,16.1,1.1,18.5
								c-1.2,1.1-8.8-1.4-13-3.4c-2.2-1.1-3.4-3.4-3.2-5.7l2.5-10.8l3.5-14.3L84.9,359.5c0,0-7.9-51.5-3.4-51.7
								S121.8,323.8,121.7,323.8"/>
						</g>
					</g>
				</g>
			</g>
		</g>
		<path class="st3" d="M110.4,238.8l46.7,5.8c1,0.3,1.6,1.1,1.5,2.2l-1.3,42.2c-0.1,1.3-0.9,3.1-2.1,2.7l-46.4-8.9
			c-0.9-0.3-1.5-1.1-1.5-2l-0.2-4.6l5.1-1.3c1.3-0.4,2.6-1.1,3.6-1.9c0.3-0.2,0.4-0.4,0.6-0.6l1.1-1.6c0.4-0.4,0.4-1.1,0.4-1.7
			c-0.2-1-0.4-2.3-0.6-3c-0.1-0.3-0.2-0.5-0.3-0.7l-1.1-2.5c-0.5-1.1-1.4-2-2.6-2.6l-0.7-0.4l-5-2.7l0.4-16.5c0-1.1,1-2,2.1-2
			C110.2,238.8,110.3,238.8,110.4,238.8z"/>
	</g>
</g>
<g id="woman_check_phone">
	<g>
		<path class="st4" d="M867.2,590.2l-14.3,3.3c0,0-3.5,11.3-5.1,17.4c-0.1,0.3-0.4,1.4-0.7,2.1c-0.2,1.1-0.3,2.1-0.3,3.2
			c0.3,5.4,2.4,10.1,7.2,12.5c5.3,2.7,9.5,5.2,15.1,0c5.6-5.2,6.6-8.5,4.2-17.5S867.2,590.4,867.2,590.2"/>
		<path class="st4" d="M950.4,609c-9.7-3-13.8-15-13.8-15l-19.4-1c0,0-0.4,12.2-1,18.8c-0.7,8.8,1,12.7,6.8,12.2
			c7.8-0.7,39.8,2.2,44.8-1C974.5,619,959.5,611.9,950.4,609"/>
	</g>
	
		<linearGradient id="SVGID_12_" gradientUnits="userSpaceOnUse" x1="827.0469" y1="-297.5939" x2="946.5778" y2="-297.5939" gradientTransform="matrix(1 0 0 -1 0 158)">
		<stop  offset="0" style="stop-color:#4F68CA"/>
		<stop  offset="1" style="stop-color:#5ACEED"/>
	</linearGradient>
	<path class="st13" d="M837.2,316c0,0-7.3,10-9.6,36.9c-2.3,26.9,2.8,78.1,5.2,88s12,102.3,14.3,109.1s5.6,43.6,5.6,43.6l15.4,0.4
		c0,0,4.6-48,4.6-60.7c0-12.7,6.4-133,6-141.8c-0.4-8.8,1.6-6,1.6-6s13.5,43,17.5,50.2c4,7.2,11.2,21.2,11.2,21.2s1.6,45.1,3.6,71.2
		c2,26.1,4,67.1,4,67.1l20.7-0.4c0,0,4.8-68.7,4.8-83.1c0-14.4,4.3-49.1,4.3-53.1s-13.5-74.2-13.5-74.2l-9.5-68.4L837.2,316z"/>
	
		<linearGradient id="SVGID_13_" gradientUnits="userSpaceOnUse" x1="841.5256" y1="490.6297" x2="966.0369" y2="490.6297" gradientTransform="matrix(1 0 0 1 0 -272)">
		<stop  offset="0" style="stop-color:#F87B58"/>
		<stop  offset="0.5" style="stop-color:#F8C548"/>
		<stop  offset="1" style="stop-color:#F89C51"/>
	</linearGradient>
	<path class="st14" d="M861.6,89.4c-7.1,2.6-16.1,37.7-16.1,37.7l-0.1-0.1l-3.9,3.9l1.6,7.4L850,254l35.4-7.6l31-32.8l19.3,9.1
		c0,0,1.5,42,1.7,44.3c0.2,2.3,3.5,65.8,3.5,70c0.1,4.5,19,24.4,22.2,22.3c9.3-6.5-6.2-18.6-9.9-21.5c-2.2-1.7-6.8-60.8-7.2-67.8
		c-0.3-7,10.8-24.7-8.5-48c-14-17.1-21.6-60.8-33.4-110.6c-6.2-25.9-9.9-33.6-16-33.6C882.7,77.8,875.1,84.4,861.6,89.4"/>
	
		<linearGradient id="SVGID_14_" gradientUnits="userSpaceOnUse" x1="804.6219" y1="-98.6491" x2="952.9874" y2="-98.6491" gradientTransform="matrix(1 0 0 -1 0 158)">
		<stop  offset="0" style="stop-color:#E1A1ED"/>
		<stop  offset="1" style="stop-color:#7658F4"/>
	</linearGradient>
	<path class="st15" d="M855.6,188c-0.1,0.3-13.5,6.6-19.2,13.7c-5.8,7.1-10.4,17.3-10.4,17.3s-8.5,20-14.3,34.8
		c-3.2,7.9-13.5,40.4-1.1,41.6c11.7,1.1,37.7-26.5,41.7-31.7l4.5-10c0.3-1.3-7-14.8-6.7-16c0.2-2,17.2-11.8,19.8-6
		c0.9,2,3.2,7.6,3.8,9.3c1.6,4.2-23,12.5-23,16.3c0,4.7-2.1,21.9-5.4,30.4c-3.4,8.5-8.5,28.6-8.5,28.6l86.7,0.2
		c0,0-2.9-38.6-1.7-51.4c0,0,3.7-42,5.9-46.2s5.9,51.9,5.3,63.4c-0.4,8,6.8,56.3,8.9,58c3.4,2.6,11.3-2.6,11.3-2.6
		s-0.3-52.9-0.7-61.7s0.2-80-11.4-92.8c-11.6-12.8-14.8-12.5-24.4-9.1c-9.7,3.4-14.4,6.6-27.6,8.8c-8,1.4-16.4,0.3-23.9-2.9
		c2.1-7.5-2.3,5.2-1.7,1.7"/>
	
		<linearGradient id="SVGID_15_" gradientUnits="userSpaceOnUse" x1="825.9905" y1="4.5017" x2="939.8596" y2="4.5017" gradientTransform="matrix(1 0 0 -1 0 158)">
		<stop  offset="0" style="stop-color:#4B44BE"/>
		<stop  offset="1" style="stop-color:#5BD3EF"/>
	</linearGradient>
	<path class="st16" d="M868.5,69.6c0,0-17.3,0.7-22.2,17.5s-5.6,40.5-5.8,44.2c-0.2,3.9,1.8,30.4-0.3,37.8
		c-2,6.5-7.5,18.6-10.9,26.9c-1.3,3.3-2.3,6.7-2.9,10.2L826,209c0.9,2.9,4,4.7,7.1,3.7c0.2-0.1,0.4-0.1,0.5-0.2
		c1.7-0.8,3.4-1.6,5-2.6c5.2-3.2,11.8-11.5,17.1-14.1c5.5-2.7,11.8-15.3,12.7-16.3c0.9-1,0.5-4.1,0.7-7.2
		c0.5-15.8-2.4-30.2-6.1-37.8c-3.7-7.6-12.2-22.5-6.3-31.1S874.8,88,875.3,86c0.5-2.1,0.9,8.3,7.4,12s15.6,13.6,15.6,15.8
		s2.2,9.2-4,21.5s-11.1,27.9-2.5,39.7c8.6,11.7,30.2,28,31.7,31.7c1.5,3.7,0,20.1-0.5,29.3c-0.5,9.2,17.5-15.8,16.8-27.8
		c-0.7-12.1,1.5-17.3-10.8-35.6c-12.3-18.4-20.3-50.1-20.6-57.8c-0.3-7.7-4-29-11.4-35.2c-6.3-5.2-7.7-10.3-20.9-10.3
		C873.6,69.1,871,69.3,868.5,69.6"/>
	<g>
		<g>
			<g class="st17">
				<g>
					<g>
						<defs>
							<rect id="SVGID_16_" x="826.6" y="86.7" width="50" height="543.2"/>
						</defs>
						<clipPath id="SVGID_17_">
							<use xlink:href="#SVGID_16_"  style="overflow:visible;"/>
						</clipPath>
						<g class="st18">
							<path d="M861.8,231.1c-2.6,1.1-5.1,2.3-7.5,3.7l-2.6,1.3c0,0-27.6,28.8-26.4,27.3c5.3-6.6,21.8-41.8,27.4-50
								c5.9-8.5,9.1-5.1,15.5,17.4"/>
						</g>
					</g>
				</g>
			</g>
			<g class="st9">
				<path d="M860.5,593.4c0.1,0.3,0.1,0.7,0.1,1c0.1,2.4,0,8.4-2.6,12.2c-3.3,5,4.5,16,4.5,18.7s-3.6,5.2-6.1,4.5
					c-2.5-0.8-12.9-6.6-8.8-19.2c1.6-5.1,2.6-9.6,3.6-12.4c0.5-1.4,1-2.8,1.4-4.2c0.1-0.7,0.1-1.3,0.1-2c-0.1-0.9-0.1-1.8-0.2-2.8
					c-0.5-4.9-21.2-157.3-21.9-163.2c-0.7-5.2-3.7-37.5-3.4-56.4c-0.2-1.6-0.2-3.3-0.1-4.8c0-0.4,0.2-2.3,0.1-3
					c0.1-1.7,0.2-3.5,0.4-5.2c-0.3-1.4-0.1-1.4,0-3.7s0-3.6,0.2-5c2.1-12.8,6.7-27.4,9-31.5l0.7-2.3c0,0,5.2-19.3,7-22.9
					c1.5-3.3,5.9-20.3,5.4-23.9c-0.2-2,6.7-9.6,6.7-9.6l1.4-1.2c0.7-0.1,1.4,0,2.1,0.2c1.5,0.7,7.4-4.5,8.4-1.2
					c7,22.3,9.8,31.7-2.5,45c-12.3,13.3-1,25.1-0.8,34.4c0.5,23-10.6,20.5-11.3,34.9s2.5,24.7,2.7,32.2c0.5,24.7,0.2,29.5-1.1,39.2
					s-7.9,28-0.5,64.1s6.3,39.3,5.5,59.8C859.8,585.4,860.5,593.4,860.5,593.4"/>
			</g>
			<path class="st19" d="M849.1,220.8l0.2-0.1c0.9-0.4,6-3,9.6-4.5c4-1.6,8.9,12.1,10.1,14.8c0.1,0.2,0.1,0.2-0.8,0.3
				c-2.9,0.3-5.9,0.9-8.7,1.6c-4.1,1-8.8,4.2-9,4.3s-1.4-2.5-3.8-8.6c-0.5-1.4-1.7-5.1-0.7-6L849.1,220.8z"/>
		</g>
		<path class="st17" d="M880.3,148.1c2.6,1,5.6,0.3,7.6-1.7c3.5-3.5-1.3,8.6-0.5,11.3C888.1,160.4,880.3,148.1,880.3,148.1z"/>
		<path class="st19" d="M856.7,252.6c0,0,16.4-10.8,16.6-10.3c0.4,1,1.8,4.9,1.8,4.9s1.3,2.5,0.9,3.3c-0.4,0.8-16,7.4-16,7.4
			c-0.7-0.1-1.2-0.4-1.4-1C857.9,255.5,857.3,254.1,856.7,252.6z"/>
	</g>
</g>
<g>
	<title>Pig with coins</title>
	<g>
		
			<linearGradient id="SVGID_18_" gradientUnits="userSpaceOnUse" x1="1453.2131" y1="1198.5552" x2="1381.2562" y2="1146.269" gradientTransform="matrix(1 0 0 1 -935 -1005.37)">
			<stop  offset="0" style="stop-color:#F92468"/>
			<stop  offset="1" style="stop-color:#F9B449"/>
		</linearGradient>
		<path class="st20" d="M440.3,163l10.4-0.7c0,0,2.1-12.5,10.4-16.7v-13.9c0,0,9.7,5.6,11.8,6.2c2.1,0.7,20.8-8.3,42.3,4.9
			c18.1,11.1,14.1,30.6,12.4,36.4c-0.3,1-0.8,2.1-1.5,3c-1.5,2.1-4.5,6.2-6,7.8c-2.1,2.1,1.3,13.7-1.4,14.6
			c-2.1,0.7-6.2-8.3-8.3-7.6c-11.2,3.7-23.3,4.2-34.7,1.1c-0.8-0.2-1.6,0.1-1.9,0.9c-0.9,1.9-2.8,5.4-4.3,6.4
			c-2.1,1.4-2.1-7.6-4.2-9c-2.1-1.4-25-21.5-25-21.5V163z"/>
		<path class="st21" d="M527.4,165.2c0,0,8.5-6,13-1.5c4.5,4.5,3.8,9.2,0.2,10.3c-2.7,0.8-7-3.7-5.1-6.7s5.1-4.5,8.7-2.1
			c3.7,2.4,5.3,7.4,5.6,10.2"/>
		<circle class="st22" cx="462.5" cy="164" r="3.9"/>
		
			<linearGradient id="SVGID_19_" gradientUnits="userSpaceOnUse" x1="1412.8074" y1="1145.1938" x2="1439.4196" y2="1145.1938" gradientTransform="matrix(1 0 0 1 -935 -1005.37)">
			<stop  offset="0" style="stop-color:#F92468"/>
			<stop  offset="1" style="stop-color:#F93764"/>
		</linearGradient>
		<path class="st23" d="M478.3,140.5c0,0,15.5-4.2,25.6,0.4"/>
	</g>
	<g id="coin">
		
			<linearGradient id="SVGID_20_" gradientUnits="userSpaceOnUse" x1="471.2398" y1="735.6458" x2="500.7736" y2="691.6541" gradientTransform="matrix(1 0 0 1 0 -596)">
			<stop  offset="0" style="stop-color:#F92468"/>
			<stop  offset="1" style="stop-color:#F9B449"/>
		</linearGradient>
		<circle class="st24" cx="491.5" cy="109.5" r="15.5"/>
		
			<linearGradient id="SVGID_21_" gradientUnits="userSpaceOnUse" x1="478.1201" y1="705.5951" x2="504.524" y2="705.5951" gradientTransform="matrix(1 0 0 1 0 -596)">
			<stop  offset="0" style="stop-color:#F92468"/>
			<stop  offset="1" style="stop-color:#F93764"/>
		</linearGradient>
		<circle class="st25" cx="491.3" cy="109.6" r="12.7"/>
		<text transform="matrix(1 0 0 1 486.2965 115.4396)" class="st26 st27 st28">$</text>
	</g>
	<g id="coin_copy">
		
			<linearGradient id="SVGID_22_" gradientUnits="userSpaceOnUse" x1="496.1919" y1="697.0443" x2="515.6335" y2="668.0798" gradientTransform="matrix(1 0 0 1 0 -596)">
			<stop  offset="0" style="stop-color:#F92468"/>
			<stop  offset="1" style="stop-color:#F9B449"/>
		</linearGradient>
		<circle class="st29" cx="509.5" cy="81.2" r="10.2"/>
		
			<linearGradient id="SVGID_23_" gradientUnits="userSpaceOnUse" x1="500.5818" y1="677.2761" x2="518.3083" y2="677.2761" gradientTransform="matrix(1 0 0 1 0 -596)">
			<stop  offset="0" style="stop-color:#F92468"/>
			<stop  offset="1" style="stop-color:#F93764"/>
		</linearGradient>
		<circle class="st30" cx="509.4" cy="81.3" r="8.4"/>
		<text transform="matrix(1 0 0 1 506.1271 85.1212)" class="st26 st27 st31">$</text>
	</g>
	<g id="coin_copy_2">
		
			<linearGradient id="SVGID_24_" gradientUnits="userSpaceOnUse" x1="463.4152" y1="698.1769" x2="477.3318" y2="677.4512" gradientTransform="matrix(1 0 0 1 0 -596)">
			<stop  offset="0" style="stop-color:#F92468"/>
			<stop  offset="1" style="stop-color:#F9B449"/>
		</linearGradient>
		<circle class="st32" cx="472.9" cy="88" r="7.3"/>
		
			<linearGradient id="SVGID_25_" gradientUnits="userSpaceOnUse" x1="466.4238" y1="684.0088" x2="479.3907" y2="684.0088" gradientTransform="matrix(1 0 0 1 0 -596)">
			<stop  offset="0" style="stop-color:#F92468"/>
			<stop  offset="1" style="stop-color:#F93764"/>
		</linearGradient>
		<circle class="st33" cx="472.9" cy="88" r="6"/>
		<text transform="matrix(1 0 0 1 470.5406 90.7921)" class="st26 st27 st34">$</text>
	</g>
</g>
</svg>
