<?xml version="1.0" encoding="utf-8"?>
<!-- Generator: Adobe Illustrator 23.0.3, SVG Export Plug-In . SVG Version: 6.00 Build 0)  -->
<svg version="1.1" id="Layer_1" xmlns="http://www.w3.org/2000/svg" xmlns:xlink="http://www.w3.org/1999/xlink" x="0px" y="0px"
	 viewBox="0 0 1073.4 635.1" style="enable-background:new 0 0 1073.4 635.1;" xml:space="preserve">
<style type="text/css">
	.st0{fill:#F8F8FF;}
	.st1{fill:url(#SVGID_1_);stroke:#BAC6F2;stroke-width:5;stroke-miterlimit:10;}
	.st2{fill:#BAC6F2;}
	.st3{fill:#FFFFFF;}
	.st4{fill:url(#SVGID_2_);}
	.st5{fill:none;stroke:#F93764;stroke-width:4;stroke-linecap:round;stroke-miterlimit:10;}
	.st6{fill:#F7B14A;}
	.st7{fill:none;stroke:url(#SVGID_3_);stroke-linecap:round;stroke-linejoin:round;}
	.st8{fill:url(#SVGID_4_);}
	.st9{fill:none;stroke:url(#SVGID_5_);stroke-miterlimit:10;}
	.st10{fill:#F9B449;}
	.st11{font-family:'ArialMT';}
	.st12{font-size:26.71px;}
	.st13{fill:url(#SVGID_6_);}
	.st14{fill:none;stroke:url(#SVGID_7_);stroke-miterlimit:10;}
	.st15{font-size:17.58px;}
	.st16{fill:url(#SVGID_8_);}
	.st17{fill:none;stroke:url(#SVGID_9_);stroke-miterlimit:10;}
	.st18{font-size:12.58px;}
	.st19{fill:#F4F4F4;}
	.st20{fill:#4B46BD;}
	.st21{fill:url(#SVGID_10_);}
	.st22{fill:none;}
	.st23{fill:url(#SVGID_11_);}
	.st24{fill:#F8246A;}
	.st25{fill:url(#SVGID_12_);}
	.st26{fill:url(#SVGID_13_);}
	.st27{fill:url(#SVGID_14_);}
	.st28{fill:url(#SVGID_15_);}
	.st29{fill:url(#SVGID_16_);}
</style>
<title>bg14</title>
<path class="st0" d="M53.9,573.7c-32.5-30-54-73.4-47.7-117.2c13.1-90-45.9-204.4,49.3-237.9c48.1-17,40.2-142,78.8-176.8
	c66.7-60,173.5,16.1,384.7,4.8C725.8,35.5,817.2-72.8,958.7,84.8c110.3,122.9,26.9,190.2,105,303.3c47.8,69.2-94.8,216.1-94.8,216.1
	l-882.3-0.4L53.9,573.7z"/>
<linearGradient id="SVGID_1_" gradientUnits="userSpaceOnUse" x1="1044.2338" y1="-112.87" x2="1043.7037" y2="339.25" gradientTransform="matrix(1 0 0 -1 -517.22 491.38)">
	<stop  offset="0" style="stop-color:#FFFFFF"/>
	<stop  offset="1" style="stop-color:#BAC6F2"/>
</linearGradient>
<path class="st1" d="M61.8,623.4c0,0,9-126,79.5-113.5c70.1,12.4,62,76,98,68s38.9-93.8,53-196c12.2-88.7,60.8-61.5,69.9-32.9
	c7.6,24,10.6,99.4,39.6,104.4s39-52,41-80s12-142,48.5-143.5c34.5-1.4,49.5,49.5,49.5,146.5s4,160,20,186s37,19,43.5,15.5
	c8.1-4.4,32.5-45.5,38.5-147.5s46-87,55-72s33.5,97.5,63.5,95.5s38.5-21.5,43.5-67.5s12.4-159.9,50.5-158.5
	c39.5,1.5,55.3,181.6,54.7,235.8c-0.8,68.3,50.3,149.2,82.3,149.2"/>
<circle class="st2" cx="236.8" cy="577.4" r="13"/>
<circle class="st2" cx="60.8" cy="622.1" r="13"/>
<circle class="st2" cx="409.8" cy="451.4" r="13"/>
<circle class="st2" cx="329.8" cy="322.5" r="13"/>
<circle class="st2" cx="496" cy="231.2" r="13"/>
<circle class="st2" cx="680.8" cy="350.4" r="13"/>
<circle class="st2" cx="769.6" cy="453.6" r="13"/>
<circle class="st2" cx="853" cy="229.8" r="13"/>
<circle class="st2" cx="991.9" cy="614" r="13"/>
<circle class="st2" cx="589.8" cy="578.4" r="13"/>
<circle class="st3" cx="208.6" cy="180.8" r="47.9"/>
<ellipse transform="matrix(0.1602 -0.9871 0.9871 0.1602 33.409 407.8676)" class="st3" cx="256.4" cy="184.3" rx="34.6" ry="34.6"/>
<circle class="st3" cx="777.3" cy="114.7" r="47.9"/>
<circle class="st3" cx="825.2" cy="118.1" r="34.6"/>
<path class="st2" d="M939,335.1l23.8-34c2.6-4.6,9.9-4.2,13.4-0.3l23.4,32c4.8,5.4,2.3,15.4-4.9,15.5l-47.3,0.8
	c-5.2,0.1-9.5-4.1-9.5-9.3C937.8,338.2,938.2,336.6,939,335.1z"/>
<path class="st2" d="M91,358.8l-23.8,33.9c-2.6,4.6-9.9,4.2-13.4,0.2l-23.3-32.1c-4.8-5.4-2.2-15.4,5-15.5l47.3-0.7
	c5.2,0,9.5,4.1,9.5,9.3C92.2,355.7,91.8,357.4,91,358.8z"/>
<g>
	<title>Pig with coins</title>
	<g>
		
			<linearGradient id="SVGID_2_" gradientUnits="userSpaceOnUse" x1="1938.2578" y1="1259.0018" x2="1834.5878" y2="1183.6719" gradientTransform="matrix(1 0 0 1 -935 -1005.37)">
			<stop  offset="0" style="stop-color:#F92468"/>
			<stop  offset="1" style="stop-color:#F9B449"/>
		</linearGradient>
		<path class="st4" d="M891,210.2l15-1c0,0,3-18,15-24v-20c0,0,14,8,17,9s30-12,61,7c26.1,16,20.3,44.1,17.8,52.5
			c-0.4,1.5-1.2,3-2.1,4.3c-2.2,3-6.5,9-8.7,11.2c-3,3,1.9,19.7-2,21c-3,1-9-12-12-11c-16.1,5.4-33.5,6-50,1.6
			c-1.1-0.3-2.3,0.2-2.8,1.3c-1.3,2.7-4,7.8-6.2,9.2c-3,2-3-11-6-13s-36-31-36-31V210.2z"/>
		<path class="st5" d="M1016.5,213.3c0,0,12.3-8.7,18.8-2.2s5.5,13.2,0.3,14.8c-3.9,1.2-10.1-5.4-7.4-9.6c2.7-4.2,7.3-6.5,12.6-3
			c5.3,3.5,7.7,10.7,8,14.7"/>
		<circle class="st6" cx="923" cy="211.6" r="5.6"/>
		
			<linearGradient id="SVGID_3_" gradientUnits="userSpaceOnUse" x1="1880.2653" y1="1182.1228" x2="1918.1652" y2="1182.1228" gradientTransform="matrix(1 0 0 1 -935 -1005.37)">
			<stop  offset="0" style="stop-color:#F92468"/>
			<stop  offset="1" style="stop-color:#F93764"/>
		</linearGradient>
		<path class="st7" d="M945.8,177.7c0,0,22.4-6,36.9,0.6"/>
	</g>
	<g id="coin">
		
			<linearGradient id="SVGID_4_" gradientUnits="userSpaceOnUse" x1="935.5822" y1="772.4963" x2="978.1322" y2="709.1163" gradientTransform="matrix(1 0 0 1 0 -596)">
			<stop  offset="0" style="stop-color:#F92468"/>
			<stop  offset="1" style="stop-color:#F9B449"/>
		</linearGradient>
		<circle class="st8" cx="964.7" cy="133.1" r="22.4"/>
		
			<linearGradient id="SVGID_5_" gradientUnits="userSpaceOnUse" x1="945.7152" y1="729.2015" x2="983.3152" y2="729.2015" gradientTransform="matrix(1 0 0 1 0 -596)">
			<stop  offset="0" style="stop-color:#F92468"/>
			<stop  offset="1" style="stop-color:#F93764"/>
		</linearGradient>
		<circle class="st9" cx="964.5" cy="133.2" r="18.3"/>
		<text transform="matrix(1 0 0 1 957.2752 141.6216)" class="st10 st11 st12">$</text>
	</g>
	<g id="coin_copy">
		
			<linearGradient id="SVGID_6_" gradientUnits="userSpaceOnUse" x1="971.5313" y1="716.8822" x2="999.5413" y2="675.1522" gradientTransform="matrix(1 0 0 1 0 -596)">
			<stop  offset="0" style="stop-color:#F92468"/>
			<stop  offset="1" style="stop-color:#F9B449"/>
		</linearGradient>
		<circle class="st13" cx="990.7" cy="92.3" r="14.7"/>
		
			<linearGradient id="SVGID_7_" gradientUnits="userSpaceOnUse" x1="978.0752" y1="688.4016" x2="1003.1752" y2="688.4016" gradientTransform="matrix(1 0 0 1 0 -596)">
			<stop  offset="0" style="stop-color:#F92468"/>
			<stop  offset="1" style="stop-color:#F93764"/>
		</linearGradient>
		<circle class="st14" cx="990.6" cy="92.4" r="12.1"/>
		<text transform="matrix(1 0 0 1 985.8452 97.9416)" class="st10 st11 st15">$</text>
	</g>
	<g id="coin_copy_2">
		
			<linearGradient id="SVGID_8_" gradientUnits="userSpaceOnUse" x1="924.309" y1="718.5139" x2="944.3589" y2="688.6539" gradientTransform="matrix(1 0 0 1 0 -596)">
			<stop  offset="0" style="stop-color:#F92468"/>
			<stop  offset="1" style="stop-color:#F9B449"/>
		</linearGradient>
		<circle class="st16" cx="938" cy="102.1" r="10.5"/>
		
			<linearGradient id="SVGID_9_" gradientUnits="userSpaceOnUse" x1="928.8652" y1="698.1016" x2="947.1052" y2="698.1016" gradientTransform="matrix(1 0 0 1 0 -596)">
			<stop  offset="0" style="stop-color:#F92468"/>
			<stop  offset="1" style="stop-color:#F93764"/>
		</linearGradient>
		<circle class="st17" cx="938" cy="102.1" r="8.6"/>
		<text transform="matrix(1 0 0 1 934.5752 106.1116)" class="st10 st11 st18">$</text>
	</g>
</g>
<g id="Books">
	<title>Books</title>
	<g id="Files">
		<path class="st19" d="M61,473.4h56c0.5,0,0.9,0.4,0.9,0.9l0,0c0,0.5-0.4,0.9-0.9,0.9H61c-0.5,0-0.9-0.4-0.9-0.9l0,0
			C60.1,473.8,60.5,473.4,61,473.4z"/>
		<path class="st19" d="M61,476.8h56c0.5,0,0.9,0.4,0.9,0.9l0,0c0,0.5-0.4,0.9-0.9,0.9H61c-0.5,0-0.9-0.4-0.9-0.9l0,0
			C60.1,477.2,60.5,476.8,61,476.8z"/>
		<path class="st19" d="M61,480.1h56c0.5,0,0.9,0.4,0.9,0.9l0,0c0,0.5-0.4,0.9-0.9,0.9H61c-0.5,0-0.9-0.4-0.9-0.9l0,0
			C60.1,480.6,60.5,480.1,61,480.1z"/>
		<path class="st19" d="M73.8,491h51.1c0.5,0,0.9,0.4,0.9,0.9l0,0c0,0.5-0.4,0.9-0.9,0.9H73.8c-0.5,0-0.9-0.4-0.9-0.9l0,0
			C72.9,491.5,73.3,491,73.8,491z"/>
		<path class="st19" d="M73.8,494.4h51.1c0.5,0,0.9,0.4,0.9,0.9l0,0c0,0.5-0.4,0.9-0.9,0.9H73.8c-0.5,0-0.9-0.4-0.9-0.9l0,0
			C72.9,494.8,73.3,494.4,73.8,494.4z"/>
		<path class="st19" d="M73.8,497.8h51.1c0.5,0,0.9,0.4,0.9,0.9l0,0c0,0.5-0.4,0.9-0.9,0.9H73.8c-0.5,0-0.9-0.4-0.9-0.9l0,0
			C72.9,498.2,73.3,497.8,73.8,497.8z"/>
	</g>
	<g id="book1">
		<path class="st20" d="M-14.8,469.7"/>
		
			<linearGradient id="SVGID_10_" gradientUnits="userSpaceOnUse" x1="724.1417" y1="1358.704" x2="865.1095" y2="1358.704" gradientTransform="matrix(1 0 0 1 -746 -881)">
			<stop  offset="0" style="stop-color:#4B46BD"/>
			<stop  offset="1" style="stop-color:#5CD4EE"/>
		</linearGradient>
		<path class="st21" d="M-14.2,469.8c0,0-7.6,0.6-7.6,8.1c0,7.5,7.9,7.9,7.9,7.9l133.1,0.4v-2.3H59.7c0,0-1.9,0.4-1.5-2.6v-7.9
			c0-0.9,0.7-1.7,1.6-1.8H60c2.7,0,58.3,0.6,58.3,0.6v-3L-14.2,469.8z"/>
		<line class="st22" x1="59" y1="473" x2="116.5" y2="473.3"/>
		<line class="st22" x1="59" y1="474.5" x2="116.5" y2="474.8"/>
		<line class="st22" x1="59" y1="476" x2="116.5" y2="476.3"/>
		<line class="st22" x1="59" y1="477.5" x2="116.5" y2="477.8"/>
		<line class="st22" x1="59" y1="479.4" x2="116.5" y2="479.7"/>
		<line class="st22" x1="59" y1="481.3" x2="116.5" y2="481.5"/>
	</g>
	<g id="book2">
		
			<linearGradient id="SVGID_11_" gradientUnits="userSpaceOnUse" x1="729.1038" y1="1375.8833" x2="873.1541" y2="1375.8833" gradientTransform="matrix(1 0 0 1 -746 -881)">
			<stop  offset="0" style="stop-color:#F71F68"/>
			<stop  offset="1" style="stop-color:#F9C448"/>
		</linearGradient>
		<path class="st23" d="M-8.6,485.8c0,0-8.3,0.9-8.3,9.2c0,7.1,5.8,8.8,7.4,9.1c0.3,0,0.5,0.1,0.8,0.1l135.9,0.2l-0.1-2.8l-52.7-0.2
			c0,0-3.4,0-3-3.3V491c0,0-0.4-2.6,2.6-2.6c2.6,0,52.3,0.6,52.3,0.6v-3.6L-8.6,485.8z"/>
		<line class="st22" x1="72.5" y1="490.3" x2="122.5" y2="490.6"/>
		<line class="st22" x1="72.5" y1="491.8" x2="122.5" y2="492.1"/>
		<line class="st22" x1="72.5" y1="493.3" x2="122.5" y2="493.6"/>
		<line class="st22" x1="72.5" y1="494.8" x2="122.5" y2="495.1"/>
		<line class="st22" x1="72.5" y1="496.7" x2="122.5" y2="497"/>
		<line class="st22" x1="72.5" y1="498.6" x2="122.5" y2="498.9"/>
		<line class="st22" x1="72.5" y1="500.1" x2="122.5" y2="500.4"/>
		<path class="st24" d="M68.1,473.4h4.5c1.3,0.9,2.2,2.2,2.6,3.8c0.8,2.6,0,3.4,1.5,6.4c0.9,1.8,1.9,2.9,2.6,4.1
			c0.2,0.3,0.3,2,0.4,2.3l0.4,4.5l-1.9-1.1l-1.9,1.9c0,0,0-6-0.8-7.1c-0.8-1.1-3.7-5.3-3.4-8.3C72.6,476.4,71.5,475.3,68.1,473.4z"
			/>
	</g>
	
		<linearGradient id="SVGID_12_" gradientUnits="userSpaceOnUse" x1="116.9144" y1="963.5729" x2="195.5218" y2="865.4931" gradientTransform="matrix(1 0 0 1 0 -478)">
		<stop  offset="0" style="stop-color:#4B46BD"/>
		<stop  offset="1" style="stop-color:#5CD4EE"/>
	</linearGradient>
	<path class="st25" d="M141.3,390.7h10.3c2.5,0,4.5,2,4.5,4.5v107.1c0,2.5-2,4.5-4.5,4.5h-10.3c-2.5,0-4.5-2-4.5-4.5V395.2
		C136.8,392.7,138.8,390.7,141.3,390.7z"/>
	
		<linearGradient id="SVGID_13_" gradientUnits="userSpaceOnUse" x1="-96.9807" y1="962.821" x2="-18.3733" y2="864.7413" gradientTransform="matrix(1 0 0 1 0 -478)">
		<stop  offset="0" style="stop-color:#4B46BD"/>
		<stop  offset="1" style="stop-color:#5CD4EE"/>
	</linearGradient>
	<path class="st26" d="M-72.6,389.9h10.3c2.5,0,4.5,2,4.5,4.5v107.1c0,2.5-2,4.5-4.5,4.5h-10.3c-2.5,0-4.5-2-4.5-4.5V394.4
		C-77.1,392-75.1,389.9-72.6,389.9z"/>
	
		<linearGradient id="SVGID_14_" gradientUnits="userSpaceOnUse" x1="550.2308" y1="1031.6117" x2="623.8573" y2="939.7458" gradientTransform="matrix(0.7881 -0.455 0.37 0.6409 -623.2352 93.6318)">
		<stop  offset="0" style="stop-color:#4B46BD"/>
		<stop  offset="1" style="stop-color:#5CD4EE"/>
	</linearGradient>
	<path class="st27" d="M177.4,436.8l7.4-4.2c2.1-1.2,4.9-0.5,6.2,1.7l35.7,61.9c1.2,2.1,0.5,4.9-1.7,6.2l-7.4,4.2
		c-2.1,1.2-4.9,0.5-6.2-1.7l-35.7-61.9C174.5,440.8,175.2,438,177.4,436.8z"/>
	
		<linearGradient id="SVGID_15_" gradientUnits="userSpaceOnUse" x1="139.8087" y1="967.0502" x2="208.1723" y2="881.7515" gradientTransform="matrix(1 0 0 1 0 -478)">
		<stop  offset="0" style="stop-color:#F71F68"/>
		<stop  offset="1" style="stop-color:#F9C448"/>
	</linearGradient>
	<path class="st28" d="M160.3,407.2h10.3c2.5,0,4.5,2,4.5,4.5v90.6c0,2.5-2,4.5-4.5,4.5h-10.3c-2.5,0-4.5-2-4.5-4.5v-90.6
		C155.8,409.3,157.8,407.2,160.3,407.2z"/>
	
		<linearGradient id="SVGID_16_" gradientUnits="userSpaceOnUse" x1="-76.5941" y1="963.6931" x2="-0.5466" y2="868.8086" gradientTransform="matrix(1 0 0 1 0 -478)">
		<stop  offset="0" style="stop-color:#F71F68"/>
		<stop  offset="1" style="stop-color:#F9C448"/>
	</linearGradient>
	<path class="st29" d="M-53.2,394.1h10.3c2.5,0,4.5,2,4.5,4.5v103c0,2.5-2,4.5-4.5,4.5h-10.3c-2.5,0-4.5-2-4.5-4.5v-103
		C-57.7,396.1-55.7,394.1-53.2,394.1z"/>
</g>
</svg>
