<?xml version="1.0" encoding="utf-8"?>
<!-- Generator: Adobe Illustrator 23.0.3, SVG Export Plug-In . SVG Version: 6.00 Build 0)  -->
<svg version="1.1" id="Layer_1" xmlns="http://www.w3.org/2000/svg" xmlns:xlink="http://www.w3.org/1999/xlink" x="0px" y="0px"
	 viewBox="0 0 1229.5 849.9" style="enable-background:new 0 0 1229.5 849.9;" xml:space="preserve">
<style type="text/css">
	.st0{fill:#F8F8FF;}
	.st1{fill:#F5F5FC;}
	.st2{fill:#FFFFFF;}
	.st3{fill:#BAC6F2;}
	.st4{fill:#B1C1F2;}
	.st5{fill:#E9EDFA;}
	.st6{fill:none;stroke:#BAC6F2;stroke-width:3;stroke-linecap:round;stroke-linejoin:round;}
	.st7{fill:none;stroke:#BAC6F2;stroke-width:6;stroke-linecap:round;stroke-linejoin:round;}
	.st8{fill:#BAC5F4;}
	.st9{fill:#FA5F5D;}
	.st10{fill:#FDBC4E;}
	.st11{fill:#37CD58;}
	.st12{fill:url(#SVGID_1_);}
	.st13{fill:url(#SVGID_2_);}
	.st14{fill:url(#SVGID_3_);}
	.st15{fill:url(#SVGID_4_);}
	.st16{fill:url(#SVGID_5_);}
	.st17{fill:#E9EDFB;}
	.st18{fill:url(#SVGID_6_);}
	.st19{fill:url(#SVGID_7_);}
	.st20{fill:url(#SVGID_8_);}
	.st21{fill:url(#SVGID_9_);}
	.st22{fill:url(#SVGID_10_);}
	.st23{fill:url(#SVGID_11_);}
	.st24{fill:url(#SVGID_12_);}
	.st25{fill:#4B44BE;}
	.st26{fill:url(#SVGID_13_);}
	.st27{fill:url(#SVGID_14_);}
	.st28{fill:url(#SVGID_15_);}
	.st29{fill:url(#SVGID_16_);}
	.st30{opacity:7.000000e-02;enable-background:new    ;}
</style>
<title>bg15</title>
<g id="bg">
	<path class="st0" d="M37.9,380.8c-18.1-33.3-23.3-72.2-14.4-109C48.8,167.5,120.4-15.6,309.9,10.3c263,36,339.5,45,447.4,11.2
		s294.5-33.7,352.9,42.7c35.4,46.3,155.1,254,78.7,326s37,214.4,40.5,290s-105.6,85.4-242.8,87.7S52.4,744,52.4,744
		S-49.8,567.8,31.2,504.9C81.3,465.9,58.8,419.3,37.9,380.8z"/>
	<path class="st1" d="M117.6,661.6c-17.5-0.6-83.2,8.4-87.1,11.8c-1,0.9-15.4,43.7,47.9,98.9c101.2,88.4,373.4,91.4,461.6,57.8
		c128-48.8,268.3,42.7,559,7.7c92.9-11.2,155-153.5,112.8-172c-25.3-11-55.6,18.2-81,5.4c-29.3-14.8-88.6-24-125.3-12.7
		c-1.5,0.4-2.4,2-2,3.5c0.4,1.4,1.8,2.3,3.3,2l-19.3,6.2c-21.5,16-16.7-5.3-67.1-8l-148.6-3.7c-53.1,1.6-257.6,10.6-337.6,7.4h-44
		c-29.4-3.7-105.5-5.4-108.3-5.5L117.6,661.6z"/>
</g>
<g id="chair">
	<path class="st2" d="M164.1,465.9"/>
	<path class="st3" d="M178.1,443.9h45c0,0,14,2,15,12S237.8,596,237.8,596l90.3-1.1c0,0,9,3,9,13s-7,14-7,14l-137.2-0.6L178.1,443.9
		"/>
	<path class="st4" d="M178.1,443.9c0,0-13,2-14,22s0,155,0,155l137.1,1c2,0,3.9-0.8,5.2-2.3c2-2.2,4.7-5.6,4.7-8.7c0-5.4-2-14-13-14
		s-104-1-104-1l-2-140C192.1,456,192.1,445.9,178.1,443.9z"/>
	<path class="st3" d="M235.5,621.6c0,0-2.4,11.3,5.6,11.3h13c1,0,5.3-6,2.6-11S235.5,621.6,235.5,621.6"/>
	<polygon class="st5" points="241.1,633 242.1,745.9 251.1,745.9 251.6,632.3 	"/>
	<polygon class="st5" points="204.1,743.9 290.1,744.9 290.1,752.9 204.1,751.9 	"/>
</g>
<g id="table">
	<polygon class="st2" points="374.1,753.9 370.1,544.9 391.1,544.9 390.1,753.9 	"/>
	<polygon class="st2" points="831.1,545.9 854.1,545.9 846.1,754.9 831.1,755.9 	"/>
	<polygon class="st5" points="354.1,508.9 355.1,542.9 864.1,545.9 864.7,507.9 	"/>
	<polygon class="st3" points="323.1,489.9 895.1,491.9 895.1,510.9 324.1,509.9 	"/>
</g>
<g id="flower">
	<polygon class="st5" points="1022.8,667.7 1023.8,752.7 1137.8,750.7 1137.8,667.7 	"/>
	<polyline class="st2" points="1112.8,751.1 1112.9,667.7 1105.6,667.7 	"/>
	<path class="st3" d="M1052.4,667.5c0,0-2.7-50.4,21.1-64.7s3.4-47.7,8.2-65.4s27.2-30.7,27.2-44.3s-2-51.8,23.8-63.3
		s46.3,3.4,38.2,25.9s-14.3,48.4-23.2,56.5s-5.4,21.1-4.1,36.8s-10.9,41.5-17.7,51.1s0,25.9-2,42.9c0,0-3.7,23.8-7.5,24.6
		S1052.4,667.5,1052.4,667.5z"/>
	<path class="st3" d="M1105.6,669.1c0,0,3-24-23.6-30.8s-3.8-22.7-9.1-31.1s-30.4-14.6-30.4-21s2.3-24.6-26.6-30.1
		s-51.7,1.6-42.6,12.3s16,23,25.8,26.9s6.1,10,4.6,17.5s12.2,19.8,19.8,24.3s0,12.3,2.3,20.4c0,0,4.2,11.3,8.3,11.7
		S1105.6,669.1,1105.6,669.1z"/>
	<path class="st3" d="M1083.4,669c0,0-2.1-25.1,16.4-32.2s2.7-23.7,6.3-32.5s21.2-15.2,21.2-22s-1.6-25.7,18.5-31.5
		s36,1.7,29.6,12.9s-11.1,24-18,28.1s-4.2,10.5-3.2,18.3s-8.5,20.7-13.8,25.4s0,12.9-1.6,21.3c0,0-2.9,11.8-5.8,12.2
		S1083.4,669,1083.4,669z"/>
</g>
<g id="board">
	<polygon class="st2" points="441.9,185.7 442.6,377.5 976.1,376.7 976.1,187.2 	"/>
	<polygon class="st3" points="537.3,245.7 537.3,269.3 755.8,268.3 755.8,245.7 	"/>
	<polygon class="st3" points="537.3,311.4 537.3,335 755.8,334 755.8,311.4 	"/>
	<circle class="st3" cx="500.4" cy="261.1" r="16.4"/>
	<circle class="st3" cx="500.4" cy="322.4" r="16.4"/>
	<rect x="815.5" y="271.5" class="st5" width="129.7" height="63.3"/>
	<path class="st6" d="M813.4,331.8c0,0,10.1-22.1,19.7-19.7s12,12.5,19.2,8.2s11.9-21.7,18.9-24.5c10-3.9,13.3,0.4,26.8,8.1
		s19.2,6,24.7,0.3c5.1-5.2,14.5-19.3,24.9-25.6"/>
	<rect x="207.3" y="188.2" class="st2" width="193" height="183.5"/>
	<circle class="st7" cx="301.3" cy="299.3" r="49.9"/>
	<rect x="220" y="204.1" class="st3" width="49.1" height="11.6"/>
	<rect x="220" y="222.3" class="st3" width="49.1" height="11.6"/>
</g>
<g id="Computer">
	<title>Computer</title>
	<path class="st8" d="M363.5,460.1h152.3c0,0,5.7-0.3,5.7-6.9v-13.1h-164V456C358.3,458.5,360.7,460.2,363.5,460.1"/>
	<path class="st8" d="M357.5,341.1l-0.1,104l164.1-1.5V338.1c0,0,1-6-5.4-6H363.7C363.7,332.1,356.8,332.1,357.5,341.1"/>
	<polygon class="st8" points="426.5,488 426.5,459.1 450.5,460.1 450.5,485.5 	"/>
	<polygon class="st8" points="388.4,485.1 488.1,485.1 488.2,490.1 388.4,490.1 	"/>
	<path class="st2" d="M438,447.2c2.7,0,4.8,2.1,4.8,4.8s-2.1,4.8-4.8,4.8c-2.7,0-4.8-2.1-4.8-4.8S435.4,447.2,438,447.2L438,447.2"
		/>
	<rect x="362.5" y="337.1" class="st0" width="154" height="101"/>
	<path class="st9" d="M370.2,342.3c1.3,0,2.4,1.1,2.4,2.4c0,1.3-1.1,2.4-2.4,2.4s-2.4-1.1-2.4-2.4
		C367.8,343.4,368.9,342.3,370.2,342.3L370.2,342.3"/>
	<path class="st10" d="M378.4,342.3c1.3,0,2.4,1.1,2.4,2.4c0,1.3-1.1,2.4-2.4,2.4c-1.3,0-2.4-1.1-2.4-2.4
		C376,343.4,377.1,342.3,378.4,342.3L378.4,342.3"/>
	<path class="st11" d="M387,342.3c1.3,0,2.4,1.1,2.4,2.4c0,1.3-1.1,2.4-2.4,2.4c-1.3,0-2.4-1.1-2.4-2.4
		C384.6,343.4,385.7,342.3,387,342.3L387,342.3"/>
	
		<linearGradient id="SVGID_1_" gradientUnits="userSpaceOnUse" x1="1395.3755" y1="1325.5824" x2="1430.3755" y2="1325.5824" gradientTransform="matrix(1 0 0 1 -1009.9 -968)">
		<stop  offset="0" style="stop-color:#F71D69"/>
		<stop  offset="1" style="stop-color:#F8C648"/>
	</linearGradient>
	<path class="st12" d="M420.5,359.9c-0.1,1.3-1.2,2.3-2.5,2.2h-29.5c-1.5,0-3-1-3-2.2v-4.5c0-1.2,1.4-2.3,3-2.3h29.4
		c1.3-0.1,2.5,0.9,2.6,2.2v0.1V359.9z"/>
	
		<linearGradient id="SVGID_2_" gradientUnits="userSpaceOnUse" x1="1395.3755" y1="1346.5824" x2="1501.3755" y2="1346.5824" gradientTransform="matrix(1 0 0 1 -1009.9 -968)">
		<stop  offset="0" style="stop-color:#93FD94"/>
		<stop  offset="1" style="stop-color:#21C4C0"/>
	</linearGradient>
	<path class="st13" d="M491.5,389.7c-0.1,1.4-1.3,2.5-2.7,2.4l0,0H388.5c-1.5,0-3-1.1-3-2.4v-22.2c0-1.3,1.5-2.4,3-2.4h100.3
		c1.4-0.1,2.6,1,2.7,2.4l0,0l0,0V389.7z"/>
	
		<linearGradient id="SVGID_3_" gradientUnits="userSpaceOnUse" x1="1395.3755" y1="1370.579" x2="1428.3755" y2="1370.579" gradientTransform="matrix(1 0 0 1 -1009.9 -968)">
		<stop  offset="0" style="stop-color:#93FD94"/>
		<stop  offset="1" style="stop-color:#21C4C0"/>
	</linearGradient>
	<path class="st14" d="M418.5,408.7c0,1.3-1.1,2.4-2.4,2.4l0,0h-27.6c-1.6,0-3-1.1-3-2.4v-12.2c0-1.3,1.5-2.4,3-2.4h27.4
		c1.3-0.1,2.5,0.9,2.6,2.3l0,0v0.1V408.7z"/>
	
		<linearGradient id="SVGID_4_" gradientUnits="userSpaceOnUse" x1="1431.3755" y1="1370.579" x2="1464.3755" y2="1370.579" gradientTransform="matrix(1 0 0 1 -1009.9 -968)">
		<stop  offset="0" style="stop-color:#93FD94"/>
		<stop  offset="1" style="stop-color:#21C4C0"/>
	</linearGradient>
	<path class="st15" d="M454.5,408.7c0,1.3-1.1,2.4-2.4,2.4l0,0h-27.6c-1.6,0-3-1.1-3-2.4v-12.2c0-1.3,1.5-2.4,3-2.4h27.4
		c1.3-0.1,2.5,0.9,2.6,2.3v0.1V408.7z"/>
	
		<linearGradient id="SVGID_5_" gradientUnits="userSpaceOnUse" x1="1468.3755" y1="1370.5822" x2="1501.3755" y2="1370.5822" gradientTransform="matrix(1 0 0 1 -1009.9 -968)">
		<stop  offset="0" style="stop-color:#93FD94"/>
		<stop  offset="1" style="stop-color:#21C4C0"/>
	</linearGradient>
	<path class="st16" d="M491.5,408.7c-0.1,1.4-1.3,2.5-2.7,2.4h-27.4c-1.5,0.1-2.7-1-2.9-2.4v-12.2c0.1-1.5,1.4-2.5,2.9-2.4h27.4
		c1.4-0.1,2.7,1,2.8,2.4l0,0l0,0L491.5,408.7L491.5,408.7z"/>
	<path class="st17" d="M454.5,415.6c-0.2,0.5-0.6,0.8-1.1,0.9c-0.1,0-0.1,0-0.2-0.4H423c-0.6,0.4-1.5,0-1.5-0.5v-0.4
		c0-0.5,0.9-1,1.5-1.1h30.2c0.5,0.1,0.8,0.5,0.9,0.9c0,0.1,0,0.1,0.3,0.2L454.5,415.6L454.5,415.6z"/>
	<path class="st17" d="M454.5,419.5c-0.2,0.5-0.6,0.9-1.1,1c0,0-0.1,0-0.1-0.4H423c-0.6,0.4-1.5,0-1.5-0.6v-0.4c0-0.5,0.9-0.9,1.5-1
		h30.2c0.5,0.1,1,0.5,1.2,1L454.5,419.5L454.5,419.5z"/>
	<path class="st17" d="M454.5,423.5c-0.2,0.6-0.7,1-1.2,1.1c0-0.2,0-0.3,0-0.5H423c-0.5,0.3-1.1,0.2-1.4-0.3
		c-0.1-0.1-0.1-0.2-0.1-0.3v-0.4c0-0.5,0.9-0.8,1.5-1h30.2c0.5,0.1,1,0.5,1.2,1L454.5,423.5z"/>
	<path class="st17" d="M454.5,427.4c-0.3,0.6-0.7,1.2-1.2,1.7H423c-0.6-0.5-1.5-1.1-1.5-1.7V427c0-0.5,0.9-1.1,1.5-0.9h30.2
		c0.4-0.1,0.8,0.2,0.9,0.6c0,0.1,0,0.2,0,0.3c0,0,0,0,0.3,0.1L454.5,427.4L454.5,427.4z"/>
	<path class="st17" d="M437.7,431.4c0,0.5-0.3,0.7-0.9,0.7h-13.9c-0.6,0-1.4-0.2-1.4-0.7V431c0-0.5,0.8-0.9,1.4-0.9h13.9
		c0.5,0,0.9,0.4,0.9,0.9l0,0V431.4z"/>
	<path class="st17" d="M491.5,415.6c-0.6,0.5-0.5,0.9-1.1,0.5h-30.2c-0.5,0.4-1,0.1-1-0.4c0,0,0,0,0.3-0.1v-0.4
		c-0.3-0.5,0.1-1,0.7-1.1h30.2c0.6,0.2,0.5,0.6,1.1,1.1V415.6z"/>
	<path class="st17" d="M491.5,419.5c-0.6,0.5-0.5,1-1.1,0.6h-30.2c-0.6,0.4-1,0-0.7-0.6v-0.4c-0.3-0.5,0.1-0.9,0.7-1h30.2
		c0.6,0.2,0.5,0.5,1.1,1V419.5z"/>
	<path class="st17" d="M491.5,423.5c-0.6,0.5-0.5,1.1-1.1,0.6h-30.2c-0.6,0.4-1,0-0.7-0.6v-0.4c-0.3-0.5,0.1-0.8,0.7-1h30.2
		c0.6,0.2,0.5,0.5,1.1,1V423.5z"/>
	<path class="st17" d="M491.5,427.4c-0.6,0.5-0.5,1.2-1.1,1.7h-30.2c-0.6-0.6-1-1.1-0.7-1.7V427c-0.2-0.2-0.2-0.6,0-0.8
		c0.2-0.1,0.4-0.2,0.6-0.1h30.3c0.6-0.2,0.5,0.4,1.1,0.9V427.4z"/>
	<path class="st17" d="M474.9,431.4c0,0.5,0,0.7-0.5,0.7h-14c-0.6,0-0.9-0.2-0.9-0.7V431c0-0.5,0.4-0.9,0.9-0.9l0,0h13.9
		c0.6,0,0.5,0.4,0.5,0.9L474.9,431.4z"/>
	<path class="st17" d="M417.5,415.6c0.4,0.5,0.2,0.9-0.4,0.5h-30.3c-0.4,0.3-0.9,0.2-1.1-0.1c-0.1-0.1-0.1-0.2-0.2-0.4v-0.4
		c0.2-0.6,0.7-1,1.3-1.1H417c0.6,0.2,0.8,0.6,0.4,1.1L417.5,415.6L417.5,415.6z"/>
	<path class="st17" d="M417.5,419.5c0.4,0.5,0.2,1-0.4,0.6h-30.3c-0.6,0.5-1.1,0-1.3-0.6v-0.4c0.1-0.5,0.7-0.9,1.3-1H417
		c0.6,0.2,0.8,0.5,0.4,1L417.5,419.5L417.5,419.5z"/>
	<path class="st17" d="M417.5,423.5c0.4,0.5,0.2,1.1-0.4,0.6h-30.3c-0.6,0.5-1.1,0-1.3-0.6v-0.4c0.1-0.5,0.7-0.8,1.3-1H417
		c0.6,0.2,0.8,0.5,0.4,1L417.5,423.5L417.5,423.5z"/>
	<path class="st17" d="M408.5,426.1h8.6c0.6-0.2,0.8,0.4,0.4,0.9v0.4c0.4,0.5,0.2,1.2-0.4,1.7h-30.3c-0.6-0.4-1-1-1.3-1.7V427
		c0.1-0.6,0.7-1,1.3-0.9l0,0H408.5"/>
	<path class="st17" d="M402.5,431.4c0,0.5-0.3,0.7-0.9,0.7h-15c-0.6,0-1.1-0.2-1.1-0.7V431c0.1-0.5,0.6-0.9,1.1-0.9h15
		c0.5,0,0.9,0.4,0.9,0.8l0,0c0,0,0,0,0,0.1V431.4z"/>
</g>
<g id="Layer_6">
	<g id="Layer_18">
		
			<linearGradient id="SVGID_6_" gradientUnits="userSpaceOnUse" x1="838.9718" y1="-899.378" x2="954.4672" y2="-899.378" gradientTransform="matrix(1 0 0 -1 -858.14 -199.79)">
			<stop  offset="0" style="stop-color:#93FD93"/>
			<stop  offset="0.51" style="stop-color:#21C2C1"/>
			<stop  offset="1" style="stop-color:#84F599"/>
		</linearGradient>
		<path class="st18" d="M83.3,750.5c0,0,8.8-47.8-37.6-73.4c-46.3-25.6-48.5-25.3-57.7-28.2c-5.3-1.8-10.7,2-4.6,9.6
			c6.1,7.7,2.6,9.6,14.8,13s14,18.2,20.1,21.9s11.4,4.7,30,12.7c16.9,7.3,31.3,27.9,31.3,35.1s16.5,9.7,16.5,9.7L83.3,750.5z"/>
		
			<linearGradient id="SVGID_7_" gradientUnits="userSpaceOnUse" x1="882.2469" y1="-862.9028" x2="947.8712" y2="-943.3597" gradientTransform="matrix(1 0 0 -1 -858.14 -199.79)">
			<stop  offset="0" style="stop-color:#93FD93"/>
			<stop  offset="0.51" style="stop-color:#21C2C1"/>
			<stop  offset="1" style="stop-color:#84F599"/>
		</linearGradient>
		<path class="st19" d="M81.7,743.8c0,0,11.8-44-28.8-67.8s-54.7-23.5-62.8-26.4c-4.6-1.7,8,4.1,13.3,11.1c5.3,7.1,4,5.5,13.5,10.7
			c11,6.1,15.6,12,22.1,13.2c9.4,1.8,6.6,11.6,22.9,18.9c14.7,6.7,16.6,24.6,16.6,31.3c0,6.8,14.4,9,14.4,9L81.7,743.8z"/>
		
			<linearGradient id="SVGID_8_" gradientUnits="userSpaceOnUse" x1="957.8123" y1="-953.882" x2="1048.0325" y2="-884.0746" gradientTransform="matrix(1 0 0 -1 -858.14 -199.79)">
			<stop  offset="0" style="stop-color:#93FD93"/>
			<stop  offset="0.51" style="stop-color:#21C2C1"/>
			<stop  offset="1" style="stop-color:#84F599"/>
		</linearGradient>
		<path class="st20" d="M122.5,737.3l4.6-4.4c2.2-2,4.9-3.5,7.8-4.3c14.3-3.8,59.4-17.9,78.1-52c0.2-0.3,0-0.7-0.3-0.8h-0.1
			c-0.1,0-0.2-0.1-0.2-0.1c-6.2-0.5-38.3-1-81.2,35.6c-0.8,0.6-1.5,1.4-2.1,2.1c-1.1,1.5-2.9,4.1-3.7,5.4c-1.1,2,1.1,5.3-1.9,8.2
			c-3,2.9-9.5,10.2-9.5,10.2l5.3,3.9L122.5,737.3z"/>
		
			<linearGradient id="SVGID_9_" gradientUnits="userSpaceOnUse" x1="980.493" y1="-918.4295" x2="903.0026" y2="-820.3311" gradientTransform="matrix(1 0 0 -1 -858.14 -199.79)">
			<stop  offset="0" style="stop-color:#93FD93"/>
			<stop  offset="0.51" style="stop-color:#21C2C1"/>
			<stop  offset="1" style="stop-color:#84F599"/>
		</linearGradient>
		<path class="st21" d="M98.1,734.5c0,0,12.3-110.1-21.3-144.7c-30.9-31.8-31.4-2.6-31.3,2.4c0,0.5,0.2,0.8,0.3,1.2
			c7.3,13.6,9.8,29.3,7.2,44.5c-3.2,15.9,19.6,13.8,21.6,29.5s9.9,39.9,9.1,51c-0.8,11.1-0.9,21.9-0.9,21.9l12.4,0.4L98.1,734.5z"/>
		
			<linearGradient id="SVGID_10_" gradientUnits="userSpaceOnUse" x1="903.9843" y1="-857.6385" x2="958.5055" y2="-857.6385" gradientTransform="matrix(1 0 0 -1 -858.14 -199.79)">
			<stop  offset="0" style="stop-color:#93FD93"/>
			<stop  offset="0.51" style="stop-color:#21C2C1"/>
			<stop  offset="1" style="stop-color:#84F599"/>
		</linearGradient>
		<path class="st22" d="M98,734.8c0.1-0.2,0.2-0.5,0.2-0.8c0.8-7.2,11.1-110.9-21.3-144.3c-30.7-31.7-31.2-3-31,2.2
			c0.1,0.6,0.4,1.2,0.7,1.7c2.3,3.3,12.4,17.7,21.4,16.1c24.9-4.4,2.9,25.5,16.4,41.5c10.8,12.6,7.2,56.2,6.4,67.4
			c-0.5,6.3-1.6,12.5-3.2,18.6c-0.3,1.6,0.8,3.1,2.3,3.4c0.1,0,0.2,0,0.2,0c0.2,0,0.4,0.1,0.6,0.1h2.3c1.4,0.1,2.6-0.6,3.2-1.8
			L98,734.8z"/>
		
			<linearGradient id="SVGID_11_" gradientUnits="userSpaceOnUse" x1="953.8322" y1="-946.7158" x2="1012.8925" y2="-861.3021" gradientTransform="matrix(1 0 0 -1 -858.14 -199.79)">
			<stop  offset="0" style="stop-color:#93FD93"/>
			<stop  offset="0.51" style="stop-color:#21C2C1"/>
			<stop  offset="1" style="stop-color:#84F599"/>
		</linearGradient>
		<path class="st23" d="M110.1,741.2c0,0,2.2-30.5,20-49.1c5-5.1,11.3-8.6,18.2-10.2c5.3-1.2,14-5.5,21.6-19.8
			c0,0,14.3-20.3,28.7-26.4c14.3-6.2,0-6.9,0-6.9s-41,7.8-67.3,31.8c-1.7,1.5-3.4,2.9-5.3,4.1c-6.8,4.7-25.7,22.2-24.9,73.5
			L110.1,741.2z"/>
		
			<linearGradient id="SVGID_12_" gradientUnits="userSpaceOnUse" x1="919.7837" y1="-968.7892" x2="1003.9323" y2="-968.7892" gradientTransform="matrix(1 0 0 -1 -858.14 -199.79)">
			<stop  offset="0" style="stop-color:#F8C547"/>
			<stop  offset="1" style="stop-color:#F71D69"/>
		</linearGradient>
		<path class="st24" d="M145.7,738.8c0,0,0.6-3.7-4.3-3.6c-4.3,0.2-76.7-0.4-76.7-0.4s-3.4,0-3.2,2.6s11.2,62.9,12.2,64.1
			c0.5,0.8,1.2,1.4,2.1,1.6c1.4,0.4,52.2,0.1,52.2,0.1c1.2-0.2,2.1-1.1,2.2-2.3C130.2,800.9,145.8,739.5,145.7,738.8"/>
	</g>
</g>
<g id="Man">
	<g>
		<path class="st25" d="M885.2,794.7c-2.7-11.4-3.6-26-5.4-26.3h-2l-19.1,0.2c0,0-4,18.2-6,25.8c-0.2,0.5-0.5,1.8-0.9,2.7
			c-0.4,1.3-0.4,2.7-0.4,4c0.4,6.9,3.1,12.8,9.2,15.9c6.9,3.4,12.1,6.7,19.1,0C886.8,810.2,887.9,806.1,885.2,794.7z"/>
		<path class="st25" d="M824.7,770.2l-24.2,1.3c0,0-9.6,16.6-23.6,20.6c-13.2,3.8-35,13-25.3,18.2c7.2,4.2,53.8,0.4,65.1,1.3
			c8.5,0.7,10.8-4.5,9.9-15.9C826,787.1,824.7,770.2,824.7,770.2z"/>
	</g>
	
		<linearGradient id="SVGID_13_" gradientUnits="userSpaceOnUse" x1="1362.2936" y1="2244.8599" x2="1495.5978" y2="2244.8599" gradientTransform="matrix(1 0 0 1 -584.07 -1625.03)">
		<stop  offset="0" style="stop-color:#4F68CA"/>
		<stop  offset="1" style="stop-color:#5ACEED"/>
	</linearGradient>
	<path class="st26" d="M795.7,468.1c0,0-16.2,133.5-17.3,142.2s5.6,53.2,5.6,61.7c0,8.5,15.9,99.6,15.9,99.6l25.3-1.1
		c0,0-5.1-134.1-4.5-140.6c0.5-6.5,28.2-84.3,28.2-84.3s2,20.6,2,27.1s7.6,196.2,7.6,196.2h22l31.2-279.4l-0.5-5.4L795.7,468.1z"/>
	
		<linearGradient id="SVGID_14_" gradientUnits="userSpaceOnUse" x1="1347.0725" y1="1991.8436" x2="1534.3984" y2="1991.8436" gradientTransform="matrix(1 0 0 1 -584.07 -1625.03)">
		<stop  offset="0" style="stop-color:#F87B58"/>
		<stop  offset="0.41" style="stop-color:#F89453"/>
		<stop  offset="0.71" style="stop-color:#F8C548"/>
		<stop  offset="1" style="stop-color:#F89C51"/>
	</linearGradient>
	<path class="st27" d="M870,210.2c0,0-24.2,9.4-29.6,11.5c-5.4,2.2-8.5,8.8-8.5,8.8s-2.7-1.6-2.7,2.9s2.2,14.8,4,17.5
		c2.9,4.5,5.4,9,7.8,13.7c2.2,4.7,1.4,14.4-0.9,15.9c-2.3,1.4-43.1,38.3-43.1,38.3L763,423.3l4.5,33l6.9,32.5c0,0-1.4,2.3,1.4,5.1
		c2.9,2.7,15.2,22.9,15.2,22.9l4.2-29.8l-13.9-44.2l-4.9-37.2l32.5-66.4l112.6,20l12.3,72.4L911,493.3l-4,30.1l19.1-16.8
		c1.1-0.9,3.2-5.6,4.3-8.1l11.4-32.1l8.5-51.3c0,0-71.1-128.1-74.7-135.7c-1.6-3.4,0.2-11.7,1.1-15.9c0.9-3.8,2.7-8.7,4.5-10.1
		c2.7-2.9,4-7,4.7-10.8c0-2.7,1.1-13.2-1.6-10.6c-0.5,0.7-2.5-2.5-3.4-6.7C879.2,219.2,874.9,214.1,870,210.2z"/>
	
		<linearGradient id="SVGID_15_" gradientUnits="userSpaceOnUse" x1="1335.2495" y1="2016.4949" x2="1543.3981" y2="2016.4949" gradientTransform="matrix(1 0 0 1 -584.07 -1625.03)">
		<stop  offset="0" style="stop-color:#E1A1ED"/>
		<stop  offset="1" style="stop-color:#7658F4"/>
	</linearGradient>
	<path class="st28" d="M860.8,314.7c-1.8,1.6-4.5,1.4-6.1-0.2c-1.3-2-2.5-4-3.4-6c-1.8-3.6-15.7-24-15.7-24s-33,8.5-38.3,11.9
		c-5.4,3.6-10.3,8.5-12.1,14.8c-1.8,6.3-27.3,80.5-28.5,85c-1.3,4.5-7.8,11.7-4.7,30s20.2,65,22,65.5s20-8.5,20-8.5
		s-14.4-58.1-14.4-63.9c0-5.8,13-22.2,18.2-33.4c5.2-11.2,9-20.9,10.8-25.8s-15.5,96.6-15.5,96.6s-0.4,18.4,3.1,20.2
		c3.2,1.6,42,16.4,51.1,19.9c0.9,0.4,2-0.2,2.5-1.1l0,0l5.8-16.4c0-0.2,0.2-0.4,0.4-0.2c0.2,0,0.2,0.2,0.2,0.2l5.4,17.9
		c0.2,0.9,1.3,1.4,2.2,1.3l47.8-10.3c0,0-0.7-88.2,0.2-103c0.7-14.4-1.1-22.6,1.6-18.6c2.9,4.3,15,44,15,50.7
		c0,6.7-13.5,65.3-13.5,65.3l17.9,9.9c0,0,24.2-64.4,25.4-72.9c1.3-8.5,1.8-13-2.2-21.5c-4-8.5-26-85.5-26-85.5s-2.2-9.4-18.4-14.3
		s-28.3-12.1-31.2-11.9s-11.9,17.1-15.9,22.2C862.6,310.5,863,311.4,860.8,314.7z"/>
	
		<linearGradient id="SVGID_16_" gradientUnits="userSpaceOnUse" x1="824.7536" y1="654.7972" x2="887.3446" y2="654.7972" gradientTransform="matrix(1 0 0 1 0 -442)">
		<stop  offset="0" style="stop-color:#4F68CA"/>
		<stop  offset="1" style="stop-color:#5ACEED"/>
	</linearGradient>
	<path class="st29" d="M869.8,210.3c0,0-27.3,9.9-32.8,14.1c-4.2,3.1-5.1,6-5.1,6s-2.9-1.3-2.7,2.9c0.2,4.2-3.2-6.5-4.2-9.9
		c-0.7-3.4-0.9-13,6.5-20c7.4-7,15.5-12.3,22.4-11.9c6.9,0.4,12.5,2.3,17.9,7.6c5.4,5.2,6.7,4.9,7.8,5.4c1.1,0.5,6.7,6.5,7.4,13
		c0.7,6.5-1.3,16.1-1.3,16.1s-1.3-1.4-2.7-0.4s-1.8-6.1-6.5-15C873.1,211.6,869.8,210.3,869.8,210.3z"/>
	<path class="st30" d="M852.5,531.9c-3.1,9-15.2,26.7-23.1,37.4c-7.9,10.6-32.3,33-30.7,60.3c1.6,27.3,18,97.5,18,103.8
		s-6.1,36.1-10.8,45.3c-4.7,9.2-6.9,25.6-4.5,25.6c4.3-0.2,8.8-0.7,13.2-1.8c4-0.9,7.9-1.8,11.7-3.1c1.6-0.7,2-6,2-6
		c0.2-2.2-0.2-4.5-0.7-6.5c-1.1-3.4-2-6.9-2.5-10.3c-0.9-25.6-3.2-85-2.7-89.2c0.9-7.8-5.4-46.9,0.4-66.2
		C828.5,602,852.5,531.9,852.5,531.9z"/>
	<path class="st30" d="M794,483.2l-4.2,32.1c0,0,4.2,6.7,5.4,1.1c1.3-5.6,9.9-16.1,4.5-23.6S794,483.2,794,483.2z"/>
	<path class="st30" d="M911.3,492.1l-1.4,15.3l-1.8,14.8c0,0-6.1,4.5-6-1.3c0.2-5.8-10.3-14.4-2.3-20.2S911.3,492.1,911.3,492.1z"/>
	<path class="st30" d="M835.4,284.7c1.1-0.2-5.2,1.4,0.4-0.4c9.6-3.1,5.6-21.1,5.6-21.1s0.9,6.7,9.9,9.4c9,2.7,11.4,0.7-2.2,7
		c-13.5,6.3-6.5,8.5-5.6,16.8"/>
	<path class="st30" d="M808.3,366.3l-15.2,92c0,0,0.2,16.4,3.1,18.8c2.9,2.3,12.6,4,14.8,5.6c2.2,1.6,25.6,9.4,19.5-3.8
		c-1.4-2.9-33-20.6-18.9-39.2c14.1-18.6,11.5-44.2,4.9-62.1c-4-10.5-6-21.7-5.4-32.8L808.3,366.3z"/>
</g>
</svg>
