<?xml version="1.0" encoding="utf-8"?>
<!-- Generator: Adobe Illustrator 23.0.3, SVG Export Plug-In . SVG Version: 6.00 Build 0)  -->
<svg version="1.1" xmlns="http://www.w3.org/2000/svg" xmlns:xlink="http://www.w3.org/1999/xlink" x="0px" y="0px"
	 viewBox="0 0 515.5 360.9" style="enable-background:new 0 0 515.5 360.9;" xml:space="preserve">
<style type="text/css">
	.st0{fill:#F8F8FF;}
	.st1{fill:#BAC5F4;}
	.st2{fill:#E1E6FB;}
	.st3{fill:#F4F4F4;}
	.st4{fill:#4B46BD;}
	.st5{fill:url(#SVGID_1_);}
	.st6{fill:none;}
	.st7{fill:url(#SVGID_2_);}
	.st8{fill:#F8246A;}
	.st9{fill:url(#SVGID_3_);}
	.st10{fill:url(#SVGID_4_);}
	.st11{fill:url(#SVGID_5_);}
	.st12{fill:url(#SVGID_6_);}
	.st13{fill:url(#SVGID_7_);}
	.st14{fill:url(#SVGID_8_);}
	.st15{fill:none;stroke:#F93764;stroke-width:4;stroke-linecap:round;stroke-miterlimit:10;}
	.st16{fill:#F7B14A;}
	.st17{fill:none;stroke:url(#SVGID_9_);stroke-linecap:round;stroke-linejoin:round;}
	.st18{fill:url(#SVGID_10_);}
	.st19{fill:none;stroke:url(#SVGID_11_);stroke-miterlimit:10;}
	.st20{fill:#F9B449;}
	.st21{font-family:'ArialMT';}
	.st22{font-size:17.2663px;}
	.st23{fill:url(#SVGID_12_);}
	.st24{fill:none;stroke:url(#SVGID_13_);stroke-miterlimit:10;}
	.st25{font-size:11.3644px;}
	.st26{fill:url(#SVGID_14_);}
	.st27{fill:none;stroke:url(#SVGID_15_);stroke-miterlimit:10;}
	.st28{font-size:8.1322px;}
	.st29{fill:url(#SVGID_16_);}
	.st30{fill:url(#SVGID_17_);}
	.st31{fill:#F92468;stroke:url(#SVGID_18_);stroke-linecap:round;stroke-linejoin:round;}
	.st32{fill:url(#SVGID_19_);}
	.st33{fill:url(#SVGID_20_);}
	.st34{fill:#FFFFFF;}
</style>
<g id="Layer_1">
	<title>bg2</title>
	<g>
		<path class="st0" d="M49.5,190.9c-7.7-51.5-25-56-38.3-82c-12.1-23.6-21.8-62.3,12.3-90c53-43,118,1,118,1s103,59,121,62
			s62,33,117-3s102-33,117-6s-19,105-27,121s4,66,17,86s54,82-34,80s-352,1-352,1s-94.8-1.8-78-94C36.5,189.9,52.5,210.9,49.5,190.9
			z"/>
		<circle class="st1" cx="83.5" cy="163.9" r="20"/>
		<circle class="st1" cx="50" cy="188.4" r="13.5"/>
		<circle class="st1" cx="52" cy="157.4" r="7.5"/>
		<ellipse transform="matrix(0.1602 -0.9871 0.9871 0.1602 121.1119 740.07)" class="st1" cx="495.5" cy="298.9" rx="20" ry="20"/>
		<circle class="st1" cx="15" cy="62.4" r="7.5"/>
		<circle class="st2" cx="140" cy="297.4" r="35.5"/>
		<circle class="st2" cx="374.5" cy="325.9" r="24"/>
		<circle class="st2" cx="466.5" cy="201.9" r="13"/>
		<circle class="st2" cx="369.5" cy="84.9" r="26"/>
		<circle class="st2" cx="131" cy="15.4" r="12.5"/>
		<circle class="st2" cx="91" cy="264.4" r="12.5"/>
		<circle class="st1" cx="494" cy="119.4" r="12.5"/>
		<circle class="st1" cx="474" cy="331.4" r="13.5"/>
		<circle class="st1" cx="504" cy="338.4" r="7.5"/>
	</g>
</g>
<g id="Layer_2">
	<g id="Books">
		<title>Books</title>
		<g id="Files">
			<path class="st3" d="M134.5,265.6h37.8c0.4,0,0.6,0.3,0.6,0.6l0,0c0,0.4-0.3,0.6-0.6,0.6h-37.8c-0.4,0-0.6-0.3-0.6-0.6l0,0
				C133.9,265.9,134.2,265.6,134.5,265.6z"/>
			<path class="st3" d="M134.5,267.9h37.8c0.4,0,0.6,0.3,0.6,0.6l0,0c0,0.4-0.3,0.6-0.6,0.6h-37.8c-0.4,0-0.6-0.3-0.6-0.6l0,0
				C133.9,268.2,134.2,267.9,134.5,267.9z"/>
			<path class="st3" d="M134.5,270.2h37.8c0.4,0,0.6,0.3,0.6,0.6l0,0c0,0.4-0.3,0.6-0.6,0.6h-37.8c-0.4,0-0.6-0.3-0.6-0.6l0,0
				C133.9,270.5,134.2,270.2,134.5,270.2z"/>
			<path class="st3" d="M143.2,277.5h34.5c0.4,0,0.6,0.3,0.6,0.6l0,0c0,0.4-0.3,0.6-0.6,0.6h-34.5c-0.4,0-0.6-0.3-0.6-0.6l0,0
				C142.5,277.8,142.8,277.5,143.2,277.5z"/>
			<path class="st3" d="M143.2,279.8h34.5c0.4,0,0.6,0.3,0.6,0.6l0,0c0,0.4-0.3,0.6-0.6,0.6h-34.5c-0.4,0-0.6-0.3-0.6-0.6l0,0
				C142.5,280.1,142.8,279.8,143.2,279.8z"/>
			<path class="st3" d="M143.2,282.1h34.5c0.4,0,0.6,0.3,0.6,0.6l0,0c0,0.4-0.3,0.6-0.6,0.6h-34.5c-0.4,0-0.6-0.3-0.6-0.6l0,0
				C142.5,282.4,142.8,282.1,143.2,282.1z"/>
		</g>
		<g id="book1">
			<path class="st4" d="M83.4,263.1"/>
			
				<linearGradient id="SVGID_1_" gradientUnits="userSpaceOnUse" x1="824.5958" y1="1149.5402" x2="919.7282" y2="1149.5402" gradientTransform="matrix(1 0 0 1 -746 -881)">
				<stop  offset="0" style="stop-color:#4B46BD"/>
				<stop  offset="1" style="stop-color:#5CD4EE"/>
			</linearGradient>
			<path class="st5" d="M83.7,263.2c0,0-5.1,0.4-5.1,5.5s5.3,5.3,5.3,5.3l89.8,0.3v-1.5h-40.1c0,0-1.3,0.3-1-1.8v-5.3
				c0-0.6,0.5-1.2,1.1-1.2h0.1c1.8,0,39.4,0.4,39.4,0.4v-2L83.7,263.2z"/>
			<line class="st6" x1="133.1" y1="265.4" x2="172" y2="265.5"/>
			<line class="st6" x1="133.1" y1="266.4" x2="172" y2="266.6"/>
			<line class="st6" x1="133.1" y1="267.4" x2="172" y2="267.6"/>
			<line class="st6" x1="133.1" y1="268.4" x2="172" y2="268.6"/>
			<line class="st6" x1="133.1" y1="269.7" x2="172" y2="269.9"/>
			<line class="st6" x1="133.1" y1="271" x2="172" y2="271.1"/>
		</g>
		<g id="book2">
			
				<linearGradient id="SVGID_2_" gradientUnits="userSpaceOnUse" x1="827.9445" y1="1161.1337" x2="925.1571" y2="1161.1337" gradientTransform="matrix(1 0 0 1 -746 -881)">
				<stop  offset="0" style="stop-color:#F71F68"/>
				<stop  offset="1" style="stop-color:#F9C448"/>
			</linearGradient>
			<path class="st7" d="M87.5,274c0,0-5.6,0.6-5.6,6.2c0,4.8,3.9,5.9,5,6.1c0.2,0,0.3,0.1,0.5,0.1l91.7,0.1l-0.1-1.9l-35.5-0.1
				c0,0-2.3,0-2-2.3v-4.8c0,0-0.3-1.8,1.8-1.8c1.8,0,35.3,0.4,35.3,0.4v-2.4L87.5,274z"/>
			<line class="st6" x1="142.3" y1="277" x2="176" y2="277.2"/>
			<line class="st6" x1="142.3" y1="278.1" x2="176" y2="278.3"/>
			<line class="st6" x1="142.3" y1="279.1" x2="176" y2="279.3"/>
			<line class="st6" x1="142.3" y1="280.1" x2="176" y2="280.3"/>
			<line class="st6" x1="142.3" y1="281.4" x2="176" y2="281.6"/>
			<line class="st6" x1="142.3" y1="282.6" x2="176" y2="282.8"/>
			<line class="st6" x1="142.3" y1="283.6" x2="176" y2="283.8"/>
			<path class="st8" d="M139.3,265.6h3c0.9,0.6,1.5,1.5,1.8,2.5c0.5,1.8,0,2.3,1,4.3c0.6,1.2,1.3,2,1.8,2.8c0.1,0.2,0.2,1.3,0.3,1.5
				l0.3,3l-1.3-0.8l-1.3,1.3c0,0,0-4.1-0.5-4.8c-0.5-0.8-2.5-3.6-2.3-5.6C142.3,267.7,141.6,266.9,139.3,265.6z"/>
		</g>
		
			<linearGradient id="SVGID_3_" gradientUnits="userSpaceOnUse" x1="172.2468" y1="751.8505" x2="225.2952" y2="685.6612" gradientTransform="matrix(1 0 0 1 0 -478)">
			<stop  offset="0" style="stop-color:#4B46BD"/>
			<stop  offset="1" style="stop-color:#5CD4EE"/>
		</linearGradient>
		<path class="st9" d="M188.7,209.8h6.9c1.7,0,3,1.4,3,3v72.3c0,1.7-1.4,3-3,3h-6.9c-1.7,0-3-1.4-3-3v-72.3
			C185.7,211.2,187,209.8,188.7,209.8z"/>
		
			<linearGradient id="SVGID_4_" gradientUnits="userSpaceOnUse" x1="27.8993" y1="751.3431" x2="80.9476" y2="685.1538" gradientTransform="matrix(1 0 0 1 0 -478)">
			<stop  offset="0" style="stop-color:#4B46BD"/>
			<stop  offset="1" style="stop-color:#5CD4EE"/>
		</linearGradient>
		<path class="st10" d="M44.3,209.3h6.9c1.7,0,3,1.4,3,3v72.3c0,1.7-1.4,3-3,3h-6.9c-1.7,0-3-1.4-3-3v-72.3
			C41.3,210.7,42.7,209.3,44.3,209.3z"/>
		
			<linearGradient id="SVGID_5_" gradientUnits="userSpaceOnUse" x1="610.0649" y1="1008.8537" x2="659.7519" y2="946.8578" gradientTransform="matrix(0.7881 -0.455 0.37 0.6409 -631.0834 -82.414)">
			<stop  offset="0" style="stop-color:#4B46BD"/>
			<stop  offset="1" style="stop-color:#5CD4EE"/>
		</linearGradient>
		<path class="st11" d="M213,240.9l5-2.9c1.4-0.8,3.3-0.3,4.2,1.1l24.1,41.8c0.8,1.4,0.3,3.3-1.1,4.2l-5,2.9
			c-1.4,0.8-3.3,0.3-4.2-1.1l-24.1-41.8C211.1,243.6,211.6,241.8,213,240.9z"/>
		
			<linearGradient id="SVGID_6_" gradientUnits="userSpaceOnUse" x1="187.697" y1="754.1971" x2="233.8324" y2="696.6332" gradientTransform="matrix(1 0 0 1 0 -478)">
			<stop  offset="0" style="stop-color:#F71F68"/>
			<stop  offset="1" style="stop-color:#F9C448"/>
		</linearGradient>
		<path class="st12" d="M201.6,221h6.9c1.7,0,3,1.4,3,3v61.1c0,1.7-1.4,3-3,3h-6.9c-1.7,0-3-1.4-3-3V224
			C198.5,222.3,199.9,221,201.6,221z"/>
		
			<linearGradient id="SVGID_7_" gradientUnits="userSpaceOnUse" x1="41.6572" y1="751.9316" x2="92.978" y2="687.8986" gradientTransform="matrix(1 0 0 1 0 -478)">
			<stop  offset="0" style="stop-color:#F71F68"/>
			<stop  offset="1" style="stop-color:#F9C448"/>
		</linearGradient>
		<path class="st13" d="M57.5,212.1h6.9c1.7,0,3,1.4,3,3v69.5c0,1.7-1.4,3-3,3h-6.9c-1.7,0-3-1.4-3-3v-69.5
			C54.4,213.5,55.8,212.1,57.5,212.1z"/>
	</g>
	<g>
		<title>Pig with coins</title>
		<g>
			
				<linearGradient id="SVGID_8_" gradientUnits="userSpaceOnUse" x1="1221.7864" y1="1171.0985" x2="1154.7703" y2="1122.4023" gradientTransform="matrix(1 0 0 1 -935 -1005.37)">
				<stop  offset="0" style="stop-color:#F92468"/>
				<stop  offset="1" style="stop-color:#F9B449"/>
			</linearGradient>
			<path class="st14" d="M214.2,137.7l9.7-0.6c0,0,1.9-11.6,9.7-15.5v-12.9c0,0,9.1,5.2,11,5.8s19.4-7.8,39.4,4.5
				c16.9,10.3,13.1,28.5,11.5,33.9c-0.3,1-0.8,1.9-1.4,2.8c-1.4,1.9-4.2,5.8-5.6,7.2c-1.9,1.9,1.2,12.7-1.3,13.6
				c-1.9,0.6-5.8-7.8-7.8-7.1c-10.4,3.5-21.7,3.9-32.3,1c-0.7-0.2-1.5,0.1-1.8,0.8c-0.8,1.7-2.6,5-4,5.9c-1.9,1.3-1.9-7.1-3.9-8.4
				c-1.9-1.3-23.3-20-23.3-20L214.2,137.7z"/>
			<path class="st15" d="M295.4,139.7c0,0,8-5.6,12.2-1.4s3.6,8.5,0.2,9.6c-2.5,0.8-6.5-3.5-4.8-6.2s4.7-4.2,8.1-1.9s5,6.9,5.2,9.5"
				/>
			<circle class="st16" cx="234.9" cy="138.6" r="3.6"/>
			
				<linearGradient id="SVGID_9_" gradientUnits="userSpaceOnUse" x1="1184.1206" y1="1121.401" x2="1208.9741" y2="1121.401" gradientTransform="matrix(1 0 0 1 -935 -1005.37)">
				<stop  offset="0" style="stop-color:#F92468"/>
				<stop  offset="1" style="stop-color:#F93764"/>
			</linearGradient>
			<path class="st17" d="M249.7,116.6c0,0,14.5-3.9,23.9,0.4"/>
		</g>
		<g id="coin">
			
				<linearGradient id="SVGID_10_" gradientUnits="userSpaceOnUse" x1="243.0384" y1="711.8652" x2="270.5443" y2="670.894" gradientTransform="matrix(1 0 0 1 0 -596)">
				<stop  offset="0" style="stop-color:#F92468"/>
				<stop  offset="1" style="stop-color:#F9B449"/>
			</linearGradient>
			<circle class="st18" cx="261.9" cy="87.8" r="14.5"/>
			
				<linearGradient id="SVGID_11_" gradientUnits="userSpaceOnUse" x1="249.412" y1="683.8779" x2="274.0716" y2="683.8779" gradientTransform="matrix(1 0 0 1 0 -596)">
				<stop  offset="0" style="stop-color:#F92468"/>
				<stop  offset="1" style="stop-color:#F93764"/>
			</linearGradient>
			<circle class="st19" cx="261.7" cy="87.9" r="11.8"/>
			<text transform="matrix(1 0 0 1 257.0629 93.3206)" class="st20 st21 st22">$</text>
		</g>
		<g id="coin_copy">
			
				<linearGradient id="SVGID_12_" gradientUnits="userSpaceOnUse" x1="266.2773" y1="675.9142" x2="284.3839" y2="648.9384" gradientTransform="matrix(1 0 0 1 0 -596)">
				<stop  offset="0" style="stop-color:#F92468"/>
				<stop  offset="1" style="stop-color:#F9B449"/>
			</linearGradient>
			<circle class="st23" cx="278.7" cy="61.4" r="9.5"/>
			
				<linearGradient id="SVGID_13_" gradientUnits="userSpaceOnUse" x1="270.3315" y1="657.5032" x2="286.9093" y2="657.5032" gradientTransform="matrix(1 0 0 1 0 -596)">
				<stop  offset="0" style="stop-color:#F92468"/>
				<stop  offset="1" style="stop-color:#F93764"/>
			</linearGradient>
			<circle class="st24" cx="278.6" cy="61.5" r="7.8"/>
			<text transform="matrix(1 0 0 1 275.5317 65.0843)" class="st20 st21 st25">$</text>
		</g>
		<g id="coin_copy_2">
			
				<linearGradient id="SVGID_14_" gradientUnits="userSpaceOnUse" x1="235.751" y1="676.969" x2="248.712" y2="657.6663" gradientTransform="matrix(1 0 0 1 0 -596)">
				<stop  offset="0" style="stop-color:#F92468"/>
				<stop  offset="1" style="stop-color:#F9B449"/>
			</linearGradient>
			<circle class="st26" cx="244.6" cy="67.8" r="6.8"/>
			
				<linearGradient id="SVGID_15_" gradientUnits="userSpaceOnUse" x1="238.5185" y1="663.7736" x2="250.6639" y2="663.7736" gradientTransform="matrix(1 0 0 1 0 -596)">
				<stop  offset="0" style="stop-color:#F92468"/>
				<stop  offset="1" style="stop-color:#F93764"/>
			</linearGradient>
			<circle class="st27" cx="244.6" cy="67.8" r="5.6"/>
			<text transform="matrix(1 0 0 1 242.3876 70.3665)" class="st20 st21 st28">$</text>
		</g>
	</g>
	<g id="bag">
		<title>Bag</title>
		
			<linearGradient id="SVGID_16_" gradientUnits="userSpaceOnUse" x1="1869.2625" y1="-1439.5394" x2="1963.9618" y2="-1483.4017" gradientTransform="matrix(1 0 0 -1 -1511.98 -1203.5601)">
			<stop  offset="0" style="stop-color:#F71F68"/>
			<stop  offset="1" style="stop-color:#F9C448"/>
		</linearGradient>
		<path class="st29" d="M385.6,235.5c0,0-12.3,44.8-10.3,49.8c2,5,12,6,16.5,7c4.4,1,44.8,11.6,48.9,11.8c4.1,0.2,3.8,0.8,5.6,0.8
			s24.3-7.6,25-10.2c0.8-2.7,1.4-4.4,0.8-7.8s-10.9-46.1-13.7-46.9C455.6,239,385.6,235.5,385.6,235.5z"/>
		
			<linearGradient id="SVGID_17_" gradientUnits="userSpaceOnUse" x1="1883.9116" y1="-1427.9175" x2="1946.8516" y2="-1457.0737" gradientTransform="matrix(1 0 0 -1 -1511.98 -1203.5601)">
			<stop  offset="0" style="stop-color:#F9B449"/>
			<stop  offset="1" style="stop-color:#F92468"/>
		</linearGradient>
		<path class="st30" d="M383.5,243.5c0,0,0.9-7,2.1-8c1.2-1,4.7-5.6,8-5.8c3.3-0.2,57.1,6.6,59.1,7c2,0.4,4.7,1.4,5.6,3.1
			c0.9,1.7-7.8,3.7-9.5,9c-1.7,5.3-32.4,16.6-39.9,17.4C401.3,267,383.5,243.5,383.5,243.5z"/>
		<linearGradient id="SVGID_18_" gradientUnits="userSpaceOnUse" x1="400.5993" y1="223.9953" x2="432.2041" y2="223.9953">
			<stop  offset="1.281415e-03" style="stop-color:#F92468"/>
			<stop  offset="1" style="stop-color:#F93764"/>
		</linearGradient>
		<path class="st31" d="M401.1,231.5c0,0,5.8-12.6,8.6-14.9c2.4-2.1,11.2-6.7,16.6,0.1c6,7.7,5.5,16.6,5.5,17.7
			c0,1.1-5.9,0.1-5.9,0.1s1.9-9.1,0.2-12.2c-1.6-2.9-2.4-6.3-8-6s-7.6,3.4-9.2,6.3c-1.4,2.9-2.6,5.9-3.6,9
			C405,231.9,401.1,231.5,401.1,231.5z"/>
		<linearGradient id="SVGID_19_" gradientUnits="userSpaceOnUse" x1="410.3323" y1="223.1372" x2="440.9148" y2="223.1372">
			<stop  offset="1.281415e-03" style="stop-color:#F92468"/>
			<stop  offset="1" style="stop-color:#F93764"/>
		</linearGradient>
		<path class="st32" d="M410.3,232.3c0,0,5.8-15.4,8.6-18.2c2.4-2.6,11.8-7.7,17.1,0.6c6,9.3,4.8,19.8,4.8,21c0,1.2-5.9,0.2-5.9,0.2
			s1.8-11.1,0.1-15c-1.6-3.6-2.4-7.8-7.9-7.3s-7.6,4.1-9.2,7.8c-1.4,3.6-2.6,7.2-3.6,11C414.3,232.8,410.3,232.3,410.3,232.3z"/>
		<linearGradient id="SVGID_20_" gradientUnits="userSpaceOnUse" x1="441.9759" y1="276.8606" x2="448.8216" y2="276.8606">
			<stop  offset="1.281415e-03" style="stop-color:#F92468"/>
			<stop  offset="1" style="stop-color:#F93764"/>
		</linearGradient>
		<path class="st33" d="M446.5,251.9c0,0-5.1,43.1-4.4,45.9c0.7,2.9,2.3,7,3.6,7c1.2,0,3.2-0.2,2.4-1.2c-2.6-3.7-3.7-8.2-3-12.6
			c0.8-7,3.8-42.3,3.8-42.3L446.5,251.9z"/>
		<circle class="st34" cx="407.6" cy="266.2" r="3.1"/>
	</g>
</g>
</svg>
