<?xml version="1.0" encoding="utf-8"?>
<!-- Generator: Adobe Illustrator 23.0.3, SVG Export Plug-In . SVG Version: 6.00 Build 0)  -->
<svg version="1.1" id="Layer_1" xmlns="http://www.w3.org/2000/svg" xmlns:xlink="http://www.w3.org/1999/xlink" x="0px" y="0px"
	 viewBox="0 0 660.3 376.1" style="enable-background:new 0 0 660.3 376.1;" xml:space="preserve">
<style type="text/css">
	.st0{fill:#E9EDFB;}
	.st1{fill:#E1E6FB;}
	.st2{fill:#BAC5F4;}
	.st3{fill:#FFFFFF;}
	.st4{fill:#F5F5FC;}
	.st5{fill:#4B44BE;}
	.st6{fill:url(#SVGID_1_);}
	.st7{fill:url(#SVGID_2_);}
	.st8{fill:url(#SVGID_3_);}
	.st9{fill:url(#SVGID_4_);}
	.st10{opacity:7.000000e-02;}
	.st11{clip-path:url(#SVGID_6_);}
	.st12{clip-path:url(#SVGID_8_);}
	.st13{opacity:7.000000e-02;enable-background:new    ;}
	.st14{fill:#E1E6FC;}
	.st15{fill:url(#SVGID_9_);}
	.st16{fill:url(#SVGID_10_);}
	.st17{fill:url(#SVGID_11_);}
	.st18{fill:url(#SVGID_12_);}
	.st19{fill:url(#SVGID_13_);}
	.st20{fill:url(#SVGID_14_);}
	.st21{fill:#7A5BF5;}
</style>
<title>bg3</title>
<g>
	<path class="st0" d="M655.9,118.2c0,0,36.9,128.2-102.3,195.9c-32.9,16-105.4-17.6-164.4-14.3C277.6,306.1,193,344.1,138,321.6
		c-61.5-25.1-84.2-49.5-93.5-66.6c-2.4-4.5-5.8-9.1-8.3-13.4C20.2,215.2-30,116.8,26.5,52.3C74.6-2.7,169.2-2.5,216.4,1.6
		c16.9,1.5,33.3,6.1,48.5,13.7c29.7,14.8,83.8,40.9,106.7,46.7c43.1,10.9,49.7,9,130-25.3S639.9,4,655.9,118.2z"/>
</g>
<g id="Layer_3">
	<path class="st1" d="M78.4,213.3c0,0,60-116.3,129-118.4s68,76.7,87.7,88.8s40.6,8.8,55.9-17.5s32.8-75.2,65.7-73
		s70.3,104.8,90,104.8s56-78.3,88.5-77.1c33.6,1.2,56.7,92.7,56.7,92.7l-51.9-0.2L78.4,213.3z"/>
</g>
<g id="Layer_5">
	<g id="Layer_4">
		<path class="st2" d="M17,213.2l199.2,2.5c0,0,16.6-1,33.6-14c12.9-9.9,17.4-17,17.4-24s-6.5-43-70-50L2.8,124.1
			c0,0-1.7,6-2.6,17.9c-0.3,5.5-0.2,11.1,0.4,16.6c0.7,6.4,1.7,12.8,3,19.1C7.3,194.5,12.3,205.5,17,213.2z"/>
		<ellipse class="st3" cx="193.6" cy="154.3" rx="38.5" ry="10.5"/>
		<circle class="st3" cx="40.6" cy="170.3" r="10.5"/>
		<circle class="st3" cx="71.1" cy="170.8" r="11"/>
		<circle class="st3" cx="71.1" cy="170.8" r="11"/>
		<circle class="st3" cx="103.1" cy="170.8" r="11"/>
		<circle class="st3" cx="353.1" cy="118.3" r="15.9"/>
		<circle class="st3" cx="336.1" cy="119.5" r="12.7"/>
		<circle class="st3" cx="542.4" cy="82.5" r="18.4"/>
		<circle class="st3" cx="562.1" cy="84.4" r="11.2"/>
		<circle class="st3" cx="523.3" cy="86.3" r="11.2"/>
		<circle class="st3" cx="134.1" cy="170.8" r="11"/>
		<path class="st4" d="M21.4,223.8l628.9,0.5c0,0-21.6,66.2-36.7,78.9s13.9,73.8-97.6,34.4s-173.1,1.2-205.7,6.4
			S191.9,391,157,370.6s-18.6-44.6-83.7-45.8s-61.6-66.2-61.6-66.2L21.4,223.8"/>
	</g>
	<polygon class="st3" points="650.3,224.2 21.4,223.8 16.6,213.2 653,213.4 	"/>
	<polygon class="st3" points="110.8,214.5 104.9,214.5 104.8,8.2 110.8,6.9 	"/>
	<polygon class="st3" points="281.4,216.8 275.5,216.8 275.5,20.5 281.3,23.3 	"/>
	<polygon class="st3" points="448.5,219.2 442.6,219.2 442.6,60.5 448.5,58.5 	"/>
	<polygon class="st3" points="607.1,216.8 601.2,216.8 601.2,21 607.2,23.4 	"/>
</g>
<g id="Layer_6">
	<polygon class="st2" points="418.4,276.5 433.1,276.5 433.1,265.3 576.3,265.3 576.3,277.1 589.2,277.1 589.2,247 418.4,247.6 	"/>
	<polygon class="st2" points="418.8,242.4 589.3,242 589.3,234.7 418.4,235.1 	"/>
	<polygon class="st2" points="418.4,231.6 588.9,231.2 588.9,224 418,224.3 	"/>
	<polygon class="st2" points="418.8,220.5 589.3,220.1 589.3,212.8 418.4,213.2 	"/>
	<polygon class="st2" points="418.8,209 589.3,208.6 589.3,201.4 418.4,201.7 	"/>
</g>
<g id="map">
	<g>
		<path class="st5" d="M87.3,323h-1.2l-8.3,0.1c0,0-1.8,8.1-2.6,11.5c-0.1,0.2-0.2,0.8-0.3,1.2c-0.2,0.6-0.2,1.2-0.2,1.8
			c0.2,3,1.4,5.7,4.1,7.1c3,1.5,5.4,3,8.5,0c3.1-3,3.6-4.8,2.4-9.9C88.5,329.6,88.1,323.1,87.3,323z"/>
		<path class="st5" d="M120.4,333.2c-5.4-1.8-9.1-9.1-9.1-9.1l-9.3-0.6c0,0-0.5,7.5-0.7,11.3c-0.3,5,0.6,7.4,3.8,7.1
			c4.4-0.4,22.3,1.3,25.1-0.6C133.9,339,125.5,334.8,120.4,333.2z"/>
	</g>
	
		<linearGradient id="SVGID_1_" gradientUnits="userSpaceOnUse" x1="62.9808" y1="-524.1288" x2="122.0808" y2="-524.1288" gradientTransform="matrix(1 0 0 -1 0 -268)">
		<stop  offset="0" style="stop-color:#5ACEED"/>
		<stop  offset="1" style="stop-color:#4F68CA"/>
	</linearGradient>
	<path class="st6" d="M122,252.6c0.4,3.8-2.4,23.6-2.4,27.4s-8.3,44.1-8.3,44.1l-9.5-0.3c0,0,2.2-59.5,1.9-62.4
		c-0.2-2.9-12.2-37.4-12.2-37.4s-0.9,9.1-0.9,12s-3.2,87-3.2,87h-9.5L64.3,198.8L63,188.2l51.5,1.3
		C114.5,189.5,121.6,248.8,122,252.6"/>
	
		<linearGradient id="SVGID_2_" gradientUnits="userSpaceOnUse" x1="52.3226" y1="562.5527" x2="135.2641" y2="562.5527" gradientTransform="matrix(1 0 0 1 0 -438)">
		<stop  offset="0" style="stop-color:#F87B58"/>
		<stop  offset="0" style="stop-color:#F87B58"/>
		<stop  offset="0.41" style="stop-color:#F89453"/>
		<stop  offset="0.71" style="stop-color:#F8C548"/>
		<stop  offset="1" style="stop-color:#F89C51"/>
	</linearGradient>
	<path class="st7" d="M128.4,164.1l-4.3,3.7l1.4,5.8l1.8,2.6c-0.2,0.2-0.6-1.3,1.4-0.2l3.8-0.2l2.9-3.8c0,0-1.5-17.4-8.3-29.5
		L128.4,164.1z M123.1,141.1l-0.4-2.4l-1-0.2L123.1,141.1 M86.8,77c2.4-1,11.7-5.4,13.1-4.5c2.1,1.8,3.6,4.1,4.2,6.7
		c0.4,1.8,1.8,4.1,2.1,3.8c1-1,0.8,2.9,0.8,4.1c-0.3,1.7-1,3.4-2.2,4.6c-0.8,0.6-1.6,2.8-2,4.5c-0.4,1.8-1.2,5.5-0.5,7.1
		c0.8,1.8,10.6,19.6,19.3,35.3l-49-8.8l-15.5,32.7l7,5.6l-2,6.7l-1.3,0.2c0,0-1.1,2.6-2.3,1.4c-1-1-2.4-0.5-3-0.2
		c-0.2,0.1-0.4,0.1-0.6,0.1l-1.6-0.3l-1-8.8l15.1-46.4c0,0,18.1-16.3,19.2-16.9c1-0.6,1.4-5,0.4-7.1c-1-2.1-2.2-4.1-3.4-6.1
		c-0.8-1.2-1.8-5.8-1.8-7.8s1.2-1.3,1.2-1.3s1.1-3.9,3.5-5c0.9-0.6,13.4-4.1,13.4-4.1"/>
	
		<linearGradient id="SVGID_3_" gradientUnits="userSpaceOnUse" x1="44.8369" y1="-420.9604" x2="139.4431" y2="-420.9604" gradientTransform="matrix(1 0 0 -1 0 -268)">
		<stop  offset="0" style="stop-color:#E1A1ED"/>
		<stop  offset="1" style="stop-color:#7658F4"/>
	</linearGradient>
	<path class="st8" d="M67.5,110.8c-2.4,1.6-4.6,3.8-5.4,6.6c-0.8,2.8-14.4,29-15.1,30.9c-0.6,1.9-3.2,9.5-1.8,17.6
		c1.4,8.2,7.6,10.1,8.7,10.1c0.6,0-0.5-4.2-0.7-7.1c-0.1-1,0.8-3.6,1-4.6c0.4-1.5,1.7-1.1,1.7-2.5c0-2.6,6.4-11.5,8.8-16.4
		c2.4-5,6.9-5.8,7.7-8c0.8-2.2-6.7,44.6-6.7,44.6s-0.2,8.2,1.4,9c1.4,0.7,18.7,7.3,22.7,8.8c0.4,0.2,0.9-0.1,1.1-0.5l0,0l2.6-7.3
		c0-0.1,0.1-0.2,0.2-0.1c0.1,0,0.1,0.1,0.1,0.1l2.4,7.9c0.1,0.4,0.6,0.6,1,0.6l21.2-4.6c0,0-0.3-39.2,0.1-45.8
		c0.3-6.4-0.5-10,0.7-8.3c1.3,1.9,11.9,12.4,11.9,15.4c-0.1,1.7,0.7,3.2,2.1,4.2l-0.6,14.4c0,0,6-6.7,6.6-10.4
		c0.6-3.8,0.8-5.8-1-9.5c-1.8-3.8-11.5-38-11.5-38s-1-4.2-8.2-6.3c-7.2-2.2-12.6-5.4-13.9-5.3c-1.3,0.1-5.3,7.6-7.1,9.8
		c-0.8,1-0.6,1.4-1.7,2.9c-0.6,0.7-1.6,0.9-2.3,0.3c-0.2-0.2-0.3-0.2-0.4-0.5c-0.6-0.9-1-1.8-1.5-2.6c-0.8-1.6-7-10.7-7-10.7
		S69.9,109.2,67.5,110.8"/>
	
		<linearGradient id="SVGID_4_" gradientUnits="userSpaceOnUse" x1="79.7332" y1="511.735" x2="107.4473" y2="511.735" gradientTransform="matrix(1 0 0 1 0 -438)">
		<stop  offset="0" style="stop-color:#5ACEED"/>
		<stop  offset="1" style="stop-color:#4F68CA"/>
	</linearGradient>
	<path class="st9" d="M99.8,72.5c0,0-12.4,4.2-14.7,6.2c-1.4,1.3-2.2,2.9-2.2,2.9s-1.2-0.5-1.2,1.3c0,0-0.5-1.2-0.9-1.9
		s-1.9-4.6-0.5-7.6s3.2-4.8,3.9-5.3c0.7-0.5,4.9-4.1,9-3.9c4.1,0.2,6.7,3,7.5,3.6c0.8,0.6,2.2,1.8,3.2,2.1c1,0.3,3.4,3.5,3.5,5.9
		c0.2,2.4-0.7,7.6-0.7,7.6s-0.1-0.7-0.6-0.3c-0.5,0.4-1.8-2.2-2.2-4C103.5,77.2,99.8,72.5,99.8,72.5z"/>
	<g class="st10">
		<g>
			<g>
				<g>
					<g>
						<g>
							<defs>
								<rect id="SVGID_5_" x="95.3" y="96.8" width="9.1" height="14.4"/>
							</defs>
							<clipPath id="SVGID_6_">
								<use xlink:href="#SVGID_5_"  style="overflow:visible;"/>
							</clipPath>
							<g class="st11">
								<path d="M103.9,106.4c-0.1-0.2,1.4,0.9-0.3-0.4c-2.5-1.8-1.4-9.3-1.4-9.3c-0.9,1.9-2.5,3.4-4.5,4.2
									c-3.2,1.2-4.2,0.3,0.7,3.1c4.9,2.8,2.3,3.8,2,7.5"/>
							</g>
						</g>
					</g>
				</g>
			</g>
		</g>
	</g>
	<g class="st10">
		<g>
			<g>
				<g>
					<g>
						<g>
							<defs>
								<rect id="SVGID_7_" x="66.1" y="132.2" width="16.8" height="62.5"/>
							</defs>
							<clipPath id="SVGID_8_">
								<use xlink:href="#SVGID_7_"  style="overflow:visible;"/>
							</clipPath>
							<g class="st12">
								<path d="M72.4,141.8l-6.7,40.9c0,0,0.1,7.3,1.4,8.3c1.3,1,5.6,1.8,6.6,2.5c1,0.7,11.4,4.2,8.7-1.7
									c-0.6-1.3-14.7-9.1-8.3-17.4c6.3-8.3,5.1-19.6,2.2-27.6c-1.8-4.6-2.6-9.6-2.4-14.6L72.4,141.8z"/>
							</g>
						</g>
					</g>
				</g>
			</g>
		</g>
	</g>
	<path class="st13" d="M83.7,196.8c0,0-5.7,30.3-2.7,42.4c4.5,18.4-2,43.2-2,55.1c0,7.7,3,29.2,3.2,37.8c0.1,2.6,1.9,7.7,0.6,8.9
		c-0.6,0.5-4.2-0.6-6.3-1.6c-1-0.5-1.7-1.6-1.5-2.7l1.2-5.2l1.7-6.8L66.1,213.9c0,0-3.8-24.7-1.7-24.8
		C66.6,189.1,83.7,196.8,83.7,196.8z"/>
	<polygon class="st3" points="73.3,141.1 91.7,135.4 92.6,187.5 75.7,193.9 	"/>
	<polygon class="st3" points="91.7,135.4 113.4,141.9 113.4,193.1 92.6,187.5 	"/>
	<path class="st14" d="M113.4,141.9l20.8-6.4l-2.9,27.1l-5.1,3.8c-0.6,0.4-0.9,1-1,1.6l-0.2,1c-0.1,0.5,0,1,0.2,1.4l0.9,2.2
		c0.3,0.7,0.8,1.4,1.5,1.8l3,1.6l-0.2,11l-17.1,6.3V141.9z"/>
	<path class="st14" d="M73.3,141.1l-20.2-6.3l2.8,27.5l5,3.8c0.5,0.4,0.9,1,1,1.6l0.2,1c0.1,0.5,0,1-0.2,1.4l-0.8,2.2
		c-0.3,0.7-0.8,1.4-1.5,1.8l-2.9,1.6l0.2,11.6l18.8,6.6L73.3,141.1z"/>
	<polygon class="st14" points="91.3,135.6 91.7,135.4 92.1,135.5 93,187.7 92.6,187.5 92,187.7 	"/>
</g>
<g id="Boy">
	<title>Boy</title>
	<g>
		<path class="st5" d="M220.3,341.2c-2.9-0.2-6.3-3.5-6.3-3.5l-6.6-0.9c0,0-2,6.2,0.2,7.5c2.2,1.3,15.4,1.7,15.4,0
			C223.1,342.7,222.8,341.3,220.3,341.2z"/>
		<path class="st5" d="M175.4,341c-2.6-1.4-4-6-4-6l-5.5-3.7c0,0-4.7,4.7-3.2,6.8c1.4,2.1,13,8.5,13.8,7
			C177.2,343.5,177.6,342.3,175.4,341z"/>
	</g>
	
		<linearGradient id="SVGID_9_" gradientUnits="userSpaceOnUse" x1="1070.5476" y1="1799.1567" x2="1174.8123" y2="1799.1567" gradientTransform="matrix(1 0 0 1 -911.63 -1552.6599)">
		<stop  offset="0" style="stop-color:#F87B58"/>
		<stop  offset="0.5" style="stop-color:#F8C548"/>
		<stop  offset="1" style="stop-color:#F89C51"/>
	</linearGradient>
	<path class="st15" d="M185.3,164c0,0,6.3-13.4,16.5-6.4c10.2,7,10.4,16.1,7.3,20.5c-3.6,5.2-2.7,9.4-2,11.1c0.2,0.5,0.5,0.9,1,1.1
		l17.2,9.7l6.9,6.5l16.5-20.8c0,0,2.7-3.8,7.5-3.8c4.8,0,7,1.6,7,1.6s0.5,2.1-5.4,3.8l-5.9,1.6l-15,26.8c0,0-4.5,1.9-9.2-2.1
		c-4.2-3.5-8.1-7.2-11.7-11.3l-0.5,62.2l1.8,17.8l-0.8,10.5c0.1,1-0.4,11.4-0.4,12.3l-1.2,16.1l-1.4,16.3l-6-0.8l-1-11.8l-2.4-42.4
		l-0.3-38.3l-10.4,24l0.4,14l-8.6,26.6c-0.4,1.1-0.8,2.2-1.3,3.2l-12.3,23.2l-5.8-3.6l6.6-16.7c0.7-1.4,4.1-12.5,4.6-14.1l4.4-20.8
		l19.1-72.8l-9.6,4.9c0,0-7,15.7-8.1,17.3s-13.9,17.8-14.4,19.9c-0.5,2.1-2.6,6.3-5.3,7.3c-2.7,1.1-7.5,2.8-0.5-7.3
		c5.5-8,9-13.9,10.2-16.1c0.3-0.6,0.6-1.2,0.9-1.8l7.2-18.2l11.5-18.5l1.6-1.1l3.3-2.6c0.4-0.3,0.6-0.9,0.6-1.4
		c-0.4-2.5-1.7-4.7-3.6-6.2C190.5,180.4,182.8,174.7,185.3,164z"/>
	
		<linearGradient id="SVGID_10_" gradientUnits="userSpaceOnUse" x1="181.1263" y1="1404.1565" x2="218.6624" y2="1404.1565" gradientTransform="matrix(1 0 0 1 0 -1144)">
		<stop  offset="0" style="stop-color:#4F68CA"/>
		<stop  offset="1" style="stop-color:#5ACEED"/>
	</linearGradient>
	<polygon class="st16" points="187.6,245.1 181.1,280 194,282.7 202,253.7 204,282.6 217.4,282.6 218.7,237.6 	"/>
	
		<linearGradient id="SVGID_11_" gradientUnits="userSpaceOnUse" x1="1092.2737" y1="1770.1459" x2="1138.604" y2="1770.1459" gradientTransform="matrix(1 0 0 1 -911.63 -1552.6599)">
		<stop  offset="0" style="stop-color:#7658F4"/>
		<stop  offset="1" style="stop-color:#E1A1ED"/>
	</linearGradient>
	<path class="st17" d="M180.6,213.6c0,0,4.1-14.9,12.4-19.8c0.9-0.5,2.4-2,2.5-1.1c0.2,1.6,1.1,5.4,4.8,5.4c5.9,0,7.6-4.9,7.6-7.6
		c0-0.8,3.3-0.6,6.2-0.2c2.7,0.4,5.5,1.6,7.3,3.6l5.5,7.7l-5.1,5.6l-1.6,0.9l-1.6,29.7c0,0-11.9,5.5-22.5,7
		c-2.8,0.3-5.7,0.5-8.6,0.5l2.1-30.6L180.6,213.6z"/>
	
		<linearGradient id="SVGID_12_" gradientUnits="userSpaceOnUse" x1="1096.2596" y1="1720.1676" x2="1122.0347" y2="1720.1676" gradientTransform="matrix(1 0 0 1 -911.63 -1552.6599)">
		<stop  offset="0" style="stop-color:#4F68CA"/>
		<stop  offset="1" style="stop-color:#5ACEED"/>
	</linearGradient>
	<path class="st18" d="M189,173.4c1.9-2.3,3.9-4.3,6.1-6.3c3.1-2.6,4.7-4.1,4.7-4.1s4.2,3.1,6,3.7c1.7,0.6,4.3,1.7,4.3,1.7
		s1.4-4.8-2.1-5.4s-14.4-4.5-16.6-2.8c-2.3,1.7-6.1,6.6-6.6,9c-0.5,2.4,0.8,5.4,1.7,6c0.5,0.3-0.9-2.4-0.1-2.9
		C186.8,171.8,189,173.4,189,173.4z"/>
	<path class="st5" d="M184.7,169.2l33.6-7.9c0,0,0.6-1.6-0.6-1.6c-1.2-0.1-8.9,2.5-8.9,2.5s-3.3-9.8-14.2-9.5c0,0,0.4-1-0.2-1
		c-0.6-0.1-3.4,0.7-3.6,0.9s0.4,0.9,0.1,1.1C190.7,154,181.3,158.5,184.7,169.2z"/>
	<path class="st13" d="M208.2,179.2c0,0-2.2,2.7-4,3.3c-1.8,0.6-0.8,0.6,0,2.8c0.4,1.2,0.9,2.3,1.6,3.3
		C205.8,188.6,206.8,180,208.2,179.2z"/>
	<path class="st13" d="M191,153.8c0,0,1.5,1.4,0.5,5.3s-1.3,5-0.5,6.4c0.8,1.4,0.2,2.3,0.2,2.3l-6.6,1.6
		C184.8,169.2,180.6,159.6,191,153.8z"/>
	<path class="st13" d="M189.7,214.6c0,0,2.1-3,2.3-5.7c0.2-2.7-1,5.4,0.4,10.3c1.3,4.9-0.2,9.1,2.5,10.8c2.7,1.7,0.6,7.6,1.2,10.1
		c0.4,1.5,1.4,2.7,2.9,3.3c0,0-0.4,1.3-5,1.6c-4.7,0.2-6.4,0.2-6.4,0.2L189.7,214.6z"/>
</g>
<g id="bag">
	<title>Bag</title>
	
		<linearGradient id="SVGID_13_" gradientUnits="userSpaceOnUse" x1="1967.1532" y1="-1386.4946" x2="2028.3865" y2="-1414.8563" gradientTransform="matrix(-0.9051 0 0 -1 2079.8884 -1187.5601)">
		<stop  offset="0" style="stop-color:#7A5BF5"/>
		<stop  offset="1" style="stop-color:#CD94EF"/>
	</linearGradient>
	<path class="st19" d="M282.9,198.6c0,0,7.2,29,6.1,32.2s-7,3.9-9.6,4.5s-26.2,7.5-28.6,7.6s-2.2,0.5-3.3,0.5s-14.2-4.9-14.6-6.6
		s-0.8-2.9-0.5-5c0.4-2.2,6.4-29.8,8-30.4C241.9,200.9,282.9,198.6,282.9,198.6z"/>
	
		<linearGradient id="SVGID_14_" gradientUnits="userSpaceOnUse" x1="1976.6254" y1="-1378.9797" x2="2017.3229" y2="-1397.8324" gradientTransform="matrix(-0.9051 0 0 -1 2079.8884 -1187.5601)">
		<stop  offset="0" style="stop-color:#7A5BF5"/>
		<stop  offset="1" style="stop-color:#E5A4ED"/>
	</linearGradient>
	<path class="st20" d="M284.1,203.8c0,0-0.5-4.5-1.2-5.2c-0.7-0.6-2.7-3.6-4.7-3.7s-33.4,4.2-34.6,4.5c-1.2,0.3-2.7,0.9-3.3,2
		c-0.5,1.1,4.6,2.4,5.5,5.8s18.9,10.7,23.4,11.2C273.7,219,284.1,203.8,284.1,203.8z"/>
	<path class="st21" d="M273.8,196c0,0-3.4-8.1-5-9.6c-1.4-1.4-6.6-4.3-9.7,0.1c-3.5,5-3.2,10.7-3.2,11.4c0,0.7,3.5,0.1,3.5,0.1
		s-1.1-5.9-0.1-7.9c0.9-1.9,1.4-4.1,4.7-3.9c3.3,0.2,4.4,2.2,5.4,4.1c0.8,1.9,1.5,3.8,2.1,5.8C271.6,196.3,273.8,196,273.8,196z"/>
	<path class="st21" d="M268.4,196.5c0,0-3.4-9.9-5-11.8c-1.4-1.7-6.9-5-10,0.4c-3.5,6-2.8,12.8-2.8,13.6c0,0.8,3.5,0.1,3.5,0.1
		s-1-7.2-0.1-9.7c0.9-2.3,1.4-5,4.6-4.7s4.4,2.7,5.4,5c0.8,2.3,1.5,4.7,2.1,7.1C266.1,196.9,268.4,196.5,268.4,196.5z"/>
	<path class="st21" d="M247.3,209.3c0,0,3,27.8,2.6,29.7c-0.4,1.9-1.4,4.5-2.1,4.5s-1.9-0.1-1.4-0.8c1.5-2.4,2.1-5.3,1.8-8.1
		c-0.5-4.5-2.2-27.3-2.2-27.3L247.3,209.3z"/>
	<ellipse class="st3" cx="270.1" cy="218.5" rx="1.8" ry="2"/>
</g>
</svg>
