<?xml version="1.0" encoding="utf-8"?>
<!-- Generator: Adobe Illustrator 23.0.3, SVG Export Plug-In . SVG Version: 6.00 Build 0)  -->
<svg version="1.1" id="Layer_1" xmlns="http://www.w3.org/2000/svg" xmlns:xlink="http://www.w3.org/1999/xlink" x="0px" y="0px"
	 viewBox="0 0 660.3 376.1" style="enable-background:new 0 0 660.3 376.1;" xml:space="preserve">
<style type="text/css">
	.st0{fill:#E9EDFB;}
	.st1{fill:#E1E6FB;}
	.st2{fill:#BAC5F4;}
	.st3{fill:#FFFFFF;}
	.st4{fill:#F5F5FC;}
	.st5{fill:url(#SVGID_1_);}
	.st6{fill:url(#SVGID_2_);}
	.st7{fill:#7A5BF5;}
	.st8{fill:#4B44BE;}
	.st9{fill:url(#SVGID_3_);}
	.st10{fill:url(#SVGID_4_);}
	.st11{fill:url(#SVGID_5_);}
	.st12{fill:url(#_Path__1_);}
	.st13{opacity:7.000000e-02;enable-background:new    ;}
	.st14{fill:#EFEFEF;}
	.st15{fill:url(#SVGID_6_);}
	.st16{fill:url(#SVGID_7_);}
	.st17{fill:url(#SVGID_8_);}
</style>
<title>bg3</title>
<g>
	<path class="st0" d="M655.9,118.2c0,0,36.9,128.2-102.3,195.9c-32.9,16-105.4-17.6-164.4-14.3C277.6,306.1,193,344.1,138,321.6
		c-61.5-25.1-84.2-49.5-93.5-66.6c-2.4-4.5-5.8-9.1-8.3-13.4C20.2,215.2-30,116.8,26.5,52.3C74.6-2.7,169.2-2.5,216.4,1.6
		c16.9,1.5,33.3,6.1,48.5,13.7c29.7,14.8,83.8,40.9,106.7,46.7c43.1,10.9,49.7,9,130-25.3S639.9,4,655.9,118.2z"/>
</g>
<g id="Layer_3">
	<path class="st1" d="M78.4,213.3c0,0,60-116.3,129-118.4s68,76.7,87.7,88.8s40.6,8.8,55.9-17.5s32.8-75.2,65.7-73
		s70.3,104.8,90,104.8s56-78.3,88.5-77.1c33.6,1.2,56.7,92.7,56.7,92.7l-51.9-0.2L78.4,213.3z"/>
</g>
<g id="Layer_5">
	<g id="Layer_4">
		<path class="st2" d="M17,213.2l199.2,2.5c0,0,16.6-1,33.6-14c12.9-9.9,17.4-17,17.4-24s-6.5-43-70-50L2.8,124.1
			c0,0-1.7,6-2.6,17.9c-0.3,5.5-0.2,11.1,0.4,16.6c0.7,6.4,1.7,12.8,3,19.1C7.3,194.5,12.3,205.5,17,213.2z"/>
		<ellipse class="st3" cx="193.6" cy="154.3" rx="38.5" ry="10.5"/>
		<circle class="st3" cx="40.6" cy="170.3" r="10.5"/>
		<circle class="st3" cx="71.1" cy="170.8" r="11"/>
		<circle class="st3" cx="71.1" cy="170.8" r="11"/>
		<circle class="st3" cx="103.1" cy="170.8" r="11"/>
		<circle class="st3" cx="353.1" cy="118.3" r="15.9"/>
		<circle class="st3" cx="336.1" cy="119.5" r="12.7"/>
		<circle class="st3" cx="542.4" cy="82.5" r="18.4"/>
		<circle class="st3" cx="562.1" cy="84.4" r="11.2"/>
		<circle class="st3" cx="523.3" cy="86.3" r="11.2"/>
		<circle class="st3" cx="134.1" cy="170.8" r="11"/>
		<path class="st4" d="M21.4,223.8l628.9,0.5c0,0-21.6,66.2-36.7,78.9s13.9,73.8-97.6,34.4s-173.1,1.2-205.7,6.4
			S191.9,391,157,370.6s-18.6-44.6-83.7-45.8s-61.6-66.2-61.6-66.2L21.4,223.8"/>
	</g>
	<polygon class="st3" points="650.3,224.2 21.4,223.8 16.6,213.2 653,213.4 	"/>
	<polygon class="st3" points="110.8,214.5 104.9,214.5 104.8,8.2 110.8,6.9 	"/>
	<polygon class="st3" points="281.4,216.8 275.5,216.8 275.5,20.5 281.3,23.3 	"/>
	<polygon class="st3" points="448.5,219.2 442.6,219.2 442.6,60.5 448.5,58.5 	"/>
	<polygon class="st3" points="607.1,216.8 601.2,216.8 601.2,21 607.2,23.4 	"/>
</g>
<g id="Layer_6">
	<polygon class="st2" points="418.4,276.5 433.1,276.5 433.1,265.3 576.3,265.3 576.3,277.1 589.2,277.1 589.2,247 418.4,247.6 	"/>
	<polygon class="st2" points="418.8,242.4 589.3,242 589.3,234.7 418.4,235.1 	"/>
	<polygon class="st2" points="418.4,231.6 588.9,231.2 588.9,224 418,224.3 	"/>
	<polygon class="st2" points="418.8,220.5 589.3,220.1 589.3,212.8 418.4,213.2 	"/>
	<polygon class="st2" points="418.8,209 589.3,208.6 589.3,201.4 418.4,201.7 	"/>
</g>
<g id="bag">
	<title>Bag</title>
	
		<linearGradient id="SVGID_1_" gradientUnits="userSpaceOnUse" x1="1963.2014" y1="-1385.6646" x2="2024.4348" y2="-1414.0264" gradientTransform="matrix(0.8926 0 0 -1 -1476.9954 -1187.5601)">
		<stop  offset="0" style="stop-color:#7A5BF5"/>
		<stop  offset="1" style="stop-color:#CD94EF"/>
	</linearGradient>
	<path class="st5" d="M291.6,197.8c0,0-7.1,29-6,32.2c1.2,3.2,6.9,3.9,9.5,4.5c2.6,0.6,25.9,7.5,28.2,7.6c2.4,0.1,2.2,0.5,3.2,0.5
		s14-4.9,14.4-6.6s0.8-2.9,0.4-5c-0.4-2.2-6.3-29.8-7.9-30.4S291.6,197.8,291.6,197.8z"/>
	
		<linearGradient id="SVGID_2_" gradientUnits="userSpaceOnUse" x1="1972.6737" y1="-1378.1498" x2="2013.3712" y2="-1397.0024" gradientTransform="matrix(0.8926 0 0 -1 -1476.9954 -1187.5601)">
		<stop  offset="0" style="stop-color:#7A5BF5"/>
		<stop  offset="1" style="stop-color:#E5A4ED"/>
	</linearGradient>
	<path class="st6" d="M290.4,203c0,0,0.5-4.5,1.2-5.2s2.7-3.6,4.6-3.7s32.9,4.2,34.1,4.5c1.2,0.3,2.7,0.9,3.2,2s-4.5,2.4-5.5,5.8
		s-18.7,10.7-23,11.2S290.4,203,290.4,203z"/>
	<path class="st7" d="M300.6,195.2c0,0,3.3-8.1,4.9-9.6c1.4-1.4,6.5-4.3,9.6,0.1c3.5,5,3.1,10.7,3.1,11.4c0,0.7-3.4,0.1-3.4,0.1
		s1.1-5.9,0.1-7.9c-0.9-1.9-1.4-4.1-4.6-3.9c-3.2,0.2-4.4,2.2-5.3,4.1c-0.8,1.9-1.5,3.8-2.1,5.8
		C302.8,195.5,300.6,195.2,300.6,195.2z"/>
	<path class="st7" d="M305.9,195.7c0,0,3.3-9.9,4.9-11.8c1.4-1.7,6.8-5,9.9,0.4c3.5,6,2.8,12.8,2.8,13.6c0,0.8-3.4,0.1-3.4,0.1
		s1-7.2,0.1-9.7c-0.9-2.3-1.4-5-4.6-4.7s-4.4,2.7-5.3,5c-0.8,2.3-1.5,4.7-2.1,7.1C308.2,196.1,305.9,195.7,305.9,195.7z"/>
	<path class="st7" d="M326.8,208.4c0,0-3,27.8-2.6,29.7c0.4,1.9,1.3,4.5,2.1,4.5c0.7,0,1.9-0.1,1.4-0.8c-1.5-2.4-2.1-5.3-1.7-8.1
		c0.4-4.5,2.2-27.3,2.2-27.3L326.8,208.4z"/>
	<ellipse class="st3" cx="304.3" cy="217.6" rx="1.8" ry="2"/>
</g>
<g id="girl">
	<g>
		<path class="st8" d="M524.3,331.7l-7.1,1.6c0,0-1.7,5.6-2.5,8.6c-0.1,0.2-0.2,0.7-0.3,1c-0.1,0.5-0.2,1-0.2,1.6
			c0.2,2.7,1.2,5,3.6,6.2c2.6,1.4,4.7,2.6,7.5,0s3.3-4.2,2.1-8.7C526.1,337.6,524.3,331.7,524.3,331.7z"/>
		<path class="st8" d="M565.7,341c-4.8-1.5-6.9-7.5-6.9-7.5l-9.7-0.5c0,0-0.2,6.1-0.5,9.3c-0.3,4.4,0.5,6.3,3.4,6.1
			c3.9-0.3,19.8,1.1,22.3-0.5C577.6,346,570.2,342.4,565.7,341z"/>
	</g>
	
		<linearGradient id="SVGID_3_" gradientUnits="userSpaceOnUse" x1="1530.2849" y1="1409.1472" x2="1622.3508" y2="1409.7523" gradientTransform="matrix(1 0 0 1 -1048.21 -1144.97)">
		<stop  offset="0" style="stop-color:#4F68CA"/>
		<stop  offset="1" style="stop-color:#5ACEED"/>
	</linearGradient>
	<path class="st9" d="M509.3,195.2c0,0-3.6,5-4.8,18.4c-1.1,13.4,1.4,38.8,2.6,43.8c1.2,4.9,5.9,50.8,7.1,54.2
		c1.2,3.4,2.8,21.7,2.8,21.7l7.7,0.2c0,0,2.3-23.9,2.3-30.2s3.1-66.1,2.9-70.5c-0.2-4.4,0.8-3,0.8-3s6.8,21.5,8.8,25
		c2,3.6,5.6,10.5,5.6,10.5s0.8,22.4,1.8,35.4s2,33.4,2,33.4l10.3-0.2c0,0,2.4-34.1,2.4-41.3c0-7.2,2.2-24.4,2.2-26.4
		c0-2-6.8-37-6.8-37l-4.7-34L509.3,195.2z"/>
	
		<linearGradient id="SVGID_4_" gradientUnits="userSpaceOnUse" x1="1559.7705" y1="1279.4001" x2="1627.7627" y2="1279.4001" gradientTransform="matrix(1 0 0 1 -1048.21 -1144.97)">
		<stop  offset="0" style="stop-color:#F87B58"/>
		<stop  offset="0.5" style="stop-color:#F8C548"/>
		<stop  offset="1" style="stop-color:#F89C51"/>
	</linearGradient>
	<path class="st10" d="M513.6,101.3c0,0,4.5-17.5,8-18.7c13.8-5.1,15.2-13.8,21.1,11s22.2,53.4,29.2,61.9
		c9.6,11.6,8.8,19.1,5.3,19.8c-3.4,0.7-20.8,5.3-22.2,5.7c-1.4,0.4,2.8,12.5-3,10.8c-3.2-0.9-3.5-15.2,0.5-15.9
		c1.7-0.3,21-4.1,20.9-5.2c-0.1-1.1-15-21.8-15-21.8l-9.6-4.5L525,131.5l-11.4-5.7l-1.2-19l-0.8-3.7L513.6,101.3"/>
	
		<linearGradient id="SVGID_5_" gradientUnits="userSpaceOnUse" x1="1543.6018" y1="1300.5884" x2="1631.4181" y2="1300.5884" gradientTransform="matrix(1 0 0 1 -1048.21 -1144.97)">
		<stop  offset="0" style="stop-color:#E1A1ED"/>
		<stop  offset="1" style="stop-color:#7658F4"/>
	</linearGradient>
	<path class="st11" d="M510.5,124.7c0,0,0.1,1.4-3.1,6c-1.9,2.8,3,0.8-1.2,7.9c-6.6,11.2-10.3,23.2-10.8,30.6
		c-0.3,4.6,3.7,3.7,5.4,5.1c0.9,0.8,3.9-0.5,4.6-1.6l1.4-2.4c0.4-0.5,4.1-5.9,4.2-6.6c0.3-2.1,2.4-11,3.1-14.2
		c0.6-2.7,5.3-8.9,9.2-21.6c1.1-3.9,0-5.5,0.3-7.3c0.8-5.8-7.3-5.7-8-3.7c-0.2,0.5-6.3,24.8-6.6,28c-0.1,1.1,2.1,10.7,3.7,13.3
		s3.6,4.5,3.6,6.9s-1.1,11.8-2.8,16c-1.7,4.2-4.2,13.9-4.2,13.9l43.2-0.2c0,0-1.6-18.5-0.9-25c0,0,1.8-20.9,2.9-23
		c1.1-2.1,12.6,16.8,15.6,21.6c1.2,2-15.2,5.5-16.6,7.1c-1.4,1.6,1.4,5.9,1.4,5.9s28.7-3.5,28.5-7.9c-0.2-4.4-16.4-38.1-22.2-44.5
		c-5.8-6.4-7.3-6.2-12.2-4.4s-7.2,3.3-13.7,4.4c-4.8,0.8-9.7-0.1-13.9-2.5C519,125.4,510.5,124.7,510.5,124.7z"/>
	
		<linearGradient id="_Path__1_" gradientUnits="userSpaceOnUse" x1="1552.4221" y1="1260.3202" x2="1609.2188" y2="1260.3202" gradientTransform="matrix(1 0 0 1 -1048.21 -1144.97)">
		<stop  offset="0" style="stop-color:#4B44BE"/>
		<stop  offset="1" style="stop-color:#5BD3EF"/>
	</linearGradient>
	<path id="_Path_" class="st12" d="M504.6,141.4c0.5-0.7,1-1.4,1.4-2.2c0.4-0.7,0.6-1.1,0.8-1.5c2.1-3.6,6.9-11.7,7.7-15.3
		c0.4-1.4,0.8-2.9,1-4.3c0.2-1,0.2-2,0.1-3c-0.3-1.8-4-9.5-3.5-10.2c0.1-0.1,0.5-2.3,1.2-1.6c0.8,0.8,6.1,3.7,6.5,4.3
		c1,1.8,1.8,3.8,2.4,5.8c0.4,1.2,0.7,4.6,0.8,4.9c1.1,2.9-0.2,5-0.1,6.5c0.1,0.5,0.1,2.7,0.3,2.9c0.8,0.5,1.8,1,2.2,0.5
		c0.4-0.5,0.3-2.1,0.3-3.6c0.3-7.8-1.2-15-3-18.8s-6.1-11.2-3.2-15.5c2.9-4.3,9-7.6,9.3-8.7c0.3-1.1,0.4,4.1,3.7,5.9
		s7.8,6.8,7.8,7.8c0,1,1.1,4.6-2,10.7c-3.1,6.1-5.5,13.9-1.2,19.7s15,13.9,15.8,15.8c0.8,1.8,0,10-0.3,14.6
		c-0.3,4.6,8.7-7.8,8.4-13.8c-0.3-6,0.8-8.6-5.3-17.7S545.5,99.8,545.4,96c-0.2-3.8-1.9-14.4-5.6-17.5s-4-5.9-14.2-4.9
		c0,0-8.6,0.3-11,8.7s-2.8,20.2-2.9,22c-0.1,1.9,0.8,13.8-0.3,17.6c-1.1,3.7-6.1,11.7-7.1,14.9"/>
	<path class="st13" d="M521,333.3c0.1,0.2,0.1,0.3,0.1,0.5c0.1,1.2,0,4.2-1.3,6.1c-1.6,2.5,2.2,7.9,2.2,9.3c0,1.4-1.8,2.6-3,2.2
		s-6.4-3.3-4.4-9.6c0.8-2.5,1.3-4.8,1.8-6.2c0.3-0.7,0.5-1.4,0.7-2.1c0.1-0.3,0.1-0.6,0.1-1c-0.1-0.4-0.1-0.9-0.1-1.4
		c-0.3-2.4-10.5-78.2-10.9-81.2c-0.3-2.6-1.8-18.6-1.7-28c-0.1-0.8-0.1-1.6-0.1-2.4c0-0.2,0.1-1.1,0.1-1.5c0.1-0.9,0.1-1.7,0.2-2.6
		c-0.2-0.7-0.1-0.7,0-1.8c0.1-1.1,0-1.8,0.1-2.5c1-6.4,3.4-13.6,4.5-15.7l0.3-1.1c0,0,1.9-8.5,2.8-10.3c0.8-1.6,4.1-17.7,3.8-19.5
		s-3.7-6.3-3.7-6.3l0.5-2.4c0,0,1.1-3.6,2.2-6.6c0.9-2.3,3.6-8.5,4.8-11.1c1.8-4.3,2.7-6,3.1-8.9c0.3-2.2,0.5-1.2,1.5-0.8
		c1.4,0.5,1.5-0.2,1.5-1.5c0.1-4.2-0.1-8.4-0.5-12.6c-0.4-3.3-3.8-8.6-5.3-11.8c-0.9-1.7-1.5-3.5-2.1-5.3c-0.6-2.8-0.6-5.9,2.1-8.6
		c2.3-2.3,9.2-7.1,9.2-7.1s-3.2,6.5-1.9,8.7c2.1,3.4,1.1,7.7,1.1,9.2s-1.7,5.3-0.6,9.1c1.8,6.8-1.3,10.6-0.2,15.2
		c0.7,2.8,1.1,3.7,0.4,6.2c-0.7,2.5-7.7,21.3-3.8,32.3c3.8,11,5.6,18.7-0.5,25.3c-6.2,6.6-0.5,12.5-0.4,17.1
		c0.3,11.5-5.3,10.2-5.6,17.3c-0.3,7.1,1.2,12.3,1.4,16c0.3,12.3,0.1,14.7-0.5,19.5c-0.6,4.8-3.9,13.9-0.3,31.9s3.1,19.6,2.8,29.7
		C520.6,329.3,521,333.3,521,333.3z"/>
	<path class="st14" d="M510.6,97.7c1.5-1,3-1.9,4.6-2.8c2-0.8,2.9,2.2,3.5,3.5c0.5,1.4,3.2,9.7,3.4,10.3c0.1,0.3-0.4,0.2-1.8,1.3
		c-0.2,0.2-0.6,0.1-1-0.9c-0.2-0.5-0.9-1.8-1.7-2.3c-0.3-0.2-5.4-1.9-5.5-1.5c-0.1,0.5,1.2,3.6,1.8,5.3c0.1,0.2,0.9,1.9,0.8,2.3
		c-0.1,0.1,0.1,0,0.1,0s-0.9,0.3-1.2,0s-2.9-8.7-3.8-11.9c-0.2-0.7-0.7-1.7-0.2-2.1L510.6,97.7z"/>
</g>
<g>
	<g>
		<path class="st8" d="M359.1,337.5c0,0-4.1,4.4-7.1,4.6c-2.6,0.1-2.9,1.1-2.9,2.9s11.3,1.4,14.9,0.7c2.6-0.5,0.8-8.1,0.8-8.1
			L359.1,337.5z"/>
		<path class="st8" d="M394.9,336.7l-5.1,0.5c0,0-3.8,4.4-6.8,4.8c-2.6,0.3-3.2,1.5-3.1,3.2s12.8,0.6,15-0.9
			C397.1,342.9,394.9,336.7,394.9,336.7z"/>
	</g>
	
		<linearGradient id="SVGID_6_" gradientUnits="userSpaceOnUse" x1="307.1919" y1="679.4839" x2="399.9238" y2="679.4839" gradientTransform="matrix(1 0 0 1 0 -436)">
		<stop  offset="2.000000e-02" style="stop-color:#F87B58"/>
		<stop  offset="0.51" style="stop-color:#F8C548"/>
		<stop  offset="1" style="stop-color:#F89C51"/>
	</linearGradient>
	<path class="st15" d="M384.7,160.3c-1,11.4-2,11.2-5.2,15.1c-1.6,2-4.2,4.4-4.4,6.9c-0.1,0.6,0.2,1.1,0.6,1.5l3.4,2.7l1.4,1.1
		c0.1,0.1,0.2,0.2,0.3,0.3l11.7,19.2l0.1,0.1l7.3,13.9c0.5,0.8-0.2,3.5-0.9,4.2c-3.5,3.7-11.5,7.7-10.4,11.4
		c3.9,12.3,0.7,9.4-1.5,7.4c-1.2-1.1-2.8-6.1-3.3-8.4c-0.6-2.3,10.1-13,9-14.6c-1-1.6-9-13-10.2-14.8c-0.1-0.2-0.2-0.3-0.5-0.4
		l-7.5-3.9c-0.6-0.3-1.3-0.1-1.6,0.5c-0.1,0.2-0.2,0.5-0.1,0.7l11.5,66.6v0.1l2,17.8c0,0,0,0.1,0,0.1c0.1,2.1,1,12.3,1.2,14.3
		c0.6,4.1,1.5,6,2.3,9.8l4.7,23.5c0.1,0.7,0.7,2.4,0,2.5l-3.9,0.1c-0.6,0.1-1.1-1.1-1.3-1.6l-8.3-25.2c-0.6-1.9-3.4-7.4-4.2-11.6
		c-1.1-5.8-2.2-12.4-2.7-14.9l-2.4-13.9c-0.1-0.5,0.1-1,0.5-1.2l6.4-4.1c0.5-0.3,0.7-0.9,0.5-1.5l-7-17c-0.3-0.6-1-0.8-1.6-0.6
		c-0.5,0.2-0.7,0.7-0.7,1.2l2.1,20.6c0,0.1,0,0.2,0,0.2l-1.2,15.3c0,0.1,0,0.1,0,0.1l-3.4,20.4c0,0.1,0,0.1,0,0.1l-2.5,32.2
		c-0.1,0.6-0.2,2-0.7,2l-4.2,0.2c-0.7,0-1-1.5-1-2.2l-0.1-16.3v-0.1l-0.8-11.4c0,0,0-0.1,0-0.1c-0.4-2.3-0.1-7.3,0-10.8
		c0.2-4.8,0.6-7.5,0.6-8.3l0.4-13.3c0-0.1,0-0.1,0-0.2l-2.1-14.8c0-0.1,0-0.1,0-0.2v-61.9c0-0.7-0.5-1.2-1.2-1.2
		c-0.4,0-0.7,0.2-1,0.5c-2.8,3.9-6,7.6-9.7,10.8c-3.4,2.8-5.5,3.3-6.5,3.4c-0.4,0-0.8-0.2-1-0.5l-18-25.1c-0.2-0.3-0.7-0.5-1.1-0.5
		l-2.7,0.3c-0.1,0-0.2,0-0.2,0c-4.2-0.4-6.5-1.6-7.9-2.1c-0.5-0.2-0.7-0.6-0.5-1c0.1-0.2,0.2-0.3,0.3-0.4c2.1-1.5,4.7-2.4,7.4-2.5
		c3,0.1,6.1,0.8,8.8,2.3c0.1,0.1,0.3,0.2,0.3,0.3l14.9,18.8c0.4,0.5,1.1,0.6,1.6,0.2c0.1-0.1,0.2-0.2,0.2-0.3l5.9-8.4
		c0.1-0.2,0.2-0.3,0.4-0.3l17.5-10c0.5-0.3,0.8-0.7,1-1.2c0.6-1.7,1.3-3.5-1.3-8.5c-1.8-3.5-3.8-17.5,6.7-24.8
		c2.1-1.5,1.1,1.1,2.9,1.1c6.9,0,9.6,7.8,9.6,7.8"/>
	
		<linearGradient id="SVGID_7_" gradientUnits="userSpaceOnUse" x1="345.544" y1="-494.6286" x2="395.6805" y2="-494.6286" gradientTransform="matrix(1 0 0 -1 0 -266)">
		<stop  offset="0" style="stop-color:#E1A1ED"/>
		<stop  offset="1" style="stop-color:#7658F4"/>
	</linearGradient>
	<path class="st16" d="M364.6,183.3c0,2.8,1.8,8,7.8,8c3.9,0,4.8-4,5-5.6c0.1-1,1.6,0.7,2.5,1.2c8.6,5.2,12.8,20.8,12.8,20.8
		l-9.3,1.1l-1.2,23.1l13.3,39c0.2,0.6-0.1,1.3-0.7,1.5c-0.2,0.1-0.3,0.1-0.6,0.1c-5.2-0.7-19.4-2.4-22-0.6
		c-6.6,4.5-23.5,2.5-23.5,0.8c0-2.5,7.9-44,7.9-44l-4.7-27l-1.4-1.1l-5.2-5.4l5.2-8.4c1.9-2.1,4.7-3.4,7.5-3.8
		c1.4-0.2,2.9-0.3,4.3-0.4C363.7,182.8,364.6,182.9,364.6,183.3"/>
	
		<linearGradient id="SVGID_8_" gradientUnits="userSpaceOnUse" x1="-6725.3975" y1="-1521.2244" x2="-6674.25" y2="-1521.2244" gradientTransform="matrix(-0.88 0 0 -1 -5521.6597 -1357.35)">
		<stop  offset="0" style="stop-color:#4F6ACB"/>
		<stop  offset="1" style="stop-color:#5ACEED"/>
	</linearGradient>
	<path class="st17" d="M383.2,171.2c-0.5,0.2-1,0-1.2-0.4c-2.2-2.9-11.1-14.5-11.4-15.3c-0.4-0.8-6.5,6.5-7.5,9.2
		c-1.1,3.3-1.4-5.2-1.9-6.5s-4.7,5.4-6.9,5.9c-2.2,0.6-2.9-0.8-4.3,1.7c-0.8,1.6,0.8-9.6,6.4-13.3c3.7-2.4,4.7,3.8,4.7,3.8
		c2.1-2.9,4.8-5.2,7.9-6.9c4.5-2.5,8.8-2.6,14.6,2.7c3.3,3.1,6.1,9.3,6,12.2c-0.1,2.8,2.7,0.4,3.2-0.2c0.5-0.6,5.4,0.7,4.6,4.8
		c-0.8,4.1-1,3.9-4.1,6.3c-1.7,1.3-3.2,2.9-4.2,4.6v-10.4C388.9,168.4,385.6,170.3,383.2,171.2z"/>
	<path class="st13" d="M370.5,178.2c0,0,4.1,2.5,6.1-0.1c1.3-1.7-2.4,3.7-1.7,5.8C375.5,186,370.5,178.2,370.5,178.2z"/>
	<path class="st13" d="M378.3,198.6l5.1,10.1l-1.2,23.1l13.3,39c0,0,2.8,2-5,1.1c-7.8-0.8-12.8-1.1-15.3-1.1
		c-2.5,0-8.3-2.5,0.6-11.1c3.6-3.5,2.8-6.1,0.3-15.3c-2.5-9.1,5.3-7.5,0-15C370.8,221.9,383.6,211.4,378.3,198.6z"/>
</g>
</svg>
