<?xml version="1.0" encoding="utf-8"?>
<!-- Generator: Adobe Illustrator 23.0.3, SVG Export Plug-In . SVG Version: 6.00 Build 0)  -->
<svg version="1.1" id="Layer_1" xmlns="http://www.w3.org/2000/svg" xmlns:xlink="http://www.w3.org/1999/xlink" x="0px" y="0px"
	 viewBox="0 0 487.9 366.2" style="enable-background:new 0 0 487.9 366.2;" xml:space="preserve">
<style type="text/css">
	.st0{fill:#E1E6FB;}
	.st1{fill:#BAC5F4;}
	.st2{fill:#F8F8FF;}
	.st3{fill:#FFFFFF;}
	.st4{fill:#F5F5FC;}
	.st5{font-family:'RevaloModernBold';}
	.st6{font-size:28px;}
	.st7{fill:none;stroke:#C1272D;stroke-miterlimit:10;}
	.st8{fill:#4B44BE;}
	.st9{fill:url(#SVGID_1_);}
	.st10{fill:url(#SVGID_2_);}
	.st11{fill:url(#SVGID_3_);}
	.st12{fill:url(#SVGID_4_);}
	.st13{fill:url(#SVGID_5_);}
	.st14{fill:url(#SVGID_6_);}
	.st15{opacity:7.000000e-02;enable-background:new    ;}
	.st16{fill:url(#SVGID_7_);}
	.st17{fill:url(#SVGID_8_);}
	.st18{fill:url(#SVGID_9_);}
	.st19{fill:url(#SVGID_10_);}
	.st20{clip-path:url(#SVGID_12_);}
	.st21{opacity:7.000000e-02;}
	.st22{fill:#EFEFEF;}
</style>
<title>bg4</title>
<g>
	
		<rect x="18.3" y="88.6" transform="matrix(0.7071 -0.7071 0.7071 0.7071 -60.6182 47.6515)" class="st0" width="17.9" height="16.7"/>
	
		<rect x="32.2" y="103.6" transform="matrix(0.7071 -0.7071 0.7071 0.7071 -67.1305 61.9437)" class="st0" width="17.9" height="16.7"/>
	
		<rect x="35.2" y="73.6" transform="matrix(0.7071 -0.7071 0.7071 0.7071 -45.036 55.2755)" class="st0" width="17.9" height="16.7"/>
	
		<rect x="435.3" y="289.6" transform="matrix(0.7071 -0.7071 0.7071 0.7071 -80.6132 401.3893)" class="st0" width="17.9" height="16.7"/>
	
		<rect x="449.2" y="304.6" transform="matrix(0.7071 -0.7071 0.7071 0.7071 -87.1183 415.6787)" class="st0" width="17.9" height="16.7"/>
	
		<rect x="434.2" y="319.6" transform="matrix(0.7071 -0.7071 0.7071 0.7071 -102.1206 409.4664)" class="st0" width="17.9" height="16.7"/>
	<rect x="124.8" y="27.2" class="st1" width="122" height="63"/>
	<rect x="51.8" y="263.2" class="st0" width="46" height="102"/>
	<path class="st0" d="M73.8,272.2c0,0-40-65-42-82s-4-23-4-23s12-2,16,7s16-2,20,22c0,0,1,12,10,8S73.8,272.2,73.8,272.2z"/>
	<path class="st1" d="M78.8,282.2c0,0-28.6-53-38-74c-7-15.6-13-41-13-41s-12.1,4.4-11,14c1,9-8,12-6,23c2.2,11.9,19.4,14.1,9,25
		c-6.3,6.6-1.6,17.8,3,25c2.9,4.6,17.4,8.8,14,7C29,257.2,78.8,282.2,78.8,282.2z"/>
	<ellipse transform="matrix(0.9084 -0.4182 0.4182 0.9084 -85.0054 40.4529)" class="st1" cx="49.8" cy="214.2" rx="2" ry="26"/>
	<path class="st0" d="M87.4,314.7c0,0-60.9-46-68.9-61.1s-12.1-20-12.1-20s10.5-6.2,17.5,0.7s14.2-7.7,26.6,13.2
		c0,0,1.4,14.7,10.4,11.7C70.1,256.1,87.4,314.7,87.4,314.7z"/>
	<path class="st2" d="M95.7,322.2c0,0-45.9-39-62.3-55.1c-12.2-12-27-33.5-27-33.5s-9.6,8.5-5.2,17c4.2,8-3.1,14.1,2.8,23.6
		c6.3,10.3,23.2,6.1,17.5,20c-3.5,8.4,5,17.2,11.9,22.2c4.4,3.2,19.4,1.8,15.6,1.4C40.2,317,95.7,322.2,95.7,322.2z"/>
	<ellipse transform="matrix(0.6942 -0.7198 0.7198 0.6942 -191.0347 113.3618)" class="st0" cx="37.9" cy="281.5" rx="2" ry="26"/>
	<path class="st0" d="M404.8,192.3c0,0,47.5-77.3,50.6-97.9s5.6-27.8,5.6-27.8s-13.2-3-18.1,7.8s-17.6-3.1-23.2,25.9
		c0,0-1.7,14.6-11.5,9.3S404.8,192.3,404.8,192.3z"/>
	<path class="st1" d="M398.8,204.2c0,0,34.3-63.2,45.8-88.3c8.5-18.6,16.4-49.3,16.4-49.3s13.2,5.9,11.5,17.5
		c-1.6,10.9,8.3,15,5.5,28.3c-3,14.4-22.2,16.3-11.2,30c6.6,8.3,0.9,21.8-4.6,30.3c-3.5,5.4-19.7,9.9-15.9,7.9
		C455.1,176.1,398.8,204.2,398.8,204.2z"/>
	<path class="st1" d="M432.3,121.7c-7.3,15.6-12.3,28.7-11.2,29.3s7.9-11.5,15.2-27.1s12.3-28.7,11.2-29.4S439.6,106.1,432.3,121.7z
		"/>
	<path class="st2" d="M387.6,243.4c0,0,69.8-53.2,79.4-71.3s14.4-23.8,14.4-23.8s-11.3-8-19.4,0.1s-15.3-10-30.2,14.9
		c0,0-2.2,17.8-12.1,13.7C409.6,172.9,387.6,243.4,387.6,243.4z"/>
	<path class="st0" d="M378.1,252.2c0,0,52.8-45.4,71.8-64.3c14.1-14,31.6-39.5,31.6-39.5s10.2,10.8,4.9,21
		c-5.1,9.6,2.7,17.3-4.2,28.6c-7.5,12.2-26,6.4-20.3,23.6c3.4,10.4-6.4,20.7-14.3,26.5c-5,3.7-21.6,1.3-17.3,1
		C439.8,248.3,378.1,252.2,378.1,252.2z"/>
	<path class="st3" d="M448.2,199.4c-11.4,12.2-20,22.8-19.2,23.8s10.8-8.1,22.2-20.3s20-22.8,19.2-23.8S459.6,187.2,448.2,199.4z"/>
	<rect x="105.8" y="263.2" class="st1" width="77" height="102"/>
	<rect x="273.8" y="264.2" class="st0" width="77" height="102"/>
	<rect x="253.8" y="27.2" class="st0" width="50" height="64"/>
	<rect x="70.8" y="80.2" class="st1" width="349" height="257"/>
	<rect x="79.8" y="80.2" class="st2" width="340" height="257"/>
	<rect x="82.8" y="84.2" class="st3" width="333" height="18"/>
	<rect x="82.8" y="101.2" class="st0" width="333" height="232"/>
</g>
<g id="Layer_3">
	<rect x="137.8" y="110.2" class="st1" width="41" height="46"/>
	<rect x="183.8" y="110.2" class="st1" width="41" height="46"/>
	<rect x="228.8" y="110.2" class="st1" width="41" height="46"/>
	<rect x="274.8" y="110.2" class="st3" width="41" height="46"/>
	<rect x="319.8" y="110.2" class="st3" width="41" height="46"/>
	<rect x="365.8" y="110.2" class="st3" width="41" height="46"/>
	<rect x="137.8" y="163.2" class="st3" width="41" height="46"/>
	<rect x="183.8" y="163.2" class="st3" width="41" height="46"/>
	<rect x="228.8" y="163.2" class="st2" width="41" height="46"/>
	<rect x="274.8" y="163.2" class="st3" width="41" height="46"/>
	<rect x="319.8" y="163.2" class="st3" width="41" height="46"/>
	<rect x="365.8" y="163.2" class="st3" width="41" height="46"/>
	<rect x="137.8" y="214.2" class="st3" width="41" height="46"/>
	<rect x="183.8" y="214.2" class="st3" width="41" height="46"/>
	<rect x="228.8" y="214.2" class="st2" width="41" height="46"/>
	<rect x="274.8" y="214.2" class="st3" width="41" height="46"/>
	<rect x="319.8" y="214.2" class="st2" width="41" height="46"/>
	<rect x="365.8" y="214.2" class="st3" width="41" height="46"/>
	<rect x="138.8" y="266.2" class="st2" width="41" height="46"/>
	<rect x="184.8" y="266.2" class="st2" width="41" height="46"/>
	<rect x="229.8" y="266.2" class="st3" width="41" height="46"/>
	<rect x="275.8" y="266.2" class="st3" width="41" height="46"/>
	<rect x="320.8" y="266.2" class="st1" width="41" height="46"/>
	<rect x="366.8" y="266.2" class="st3" width="41" height="46"/>
	<circle class="st1" cx="92.3" cy="93.7" r="3.5"/>
	<circle class="st1" cx="103.3" cy="93.7" r="3.5"/>
	<circle class="st1" cx="114.3" cy="93.7" r="3.5"/>
	<path class="st3" d="M97.3,162.2h28c2.5,0,4.5,2,4.5,4.5l0,0c0,2.5-2,4.5-4.5,4.5h-28c-2.5,0-4.5-2-4.5-4.5l0,0
		C92.8,164.3,94.8,162.2,97.3,162.2z"/>
	<path class="st3" d="M97.3,214.2h28c2.5,0,4.5,2,4.5,4.5l0,0c0,2.5-2,4.5-4.5,4.5h-28c-2.5,0-4.5-2-4.5-4.5l0,0
		C92.8,216.3,94.8,214.2,97.3,214.2z"/>
	<path class="st3" d="M97.3,266.2h28c2.5,0,4.5,2,4.5,4.5l0,0c0,2.5-2,4.5-4.5,4.5h-28c-2.5,0-4.5-2-4.5-4.5l0,0
		C92.8,268.3,94.8,266.2,97.3,266.2z"/>
	<path class="st1" d="M145.3,166.2h16c1.9,0,3.5,1.6,3.5,3.5l0,0c0,1.9-1.6,3.5-3.5,3.5h-16c-1.9,0-3.5-1.6-3.5-3.5l0,0
		C141.8,167.8,143.4,166.2,145.3,166.2z"/>
	<path class="st1" d="M144.3,179.2h7c1.4,0,2.5,1.1,2.5,2.5l0,0c0,1.4-1.1,2.5-2.5,2.5h-7c-1.4,0-2.5-1.1-2.5-2.5l0,0
		C141.8,180.4,142.9,179.2,144.3,179.2z"/>
	<path class="st1" d="M191.8,166.2h16c1.7,0,3,1.3,3,3l0,0c0,1.7-1.3,3-3,3h-16c-1.7,0-3-1.3-3-3l0,0
		C188.8,167.6,190.1,166.2,191.8,166.2z"/>
	<path class="st3" d="M327.8,273.2h16c1.7,0,3,1.3,3,3l0,0c0,1.7-1.3,3-3,3h-16c-1.7,0-3-1.3-3-3l0,0
		C324.8,274.6,326.1,273.2,327.8,273.2z"/>
	<path class="st4" d="M372.8,219.2h16c1.7,0,3,1.3,3,3l0,0c0,1.7-1.3,3-3,3h-16c-1.7,0-3-1.3-3-3l0,0
		C369.8,220.6,371.1,219.2,372.8,219.2z"/>
	<path class="st4" d="M371.8,167.2h16c1.7,0,3,1.3,3,3l0,0c0,1.7-1.3,3-3,3h-16c-1.7,0-3-1.3-3-3l0,0
		C368.8,168.6,370.1,167.2,371.8,167.2z"/>
	<path class="st4" d="M326.8,167.2h16c1.7,0,3,1.3,3,3l0,0c0,1.7-1.3,3-3,3h-16c-1.7,0-3-1.3-3-3l0,0
		C323.8,168.6,325.1,167.2,326.8,167.2z"/>
	<circle class="st1" cx="192.8" cy="180.2" r="4"/>
	<circle class="st1" cx="283.8" cy="173.2" r="4"/>
	<circle class="st1" cx="297.8" cy="173.2" r="4"/>
	<circle class="st1" cx="297.8" cy="223.2" r="4"/>
	<circle class="st1" cx="283.8" cy="223.2" r="4"/>
	<circle class="st1" cx="296.8" cy="274.2" r="4"/>
	<circle class="st1" cx="282.8" cy="274.2" r="4"/>
	<circle class="st1" cx="160.8" cy="275.2" r="4"/>
	<circle class="st1" cx="146.8" cy="275.2" r="4"/>
	<circle class="st1" cx="283.8" cy="119.2" r="4"/>
	<circle class="st3" cx="236.8" cy="119.2" r="4"/>
	<circle class="st3" cx="250.8" cy="119.2" r="4"/>
	<circle class="st3" cx="191.8" cy="119.2" r="4"/>
	<circle class="st3" cx="205.8" cy="119.2" r="4"/>
	<circle class="st3" cx="146.8" cy="119.2" r="4"/>
	<circle class="st3" cx="160.8" cy="119.2" r="4"/>
	<text transform="matrix(1 0 0 1 298.27 151.936)" class="st1 st5 st6">4</text>
	<text transform="matrix(1 0 0 1 209.27 151.936)" class="st3 st5 st6">2</text>
	<text transform="matrix(1 0 0 1 162.61 203.736)" class="st1 st5 st6">7</text>
	<text transform="matrix(1 0 0 1 289.6 203.796)" class="st1 st5 st6">10</text>
	<text transform="matrix(1 0 0 1 247.25 255.566)" class="st1 st5 st6">15</text>
	<text transform="matrix(1 0 0 1 382.25 257.566)" class="st1 st5 st6">18</text>
	<text transform="matrix(1 0 0 1 195 304.956)" class="st1 st5 st6">2</text>
	<text transform="matrix(1 0 0 1 206.73 304.956)" class="st1 st5 st6">0</text>
</g>
<g id="man">
	<path class="st1" d="M381.3,98.9l-76,11.2c-2.9,0.4-5,3.3-4.6,6.5l0,0l11.2,89c0.4,3.2,3.1,5.4,6,4.9l0,0l76-11.2
		c2.9-0.4,5-3.3,4.6-6.5l0,0l-11.2-89C386.9,100.7,384.2,98.5,381.3,98.9L381.3,98.9z"/>
	<polygon class="st7" points="346.5,170 346.5,170 346.5,170 346.5,170 	"/>
	<g>
		<path class="st8" d="M417.4,341.9c2.3,0.5,10.1-2.2,11.4-3.5c0.4-0.4,0.8-1.7,1.1-2.2c0.3-1.7,1.1-0.8,1.8-1
			c2.3-0.5,8.4-2.2,11.2-0.6c0.5,1.3,0.6,2.5,0.9,3.3c0.8,3.3,1.2,6.6,1.5,9.9c0.2,2.1-1.1,3.9-3,4.1c0,0,0,0,0,0h0
			c-0.6,0-1.3,0-1.9-0.1c-4.9-1.3-14.7-1.6-18.5-3.3C415.5,346.8,411.9,343.2,417.4,341.9z"/>
		<path class="st8" d="M341.7,345.8c2.2,0.6,10.3-1.5,11.6-2.7c0.5-0.4,0.9-1.6,1.3-2.1c0.4-1.6,1.1-0.8,1.9-0.9
			c2.3-0.4,8.5-1.7,11.3,0.1c0.5,1.3,0.4,2.6,0.7,3.3c0.5,3.3,0.9,6.7,1,10c0.1,2.1-1.4,3.8-3.3,3.9c0,0,0,0,0,0h0
			c-0.6,0-1.3,0-1.9-0.2c-4.8-1.6-14.6-2.6-18.3-4.5C339.6,350.6,336.2,346.7,341.7,345.8z"/>
	</g>
	
		<linearGradient id="SVGID_1_" gradientUnits="userSpaceOnUse" x1="285.8898" y1="835.8306" x2="375.2073" y2="835.8306" gradientTransform="matrix(-0.9889 0 0 1 725.9703 -562.49)">
		<stop  offset="0" style="stop-color:#4F68CA"/>
		<stop  offset="1" style="stop-color:#5ACEED"/>
	</linearGradient>
	<path class="st9" d="M443.3,334.8c-3.8,0.6-13.1,0.7-13.1,0.7s-0.6-4.9-3.4-14.3c-2.9-9.5-17.3-39.4-17.3-39.4
		c-3-4.9-6.1-15-6.1-15l-4.3-38.7c0,0-22.9,38.6-22.5,47.4c0.3,8.8-5.3,43-5.3,43c-0.6,5.1-3.4,22.1-3.4,22.1
		c-4.2-0.6-8.5-0.7-12.8-0.4c0.6-7,2.9-35.9,2.9-35.9s1.5-22.4,1.8-36c0.3-13.6,9.3-42.4,15.3-55.5c0.8-2.2,1.5-4.5,2-6.8l53.4,7.3
		c-1.2,3.7-2.2,7.4-2.9,11.2c-3.1,17.1-5.3,45.8-5.3,45.8c8.4,10.2,13.6,29.5,13.6,29.5C439.2,311.4,443.3,334.8,443.3,334.8z"/>
	<g>
		
			<linearGradient id="SVGID_2_" gradientUnits="userSpaceOnUse" x1="13.3163" y1="788.7178" x2="43.0233" y2="788.7178" gradientTransform="matrix(-0.9889 0 0 1 423.8518 -684)">
			<stop  offset="0" style="stop-color:#F87B58"/>
			<stop  offset="0" style="stop-color:#F87B58"/>
			<stop  offset="0.41" style="stop-color:#F89453"/>
			<stop  offset="0.94" style="stop-color:#F8C548"/>
		</linearGradient>
		<path class="st10" d="M383.9,97.9c8.2-1.7,16.7,1.5,16.7,1.5l1.4,0.5l8.8,12.2l-8.1-2.3c-2.2-0.8-6.4-2.1-8.4-1.9
			c-1.5-0.1-4.9,0.7-6.5-0.8c-1.2-0.6-1.5-1.7-4-4.4c-1.8-2.2-1.3-2.8-2-3.1C380.8,99.1,381.6,98.1,383.9,97.9z"/>
		
			<linearGradient id="SVGID_3_" gradientUnits="userSpaceOnUse" x1="52.8788" y1="887.5111" x2="69.8647" y2="887.5111" gradientTransform="matrix(-0.9889 0 0 1 423.8518 -684)">
			<stop  offset="0" style="stop-color:#F87B58"/>
			<stop  offset="0" style="stop-color:#F87B58"/>
			<stop  offset="0.41" style="stop-color:#F89453"/>
			<stop  offset="0.94" style="stop-color:#F8C548"/>
		</linearGradient>
		<path class="st11" d="M354.8,205.8c0.1-0.5,1.7-0.2,1.9-0.6c1.7-2.6,3.8-6,8.1-7.6c1.2-0.4,2.5-0.7,3.8-0.9l2.9,5.5
			c-0.4,1-0.8,1.9-1.4,2.7c-1.8,2.6-5.5,6.1-12.3,5.1C356.3,209.9,354.6,207.6,354.8,205.8z"/>
		
			<linearGradient id="SVGID_4_" gradientUnits="userSpaceOnUse" x1="-17.0374" y1="786.6297" x2="10.9007" y2="786.6297" gradientTransform="matrix(-0.9889 0 0 1 423.8518 -684)">
			<stop  offset="0" style="stop-color:#F87B58"/>
			<stop  offset="0" style="stop-color:#F87B58"/>
			<stop  offset="0.41" style="stop-color:#F89453"/>
			<stop  offset="0.94" style="stop-color:#F8C548"/>
		</linearGradient>
		<path class="st12" d="M415.6,83.5c1,0,21.5,17.1,21.7,19c0,1,0.1,5.4,0.8,8.2c0.7,2.7,2.7,6.5,2.7,6.5s-1.8,3.6-6.4,4.3
			c-4.4,0.7-10.3-0.9-10.3-0.9s1.4-9.5-0.3-10.5c-1.5-0.9-1.9,0-6.9-4.5s-3.4-16.2-3.3-16.9C413.6,87.9,414.6,83.5,415.6,83.5z"/>
	</g>
	
		<linearGradient id="SVGID_5_" gradientUnits="userSpaceOnUse" x1="-35.3857" y1="-654.132" x2="58.9138" y2="-654.132" gradientTransform="matrix(-0.9889 0 0 -1 423.8518 -497.5079)">
		<stop  offset="0" style="stop-color:#E1A1ED"/>
		<stop  offset="1" style="stop-color:#7658F4"/>
	</linearGradient>
	<path class="st13" d="M392.2,163.6c6.7-6.6,10.9-27,13-32.1c2.1-5.1,5.5-6.6,6.9-7.1c0.7-0.3,4.3-1.4,7.1-2.2l-19.9-13.5
		c-2.7-5.5,2.6-8.8,2.6-8.8l22.6,12.2v8.3l7.3-1.3l8.8-1.9c2.7-0.7,5.4-1.1,8.2-1.4c1.1-0.1,2.3,0,3.4,0.5l0.6,0.2
		c1.4,0.5,2.5,1.6,3.2,3c1.4,3.3,2.4,6.9,2.8,10.6c0.8,5.9-3.4,19.2-7.6,28.9c-1.9,4.1-9.1,25.3-10.9,30.6
		c-8.8,22.2-9.5,23.9-9.5,23.9c-27.1-0.3-53.6-6.8-53.6-6.8c-1.2-2.4,3.2-9.5,3.2-9.5l-8.2,7.4c-3.6,1.2-6.5-7.4-6.5-7.4
		S386.5,169.1,392.2,163.6z"/>
	
		<linearGradient id="SVGID_6_" gradientUnits="userSpaceOnUse" x1="786.7112" y1="1564.828" x2="813.6697" y2="1552.9994" gradientTransform="matrix(-0.9889 0 0 1 1222.1145 -1468.27)">
		<stop  offset="0" style="stop-color:#4B44BE"/>
		<stop  offset="1" style="stop-color:#5BD3EF"/>
	</linearGradient>
	<path class="st14" d="M441.1,84.5c-0.4-0.9-1.4-2.8-2-3.5c-1-1.1-2-2.2-3.1-3.2c-1-0.7-3.5-2.1-4.5-2.6c-3.4-1.1-8,0-11.4,0.2
		c-3.1-0.2-5.3,3.9-6.5,6.6c-1.2,2.7,1.1,2.4,0.9,4.5c0,0.4,1,1,1.9,1.5c0.9,0.5,3.4,4.9,4.3,6.9c0.9-5,4,3.9,3.4,5
		c1.2,0.9,2.7,4.5,5,5.6c1.5-0.7,4.4-3.5,8.3-2.7c0.3-0.8,4.1-3.8,4.5-9C442,92.3,442.3,86.8,441.1,84.5z"/>
	<path class="st15" d="M429.4,107.1c0,0-3.4,3.3-5.5,3.3l0.5,2.8l-0.1,4.1c0,0,1.3-2.3,3-4.6C428.3,111,429.1,109.1,429.4,107.1z"/>
	<path class="st15" d="M416.9,148.2c0,0-4.3,14.1-17.7,28.8c-13.4,14.7-16.6,17.7-16.6,17.7s-2.7,3.7-1.9,6.2
		c0.9,2.5,6.7-5.8,19.8-12.3c7.5-3.7,10-10,13.5-18.9c4.3-11.2,5.3-13.6,5.9-17.7C421.4,141.5,416.9,148.2,416.9,148.2z"/>
	<path class="st15" d="M399.1,228.2c0,0,6.3,14.8,8.1,22c1.9,7.5,1.9,18.3,7.4,23.6c6.3,6,13.7,26.1,15.5,30.3
		c2.4,6.1,7.4,39.6,6,41.9c-1.4,2.3-7.1-1.1-7.1-1.1s2.1-8.5,0.3-16.2c-1.8-7.7-10.1-28.3-15.3-38.5c-4.7-9.1-9.5-19.7-10.6-25.8
		C402.3,258.2,399.1,228.2,399.1,228.2z"/>
</g>
<g id="woman_check_phone">
	<g>
		<path class="st8" d="M83.9,335.5l-7,1.6c0,0-1.7,5.5-2.5,8.5c-0.1,0.2-0.2,0.7-0.3,1c-0.1,0.5-0.2,1-0.2,1.5
			c0.2,2.6,1.2,4.9,3.5,6.1c2.6,1.3,4.6,2.5,7.4,0c2.7-2.5,3.2-4.1,2.1-8.5S83.9,335.5,83.9,335.5"/>
		<path class="st8" d="M124.4,344.6c-4.7-1.5-6.7-7.3-6.7-7.3l-9.5-0.5c0,0-0.2,5.9-0.5,9.1c-0.3,4.3,0.5,6.2,3.3,5.9
			c3.8-0.3,19.4,1.1,21.8-0.5C136.1,349.5,128.8,346,124.4,344.6"/>
	</g>
	
		<linearGradient id="SVGID_7_" gradientUnits="userSpaceOnUse" x1="64.3671" y1="-355.4484" x2="122.5487" y2="-355.4484" gradientTransform="matrix(1 0 0 -1 0 -85.5079)">
		<stop  offset="0" style="stop-color:#4F68CA"/>
		<stop  offset="1" style="stop-color:#5ACEED"/>
	</linearGradient>
	<path class="st16" d="M69.3,202c0,0-3.5,4.9-4.7,18c-1.1,13.1,1.4,38,2.5,42.8c1.2,4.8,5.8,49.8,7,53.1c1.2,3.3,2.7,21.2,2.7,21.2
		l7.5,0.2c0,0,2.2-23.4,2.2-29.6c0-6.2,3.1-64.7,2.9-69c-0.2-4.3,0.8-2.9,0.8-2.9s6.6,20.9,8.5,24.4c2,3.5,5.4,10.3,5.4,10.3
		s0.8,21.9,1.7,34.6s2,32.7,2,32.7l10.1-0.2c0,0,2.3-33.4,2.3-40.5c0-7,2.1-23.9,2.1-25.9s-6.6-36.1-6.6-36.1l-4.6-33.3L69.3,202z"
		/>
	
		<linearGradient id="SVGID_8_" gradientUnits="userSpaceOnUse" x1="71.4146" y1="426.5983" x2="132.0205" y2="426.5983" gradientTransform="matrix(1 0 0 1 0 -272)">
		<stop  offset="0" style="stop-color:#F87B58"/>
		<stop  offset="0.5" style="stop-color:#F8C548"/>
		<stop  offset="1" style="stop-color:#F89C51"/>
	</linearGradient>
	<path class="st17" d="M81.2,91.7c-3.4,1.3-7.8,18.3-7.8,18.3l-0.1-0.1l-1.9,1.9l0.8,3.6l3.3,56.3l17.2-3.7l15.1-16l9.4,4.4
		c0,0,0.7,20.5,0.8,21.6c0.1,1.1,1.7,32,1.7,34.1c0.1,2.2,9.3,11.9,10.8,10.8c4.5-3.2-3-9-4.8-10.5c-1.1-0.8-3.3-29.6-3.5-33
		c-0.2-3.4,5.2-12-4.1-23.4c-6.8-8.3-10.5-29.6-16.2-53.8c-3-12.6-4.8-16.3-7.8-16.3C91.5,86.1,87.8,89.3,81.2,91.7"/>
	
		<linearGradient id="SVGID_9_" gradientUnits="userSpaceOnUse" x1="53.4518" y1="-258.6122" x2="125.6686" y2="-258.6122" gradientTransform="matrix(1 0 0 -1 0 -85.5079)">
		<stop  offset="0" style="stop-color:#E1A1ED"/>
		<stop  offset="1" style="stop-color:#7658F4"/>
	</linearGradient>
	<path class="st18" d="M78.3,139.7c-0.1,0.2-6.6,3.2-9.4,6.7c-2.8,3.4-5.1,8.4-5.1,8.4s-4.1,9.7-7,16.9c-1.5,3.9-6.6,19.7-0.5,20.3
		c5.7,0.5,18.3-12.9,20.3-15.4l2.2-4.9c0.2-0.6-3.4-7.2-3.3-7.8c0.1-1,8.4-5.8,9.6-2.9c0.4,1,1.5,3.7,1.9,4.5
		c0.8,2.1-11.2,6.1-11.2,7.9c0,2.3-1,10.7-2.6,14.8c-1.6,4.1-4.1,13.9-4.1,13.9l42.2,0.1c0,0-1.4-18.8-0.8-25c0,0,1.8-20.5,2.9-22.5
		c1.1-2,2.9,25.3,2.6,30.9c-0.2,3.9,3.3,27.4,4.3,28.2c1.6,1.3,5.5-1.3,5.5-1.3s-0.2-25.8-0.3-30c-0.2-4.3,0.1-38.9-5.6-45.2
		c-5.7-6.2-7.2-6.1-11.9-4.4c-4.7,1.6-7,3.2-13.4,4.3c-3.9,0.7-8,0.2-11.6-1.4c1-3.6-1.1,2.5-0.8,0.8"/>
	
		<linearGradient id="SVGID_10_" gradientUnits="userSpaceOnUse" x1="63.8529" y1="-208.4036" x2="119.2786" y2="-208.4036" gradientTransform="matrix(1 0 0 -1 0 -85.5079)">
		<stop  offset="0" style="stop-color:#4B44BE"/>
		<stop  offset="1" style="stop-color:#5BD3EF"/>
	</linearGradient>
	<path class="st19" d="M84.5,82c0,0-8.4,0.3-10.8,8.5c-2.4,8.2-2.7,19.7-2.8,21.5c-0.1,1.9,0.9,14.8-0.2,18.4c-1,3.2-3.6,9-5.3,13.1
		c-0.6,1.6-1.1,3.3-1.4,5l-0.2,1.4c0.4,1.4,2,2.3,3.4,1.8c0.1-0.1,0.2-0.1,0.3-0.1c0.8-0.4,1.6-0.8,2.4-1.3c2.5-1.5,5.8-5.6,8.3-6.9
		c2.7-1.3,5.8-7.5,6.2-7.9s0.3-2,0.3-3.5c0.3-7.7-1.2-14.7-3-18.4c-1.8-3.7-5.9-10.9-3.1-15.1c2.9-4.2,8.8-7.5,9.1-8.5
		c0.3-1,0.4,4,3.6,5.8s7.6,6.6,7.6,7.7c0,1.1,1.1,4.5-2,10.5c-3,6-5.4,13.6-1.2,19.3c4.2,5.7,14.7,13.6,15.4,15.4
		c0.7,1.8,0,9.8-0.3,14.3c-0.3,4.5,8.5-7.7,8.2-13.5c-0.3-5.9,0.7-8.4-5.2-17.3s-9.9-24.4-10-28.1c-0.2-3.8-2-14.1-5.6-17.1
		c-3.1-2.5-3.8-5-10.2-5C87,81.8,85.7,81.9,84.5,82"/>
	<g>
		<g>
			<g class="st15">
				<g>
					<g>
						<defs>
							<rect id="SVGID_11_" x="64.2" y="90.4" width="24.3" height="264.4"/>
						</defs>
						<clipPath id="SVGID_12_">
							<use xlink:href="#SVGID_11_"  style="overflow:visible;"/>
						</clipPath>
						<g class="st20">
							<path d="M81.3,160.7c-1.3,0.5-2.5,1.1-3.6,1.8l-1.3,0.6c0,0-13.4,14-12.8,13.3c2.6-3.2,10.6-20.4,13.3-24.3
								c2.9-4.1,4.4-2.5,7.6,8.5"/>
						</g>
					</g>
				</g>
			</g>
			<g class="st21">
				<path d="M80.7,337c0.1,0.2,0.1,0.3,0.1,0.5c0.1,1.2,0,4.1-1.3,5.9c-1.6,2.4,2.2,7.8,2.2,9.1c0,1.3-1.7,2.5-3,2.2
					c-1.2-0.4-6.3-3.2-4.3-9.4c0.8-2.5,1.3-4.7,1.7-6c0.3-0.7,0.5-1.4,0.7-2.1c0.1-0.3,0.1-0.6,0.1-1c-0.1-0.4-0.1-0.9-0.1-1.4
					c-0.3-2.4-10.3-76.6-10.7-79.4c-0.3-2.5-1.8-18.2-1.6-27.4c-0.1-0.8-0.1-1.6-0.1-2.3c0-0.2,0.1-1.1,0.1-1.5
					c0.1-0.8,0.1-1.7,0.2-2.5c-0.2-0.7-0.1-0.7,0-1.8s0-1.7,0.1-2.4c1-6.2,3.3-13.3,4.4-15.3l0.3-1.1c0,0,2.5-9.4,3.4-11.2
					c0.7-1.6,2.9-9.9,2.6-11.6c-0.1-1,3.3-4.7,3.3-4.7l0.7-0.6c0.3-0.1,0.7,0,1,0.1c0.7,0.3,3.6-2.2,4.1-0.6
					c3.4,10.8,4.8,15.4-1.2,21.9c-6,6.5-0.5,12.2-0.4,16.8c0.3,11.2-5.2,10-5.5,17c-0.3,7,1.2,12,1.3,15.7c0.3,12,0.1,14.4-0.5,19.1
					c-0.6,4.7-3.9,13.6-0.3,31.2c3.6,17.6,3.1,19.1,2.7,29.1C80.3,333.1,80.7,337,80.7,337"/>
			</g>
			<path class="st22" d="M75.1,155.6l0.1-0.1c0.4-0.2,2.9-1.5,4.7-2.2c2-0.8,4.3,5.9,4.9,7.2c0.1,0.1,0.1,0.1-0.4,0.2
				c-1.4,0.2-2.9,0.4-4.2,0.8c-2,0.5-4.3,2.1-4.4,2.1c-0.1,0.1-0.7-1.2-1.9-4.2c-0.3-0.7-0.8-2.5-0.3-2.9L75.1,155.6z"/>
		</g>
		<path class="st15" d="M90.3,120.3c1.3,0.5,2.7,0.2,3.7-0.8c1.7-1.7-0.6,4.2-0.3,5.5C94.1,126.2,90.3,120.3,90.3,120.3z"/>
		<path class="st22" d="M78.8,171.1c0,0,8-5.2,8.1-5c0.2,0.5,0.9,2.4,0.9,2.4s0.6,1.2,0.4,1.6c-0.2,0.4-7.8,3.6-7.8,3.6
			c-0.3-0.1-0.6-0.2-0.7-0.5C79.4,172.6,79.1,171.9,78.8,171.1z"/>
	</g>
</g>
</svg>
