<?xml version="1.0" encoding="utf-8"?>
<!-- Generator: Adobe Illustrator 23.0.3, SVG Export Plug-In . SVG Version: 6.00 Build 0)  -->
<svg version="1.1" id="Layer_1" xmlns="http://www.w3.org/2000/svg" xmlns:xlink="http://www.w3.org/1999/xlink" x="0px" y="0px"
	 viewBox="0 0 968.5 618.3" style="enable-background:new 0 0 968.5 618.3;" xml:space="preserve">
<style type="text/css">
	.st0{fill:#F5F5FC;}
	.st1{fill:#F8F8FF;}
	.st2{fill:#E9EDFB;}
	.st3{fill:#B0C0F4;}
	.st4{fill:#FFFFFF;}
	.st5{fill:#E1E6FB;}
	.st6{fill:none;stroke:#FFFFFF;stroke-width:3;stroke-linecap:round;stroke-linejoin:round;}
	.st7{fill:#BAC5F4;}
	.st8{fill:url(#SVGID_1_);}
	.st9{fill:url(#SVGID_2_);}
	.st10{fill:url(#SVGID_3_);}
	.st11{fill:#7A5BF5;}
	.st12{fill:#F4F4F4;}
	.st13{fill:#4B46BD;}
	.st14{fill:url(#SVGID_4_);}
	.st15{fill:none;}
	.st16{fill:url(#SVGID_5_);}
	.st17{fill:#F8246A;}
	.st18{fill:url(#SVGID_6_);}
	.st19{fill:url(#SVGID_7_);}
	.st20{fill:url(#SVGID_8_);}
	.st21{fill:url(#SVGID_9_);}
	.st22{fill:url(#SVGID_10_);}
	.st23{fill:#4B44BE;}
	.st24{fill:url(#SVGID_11_);}
	.st25{fill:url(#SVGID_12_);}
	.st26{fill:url(#SVGID_13_);}
	.st27{fill:url(#SVGID_14_);}
	.st28{opacity:7.000000e-02;enable-background:new    ;}
	.st29{fill:url(#SVGID_15_);}
	.st30{fill:url(#SVGID_16_);}
	.st31{fill:url(#SVGID_17_);}
	.st32{fill:url(#SVGID_18_);}
	.st33{clip-path:url(#SVGID_20_);}
	.st34{opacity:7.000000e-02;}
	.st35{fill:#EFEFEF;}
</style>
<title>bg5</title>
<g>
	<path class="st0" d="M57.1,393c0,0-151.6-132.9,39.5-195.7c95.3-31.3,117.7-47.4,191.8-108c106-86.8,244.9-136.9,425.5,16.1
		s316.9,200.4,198,292.1c-133.7,103.1-52.3,156.1-69.1,185.2c-4.5,7.7-32.7-25.3-94.9,8.7c-141.7,77.5-213.8-40.4-318-11
		c-98.3,27.8-148.8-33.6-180.8-9.6c-47.7,35.8-77.6,35.3-95.5,25.9c-15-7.9-23.8-24.2-23.1-41.3c0.8-19.4,0.9-55.8-6.9-82.3
		C111.8,433.1,82.9,412.7,57.1,393z"/>
	<path class="st1" d="M58.8,394.6c0,0-153.1-135.7,39.9-199.9c96.2-32,118.8-48.4,193.6-110.4c107-88.6,247.2-139.9,429.4,16.4
		s324.3,211,199.8,298.5c-86.2,60.6-57,31-83.8,51.8c-57,44-186.6-38.7-291.8-8.6c-99.2,28.3-195.7-14-238.8-16.9
		c-17.1-1.1-86-1.4-120.7-3.2c-19.4-1-40.8,7.5-67.8,1.1C78,413.7,84.9,414.7,58.8,394.6z"/>
	<g id="books">
		<path class="st2" d="M223.3,142.3l-49.7,33.5c-0.7,0.4-1.8-6.7-2.5-6.4l-33.8,13l-0.4,242.9l211.5-2.6l-1.6-329.2L282.4,94
			L223.3,142.3z"/>
		<path class="st3" d="M206.9,150.2l-51.8,25.4l-0.1,6.8l172.5-1l-0.7-62.1l-74.4-1L235.8,131c-2.9,2.2-6.5,4.6-11,7.6
			C217.3,143.5,212.8,146.8,206.9,150.2z"/>
		<polygon class="st3" points="155.1,192.5 155.1,253.8 327.8,253.5 327.8,192.5 		"/>
		<polygon class="st3" points="155.6,264.8 155.6,326.1 328.2,325.7 328.3,264.8 		"/>
		<polygon class="st3" points="156.5,338.1 156.5,399.4 329.2,399.1 329.2,338.1 		"/>
		<polygon class="st4" points="215.2,299.6 223.3,289 253.4,315.8 245.8,326.7 		"/>
		<polygon class="st4" points="155.5,276.7 175,276.8 175.1,326.2 155.6,326 		"/>
		<polygon class="st0" points="198.1,285.1 206.1,280.6 226.4,321.2 218.5,326.6 		"/>
		<polygon class="st4" points="188.7,271.3 198.2,271.3 198.4,326.4 188.7,326.1 		"/>
		<polygon class="st0" points="175.1,288.1 188.9,288.4 188.7,326.3 174.9,326 		"/>
		<polygon class="st4" points="250.7,276.6 270.1,276.7 270.3,326.1 250.7,325.8 		"/>
		<polygon class="st4" points="283.9,271.2 293.3,271.2 293.6,326.2 283.8,326 		"/>
		<polygon class="st0" points="270.3,288 284.1,288.2 283.8,326.1 270,325.9 		"/>
		<polygon class="st4" points="156.5,343.2 171.4,343.3 171.5,399.9 156.6,399.6 		"/>
		<polygon class="st0" points="171.4,351.7 181.5,351.6 181.2,399.7 171.2,399.6 		"/>
		<polygon class="st4" points="181.5,361.6 195.2,361.8 194.9,399.7 181.1,399.5 		"/>
		<polygon class="st0" points="265.5,174.1 265.5,181.2 320.7,181.6 320.7,174.1 		"/>
		<polygon class="st4" points="265.4,168.5 265.6,174.2 301.6,174.4 301.3,168.3 		"/>
		<polygon class="st4" points="155.2,204.4 174.7,204.5 174.8,253.9 155.2,253.6 		"/>
		<polygon class="st0" points="306.9,212.3 298.7,207.8 277.6,248.4 285.9,253.7 		"/>
		<polygon class="st4" points="318.5,198.5 328,198.5 328.2,253.5 318.5,253.3 		"/>
		<polygon class="st0" points="305.5,215.6 319.3,215.8 319.1,253.7 305.3,253.5 		"/>
		<polygon class="st0" points="212.6,246.6 212.6,253.7 267.8,254.1 267.8,246.6 		"/>
		<polygon class="st4" points="221.2,240.8 221.5,246.5 257.5,246.7 257.2,240.6 		"/>
	</g>
	<g id="flower">
		<path class="st0" d="M745.5,495.6c0,0-16.6,19.6-3,20.1s41.5,16.3,46.8,2.2s16-21.2,9.5-22.8s-12.4-8.2-26.1-7.1
			S745.5,495.6,745.5,495.6z"/>
		<path class="st5" d="M741.2,400.3c0,0-7.8,0.8-7.8,10.5s5,93.1,24,94.8c12.3,1.1,25.4,1,31.9,0.4c2.8-0.3,5.5-8.7,6-12.1
			c2.5-16.6,5.7-57,6.4-80.5c0.1-4.8-3.1-11.1-4.8-12.7C787.4,392,741.2,400.3,741.2,400.3z"/>
		<path class="st2" d="M833.1,238.9c-3-2.8-7.2,1-5.6,4.9c1.5,3.8,2.6,10.3-3.5,17.3c-9.4,10.9-43.3,47.7-42.9,71.4s-7,30.3,0,39.3
			s35.2,8.7,42.6-10.5s26.1-26.9,25.7-54.3s-3.6-39.4-7-48.8C840.4,252.3,837,242.6,833.1,238.9z"/>
		<path class="st6" d="M781.8,396.8c0,0,3-42.9,36.5-61.6c21-11.7,22.4-52.3,17.4-61.5"/>
		<path class="st7" d="M786.1,414.8c0,0,10.6,42.2-0.9,75.7"/>
		<path class="st7" d="M810.2,229.6c-3.2-2.7-7.7,0.9-6,4.7c1.6,3.6,2.7,9.9-3.7,16.6c-10.1,10.4-46.3,45.6-46,68.3s0,35.9,7.5,44.5
			s25,1.7,32.9-16.6s33.2-26.1,32.8-52.4c-0.4-26.2-3.9-37.7-7.5-46.7C818,242.3,814.4,233.1,810.2,229.6z"/>
		<path class="st6" d="M767.8,397.7c0,0-11.8-58.3,16.9-93.4c11.5-14,28.5-42.1,28.4-55.7"/>
		<path class="st2" d="M720.7,238.9c2.9-2.8,7.1,1,5.6,4.9c-1.5,3.8-2.5,10.3,3.5,17.3c9.3,10.9,42.9,47.7,42.6,71.4s0,37.5-7,46.6
			s-23.1,1.8-30.4-17.4s-30.7-27.3-30.4-54.7s3.6-39.4,6.9-48.8C713.5,252.3,716.8,242.6,720.7,238.9z"/>
		<path class="st6" d="M758.4,398.7c0,0,13.5-53-13.1-88c-10.6-14-27.7-34.8-27.5-48.3"/>
		<path class="st3" d="M699.1,331.3c0,0-27.8,0.6-42.8-33.1s18.8-40.6,43.6-22.5s14.7,25.6,44.3,42.3s23.2,49.8,14,58.6
			s-26.6,22.5-38.2-13.3S699.1,331.3,699.1,331.3z"/>
		<path class="st6" d="M753.1,399.1c0,0,2-84.4-81.7-107.6"/>
		<path class="st7" d="M741.2,400.3c0,0,34.1-5.5,47.4-2.6s-23.5,6.3-23.5,6.3S747.5,404.8,741.2,400.3z"/>
	</g>
	<path class="st7" d="M327.8,409.2c0,0-38.4-30.3-44.9-60s7.6-50.3,28.1-53.5c20.5-3.2,33-13,104.9,11.4s154.7-18.9,154.7-18.9
		s67.6-31.1,101-23.5c38,8.6,46.1,31.6,35.8,72.7s-45.3,72.2-45.3,72.2L327.8,409.2z"/>
	<path class="st7" d="M310.4,406c0,0-6,0-7,6s1,25,4,31s17.1,5.7,17.1,5.7l342.9-0.7c0,0,11.4,0.1,14-9c2.1-7.3,5.1-14.6,5.4-19.7
		c0.3-6-4-11.2-9.9-12c-3.7-0.5-7.5-0.7-11.2-0.7C639.6,406.6,310.4,406,310.4,406z"/>
	<polygon class="st4" points="294.4,499 317.4,449 335.4,449 311.4,499 	"/>
	<polygon class="st4" points="648.4,449 669.4,500 684.4,499 664.4,449 	"/>
	<path class="st3" d="M333.7,406.6c0,0-31.6-24.4-33.1-34.5c-1.9-13.2,10-32.8,56.2-24.1s127.7,32.2,171.9,20.2
		s99.8-62.4,103.8-65.1s51.3-25.9,62,9.5S662,406.2,662,406.2L333.7,406.6z"/>
	<polygon class="st7" points="487.4,0 488.7,67.7 490.3,67.4 491.7,0 	"/>
	<path class="st7" d="M453.1,123.2c0,0-12.6-56.5,37.3-57.1c47.2-0.5,35.1,60,35.1,60L453.1,123.2z"/>
	<path class="st4" d="M452.6,123.2c0,0,40.1-17.4,72.9,2.7C525.5,125.9,491,144.2,452.6,123.2z"/>
	<path class="st4" d="M472,76.2c0,0-17.5,6.5-13.9,36.2"/>
	
		<linearGradient id="SVGID_1_" gradientUnits="userSpaceOnUse" x1="489.3559" y1="565.42" x2="489.6559" y2="343.66" gradientTransform="matrix(1 0 0 -1 0 620)">
		<stop  offset="0" style="stop-color:#FFFFFF"/>
		<stop  offset="1" style="stop-color:#FFFFFF;stop-opacity:0"/>
	</linearGradient>
	<polygon class="st8" points="452.6,123.2 417.2,250.5 562,249.1 525.5,125.9 	"/>
</g>
<g id="bag">
	<title>Bag</title>
	
		<linearGradient id="SVGID_2_" gradientUnits="userSpaceOnUse" x1="2185.6565" y1="-1407.4197" x2="2270.7864" y2="-1446.8497" gradientTransform="matrix(1 0 0 -1 -1511.98 -945.5601)">
		<stop  offset="0" style="stop-color:#7A5BF5"/>
		<stop  offset="1" style="stop-color:#CD94EF"/>
	</linearGradient>
	<path class="st9" d="M699.2,461.4c0,0-11.1,40.3-9.3,44.8c1.8,4.5,10.8,5.4,14.8,6.3c4,0.9,40.3,10.4,44,10.6s3.4,0.7,5,0.7
		c1.6,0,21.8-6.8,22.5-9.2c0.7-2.4,1.3-4,0.7-7c-0.6-3-9.8-41.4-12.3-42.2S699.2,461.4,699.2,461.4z"/>
	
		<linearGradient id="SVGID_3_" gradientUnits="userSpaceOnUse" x1="2198.8252" y1="-1396.9722" x2="2255.4053" y2="-1423.1821" gradientTransform="matrix(1 0 0 -1 -1511.98 -945.5601)">
		<stop  offset="0" style="stop-color:#7A5BF5"/>
		<stop  offset="1" style="stop-color:#E5A4ED"/>
	</linearGradient>
	<path class="st10" d="M697.3,468.6c0,0,0.8-6.3,1.9-7.2c1.1-0.9,4.2-5,7.2-5.2c3-0.2,51.3,5.9,53.1,6.3s4.2,1.3,5,2.8
		s-7,3.3-8.5,8.1s-29.1,14.9-35.9,15.6C713.3,489.7,697.3,468.6,697.3,468.6z"/>
	<path class="st11" d="M713.1,457.8c0,0,5.2-11.3,7.7-13.4c2.2-1.9,10.1-6,14.9,0.1c5.4,6.9,4.9,14.9,4.9,15.9s-5.3,0.1-5.3,0.1
		s1.7-8.2,0.2-11c-1.4-2.6-2.2-5.7-7.2-5.4c-5,0.3-6.8,3.1-8.3,5.7c-1.3,2.6-2.3,5.3-3.2,8.1C716.6,458.2,713.1,457.8,713.1,457.8z"
		/>
	<path class="st11" d="M721.4,458.5c0,0,5.2-13.8,7.7-16.4c2.2-2.3,10.6-6.9,15.4,0.5c5.4,8.4,4.3,17.8,4.3,18.9s-5.3,0.2-5.3,0.2
		s1.6-10,0.1-13.5c-1.4-3.2-2.2-7-7.1-6.6c-4.9,0.4-6.8,3.7-8.3,7c-1.3,3.2-2.3,6.5-3.2,9.9C725,459,721.4,458.5,721.4,458.5z"/>
	<path class="st11" d="M753.9,476.2c0,0-4.6,38.7-4,41.3c0.6,2.6,2.1,6.3,3.2,6.3c1.1,0,2.9-0.2,2.2-1.1c-2.3-3.3-3.3-7.4-2.7-11.3
		c0.7-6.3,3.4-38,3.4-38L753.9,476.2z"/>
	<circle class="st4" cx="718.9" cy="489" r="2.8"/>
</g>
<g id="Books">
	<title>Books</title>
	<g id="Files">
		<path class="st12" d="M234.7,168h22.1c0.2,0,0.4,0.2,0.4,0.4l0,0c0,0.2-0.2,0.4-0.4,0.4h-22.1c-0.2,0-0.4-0.2-0.4-0.4l0,0
			C234.3,168.2,234.5,168,234.7,168z"/>
		<path class="st12" d="M234.7,169.4h22.1c0.2,0,0.4,0.2,0.4,0.4l0,0c0,0.2-0.2,0.4-0.4,0.4h-22.1c-0.2,0-0.4-0.2-0.4-0.4l0,0
			C234.3,169.5,234.5,169.4,234.7,169.4z"/>
		<path class="st12" d="M234.7,170.7h22.1c0.2,0,0.4,0.2,0.4,0.4l0,0c0,0.2-0.2,0.4-0.4,0.4h-22.1c-0.2,0-0.4-0.2-0.4-0.4l0,0
			C234.3,170.9,234.5,170.7,234.7,170.7z"/>
		<path class="st12" d="M239.8,175h20.2c0.2,0,0.4,0.2,0.4,0.4l0,0c0,0.2-0.2,0.4-0.4,0.4h-20.2c-0.2,0-0.4-0.2-0.4-0.4l0,0
			C239.4,175.2,239.5,175,239.8,175z"/>
		<path class="st12" d="M239.8,176.3h20.2c0.2,0,0.4,0.2,0.4,0.4l0,0c0,0.2-0.2,0.4-0.4,0.4h-20.2c-0.2,0-0.4-0.2-0.4-0.4l0,0
			C239.4,176.5,239.5,176.3,239.8,176.3z"/>
		<path class="st12" d="M239.8,177.7h20.2c0.2,0,0.4,0.2,0.4,0.4l0,0c0,0.2-0.2,0.4-0.4,0.4h-20.2c-0.2,0-0.4-0.2-0.4-0.4l0,0
			C239.4,177.8,239.5,177.7,239.8,177.7z"/>
	</g>
	<g id="book1">
		<path class="st13" d="M204.8,166.6"/>
		
			<linearGradient id="SVGID_4_" gradientUnits="userSpaceOnUse" x1="947.9621" y1="1050.7302" x2="1003.6455" y2="1050.7302" gradientTransform="matrix(1 0 0 1 -746 -881)">
			<stop  offset="0" style="stop-color:#4B46BD"/>
			<stop  offset="1" style="stop-color:#5CD4EE"/>
		</linearGradient>
		<path class="st14" d="M205,166.6c0,0-3,0.2-3,3.2c0,3,3.1,3.1,3.1,3.1l52.6,0.1v-0.9h-23.5c0,0-0.7,0.1-0.6-1V168
			c0-0.4,0.3-0.7,0.6-0.7h0.1c1.1,0,23,0.3,23,0.3v-1.2L205,166.6z"/>
		<line class="st15" x1="233.9" y1="167.9" x2="256.6" y2="168"/>
		<line class="st15" x1="233.9" y1="168.5" x2="256.6" y2="168.6"/>
		<line class="st15" x1="233.9" y1="169.1" x2="256.6" y2="169.2"/>
		<line class="st15" x1="233.9" y1="169.7" x2="256.6" y2="169.8"/>
		<line class="st15" x1="233.9" y1="170.4" x2="256.6" y2="170.5"/>
		<line class="st15" x1="233.9" y1="171.1" x2="256.6" y2="171.2"/>
	</g>
	<g id="book2">
		
			<linearGradient id="SVGID_5_" gradientUnits="userSpaceOnUse" x1="949.9221" y1="1057.5161" x2="1006.8232" y2="1057.5161" gradientTransform="matrix(1 0 0 1 -746 -881)">
			<stop  offset="0" style="stop-color:#F71F68"/>
			<stop  offset="1" style="stop-color:#F9C448"/>
		</linearGradient>
		<path class="st16" d="M207.2,172.9c0,0-3.3,0.3-3.3,3.6c0,2.8,2.3,3.5,2.9,3.6c0.1,0,0.2,0,0.3,0l53.7,0.1l0-1.1l-20.8-0.1
			c0,0-1.3,0-1.2-1.3V175c0,0-0.1-1,1-1c1,0,20.6,0.2,20.6,0.2v-1.4L207.2,172.9z"/>
		<line class="st15" x1="239.2" y1="174.7" x2="259" y2="174.8"/>
		<line class="st15" x1="239.2" y1="175.3" x2="259" y2="175.4"/>
		<line class="st15" x1="239.2" y1="175.9" x2="259" y2="176"/>
		<line class="st15" x1="239.2" y1="176.5" x2="259" y2="176.6"/>
		<line class="st15" x1="239.2" y1="177.2" x2="259" y2="177.3"/>
		<line class="st15" x1="239.2" y1="178" x2="259" y2="178.1"/>
		<line class="st15" x1="239.2" y1="178.6" x2="259" y2="178.7"/>
		<path class="st17" d="M237.5,168h1.8c0.5,0.4,0.9,0.9,1,1.5c0.3,1,0,1.3,0.6,2.5c0.4,0.7,0.8,1.2,1,1.6c0.1,0.1,0.1,0.8,0.1,0.9
			l0.1,1.8l-0.7-0.4l-0.7,0.7c0,0,0-2.4-0.3-2.8c-0.3-0.4-1.5-2.1-1.3-3.3C239.3,169.2,238.8,168.8,237.5,168z"/>
	</g>
	
		<linearGradient id="SVGID_6_" gradientUnits="userSpaceOnUse" x1="256.7784" y1="650.8384" x2="287.829" y2="612.0961" gradientTransform="matrix(1 0 0 1 0 -478)">
		<stop  offset="0" style="stop-color:#4B46BD"/>
		<stop  offset="1" style="stop-color:#5CD4EE"/>
	</linearGradient>
	<path class="st18" d="M266.4,135.4h4.1c1,0,1.8,0.8,1.8,1.8v42.3c0,1-0.8,1.8-1.8,1.8h-4.1c-1,0-1.8-0.8-1.8-1.8v-42.3
		C264.6,136.2,265.4,135.4,266.4,135.4z"/>
	
		<linearGradient id="SVGID_7_" gradientUnits="userSpaceOnUse" x1="172.2881" y1="650.5414" x2="203.3387" y2="611.7991" gradientTransform="matrix(1 0 0 1 0 -478)">
		<stop  offset="0" style="stop-color:#4B46BD"/>
		<stop  offset="1" style="stop-color:#5CD4EE"/>
	</linearGradient>
	<path class="st19" d="M181.9,135.1h4.1c1,0,1.8,0.8,1.8,1.8v42.3c0,1-0.8,1.8-1.8,1.8h-4.1c-1,0-1.8-0.8-1.8-1.8v-42.3
		C180.1,135.9,180.9,135.1,181.9,135.1z"/>
	
		<linearGradient id="SVGID_8_" gradientUnits="userSpaceOnUse" x1="810.634" y1="753.3834" x2="839.717" y2="717.0956" gradientTransform="matrix(0.7881 -0.455 0.37 0.6409 -631.1359 66.2849)">
		<stop  offset="0" style="stop-color:#4B46BD"/>
		<stop  offset="1" style="stop-color:#5CD4EE"/>
	</linearGradient>
	<path class="st20" d="M280.7,153.6l2.9-1.7c0.8-0.5,1.9-0.2,2.4,0.7l14.1,24.4c0.5,0.8,0.2,1.9-0.7,2.4l-2.9,1.7
		c-0.8,0.5-1.9,0.2-2.4-0.7L280,156C279.5,155.1,279.8,154,280.7,153.6z"/>
	
		<linearGradient id="SVGID_9_" gradientUnits="userSpaceOnUse" x1="265.8219" y1="652.212" x2="292.8261" y2="618.5183" gradientTransform="matrix(1 0 0 1 0 -478)">
		<stop  offset="0" style="stop-color:#F71F68"/>
		<stop  offset="1" style="stop-color:#F9C448"/>
	</linearGradient>
	<path class="st21" d="M273.9,141.9h4.1c1,0,1.8,0.8,1.8,1.8v35.8c0,1-0.8,1.8-1.8,1.8h-4.1c-1,0-1.8-0.8-1.8-1.8v-35.8
		C272.2,142.7,272.9,141.9,273.9,141.9z"/>
	
		<linearGradient id="SVGID_10_" gradientUnits="userSpaceOnUse" x1="180.341" y1="650.8859" x2="210.3803" y2="613.4058" gradientTransform="matrix(1 0 0 1 0 -478)">
		<stop  offset="0" style="stop-color:#F71F68"/>
		<stop  offset="1" style="stop-color:#F9C448"/>
	</linearGradient>
	<path class="st22" d="M189.6,136.7h4.1c1,0,1.8,0.8,1.8,1.8v40.7c0,1-0.8,1.8-1.8,1.8h-4.1c-1,0-1.8-0.8-1.8-1.8v-40.7
		C187.8,137.5,188.6,136.7,189.6,136.7z"/>
</g>
<g id="Man">
	<g>
		<path class="st23" d="M664.5,510.8c-1.5-6.3-2-14.4-3-14.6h-1.1l-10.6,0.1c0,0-2.2,10.1-3.3,14.3c-0.1,0.3-0.3,1-0.5,1.5
			c-0.2,0.7-0.2,1.5-0.2,2.2c0.2,3.8,1.7,7.1,5.1,8.8c3.8,1.9,6.7,3.7,10.6,0C665.4,519.4,666,517.1,664.5,510.8z"/>
		<path class="st23" d="M631,497.2l-13.4,0.7c0,0-5.3,9.2-13.1,11.4c-7.3,2.1-19.4,7.2-14,10.1c4,2.3,29.8,0.2,36.1,0.7
			c4.7,0.4,6-2.5,5.5-8.8C631.7,506.6,631,497.2,631,497.2z"/>
	</g>
	
		<linearGradient id="SVGID_11_" gradientUnits="userSpaceOnUse" x1="1189.2603" y1="2038.9491" x2="1263.126" y2="2038.9491" gradientTransform="matrix(1 0 0 1 -584.07 -1625.03)">
		<stop  offset="0" style="stop-color:#4F68CA"/>
		<stop  offset="1" style="stop-color:#5ACEED"/>
	</linearGradient>
	<path class="st24" d="M614.9,329.8c0,0-9,74-9.6,78.8c-0.6,4.8,3.1,29.5,3.1,34.2s8.8,55.2,8.8,55.2l14-0.6c0,0-2.8-74.3-2.5-77.9
		c0.3-3.6,15.6-46.7,15.6-46.7s1.1,11.4,1.1,15s4.2,108.7,4.2,108.7h12.2l17.3-154.8l-0.3-3L614.9,329.8z"/>
	
		<linearGradient id="SVGID_12_" gradientUnits="userSpaceOnUse" x1="1180.826" y1="1898.749" x2="1284.626" y2="1898.749" gradientTransform="matrix(1 0 0 1 -584.07 -1625.03)">
		<stop  offset="0" style="stop-color:#F87B58"/>
		<stop  offset="0.41" style="stop-color:#F89453"/>
		<stop  offset="0.71" style="stop-color:#F8C548"/>
		<stop  offset="1" style="stop-color:#F89C51"/>
	</linearGradient>
	<path class="st25" d="M656.1,186.9c0,0-13.4,5.2-16.4,6.4c-3,1.2-4.7,4.9-4.7,4.9s-1.5-0.9-1.5,1.6s1.2,8.2,2.2,9.7
		c1.6,2.5,3,5,4.3,7.6c1.2,2.6,0.8,8-0.5,8.8c-1.3,0.8-23.9,21.2-23.9,21.2L596.8,305l2.5,18.3l3.8,18c0,0-0.8,1.3,0.8,2.8
		s8.4,12.7,8.4,12.7l2.3-16.5l-7.7-24.5l-2.7-20.6l18-36.8l62.4,11.1l6.8,40.1l-12.6,34.2l-2.2,16.7l10.6-9.3
		c0.6-0.5,1.8-3.1,2.4-4.5l6.3-17.8l4.7-28.4c0,0-39.4-71-41.4-75.2c-0.9-1.9,0.1-6.5,0.6-8.8c0.5-2.1,1.5-4.8,2.5-5.6
		c1.5-1.6,2.2-3.9,2.6-6c0-1.5,0.6-7.3-0.9-5.9c-0.3,0.4-1.4-1.4-1.9-3.7C661.2,191.9,658.8,189.1,656.1,186.9z"/>
	
		<linearGradient id="SVGID_13_" gradientUnits="userSpaceOnUse" x1="1174.2747" y1="1912.4086" x2="1289.6129" y2="1912.4086" gradientTransform="matrix(1 0 0 1 -584.07 -1625.03)">
		<stop  offset="0" style="stop-color:#E1A1ED"/>
		<stop  offset="1" style="stop-color:#7658F4"/>
	</linearGradient>
	<path class="st26" d="M651,244.8c-1,0.9-2.5,0.8-3.4-0.1c-0.7-1.1-1.4-2.2-1.9-3.3c-1-2-8.7-13.3-8.7-13.3s-18.3,4.7-21.2,6.6
		c-3,2-5.7,4.7-6.7,8.2S594,287.5,593.3,290c-0.7,2.5-4.3,6.5-2.6,16.6s11.2,36,12.2,36.3c1,0.3,11.1-4.7,11.1-4.7s-8-32.2-8-35.4
		s7.2-12.3,10.1-18.5c2.9-6.2,5-11.6,6-14.3c1-2.7-8.6,53.5-8.6,53.5s-0.2,10.2,1.7,11.2c1.8,0.9,23.3,9.1,28.3,11
		c0.5,0.2,1.1-0.1,1.4-0.6l0,0l3.2-9.1c0-0.1,0.1-0.2,0.2-0.1c0.1,0,0.1,0.1,0.1,0.1l3,9.9c0.1,0.5,0.7,0.8,1.2,0.7l26.5-5.7
		c0,0-0.4-48.9,0.1-57.1c0.4-8-0.6-12.5,0.9-10.3c1.6,2.4,8.3,24.4,8.3,28.1c0,3.7-7.5,36.2-7.5,36.2l9.9,5.5
		c0,0,13.4-35.7,14.1-40.4c0.7-4.7,1-7.2-1.2-11.9c-2.2-4.7-14.4-47.4-14.4-47.4s-1.2-5.2-10.2-7.9s-15.7-6.7-17.3-6.6
		c-1.6,0.1-6.6,9.5-8.8,12.3C652,242.5,652.2,243,651,244.8z"/>
	
		<linearGradient id="SVGID_14_" gradientUnits="userSpaceOnUse" x1="630.9732" y1="630.3763" x2="665.6558" y2="630.3763" gradientTransform="matrix(1 0 0 1 0 -442)">
		<stop  offset="0" style="stop-color:#4F68CA"/>
		<stop  offset="1" style="stop-color:#5ACEED"/>
	</linearGradient>
	<path class="st27" d="M656,187c0,0-15.1,5.5-18.2,7.8c-2.3,1.7-2.8,3.3-2.8,3.3s-1.6-0.7-1.5,1.6c0.1,2.3-1.8-3.6-2.3-5.5
		c-0.4-1.9-0.5-7.2,3.6-11.1c4.1-3.9,8.6-6.8,12.4-6.6s6.9,1.3,9.9,4.2s3.7,2.7,4.3,3s3.7,3.6,4.1,7.2c0.4,3.6-0.7,8.9-0.7,8.9
		s-0.7-0.8-1.5-0.2c-0.8,0.6-1-3.4-3.6-8.3C657.8,187.7,656,187,656,187z"/>
	<path class="st28" d="M646.4,365.2c-1.7,5-8.4,14.8-12.8,20.7c-4.4,5.9-17.9,18.3-17,33.4c0.9,15.1,10,54,10,57.5s-3.4,20-6,25.1
		c-2.6,5.1-3.8,14.2-2.5,14.2c2.4-0.1,4.9-0.4,7.3-1c2.2-0.5,4.4-1,6.5-1.7c0.9-0.4,1.1-3.3,1.1-3.3c0.1-1.2-0.1-2.5-0.4-3.6
		c-0.6-1.9-1.1-3.8-1.4-5.7c-0.5-14.2-1.8-47.1-1.5-49.4c0.5-4.3-3-26,0.2-36.7C633.1,404,646.4,365.2,646.4,365.2z"/>
	<path class="st28" d="M614,338.2l-2.3,17.8c0,0,2.3,3.7,3,0.6c0.7-3.1,5.5-8.9,2.5-13.1S614,338.2,614,338.2z"/>
	<path class="st28" d="M679,343.1l-0.8,8.5l-1,8.2c0,0-3.4,2.5-3.3-0.7c0.1-3.2-5.7-8-1.3-11.2C677,344.7,679,343.1,679,343.1z"/>
	<path class="st28" d="M636.9,228.2c0.6-0.1-2.9,0.8,0.2-0.2c5.3-1.7,3.1-11.7,3.1-11.7s0.5,3.7,5.5,5.2s6.3,0.4-1.2,3.9
		s-3.6,4.7-3.1,9.3"/>
	<path class="st28" d="M621.9,273.4l-8.4,51c0,0,0.1,9.1,1.7,10.4c1.6,1.3,7,2.2,8.2,3.1c1.2,0.9,14.2,5.2,10.8-2.1
		c-0.8-1.6-18.3-11.4-10.5-21.7c7.8-10.3,6.4-24.5,2.7-34.4c-2.2-5.8-3.3-12-3-18.2L621.9,273.4z"/>
</g>
<g id="woman_check_phone">
	<g>
		<path class="st23" d="M322.5,492.7l-8.6,2c0,0-2.1,6.8-3.1,10.5c-0.1,0.2-0.3,0.9-0.4,1.2c-0.1,0.7-0.2,1.2-0.2,1.9
			c0.2,3.3,1.4,6.1,4.3,7.5c3.2,1.6,5.7,3.1,9.1,0c3.4-3.1,4-5.1,2.6-10.5S322.5,492.8,322.5,492.7"/>
		<path class="st23" d="M372.7,504c-5.8-1.8-8.3-9-8.3-9l-11.7-0.6c0,0-0.3,7.3-0.6,11.3c-0.4,5.3,0.6,7.7,4.1,7.3
			c4.7-0.4,24,1.3,27-0.6C387.2,510,378.2,505.7,372.7,504"/>
	</g>
	
		<linearGradient id="SVGID_15_" gradientUnits="userSpaceOnUse" x1="298.3252" y1="-271.4854" x2="370.4064" y2="-271.4854" gradientTransform="matrix(1 0 0 -1 0 140)">
		<stop  offset="0" style="stop-color:#4F68CA"/>
		<stop  offset="1" style="stop-color:#5ACEED"/>
	</linearGradient>
	<path class="st29" d="M304.4,327.3c0,0-4.4,6-5.8,22.3c-1.4,16.2,1.7,47.1,3.1,53.1c1.4,6,7.2,61.7,8.6,65.8
		c1.4,4.1,3.4,26.3,3.4,26.3l9.3,0.3c0,0,2.8-29,2.8-36.6s3.9-80.2,3.6-85.5c-0.3-5.3,1-3.6,1-3.6s8.1,25.9,10.5,30.3
		s6.7,12.8,6.7,12.8s1,27.2,2.2,42.9c1.2,15.7,2.4,40.5,2.4,40.5l12.5-0.3c0,0,2.9-41.4,2.9-50.1c0-8.7,2.6-29.6,2.6-32
		c0-2.4-8.1-44.7-8.1-44.7l-5.7-41.3L304.4,327.3z"/>
	
		<linearGradient id="SVGID_16_" gradientUnits="userSpaceOnUse" x1="307.0563" y1="540.588" x2="382.1409" y2="540.588" gradientTransform="matrix(1 0 0 1 0 -272)">
		<stop  offset="0" style="stop-color:#F87B58"/>
		<stop  offset="0.5" style="stop-color:#F8C548"/>
		<stop  offset="1" style="stop-color:#F89C51"/>
	</linearGradient>
	<path class="st30" d="M319.2,190.7c-4.3,1.6-9.7,22.7-9.7,22.7l-0.1-0.1l-2.4,2.4l1,4.5l4.1,69.8l21.4-4.6l18.7-19.8l11.7,5.5
		c0,0,0.9,25.4,1,26.7s2.1,39.7,2.1,42.2c0.1,2.7,11.5,14.7,13.4,13.4c5.6-3.9-3.7-11.2-6-13c-1.3-1-4.1-36.7-4.3-40.9
		c-0.2-4.2,6.5-14.9-5.1-29c-8.5-10.3-13-36.7-20.1-66.7c-3.7-15.6-6-20.2-9.6-20.2C331.9,183.7,327.3,187.7,319.2,190.7"/>
	
		<linearGradient id="SVGID_17_" gradientUnits="userSpaceOnUse" x1="284.8022" y1="-151.515" x2="374.2716" y2="-151.515" gradientTransform="matrix(1 0 0 -1 0 140)">
		<stop  offset="0" style="stop-color:#E1A1ED"/>
		<stop  offset="1" style="stop-color:#7658F4"/>
	</linearGradient>
	<path class="st31" d="M315.6,250.1c-0.1,0.2-8.1,4-11.6,8.3c-3.5,4.3-6.3,10.4-6.3,10.4s-5.1,12.1-8.6,21
		c-1.9,4.8-8.1,24.4-0.7,25.1c7.1,0.7,22.7-16,25.2-19.1l2.7-6c0.2-0.8-4.2-8.9-4.1-9.6c0.1-1.2,10.4-7.1,11.9-3.6
		c0.5,1.2,1.9,4.6,2.3,5.6c1,2.6-13.9,7.5-13.9,9.8c0,2.8-1.2,13.2-3.3,18.3c-2,5.1-5.1,17.2-5.1,17.2l52.3,0.1c0,0-1.8-23.3-1-31
		c0,0,2.2-25.4,3.5-27.8c1.3-2.5,3.5,31.3,3.2,38.3c-0.3,4.8,4.1,33.9,5.4,35c2,1.6,6.8-1.6,6.8-1.6s-0.2-31.9-0.4-37.2
		c-0.2-5.3,0.1-48.2-6.9-55.9c-7-7.7-8.9-7.5-14.7-5.5s-8.7,4-16.6,5.3c-4.8,0.9-9.9,0.2-14.4-1.8c1.2-4.5-1.4,3.1-1,1"/>
	
		<linearGradient id="SVGID_18_" gradientUnits="userSpaceOnUse" x1="297.6881" y1="-89.3115" x2="366.355" y2="-89.3115" gradientTransform="matrix(1 0 0 -1 0 140)">
		<stop  offset="0" style="stop-color:#4B44BE"/>
		<stop  offset="1" style="stop-color:#5BD3EF"/>
	</linearGradient>
	<path class="st32" d="M323.3,178.7c0,0-10.4,0.4-13.4,10.5c-2.9,10.2-3.4,24.4-3.5,26.7c-0.1,2.4,1.1,18.3-0.2,22.8
		c-1.2,3.9-4.5,11.2-6.6,16.2c-0.8,2-1.4,4.1-1.8,6.2l-0.3,1.7c0.5,1.8,2.4,2.8,4.3,2.2c0.1-0.1,0.3-0.1,0.3-0.1c1-0.5,2-1,3-1.6
		c3.1-1.9,7.1-6.9,10.3-8.5c3.3-1.6,7.1-9.2,7.7-9.8c0.5-0.6,0.3-2.5,0.4-4.3c0.3-9.5-1.4-18.2-3.7-22.8c-2.2-4.6-7.3-13.6-3.8-18.7
		c3.5-5.2,10.9-9.3,11.3-10.5c0.3-1.2,0.5,5,4.5,7.2c3.9,2.2,9.4,8.2,9.4,9.5c0,1.3,1.3,5.6-2.4,13c-3.7,7.4-6.7,16.8-1.5,23.9
		c5.2,7.1,18.2,16.9,19.1,19.1c0.9,2.2,0,12.1-0.3,17.7c-0.3,5.6,10.5-9.5,10.2-16.8c-0.4-7.3,0.9-10.4-6.5-21.5
		c-7.4-11.1-12.3-30.2-12.4-34.9s-2.4-17.5-6.9-21.2c-3.8-3.1-4.7-6.2-12.6-6.2C326.4,178.4,324.8,178.6,323.3,178.7"/>
	<g>
		<g>
			<g class="st28">
				<g>
					<g>
						<defs>
							<rect id="SVGID_19_" x="298.1" y="189" width="30.1" height="327.6"/>
						</defs>
						<clipPath id="SVGID_20_">
							<use xlink:href="#SVGID_19_"  style="overflow:visible;"/>
						</clipPath>
						<g class="st33">
							<path d="M319.3,276.1c-1.6,0.7-3.1,1.4-4.5,2.2l-1.6,0.8c0,0-16.6,17.4-15.9,16.4c3.2-4,13.2-25.2,16.5-30.1
								c3.5-5.1,5.5-3.1,9.4,10.5"/>
						</g>
					</g>
				</g>
			</g>
			<g class="st34">
				<path d="M318.5,494.6c0.1,0.2,0.1,0.4,0.1,0.6c0.1,1.4,0,5-1.6,7.3c-2,3,2.7,9.6,2.7,11.3s-2.2,3.1-3.7,2.7
					c-1.5-0.5-7.8-4-5.3-11.6c1-3.1,1.6-5.8,2.2-7.5c0.3-0.9,0.6-1.7,0.9-2.6c0.1-0.4,0.1-0.8,0.1-1.2c-0.1-0.5-0.1-1.1-0.1-1.7
					c-0.3-2.9-12.8-94.9-13.2-98.4c-0.4-3.1-2.2-22.6-2-34c-0.1-1-0.1-2-0.1-2.9c0-0.3,0.1-1.4,0.1-1.8c0.1-1,0.1-2.1,0.3-3.1
					c-0.2-0.9-0.1-0.9,0-2.2s0-2.2,0.1-3c1.2-7.7,4.1-16.5,5.4-19l0.4-1.4c0,0,3.1-11.7,4.2-13.8c0.9-2,3.5-12.3,3.3-14.4
					c-0.1-1.2,4.1-5.8,4.1-5.8l0.9-0.7c0.4-0.1,0.9,0,1.2,0.1c0.9,0.4,4.5-2.7,5-0.7c4.2,13.4,5.9,19.1-1.5,27.1
					c-7.4,8-0.6,15.1-0.5,20.8c0.3,13.9-6.4,12.4-6.8,21c-0.4,8.6,1.5,14.9,1.6,19.4c0.3,14.9,0.1,17.8-0.7,23.6
					c-0.8,5.8-4.8,16.9-0.3,38.7c4.5,21.8,3.8,23.7,3.3,36C318.1,489.7,318.5,494.6,318.5,494.6"/>
			</g>
			<path class="st35" d="M311.6,269.9l0.1-0.1c0.5-0.3,3.6-1.8,5.8-2.7c2.4-1,5.4,7.3,6.1,8.9c0.1,0.1,0.1,0.1-0.5,0.2
				c-1.8,0.2-3.5,0.5-5.2,1c-2.5,0.6-5.3,2.6-5.4,2.6c-0.1,0.1-0.9-1.5-2.3-5.2c-0.3-0.9-1-3.1-0.4-3.6L311.6,269.9z"/>
		</g>
		<path class="st28" d="M330.4,226.1c1.6,0.6,3.4,0.2,4.6-1c2.1-2.1-0.8,5.2-0.3,6.8C335.2,233.5,330.4,226.1,330.4,226.1z"/>
		<path class="st35" d="M316.2,289.1c0,0,9.9-6.5,10-6.2c0.3,0.6,1.1,2.9,1.1,2.9s0.8,1.5,0.5,2c-0.3,0.5-9.6,4.5-9.6,4.5
			c-0.4-0.1-0.7-0.3-0.9-0.6C316.9,290.8,316.6,290,316.2,289.1z"/>
	</g>
</g>
</svg>
