<?xml version="1.0" encoding="utf-8"?>
<!-- Generator: Adobe Illustrator 23.0.3, SVG Export Plug-In . SVG Version: 6.00 Build 0)  -->
<svg version="1.1" id="Layer_1" xmlns="http://www.w3.org/2000/svg" xmlns:xlink="http://www.w3.org/1999/xlink" x="0px" y="0px"
	 viewBox="0 0 968.5 618.3" style="enable-background:new 0 0 968.5 618.3;" xml:space="preserve">
<style type="text/css">
	.st0{fill:#F5F5FC;}
	.st1{fill:#F8F8FF;}
	.st2{fill:#E9EDFB;}
	.st3{fill:#B0C0F4;}
	.st4{fill:#FFFFFF;}
	.st5{fill:#E1E6FB;}
	.st6{fill:none;stroke:#FFFFFF;stroke-width:3;stroke-linecap:round;stroke-linejoin:round;}
	.st7{fill:#BAC5F4;}
	.st8{fill:url(#SVGID_1_);}
	.st9{fill:url(#SVGID_2_);}
	.st10{fill:url(#SVGID_3_);}
	.st11{fill:#7A5BF5;}
	.st12{fill:#4B44BE;}
	.st13{fill:url(#SVGID_4_);}
	.st14{fill:url(#SVGID_5_);}
	.st15{fill:url(#SVGID_6_);}
	.st16{fill:url(#SVGID_7_);}
	.st17{opacity:7.000000e-02;enable-background:new    ;}
	.st18{fill:url(#SVGID_8_);}
</style>
<title>bg5</title>
<g>
	<path class="st0" d="M57.1,393c0,0-151.6-132.9,39.5-195.7c95.3-31.3,117.7-47.4,191.8-108c106-86.8,244.9-136.9,425.5,16.1
		s316.9,200.4,198,292.1c-133.7,103.1-52.3,156.1-69.1,185.2c-4.5,7.7-32.7-25.3-94.9,8.7c-141.7,77.5-213.8-40.4-318-11
		c-98.3,27.8-148.8-33.6-180.8-9.6c-47.7,35.8-77.6,35.3-95.5,25.9c-15-7.9-23.8-24.2-23.1-41.3c0.8-19.4,0.9-55.8-6.9-82.3
		C111.8,433.1,82.9,412.7,57.1,393z"/>
	<path class="st1" d="M58.8,394.6c0,0-153.1-135.7,39.9-199.9c96.2-32,118.8-48.4,193.6-110.4c107-88.6,247.2-139.9,429.4,16.4
		s324.3,211,199.8,298.5c-86.2,60.6-57,31-83.8,51.8c-57,44-186.6-38.7-291.8-8.6c-99.2,28.3-195.7-14-238.8-16.9
		c-17.1-1.1-86-1.4-120.7-3.2c-19.4-1-40.8,7.5-67.8,1.1C78,413.7,84.9,414.7,58.8,394.6z"/>
	<g id="books">
		<path class="st2" d="M223.3,142.3l-49.7,33.5c-0.7,0.4-1.8-6.7-2.5-6.4l-33.8,13l-0.4,242.9l211.5-2.6l-1.6-329.2L282.4,94
			L223.3,142.3z"/>
		<path class="st3" d="M206.9,150.2l-51.8,25.4l-0.1,6.8l172.5-1l-0.7-62.1l-74.4-1L235.8,131c-2.9,2.2-6.5,4.6-11,7.6
			C217.3,143.5,212.8,146.8,206.9,150.2z"/>
		<polygon class="st3" points="155.1,192.5 155.1,253.8 327.8,253.5 327.8,192.5 		"/>
		<polygon class="st3" points="155.6,264.8 155.6,326.1 328.2,325.7 328.3,264.8 		"/>
		<polygon class="st3" points="156.5,338.1 156.5,399.4 329.2,399.1 329.2,338.1 		"/>
		<polygon class="st4" points="215.2,299.6 223.3,289 253.4,315.8 245.8,326.7 		"/>
		<polygon class="st4" points="155.5,276.7 175,276.8 175.1,326.2 155.6,326 		"/>
		<polygon class="st0" points="198.1,285.1 206.1,280.6 226.4,321.2 218.5,326.6 		"/>
		<polygon class="st4" points="188.7,271.3 198.2,271.3 198.4,326.4 188.7,326.1 		"/>
		<polygon class="st0" points="175.1,288.1 188.9,288.4 188.7,326.3 174.9,326 		"/>
		<polygon class="st4" points="250.7,276.6 270.1,276.7 270.3,326.1 250.7,325.8 		"/>
		<polygon class="st4" points="283.9,271.2 293.3,271.2 293.6,326.2 283.8,326 		"/>
		<polygon class="st0" points="270.3,288 284.1,288.2 283.8,326.1 270,325.9 		"/>
		<polygon class="st4" points="156.5,343.2 171.4,343.3 171.5,399.9 156.6,399.6 		"/>
		<polygon class="st0" points="171.4,351.7 181.5,351.6 181.2,399.7 171.2,399.6 		"/>
		<polygon class="st4" points="181.5,361.6 195.2,361.8 194.9,399.7 181.1,399.5 		"/>
		<polygon class="st0" points="265.5,174.1 265.5,181.2 320.7,181.6 320.7,174.1 		"/>
		<polygon class="st4" points="265.4,168.5 265.6,174.2 301.6,174.4 301.3,168.3 		"/>
		<polygon class="st4" points="155.2,204.4 174.7,204.5 174.8,253.9 155.2,253.6 		"/>
		<polygon class="st0" points="306.9,212.3 298.7,207.8 277.6,248.4 285.9,253.7 		"/>
		<polygon class="st4" points="318.5,198.5 328,198.5 328.2,253.5 318.5,253.3 		"/>
		<polygon class="st0" points="305.5,215.6 319.3,215.8 319.1,253.7 305.3,253.5 		"/>
		<polygon class="st0" points="212.6,246.6 212.6,253.7 267.8,254.1 267.8,246.6 		"/>
		<polygon class="st4" points="221.2,240.8 221.5,246.5 257.5,246.7 257.2,240.6 		"/>
	</g>
	<g id="flower">
		<path class="st0" d="M745.5,495.6c0,0-16.6,19.6-3,20.1s41.5,16.3,46.8,2.2s16-21.2,9.5-22.8s-12.4-8.2-26.1-7.1
			S745.5,495.6,745.5,495.6z"/>
		<path class="st5" d="M741.2,400.3c0,0-7.8,0.8-7.8,10.5s5,93.1,24,94.8c12.3,1.1,25.4,1,31.9,0.4c2.8-0.3,5.5-8.7,6-12.1
			c2.5-16.6,5.7-57,6.4-80.5c0.1-4.8-3.1-11.1-4.8-12.7C787.4,392,741.2,400.3,741.2,400.3z"/>
		<path class="st2" d="M833.1,238.9c-3-2.8-7.2,1-5.6,4.9c1.5,3.8,2.6,10.3-3.5,17.3c-9.4,10.9-43.3,47.7-42.9,71.4s-7,30.3,0,39.3
			s35.2,8.7,42.6-10.5s26.1-26.9,25.7-54.3s-3.6-39.4-7-48.8C840.4,252.3,837,242.6,833.1,238.9z"/>
		<path class="st6" d="M781.8,396.8c0,0,3-42.9,36.5-61.6c21-11.7,22.4-52.3,17.4-61.5"/>
		<path class="st7" d="M786.1,414.8c0,0,10.6,42.2-0.9,75.7"/>
		<path class="st7" d="M810.2,229.6c-3.2-2.7-7.7,0.9-6,4.7c1.6,3.6,2.7,9.9-3.7,16.6c-10.1,10.4-46.3,45.6-46,68.3s0,35.9,7.5,44.5
			s25,1.7,32.9-16.6s33.2-26.1,32.8-52.4c-0.4-26.2-3.9-37.7-7.5-46.7C818,242.3,814.4,233.1,810.2,229.6z"/>
		<path class="st6" d="M767.8,397.7c0,0-11.8-58.3,16.9-93.4c11.5-14,28.5-42.1,28.4-55.7"/>
		<path class="st2" d="M720.7,238.9c2.9-2.8,7.1,1,5.6,4.9c-1.5,3.8-2.5,10.3,3.5,17.3c9.3,10.9,42.9,47.7,42.6,71.4s0,37.5-7,46.6
			s-23.1,1.8-30.4-17.4s-30.7-27.3-30.4-54.7s3.6-39.4,6.9-48.8C713.5,252.3,716.8,242.6,720.7,238.9z"/>
		<path class="st6" d="M758.4,398.7c0,0,13.5-53-13.1-88c-10.6-14-27.7-34.8-27.5-48.3"/>
		<path class="st3" d="M699.1,331.3c0,0-27.8,0.6-42.8-33.1s18.8-40.6,43.6-22.5s14.7,25.6,44.3,42.3s23.2,49.8,14,58.6
			s-26.6,22.5-38.2-13.3S699.1,331.3,699.1,331.3z"/>
		<path class="st6" d="M753.1,399.1c0,0,2-84.4-81.7-107.6"/>
		<path class="st7" d="M741.2,400.3c0,0,34.1-5.5,47.4-2.6s-23.5,6.3-23.5,6.3S747.5,404.8,741.2,400.3z"/>
	</g>
	<path class="st7" d="M327.8,409.2c0,0-38.4-30.3-44.9-60s7.6-50.3,28.1-53.5c20.5-3.2,33-13,104.9,11.4s154.7-18.9,154.7-18.9
		s67.6-31.1,101-23.5c38,8.6,46.1,31.6,35.8,72.7s-45.3,72.2-45.3,72.2L327.8,409.2z"/>
	<path class="st7" d="M310.4,406c0,0-6,0-7,6s1,25,4,31s17.1,5.7,17.1,5.7l342.9-0.7c0,0,11.4,0.1,14-9c2.1-7.3,5.1-14.6,5.4-19.7
		c0.3-6-4-11.2-9.9-12c-3.7-0.5-7.5-0.7-11.2-0.7C639.6,406.6,310.4,406,310.4,406z"/>
	<polygon class="st4" points="294.4,499 317.4,449 335.4,449 311.4,499 	"/>
	<polygon class="st4" points="648.4,449 669.4,500 684.4,499 664.4,449 	"/>
	<path class="st3" d="M333.7,406.6c0,0-31.6-24.4-33.1-34.5c-1.9-13.2,10-32.8,56.2-24.1s127.7,32.2,171.9,20.2
		s99.8-62.4,103.8-65.1s51.3-25.9,62,9.5S662,406.2,662,406.2L333.7,406.6z"/>
	<polygon class="st7" points="487.4,0 488.7,67.7 490.3,67.4 491.7,0 	"/>
	<path class="st7" d="M453.1,123.2c0,0-12.6-56.5,37.3-57.1c47.2-0.5,35.1,60,35.1,60L453.1,123.2z"/>
	<path class="st4" d="M452.6,123.2c0,0,40.1-17.4,72.9,2.7C525.5,125.9,491,144.2,452.6,123.2z"/>
	<path class="st4" d="M472,76.2c0,0-17.5,6.5-13.9,36.2"/>
	
		<linearGradient id="SVGID_1_" gradientUnits="userSpaceOnUse" x1="489.3559" y1="565.42" x2="489.6559" y2="343.66" gradientTransform="matrix(1 0 0 -1 0 620)">
		<stop  offset="0" style="stop-color:#FFFFFF"/>
		<stop  offset="1" style="stop-color:#FFFFFF;stop-opacity:0"/>
	</linearGradient>
	<polygon class="st8" points="452.6,123.2 417.2,250.5 562,249.1 525.5,125.9 	"/>
</g>
<g id="bag">
	<title>Bag</title>
	
		<linearGradient id="SVGID_2_" gradientUnits="userSpaceOnUse" x1="2185.6565" y1="-1407.4197" x2="2270.7864" y2="-1446.8497" gradientTransform="matrix(1 0 0 -1 -1511.98 -945.5601)">
		<stop  offset="0" style="stop-color:#7A5BF5"/>
		<stop  offset="1" style="stop-color:#CD94EF"/>
	</linearGradient>
	<path class="st9" d="M699.2,461.4c0,0-11.1,40.3-9.3,44.8c1.8,4.5,10.8,5.4,14.8,6.3c4,0.9,40.3,10.4,44,10.6s3.4,0.7,5,0.7
		c1.6,0,21.8-6.8,22.5-9.2c0.7-2.4,1.3-4,0.7-7c-0.6-3-9.8-41.4-12.3-42.2S699.2,461.4,699.2,461.4z"/>
	
		<linearGradient id="SVGID_3_" gradientUnits="userSpaceOnUse" x1="2198.8252" y1="-1396.9722" x2="2255.4053" y2="-1423.1821" gradientTransform="matrix(1 0 0 -1 -1511.98 -945.5601)">
		<stop  offset="0" style="stop-color:#7A5BF5"/>
		<stop  offset="1" style="stop-color:#E5A4ED"/>
	</linearGradient>
	<path class="st10" d="M697.3,468.6c0,0,0.8-6.3,1.9-7.2c1.1-0.9,4.2-5,7.2-5.2c3-0.2,51.3,5.9,53.1,6.3s4.2,1.3,5,2.8
		s-7,3.3-8.5,8.1s-29.1,14.9-35.9,15.6C713.3,489.7,697.3,468.6,697.3,468.6z"/>
	<path class="st11" d="M713.1,457.8c0,0,5.2-11.3,7.7-13.4c2.2-1.9,10.1-6,14.9,0.1c5.4,6.9,4.9,14.9,4.9,15.9s-5.3,0.1-5.3,0.1
		s1.7-8.2,0.2-11c-1.4-2.6-2.2-5.7-7.2-5.4c-5,0.3-6.8,3.1-8.3,5.7c-1.3,2.6-2.3,5.3-3.2,8.1C716.6,458.2,713.1,457.8,713.1,457.8z"
		/>
	<path class="st11" d="M721.4,458.5c0,0,5.2-13.8,7.7-16.4c2.2-2.3,10.6-6.9,15.4,0.5c5.4,8.4,4.3,17.8,4.3,18.9s-5.3,0.2-5.3,0.2
		s1.6-10,0.1-13.5c-1.4-3.2-2.2-7-7.1-6.6c-4.9,0.4-6.8,3.7-8.3,7c-1.3,3.2-2.3,6.5-3.2,9.9C725,459,721.4,458.5,721.4,458.5z"/>
	<path class="st11" d="M753.9,476.2c0,0-4.6,38.7-4,41.3c0.6,2.6,2.1,6.3,3.2,6.3c1.1,0,2.9-0.2,2.2-1.1c-2.3-3.3-3.3-7.4-2.7-11.3
		c0.7-6.3,3.4-38,3.4-38L753.9,476.2z"/>
	<circle class="st4" cx="718.9" cy="489" r="2.8"/>
</g>
<g>
	<g id="woman">
		<g>
			<path class="st12" d="M527.2,416.4c-2.9-4.8-5.2-6-12.3-6.2c-7.1-0.2-16.5-0.1-16.5-0.1l-0.1,10.1c0,0,7.8,4.5,12,6.8
				c0.2,0.1,0.9,0.5,1.4,0.8c0.7,0.3,1.5,0.6,2.3,0.8c4.1,0.9,7.9,0.4,10.6-2.2C527.5,423.4,530.1,421.2,527.2,416.4z"/>
			<path class="st12" d="M473.7,407.5c-0.2,0.2-0.9,0.7-1.3,1c-0.6,0.5-1.1,1.2-1.6,1.8c-2.3,3.5-3.4,7.1-1.8,10.6
				c1.7,3.8,2.8,7.1,8.2,6.1c5.4-0.9,7.5-2.6,10.4-9s6.3-15.3,6.2-15.3l-9.3-3.8C484.4,398.9,477.3,404.5,473.7,407.5z"/>
		</g>
		
			<linearGradient id="SVGID_4_" gradientUnits="userSpaceOnUse" x1="1277.9457" y1="-775.9096" x2="1125.4733" y2="-775.9096" gradientTransform="matrix(1 0 0 -1 -707.48 -376.98)">
			<stop  offset="0" style="stop-color:#5ACEED"/>
			<stop  offset="1" style="stop-color:#538BD6"/>
		</linearGradient>
		<path class="st13" d="M499.1,410.5c0,0,0.1,10.2-1.5,10.4c-1.7,0.2-24.5-3.1-33.6-3.5c-9.1-0.5-29.7-6.4-39.8-17.8
			c-8.8-9.9-7.4-20.8-0.9-20.8s12.4-5.5,28.8,2.3c16.4,7.8,33.8,9.1,43.6,8.4c9.8-0.8,37.2-5.8,39.3-7.4c2.1-1.6,12.4-6,26.7-4.5
			s7.5,12.9,4.5,17.3c-4.2,6.1-14.2,12.6-22.6,12.9S499.1,410.5,499.1,410.5z"/>
		
			<linearGradient id="SVGID_5_" gradientUnits="userSpaceOnUse" x1="469.5835" y1="411.0774" x2="554.6358" y2="411.0774" gradientTransform="matrix(1 0 0 1 0 -120)">
			<stop  offset="0" style="stop-color:#F87B58"/>
			<stop  offset="0.5" style="stop-color:#F8C548"/>
			<stop  offset="1" style="stop-color:#F89C51"/>
		</linearGradient>
		<path class="st14" d="M482.1,232.8c-4.8,1.8-10.9,25.6-10.9,25.6l-0.1-0.1l-0.7,3.3l-0.8,4.3l1.6,25.9l15.6,7.8l35.7,9.6l9.9,14.1
			c0,0,22.1,22.5,22.3,24.1c0.1,1.6-23.8,9.5-26.1,9.8c-5.5,0.8,35.2-9.1,22.1-24.9c-5.5-6.8-13.7-27.1-29.8-40.6
			c-9.3-7.8-6.7-29.9-10-43.9c-4.1-17.5-6.7-22.8-10.8-22.8C496.4,225,491.2,229.4,482.1,232.8"/>
		
			<linearGradient id="SVGID_6_" gradientUnits="userSpaceOnUse" x1="433.4932" y1="-38.7471" x2="562.9027" y2="-38.7471" gradientTransform="matrix(1 0 0 -1 0 292)">
			<stop  offset="0" style="stop-color:#E1A1ED"/>
			<stop  offset="1" style="stop-color:#7658F4"/>
		</linearGradient>
		<path class="st15" d="M532.7,289.4c-7.5-6.9-10-8.5-16.6-6.2s-9.8,4.5-18.7,5.9c-5.5,1-11.2,0.2-16.3-2l-18.4,1.8
			c-2.3-0.3-28.5,48.9-29.2,59.1c-0.4,6.3,13.9,16,17.8,16.9c1.6,0.4,4.5-15.1,5.4-16.5l-6-1.8c1.1-2.7,4.7-9.3,7.1-12.8
			c0.7-1.1,6.4-10.5,7.2-14.1c0.1,0.3,1,7.1,1.8,9.3c1.5,4,3.5,6.3,3.5,9.5s-0.4,16-2.7,21.7c-2.3,5.7-5.7,19-5.7,19l58.9-0.3
			c0,0-2.1-25.3-1.3-34c0,0-0.9-3.5,0.8-8.6c2.9-8.4,3.7-20.8,3.2-22.8c-0.7-3.1,17.3,22.9,21.3,29.4c1.7,2.7-20.8,7.5-22.6,9.6
			c-1.9,2.2,1.9,8.1,1.9,8.1s39.1-4.8,38.9-10.7S541.4,297.3,532.7,289.4z"/>
		
			<linearGradient id="SVGID_7_" gradientUnits="userSpaceOnUse" x1="459.4201" y1="16.2216" x2="532.3234" y2="16.2216" gradientTransform="matrix(1 0 0 -1 0 292)">
			<stop  offset="0" style="stop-color:#5ACEED"/>
			<stop  offset="1" style="stop-color:#538BD6"/>
		</linearGradient>
		<path class="st16" d="M486.8,218.8c0,0-10.9,0.4-14.1,11.9c-3.2,11.5-3.6,27.5-3.7,30c-0.1,2.6,1.1,18-4.8,24.4
			c-5.1,5.5-3,10.9-4.3,15.3l-0.6,7.3c0.1,0.9,0.7,1.6,1.6,1.9c0.8,0.2,3.5-1,4-1.2c6.8-2.7,6.8-4.9,9.4-7.1c2.1-1.8,8-6,9.8-7.6
			c1.8-1.7,3-3.1,3.1-5.2c0.3-10.6-1.5-20.5-3.8-25.7c-2.3-5.2-6.8-14-3.1-19.8c3.7-5.8,10.5-11.7,10.9-13.1s0.6,5.6,4.7,8.1
			c4.1,2.5,7.6,5.9,8.9,9.3c1.1,2.8,2.5,7.6-1.4,16c-3.9,8.3-7.1,19-1.6,26.9c5.5,7.9,17.1,16.5,19,20.5c2.1,4.4,0.1,14.8-0.3,21.1
			c-0.4,6.3,12.3-10.9,11.9-19.1s1-11.7-6.9-24.2s-12.9-34-13.1-39.2c-0.2-5.2-2.5-19.6-7.2-23.8c-4.1-3.5-5-6.9-13.3-6.9
			C490.1,218.5,488.5,218.6,486.8,218.8"/>
		<path class="st17" d="M461.9,392.7l55.2,0.3c0,0-6.5,5.1-9.6,5.6s-16.4,7.2-21.4,4.7C482.7,401.4,461.9,392.7,461.9,392.7z"/>
		<path class="st17" d="M492.7,268.6c0,0,5.2,1.3,7.3-1.7c4.8-6.8,0.4,3.5,0.4,3.5s-1.4,4-1.3,6
			C499.2,278.4,493.6,268.9,492.7,268.6"/>
		<path class="st17" d="M472.1,303.6c-0.6,0.8-1.6,1.4-2,3.4c-0.8,3.2-1.7,6.8-3.9,10.1c-1.3,1.9-0.6,9.5,1.6,14.2
			c0.6,1.4,2.6,4.9,2.5,5.7l-0.1,6.9h5.9c0,0,5.1,0.5,4-3.6c-0.9-3.7-5.7-17.5-2.5-20.5c6.1-5.6-1.6-16.8,1.3-20.4
			c2.5-3.1,6-5.3,6-6.4c0-0.4-0.9,0.9-1.6,1.3c-1.2,0.9-1.8,1.6-2.9,2.2c-1.1,0.7-2.8,1.9-3.9,2.8
			C474.8,300.7,473.4,302.1,472.1,303.6z"/>
	</g>
	<g id="laptop">
		<path class="st4" d="M449,347.9c0,0,0-3.6,3.5-3.7c3.5-0.1,78.7,0,78.7,0s3.3,0.4,3.4,3.1c0.1,2.7,0.1,42.4,0.1,42.4
			s0,3.1-3.2,3.2s-79.9,0.1-79.9,0.1s-2.9-0.7-2.8-3.6C448.8,386.4,449,347.9,449,347.9z"/>
		
			<linearGradient id="SVGID_8_" gradientUnits="userSpaceOnUse" x1="495.3081" y1="-484.519" x2="488.8113" y2="-484.519" gradientTransform="matrix(1 0 0 -1 0 -116)">
			<stop  offset="0" style="stop-color:#59C2E9"/>
			<stop  offset="1" style="stop-color:#5BD3EF"/>
		</linearGradient>
		<circle class="st18" cx="492" cy="368.5" r="3.3"/>
	</g>
</g>
</svg>
