<?xml version="1.0" encoding="utf-8"?>
<!-- Generator: Adobe Illustrator 23.0.3, SVG Export Plug-In . SVG Version: 6.00 Build 0)  -->
<svg version="1.1" xmlns="http://www.w3.org/2000/svg" xmlns:xlink="http://www.w3.org/1999/xlink" x="0px" y="0px"
	 viewBox="0 0 935.2 695.8" style="enable-background:new 0 0 935.2 695.8;" xml:space="preserve">
<style type="text/css">
	.st0{fill:#F8F8FF;}
	.st1{fill:#F5F5FC;}
	.st2{fill:#E9EDFB;}
	.st3{fill:#FFFFFF;}
	.st4{fill:#E9EDFA;}
	.st5{fill:#BAC5F4;}
	.st6{fill:#A2B7ED;}
	.st7{fill:#E9EDFC;}
	.st8{fill:#BAC4F6;}
	.st9{fill:none;stroke:#FFFFFF;stroke-width:0.75;stroke-linecap:round;stroke-miterlimit:10;}
	.st10{fill:#4B44BE;}
	.st11{fill:url(#SVGID_1_);}
	.st12{fill:url(#SVGID_2_);}
	.st13{fill:url(#SVGID_3_);}
	.st14{fill:url(#_Path__1_);}
	.st15{opacity:7.000000e-02;enable-background:new    ;}
	.st16{fill:#EFEFEF;}
	.st17{fill:url(#SVGID_4_);}
	.st18{fill:#4A41BC;}
	.st19{fill:url(#SVGID_5_);}
	.st20{fill:url(#SVGID_6_);}
	.st21{fill:url(#SVGID_7_);}
	.st22{fill:url(#SVGID_8_);}
	.st23{fill:url(#SVGID_9_);}
	.st24{fill:url(#SVGID_10_);}
	.st25{fill:url(#SVGID_11_);}
	.st26{fill:url(#SVGID_12_);}
	.st27{fill:url(#SVGID_13_);}
	.st28{fill:url(#SVGID_14_);}
	.st29{fill:url(#SVGID_15_);}
	.st30{fill:url(#SVGID_16_);}
	.st31{fill:#7A5BF5;}
</style>
<g id="Layer_1">
	<title>bg6</title>
	<g id="bg">
		<path class="st0" d="M14.3,307.9c0,0-80.3-258.3,139.1-271.3s178.9,55.3,373.7,13.1s198.1-71.3,299.5-29.2s108,150.7,86.8,205.9
			s-63.8,98.9-60.6,129.7s72.1,110,81.2,163.5c5,29.2-9.5,79-23.1,81.1c-100.9,16.1-506.2-10.4-506.2-10.4l-235.3-10.4L43.5,562.7
			c0,0,4.3-72.2,3.9-129.3C47,374.8,14.3,307.9,14.3,307.9z"/>
		<path class="st1" d="M44,554.8c0,0-27.4,113.4,123.1,105.7s148.8-24.4,243.8,5.1s154.2,41.2,227.6,18s75.3-19.3,168.5-19.3
			s125.1-99.4,127.5-113c2.9-16-3.8-68.5-17.2-68.6c-98.5-1.2-708.6-6.3-756.7,7c-41.3,11.4-91,49.4-114.9,59.5"/>
	</g>
	<g id="window">
		<path class="st2" d="M62,455.2l93-38l1.6-380.4c0,0-68.6,4.4-95.6,30.4L62,455.2z"/>
		<path class="st2" d="M61,67.2l2.3,387.5L47,461.5c0,0,2.3-17.6-1.7-55.9C41.6,369.9,3.8,283.3,1,250.2
			c-2-23.5-0.9-119.2,22.5-147.6C45.1,76.5,61,67.2,61,67.2z"/>
		
			<ellipse transform="matrix(0.9852 -0.1716 0.1716 0.9852 -27.0138 21.0838)" class="st3" cx="108.5" cy="166.8" rx="19.5" ry="13.5"/>
		
			<ellipse transform="matrix(0.9852 -0.1716 0.1716 0.9852 -25.9871 24.8161)" class="st3" cx="130.6" cy="162.7" rx="15.9" ry="11"/>
		
			<ellipse transform="matrix(0.9852 -0.1716 0.1716 0.9852 -36.3823 6.6795)" class="st3" cx="20.4" cy="213.8" rx="19.5" ry="13.5"/>
		<ellipse transform="matrix(0.9852 -0.1716 0.1716 0.9852 -34.3711 9.8089)" class="st3" cx="39.6" cy="203.7" rx="15.9" ry="11"/>
		<path class="st3" d="M68.9,61l4.7-2.6l0.2-0.1l2.9-1.5l2.8-1.3L84.2,446l-9.8,4.1L68.9,61z"/>
		<path class="st3" d="M33.1,357.2l-1.1-3.7c-0.2,0.1-0.8-2.7-0.9-2.7l-1.2-3l-1.1-3.3l126.9-47.9l0.4,10.7L33.1,357.2z"/>
		<path class="st3" d="M2.2,258.5l-0.4-2.1c-0.2-0.6-0.5-3.1-0.7-3.7l-0.5-4.1l-0.5-3l156.5-59.8l-0.5,10.5L2.2,258.5z"/>
	</g>
	<g id="seat">
		<path class="st4" d="M425.4,400.1c3.4-4.4,5.6-9.5,6.4-15c0.9-6.7,3.3-15.1,9.4-20.9c9.3-8.8,10.6-46,10.8-59.8
			c0.1-5.2,0.9-10.4,2.4-15.3c2.8-8.7,8.4-20.8,19.4-26.6c11.2-5.9,47-8.4,57.4,0.3c21.2,17.7,18.3,41,18.6,44.7
			c1.6,17.4,0.6,30.1,9.5,41.1s18.9,24.3,16.3,37.8s20.7,33.5-4.8,41.8s-51.6,14.1-80,11.8c-25.2-2-59.6-6.1-66.4-22.8
			C421.2,409,422.9,403.5,425.4,400.1z"/>
		<path class="st5" d="M431.8,398c1.2-1.7,2.7-4.2,5.4-5.6s8.2-5.2,35.1,5.8c38.4,15.8,70-3.5,73-3.9s30.1-8.9,29.4,8.9
			s-32.8,27.4-42.5,27.8s-50.1,4.2-70-1.5s-27.5-13.4-28.9-15.3C431.8,412.1,426.8,405.1,431.8,398z"/>
		<path class="st6" d="M434.4,527.2h1.9c3.4,0.1,6.3-2.7,6.3-6.1c0-0.1,0-0.1,0-0.2l-0.2-9c0-1-0.7-1.9-1.6-2.3l-0.6-0.2
			c-1.3-0.5-2-2-1.4-3.3c0.2-0.5,0.5-0.9,0.9-1.1c0.4-0.3,0.9-0.5,1.3-0.7c4.2-1.6,13.1-6.7,36.5-9.1c12.8-1.3,19.3-1.7,22.7-1.8
			c1.4-0.1,2.5-1.2,2.5-2.7c0-0.2,0-0.4-0.1-0.6l0,0c-0.3-1.2-1.5-2-2.8-1.8c-8.2,1-37.4,4.5-47,6.8c-5.6,1.4-11,3.7-16,6.7
			c-1.9,1.2-3.2,3.2-3.4,5.5c-0.1,0.8-0.5,1.5-1.1,1.9c-1,0.7-2,1.2-3.1,1.6c-1.6,0.5-1.6,6-1.2,10.6
			C428.1,524.5,430.9,527.1,434.4,527.2z"/>
		<path class="st6" d="M576.1,527.2h-1.4c-3.7,0.1-6.8-2.9-6.8-6.6c0-0.1,0-0.2,0-0.3l0.2-8.5c0-1,0.6-1.9,1.6-2.3l0.6-0.2
			c1.3-0.5,2-2,1.4-3.3c-0.2-0.4-0.5-0.8-0.9-1.1c-0.4-0.3-0.9-0.5-1.3-0.7c-4.2-1.6-13-6.7-36.2-9.1c-12.6-1.3-19.1-1.7-22.4-1.8
			c-1.4-0.1-2.5-1.2-2.5-2.7c0-0.2,0-0.4,0.1-0.6l0,0c0.3-1.2,1.5-2,2.8-1.8c8.2,1,37.1,4.5,46.5,6.8c5.6,1.4,10.9,3.7,15.8,6.7
			c1.9,1.2,3.2,3.2,3.4,5.5c0.1,0.8,0.5,1.5,1.1,1.9c0.9,0.6,1.9,1.2,3,1.6c1.6,0.5,1.5,6.1,1.2,10.7
			C582.2,524.5,579.5,527.1,576.1,527.2z"/>
		<path class="st6" d="M501.5,444.1l-0.2,75.7c0,1-0.8,1.8-1.8,1.8l0,0h-0.4c-1,0-1.8,0.8-1.8,1.8c0,0,0,0,0,0.1l0.3,12.8
			c0.1,3.1,2.6,5.7,5.8,5.7l4,0.1c3.3,0.1,6.1-2.6,6.1-5.9c0-0.1,0-0.2,0-0.4l-0.5-12.4c0-1-0.8-1.7-1.8-1.7l0,0
			c-1,0-1.8-0.8-1.8-1.8c0,0,0,0,0,0l0.2-77.6c0-1-0.8-1.8-1.8-1.8c0,0,0,0,0,0h-4.6c-1,0-1.8,0.8-1.8,1.8c0,0,0,0,0,0.1
			L501.5,444.1z"/>
		<path class="st5" d="M501.6,499c0,0-61.2,24.6-70.8,32.8s-11.2,13.3-10.8,15.5c0,0.2,0.4,0.4,0.8,0.5c2.4,0.7,4,2.9,3.9,5.3
			l-0.2,12.9c0,2-1.7,3.6-3.6,3.6H414c-2,0-3.6-1.6-3.7-3.6l-0.2-12.8c-0.1-2.7,1.9-5.1,4.6-5.5h0.1c0,0,2.4-9.7,6.1-13
			s10.2-10.7,35.8-21.9s44.8-18.2,44.8-18.2L501.6,499z"/>
		<path class="st5" d="M509.3,498.1c0,0.8,0.5,1.6,1.2,1.9c8.4,3.6,57.2,24.7,65.6,32.2c9.1,8.2,10.6,13.3,10.2,15.5
			c-0.1,0.5-1.4,0.7-2.7,0.8c-1.1,0.1-1.9,1-1.9,2.1l0.2,13.7c0,3.2,2.7,5.8,5.9,5.8h1.7c3.2,0,5.8-2.6,5.9-5.8l0.2-13.6
			c0-1-0.7-1.9-1.7-2l-1.5-0.2c-0.8-0.1-1.4-0.7-1.6-1.5c-0.7-2.7-2.7-9.2-5.5-11.8c-3.5-3.3-9.7-10.7-33.9-21.9
			c-18.6-8.5-33.5-14.6-39.4-17c-1-0.4-2.2,0-2.6,1C509.4,497.6,509.4,497.8,509.3,498.1L509.3,498.1z"/>
	</g>
	<g id="table">
		<polygon class="st3" points="174,556.2 175,382.2 198,382.2 198,557.2 		"/>
		<polygon class="st3" points="705,379.1 706,558.2 726,558.2 726.4,379.9 		"/>
		<polygon class="st3" points="104,361.2 104,382.2 792,380.2 792,362.2 		"/>
		<polygon class="st5" points="104,361.2 153,346.2 736,347.2 792,362.2 		"/>
		<polygon class="st0" points="416.5,355.4 428,348.4 481.1,348.1 473.1,354.9 		"/>
	</g>
	<g id="Flower">
		<path class="st7" d="M152,309.1c0,0-8.7-0.4-9.8,2.4s2,41,3.4,43.3s15.2,2.9,19.1,2.9c0,0,14.5-1.3,15.2-2.3s10.5-40.5,7.3-45.8
			c-3.2-5.3-34.7-0.4-34.7-0.4"/>
		<path class="st8" d="M141.5,318.1c0,0,27,2.1,30.2,1.2c3.2-0.9,2.1-9,2.1-9l13.4-0.6c0,0,0,7.8-0.9,8.7c-1,1.2-1.8,2.6-2.3,4.1
			c0,0.5-5.7,33.5-5.7,33.5s-8.7,1.3-9.8,1.2c-1.4-0.2,3.6-27.4,3.6-29.3s0-5.5-1.4-5.5s-27.8,0.8-28-2.2
			C142.6,319.5,142.1,318.7,141.5,318.1"/>
		<path class="st8" d="M152.2,310c0,0-7.5-5.3-11.5-5.8s-8.7-1-12.7-1.6s-9.1-2.4-9-4.8c0.1-2.3,0.6-3.5,2.9-4.8
			c2-1.3,4.2-2.1,6.6-2.4c1.8-0.2,19.8,4.5,27.3,15.7l3,3.7H152.2z"/>
		<path class="st8" d="M126.1,296.9c0,0,6.9-0.1,10.7,1.1c3,1.1,5.8,2.4,8.6,4l11.3,7.9"/>
		<path class="st9" d="M126.1,296.9c0,0,6.9-0.1,10.7,1.1c3,1.1,5.8,2.4,8.6,4l11.3,7.9"/>
		<path class="st8" d="M160.1,309.7c0,0-8.8-11.9-12.2-15.2c-3.4-3.4-7.4-7.2-10.7-10.7s-7.4-8.5-5.7-10.6s3-3.5,6.2-3
			c2.5,0.3,4.9,1.2,7,2.6c1.8,1.1,17.7,16.3,20,33.7l2.3,3.5L160.1,309.7z"/>
		<path class="st9" d="M139.5,277.2c0,0,6.8,4.1,9.5,8c2.5,3.7,6.5,10.2,6.5,10.2l4.5,12.5"/>
		<path class="st7" d="M164.5,310.2c0,0-10.2-22.2-12.1-26.6s-9.7-11-11.5-15.5c-1.7-4.5-2.8-7.7-1-10.2c1.8-2.5,6.5-4.5,9.5-3
			c2.8,1.4,6.5,5.6,8.1,7.7c1.2,1.7,9.6,31.8,8.9,38.8l1.6,8.9L164.5,310.2z"/>
		<path class="st9" d="M146.4,263.2c0,0,5.9,7.6,7.7,12c2,5,4,14.5,3.7,13l6.1,20.6"/>
		<path class="st7" d="M158.9,310.1c0,0-9-10.3-13.4-12.3c-4.4-2-9.4-4.2-13.7-6.4s-9.4-5.8-8.6-8c0.9-2.2,1.8-3.1,4.9-3.5
			c2.7-0.5,5.5-0.4,8.2,0.2c2,0.5,20.8,11.9,25.6,25.4l2.2,4.7L158.9,310.1z"/>
		<path class="st9" d="M131.5,285.4c0,0,7.8,2.6,11.7,5.2c2.9,2.2,5.7,4.5,8.4,7.1l8.6,12.6"/>
		<path class="st8" d="M182.4,310.3c0,0,8.2-5,12.5-5.5s9.3-0.9,13.7-1.5s9.8-2.3,9.7-4.5c-0.1-2.2-0.6-3.3-3.2-4.6
			c-2.2-1.2-4.6-2-7.1-2.3c-1.9-0.2-21.5,4.3-29.6,15l-3.3,3.5L182.4,310.3z"/>
		<path class="st8" d="M210.6,297.9c0,0-7.5-0.1-11.6,1.1c-3.2,1-6.3,2.3-9.3,3.8l-10.9,7.3"/>
		<path class="st9" d="M210.6,297.9c0,0-7.5-0.1-11.6,1.1c-3.2,1-6.3,2.3-9.3,3.8l-10.9,7.3"/>
		<path class="st8" d="M173.8,310.1c0,0,9.5-11.4,13.2-14.6s8-6.9,11.6-10.2s8-8.1,6.2-10.1s-3.2-3.3-6.7-2.9
			c-2.7,0.2-5.2,1.1-7.5,2.5c-1.9,1.1-19.1,15.6-21.6,32.2l-2.5,3.4L173.8,310.1z"/>
		<path class="st9" d="M196.1,279c0,0-7.4,3.9-10.3,7.6c-2.7,3.5-7.1,9.8-7.1,9.8l-4.9,11.9"/>
		<path class="st7" d="M169.1,310.6c0,0,11.1-21.2,13.1-25.4s10.5-10.5,12.4-14.8s3.1-7.4,1.1-9.7c-2-2.3-7.1-4.3-10.3-2.9
			c-3.1,1.3-7,5.3-8.8,7.4c-1.4,1.6-10.4,30.4-9.7,37.1l-1.7,8.5L169.1,310.6z"/>
		<path class="st8" d="M168,310.3c0,0,0.9-20.7,3-27.4c1.4-4.5,2.8-12,4.7-16.2s-1-9.8-2.9-12.2c-1.9-2.4-7-1.9-10.3-0.5
			c-3.1,1.3-4.8,5.6-5.2,7.9c-0.3,2.1,7,27,6.2,36.2l0.6,12.4L168,310.3z"/>
		<path class="st9" d="M188.6,265.7c0,0-6.3,7.2-8.3,11.5c-2.2,4.8-4.3,13.9-4,12.4l-7.2,20.2"/>
		<path class="st7" d="M175.2,310.5c0,0,9.8-9.8,14.5-11.7c4.7-1.9,10.2-4,14.8-6.1c4.6-2.1,10.2-5.5,9.3-7.6
			c-0.9-2.1-1.9-2.9-5.3-3.3c-2.9-0.4-5.9-0.4-8.8,0.2c-2.2,0.5-22.5,11.3-27.7,24.2l-2.4,4.4L175.2,310.5z"/>
		<path class="st9" d="M204.7,286.8c0,0-8.4,2.5-12.6,4.9c-3.1,2-6.2,4.3-9,6.7l-9.5,10.6"/>
		<path class="st9" d="M166,258.4c0,0,1.7,17.7,0.7,22.5c-0.4,2-0.2,14.5-0.2,14.5l-0.3,13.9"/>
	</g>
	<g id="computer">
		<rect x="330.1" y="250.5" class="st3" width="109.9" height="86.3"/>
		<circle class="st1" cx="382.7" cy="294.3" r="6.6"/>
		<path class="st3" d="M375.8,334.7c0,0,2.8,7.3-0.4,9.3s-22.6,9.7-22.6,9.7s-1.4,2.3,2,3c3.1,0.7,42.5,0.1,51,0
			c1.2,0.1,2.3-0.6,2.8-1.7c0.2-0.7-0.1-1.5-1.6-2c-2.6-0.9-12.2-6.2-16.4-8.4c-1.5-0.8-1.9-2.3-2.2-3.8c-0.5-2.3-0.8-4.8,0.8-5.3
			c2.5-0.8-13.3,0.2-13.3,0.2"/>
	</g>
	<g id="books">
		<polygon class="st4" points="292.5,241.6 578.3,241.2 577.8,193.4 276.3,195.7 276.1,241.6 		"/>
		<polygon class="st5" points="435.5,202 435.5,234.9 570,234.4 570,202.4 		"/>
		<polygon class="st5" points="291.7,202 291.7,234.9 426.2,234.4 426.2,202.4 		"/>
		<polygon class="st3" points="291.7,209.9 298.8,209.9 298.8,235 291.7,234.9 		"/>
		<polygon class="st1" points="298.9,214.3 303.6,214.3 303.8,234.9 298.8,235 		"/>
		<polygon class="st3" points="417.5,209.7 421.6,209.7 421.6,234.8 417.5,234.7 		"/>
		<polygon class="st1" points="421.7,214.1 426.4,214.1 426.6,234.7 421.6,234.8 		"/>
		<polygon class="st1" points="304,211.1 308.7,211.1 308.9,234.9 303.9,235 		"/>
		<polygon class="st3" points="308.6,216.8 311,214.9 323.3,232.7 320.6,234.9 		"/>
		<polygon class="st3" points="365.8,234.8 395.3,234.8 395.1,231.4 365.8,231.6 		"/>
		<polygon class="st4" points="370.7,231.5 400.2,231.5 400.1,228.2 370.7,228.4 		"/>
		<polygon class="st3" points="440.2,208.7 444.3,208.7 444.4,235.1 440.2,235 		"/>
		<polygon class="st1" points="444.4,214.3 449.1,214.3 449.3,234.9 444.4,235 		"/>
		<polygon class="st3" points="561,209.6 565.1,209.6 565.2,234.6 561,234.6 		"/>
		<polygon class="st1" points="565.1,213.6 570,213.6 570.2,234.4 565.2,234.5 		"/>
		<polygon class="st1" points="556.3,215.7 561,215.7 561.2,234.6 556.2,234.7 		"/>
		<polygon class="st1" points="435.4,211.1 440.2,211.1 440.3,235 435.4,235.1 		"/>
		<polygon class="st3" points="484.4,216.9 486.8,214.9 499,232.8 496.4,234.9 		"/>
		<polygon class="st3" points="464.4,234.8 493.9,234.8 493.7,231.5 464.4,231.7 		"/>
		<polygon class="st4" points="462.8,231.7 492.2,231.7 492.1,228.4 462.8,228.6 		"/>
		<polyline class="st4" points="578.1,190.9 577.8,152.6 845.8,152.6 846.4,244.2 578.3,246.4 578.1,194.4 		"/>
		<path class="st4" d="M387.2,168.7c0,0-2.6-0.9-2.8-1.5s-1.1-4.3,0.6-4.3h14.6c0,0,2.4,3.9-0.6,4.7s-0.4,2.4,0.4,2.4s2.8,0,3.2,1.1
			s0.4,23.6,0.4,23.6h-21.7v-21.9c0-1.3,1-2.3,2.3-2.4c0,0,0.1,0,0.1,0C386.1,170.4,387.8,169.8,387.2,168.7z"/>
		<rect x="384.6" y="177.4" class="st3" width="15.2" height="9.4"/>
		<path class="st5" d="M412,168.7c0,0-2.6-0.9-2.8-1.5s-1.1-4.3,0.6-4.3h14.6c0,0,2.4,3.9-0.6,4.7s-0.4,2.4,0.4,2.4s2.8,0,3.2,1.1
			s0.4,23.6,0.4,23.6h-21.7v-21.9c0-1.3,1-2.3,2.3-2.4c0,0,0.1,0,0.1,0C411,170.4,412.7,169.8,412,168.7z"/>
		<rect x="409.4" y="177.4" class="st3" width="15.2" height="9.4"/>
		<path class="st4" d="M437.6,168.4c0,0-2.6-0.9-2.8-1.5s-1.1-4.3,0.6-4.3h14.6c0,0,2.4,3.9-0.6,4.7s-0.4,2.4,0.4,2.4s2.8,0,3.2,1.1
			s0.4,23.6,0.4,23.6h-21.7v-21.9c0-1.3,1-2.3,2.3-2.4c0,0,0.1,0,0.1,0C436.5,170.1,438.3,169.5,437.6,168.4z"/>
		<rect x="435" y="177.1" class="st3" width="15.2" height="9.4"/>
		<rect x="587.3" y="161.9" class="st5" width="123.8" height="75.6"/>
		<circle class="st5" cx="724.4" cy="201.7" r="5.4"/>
		<path class="st3" d="M670,211.6c0,0-2.6-0.9-2.8-1.5s-1.1-4.3,0.6-4.3h14.6c0,0,2.4,3.9-0.6,4.7s-0.4,2.4,0.4,2.4s2.8,0,3.2,1.1
			s0.4,23.6,0.4,23.6h-21.7v-21.9c0-1.3,1-2.3,2.3-2.4c0,0,0.1,0,0.1,0C668.9,213.3,670.6,212.7,670,211.6z"/>
		<rect x="667.3" y="220.3" class="st1" width="15.2" height="9.4"/>
	</g>
</g>
<g id="Layer_2">
	<g id="girl">
		<g>
			<path class="st10" d="M744,572l-11.4,2.6c0,0-2.8,9-4.1,13.8c-0.1,0.3-0.3,1.1-0.5,1.6c-0.2,0.9-0.3,1.6-0.3,2.5
				c0.3,4.3,1.9,8,5.7,9.9c4.2,2.2,7.5,4.1,12,0s5.3-6.7,3.4-13.9C746.9,581.5,744,572,744,572z"/>
			<path class="st10" d="M810.2,587c-7.7-2.4-11-11.9-11-11.9l-15.4-0.8c0,0-0.3,9.7-0.8,14.9c-0.5,7,0.8,10.1,5.4,9.7
				c6.2-0.5,31.6,1.7,35.6-0.8C829.2,594.9,817.3,589.2,810.2,587z"/>
		</g>
		
			<linearGradient id="SVGID_1_" gradientUnits="userSpaceOnUse" x1="1724.8148" y1="1609.2021" x2="1871.856" y2="1610.1687" gradientTransform="matrix(1 0 0 1 -1048.21 -1144.97)">
			<stop  offset="0" style="stop-color:#4F68CA"/>
			<stop  offset="1" style="stop-color:#5ACEED"/>
		</linearGradient>
		<path class="st11" d="M720.2,354.1c0,0-5.8,7.9-7.6,29.3s2.2,62,4.1,69.9c1.9,7.9,9.5,81.2,11.4,86.6c1.9,5.4,4.5,34.6,4.5,34.6
			l12.3,0.3c0,0,3.6-38.1,3.6-48.2c0-10.1,5-105.6,4.7-112.6c-0.3-7,1.3-4.7,1.3-4.7s10.8,34.3,14,40c3.2,5.7,8.9,16.8,8.9,16.8
			s1.3,35.8,2.8,56.5s3.2,53.3,3.2,53.3l16.5-0.3c0,0,3.8-54.5,3.8-66c0-11.5,3.5-39,3.5-42.2s-10.8-59-10.8-59l-7.5-54.4
			L720.2,354.1z"/>
		
			<linearGradient id="SVGID_2_" gradientUnits="userSpaceOnUse" x1="1771.9071" y1="1401.9791" x2="1880.4995" y2="1401.9791" gradientTransform="matrix(1 0 0 1 -1048.21 -1144.97)">
			<stop  offset="0" style="stop-color:#F87B58"/>
			<stop  offset="0.5" style="stop-color:#F8C548"/>
			<stop  offset="1" style="stop-color:#F89C51"/>
		</linearGradient>
		<path class="st12" d="M726.9,204.2c0,0,7.2-27.9,12.8-29.9c22.1-8.2,24.3-22,33.7,17.5c9.4,39.5,35.5,85.3,46.6,98.9
			c15.3,18.6,14,30.5,8.5,31.7s-33.2,8.5-35.4,9.1c-2.2,0.7,4.5,19.9-4.8,17.3c-5.2-1.5-5.6-24.3,0.9-25.4
			c2.7-0.4,33.5-6.6,33.3-8.4c-0.2-1.8-24-34.9-24-34.9l-15.4-7.2l-38.1-20.5l-18.2-9.1l-1.9-30.3l-1.3-5.9L726.9,204.2"/>
		
			<linearGradient id="SVGID_3_" gradientUnits="userSpaceOnUse" x1="1746.0835" y1="1435.8196" x2="1886.3376" y2="1435.8196" gradientTransform="matrix(1 0 0 1 -1048.21 -1144.97)">
			<stop  offset="0" style="stop-color:#E1A1ED"/>
			<stop  offset="1" style="stop-color:#7658F4"/>
		</linearGradient>
		<path class="st13" d="M722,241.5c0,0,0.2,2.2-5,9.6c-3.1,4.5,4.7,1.3-1.9,12.6c-10.5,17.9-16.4,37-17.2,48.9
			c-0.4,7.3,6,5.9,8.6,8.2c1.5,1.3,6.3-0.9,7.4-2.5l2.2-3.8c0.6-0.9,6.5-9.5,6.6-10.5c0.5-3.4,3.8-17.6,4.9-22.7
			c0.9-4.3,8.5-14.2,14.7-34.4c1.8-6.2,0-8.8,0.4-11.7c1.3-9.2-11.7-9.1-12.8-5.9c-0.3,0.8-10.1,39.6-10.6,44.8
			c-0.2,1.7,3.3,17.1,6,21.3c2.7,4.2,5.7,7.2,5.7,11c0,3.7-1.7,18.9-4.5,25.6c-2.8,6.7-6.7,22.3-6.7,22.3l69-0.3
			c0,0-2.5-29.6-1.5-39.9c0,0,2.9-33.4,4.7-36.7c1.7-3.3,20.2,26.8,24.9,34.4c1.9,3.2-24.3,8.8-26.5,11.3c-2.2,2.5,2.2,9.5,2.2,9.5
			s45.8-5.6,45.6-12.6c-0.3-7-26.1-60.8-35.4-71s-11.7-9.8-19.4-7.1c-7.8,2.8-11.5,5.3-21.9,7c-7.6,1.3-15.4-0.1-22.2-4
			C735.5,242.7,722,241.5,722,241.5z"/>
		
			<linearGradient id="_Path__1_" gradientUnits="userSpaceOnUse" x1="1760.1707" y1="1371.506" x2="1850.8823" y2="1371.506" gradientTransform="matrix(1 0 0 1 -1048.21 -1144.97)">
			<stop  offset="0" style="stop-color:#4B44BE"/>
			<stop  offset="1" style="stop-color:#5BD3EF"/>
		</linearGradient>
		<path id="_Path_" class="st14" d="M712.6,268.1c0.8-1.1,1.6-2.2,2.2-3.5c0.6-1.1,1-1.8,1.3-2.3c3.4-5.7,11-18.7,12.3-24.4
			c0.7-2.2,1.2-4.6,1.6-6.9c0.3-1.6,0.3-3.2,0.2-4.7c-0.4-2.9-6.4-15.2-5.5-16.3c0.1-0.2,0.9-3.6,2-2.5c1.3,1.3,9.8,6,10.4,6.8
			c1.6,2.9,2.9,6,3.9,9.2c0.6,1.9,1.1,7.4,1.3,7.9c1.8,4.6-0.3,8-0.1,10.4c0.1,0.9,0.1,4.3,0.5,4.7c1.2,0.9,2.8,1.6,3.5,0.8
			c0.7-0.9,0.4-3.3,0.5-5.7c0.4-12.5-1.9-24-4.8-30c-2.9-6-9.8-17.9-5.1-24.7c4.7-6.8,14.4-12.2,14.8-13.9c0.4-1.7,0.7,6.6,5.9,9.5
			c5.2,2.9,12.4,10.8,12.4,12.4c0,1.6,1.7,7.3-3.2,17.1c-4.9,9.8-8.8,22.3-2,31.5c6.8,9.2,24,22.3,25.2,25.2s0,16-0.4,23.3
			c-0.4,7.3,13.9-12.5,13.4-22.1s1.2-13.7-8.5-28.3c-9.8-14.6-16.1-39.8-16.4-45.9c-0.3-6.1-3.1-23-9-27.9s-6.4-9.5-22.7-7.9
			c0,0-13.7,0.5-17.6,13.9c-3.9,13.4-4.5,32.2-4.7,35.1c-0.2,3.1,1.2,22.1-0.5,28s-9.8,18.6-11.3,23.8"/>
		<path class="st15" d="M738.7,574.6c0.1,0.3,0.1,0.5,0.1,0.8c0.1,1.9,0,6.6-2.1,9.7c-2.6,4,3.5,12.7,3.5,14.8s-2.8,4.1-4.8,3.5
			c-2-0.6-10.3-5.3-7-15.3c1.3-4.1,2.1-7.6,2.8-9.8c0.4-1.1,0.8-2.2,1.1-3.4c0.1-0.5,0.1-1,0.1-1.6c-0.1-0.7-0.1-1.5-0.2-2.2
			c-0.4-3.9-16.8-125-17.4-129.6c-0.5-4.1-2.9-29.8-2.7-44.8c-0.2-1.3-0.2-2.6-0.1-3.8c0-0.3,0.2-1.8,0.1-2.4
			c0.1-1.4,0.2-2.8,0.3-4.1c-0.3-1.1-0.1-1.1,0-2.9c0.1-1.8,0-2.8,0.2-4c1.6-10.2,5.4-21.7,7.2-25l0.5-1.8c0,0,3-13.6,4.4-16.5
			c1.2-2.6,6.5-28.2,6-31.1c-0.4-2.8-6-10.1-6-10.1l0.8-3.9c0,0,1.7-5.7,3.5-10.5c1.4-3.7,5.8-13.5,7.6-17.8
			c2.9-6.9,4.3-9.6,4.9-14.2c0.4-3.5,0.8-2,2.3-1.3c2.2,0.9,2.3-0.3,2.4-2.4c0.1-6.7-0.2-13.4-0.8-20.1c-0.7-5.3-6.1-13.7-8.5-18.9
			c-1.4-2.7-2.4-5.5-3.3-8.5c-1-4.5-0.9-9.5,3.3-13.7c3.7-3.7,14.8-11.4,14.8-11.4s-5.1,10.4-3,13.9c3.4,5.4,1.7,12.3,1.7,14.8
			c0,2.4-2.7,8.5-1,14.6c2.8,10.8-2.1,16.9-0.3,24.2c1.1,4.5,1.8,6,0.7,9.9c-1.1,4-12.3,34.1-6.1,51.6c6.1,17.5,9,29.9-0.9,40.5
			c-9.8,10.5-0.8,19.9-0.6,27.4c0.4,18.3-8.5,16.3-9,27.7c-0.5,11.4,2,19.6,2.2,25.5c0.4,19.6,0.2,23.5-0.9,31.2
			c-1,7.7-6.3,22.3-0.4,50.9c5.9,28.7,5,31.2,4.4,47.5C738.1,568.2,738.7,574.6,738.7,574.6z"/>
		<path class="st16" d="M722.2,198.4c2.3-1.6,4.8-3.1,7.4-4.4c3.2-1.3,4.7,3.5,5.5,5.6c0.9,2.2,5.2,15.4,5.4,16.5
			c0.1,0.4-0.6,0.3-2.8,2.1c-0.3,0.3-0.9,0.1-1.6-1.5c-0.3-0.9-1.5-2.9-2.8-3.6c-0.5-0.3-8.6-3.1-8.7-2.3c-0.1,0.8,1.9,5.7,2.9,8.5
			c0.1,0.3,1.5,3.1,1.2,3.6c-0.1,0.1,0.1,0,0.1,0s-1.5,0.5-1.9,0c-0.4-0.5-4.6-13.9-6.1-19c-0.3-1.1-1.1-2.7-0.3-3.4L722.2,198.4z"
			/>
	</g>
	<g>
		<title>Cup</title>
		<g id="Cup">
			
				<linearGradient id="SVGID_4_" gradientUnits="userSpaceOnUse" x1="1681.6866" y1="1543.0846" x2="1621.4467" y2="1564.0145" gradientTransform="matrix(1 0 0 1 -1025.09 -1209)">
				<stop  offset="0" style="stop-color:#59CFEE"/>
				<stop  offset="1" style="stop-color:#4A41BC"/>
			</linearGradient>
			<path class="st17" d="M622.7,328.5c-0.8-0.2-1.6-0.4-2.4-0.5c-1.7-0.4-3.6,0.1-4.8,1.4c-0.8,1-1.3,2.2-1.5,3.4
				c-0.8,3.9,0.5,7.9,3.4,10.5c2,2,4.3,3.8,6.7,5.3c0.7,0.4,1.2,1.1,1.3,1.9c0.7,2.8,1.7,5.5,2.8,8.1c0.1,0.3,0.4,0.4,0.6,0.5
				c4.9,1.4,10.1,1.4,15,0.1c1.1-0.4,1.1-0.4,1.7-1.5c2-5.3,3.4-10.8,4.2-16.3c0.8-5.1,1.1-10.2,1-15.3c0-0.9,0-1-1-1.3
				c-1.5-0.5-3.1-0.7-4.7-0.8c-4.1-0.3-8.3-0.4-12.5-0.3c-2.6,0-5.3,0.3-7.9,0.9c-0.6,0.1-1.1,0.4-1.7,0.5c-0.2,0.1-0.4,0.2-0.4,0.5
				C622.7,326.7,622.7,327.6,622.7,328.5z M624.4,346.2h-0.1c-4.2-2.2-7.1-5.5-7.4-10.5c-0.1-1.1,0-2.1,0.3-3.2
				c0.3-0.9,1-1.6,1.9-1.8c1.4-0.2,2.8,0.5,3.5,1.8v1.4c0.2,3.1,0.6,6.2,1.1,9.2C623.8,344.1,624,345.1,624.4,346.2L624.4,346.2z"/>
			<path class="st18" d="M622.9,325.2c0,0,13.5-4.1,27.7,0C650.7,325.2,638.8,330,622.9,325.2z"/>
			
				<linearGradient id="SVGID_5_" gradientUnits="userSpaceOnUse" x1="1688.2059" y1="1004.3969" x2="1682.7859" y2="992.4268" gradientTransform="matrix(1 0 0 -1 -1049.95 1316.21)">
				<stop  offset="0" style="stop-color:#59CFEE"/>
				<stop  offset="1" style="stop-color:#4A41BC"/>
			</linearGradient>
			<path class="st19" d="M645.5,294.3c0.9,5-0.5,10.1-3.8,14c-1.3,1.8-2.7,3.3-4.1,5.1c-2.1,2.7-3.5,5.9-4.1,9.3
				c0,0.4-0.3,1.1-0.3,1.5l0,0c0-0.9-0.3-1.5-0.3-2.4c-0.1-4,1.3-7.9,3.8-11.1c1.1-1.5,2.3-2.9,3.5-4.2c2.8-3.2,4.5-6.9,5.3-10.9"/>
			
				<linearGradient id="SVGID_6_" gradientUnits="userSpaceOnUse" x1="1681.785" y1="1006.7836" x2="1678.425" y2="997.6437" gradientTransform="matrix(1 0 0 -1 -1049.95 1316.21)">
				<stop  offset="0" style="stop-color:#59CFEE"/>
				<stop  offset="1" style="stop-color:#4A41BC"/>
			</linearGradient>
			<path class="st20" d="M627.9,318.9c0-0.5-0.1-0.9-0.3-1.3c-0.1-3.3,1-6.6,3.2-9.1c1.2-1.4,2.3-2.9,3.2-4.4c1.2-1.9,2-4,2.4-6.2
				c0.1-0.3,0.2-1.5,0.2-0.7l0.1,0.2c0.1,0.6,0.2,1.2,0.3,1.8c0,3-1.1,5.9-3,8.2l-3.2,4c-1.2,1.6-2,3.4-2.5,5.4
				c-0.1,0.2-0.1,0.5-0.1,0.7C628.3,318,628.1,318.5,627.9,318.9L627.9,318.9z"/>
			
				<linearGradient id="SVGID_7_" gradientUnits="userSpaceOnUse" x1="1696.37" y1="1005.005" x2="1692.97" y2="995.7449" gradientTransform="matrix(1 0 0 -1 -1049.95 1316.21)">
				<stop  offset="0" style="stop-color:#59CFEE"/>
				<stop  offset="1" style="stop-color:#4A41BC"/>
			</linearGradient>
			<path class="st21" d="M642.6,320.9c0-0.1-0.2-1-0.3-1.7c-0.1-3.3,1-6.6,3.2-9.1c1.2-1.4,2.3-2.9,3.2-4.4c1.2-1.9,2-4,2.4-6.2
				c0.1-0.2,0.3-1.4,0.2-0.6v0.2c0.1,0.6,0.2,1.1,0.3,1.7c0,3-1.1,5.9-3,8.2l-3.2,4c-1.2,1.6-2,3.4-2.5,5.4
				c-0.1,0.2-0.1,0.5-0.1,0.7c0,0.5-0.1,1-0.3,1.5L642.6,320.9z"/>
		</g>
	</g>
	<g id="Layer_6">
		<g id="Layer_18">
			
				<linearGradient id="SVGID_8_" gradientUnits="userSpaceOnUse" x1="874.3352" y1="-878.6536" x2="956.7208" y2="-878.6536" gradientTransform="matrix(1 0 0 -1 -858.14 -351.79)">
				<stop  offset="0" style="stop-color:#93FD93"/>
				<stop  offset="0.51" style="stop-color:#21C2C1"/>
				<stop  offset="1" style="stop-color:#84F599"/>
			</linearGradient>
			<path class="st22" d="M89.3,563.2c0,0,6.3-34.1-26.8-52.4s-34.6-18.1-41.1-20.1c-3.8-1.3-7.6,1.4-3.3,6.9s1.9,6.9,10.6,9.3
				c8.7,2.4,10,13,14.4,15.6c4.3,2.6,8.1,3.3,21.4,9.1c12.1,5.2,22.3,19.9,22.3,25.1s11.8,6.9,11.8,6.9L89.3,563.2z"/>
			
				<linearGradient id="SVGID_9_" gradientUnits="userSpaceOnUse" x1="905.2043" y1="-852.6351" x2="952.0157" y2="-910.0269" gradientTransform="matrix(1 0 0 -1 -858.14 -351.79)">
				<stop  offset="0" style="stop-color:#93FD93"/>
				<stop  offset="0.51" style="stop-color:#21C2C1"/>
				<stop  offset="1" style="stop-color:#84F599"/>
			</linearGradient>
			<path class="st23" d="M88.1,558.4c0,0,8.4-31.4-20.5-48.4c-28.9-17-39.1-16.8-44.8-18.8c-3.3-1.2,5.7,2.9,9.5,7.9
				c3.8,5,2.8,3.9,9.6,7.7c7.9,4.3,11.1,8.6,15.8,9.4c6.7,1.3,4.7,8.3,16.3,13.5c10.5,4.8,11.8,17.5,11.8,22.3s10.3,6.4,10.3,6.4
				L88.1,558.4z"/>
			
				<linearGradient id="SVGID_10_" gradientUnits="userSpaceOnUse" x1="959.1069" y1="-917.5327" x2="1023.4631" y2="-867.7374" gradientTransform="matrix(1 0 0 -1 -858.14 -351.79)">
				<stop  offset="0" style="stop-color:#93FD93"/>
				<stop  offset="0.51" style="stop-color:#21C2C1"/>
				<stop  offset="1" style="stop-color:#84F599"/>
			</linearGradient>
			<path class="st24" d="M117.3,553.8l3.3-3.1c1.6-1.4,3.5-2.5,5.6-3.1c10.2-2.7,42.4-12.8,55.7-37.1c0.1-0.2,0-0.5-0.2-0.6h-0.1
				c-0.1,0-0.1-0.1-0.2-0.1c-4.4-0.3-27.3-0.7-57.9,25.4c-0.5,0.4-1.1,1-1.5,1.5c-0.8,1.1-2,2.9-2.6,3.9c-0.8,1.4,0.8,3.8-1.3,5.8
				c-2.1,2.1-6.8,7.3-6.8,7.3l3.8,2.8L117.3,553.8z"/>
			
				<linearGradient id="SVGID_11_" gradientUnits="userSpaceOnUse" x1="975.2856" y1="-892.2435" x2="920.0099" y2="-822.2676" gradientTransform="matrix(1 0 0 -1 -858.14 -351.79)">
				<stop  offset="0" style="stop-color:#93FD93"/>
				<stop  offset="0.51" style="stop-color:#21C2C1"/>
				<stop  offset="1" style="stop-color:#84F599"/>
			</linearGradient>
			<path class="st25" d="M99.9,551.7c0,0,8.8-78.5-15.2-103.2c-22.1-22.7-22.4-1.8-22.3,1.7c0,0.3,0.1,0.6,0.2,0.9
				c5.2,9.7,7,20.9,5.1,31.7c-2.3,11.4,14,9.9,15.4,21.1c1.4,11.2,7.1,28.4,6.5,36.4c-0.6,7.9-0.6,15.6-0.6,15.6l8.8,0.3L99.9,551.7
				z"/>
			
				<linearGradient id="SVGID_12_" gradientUnits="userSpaceOnUse" x1="920.7101" y1="-848.8799" x2="959.6014" y2="-848.8799" gradientTransform="matrix(1 0 0 -1 -858.14 -351.79)">
				<stop  offset="0" style="stop-color:#93FD93"/>
				<stop  offset="0.51" style="stop-color:#21C2C1"/>
				<stop  offset="1" style="stop-color:#84F599"/>
			</linearGradient>
			<path class="st26" d="M99.8,552c0.1-0.2,0.1-0.4,0.2-0.5c0.5-5.1,7.9-79.1-15.2-103c-21.9-22.6-22.2-2.1-22.1,1.6
				c0.1,0.4,0.3,0.9,0.5,1.2c1.6,2.4,8.8,12.6,15.3,11.5c17.7-3.2,2.1,18.2,11.7,29.6c7.7,9,5.1,40.1,4.6,48.1
				c-0.4,4.5-1.1,8.9-2.3,13.3c-0.2,1.1,0.5,2.2,1.6,2.4c0.1,0,0.1,0,0.2,0c0.2,0,0.3,0.1,0.4,0.1h1.6c1,0.1,1.8-0.4,2.3-1.3
				L99.8,552z"/>
			
				<linearGradient id="SVGID_13_" gradientUnits="userSpaceOnUse" x1="956.2678" y1="-912.4208" x2="998.3969" y2="-851.4933" gradientTransform="matrix(1 0 0 -1 -858.14 -351.79)">
				<stop  offset="0" style="stop-color:#93FD93"/>
				<stop  offset="0.51" style="stop-color:#21C2C1"/>
				<stop  offset="1" style="stop-color:#84F599"/>
			</linearGradient>
			<path class="st27" d="M108.4,556.6c0,0,1.6-21.8,14.3-35c3.5-3.6,8-6.2,13-7.3c3.8-0.9,10-3.9,15.4-14.1c0,0,10.2-14.5,20.5-18.9
				c10.2-4.4,0-4.9,0-4.9s-29.3,5.6-48,22.7c-1.2,1.1-2.4,2.1-3.8,2.9c-4.9,3.3-18.3,15.9-17.7,52.4L108.4,556.6z"/>
			
				<linearGradient id="SVGID_14_" gradientUnits="userSpaceOnUse" x1="931.9802" y1="-928.1663" x2="992.0054" y2="-928.1663" gradientTransform="matrix(1 0 0 -1 -858.14 -351.79)">
				<stop  offset="6.880928e-04" style="stop-color:#58CAEA"/>
				<stop  offset="0.9992" style="stop-color:#4B45BD"/>
			</linearGradient>
			<path class="st28" d="M133.8,554.8c0,0,0.4-2.6-3.1-2.6C127.7,552.3,76,552,76,552s-2.4,0-2.3,1.8c0.2,1.8,8,44.8,8.7,45.8
				c0.3,0.5,0.9,1,1.5,1.1c1,0.3,37.2,0.1,37.2,0.1c0.9-0.1,1.5-0.8,1.6-1.7C122.7,599.1,133.9,555.3,133.8,554.8"/>
		</g>
	</g>
	<g id="bag">
		<title>Bag</title>
		
			<linearGradient id="SVGID_15_" gradientUnits="userSpaceOnUse" x1="1819.5387" y1="-1168.0864" x2="1904.6687" y2="-1207.5165" gradientTransform="matrix(-0.9432 0 0 -1 2005.2533 -867.5601)">
			<stop  offset="0" style="stop-color:#7A5BF5"/>
			<stop  offset="1" style="stop-color:#CD94EF"/>
		</linearGradient>
		<path class="st29" d="M265,300.1c0,0,10.5,40.3,8.8,44.8s-10.2,5.4-14,6.3c-3.8,0.9-38,10.4-41.5,10.6c-3.5,0.2-3.2,0.7-4.7,0.7
			s-20.6-6.8-21.2-9.2c-0.7-2.4-1.2-4-0.7-7c0.6-3,9.2-41.4,11.6-42.2C205.7,303.3,265,300.1,265,300.1z"/>
		
			<linearGradient id="SVGID_16_" gradientUnits="userSpaceOnUse" x1="1832.7075" y1="-1157.6389" x2="1889.2875" y2="-1183.8489" gradientTransform="matrix(-0.9432 0 0 -1 2005.2533 -867.5601)">
			<stop  offset="0" style="stop-color:#7A5BF5"/>
			<stop  offset="1" style="stop-color:#E5A4ED"/>
		</linearGradient>
		<path class="st30" d="M266.8,307.3c0,0-0.8-6.3-1.8-7.2c-1-0.9-4-5-6.8-5.2c-2.8-0.2-48.4,5.9-50.1,6.3c-1.7,0.4-4,1.3-4.7,2.8
			s6.6,3.3,8,8.1c1.4,4.8,27.4,14.9,33.9,15.6C251.7,328.4,266.8,307.3,266.8,307.3z"/>
		<path class="st31" d="M251.9,296.5c0,0-4.9-11.3-7.3-13.4c-2.1-1.9-9.5-6-14.1,0.1c-5.1,6.9-4.6,14.9-4.6,15.9s5,0.1,5,0.1
			s-1.6-8.2-0.2-11c1.3-2.6,2.1-5.7,6.8-5.4c4.7,0.3,6.4,3.1,7.8,5.7c1.2,2.6,2.2,5.3,3,8.1C248.6,296.9,251.9,296.5,251.9,296.5z"
			/>
		<path class="st31" d="M244.1,297.2c0,0-4.9-13.8-7.3-16.4c-2.1-2.3-10-6.9-14.5,0.5c-5.1,8.4-4.1,17.8-4.1,18.9c0,1.1,5,0.2,5,0.2
			s-1.5-10-0.1-13.5c1.3-3.2,2.1-7,6.7-6.6c4.6,0.4,6.4,3.7,7.8,7c1.2,3.2,2.2,6.5,3,9.9C240.7,297.7,244.1,297.2,244.1,297.2z"/>
		<path class="st31" d="M213.4,314.9c0,0,4.3,38.7,3.8,41.3c-0.6,2.6-2,6.3-3,6.3s-2.7-0.2-2.1-1.1c2.2-3.3,3.1-7.4,2.5-11.3
			c-0.7-6.3-3.2-38-3.2-38L213.4,314.9z"/>
		<ellipse class="st3" cx="246.4" cy="327.7" rx="2.6" ry="2.8"/>
	</g>
</g>
</svg>
