<?xml version="1.0" encoding="utf-8"?>
<!-- Generator: Adobe Illustrator 23.0.3, SVG Export Plug-In . SVG Version: 6.00 Build 0)  -->
<svg version="1.1" xmlns="http://www.w3.org/2000/svg" xmlns:xlink="http://www.w3.org/1999/xlink" x="0px" y="0px"
	 viewBox="0 0 935.2 695.8" style="enable-background:new 0 0 935.2 695.8;" xml:space="preserve">
<style type="text/css">
	.st0{fill:#F8F8FF;}
	.st1{fill:#F5F5FC;}
	.st2{fill:#E9EDFB;}
	.st3{fill:#FFFFFF;}
	.st4{fill:#E9EDFA;}
	.st5{fill:#BAC5F4;}
	.st6{fill:#A2B7ED;}
	.st7{fill:#E9EDFC;}
	.st8{fill:#BAC4F6;}
	.st9{fill:none;stroke:#FFFFFF;stroke-width:0.75;stroke-linecap:round;stroke-miterlimit:10;}
	.st10{fill:url(#SVGID_1_);}
	.st11{fill:url(#SVGID_2_);}
	.st12{fill:url(#SVGID_3_);}
	.st13{fill:url(#SVGID_4_);}
	.st14{fill:url(#SVGID_5_);}
	.st15{fill:url(#SVGID_6_);}
	.st16{fill:url(#SVGID_7_);}
	.st17{fill:#4B44BE;}
	.st18{fill:url(#SVGID_8_);}
	.st19{fill:url(#SVGID_9_);}
	.st20{fill:url(#SVGID_10_);}
	.st21{fill:url(#SVGID_11_);}
	.st22{opacity:7.000000e-02;}
	.st23{clip-path:url(#SVGID_13_);}
	.st24{clip-path:url(#SVGID_15_);}
	.st25{clip-path:url(#SVGID_17_);}
	.st26{fill:url(#SVGID_18_);}
	.st27{fill:url(#SVGID_19_);}
	.st28{fill:url(#SVGID_20_);}
	.st29{fill:url(#SVGID_21_);}
	.st30{fill:#FCFCFC;}
	.st31{fill:#58CAEA;}
	.st32{fill:url(#SVGID_22_);}
	.st33{fill:url(#SVGID_23_);}
	.st34{fill:url(#SVGID_24_);}
	.st35{fill:url(#SVGID_25_);}
	.st36{fill:url(#SVGID_26_);}
	.st37{fill:#F4F4F4;}
	.st38{fill:#4B46BD;}
	.st39{fill:url(#SVGID_27_);}
	.st40{fill:none;}
	.st41{fill:url(#SVGID_28_);}
	.st42{fill:#F8246A;}
	.st43{fill:url(#SVGID_29_);}
	.st44{fill:url(#SVGID_30_);}
	.st45{fill:url(#SVGID_31_);}
	.st46{fill:url(#SVGID_32_);}
	.st47{fill:url(#SVGID_33_);}
</style>
<g id="Layer_1">
	<title>bg6</title>
	<g id="bg">
		<path class="st0" d="M14.3,307.9c0,0-80.3-258.3,139.1-271.3s178.9,55.3,373.7,13.1s198.1-71.3,299.5-29.2s108,150.7,86.8,205.9
			s-63.8,98.9-60.6,129.7s72.1,110,81.2,163.5c5,29.2-9.5,79-23.1,81.1c-100.9,16.1-506.2-10.4-506.2-10.4l-235.3-10.4L43.5,562.7
			c0,0,4.3-72.2,3.9-129.3C47,374.8,14.3,307.9,14.3,307.9z"/>
		<path class="st1" d="M44,554.8c0,0-27.4,113.4,123.1,105.7s148.8-24.4,243.8,5.1s154.2,41.2,227.6,18s75.3-19.3,168.5-19.3
			s125.1-99.4,127.5-113c2.9-16-3.8-68.5-17.2-68.6c-98.5-1.2-708.6-6.3-756.7,7c-41.3,11.4-91,49.4-114.9,59.5"/>
	</g>
	<g id="window">
		<path class="st2" d="M62,455.2l93-38l1.6-380.4c0,0-68.6,4.4-95.6,30.4L62,455.2z"/>
		<path class="st2" d="M61,67.2l2.3,387.5L47,461.5c0,0,2.3-17.6-1.7-55.9C41.6,369.9,3.8,283.3,1,250.2
			c-2-23.5-0.9-119.2,22.5-147.6C45.1,76.5,61,67.2,61,67.2z"/>
		
			<ellipse transform="matrix(0.9852 -0.1716 0.1716 0.9852 -27.0138 21.0838)" class="st3" cx="108.5" cy="166.8" rx="19.5" ry="13.5"/>
		
			<ellipse transform="matrix(0.9852 -0.1716 0.1716 0.9852 -25.9871 24.8161)" class="st3" cx="130.6" cy="162.7" rx="15.9" ry="11"/>
		
			<ellipse transform="matrix(0.9852 -0.1716 0.1716 0.9852 -36.3823 6.6795)" class="st3" cx="20.4" cy="213.8" rx="19.5" ry="13.5"/>
		<ellipse transform="matrix(0.9852 -0.1716 0.1716 0.9852 -34.3711 9.8089)" class="st3" cx="39.6" cy="203.7" rx="15.9" ry="11"/>
		<path class="st3" d="M68.9,61l4.7-2.6l0.2-0.1l2.9-1.5l2.8-1.3L84.2,446l-9.8,4.1L68.9,61z"/>
		<path class="st3" d="M33.1,357.2l-1.1-3.7c-0.2,0.1-0.8-2.7-0.9-2.7l-1.2-3l-1.1-3.3l126.9-47.9l0.4,10.7L33.1,357.2z"/>
		<path class="st3" d="M2.2,258.5l-0.4-2.1c-0.2-0.6-0.5-3.1-0.7-3.7l-0.5-4.1l-0.5-3l156.5-59.8l-0.5,10.5L2.2,258.5z"/>
	</g>
	<g id="seat">
		<path class="st4" d="M425.4,400.1c3.4-4.4,5.6-9.5,6.4-15c0.9-6.7,3.3-15.1,9.4-20.9c9.3-8.8,10.6-46,10.8-59.8
			c0.1-5.2,0.9-10.4,2.4-15.3c2.8-8.7,8.4-20.8,19.4-26.6c11.2-5.9,47-8.4,57.4,0.3c21.2,17.7,18.3,41,18.6,44.7
			c1.6,17.4,0.6,30.1,9.5,41.1s18.9,24.3,16.3,37.8s20.7,33.5-4.8,41.8s-51.6,14.1-80,11.8c-25.2-2-59.6-6.1-66.4-22.8
			C421.2,409,422.9,403.5,425.4,400.1z"/>
		<path class="st5" d="M431.8,398c1.2-1.7,2.7-4.2,5.4-5.6s8.2-5.2,35.1,5.8c38.4,15.8,70-3.5,73-3.9s30.1-8.9,29.4,8.9
			s-32.8,27.4-42.5,27.8s-50.1,4.2-70-1.5s-27.5-13.4-28.9-15.3C431.8,412.1,426.8,405.1,431.8,398z"/>
		<path class="st6" d="M434.4,527.2h1.9c3.4,0.1,6.3-2.7,6.3-6.1c0-0.1,0-0.1,0-0.2l-0.2-9c0-1-0.7-1.9-1.6-2.3l-0.6-0.2
			c-1.3-0.5-2-2-1.4-3.3c0.2-0.5,0.5-0.9,0.9-1.1c0.4-0.3,0.9-0.5,1.3-0.7c4.2-1.6,13.1-6.7,36.5-9.1c12.8-1.3,19.3-1.7,22.7-1.8
			c1.4-0.1,2.5-1.2,2.5-2.7c0-0.2,0-0.4-0.1-0.6l0,0c-0.3-1.2-1.5-2-2.8-1.8c-8.2,1-37.4,4.5-47,6.8c-5.6,1.4-11,3.7-16,6.7
			c-1.9,1.2-3.2,3.2-3.4,5.5c-0.1,0.8-0.5,1.5-1.1,1.9c-1,0.7-2,1.2-3.1,1.6c-1.6,0.5-1.6,6-1.2,10.6
			C428.1,524.5,430.9,527.1,434.4,527.2z"/>
		<path class="st6" d="M576.1,527.2h-1.4c-3.7,0.1-6.8-2.9-6.8-6.6c0-0.1,0-0.2,0-0.3l0.2-8.5c0-1,0.6-1.9,1.6-2.3l0.6-0.2
			c1.3-0.5,2-2,1.4-3.3c-0.2-0.4-0.5-0.8-0.9-1.1c-0.4-0.3-0.9-0.5-1.3-0.7c-4.2-1.6-13-6.7-36.2-9.1c-12.6-1.3-19.1-1.7-22.4-1.8
			c-1.4-0.1-2.5-1.2-2.5-2.7c0-0.2,0-0.4,0.1-0.6l0,0c0.3-1.2,1.5-2,2.8-1.8c8.2,1,37.1,4.5,46.5,6.8c5.6,1.4,10.9,3.7,15.8,6.7
			c1.9,1.2,3.2,3.2,3.4,5.5c0.1,0.8,0.5,1.5,1.1,1.9c0.9,0.6,1.9,1.2,3,1.6c1.6,0.5,1.5,6.1,1.2,10.7
			C582.2,524.5,579.5,527.1,576.1,527.2z"/>
		<path class="st6" d="M501.5,444.1l-0.2,75.7c0,1-0.8,1.8-1.8,1.8l0,0h-0.4c-1,0-1.8,0.8-1.8,1.8c0,0,0,0,0,0.1l0.3,12.8
			c0.1,3.1,2.6,5.7,5.8,5.7l4,0.1c3.3,0.1,6.1-2.6,6.1-5.9c0-0.1,0-0.2,0-0.4l-0.5-12.4c0-1-0.8-1.7-1.8-1.7l0,0
			c-1,0-1.8-0.8-1.8-1.8c0,0,0,0,0,0l0.2-77.6c0-1-0.8-1.8-1.8-1.8c0,0,0,0,0,0h-4.6c-1,0-1.8,0.8-1.8,1.8c0,0,0,0,0,0.1
			L501.5,444.1z"/>
		<path class="st5" d="M501.6,499c0,0-61.2,24.6-70.8,32.8s-11.2,13.3-10.8,15.5c0,0.2,0.4,0.4,0.8,0.5c2.4,0.7,4,2.9,3.9,5.3
			l-0.2,12.9c0,2-1.7,3.6-3.6,3.6H414c-2,0-3.6-1.6-3.7-3.6l-0.2-12.8c-0.1-2.7,1.9-5.1,4.6-5.5h0.1c0,0,2.4-9.7,6.1-13
			s10.2-10.7,35.8-21.9s44.8-18.2,44.8-18.2L501.6,499z"/>
		<path class="st5" d="M509.3,498.1c0,0.8,0.5,1.6,1.2,1.9c8.4,3.6,57.2,24.7,65.6,32.2c9.1,8.2,10.6,13.3,10.2,15.5
			c-0.1,0.5-1.4,0.7-2.7,0.8c-1.1,0.1-1.9,1-1.9,2.1l0.2,13.7c0,3.2,2.7,5.8,5.9,5.8h1.7c3.2,0,5.8-2.6,5.9-5.8l0.2-13.6
			c0-1-0.7-1.9-1.7-2l-1.5-0.2c-0.8-0.1-1.4-0.7-1.6-1.5c-0.7-2.7-2.7-9.2-5.5-11.8c-3.5-3.3-9.7-10.7-33.9-21.9
			c-18.6-8.5-33.5-14.6-39.4-17c-1-0.4-2.2,0-2.6,1C509.4,497.6,509.4,497.8,509.3,498.1L509.3,498.1z"/>
	</g>
	<g id="table">
		<polygon class="st3" points="174,556.2 175,382.2 198,382.2 198,557.2 		"/>
		<polygon class="st3" points="705,379.1 706,558.2 726,558.2 726.4,379.9 		"/>
		<polygon class="st3" points="104,361.2 104,382.2 792,380.2 792,362.2 		"/>
		<polygon class="st5" points="104,361.2 153,346.2 736,347.2 792,362.2 		"/>
		<polygon class="st0" points="416.5,355.4 428,348.4 481.1,348.1 473.1,354.9 		"/>
	</g>
	<g id="Flower">
		<path class="st7" d="M152,309.1c0,0-8.7-0.4-9.8,2.4s2,41,3.4,43.3s15.2,2.9,19.1,2.9c0,0,14.5-1.3,15.2-2.3s10.5-40.5,7.3-45.8
			c-3.2-5.3-34.7-0.4-34.7-0.4"/>
		<path class="st8" d="M141.5,318.1c0,0,27,2.1,30.2,1.2c3.2-0.9,2.1-9,2.1-9l13.4-0.6c0,0,0,7.8-0.9,8.7c-1,1.2-1.8,2.6-2.3,4.1
			c0,0.5-5.7,33.5-5.7,33.5s-8.7,1.3-9.8,1.2c-1.4-0.2,3.6-27.4,3.6-29.3s0-5.5-1.4-5.5s-27.8,0.8-28-2.2
			C142.6,319.5,142.1,318.7,141.5,318.1"/>
		<path class="st8" d="M152.2,310c0,0-7.5-5.3-11.5-5.8s-8.7-1-12.7-1.6s-9.1-2.4-9-4.8c0.1-2.3,0.6-3.5,2.9-4.8
			c2-1.3,4.2-2.1,6.6-2.4c1.8-0.2,19.8,4.5,27.3,15.7l3,3.7H152.2z"/>
		<path class="st8" d="M126.1,296.9c0,0,6.9-0.1,10.7,1.1c3,1.1,5.8,2.4,8.6,4l11.3,7.9"/>
		<path class="st9" d="M126.1,296.9c0,0,6.9-0.1,10.7,1.1c3,1.1,5.8,2.4,8.6,4l11.3,7.9"/>
		<path class="st8" d="M160.1,309.7c0,0-8.8-11.9-12.2-15.2c-3.4-3.4-7.4-7.2-10.7-10.7s-7.4-8.5-5.7-10.6s3-3.5,6.2-3
			c2.5,0.3,4.9,1.2,7,2.6c1.8,1.1,17.7,16.3,20,33.7l2.3,3.5L160.1,309.7z"/>
		<path class="st9" d="M139.5,277.2c0,0,6.8,4.1,9.5,8c2.5,3.7,6.5,10.2,6.5,10.2l4.5,12.5"/>
		<path class="st7" d="M164.5,310.2c0,0-10.2-22.2-12.1-26.6s-9.7-11-11.5-15.5c-1.7-4.5-2.8-7.7-1-10.2c1.8-2.5,6.5-4.5,9.5-3
			c2.8,1.4,6.5,5.6,8.1,7.7c1.2,1.7,9.6,31.8,8.9,38.8l1.6,8.9L164.5,310.2z"/>
		<path class="st9" d="M146.4,263.2c0,0,5.9,7.6,7.7,12c2,5,4,14.5,3.7,13l6.1,20.6"/>
		<path class="st7" d="M158.9,310.1c0,0-9-10.3-13.4-12.3c-4.4-2-9.4-4.2-13.7-6.4s-9.4-5.8-8.6-8c0.9-2.2,1.8-3.1,4.9-3.5
			c2.7-0.5,5.5-0.4,8.2,0.2c2,0.5,20.8,11.9,25.6,25.4l2.2,4.7L158.9,310.1z"/>
		<path class="st9" d="M131.5,285.4c0,0,7.8,2.6,11.7,5.2c2.9,2.2,5.7,4.5,8.4,7.1l8.6,12.6"/>
		<path class="st8" d="M182.4,310.3c0,0,8.2-5,12.5-5.5s9.3-0.9,13.7-1.5s9.8-2.3,9.7-4.5c-0.1-2.2-0.6-3.3-3.2-4.6
			c-2.2-1.2-4.6-2-7.1-2.3c-1.9-0.2-21.5,4.3-29.6,15l-3.3,3.5L182.4,310.3z"/>
		<path class="st8" d="M210.6,297.9c0,0-7.5-0.1-11.6,1.1c-3.2,1-6.3,2.3-9.3,3.8l-10.9,7.3"/>
		<path class="st9" d="M210.6,297.9c0,0-7.5-0.1-11.6,1.1c-3.2,1-6.3,2.3-9.3,3.8l-10.9,7.3"/>
		<path class="st8" d="M173.8,310.1c0,0,9.5-11.4,13.2-14.6s8-6.9,11.6-10.2s8-8.1,6.2-10.1s-3.2-3.3-6.7-2.9
			c-2.7,0.2-5.2,1.1-7.5,2.5c-1.9,1.1-19.1,15.6-21.6,32.2l-2.5,3.4L173.8,310.1z"/>
		<path class="st9" d="M196.1,279c0,0-7.4,3.9-10.3,7.6c-2.7,3.5-7.1,9.8-7.1,9.8l-4.9,11.9"/>
		<path class="st7" d="M169.1,310.6c0,0,11.1-21.2,13.1-25.4s10.5-10.5,12.4-14.8s3.1-7.4,1.1-9.7c-2-2.3-7.1-4.3-10.3-2.9
			c-3.1,1.3-7,5.3-8.8,7.4c-1.4,1.6-10.4,30.4-9.7,37.1l-1.7,8.5L169.1,310.6z"/>
		<path class="st8" d="M168,310.3c0,0,0.9-20.7,3-27.4c1.4-4.5,2.8-12,4.7-16.2s-1-9.8-2.9-12.2c-1.9-2.4-7-1.9-10.3-0.5
			c-3.1,1.3-4.8,5.6-5.2,7.9c-0.3,2.1,7,27,6.2,36.2l0.6,12.4L168,310.3z"/>
		<path class="st9" d="M188.6,265.7c0,0-6.3,7.2-8.3,11.5c-2.2,4.8-4.3,13.9-4,12.4l-7.2,20.2"/>
		<path class="st7" d="M175.2,310.5c0,0,9.8-9.8,14.5-11.7c4.7-1.9,10.2-4,14.8-6.1c4.6-2.1,10.2-5.5,9.3-7.6
			c-0.9-2.1-1.9-2.9-5.3-3.3c-2.9-0.4-5.9-0.4-8.8,0.2c-2.2,0.5-22.5,11.3-27.7,24.2l-2.4,4.4L175.2,310.5z"/>
		<path class="st9" d="M204.7,286.8c0,0-8.4,2.5-12.6,4.9c-3.1,2-6.2,4.3-9,6.7l-9.5,10.6"/>
		<path class="st9" d="M166,258.4c0,0,1.7,17.7,0.7,22.5c-0.4,2-0.2,14.5-0.2,14.5l-0.3,13.9"/>
	</g>
	<g id="computer">
		<rect x="330.1" y="250.5" class="st3" width="109.9" height="86.3"/>
		<circle class="st1" cx="382.7" cy="294.3" r="6.6"/>
		<path class="st3" d="M375.8,334.7c0,0,2.8,7.3-0.4,9.3s-22.6,9.7-22.6,9.7s-1.4,2.3,2,3c3.1,0.7,42.5,0.1,51,0
			c1.2,0.1,2.3-0.6,2.8-1.7c0.2-0.7-0.1-1.5-1.6-2c-2.6-0.9-12.2-6.2-16.4-8.4c-1.5-0.8-1.9-2.3-2.2-3.8c-0.5-2.3-0.8-4.8,0.8-5.3
			c2.5-0.8-13.3,0.2-13.3,0.2"/>
	</g>
	<g id="books">
		<polygon class="st4" points="292.5,241.6 578.3,241.2 577.8,193.4 276.3,195.7 276.1,241.6 		"/>
		<polygon class="st5" points="435.5,202 435.5,234.9 570,234.4 570,202.4 		"/>
		<polygon class="st5" points="291.7,202 291.7,234.9 426.2,234.4 426.2,202.4 		"/>
		<polygon class="st3" points="291.7,209.9 298.8,209.9 298.8,235 291.7,234.9 		"/>
		<polygon class="st1" points="298.9,214.3 303.6,214.3 303.8,234.9 298.8,235 		"/>
		<polygon class="st3" points="417.5,209.7 421.6,209.7 421.6,234.8 417.5,234.7 		"/>
		<polygon class="st1" points="421.7,214.1 426.4,214.1 426.6,234.7 421.6,234.8 		"/>
		<polygon class="st1" points="304,211.1 308.7,211.1 308.9,234.9 303.9,235 		"/>
		<polygon class="st3" points="308.6,216.8 311,214.9 323.3,232.7 320.6,234.9 		"/>
		<polygon class="st3" points="365.8,234.8 395.3,234.8 395.1,231.4 365.8,231.6 		"/>
		<polygon class="st4" points="370.7,231.5 400.2,231.5 400.1,228.2 370.7,228.4 		"/>
		<polygon class="st3" points="440.2,208.7 444.3,208.7 444.4,235.1 440.2,235 		"/>
		<polygon class="st1" points="444.4,214.3 449.1,214.3 449.3,234.9 444.4,235 		"/>
		<polygon class="st3" points="561,209.6 565.1,209.6 565.2,234.6 561,234.6 		"/>
		<polygon class="st1" points="565.1,213.6 570,213.6 570.2,234.4 565.2,234.5 		"/>
		<polygon class="st1" points="556.3,215.7 561,215.7 561.2,234.6 556.2,234.7 		"/>
		<polygon class="st1" points="435.4,211.1 440.2,211.1 440.3,235 435.4,235.1 		"/>
		<polygon class="st3" points="484.4,216.9 486.8,214.9 499,232.8 496.4,234.9 		"/>
		<polygon class="st3" points="464.4,234.8 493.9,234.8 493.7,231.5 464.4,231.7 		"/>
		<polygon class="st4" points="462.8,231.7 492.2,231.7 492.1,228.4 462.8,228.6 		"/>
		<polyline class="st4" points="578.1,190.9 577.8,152.6 845.8,152.6 846.4,244.2 578.3,246.4 578.1,194.4 		"/>
		<path class="st4" d="M387.2,168.7c0,0-2.6-0.9-2.8-1.5s-1.1-4.3,0.6-4.3h14.6c0,0,2.4,3.9-0.6,4.7s-0.4,2.4,0.4,2.4s2.8,0,3.2,1.1
			s0.4,23.6,0.4,23.6h-21.7v-21.9c0-1.3,1-2.3,2.3-2.4c0,0,0.1,0,0.1,0C386.1,170.4,387.8,169.8,387.2,168.7z"/>
		<rect x="384.6" y="177.4" class="st3" width="15.2" height="9.4"/>
		<path class="st5" d="M412,168.7c0,0-2.6-0.9-2.8-1.5s-1.1-4.3,0.6-4.3h14.6c0,0,2.4,3.9-0.6,4.7s-0.4,2.4,0.4,2.4s2.8,0,3.2,1.1
			s0.4,23.6,0.4,23.6h-21.7v-21.9c0-1.3,1-2.3,2.3-2.4c0,0,0.1,0,0.1,0C411,170.4,412.7,169.8,412,168.7z"/>
		<rect x="409.4" y="177.4" class="st3" width="15.2" height="9.4"/>
		<path class="st4" d="M437.6,168.4c0,0-2.6-0.9-2.8-1.5s-1.1-4.3,0.6-4.3h14.6c0,0,2.4,3.9-0.6,4.7s-0.4,2.4,0.4,2.4s2.8,0,3.2,1.1
			s0.4,23.6,0.4,23.6h-21.7v-21.9c0-1.3,1-2.3,2.3-2.4c0,0,0.1,0,0.1,0C436.5,170.1,438.3,169.5,437.6,168.4z"/>
		<rect x="435" y="177.1" class="st3" width="15.2" height="9.4"/>
		<rect x="587.3" y="161.9" class="st5" width="123.8" height="75.6"/>
		<circle class="st5" cx="724.4" cy="201.7" r="5.4"/>
		<path class="st3" d="M670,211.6c0,0-2.6-0.9-2.8-1.5s-1.1-4.3,0.6-4.3h14.6c0,0,2.4,3.9-0.6,4.7s-0.4,2.4,0.4,2.4s2.8,0,3.2,1.1
			s0.4,23.6,0.4,23.6h-21.7v-21.9c0-1.3,1-2.3,2.3-2.4c0,0,0.1,0,0.1,0C668.9,213.3,670.6,212.7,670,211.6z"/>
		<rect x="667.3" y="220.3" class="st1" width="15.2" height="9.4"/>
	</g>
</g>
<g id="Layer_2">
	<g id="Layer_6">
		<g id="Layer_18">
			
				<linearGradient id="SVGID_1_" gradientUnits="userSpaceOnUse" x1="1625.6091" y1="-918.1061" x2="1707.9948" y2="-918.1061" gradientTransform="matrix(1 0 0 -1 -858.14 -351.79)">
				<stop  offset="0" style="stop-color:#93FD93"/>
				<stop  offset="0.51" style="stop-color:#21C2C1"/>
				<stop  offset="1" style="stop-color:#84F599"/>
			</linearGradient>
			<path class="st10" d="M840.6,602.6c0,0,6.3-34.1-26.8-52.4c-33.1-18.3-34.6-18.1-41.1-20.1c-3.8-1.3-7.6,1.4-3.3,6.9
				s1.9,6.9,10.6,9.3c8.7,2.4,10,13,14.4,15.6c4.3,2.6,8.1,3.3,21.4,9.1c12.1,5.2,22.3,19.9,22.3,25.1c0,5.2,11.8,6.9,11.8,6.9
				L840.6,602.6z"/>
			
				<linearGradient id="SVGID_2_" gradientUnits="userSpaceOnUse" x1="1656.4784" y1="-892.0875" x2="1703.2897" y2="-949.4793" gradientTransform="matrix(1 0 0 -1 -858.14 -351.79)">
				<stop  offset="0" style="stop-color:#93FD93"/>
				<stop  offset="0.51" style="stop-color:#21C2C1"/>
				<stop  offset="1" style="stop-color:#84F599"/>
			</linearGradient>
			<path class="st11" d="M839.4,597.8c0,0,8.4-31.4-20.5-48.4c-28.9-17-39.1-16.8-44.8-18.8c-3.3-1.2,5.7,2.9,9.5,7.9
				c3.8,5,2.8,3.9,9.6,7.7c7.9,4.3,11.1,8.6,15.8,9.4c6.7,1.3,4.7,8.3,16.3,13.5c10.5,4.8,11.8,17.5,11.8,22.3
				c0,4.8,10.3,6.4,10.3,6.4L839.4,597.8z"/>
			
				<linearGradient id="SVGID_3_" gradientUnits="userSpaceOnUse" x1="1710.3809" y1="-956.9851" x2="1774.7371" y2="-907.1899" gradientTransform="matrix(1 0 0 -1 -858.14 -351.79)">
				<stop  offset="0" style="stop-color:#93FD93"/>
				<stop  offset="0.51" style="stop-color:#21C2C1"/>
				<stop  offset="1" style="stop-color:#84F599"/>
			</linearGradient>
			<path class="st12" d="M868.6,593.2l3.3-3.1c1.6-1.4,3.5-2.5,5.6-3.1c10.2-2.7,42.4-12.8,55.7-37.1c0.1-0.2,0-0.5-0.2-0.6h-0.1
				c-0.1,0-0.1-0.1-0.2-0.1c-4.4-0.3-27.3-0.7-57.9,25.4c-0.5,0.4-1.1,1-1.5,1.5c-0.8,1.1-2,2.9-2.6,3.9c-0.8,1.4,0.8,3.8-1.3,5.8
				s-6.8,7.3-6.8,7.3l3.8,2.8L868.6,593.2z"/>
			
				<linearGradient id="SVGID_4_" gradientUnits="userSpaceOnUse" x1="1726.5596" y1="-931.696" x2="1671.2838" y2="-861.72" gradientTransform="matrix(1 0 0 -1 -858.14 -351.79)">
				<stop  offset="0" style="stop-color:#93FD93"/>
				<stop  offset="0.51" style="stop-color:#21C2C1"/>
				<stop  offset="1" style="stop-color:#84F599"/>
			</linearGradient>
			<path class="st13" d="M851.1,591.2c0,0,8.8-78.5-15.2-103.2c-22.1-22.7-22.4-1.8-22.3,1.7c0,0.3,0.1,0.6,0.2,0.9
				c5.2,9.7,7,20.9,5.1,31.7c-2.3,11.4,14,9.9,15.4,21.1s7.1,28.4,6.5,36.4c-0.6,7.9-0.6,15.6-0.6,15.6l8.8,0.3L851.1,591.2z"/>
			
				<linearGradient id="SVGID_5_" gradientUnits="userSpaceOnUse" x1="1671.984" y1="-888.3323" x2="1710.8754" y2="-888.3323" gradientTransform="matrix(1 0 0 -1 -858.14 -351.79)">
				<stop  offset="0" style="stop-color:#93FD93"/>
				<stop  offset="0.51" style="stop-color:#21C2C1"/>
				<stop  offset="1" style="stop-color:#84F599"/>
			</linearGradient>
			<path class="st14" d="M851,591.5c0.1-0.2,0.1-0.4,0.2-0.5c0.5-5.1,7.9-79.1-15.2-103c-21.9-22.6-22.2-2.1-22.1,1.6
				c0.1,0.4,0.3,0.9,0.5,1.2c1.6,2.4,8.8,12.6,15.3,11.5c17.7-3.2,2.1,18.2,11.7,29.6c7.7,9,5.1,40.1,4.6,48.1
				c-0.4,4.5-1.1,8.9-2.2,13.3c-0.2,1.1,0.5,2.2,1.6,2.4c0.1,0,0.1,0,0.2,0c0.2,0,0.3,0.1,0.4,0.1h1.6c1,0.1,1.8-0.4,2.3-1.3
				L851,591.5z"/>
			
				<linearGradient id="SVGID_6_" gradientUnits="userSpaceOnUse" x1="1707.5419" y1="-951.8732" x2="1749.6709" y2="-890.9457" gradientTransform="matrix(1 0 0 -1 -858.14 -351.79)">
				<stop  offset="0" style="stop-color:#93FD93"/>
				<stop  offset="0.51" style="stop-color:#21C2C1"/>
				<stop  offset="1" style="stop-color:#84F599"/>
			</linearGradient>
			<path class="st15" d="M859.7,596c0,0,1.6-21.8,14.3-35c3.5-3.6,8-6.2,13-7.3c3.8-0.9,10-3.9,15.4-14.1c0,0,10.2-14.5,20.5-18.9
				c10.2-4.4,0-4.9,0-4.9s-29.3,5.6-48,22.7c-1.2,1.1-2.4,2.1-3.8,2.9c-4.9,3.3-18.3,15.9-17.7,52.4L859.7,596z"/>
			
				<linearGradient id="SVGID_7_" gradientUnits="userSpaceOnUse" x1="1683.2542" y1="-967.6188" x2="1743.2793" y2="-967.6188" gradientTransform="matrix(1 0 0 -1 -858.14 -351.79)">
				<stop  offset="6.880928e-04" style="stop-color:#58CAEA"/>
				<stop  offset="0.9992" style="stop-color:#4B45BD"/>
			</linearGradient>
			<path class="st16" d="M885.1,594.3c0,0,0.4-2.6-3.1-2.6c-3.1,0.1-54.7-0.3-54.7-0.3s-2.4,0-2.2,1.8c0.2,1.8,8,44.8,8.7,45.8
				c0.3,0.5,0.9,1,1.5,1.1c1,0.3,37.2,0.1,37.2,0.1c0.9-0.1,1.5-0.8,1.6-1.7C874,638.6,885.2,594.8,885.1,594.3"/>
		</g>
	</g>
	<g id="man_with_ipad">
		<g>
			<path class="st17" d="M230.7,569.3l-2.6-0.1l-13.3,0.1c0,0-2.9,13.6-4.5,19.3c-0.1,0.4-0.4,1.3-0.6,2c-0.2,1-0.3,2-0.3,3
				c0.3,5.2,2.2,9.5,6.8,11.9c5,2.6,8.9,4.9,14.3,0c5.4-4.9,6.1-8,4-16.5C232.6,580.4,231.9,569.6,230.7,569.3z"/>
			<path class="st17" d="M286.3,586.3L286.3,586.3c-9.2-2.9-15.3-15.3-15.3-15.3l-15.6-0.9c0,0-0.9,12.6-1.3,19
				c-0.6,8.5,0.9,12.3,6.5,11.9c7.4-0.6,37.4,2.1,42.2-0.9C308.9,596,294.8,589,286.3,586.3z"/>
		</g>
		
			<linearGradient id="SVGID_8_" gradientUnits="userSpaceOnUse" x1="192.4434" y1="582.026" x2="289.2537" y2="582.026" gradientTransform="matrix(1 0 0 1 0 -124)">
			<stop  offset="0" style="stop-color:#4F68CA"/>
			<stop  offset="1" style="stop-color:#5ACEED"/>
		</linearGradient>
		<path class="st18" d="M192.4,344.8v18.7l22.6,206h16c0,0,5.5-141.3,5.5-146.2s1.4-20.2,1.4-20.2s20.1,58,20.5,62.9
			c0.4,4.8-3.3,104.8-3.3,104.8l16,0.6c0,0,14-67.6,14-74c0-6.4,4.8-39.6,4-46c-0.7-6.4-12.6-106-12.6-106l-24.5-0.6L192.4,344.8z"
			/>
		
			<linearGradient id="SVGID_9_" gradientUnits="userSpaceOnUse" x1="169.999" y1="361.2402" x2="301.4193" y2="361.2402" gradientTransform="matrix(1 0 0 1 0 -124)">
			<stop  offset="0" style="stop-color:#F87B58"/>
			<stop  offset="0" style="stop-color:#F87B58"/>
			<stop  offset="0.41" style="stop-color:#F89453"/>
			<stop  offset="0.71" style="stop-color:#F8C548"/>
			<stop  offset="1" style="stop-color:#F89C51"/>
		</linearGradient>
		<path class="st19" d="M296.1,323.2l-0.2-0.3C295.9,323.1,296,323.3,296.1,323.2 M249.1,305.1l-8.9,3.7l-0.5,12.4l9.9,3.9
			c0-0.1,10.8-0.4,10.8-0.5c0.1-0.5,4.3-0.4,6.2,0.9l33.5-11.5l1.2-8c0,0,2.5,10.1-8.7-10.2L249.1,305.1z M289.1,264.3l-0.7-4
			l-1.7-0.3L289.1,264.3 M227.2,156.7c-4.1,1.7-6.1,7.7-6.1,7.7s-2-1.2-2,2.2s1.7,11.1,2.9,13.1c2.1,3.3,4,6.7,5.8,10.3
			c1.6,3.6,1.1,10.8-0.6,11.9s-32.1,28.3-32.1,28.3l-25.1,77v3.1l3.8,1.3l4,3.4c0.4,0.1,5.4,2.8,6.1,3.3c4,2,8.2,3.5,12.6,4.5
			c2.8,0.6,15.4,0.3,15.4,0.3l12.7-0.3l-2.2-16.2l-18.8-0.2l-25.7-1.3l26.1-59.9l82.2,14.7c-14.6-26.4-31-56.1-32.5-59.2
			c-1.2-2.6,0.1-8.7,0.8-11.9c0.6-2.9,2.1-6.5,3.4-7.5s3.8-5.8,3.8-7.8s0.6-10.1-1.1-8.4c-0.5,0.5-2.5-2.6-3.2-5.6
			c-1.1-4.4-4.2-7.5-7.7-10.4c0,0-18.1,6-22.2,7.7"/>
		
			<linearGradient id="SVGID_10_" gradientUnits="userSpaceOnUse" x1="164.787" y1="408.1531" x2="303.6986" y2="408.1531" gradientTransform="matrix(1 0 0 1 0 -124)">
			<stop  offset="0" style="stop-color:#E1A1ED"/>
			<stop  offset="1" style="stop-color:#7658F4"/>
		</linearGradient>
		<path class="st20" d="M195.8,213.7c-4,2.7-7.7,6.3-9,11c-1.3,4.7-10.9,41.2-12.2,45.8c-3.1,11.3-5,14.6-8.7,27.8
			c-4.5,16.3,5.9,18.8,16.5,21.2c11.1,2.5,11.2,3.6,13.8,3.6c0.4,0,13.6,2.7,14-4.8c0.3-4.7-0.6-12.1-2.3-11.9
			c-4,0.6-17.1-2.9-17.8-3.3c-0.9-0.6,2.8-10.8,5-17.1c1.6-4.7,7.6-24.1,8.9-27.8c0.7-2-3.4,18.9-5.9,39.3c-0.1,0.8-1.1,8.7-0.8,8.7
			c3,0,11.2,0.1,13.7,0.4c11.5,1.3,13.7,6.8,13,11.2c-1.3,7.7-29.3,4.1-29.1,5.1c0,0-4.8,21.7-2.1,23.1c2.3,1.2,33.7,14.3,40.4,16.8
			c0.7,0.3,1.6-0.1,1.8-0.9c0,0,0,0,0-0.1l4.3-12.2c0.1-0.1,0.2-0.2,0.4-0.1c0.1,0,0.1,0.1,0.1,0.1l4,13.4c0.1,0.4,0.4,0.6,0.6,0.8
			h1.8l34.9-7.5c0,0-0.1-13.8-0.2-31.4c0-1.8-0.3-8.3-1.6-7.1s-30.4,5-33.6,3.7c-6.7-2.8-5-9.9-2.6-12.8c2.7-3.3,37.1-5,37.2-7.5
			c0.6-10.8-0.3-39.1-0.9-35.7c-0.9,5.3-21,34.4-21,39.5s-0.4,17.8-0.4,17.8l33-2.6c0,0,11.1-3.8,12.1-10.2c1-6.4-0.2-9.2-0.6-18.8
			c-0.3-6-8.8-42.3-11.2-52.6c-0.4-1.6-0.6-3.1-0.7-4.7c-0.3-4.3-2-14.2-11.2-18.5c-11.4-5.4-20.2-9.7-22.5-9.7
			c-2.1,0-8,12.8-11,16.4c-1.3,1.6-1.1,2.4-2.8,4.8c-0.9,1.3-2.6,1.5-3.9,0.6c-0.3-0.2-0.5-0.5-0.7-0.8c-1-1.4-1.8-3-2.6-4.5
			c-1.3-2.7-11.8-18.1-11.8-18.1S199.8,210.9,195.8,213.7"/>
		
			<linearGradient id="SVGID_11_" gradientUnits="userSpaceOnUse" x1="216.5845" y1="275.9377" x2="262.8274" y2="275.9377" gradientTransform="matrix(1 0 0 1 0 -124)">
			<stop  offset="0" style="stop-color:#5ACEED"/>
			<stop  offset="0.55" style="stop-color:#4F68CA"/>
			<stop  offset="1" style="stop-color:#5282D3"/>
		</linearGradient>
		<path class="st21" d="M249.5,149.2c0,0-22.3,8.3-23.9,9.5c-1.6,1.2-4.5,5.8-4.5,5.8s-1.6-0.9-1.9,1.5c0,0-2.3-4.7-2.6-7.3
			c-0.3-2.6,0-9.4,4.3-13.9c4.3-4.5,12.9-10.4,18.2-9.6c5.3,0.8,7.6,1.4,10.9,4.8c3.3,3.3,6.2,4.3,7.2,4.8c1,0.5,4.8,3.3,5.5,8.5
			c0.6,5.2-1.1,15.6-1.1,15.6s0.5-4-1.1-2.8c-1.1,0.9-2.8-2.8-3.3-5C256.5,158.8,250.8,149.7,249.5,149.2z"/>
		<g class="st22">
			<g>
				<g>
					<g>
						<defs>
							<rect id="SVGID_12_" x="242.7" y="190.5" width="14.8" height="24.2"/>
						</defs>
						<clipPath id="SVGID_13_">
							<use xlink:href="#SVGID_12_"  style="overflow:visible;"/>
						</clipPath>
						<g class="st23">
							<path d="M257,206c-0.1-0.4,2.4,1.5-0.6-0.6c-4.2-3.1-2.2-15.6-2.2-15.6c-1.6,3.3-4.3,5.8-7.6,7.1c-5.3,2-7,0.5,1.3,5.3
								c8.1,4.7,3.9,6.3,3.3,12.5"/>
						</g>
					</g>
				</g>
			</g>
		</g>
		<g>
			<g class="st22">
				<g>
					<g>
						<g>
							<defs>
								<rect id="SVGID_14_" x="249.7" y="235.3" width="41.2" height="71.5"/>
							</defs>
							<clipPath id="SVGID_15_">
								<use xlink:href="#SVGID_14_"  style="overflow:visible;"/>
							</clipPath>
							<g class="st24">
								<path d="M273.3,250.2l11.1,42c0,0-0.1,7.5-2.3,8.6c-2.2,1.1-9.2,1.8-10.8,2.6s-18.6,4.3-14.2-1.7c1-1.3,24-9.4,13.7-17.8
									s-8.5-20.2-3.5-28.3c5-8.1,3.9-15,3.9-15L273.3,250.2z"/>
							</g>
						</g>
					</g>
				</g>
			</g>
			<g class="st22">
				<g>
					<g>
						<g>
							<defs>
								<rect id="SVGID_16_" x="188.9" y="345.2" width="33.6" height="255.6"/>
							</defs>
							<clipPath id="SVGID_17_">
								<use xlink:href="#SVGID_16_"  style="overflow:visible;"/>
							</clipPath>
							<g class="st25">
								<path d="M226.4,360.8c0,0-9.6,50.9-4.6,71.2c7.5,30.8-3.3,72.5-3.3,92.5c0,13,5.1,48.9,5.5,63.6c0.1,4.4,3.3,12.9,0.9,14.9
									c-1,0.9-7.1-1.1-10.4-2.7c-1.8-0.9-2.8-2.7-2.6-4.5l2-8.7l2.8-11.5l-19.9-186.1c0,0-6.4-41.4-2.8-41.6
									S226.5,360.8,226.4,360.8"/>
							</g>
						</g>
					</g>
				</g>
			</g>
			<path class="st3" d="M217.3,292.4l37.6,4.7c0.8,0.2,1.3,0.9,1.2,1.8l-1.1,34c-0.1,1.1-0.7,2.5-1.7,2.2l-37.4-7.2
				c-0.7-0.2-1.2-0.9-1.2-1.6l-0.1-3.7l4.1-1.1c1.1-0.3,2.1-0.9,2.9-1.5c0.2-0.1,0.4-0.3,0.5-0.5l0.9-1.3c0.3-0.4,0.4-0.9,0.3-1.3
				c-0.1-0.8-0.4-1.8-0.5-2.4c-0.1-0.2-0.1-0.4-0.2-0.6l-0.9-2c-0.4-0.9-1.1-1.6-2.1-2.1l-0.6-0.3l-4-2.2l0.4-13.3
				c0-0.9,0.8-1.6,1.7-1.6C217.2,292.4,217.2,292.4,217.3,292.4z"/>
		</g>
	</g>
	<g id="Laptop">
		<title>Laptop</title>
		
			<linearGradient id="SVGID_18_" gradientUnits="userSpaceOnUse" x1="526.8295" y1="877.6448" x2="624.3043" y2="877.6448" gradientTransform="matrix(1 0 0 1 0 -554)">
			<stop  offset="0" style="stop-color:#CD94EF"/>
			<stop  offset="1" style="stop-color:#7D5DF5"/>
		</linearGradient>
		<polyline class="st26" points="528.4,354.5 611.9,351 624.3,292.8 539.5,293.5 526.8,354.4 		"/>
		<ellipse class="st3" cx="576.6" cy="325.4" rx="5.1" ry="5.4"/>
		
			<linearGradient id="SVGID_19_" gradientUnits="userSpaceOnUse" x1="1162.6687" y1="1329.8373" x2="1210.0947" y2="1329.8373" gradientTransform="matrix(1 0 0 1 -681.86 -977.55)">
			<stop  offset="0" style="stop-color:#7A5BF5"/>
			<stop  offset="1" style="stop-color:#8260F4"/>
		</linearGradient>
		<path class="st27" d="M527.6,350.2l-45.6-0.1c-0.3,0-0.5,0.2-0.6,0.5l-0.6,2.7c-0.1,0.3,0.1,0.6,0.5,0.7c0.1,0,0.1,0,0.1,0
			l45.4,0.4c0.3,0,0.5-0.2,0.6-0.5l0.8-3.1c0.1-0.3-0.1-0.6-0.4-0.7C527.7,350.2,527.7,350.2,527.6,350.2z"/>
		
			<linearGradient id="SVGID_20_" gradientUnits="userSpaceOnUse" x1="1208.7162" y1="1300.4363" x2="1306.1909" y2="1300.4363" gradientTransform="matrix(1 0 0 1 -681.86 -977.55)">
			<stop  offset="0" style="stop-color:#7A5BF5"/>
			<stop  offset="0.71" style="stop-color:#8260F4"/>
		</linearGradient>
		<path class="st28" d="M538.1,291.9l84.8-0.6c0.1,0,0.2,0.1,0.3,0.2l1.1,1.3l-84.5,0.7c-0.2,0-0.3,0.1-0.4,0.3l-11,60.3
			c0,0.2-0.2,0.3-0.4,0.3l-0.7,0c-0.2,0-0.4-0.2-0.4-0.4c0,0,0,0,0-0.1l10.5-61.4C537.4,292.2,537.7,291.9,538.1,291.9z"/>
	</g>
	<g id="Calendar">
		<title>Calendar</title>
		
			<linearGradient id="SVGID_21_" gradientUnits="userSpaceOnUse" x1="1465.3856" y1="1247.8904" x2="1476.4899" y2="1247.8904" gradientTransform="matrix(1 0 0 1 -785.59 -907.73)">
			<stop  offset="0" style="stop-color:#58CAEA"/>
			<stop  offset="1" style="stop-color:#4C4CBF"/>
		</linearGradient>
		<path class="st29" d="M685.6,323.7l-5.8,32.9c0,0,7.5-1.3,11.1,0L685.6,323.7"/>
		<path class="st30" d="M685.6,323.7l5.3,32.9c0,0,22.3-2.8,39.4-0.2l-6.1-32.6L685.6,323.7"/>
		<polygon class="st31" points="707.8,340.4 702.4,340.5 701.7,336.2 707,336.2 		"/>
		<polygon class="st31" points="716.4,340.2 711,340.3 710.2,335.9 715.5,335.9 		"/>
		<polygon class="st31" points="724.5,340.2 719.1,340.3 718.3,336 723.6,336 		"/>
		<polygon class="st31" points="725.5,346.1 720.2,346.2 719.4,341.8 724.6,341.8 		"/>
		<polygon class="st31" points="709,346 703.6,346.1 702.8,341.8 708.1,341.7 		"/>
		<polygon class="st31" points="700.7,346.3 695.3,346.4 694.5,342 699.8,342 		"/>
		<polygon class="st31" points="702,352.3 696.6,352.4 695.8,348.1 701.1,348.1 		"/>
		<polygon class="st31" points="710.3,352.2 704.9,352.3 704.1,348 709.4,347.9 		"/>
		<polygon class="st31" points="718.8,352.2 713.4,352.3 712.6,347.9 717.9,347.9 		"/>
		
			<linearGradient id="SVGID_22_" gradientUnits="userSpaceOnUse" x1="1480.5219" y1="1260.1307" x2="1486.6023" y2="1260.1307" gradientTransform="matrix(0.9997 -2.303631e-02 2.303631e-02 0.9997 -797.7697 -881.6936)">
			<stop  offset="0" style="stop-color:#58CAEA"/>
			<stop  offset="1" style="stop-color:#4C4CBF"/>
		</linearGradient>
		<polygon class="st32" points="717.5,346 712.1,346.1 711.3,341.8 716.6,341.7 		"/>
		
			<linearGradient id="SVGID_23_" gradientUnits="userSpaceOnUse" x1="685.6432" y1="846.3814" x2="725.9604" y2="846.3814" gradientTransform="matrix(1 0 0 1 0 -518)">
			<stop  offset="0" style="stop-color:#4C4FC0"/>
			<stop  offset="1" style="stop-color:#58CAEA"/>
		</linearGradient>
		<polygon class="st33" points="685.6,323.7 687.1,333.1 726,332.9 724.2,323.8 		"/>
		
			<linearGradient id="SVGID_24_" gradientUnits="userSpaceOnUse" x1="696.2399" y1="841.6005" x2="699.5172" y2="841.6005" gradientTransform="matrix(1 0 0 1 0 -518)">
			<stop  offset="0" style="stop-color:#4D54C2"/>
			<stop  offset="1" style="stop-color:#4C4CBF"/>
		</linearGradient>
		<polygon class="st34" points="696.2,321.6 699.2,321.5 699.5,325.7 696.6,325.7 		"/>
		
			<linearGradient id="SVGID_25_" gradientUnits="userSpaceOnUse" x1="714.6634" y1="841.6454" x2="717.496" y2="841.6454" gradientTransform="matrix(1 0 0 1 0 -518)">
			<stop  offset="0" style="stop-color:#4D54C2"/>
			<stop  offset="1" style="stop-color:#4C4CBF"/>
		</linearGradient>
		<polygon class="st35" points="714.7,321.8 717.2,321.7 717.5,325.6 715,325.6 		"/>
		
			<linearGradient id="SVGID_26_" gradientUnits="userSpaceOnUse" x1="1465.3856" y1="1264.3475" x2="1465.3856" y2="1264.3475" gradientTransform="matrix(1 0 0 1 -785.59 -907.73)">
			<stop  offset="0" style="stop-color:#58CAEA"/>
			<stop  offset="1" style="stop-color:#4C4CBF"/>
		</linearGradient>
		<path class="st36" d="M679.8,356.6"/>
	</g>
	<g id="Books">
		<title>Books</title>
		<g id="Files">
			<path class="st37" d="M526.4,183.8h17.7c0.2,0,0.3,0.1,0.3,0.3l0,0c0,0.2-0.1,0.3-0.3,0.3h-17.7c-0.2,0-0.3-0.1-0.3-0.3l0,0
				C526.1,184,526.2,183.8,526.4,183.8z"/>
			<path class="st37" d="M526.4,184.9h17.7c0.2,0,0.3,0.1,0.3,0.3l0,0c0,0.2-0.1,0.3-0.3,0.3h-17.7c-0.2,0-0.3-0.1-0.3-0.3l0,0
				C526.1,185,526.2,184.9,526.4,184.9z"/>
			<path class="st37" d="M526.4,186h17.7c0.2,0,0.3,0.1,0.3,0.3l0,0c0,0.2-0.1,0.3-0.3,0.3h-17.7c-0.2,0-0.3-0.1-0.3-0.3l0,0
				C526.1,186.1,526.2,186,526.4,186z"/>
			<path class="st37" d="M530.4,189.4h16.1c0.2,0,0.3,0.1,0.3,0.3l0,0c0,0.2-0.1,0.3-0.3,0.3h-16.1c-0.2,0-0.3-0.1-0.3-0.3l0,0
				C530.1,189.5,530.3,189.4,530.4,189.4z"/>
			<path class="st37" d="M530.4,190.5h16.1c0.2,0,0.3,0.1,0.3,0.3l0,0c0,0.2-0.1,0.3-0.3,0.3h-16.1c-0.2,0-0.3-0.1-0.3-0.3l0,0
				C530.1,190.6,530.3,190.5,530.4,190.5z"/>
			<path class="st37" d="M530.4,191.5h16.1c0.2,0,0.3,0.1,0.3,0.3l0,0c0,0.2-0.1,0.3-0.3,0.3h-16.1c-0.2,0-0.3-0.1-0.3-0.3l0,0
				C530.1,191.7,530.3,191.5,530.4,191.5z"/>
		</g>
		<g id="book1">
			<path class="st38" d="M502.5,182.7"/>
			
				<linearGradient id="SVGID_27_" gradientUnits="userSpaceOnUse" x1="1246.2596" y1="1066.2048" x2="1290.719" y2="1066.2048" gradientTransform="matrix(1 0 0 1 -746 -881)">
				<stop  offset="0" style="stop-color:#4B46BD"/>
				<stop  offset="1" style="stop-color:#5CD4EE"/>
			</linearGradient>
			<path class="st39" d="M502.7,182.7c0,0-2.4,0.2-2.4,2.6s2.5,2.5,2.5,2.5l42,0.1v-0.7H526c0,0-0.6,0.1-0.5-0.8v-2.5
				c0-0.3,0.2-0.5,0.5-0.6h0c0.8,0,18.4,0.2,18.4,0.2v-0.9L502.7,182.7z"/>
			<line class="st40" x1="525.7" y1="183.7" x2="543.9" y2="183.8"/>
			<line class="st40" x1="525.7" y1="184.2" x2="543.9" y2="184.3"/>
			<line class="st40" x1="525.7" y1="184.7" x2="543.9" y2="184.8"/>
			<line class="st40" x1="525.7" y1="185.1" x2="543.9" y2="185.2"/>
			<line class="st40" x1="525.7" y1="185.7" x2="543.9" y2="185.8"/>
			<line class="st40" x1="525.7" y1="186.3" x2="543.9" y2="186.4"/>
		</g>
		<g id="book2">
			
				<linearGradient id="SVGID_28_" gradientUnits="userSpaceOnUse" x1="1247.8246" y1="1071.6229" x2="1293.2562" y2="1071.6229" gradientTransform="matrix(1 0 0 1 -746 -881)">
				<stop  offset="0" style="stop-color:#7D5DF5"/>
				<stop  offset="1" style="stop-color:#CD94EF"/>
			</linearGradient>
			<path class="st41" d="M504.4,187.8c0,0-2.6,0.3-2.6,2.9c0,2.3,1.8,2.8,2.3,2.9c0.1,0,0.2,0,0.2,0l42.8,0l0-0.9l-16.6,0
				c0,0-1.1,0-0.9-1.1v-2.2c0,0-0.1-0.8,0.8-0.8c0.8,0,16.5,0.2,16.5,0.2v-1.1L504.4,187.8z"/>
			<line class="st40" x1="530" y1="189.2" x2="545.8" y2="189.3"/>
			<line class="st40" x1="530" y1="189.7" x2="545.8" y2="189.7"/>
			<line class="st40" x1="530" y1="190.1" x2="545.8" y2="190.2"/>
			<line class="st40" x1="530" y1="190.6" x2="545.8" y2="190.7"/>
			<line class="st40" x1="530" y1="191.2" x2="545.8" y2="191.3"/>
			<line class="st40" x1="530" y1="191.8" x2="545.8" y2="191.9"/>
			<line class="st40" x1="530" y1="192.3" x2="545.8" y2="192.4"/>
			<path class="st42" d="M528.6,183.8h1.4c0.4,0.3,0.7,0.7,0.8,1.2c0.2,0.8,0,1.1,0.5,2c0.3,0.6,0.6,0.9,0.8,1.3
				c0,0.1,0.1,0.6,0.1,0.7l0.1,1.4l-0.6-0.4l-0.6,0.6c0,0,0-1.9-0.2-2.3c-0.2-0.4-1.2-1.7-1.1-2.6
				C530.1,184.8,529.7,184.4,528.6,183.8z"/>
		</g>
		
			<linearGradient id="SVGID_29_" gradientUnits="userSpaceOnUse" x1="544.0267" y1="665.6865" x2="568.8185" y2="634.7535" gradientTransform="matrix(1 0 0 1 0 -478)">
			<stop  offset="0" style="stop-color:#4B46BD"/>
			<stop  offset="1" style="stop-color:#5CD4EE"/>
		</linearGradient>
		<path class="st43" d="M551.7,157.8h3.2c0.8,0,1.4,0.6,1.4,1.4V193c0,0.8-0.6,1.4-1.4,1.4h-3.2c-0.8,0-1.4-0.6-1.4-1.4v-33.8
			C550.3,158.4,550.9,157.8,551.7,157.8z"/>
		
			<linearGradient id="SVGID_30_" gradientUnits="userSpaceOnUse" x1="476.567" y1="665.4494" x2="501.3587" y2="634.5164" gradientTransform="matrix(1 0 0 1 0 -478)">
			<stop  offset="0" style="stop-color:#4B46BD"/>
			<stop  offset="1" style="stop-color:#5CD4EE"/>
		</linearGradient>
		<path class="st44" d="M484.3,157.5h3.2c0.8,0,1.4,0.6,1.4,1.4v33.8c0,0.8-0.6,1.4-1.4,1.4h-3.2c-0.8,0-1.4-0.6-1.4-1.4v-33.8
			C482.8,158.2,483.5,157.5,484.3,157.5z"/>
		
			<linearGradient id="SVGID_31_" gradientUnits="userSpaceOnUse" x1="1091.6259" y1="963.2016" x2="1114.8467" y2="934.2283" gradientTransform="matrix(0.7881 -0.455 0.37 0.6409 -648.9563 73.0098)">
			<stop  offset="0" style="stop-color:#4B46BD"/>
			<stop  offset="1" style="stop-color:#5CD4EE"/>
		</linearGradient>
		<path class="st45" d="M563.1,172.3l2.3-1.3c0.7-0.4,1.6-0.2,1.9,0.5l11.3,19.5c0.4,0.7,0.2,1.6-0.5,1.9l-2.3,1.3
			c-0.7,0.4-1.6,0.2-1.9-0.5l-11.3-19.5C562.2,173.6,562.4,172.7,563.1,172.3z"/>
		
			<linearGradient id="SVGID_32_" gradientUnits="userSpaceOnUse" x1="551.2473" y1="666.7832" x2="572.8083" y2="639.8812" gradientTransform="matrix(1 0 0 1 0 -478)">
			<stop  offset="0" style="stop-color:#7D5DF5"/>
			<stop  offset="1" style="stop-color:#CD94EF"/>
		</linearGradient>
		<path class="st46" d="M557.7,163h3.2c0.8,0,1.4,0.6,1.4,1.4V193c0,0.8-0.6,1.4-1.4,1.4h-3.2c-0.8,0-1.4-0.6-1.4-1.4v-28.6
			C556.3,163.6,556.9,163,557.7,163z"/>
		
			<linearGradient id="SVGID_33_" gradientUnits="userSpaceOnUse" x1="482.9966" y1="665.7244" x2="506.981" y2="635.7991" gradientTransform="matrix(1 0 0 1 0 -478)">
			<stop  offset="0" style="stop-color:#7D5DF5"/>
			<stop  offset="1" style="stop-color:#CD94EF"/>
		</linearGradient>
		<path class="st47" d="M490.4,158.8h3.2c0.8,0,1.4,0.6,1.4,1.4v32.5c0,0.8-0.6,1.4-1.4,1.4h-3.2c-0.8,0-1.4-0.6-1.4-1.4v-32.5
			C489,159.5,489.6,158.8,490.4,158.8z"/>
	</g>
</g>
</svg>
