<?xml version="1.0" encoding="utf-8"?>
<!-- Generator: Adobe Illustrator 21.1.0, SVG Export Plug-In . SVG Version: 6.00 Build 0)  -->
<svg version="1.1" id="bag" xmlns="http://www.w3.org/2000/svg" xmlns:xlink="http://www.w3.org/1999/xlink" x="0px" y="0px"
	 viewBox="0 0 87.4 85.2" style="enable-background:new 0 0 87.4 85.2;" xml:space="preserve">
<style type="text/css">
	.st0{fill:url(#SVGID_1_);}
	.st1{fill:url(#SVGID_2_);}
	.st2{fill:#7A5BF5;}
	.st3{fill:#FFFFFF;}
</style>
<title>Bag</title>
<linearGradient id="SVGID_1_" gradientUnits="userSpaceOnUse" x1="1496.0138" y1="-588.7603" x2="1581.1438" y2="-628.1903" gradientTransform="matrix(1 0 0 -1 -1511.98 -565.56)">
	<stop  offset="0" style="stop-color:#7A5BF5"/>
	<stop  offset="1" style="stop-color:#CD94EF"/>
</linearGradient>
<path class="st0" d="M9.5,22.8c0,0-11.1,40.3-9.3,44.8S11,73,15,73.9s40.3,10.4,44,10.6s3.4,0.7,5,0.7s21.8-6.8,22.5-9.2
	s1.3-4,0.7-7s-9.8-41.4-12.3-42.2S9.5,22.8,9.5,22.8z"/>
<linearGradient id="SVGID_2_" gradientUnits="userSpaceOnUse" x1="1509.1638" y1="-578.3535" x2="1565.7438" y2="-604.5634" gradientTransform="matrix(1 0 0 -1 -1511.98 -565.56)">
	<stop  offset="0" style="stop-color:#7A5BF5"/>
	<stop  offset="1" style="stop-color:#E5A4ED"/>
</linearGradient>
<path class="st1" d="M7.6,30c0,0,0.8-6.3,1.9-7.2s4.2-5,7.2-5.2s51.3,5.9,53.1,6.3s4.2,1.3,5,2.8s-7,3.3-8.5,8.1
	S37.2,49.7,30.4,50.4S7.6,30,7.6,30z"/>
<path class="st2" d="M23.4,19.2c0,0,5.2-11.3,7.7-13.4c2.2-1.9,10.1-6,14.9,0.1c5.4,6.9,4.9,14.9,4.9,15.9s-5.3,0.1-5.3,0.1
	s1.7-8.2,0.2-11c-1.4-2.6-2.2-5.7-7.2-5.4s-6.8,3.1-8.3,5.7c-1.3,2.6-2.3,5.3-3.2,8.1C26.9,19.6,23.4,19.2,23.4,19.2z"/>
<path class="st2" d="M31.7,19.9c0,0,5.2-13.8,7.7-16.4C41.6,1.2,50-3.4,54.8,4c5.4,8.4,4.3,17.8,4.3,18.9s-5.3,0.2-5.3,0.2
	s1.6-10,0.1-13.5c-1.4-3.2-2.2-7-7.1-6.6s-6.8,3.7-8.3,7c-1.3,3.2-2.3,6.5-3.2,9.9C35.3,20.4,31.7,19.9,31.7,19.9z"/>
<path class="st2" d="M64.2,37.6c0,0-4.6,38.7-4,41.3s2.1,6.3,3.2,6.3s2.9-0.2,2.2-1.1c-2.3-3.3-3.3-7.4-2.7-11.3
	c0.7-6.3,3.4-38,3.4-38L64.2,37.6z"/>
<circle class="st3" cx="29.2" cy="50.4" r="2.8"/>
</svg>
