<svg id="Layer_2" data-name="Layer 2" xmlns="http://www.w3.org/2000/svg" xmlns:xlink="http://www.w3.org/1999/xlink" viewBox="0 0 675.29 309"><defs><style>.cls-1{fill:url(#linear-gradient);}.cls-2{fill:#4b45bd;}.cls-3{fill:url(#linear-gradient-2);}.cls-4{fill:url(#linear-gradient-3);}.cls-5{fill:url(#linear-gradient-4);}.cls-6{fill:url(#linear-gradient-5);}.cls-7{fill:url(#linear-gradient-6);}.cls-8{fill:url(#linear-gradient-7);}.cls-9{fill:url(#linear-gradient-8);}.cls-10{fill:url(#linear-gradient-9);}</style><linearGradient id="linear-gradient" y1="182.28" x2="675.29" y2="182.28" gradientUnits="userSpaceOnUse"><stop offset="0" stop-color="#4b45bd"/><stop offset="1" stop-color="#58caea"/></linearGradient><linearGradient id="linear-gradient-2" x1="487.61" y1="90.27" x2="624.16" y2="90.27" xlink:href="#linear-gradient"/><linearGradient id="linear-gradient-3" x1="710.82" y1="472.55" x2="1313.19" y2="472.55" xlink:href="#linear-gradient"/><linearGradient id="linear-gradient-4" x1="32.98" y1="47.49" x2="637.86" y2="47.49" xlink:href="#linear-gradient"/><linearGradient id="linear-gradient-5" x1="32.98" y1="82.21" x2="637.86" y2="82.21" xlink:href="#linear-gradient"/><linearGradient id="linear-gradient-6" x1="32.98" y1="122.14" x2="637.86" y2="122.14" xlink:href="#linear-gradient"/><linearGradient id="linear-gradient-7" x1="32.98" y1="153.39" x2="637.86" y2="153.39" xlink:href="#linear-gradient"/><linearGradient id="linear-gradient-8" x1="36.15" y1="254.32" x2="228.03" y2="254.32" xlink:href="#linear-gradient"/><linearGradient id="linear-gradient-9" x1="330.99" y1="255.19" x2="647.67" y2="255.19" xlink:href="#linear-gradient"/></defs><title>bank</title><polygon class="cls-1" points="0 161.44 0 203.11 675.29 203.11 675 162 0 161.44"/><polygon class="cls-2" points="72.91 19.1 71.83 163.18 92.01 163.18 91.9 19.1 72.91 19.1"/><polygon class="cls-3" points="583.28 17.36 584.77 163.18 604.11 163.18 604.04 17.36 583.28 17.36"/><path class="cls-4" d="M710.82,482.1S716,463,729.91,463l561.17.14a11.35,11.35,0,0,1,5.41,1.37c4.74,2.56,14.14,8.61,16.7,17.58Z" transform="translate(-674 -463)"/><polygon class="cls-5" points="32.98 38.95 32.98 55.55 637.86 56.04 637.38 39.93 32.98 38.95"/><polygon class="cls-6" points="32.98 73.67 32.98 90.27 637.86 90.76 637.38 74.65 32.98 73.67"/><polygon class="cls-7" points="32.98 113.6 32.98 130.2 637.86 130.69 637.38 114.57 32.98 113.6"/><polygon class="cls-8" points="32.98 144.84 32.98 161.44 637.86 161.93 637.38 145.82 32.98 144.84"/><polygon class="cls-9" points="60.76 201.37 61.23 307.26 109.36 307.26 110.79 201.37 60.76 201.37"/><polygon class="cls-10" points="567.66 201.84 568.59 309 618 309 617.07 201.37 567.66 201.84"/></svg>