<svg id="Books" xmlns="http://www.w3.org/2000/svg" xmlns:xlink="http://www.w3.org/1999/xlink" viewBox="0 0 809.68 311.62"><defs><style>.cls-1{fill:#f4f4f4;}.cls-2{fill:#4b46bd;}.cls-3{fill:url(#linear-gradient);}.cls-4{fill:url(#linear-gradient-2);}.cls-5{fill:#5accec;}.cls-6{fill:#f2f2f2;}.cls-7{fill:#f8246a;}.cls-8{fill:url(#linear-gradient-3);}.cls-9{fill:url(#linear-gradient-4);}.cls-10{fill:url(#linear-gradient-5);}.cls-11{fill:url(#linear-gradient-6);}.cls-12{fill:url(#linear-gradient-7);}</style><linearGradient id="linear-gradient" x1="893" y1="636.5" x2="1268" y2="636.5" gradientUnits="userSpaceOnUse"><stop offset="0" stop-color="#4b46bd"/><stop offset="1" stop-color="#5cd4ee"/></linearGradient><linearGradient id="linear-gradient-2" x1="906.28" y1="682.21" x2="1289.46" y2="682.21" gradientUnits="userSpaceOnUse"><stop offset="0" stop-color="#f71f68"/><stop offset="1" stop-color="#f9c448"/></linearGradient><linearGradient id="linear-gradient-3" x1="516.17" y1="254.44" x2="725.28" y2="-6.47" xlink:href="#linear-gradient"/><linearGradient id="linear-gradient-4" x1="-52.83" y1="252.44" x2="156.28" y2="-8.47" xlink:href="#linear-gradient"/><linearGradient id="linear-gradient-5" x1="1383.88" y1="695.66" x2="1579.74" y2="451.28" gradientTransform="translate(160.47 168.83) scale(0.91 0.74)" xlink:href="#linear-gradient"/><linearGradient id="linear-gradient-6" x1="577.06" y1="263.68" x2="758.92" y2="36.77" xlink:href="#linear-gradient-2"/><linearGradient id="linear-gradient-7" x1="1.39" y1="254.75" x2="203.69" y2="2.34" xlink:href="#linear-gradient-2"/></defs><title>Books</title><g id="Files"><rect class="cls-1" x="365" y="222" width="154" height="5" rx="2.5" ry="2.5"/><rect class="cls-1" x="365" y="231" width="154" height="5" rx="2.5" ry="2.5"/><rect class="cls-1" x="365" y="240" width="154" height="5" rx="2.5" ry="2.5"/><rect class="cls-1" x="399" y="269" width="141" height="5" rx="2.5" ry="2.5"/><rect class="cls-1" x="399" y="278" width="141" height="5" rx="2.5" ry="2.5"/><rect class="cls-1" x="399" y="287" width="141" height="5" rx="2.5" ry="2.5"/></g><g id="book1"><path class="cls-2" d="M911.9,615.21" transform="translate(-746 -403)"/><path class="cls-3" d="M913.33,615.41S893,617,893,637s21,21,21,21l354,1v-6H1110s-5,1-4-7V625a4.52,4.52,0,0,1,4.31-4.72h.45C1117.85,620.2,1266,622,1266,622v-8Z" transform="translate(-746 -403)"/><line class="cls-2" x1="362" y1="221" x2="515" y2="221.72"/><line class="cls-2" x1="362" y1="225" x2="515" y2="225.72"/><line class="cls-2" x1="362" y1="229" x2="515" y2="229.72"/><line class="cls-2" x1="362" y1="233" x2="515" y2="233.72"/><line class="cls-2" x1="362" y1="238" x2="515" y2="238.72"/><line class="cls-2" x1="362" y1="243" x2="515" y2="243.72"/></g><g id="book2"><path class="cls-4" d="M928.25,658.08s-22,2.33-22,24.53c0,19,15.42,23.35,19.83,24.21a10.64,10.64,0,0,0,2,.19l361.35.42-.31-7.42L1149,699.61s-9-.11-8-8.9V671.92s-1-6.92,7-6.92c7,0,139,1.47,139,1.47V657Z" transform="translate(-746 -403)"/><line class="cls-5" x1="398" y1="267" x2="531" y2="267.75"/><line class="cls-5" x1="398" y1="271" x2="531" y2="271.75"/><line class="cls-5" x1="398" y1="275" x2="531" y2="275.75"/><line class="cls-5" x1="398" y1="279" x2="531" y2="279.75"/><line class="cls-6" x1="398" y1="284" x2="531" y2="284.75"/><line class="cls-5" x1="398" y1="289" x2="531" y2="289.75"/><line class="cls-5" x1="398" y1="293" x2="531" y2="293.75"/><path class="cls-7" d="M1132.3,625h12a17.8,17.8,0,0,1,7,10c2,7,0,9,4,17,2.36,4.71,5.13,7.83,7,11,.39.67.9,5.23,1,6l1,12-5-3-5,5s0-16-2-19-9.89-14-9-22C1144.3,633,1141.3,630,1132.3,625Z" transform="translate(-746 -403)"/></g><rect class="cls-8" x="569" y="2" width="51.34" height="309" rx="12" ry="12"/><rect class="cls-9" width="51.34" height="309" rx="12" ry="12"/><rect class="cls-10" x="1462.99" y="507.61" width="46.7" height="214.08" rx="12" ry="12" transform="translate(-854.19 422.52) rotate(-30)"/><rect class="cls-11" x="619.66" y="46" width="51.34" height="265" rx="12" ry="12"/><rect class="cls-12" x="51.66" y="11" width="51.34" height="298" rx="12" ry="12"/></svg>