<svg id="brush" xmlns="http://www.w3.org/2000/svg" xmlns:xlink="http://www.w3.org/1999/xlink" viewBox="0 0 283.42 258.5"><defs><style>.cls-1{fill:#f9f9f9;}.cls-2{fill:url(#linear-gradient);}.cls-3{fill:url(#linear-gradient-2);}</style><linearGradient id="linear-gradient" x1="292.9" y1="475.86" x2="475.46" y2="475.86" gradientUnits="userSpaceOnUse"><stop offset="0" stop-color="#cd94ef"/><stop offset="1" stop-color="#7a5bf5"/></linearGradient><linearGradient id="linear-gradient-2" x1="206.91" y1="392.37" x2="347.91" y2="392.37" xlink:href="#linear-gradient"/></defs><title>brush</title><rect class="cls-1" x="231.96" y="327.86" width="140.29" height="179.07" rx="2.81" transform="translate(145.22 -401.51) rotate(39.81)"/><path class="cls-2" d="M293.48,522.27l112-133a2.43,2.43,0,0,1,3.21-.47c5.9,4,24.23,17.8,27.24,38.6,2,13.66,4.81,20.75-22.46,46.83a2.46,2.46,0,0,0,.2,3.75l43.62,32.36A44,44,0,0,1,473.37,533c4.62,15.49,4.57,36-32.1,28.91a31.72,31.72,0,0,1-16.79-9.28L385.7,512.14a2.44,2.44,0,0,0-3.58.05l-18.33,20.23-.12.13c-4.2,4-12.81,12.05-24.07,12.8-13,.86-32.69,0-46.29-20.13A2.46,2.46,0,0,1,293.48,522.27Z" transform="translate(-192.04 -304.85)"/><path class="cls-3" d="M206.91,422l72.21-86.57,58.77,48c1.92,1.57,6.84,6.37,7.71,8.7,2,5.35,4.81,12.2-2,19-9.42,9.47-21.44,8-27,3.87-4.69-3.51-31.43-22.5-39.69-28.36a13.77,13.77,0,0,0-7.64-2.65,16,16,0,0,0-11.35,4.18c-8.41,7.53-6.13,19.43,1.74,28.68s6.95,20.83,1.39,25.93-13.89,10.64-26.85,1.85S206.91,422,206.91,422Z" transform="translate(-192.04 -304.85)"/></svg>