<svg id="Calendar" xmlns="http://www.w3.org/2000/svg" xmlns:xlink="http://www.w3.org/1999/xlink" viewBox="0 0 392.93 272.99"><defs><style>.cls-1{fill:url(#linear-gradient);}.cls-2{fill:#fcfcfc;}.cls-3{fill:#58caea;}.cls-4{fill:url(#linear-gradient-2);}.cls-5{fill:url(#linear-gradient-3);}.cls-6{fill:url(#linear-gradient-4);}.cls-7{fill:url(#linear-gradient-5);}.cls-8{fill:url(#linear-gradient-6);}</style><linearGradient id="linear-gradient" x1="785.59" y1="534.67" x2="871.96" y2="534.67" gradientUnits="userSpaceOnUse"><stop offset="0" stop-color="#58caea"/><stop offset="1" stop-color="#4c4cbf"/></linearGradient><linearGradient id="linear-gradient-2" x1="1028.13" y1="558.71" x2="1075.44" y2="558.71" gradientTransform="translate(-795.25 -360.5) rotate(-1.32)" xlink:href="#linear-gradient"/><linearGradient id="linear-gradient-3" x1="45.53" y1="53.31" x2="359.25" y2="53.31" gradientUnits="userSpaceOnUse"><stop offset="0" stop-color="#4c4fc0"/><stop offset="1" stop-color="#58caea"/></linearGradient><linearGradient id="linear-gradient-4" x1="127.95" y1="16.08" x2="153.45" y2="16.08" gradientUnits="userSpaceOnUse"><stop offset="0" stop-color="#4d54c2"/><stop offset="1" stop-color="#4c4cbf"/></linearGradient><linearGradient id="linear-gradient-5" x1="271.31" y1="16.48" x2="293.35" y2="16.48" xlink:href="#linear-gradient-4"/><linearGradient id="linear-gradient-6" x1="785.59" y1="662.73" x2="785.59" y2="662.73" xlink:href="#linear-gradient"/></defs><title>Calendar</title><path class="cls-1" d="M831.12,406.62,785.59,662.73s58.73-10.36,86.37,0L831.12,406.62" transform="translate(-785.59 -389.73)"/><path class="cls-2" d="M831.12,406.62,872,662.73s173.65-21.76,306.55-1.82l-47.16-253.36-300.24-.93" transform="translate(-785.59 -389.73)"/><polygon class="cls-3" points="218.22 146.94 176.22 147.91 170.15 114.11 211.26 113.91 218.22 146.94"/><polygon class="cls-3" points="284.8 144.96 242.79 145.93 236.72 112.13 277.83 111.93 284.8 144.96"/><polygon class="cls-3" points="347.57 145.25 305.57 146.21 299.49 112.41 340.61 112.21 347.57 145.25"/><polygon class="cls-3" points="356.01 190.76 314 191.72 307.93 157.92 349.04 157.72 356.01 190.76"/><polygon class="cls-3" points="227.38 190.37 185.38 191.33 179.3 157.53 220.41 157.33 227.38 190.37"/><polygon class="cls-3" points="162.39 192.39 120.39 193.36 114.31 159.56 155.43 159.36 162.39 192.39"/><polygon class="cls-3" points="172.74 239.45 130.73 240.41 124.66 206.61 165.77 206.42 172.74 239.45"/><polygon class="cls-3" points="237.21 238.5 195.21 239.47 189.13 205.66 230.25 205.47 237.21 238.5"/><polygon class="cls-3" points="303.63 238.35 261.63 239.31 255.56 205.51 296.67 205.31 303.63 238.35"/><polygon class="cls-4" points="293.14 190.31 251.14 191.27 245.06 157.47 286.18 157.27 293.14 190.31"/><polygon class="cls-5" points="45.53 16.88 57.01 89.74 359.25 88.74 345.76 17.81 45.53 16.88"/><polygon class="cls-6" points="127.95 0.42 150.87 0 153.44 32.15 130.8 32.17 127.95 0.42"/><polygon class="cls-7" points="271.31 1.92 291.12 1.53 293.35 31.4 273.78 31.42 271.31 1.92"/><path class="cls-8" d="M785.59,662.73" transform="translate(-785.59 -389.73)"/></svg>