<svg id="chair" xmlns="http://www.w3.org/2000/svg" xmlns:xlink="http://www.w3.org/1999/xlink" viewBox="0 0 284.95 339.28"><defs><style>.cls-1{fill:url(#linear-gradient);}.cls-2{fill:url(#linear-gradient-2);}.cls-3{fill:#4c4cbf;}.cls-4{fill:#58caea;}</style><linearGradient id="linear-gradient" x1="865.24" y1="426.37" x2="1149.24" y2="426.37" gradientUnits="userSpaceOnUse"><stop offset="0" stop-color="#4f68c8"/><stop offset="1" stop-color="#4c4cbf"/></linearGradient><linearGradient id="linear-gradient-2" x1="925.46" y1="426.24" x2="1150.19" y2="426.24" gradientUnits="userSpaceOnUse"><stop offset="0" stop-color="#4c4cbf"/><stop offset="1" stop-color="#58caea"/></linearGradient></defs><title>chair</title><path class="cls-1" d="M871.46,466.07l277.79,1.65-.6-65.47s-6.32-14.58-20.15-16.55-225.58,1-225.58,1l-19.42.88c-15,.36-19.69,15.16-17.87,27.88Z" transform="translate(-865.24 -384.22)"/><path class="cls-2" d="M926.29,390.16S939.56,428.9,986,435s78.22-12.22,88,4.89,38.08,28.35,38.08,28.35l37.17-.53.95-62.39a13.72,13.72,0,0,0-2-7.39c-2.54-4.14-8.07-9.94-19.73-12.24-19-3.75-203,.83-203,.83" transform="translate(-865.24 -384.22)"/><polygon class="cls-3" points="99.14 148.74 150.95 90.64 195.69 144.23 191.28 148.41 150.63 103.06 103.48 153.07 99.14 148.74"/><polyline class="cls-3" points="8.24 96.65 28.62 96.71 196.66 96.71 283.56 96.71 284 83.5 6.63 81.86 7.55 95.75"/><path class="cls-3" d="M1077.19,502.11,917.73,709.74a9,9,0,0,0-1.86,6.91c.58,3.56,2.65,7.75,9.42,5.8a4.86,4.86,0,0,0,2.51-1.68l165.07-215a4.68,4.68,0,0,0-2.73-7.42l-5.63-1.21a4.68,4.68,0,0,0-4.63,1.65Z" transform="translate(-865.24 -384.22)"/><path class="cls-3" d="M941.2,502.12,1110,710.27a8.71,8.71,0,0,1,2,6.93c-.62,3.57-2.81,7.77-10,5.81a5.17,5.17,0,0,1-2.66-1.69L924.61,505.76a4.62,4.62,0,0,1,2.89-7.44l6-1.21a5.11,5.11,0,0,1,4.91,1.66Z" transform="translate(-865.24 -384.22)"/><path class="cls-4" d="M1080.48,503.2c8.84,1,23.28.37,30.61.29,3.47,0,6.63-3.5,7.35-6.89.09-.4,0,.89,0,.46.48-4.26-.56-16.28-.56-16.28l-43.54.19-.39,14.76A7.32,7.32,0,0,0,1080.48,503.2Z" transform="translate(-865.24 -384.22)"/><path class="cls-4" d="M909.47,503.2a188,188,0,0,0,21,.47c3.72-.06,7.11-.15,9.64-.18,3.47,0,6.63-3.5,7.35-6.89.09-.4,0,.89,0,.46.48-4.26-.41-16.28-.41-16.28l-43.69.19-.39,14.76A7.32,7.32,0,0,0,909.47,503.2Z" transform="translate(-865.24 -384.22)"/></svg>