<svg xmlns="http://www.w3.org/2000/svg" xmlns:xlink="http://www.w3.org/1999/xlink" viewBox="0 0 1663.48 524.81"><defs><style>.cls-1{fill:url(#linear-gradient);}.cls-2{fill:#4b4fab;}.cls-3{fill:#7886eb;}.cls-4{fill:#5e62c6;}.cls-5{fill:url(#linear-gradient-2);}.cls-6{fill:url(#linear-gradient-3);}.cls-7{fill:url(#linear-gradient-4);}.cls-8{fill:url(#linear-gradient-5);}.cls-9{fill:url(#linear-gradient-6);}.cls-10{fill:url(#linear-gradient-7);}.cls-11{fill:url(#linear-gradient-8);}.cls-12{fill:url(#linear-gradient-9);}.cls-13{fill:url(#linear-gradient-10);}.cls-14{fill:url(#linear-gradient-11);}.cls-15{fill:url(#linear-gradient-12);}.cls-16{fill:url(#linear-gradient-13);}.cls-17{fill:url(#linear-gradient-14);}.cls-18{fill:url(#linear-gradient-15);}.cls-19{fill:url(#linear-gradient-16);}.cls-20{fill:url(#linear-gradient-17);}.cls-21{fill:url(#linear-gradient-18);}.cls-22{fill:url(#linear-gradient-19);}.cls-23{fill:url(#linear-gradient-20);}.cls-24{fill:url(#linear-gradient-21);}.cls-25{fill:url(#linear-gradient-22);}.cls-26{fill:url(#linear-gradient-23);}.cls-27{fill:url(#linear-gradient-24);}.cls-28{fill:url(#linear-gradient-25);}.cls-29{fill:url(#linear-gradient-26);}.cls-30{fill:url(#linear-gradient-27);}.cls-31{fill:url(#linear-gradient-28);}.cls-32{fill:url(#linear-gradient-29);}.cls-33{fill:url(#linear-gradient-30);}.cls-34{fill:url(#linear-gradient-31);}.cls-35{fill:url(#linear-gradient-32);}.cls-36{fill:url(#linear-gradient-33);}.cls-37{fill:url(#linear-gradient-34);}.cls-38{fill:url(#linear-gradient-35);}.cls-39{fill:url(#linear-gradient-36);}.cls-40{fill:url(#linear-gradient-37);}.cls-41{fill:url(#linear-gradient-38);}.cls-42{fill:url(#linear-gradient-39);}.cls-43{fill:url(#linear-gradient-40);}.cls-44{fill:url(#linear-gradient-41);}.cls-45{fill:url(#linear-gradient-42);}.cls-46{fill:url(#linear-gradient-43);}.cls-47{fill:url(#linear-gradient-44);}.cls-48{fill:url(#linear-gradient-45);}.cls-49{fill:url(#linear-gradient-46);}.cls-50{fill:url(#linear-gradient-47);}.cls-51{fill:url(#linear-gradient-48);}.cls-52{fill:url(#linear-gradient-49);}.cls-53{fill:url(#linear-gradient-50);}.cls-54{fill:url(#linear-gradient-51);}.cls-55{fill:url(#linear-gradient-52);}.cls-56{fill:url(#linear-gradient-53);}.cls-57{fill:url(#linear-gradient-54);}.cls-58{fill:url(#linear-gradient-55);}.cls-59{fill:url(#linear-gradient-56);}.cls-60{fill:url(#linear-gradient-57);}.cls-61{fill:url(#linear-gradient-58);}.cls-62{fill:url(#linear-gradient-59);}.cls-63{fill:url(#linear-gradient-60);}.cls-64{fill:url(#linear-gradient-61);}.cls-65{fill:url(#linear-gradient-62);}.cls-66{fill:url(#linear-gradient-63);}.cls-67{fill:url(#linear-gradient-64);}.cls-68{fill:url(#linear-gradient-65);}.cls-69{fill:url(#linear-gradient-66);}.cls-70{fill:url(#linear-gradient-67);}.cls-71{fill:url(#linear-gradient-68);}.cls-72{fill:url(#linear-gradient-69);}.cls-73{fill:url(#linear-gradient-70);}.cls-74{fill:url(#linear-gradient-71);}.cls-75{fill:url(#linear-gradient-72);}.cls-76{fill:url(#linear-gradient-73);}.cls-77{fill:url(#linear-gradient-74);}.cls-78{fill:url(#linear-gradient-75);}.cls-79{fill:url(#linear-gradient-76);}.cls-80{fill:url(#linear-gradient-77);}.cls-81{fill:url(#linear-gradient-78);}.cls-82{fill:url(#linear-gradient-79);}.cls-83{fill:url(#linear-gradient-80);}.cls-84{fill:url(#linear-gradient-81);}.cls-85{fill:url(#linear-gradient-82);}.cls-86{fill:url(#linear-gradient-83);}.cls-87{fill:url(#linear-gradient-84);}.cls-88{fill:url(#linear-gradient-85);}.cls-89{fill:url(#linear-gradient-86);}.cls-90{fill:url(#linear-gradient-87);}.cls-91{fill:url(#linear-gradient-88);}.cls-92{fill:url(#linear-gradient-89);}.cls-93{fill:url(#linear-gradient-90);}.cls-94{fill:url(#linear-gradient-91);}.cls-95{fill:url(#linear-gradient-92);}.cls-96{fill:url(#linear-gradient-93);}.cls-97{fill:url(#linear-gradient-94);}.cls-98{fill:url(#linear-gradient-95);}.cls-99{fill:url(#linear-gradient-96);}.cls-100{fill:url(#linear-gradient-97);}.cls-101{fill:url(#linear-gradient-98);}.cls-102{fill:url(#linear-gradient-99);}.cls-103{fill:url(#linear-gradient-100);}.cls-104{fill:url(#linear-gradient-101);}.cls-105{fill:url(#linear-gradient-102);}.cls-106{fill:url(#linear-gradient-103);}.cls-107{fill:url(#linear-gradient-104);}.cls-108{fill:url(#linear-gradient-105);}.cls-109{fill:url(#linear-gradient-106);}.cls-110{fill:url(#linear-gradient-107);}.cls-111{fill:url(#linear-gradient-108);}.cls-112{fill:url(#linear-gradient-109);}.cls-113{fill:url(#linear-gradient-110);}.cls-114{fill:url(#linear-gradient-111);}.cls-115{fill:url(#linear-gradient-112);}.cls-116{fill:url(#linear-gradient-113);}.cls-117{fill:url(#linear-gradient-114);}.cls-118{fill:url(#linear-gradient-115);}.cls-119{fill:url(#linear-gradient-116);}</style><linearGradient id="linear-gradient" x1="84" y1="641.21" x2="469.45" y2="641.21" gradientTransform="translate(80.99 -50.95) rotate(7.21)" gradientUnits="userSpaceOnUse"><stop offset="0" stop-color="#3e3a97"/><stop offset="1" stop-color="#1c2152"/></linearGradient><linearGradient id="linear-gradient-2" x1="145.64" y1="662.92" x2="353.73" y2="662.92" gradientTransform="matrix(0.99, 0.16, -0.16, 0.99, 104.48, -61.04)" gradientUnits="userSpaceOnUse"><stop offset="0" stop-color="#e14eca"/><stop offset="0.53" stop-color="#ba54f5"/><stop offset="1" stop-color="#d750d5"/></linearGradient><linearGradient id="linear-gradient-3" x1="145.65" y1="652.75" x2="364.64" y2="652.75" gradientTransform="matrix(0.99, 0.16, -0.16, 0.99, 104.48, -61.04)" gradientUnits="userSpaceOnUse"><stop offset="0" stop-color="#3e3a97"/><stop offset="1" stop-color="#343282"/></linearGradient><linearGradient id="linear-gradient-4" x1="163.81" y1="503.17" x2="191.87" y2="503.17" gradientTransform="matrix(0.99, 0.16, -0.16, 0.99, 10.8, -427.61)" gradientUnits="userSpaceOnUse"><stop offset="0.34" stop-color="#9a27f5"/><stop offset="1" stop-color="#bf53ef"/></linearGradient><linearGradient id="linear-gradient-5" x1="178.12" y1="518.71" x2="196.48" y2="518.71" gradientTransform="matrix(0.99, 0.16, -0.16, 0.99, 10.8, -427.61)" xlink:href="#linear-gradient"/><linearGradient id="linear-gradient-6" x1="206.18" y1="517.88" x2="234.24" y2="517.88" xlink:href="#linear-gradient-4"/><linearGradient id="linear-gradient-7" x1="220.49" y1="533.43" x2="238.85" y2="533.43" gradientTransform="matrix(0.99, 0.16, -0.16, 0.99, 10.8, -427.61)" xlink:href="#linear-gradient"/><linearGradient id="linear-gradient-8" x1="165.25" y1="527.22" x2="182" y2="527.22" gradientTransform="matrix(0.99, 0.16, -0.16, 0.99, 10.8, -427.61)" gradientUnits="userSpaceOnUse"><stop offset="0" stop-color="#e14eca"/><stop offset="1" stop-color="#d750d5"/></linearGradient><linearGradient id="linear-gradient-9" x1="206.1" y1="537.25" x2="224.17" y2="537.25" xlink:href="#linear-gradient-8"/><linearGradient id="linear-gradient-10" x1="181.97" y1="715.16" x2="200.37" y2="715.16" gradientTransform="matrix(0.99, 0.16, -0.16, 0.99, 10.8, -427.61)" gradientUnits="userSpaceOnUse"><stop offset="0.34" stop-color="#9a27f5"/><stop offset="1" stop-color="#3e3a97"/></linearGradient><linearGradient id="linear-gradient-11" x1="235.88" y1="788.82" x2="256.13" y2="788.82" gradientTransform="matrix(0.99, 0.16, -0.16, 0.99, 10.8, -427.61)" xlink:href="#linear-gradient"/><linearGradient id="linear-gradient-12" x1="197.76" y1="620.63" x2="295.88" y2="620.63" gradientTransform="matrix(0.99, 0.16, -0.16, 0.99, 104.48, -61.04)" xlink:href="#linear-gradient-10"/><linearGradient id="linear-gradient-13" x1="217.82" y1="718.7" x2="320.16" y2="718.7" gradientTransform="matrix(0.99, 0.16, -0.16, 0.99, 104.48, -61.04)" xlink:href="#linear-gradient-10"/><linearGradient id="linear-gradient-14" x1="272.2" y1="801.34" x2="292.73" y2="801.34" gradientTransform="matrix(0.99, 0.16, -0.16, 0.99, 104.48, -61.04)" xlink:href="#linear-gradient"/><linearGradient id="linear-gradient-15" x1="916.66" y1="462.62" x2="928.7" y2="462.62" gradientTransform="matrix(-0.18, 0.98, -0.98, -0.18, 967.61, 16.24)" xlink:href="#linear-gradient"/><linearGradient id="linear-gradient-16" x1="919.32" y1="468.48" x2="944.67" y2="468.48" gradientTransform="matrix(-0.18, 0.98, -0.98, -0.18, 967.61, 16.24)" xlink:href="#linear-gradient"/><linearGradient id="linear-gradient-17" x1="933.1" y1="348.83" x2="962.53" y2="348.83" gradientTransform="translate(678.75 -96.04) rotate(90.22)" xlink:href="#linear-gradient"/><linearGradient id="linear-gradient-18" x1="366.11" y1="254" x2="378.21" y2="254" gradientTransform="translate(236.13 325.15) rotate(35.15)" xlink:href="#linear-gradient"/><linearGradient id="linear-gradient-19" x1="367.68" y1="259.18" x2="393.55" y2="259.18" gradientTransform="translate(236.13 325.15) rotate(35.15)" xlink:href="#linear-gradient"/><linearGradient id="linear-gradient-20" x1="425.94" y1="44.88" x2="456.5" y2="44.88" gradientTransform="translate(12.94 540.16) rotate(25.05)" xlink:href="#linear-gradient"/><linearGradient id="linear-gradient-21" x1="270.66" y1="120.64" x2="282.82" y2="120.64" gradientTransform="translate(209.73 385.36) rotate(29.8)" xlink:href="#linear-gradient"/><linearGradient id="linear-gradient-22" x1="271.21" y1="127.11" x2="297.52" y2="127.11" gradientTransform="translate(209.73 385.36) rotate(29.8)" xlink:href="#linear-gradient"/><linearGradient id="linear-gradient-23" x1="355.39" y1="-103.13" x2="386.31" y2="-103.13" gradientTransform="translate(7.54 620.23) rotate(19.71)" xlink:href="#linear-gradient"/><linearGradient id="linear-gradient-24" x1="118.35" y1="-109.7" x2="129.41" y2="-109.7" gradientTransform="matrix(0.98, 0.18, -0.18, 0.98, 199.05, 599.03)" xlink:href="#linear-gradient"/><linearGradient id="linear-gradient-25" x1="119.65" y1="-105" x2="143.63" y2="-105" gradientTransform="matrix(0.98, 0.18, -0.18, 0.98, 199.05, 599.03)" xlink:href="#linear-gradient"/><linearGradient id="linear-gradient-26" x1="245.87" y1="-358.08" x2="273.99" y2="-358.08" gradientTransform="translate(86.01 887.59) rotate(0.37)" xlink:href="#linear-gradient"/><linearGradient id="linear-gradient-27" x1="111.38" y1="-551.84" x2="121.53" y2="-551.84" gradientTransform="matrix(0.81, -0.58, 0.58, 0.81, 492.73, 949.14)" xlink:href="#linear-gradient"/><linearGradient id="linear-gradient-28" x1="112.58" y1="-546.9" x2="134.6" y2="-546.9" gradientTransform="matrix(0.81, -0.58, 0.58, 0.81, 492.73, 949.14)" xlink:href="#linear-gradient"/><linearGradient id="linear-gradient-29" x1="251.48" y1="462.5" x2="274.78" y2="462.5" xlink:href="#linear-gradient"/><linearGradient id="linear-gradient-30" x1="376.87" y1="-841.28" x2="389.5" y2="-841.28" gradientTransform="translate(971.08 845.03) rotate(-87.8)" xlink:href="#linear-gradient"/><linearGradient id="linear-gradient-31" x1="115.54" y1="459.6" x2="142.28" y2="459.6" xlink:href="#linear-gradient"/><linearGradient id="linear-gradient-32" x1="628.43" y1="-1029.21" x2="660.75" y2="-1029.21" gradientTransform="translate(1272.91 915.37) rotate(-97.9)" xlink:href="#linear-gradient"/><linearGradient id="linear-gradient-33" x1="642.76" y1="-717.49" x2="652.72" y2="-717.49" gradientTransform="translate(1073.1 437.95) rotate(-137.49)" xlink:href="#linear-gradient"/><linearGradient id="linear-gradient-34" x1="644.19" y1="-712.93" x2="665.71" y2="-712.93" gradientTransform="translate(1073.1 437.95) rotate(-137.49)" xlink:href="#linear-gradient"/><linearGradient id="linear-gradient-35" x1="869" y1="-865.53" x2="894.86" y2="-865.53" gradientTransform="translate(1322.01 253.31) rotate(-147.59)" xlink:href="#linear-gradient"/><linearGradient id="linear-gradient-36" x1="627.92" y1="-715.03" x2="636.43" y2="-715.03" gradientTransform="matrix(-0.85, -0.52, 0.52, -0.85, 1030.62, 347.87)" xlink:href="#linear-gradient"/><linearGradient id="linear-gradient-37" x1="628.31" y1="-710.65" x2="646.86" y2="-710.65" gradientTransform="matrix(-0.85, -0.52, 0.52, -0.85, 1030.62, 347.87)" xlink:href="#linear-gradient"/><linearGradient id="linear-gradient-38" x1="853.8" y1="-870.63" x2="874.84" y2="-870.63" gradientTransform="matrix(-0.93, -0.37, 0.37, -0.93, 1239.73, 119.14)" xlink:href="#linear-gradient"/><linearGradient id="linear-gradient-39" x1="620.75" y1="-553.58" x2="627.66" y2="-553.58" gradientTransform="translate(797.01 190.77) rotate(-177.92)" xlink:href="#linear-gradient"/><linearGradient id="linear-gradient-40" x1="621.34" y1="-551.11" x2="636.38" y2="-551.11" gradientTransform="translate(797.01 190.77) rotate(-177.92)" xlink:href="#linear-gradient"/><linearGradient id="linear-gradient-41" x1="818.6" y1="-715.29" x2="835.71" y2="-715.29" gradientTransform="translate(866.75 -111.19) rotate(171.99)" xlink:href="#linear-gradient"/><linearGradient id="linear-gradient-42" x1="544.88" y1="-506.16" x2="551.79" y2="-506.16" gradientTransform="translate(620.73 180.51) rotate(165.77)" xlink:href="#linear-gradient"/><linearGradient id="linear-gradient-43" x1="545.47" y1="-503.69" x2="560.51" y2="-503.69" gradientTransform="translate(620.73 180.51) rotate(165.77)" xlink:href="#linear-gradient"/><linearGradient id="linear-gradient-44" x1="735.59" y1="-681.9" x2="752.7" y2="-681.9" gradientTransform="translate(602.85 -128.88) rotate(155.68)" xlink:href="#linear-gradient"/><linearGradient id="linear-gradient-45" x1="718.64" y1="562.38" x2="1104.09" y2="562.38" xlink:href="#linear-gradient"/><linearGradient id="linear-gradient-46" x1="803.52" y1="-166.8" x2="815.55" y2="-166.8" gradientTransform="matrix(-0.18, 0.98, -0.98, -0.18, 967.61, 16.24)" xlink:href="#linear-gradient"/><linearGradient id="linear-gradient-47" x1="806.18" y1="-160.94" x2="831.53" y2="-160.94" gradientTransform="matrix(-0.18, 0.98, -0.98, -0.18, 967.61, 16.24)" xlink:href="#linear-gradient"/><linearGradient id="linear-gradient-48" x1="932.02" y1="-290.69" x2="961.45" y2="-290.69" gradientTransform="translate(678.75 -96.04) rotate(90.22)" xlink:href="#linear-gradient"/><linearGradient id="linear-gradient-49" x1="889.85" y1="-112.98" x2="901.94" y2="-112.98" gradientTransform="translate(236.13 325.15) rotate(35.15)" xlink:href="#linear-gradient"/><linearGradient id="linear-gradient-50" x1="891.41" y1="-107.81" x2="917.29" y2="-107.81" gradientTransform="translate(236.13 325.15) rotate(35.15)" xlink:href="#linear-gradient"/><linearGradient id="linear-gradient-51" x1="1005.89" y1="-224.63" x2="1036.45" y2="-224.63" gradientTransform="translate(12.94 540.16) rotate(25.05)" xlink:href="#linear-gradient"/><linearGradient id="linear-gradient-52" x1="826.31" y1="-195.95" x2="838.47" y2="-195.95" gradientTransform="translate(209.73 385.36) rotate(29.8)" xlink:href="#linear-gradient"/><linearGradient id="linear-gradient-53" x1="826.86" y1="-189.48" x2="853.17" y2="-189.48" gradientTransform="translate(209.73 385.36) rotate(29.8)" xlink:href="#linear-gradient"/><linearGradient id="linear-gradient-54" x1="957.93" y1="-317.43" x2="988.85" y2="-317.43" gradientTransform="translate(7.54 620.23) rotate(19.71)" xlink:href="#linear-gradient"/><linearGradient id="linear-gradient-55" x1="747.48" y1="-224.5" x2="758.53" y2="-224.5" gradientTransform="matrix(0.98, 0.18, -0.18, 0.98, 199.05, 599.03)" xlink:href="#linear-gradient"/><linearGradient id="linear-gradient-56" x1="748.77" y1="-219.79" x2="772.76" y2="-219.79" gradientTransform="matrix(0.98, 0.18, -0.18, 0.98, 199.05, 599.03)" xlink:href="#linear-gradient"/><linearGradient id="linear-gradient-57" x1="885.37" y1="-360.83" x2="913.49" y2="-360.83" gradientTransform="translate(86.01 887.59) rotate(0.37)" xlink:href="#linear-gradient"/><linearGradient id="linear-gradient-58" x1="630.16" y1="-177.89" x2="640.32" y2="-177.89" gradientTransform="matrix(0.81, -0.58, 0.58, 0.81, 492.73, 949.14)" xlink:href="#linear-gradient"/><linearGradient id="linear-gradient-59" x1="631.36" y1="-172.95" x2="653.39" y2="-172.95" gradientTransform="matrix(0.81, -0.58, 0.58, 0.81, 492.73, 949.14)" xlink:href="#linear-gradient"/><linearGradient id="linear-gradient-60" x1="886.11" y1="383.68" x2="909.42" y2="383.68" xlink:href="#linear-gradient"/><linearGradient id="linear-gradient-61" x1="399.95" y1="-202.18" x2="412.57" y2="-202.18" gradientTransform="translate(971.08 845.03) rotate(-87.8)" xlink:href="#linear-gradient"/><linearGradient id="linear-gradient-62" x1="750.17" y1="380.78" x2="776.92" y2="380.78" xlink:href="#linear-gradient"/><linearGradient id="linear-gradient-63" x1="539.13" y1="-395.96" x2="571.45" y2="-395.96" gradientTransform="translate(1272.91 915.37) rotate(-97.9)" xlink:href="#linear-gradient"/><linearGradient id="linear-gradient-64" x1="170.37" y1="-286.42" x2="180.33" y2="-286.42" gradientTransform="translate(1073.1 437.95) rotate(-137.49)" xlink:href="#linear-gradient"/><linearGradient id="linear-gradient-65" x1="171.8" y1="-281.86" x2="193.31" y2="-281.86" gradientTransform="translate(1073.1 437.95) rotate(-137.49)" xlink:href="#linear-gradient"/><linearGradient id="linear-gradient-66" x1="328.37" y1="-523.93" x2="354.23" y2="-523.93" gradientTransform="translate(1322.01 253.31) rotate(-147.59)" xlink:href="#linear-gradient"/><linearGradient id="linear-gradient-67" x1="81.97" y1="-381.99" x2="90.48" y2="-381.99" gradientTransform="matrix(-0.85, -0.52, 0.52, -0.85, 1030.62, 347.87)" xlink:href="#linear-gradient"/><linearGradient id="linear-gradient-68" x1="82.36" y1="-377.61" x2="100.91" y2="-377.61" gradientTransform="matrix(-0.85, -0.52, 0.52, -0.85, 1030.62, 347.87)" xlink:href="#linear-gradient"/><linearGradient id="linear-gradient-69" x1="257.92" y1="-638.44" x2="278.97" y2="-638.44" gradientTransform="matrix(-0.93, -0.37, 0.37, -0.93, 1239.73, 119.14)" xlink:href="#linear-gradient"/><linearGradient id="linear-gradient-70" x1="-18.39" y1="-531.76" x2="-11.48" y2="-531.76" gradientTransform="translate(797.01 190.77) rotate(-177.92)" xlink:href="#linear-gradient"/><linearGradient id="linear-gradient-71" x1="-17.8" y1="-529.28" x2="-2.76" y2="-529.28" gradientTransform="translate(797.01 190.77) rotate(-177.92)" xlink:href="#linear-gradient"/><linearGradient id="linear-gradient-72" x1="185.53" y1="-805.83" x2="202.63" y2="-805.83" gradientTransform="translate(866.75 -111.19) rotate(171.99)" xlink:href="#linear-gradient"/><linearGradient id="linear-gradient-73" x1="-74.66" y1="-664.74" x2="-67.75" y2="-664.74" gradientTransform="translate(620.73 180.51) rotate(165.77)" xlink:href="#linear-gradient"/><linearGradient id="linear-gradient-74" x1="-74.07" y1="-662.27" x2="-59.03" y2="-662.27" gradientTransform="translate(620.73 180.51) rotate(165.77)" xlink:href="#linear-gradient"/><linearGradient id="linear-gradient-75" x1="153.44" y1="-946.62" x2="170.55" y2="-946.62" gradientTransform="translate(602.85 -128.88) rotate(155.68)" xlink:href="#linear-gradient"/><linearGradient id="linear-gradient-76" x1="789.38" y1="647.56" x2="881.96" y2="662.85" gradientTransform="matrix(1, -0.08, 0.08, 1, -140.8, -236.2)" gradientUnits="userSpaceOnUse"><stop offset="0" stop-color="#00f2c3"/><stop offset="0.33" stop-color="#00cad7"/><stop offset="1" stop-color="#0098f0"/></linearGradient><linearGradient id="linear-gradient-77" x1="804.68" y1="456.24" x2="907.71" y2="537.93" gradientTransform="matrix(1, -0.08, 0.08, 1, -140.8, -236.2)" gradientUnits="userSpaceOnUse"><stop offset="0" stop-color="#00f2c3"/><stop offset="0.29" stop-color="#00d4d2"/><stop offset="0.66" stop-color="#0098f0"/><stop offset="1" stop-color="#3e3a97"/></linearGradient><linearGradient id="linear-gradient-78" x1="837.89" y1="620.79" x2="888.05" y2="665.19" gradientTransform="matrix(1, -0.08, 0.08, 1, -140.8, -236.2)" gradientUnits="userSpaceOnUse"><stop offset="0" stop-color="#0098f0"/><stop offset="0.61" stop-color="#137bd4"/><stop offset="1" stop-color="#3e3a97"/></linearGradient><linearGradient id="linear-gradient-79" x1="965.41" y1="497.55" x2="672.7" y2="556.79" gradientTransform="matrix(1, -0.1, 0.1, 1, -144.89, -220.18)" gradientUnits="userSpaceOnUse"><stop offset="0" stop-color="#00f2c3"/><stop offset="1" stop-color="#0098f0"/></linearGradient><linearGradient id="linear-gradient-80" x1="927.23" y1="693.44" x2="839.7" y2="592.13" gradientTransform="matrix(1, -0.08, 0.08, 1, -140.8, -236.2)" xlink:href="#linear-gradient-79"/><linearGradient id="linear-gradient-81" x1="991.35" y1="588.09" x2="991.85" y2="588.09" gradientTransform="matrix(1, -0.08, 0.08, 1, -140.8, -236.2)" xlink:href="#linear-gradient-79"/><linearGradient id="linear-gradient-82" x1="785.29" y1="624.59" x2="923.09" y2="561.42" gradientTransform="matrix(1, -0.08, 0.08, 1, -140.8, -236.2)" gradientUnits="userSpaceOnUse"><stop offset="0" stop-color="#00f2c3"/><stop offset="0.61" stop-color="#0098f0"/><stop offset="0.9" stop-color="#3e3a97"/></linearGradient><linearGradient id="linear-gradient-83" x1="1376.74" y1="495.98" x2="1762.19" y2="495.98" xlink:href="#linear-gradient"/><linearGradient id="linear-gradient-84" x1="701.5" y1="-820.33" x2="713.54" y2="-820.33" gradientTransform="matrix(-0.18, 0.98, -0.98, -0.18, 967.61, 16.24)" xlink:href="#linear-gradient"/><linearGradient id="linear-gradient-85" x1="704.16" y1="-814.47" x2="729.51" y2="-814.47" gradientTransform="matrix(-0.18, 0.98, -0.98, -0.18, 967.61, 16.24)" xlink:href="#linear-gradient"/><linearGradient id="linear-gradient-86" x1="946.13" y1="-951.98" x2="975.56" y2="-951.98" gradientTransform="translate(678.75 -96.04) rotate(90.22)" xlink:href="#linear-gradient"/><linearGradient id="linear-gradient-87" x1="1440.14" y1="-479.98" x2="1452.23" y2="-479.98" gradientTransform="translate(236.13 325.15) rotate(35.15)" xlink:href="#linear-gradient"/><linearGradient id="linear-gradient-88" x1="1441.7" y1="-474.81" x2="1467.57" y2="-474.81" gradientTransform="translate(236.13 325.15) rotate(35.15)" xlink:href="#linear-gradient"/><linearGradient id="linear-gradient-89" x1="1611.99" y1="-489.5" x2="1642.54" y2="-489.5" gradientTransform="translate(12.94 540.16) rotate(25.05)" xlink:href="#linear-gradient"/><linearGradient id="linear-gradient-90" x1="1408.4" y1="-510.09" x2="1420.56" y2="-510.09" gradientTransform="translate(209.73 385.36) rotate(29.8)" xlink:href="#linear-gradient"/><linearGradient id="linear-gradient-91" x1="1408.95" y1="-503.62" x2="1435.26" y2="-503.62" gradientTransform="translate(209.73 385.36) rotate(29.8)" xlink:href="#linear-gradient"/><linearGradient id="linear-gradient-92" x1="1586.06" y1="-524.68" x2="1616.98" y2="-524.68" gradientTransform="translate(7.54 620.23) rotate(19.71)" xlink:href="#linear-gradient"/><linearGradient id="linear-gradient-93" x1="1400.74" y1="-328.23" x2="1411.79" y2="-328.23" gradientTransform="matrix(0.98, 0.18, -0.18, 0.98, 199.05, 599.03)" xlink:href="#linear-gradient"/><linearGradient id="linear-gradient-94" x1="1402.03" y1="-323.52" x2="1426.02" y2="-323.52" gradientTransform="matrix(0.98, 0.18, -0.18, 0.98, 199.05, 599.03)" xlink:href="#linear-gradient"/><linearGradient id="linear-gradient-95" x1="1546.7" y1="-348.46" x2="1574.82" y2="-348.46" gradientTransform="translate(86.01 887.59) rotate(0.37)" xlink:href="#linear-gradient"/><linearGradient id="linear-gradient-96" x1="1157.7" y1="221.12" x2="1167.86" y2="221.12" gradientTransform="matrix(0.81, -0.58, 0.58, 0.81, 492.73, 949.14)" xlink:href="#linear-gradient"/><linearGradient id="linear-gradient-97" x1="1158.9" y1="226.06" x2="1180.93" y2="226.06" gradientTransform="matrix(0.81, -0.58, 0.58, 0.81, 492.73, 949.14)" xlink:href="#linear-gradient"/><linearGradient id="linear-gradient-98" x1="1544.21" y1="317.27" x2="1567.52" y2="317.27" xlink:href="#linear-gradient"/><linearGradient id="linear-gradient-99" x1="408.61" y1="459.21" x2="421.23" y2="459.21" gradientTransform="translate(971.08 845.03) rotate(-87.8)" xlink:href="#linear-gradient"/><linearGradient id="linear-gradient-100" x1="1408.27" y1="314.37" x2="1435.02" y2="314.37" xlink:href="#linear-gradient"/><linearGradient id="linear-gradient-101" x1="431.74" y1="256.71" x2="464.06" y2="256.71" gradientTransform="translate(1272.91 915.37) rotate(-97.9)" xlink:href="#linear-gradient"/><linearGradient id="linear-gradient-102" x1="-328.35" y1="148.07" x2="-318.39" y2="148.07" gradientTransform="translate(1073.1 437.95) rotate(-137.49)" xlink:href="#linear-gradient"/><linearGradient id="linear-gradient-103" x1="-326.92" y1="152.63" x2="-305.41" y2="152.63" gradientTransform="translate(1073.1 437.95) rotate(-137.49)" xlink:href="#linear-gradient"/><linearGradient id="linear-gradient-104" x1="-238.79" y1="-183.57" x2="-212.93" y2="-183.57" gradientTransform="translate(1322.01 253.31) rotate(-147.59)" xlink:href="#linear-gradient"/><linearGradient id="linear-gradient-105" x1="-490.48" y1="-50.62" x2="-481.97" y2="-50.62" gradientTransform="matrix(-0.85, -0.52, 0.52, -0.85, 1030.62, 347.87)" xlink:href="#linear-gradient"/><linearGradient id="linear-gradient-106" x1="-490.09" y1="-46.24" x2="-471.54" y2="-46.24" gradientTransform="matrix(-0.85, -0.52, 0.52, -0.85, 1030.62, 347.87)" xlink:href="#linear-gradient"/><linearGradient id="linear-gradient-107" x1="-363.74" y1="-412.53" x2="-342.7" y2="-412.53" gradientTransform="matrix(-0.93, -0.37, 0.37, -0.93, 1239.73, 119.14)" xlink:href="#linear-gradient"/><linearGradient id="linear-gradient-108" x1="-679.8" y1="-524.4" x2="-672.88" y2="-524.4" gradientTransform="translate(797.01 190.77) rotate(-177.92)" xlink:href="#linear-gradient"/><linearGradient id="linear-gradient-109" x1="-679.2" y1="-521.93" x2="-664.16" y2="-521.93" gradientTransform="translate(797.01 190.77) rotate(-177.92)" xlink:href="#linear-gradient"/><linearGradient id="linear-gradient-110" x1="-466.93" y1="-914.51" x2="-449.82" y2="-914.51" gradientTransform="translate(866.75 -111.19) rotate(171.99)" xlink:href="#linear-gradient"/><linearGradient id="linear-gradient-111" x1="-711.5" y1="-843.45" x2="-704.59" y2="-843.45" gradientTransform="translate(620.73 180.51) rotate(165.77)" xlink:href="#linear-gradient"/><linearGradient id="linear-gradient-112" x1="-710.91" y1="-840.98" x2="-695.87" y2="-840.98" gradientTransform="translate(620.73 180.51) rotate(165.77)" xlink:href="#linear-gradient"/><linearGradient id="linear-gradient-113" x1="-442.22" y1="-1234.18" x2="-425.11" y2="-1234.18" gradientTransform="translate(602.85 -128.88) rotate(155.68)" xlink:href="#linear-gradient"/><linearGradient id="linear-gradient-114" x1="1437.95" y1="551.15" x2="1680.16" y2="705.15" gradientTransform="translate(-73.62 216.89) rotate(-7.92)" gradientUnits="userSpaceOnUse"><stop offset="0" stop-color="#1d8cf8"/><stop offset="0.4" stop-color="#3259bc"/><stop offset="1" stop-color="#3e3a97"/></linearGradient><linearGradient id="linear-gradient-115" x1="1441.22" y1="551.28" x2="1687.21" y2="707.68" gradientTransform="translate(-73.62 216.89) rotate(-7.92)" gradientUnits="userSpaceOnUse"><stop offset="0" stop-color="#137bd4"/><stop offset="0.93" stop-color="#3e3a97"/></linearGradient><linearGradient id="linear-gradient-116" x1="1428.68" y1="550.99" x2="1672.45" y2="705.99" gradientTransform="translate(-73.62 216.89) rotate(-7.92)" gradientUnits="userSpaceOnUse"><stop offset="0" stop-color="#44a9ff"/><stop offset="0.23" stop-color="#3ba0f7"/><stop offset="0.63" stop-color="#137bd4"/><stop offset="0.93" stop-color="#3e3a97"/></linearGradient></defs><title>coins</title><g id="coin_1" data-name="coin 1"><g id="Layer_5" data-name="Layer 5"><path class="cls-1" d="M389.43,849.65l.07.11-1,.37a2.54,2.54,0,0,1-.5.23l-32.14,14.16-6.41,2.86c-33.54,13.29-75.71,4.37-119-29.91-88.94-70.36-149.16-221.33-134.53-337,7.27-57.5,31.64-95.51,65.31-110.55.71-.42,1.6-.7,2.41-1.09l33-14.64c34.13-15.68,77.91-7.57,123,28.15,88.93,70.43,149.17,221.33,134.53,337.1-7.23,57.19-31.41,95-64.8,110.21" transform="translate(-93.68 -366.57)"/><path class="cls-2" d="M397.26,590.62c.39,1.11.74,2.25,1.12,3.37,18.15,54.13,25.94,111.09,19.58,161.42-14.64,115.74-98.6,152.5-187.54,82.08S81.23,616.17,95.87,500.43s98.6-152.49,187.55-82.09c30.09,23.84,55.16,58.08,78.65,94.68,14.6,22.77,24.13,46.29,35.19,77.6" transform="translate(-93.68 -366.57)"/><path class="cls-3" d="M364.56,598.17c.31.94.58,1.9.88,2.86,14.27,45.9,20.2,94.27,14.78,137.09C367.77,836.58,300.06,868.33,229,809S110.37,621.76,122.82,523.29,203,393.09,274.08,452.4c24,20.08,44,49,62.66,80,11.6,19.26,19.12,39.21,27.83,65.75" transform="translate(-93.68 -366.57)"/></g><g id="Layer_2" data-name="Layer 2"><path class="cls-4" d="M356.92,504.88l34.32-19.94s4.77,8.86,5.95,10.44C411,513.84,441.8,583.94,449,632.77l-36.29,14.72s-2-9.77-2.66-12.84C402.56,600.15,381.57,538.64,356.92,504.88Z" transform="translate(-93.68 -366.57)"/><path class="cls-4" d="M275.36,412.39l37-15.53,1.83,1.32S333,412.4,340.58,421.1c0,0-33.86,18.59-34.11,18.29C305.16,437.84,288.39,420.85,275.36,412.39Z" transform="translate(-93.68 -366.57)"/></g><g id="Layer_3" data-name="Layer 3"><path class="cls-5" d="M165.15,481.19l21.11,11.47-.2-27.11,13.39,6.83-.33,26.73,25.13,13.5,1.88-26.29,12.92,6.43L236.76,519s36.58,21.17,42.33,24.88,29.06,14.26,37.86,38.22c7.78,21.18,11.06,32,10.91,46.55-.14,13.25-8.73,35.35-22.45,34.47,0,0,16.38,16,24.15,35.78s5.28,31.05,5.43,36c.21,7.13-6.12,26.43-12.65,32.26s-15.64,10.36-29.07,9.34-44-20.52-44-20.52l1,35.58L236,784.86,235.3,750l-19.88-12,0,35.25-13.57-7.83.06-34.56-30.44-16.4-1.05-36.64L187.77,686l-2.19-157.59-21.2-12.13Z" transform="translate(-93.68 -366.57)"/><path class="cls-3" d="M211.4,602.6l-1.78-61.74,59.61,31.65s14.73,7.3,20,19.51,6.13,19.9,6.27,24.54-1.37,16.72-6.84,20-10.75,2.16-19.52-1.91S211.4,602.6,211.4,602.6Z" transform="translate(-93.68 -366.57)"/><path class="cls-3" d="M215.19,702.28l-1.78-61.74L273,672.2s19.41,9,24.71,21.22,6.06,17.38,6.28,24.84c.3,10.5-3.52,17.09-9,20.34s-13.29-.24-22.06-4.31S215.19,702.28,215.19,702.28Z" transform="translate(-93.68 -366.57)"/><path class="cls-6" d="M165,481.93l16.32-9.62,94.5,49.55s38.09,16.3,56.81,49.72c21.51,38.4,11.37,74,4.2,81.71a132.63,132.63,0,0,1-11.12,10.52s12.88,14,17,24.22c7.1,17.52,5.25,29.92,4.26,40.65s-2.59,18.58-9.61,27.34c-7.93,9.89-25,17.34-25,17.34S329,749.31,329,724.2c0-34.3-9.65-45.78-23.25-61.18.62,1.15,19.84-17.33,21-34.58,1.19-17-5.31-33-10.69-43.76-9.29-18.55-22.9-28.82-36.1-39.6C262.74,531,165,481.93,165,481.93Z" transform="translate(-93.68 -366.57)"/><polygon class="cls-7" points="92.39 98.83 107.47 88.7 121.27 95.96 105.75 105.92 92.39 98.83"/><polygon class="cls-8" points="105.83 105.46 121.4 95.9 121.5 123.69 105.47 132.4 105.83 105.46"/><polygon class="cls-9" points="131.91 120.06 146.98 109.93 160.78 117.19 145.26 127.15 131.91 120.06"/><polygon class="cls-10" points="145.34 126.69 160.91 117.13 161.01 144.92 144.99 153.62 145.34 126.69"/><polyline class="cls-11" points="92.38 108.05 92.47 126.41 105.38 132.81 105.62 114.72 92.38 108.05"/><polyline class="cls-12" points="131.44 129.61 130.27 145.96 144.73 153.8 145.47 127.2 131.84 120.01"/><polygon class="cls-13" points="76.78 311.22 93.22 300.4 94.09 319.47 76.78 311.22"/><polygon class="cls-14" points="121.78 406.65 138.15 397 137.81 381.05 121.74 371.41 121.78 406.65"/><path class="cls-15" d="M208.39,540.81l1.81,62.73,64.53,34a10.83,10.83,0,0,0,4.11,1.22c4.11.36,12-.26,14.77-9.52l-67.31-36.75-.52-43.1Z" transform="translate(-93.68 -366.57)"/><path class="cls-16" d="M212.76,640.4l1.81,62.73L255,724.77l11.72,6.29,11.42,5.59,1.19.53a29.78,29.78,0,0,0,6.37,2.39c5.57.9,12,.36,16.25-8.79L230.66,692l-.52-43.1Z" transform="translate(-93.68 -366.57)"/><path class="cls-17" d="M249.32,756l1,35.58,15.55-9.27-.1-16.62S262.06,763.6,249.32,756Z" transform="translate(-93.68 -366.57)"/></g><g id="Layer_6" data-name="Layer 6"><path class="cls-18" d="M332.74,835.14a16.81,16.81,0,0,1,17.06,2.48c8.35,6.66,10.68,9.25,11.78,9.44s-6.55.24-9.67.25-5.73.38-7.39-1.28S332.74,835.14,332.74,835.14Z" transform="translate(-93.68 -366.57)"/><path class="cls-19" d="M332.43,835.17s8.76.14,11.65,7.22-1.89,12.83-.36,16.66a7.49,7.49,0,0,0,4.49,4.62s-7-3.14-9.5-3.57-6.81-5.84-6.2-9c.5-2.59-1-9.8-1.64-13.53C330.72,836.69,332.43,835.17,332.43,835.17Z" transform="translate(-93.68 -366.57)"/><path class="cls-20" d="M319.34,865.09a13.64,13.64,0,0,0,1.16-7c-.53-3.51.65-12.67,4.29-15.63a63.08,63.08,0,0,0,6.9-6.74s3.94,10-1.42,19.42S319.34,865.09,319.34,865.09Z" transform="translate(-93.68 -366.57)"/></g><g id="Layer_6_copy" data-name="Layer 6 copy"><path class="cls-21" d="M381.59,756.75s2.21-9.44,11.3-13.82,12.27-5.31,12.87-6.16-2.37,5.63-3.59,8.27-1.92,5-4,5.73S381.59,756.75,381.59,756.75Z" transform="translate(-93.68 -366.57)"/><path class="cls-22" d="M381.31,757.63s6.18-8.35,13.49-7.95,10.45,6.75,14.4,7a7.11,7.11,0,0,0,5.8-1.94s-5.51,4.69-6.85,6.6-7.77,3.41-10.31,1.61c-2.07-1.46-11.71-4.06-15.23-5Z" transform="translate(-93.68 -366.57)"/><path class="cls-23" d="M404.88,779.7a13.4,13.4,0,0,0-5.66-3.8c-3.27-1-10.8-5.63-12-9.9s-5.79-8.41-5.79-8.41,12.88.55,19,8.86S404.88,779.7,404.88,779.7Z" transform="translate(-93.68 -366.57)"/></g><g id="Layer_6_copy_2" data-name="Layer 6 copy 2"><path class="cls-24" d="M378.29,638.93s1.11-10.34,9.91-15.64,12-6.53,12.48-7.45-1.87,5.92-2.86,8.7-1.48,5.24-3.54,6.18S378.29,638.93,378.29,638.93Z" transform="translate(-93.68 -366.57)"/><path class="cls-25" d="M376.72,639.48s5.47-9,12.94-9.32,11.25,5.84,15.28,5.71,5-1.41,5-1.41-4.43,4.16-5.61,6.22-7.56,4.18-10.31,2.61c-2.24-1.28-12.27-3-15.93-3.6Z" transform="translate(-93.68 -366.57)"/><path class="cls-26" d="M403.87,659.36a13.68,13.68,0,0,0-6.1-3.31c-3.41-.66-11.5-4.68-13.07-8.89s-6.3-8.38-6.3-8.38,12.75-.24,19.75,7.6S403.87,659.36,403.87,659.36Z" transform="translate(-93.68 -366.57)"/></g><g id="Layer_6_copy_3" data-name="Layer 6 copy 3"><path class="cls-27" d="M334.19,527.19s-2.14-9.39,3.85-16.75,8.32-9.42,8.5-10.38.16,5.76.15,8.5.3,5-1.19,6.51S334.19,527.19,334.19,527.19Z" transform="translate(-93.68 -366.57)"/><path class="cls-28" d="M333.91,527.61s2-9.59,8.33-12.16,11.42,1.63,14.84.27a6.73,6.73,0,0,0,4.15-4s-2.85,6.2-3.24,8.37-5.25,6-8.08,5.47c-2.31-.43-11.45,1.17-14.77,1.78Z" transform="translate(-93.68 -366.57)"/><path class="cls-29" d="M362.29,537.15a12.21,12.21,0,0,0-6.24-1c-3.13.48-11.28-.54-13.9-3.73s-7.92-5.39-7.92-5.39,10.89-4.15,19.25.54S362.29,537.15,362.29,537.15Z" transform="translate(-93.68 -366.57)"/></g><g id="Layer_6_copy_4" data-name="Layer 6 copy 4"><path class="cls-30" d="M271.55,447.42s-8.28-5.51-10-15.05-1.77-12.66-2.38-13.5,4.36,4.16,6.37,6.21,3.91,3.54,4.06,5.64S271.55,447.42,271.55,447.42Z" transform="translate(-93.68 -366.57)"/><path class="cls-31" d="M271.69,447.93s-5.84-8.49-3.79-14.7,8.32-6.58,9.45-9.92a7.23,7.23,0,0,0-.35-5.77s2.81,6.54,4.16,8.42,1.16,8-1,9.57c-1.75,1.25-6.27,8.68-7.89,11.4Z" transform="translate(-93.68 -366.57)"/><path class="cls-32" d="M296.42,435.65a9.87,9.87,0,0,0-4.63,3.51c-1.6,2.49-7.43,7.3-11.41,6.71s-8.92,1.41-8.92,1.41,3.72-10.51,12.39-12.73S296.42,435.65,296.42,435.65Z" transform="translate(-93.68 -366.57)"/></g><g id="Layer_6_copy_5" data-name="Layer 6 copy 5"><path class="cls-33" d="M162.36,435s-10.88,4.09-20.64-1.42-12.61-7.8-13.79-7.83,6.86-1.2,10.13-1.67,6-1.22,8,.21S162.36,435,162.36,435Z" transform="translate(-93.68 -366.57)"/><path class="cls-34" d="M162.91,435.3S151.12,434.71,147,428s.09-13.27-2.09-16.92a7.93,7.93,0,0,0-5.41-4s7.87,2.14,10.53,2.21,8,4.91,7.86,8.23c-.14,2.7,3.26,12.81,4.53,16.48Z" transform="translate(-93.68 -366.57)"/><path class="cls-35" d="M169.69,401.35a13.46,13.46,0,0,0-.19,7.27c1.08,3.47,1.19,12.92-2.2,16.45s-5.15,10-5.15,10-6.73-11.65-2.49-22S169.69,401.35,169.69,401.35Z" transform="translate(-93.68 -366.57)"/></g><g id="Layer_6_copy_6" data-name="Layer 6 copy 6"><path class="cls-36" d="M122.25,521.68s-2.82,8.62-10.84,11.51-10.76,3.36-11.35,4,2.6-4.71,3.91-6.9,2.16-4.19,4-4.62S122.25,521.68,122.25,521.68Z" transform="translate(-93.68 -366.57)"/><path class="cls-37" d="M122.67,521.49s-6.06,6.69-12.07,5.55-7.89-7.07-11.13-7.71a5.75,5.75,0,0,0-5,1.09s5.09-3.54,6.42-5.08,6.82-2.17,8.72-.31c1.54,1.51,9.23,4.84,12,6Z" transform="translate(-93.68 -366.57)"/><path class="cls-38" d="M105.66,499.5a11.25,11.25,0,0,0,4.25,4c2.6,1.19,8.3,6.13,8.77,10s3.46,8.32,3.46,8.32-10.22-2.16-14.34-10.15S105.66,499.5,105.66,499.5Z" transform="translate(-93.68 -366.57)"/></g><g id="Layer_6_copy_7" data-name="Layer 6 copy 7"><path class="cls-39" d="M126.16,620.09a14,14,0,0,1-7.16,9.68c-6.21,3.16-8.41,3.88-8.79,4.45s1.41-3.71,2.14-5.44,1.12-3.28,2.57-3.84S126.16,620.09,126.16,620.09Z" transform="translate(-93.68 -366.57)"/><path class="cls-40" d="M127,619.77s-4,5.59-9.14,5.62-7.7-3.93-10.49-3.94-3-.23-3-.23a13.64,13.64,0,0,0,3.54-2.8c.86-1.28,5.32-2.48,7.2-1.43,1.53.86,8.46,2.16,11,2.62Z" transform="translate(-93.68 -366.57)"/><path class="cls-41" d="M108.8,606.62a9.75,9.75,0,0,0,4.17,2.22c2.35.49,7.89,3.21,8.9,5.9s4.21,5.44,4.21,5.44-8.85-.12-13.56-5.23S108.8,606.62,108.8,606.62Z" transform="translate(-93.68 -366.57)"/></g><g id="Layer_6_copy_8" data-name="Layer 6 copy 8"><path class="cls-42" d="M156.13,713.09a11.37,11.37,0,0,1-1.21,9.71c-3.13,4.72-4.4,6.1-4.45,6.66a42.87,42.87,0,0,1-.66-4.71c-.17-1.52-.52-2.77.29-3.74S156.13,713.09,156.13,713.09Z" transform="translate(-93.68 -366.57)"/><path class="cls-43" d="M156.27,712.83s-.57,5.54-4.23,7.63-7,.29-9,1.4a4.21,4.21,0,0,0-2.24,2.64,35.39,35.39,0,0,0,1.4-5c.1-1.25,2.78-3.88,4.53-3.89,1.42,0,6.85-1.85,8.82-2.53Z" transform="translate(-93.68 -366.57)"/><path class="cls-44" d="M138.45,710.49a7.93,7.93,0,0,0,3.84-.09c1.86-.59,6.86-.88,8.66.62a13.91,13.91,0,0,0,5.16,2.17s-6.31,3.45-11.69,1.71S138.45,710.49,138.45,710.49Z" transform="translate(-93.68 -366.57)"/></g><g id="Layer_6_copy_9" data-name="Layer 6 copy 9"><path class="cls-45" d="M214.24,797.2a11.37,11.37,0,0,1,1.57,9.66c-1.68,5.41-2.51,7.1-2.4,7.64a42.87,42.87,0,0,1-2-4.34c-.6-1.41-1.27-2.51-.78-3.67S214.24,797.2,214.24,797.2Z" transform="translate(-93.68 -366.57)"/><path class="cls-46" d="M214.3,796.91s1,5.48-1.92,8.51-6.66,2.25-8.24,3.87a4.21,4.21,0,0,0-1.41,3.16,35.39,35.39,0,0,0-.05-5.18c-.26-1.22,1.57-4.51,3.25-5,1.37-.4,6.06-3.7,7.76-4.91Z" transform="translate(-93.68 -366.57)"/><path class="cls-47" d="M196.55,799.66a7.93,7.93,0,0,0,3.66-1.17c1.62-1.09,6.34-2.77,8.49-1.83a13.91,13.91,0,0,0,5.56.63s-5.09,5.08-10.74,4.93S196.55,799.66,196.55,799.66Z" transform="translate(-93.68 -366.57)"/></g></g><g id="coin2"><g id="Layer_16_copy_2" data-name="Layer 16 copy 2"><g id="Layer_5_copy_2" data-name="Layer 5 copy 2"><path class="cls-48" d="M1028.94,851.07l.07.11-1,.37a2.54,2.54,0,0,1-.5.23l-32.14,14.16L989,868.79c-33.54,13.29-75.71,4.37-119-29.91C781,768.53,720.8,617.55,735.43,501.89c7.27-57.5,31.64-95.51,65.31-110.55.71-.42,1.6-.7,2.41-1.09l33-14.64c34.13-15.68,77.91-7.57,123,28.15,88.93,70.43,149.17,221.33,134.53,337.1-7.23,57.19-31.41,95-64.8,110.21" transform="translate(-93.68 -366.57)"/><path class="cls-2" d="M1036.77,592c.39,1.11.74,2.25,1.12,3.37,18.15,54.13,25.94,111.09,19.58,161.42-14.64,115.74-98.6,152.5-187.54,82.08S720.75,617.6,735.38,501.86,834,349.37,922.94,419.77c30.09,23.84,55.16,58.08,78.65,94.68,14.6,22.77,24.13,46.29,35.19,77.6" transform="translate(-93.68 -366.57)"/><path class="cls-3" d="M1004.08,599.59c.31.94.58,1.9.88,2.86,14.27,45.9,20.2,94.27,14.78,137.09-12.45,98.47-80.16,130.21-151.24,70.88S749.88,623.18,762.33,524.72s80.17-130.2,151.25-70.89c24,20.08,44,49,62.66,80,11.6,19.26,19.12,39.21,27.83,65.75" transform="translate(-93.68 -366.57)"/></g><g id="Layer_2_copy_2" data-name="Layer 2 copy 2"><path class="cls-4" d="M996.43,506.3l34.32-19.94s4.77,8.86,5.95,10.44c13.76,18.45,44.61,88.56,51.77,137.39l-36.29,14.72s-2-9.77-2.66-12.84C1042.07,601.58,1021.08,540.07,996.43,506.3Z" transform="translate(-93.68 -366.57)"/><path class="cls-4" d="M914.87,413.81l37-15.53,1.83,1.32s18.75,14.22,26.36,22.92c0,0-33.86,18.59-34.11,18.29C944.67,439.26,927.9,422.27,914.87,413.81Z" transform="translate(-93.68 -366.57)"/></g><g id="Layer_6_copy_11" data-name="Layer 6 copy 11"><path class="cls-49" d="M972.25,836.56A16.81,16.81,0,0,1,989.31,839c8.35,6.66,10.68,9.25,11.78,9.44s-6.55.24-9.67.25-5.73.38-7.39-1.28S972.25,836.56,972.25,836.56Z" transform="translate(-93.68 -366.57)"/><path class="cls-50" d="M971.94,836.59s8.76.14,11.65,7.22-1.89,12.83-.36,16.66a7.49,7.49,0,0,0,4.49,4.62s-7-3.14-9.5-3.57-6.81-5.84-6.2-9c.5-2.59-1-9.8-1.64-13.53C970.23,838.12,971.94,836.59,971.94,836.59Z" transform="translate(-93.68 -366.57)"/><path class="cls-51" d="M958.85,866.52a13.64,13.64,0,0,0,1.16-7c-.53-3.51.65-12.67,4.29-15.63a63.08,63.08,0,0,0,6.9-6.74s3.94,10-1.42,19.42S958.85,866.52,958.85,866.52Z" transform="translate(-93.68 -366.57)"/></g><g id="Layer_6_copy_11-2" data-name="Layer 6 copy 11"><path class="cls-52" d="M1021.1,758.18s2.21-9.44,11.3-13.82,12.27-5.31,12.87-6.16-2.37,5.63-3.59,8.27-1.92,5-4,5.73S1021.1,758.18,1021.1,758.18Z" transform="translate(-93.68 -366.57)"/><path class="cls-53" d="M1020.82,759.05s6.18-8.35,13.49-7.95,10.45,6.75,14.4,7a7.11,7.11,0,0,0,5.8-1.94s-5.51,4.69-6.85,6.6-7.77,3.41-10.31,1.61c-2.07-1.46-11.71-4.06-15.23-5Z" transform="translate(-93.68 -366.57)"/><path class="cls-54" d="M1044.39,781.12a13.4,13.4,0,0,0-5.66-3.8c-3.27-1-10.8-5.63-12-9.9S1021,759,1021,759s12.88.55,19,8.86S1044.39,781.12,1044.39,781.12Z" transform="translate(-93.68 -366.57)"/></g><g id="Layer_6_copy_11-3" data-name="Layer 6 copy 11"><path class="cls-55" d="M1017.8,640.36s1.11-10.34,9.91-15.64,12-6.53,12.48-7.45-1.87,5.92-2.86,8.7-1.48,5.24-3.54,6.18S1017.8,640.36,1017.8,640.36Z" transform="translate(-93.68 -366.57)"/><path class="cls-56" d="M1016.23,640.91s5.47-9,12.94-9.32,11.25,5.84,15.28,5.71,5-1.41,5-1.41-4.43,4.16-5.61,6.22-7.56,4.18-10.31,2.61c-2.24-1.28-12.27-3-15.93-3.6Z" transform="translate(-93.68 -366.57)"/><path class="cls-57" d="M1043.38,660.78a13.68,13.68,0,0,0-6.1-3.31c-3.41-.66-11.5-4.68-13.07-8.89s-6.3-8.38-6.3-8.38,12.75-.24,19.75,7.6S1043.38,660.78,1043.38,660.78Z" transform="translate(-93.68 -366.57)"/></g><g id="Layer_6_copy_11-4" data-name="Layer 6 copy 11"><path class="cls-58" d="M973.71,528.62s-2.14-9.39,3.85-16.75,8.32-9.42,8.5-10.38.16,5.76.15,8.5.3,5-1.19,6.51S973.71,528.62,973.71,528.62Z" transform="translate(-93.68 -366.57)"/><path class="cls-59" d="M973.42,529s2-9.59,8.33-12.16,11.42,1.63,14.84.27a6.73,6.73,0,0,0,4.15-4s-2.85,6.2-3.24,8.37-5.25,6-8.08,5.47c-2.31-.43-11.45,1.17-14.77,1.78Z" transform="translate(-93.68 -366.57)"/><path class="cls-60" d="M1001.8,538.58a12.21,12.21,0,0,0-6.24-1c-3.13.48-11.28-.54-13.9-3.73s-7.92-5.39-7.92-5.39,10.89-4.15,19.25.54S1001.8,538.58,1001.8,538.58Z" transform="translate(-93.68 -366.57)"/></g><g id="Layer_6_copy_11-5" data-name="Layer 6 copy 11"><path class="cls-61" d="M911.06,448.84s-8.28-5.51-10-15.05-1.77-12.66-2.38-13.5,4.36,4.16,6.37,6.21,3.91,3.54,4.06,5.64S911.06,448.84,911.06,448.84Z" transform="translate(-93.68 -366.57)"/><path class="cls-62" d="M911.2,449.35s-5.84-8.49-3.79-14.7,8.32-6.58,9.45-9.92a7.23,7.23,0,0,0-.35-5.77s2.81,6.54,4.16,8.42,1.16,8-1,9.57c-1.75,1.25-6.27,8.68-7.89,11.4Z" transform="translate(-93.68 -366.57)"/><path class="cls-63" d="M935.93,437.08a9.87,9.87,0,0,0-4.63,3.51c-1.6,2.49-7.43,7.3-11.41,6.71s-8.92,1.41-8.92,1.41,3.72-10.51,12.39-12.73S935.93,437.08,935.93,437.08Z" transform="translate(-93.68 -366.57)"/></g><g id="Layer_6_copy_11-6" data-name="Layer 6 copy 11"><path class="cls-64" d="M801.87,436.47s-10.88,4.09-20.64-1.42-12.61-7.8-13.79-7.83,6.86-1.2,10.13-1.67,6-1.22,8,.21S801.87,436.47,801.87,436.47Z" transform="translate(-93.68 -366.57)"/><path class="cls-65" d="M802.42,436.72s-11.79-.59-15.88-7.33.09-13.27-2.09-16.92a7.93,7.93,0,0,0-5.41-4s7.87,2.14,10.53,2.21,8,4.91,7.86,8.23c-.14,2.7,3.26,12.81,4.53,16.48Z" transform="translate(-93.68 -366.57)"/><path class="cls-66" d="M809.2,402.78A13.46,13.46,0,0,0,809,410c1.08,3.47,1.19,12.92-2.2,16.45s-5.15,10-5.15,10-6.73-11.65-2.49-22S809.2,402.78,809.2,402.78Z" transform="translate(-93.68 -366.57)"/></g><g id="Layer_6_copy_11-7" data-name="Layer 6 copy 11"><path class="cls-67" d="M761.76,523.1s-2.82,8.62-10.84,11.51-10.76,3.36-11.35,4,2.6-4.71,3.91-6.9,2.16-4.19,4-4.62S761.76,523.1,761.76,523.1Z" transform="translate(-93.68 -366.57)"/><path class="cls-68" d="M762.18,522.91s-6.06,6.69-12.07,5.55-7.89-7.07-11.13-7.71a5.75,5.75,0,0,0-5,1.09s5.09-3.54,6.42-5.08,6.82-2.17,8.72-.31c1.54,1.51,9.23,4.84,12,6Z" transform="translate(-93.68 -366.57)"/><path class="cls-69" d="M745.17,500.93a11.25,11.25,0,0,0,4.25,4c2.6,1.19,8.3,6.13,8.77,10s3.46,8.32,3.46,8.32-10.22-2.16-14.34-10.15S745.17,500.93,745.17,500.93Z" transform="translate(-93.68 -366.57)"/></g><g id="Layer_6_copy_11-8" data-name="Layer 6 copy 11"><path class="cls-70" d="M765.67,621.51a14,14,0,0,1-7.16,9.68c-6.21,3.16-8.41,3.88-8.79,4.45s1.41-3.71,2.14-5.44,1.12-3.28,2.57-3.84S765.67,621.51,765.67,621.51Z" transform="translate(-93.68 -366.57)"/><path class="cls-71" d="M766.46,621.19s-4,5.59-9.14,5.62-7.7-3.93-10.49-3.94-3-.23-3-.23a13.64,13.64,0,0,0,3.54-2.8c.86-1.28,5.32-2.48,7.2-1.43,1.53.86,8.46,2.16,11,2.62Z" transform="translate(-93.68 -366.57)"/><path class="cls-72" d="M748.31,608a9.75,9.75,0,0,0,4.17,2.22c2.35.49,7.89,3.21,8.9,5.9s4.21,5.44,4.21,5.44-8.85-.12-13.56-5.23S748.31,608,748.31,608Z" transform="translate(-93.68 -366.57)"/></g><g id="Layer_6_copy_11-9" data-name="Layer 6 copy 11"><path class="cls-73" d="M795.64,714.51a11.37,11.37,0,0,1-1.21,9.71c-3.13,4.72-4.4,6.1-4.45,6.66a42.87,42.87,0,0,1-.66-4.71c-.17-1.52-.52-2.77.29-3.74S795.64,714.51,795.64,714.51Z" transform="translate(-93.68 -366.57)"/><path class="cls-74" d="M795.78,714.25s-.57,5.54-4.23,7.63-7,.29-9,1.4a4.21,4.21,0,0,0-2.24,2.64,35.39,35.39,0,0,0,1.4-5c.1-1.25,2.78-3.88,4.53-3.89,1.42,0,6.85-1.85,8.82-2.53Z" transform="translate(-93.68 -366.57)"/><path class="cls-75" d="M778,711.91a7.93,7.93,0,0,0,3.84-.09c1.86-.59,6.86-.88,8.66.62a13.91,13.91,0,0,0,5.16,2.17s-6.31,3.45-11.69,1.71S778,711.91,778,711.91Z" transform="translate(-93.68 -366.57)"/></g><g id="Layer_6_copy_11-10" data-name="Layer 6 copy 11"><path class="cls-76" d="M853.75,798.62a11.37,11.37,0,0,1,1.57,9.66c-1.68,5.41-2.51,7.1-2.4,7.64a42.87,42.87,0,0,1-2-4.34c-.6-1.41-1.27-2.51-.78-3.67S853.75,798.62,853.75,798.62Z" transform="translate(-93.68 -366.57)"/><path class="cls-77" d="M853.81,798.33s1,5.48-1.92,8.51-6.66,2.25-8.24,3.87a4.21,4.21,0,0,0-1.41,3.16,35.39,35.39,0,0,0-.05-5.18c-.26-1.22,1.57-4.51,3.25-5,1.37-.4,6.06-3.7,7.76-4.91Z" transform="translate(-93.68 -366.57)"/><path class="cls-78" d="M836.06,801.09a7.93,7.93,0,0,0,3.66-1.17c1.62-1.09,6.34-2.77,8.49-1.83a13.91,13.91,0,0,0,5.56.63s-5.09,5.08-10.74,4.93S836.06,801.09,836.06,801.09Z" transform="translate(-93.68 -366.57)"/></g></g><g id="Layer_33" data-name="Layer 33"><polygon class="cls-79" points="714.63 278.9 794.61 416.98 783.27 351.42 714.63 278.9"/><polygon class="cls-80" points="711.47 252.75 767.55 104.31 771.12 229.2 711.47 252.75"/><polygon class="cls-81" points="714.63 278.9 795.84 345.17 783.27 351.42 714.63 278.9"/><polygon class="cls-82" points="771.28 229.51 766.2 104.67 866.19 290.53 771.28 229.51"/><polygon class="cls-83" points="783.27 351.42 863.64 315.58 794.61 416.98 783.27 351.42"/><polygon class="cls-84" points="771.12 229.2 789.78 325 866.15 290.54 771.12 229.2"/><polygon class="cls-85" points="711.47 252.75 789.78 325 771.12 229.2 711.47 252.75"/></g></g><g id="coin_3" data-name="coin 3"><g id="Layer_16_copy_3" data-name="Layer 16 copy 3"><g id="Layer_5_copy_3" data-name="Layer 5 copy 3"><path class="cls-86" d="M1690.17,867.76l.07.11-1,.37a2.54,2.54,0,0,1-.5.23l-32.14,14.16-6.41,2.86c-33.54,13.29-75.71,4.37-119-29.91-88.94-70.36-149.16-221.33-134.53-337,7.27-57.5,31.64-95.51,65.31-110.55.71-.42,1.6-.7,2.41-1.09l33-14.64c34.13-15.68,77.91-7.57,123,28.15,88.93,70.43,149.17,221.33,134.53,337.1-7.23,57.19-31.41,95-64.8,110.21" transform="translate(-93.68 -366.57)"/><path class="cls-2" d="M1698,608.73c.39,1.11.74,2.25,1.12,3.37,18.15,54.13,25.94,111.09,19.58,161.42-14.64,115.74-98.6,152.5-187.54,82.08S1382,634.28,1396.62,518.54s98.6-152.49,187.55-82.09c30.09,23.84,55.16,58.08,78.65,94.68,14.6,22.77,24.13,46.29,35.19,77.6" transform="translate(-93.68 -366.57)"/><path class="cls-3" d="M1665.31,616.28c.31.94.58,1.9.88,2.86,14.27,45.9,20.2,94.27,14.78,137.09-12.45,98.47-80.16,130.21-151.24,70.88S1411.11,639.87,1423.56,541.4s80.17-130.2,151.25-70.89c24,20.08,44,49,62.66,80,11.6,19.26,19.12,39.21,27.83,65.75" transform="translate(-93.68 -366.57)"/></g><g id="Layer_2_copy_3" data-name="Layer 2 copy 3"><path class="cls-4" d="M1657.67,523,1692,503s4.77,8.86,5.95,10.44c13.76,18.45,44.61,88.56,51.77,137.39l-36.29,14.72s-2-9.77-2.66-12.84C1703.3,618.26,1682.31,556.75,1657.67,523Z" transform="translate(-93.68 -366.57)"/><path class="cls-4" d="M1576.1,430.5l37-15.53,1.83,1.32s18.75,14.22,26.36,22.92c0,0-33.86,18.59-34.11,18.29C1605.9,455.95,1589.13,439,1576.1,430.5Z" transform="translate(-93.68 -366.57)"/></g><g id="Layer_6_copy_12" data-name="Layer 6 copy 12"><path class="cls-87" d="M1633.48,853.25a16.81,16.81,0,0,1,17.06,2.48c8.35,6.66,10.68,9.25,11.78,9.44s-6.55.24-9.67.25-5.73.38-7.39-1.28S1633.48,853.25,1633.48,853.25Z" transform="translate(-93.68 -366.57)"/><path class="cls-88" d="M1633.17,853.28s8.76.14,11.65,7.22-1.89,12.83-.36,16.66a7.49,7.49,0,0,0,4.49,4.62s-7-3.14-9.5-3.57-6.81-5.84-6.2-9c.5-2.59-1-9.8-1.64-13.53C1631.46,854.8,1633.17,853.28,1633.17,853.28Z" transform="translate(-93.68 -366.57)"/><path class="cls-89" d="M1620.08,883.2a13.64,13.64,0,0,0,1.16-7c-.53-3.51.65-12.67,4.29-15.63a63.08,63.08,0,0,0,6.9-6.74s3.94,10-1.42,19.42S1620.08,883.2,1620.08,883.2Z" transform="translate(-93.68 -366.57)"/></g><g id="Layer_6_copy_12-2" data-name="Layer 6 copy 12"><path class="cls-90" d="M1682.33,774.87s2.21-9.44,11.3-13.82,12.27-5.31,12.87-6.16-2.37,5.63-3.59,8.27-1.92,5-4,5.73S1682.33,774.87,1682.33,774.87Z" transform="translate(-93.68 -366.57)"/><path class="cls-91" d="M1682.06,775.74s6.18-8.35,13.49-7.95,10.45,6.75,14.4,7a7.11,7.11,0,0,0,5.8-1.94s-5.51,4.69-6.85,6.6-7.77,3.41-10.31,1.61c-2.07-1.46-11.71-4.06-15.23-5Z" transform="translate(-93.68 -366.57)"/><path class="cls-92" d="M1705.62,797.81A13.4,13.4,0,0,0,1700,794c-3.27-1-10.8-5.63-12-9.9s-5.79-8.41-5.79-8.41,12.88.55,19,8.86S1705.62,797.81,1705.62,797.81Z" transform="translate(-93.68 -366.57)"/></g><g id="Layer_6_copy_12-3" data-name="Layer 6 copy 12"><path class="cls-93" d="M1679,657s1.11-10.34,9.91-15.64,12-6.53,12.48-7.45-1.87,5.92-2.86,8.7-1.48,5.24-3.54,6.18S1679,657,1679,657Z" transform="translate(-93.68 -366.57)"/><path class="cls-94" d="M1677.46,657.59s5.47-9,12.94-9.32,11.25,5.84,15.28,5.71,5-1.41,5-1.41-4.43,4.16-5.61,6.22-7.56,4.18-10.31,2.61c-2.24-1.28-12.27-3-15.93-3.6Z" transform="translate(-93.68 -366.57)"/><path class="cls-95" d="M1704.61,677.47a13.68,13.68,0,0,0-6.1-3.31c-3.41-.66-11.5-4.68-13.07-8.89s-6.3-8.38-6.3-8.38,12.75-.24,19.75,7.6S1704.61,677.47,1704.61,677.47Z" transform="translate(-93.68 -366.57)"/></g><g id="Layer_6_copy_12-4" data-name="Layer 6 copy 12"><path class="cls-96" d="M1634.94,545.3s-2.14-9.39,3.85-16.75,8.32-9.42,8.5-10.38.16,5.76.15,8.5.3,5-1.19,6.51S1634.94,545.3,1634.94,545.3Z" transform="translate(-93.68 -366.57)"/><path class="cls-97" d="M1634.65,545.73s2-9.59,8.33-12.16,11.42,1.63,14.84.27a6.73,6.73,0,0,0,4.15-4s-2.85,6.2-3.24,8.37-5.25,6-8.08,5.47c-2.31-.43-11.45,1.17-14.77,1.78Z" transform="translate(-93.68 -366.57)"/><path class="cls-98" d="M1663,555.26a12.21,12.21,0,0,0-6.24-1c-3.13.48-11.28-.54-13.9-3.73s-7.92-5.39-7.92-5.39,10.89-4.15,19.25.54S1663,555.26,1663,555.26Z" transform="translate(-93.68 -366.57)"/></g><g id="Layer_6_copy_12-5" data-name="Layer 6 copy 12"><path class="cls-99" d="M1572.3,465.53s-8.28-5.51-10-15.05-1.77-12.66-2.38-13.5,4.36,4.16,6.37,6.21,3.91,3.54,4.06,5.64S1572.3,465.53,1572.3,465.53Z" transform="translate(-93.68 -366.57)"/><path class="cls-100" d="M1572.43,466s-5.84-8.49-3.79-14.7,8.32-6.58,9.45-9.92a7.23,7.23,0,0,0-.35-5.77s2.81,6.54,4.16,8.42,1.16,8-1,9.57c-1.75,1.25-6.27,8.68-7.89,11.4Z" transform="translate(-93.68 -366.57)"/><path class="cls-101" d="M1597.16,453.76a9.87,9.87,0,0,0-4.63,3.51c-1.6,2.49-7.43,7.3-11.41,6.71s-8.92,1.41-8.92,1.41,3.72-10.51,12.39-12.73S1597.16,453.76,1597.16,453.76Z" transform="translate(-93.68 -366.57)"/></g><g id="Layer_6_copy_12-6" data-name="Layer 6 copy 12"><path class="cls-102" d="M1463.1,453.16s-10.88,4.09-20.64-1.42-12.61-7.8-13.79-7.83,6.86-1.2,10.13-1.67,6-1.22,8,.21S1463.1,453.16,1463.1,453.16Z" transform="translate(-93.68 -366.57)"/><path class="cls-103" d="M1463.65,453.41s-11.79-.59-15.88-7.33.09-13.27-2.09-16.92a7.93,7.93,0,0,0-5.41-4s7.87,2.14,10.53,2.21,8,4.91,7.86,8.23c-.14,2.7,3.26,12.81,4.53,16.48Z" transform="translate(-93.68 -366.57)"/><path class="cls-104" d="M1470.43,419.47a13.46,13.46,0,0,0-.19,7.27c1.08,3.47,1.19,12.92-2.2,16.45s-5.15,10-5.15,10-6.73-11.65-2.49-22S1470.43,419.47,1470.43,419.47Z" transform="translate(-93.68 -366.57)"/></g><g id="Layer_6_copy_12-7" data-name="Layer 6 copy 12"><path class="cls-105" d="M1423,539.79s-2.82,8.62-10.84,11.51-10.76,3.36-11.35,4,2.6-4.71,3.91-6.9,2.16-4.19,4-4.62S1423,539.79,1423,539.79Z" transform="translate(-93.68 -366.57)"/><path class="cls-106" d="M1423.41,539.6s-6.06,6.69-12.07,5.55-7.89-7.07-11.13-7.71a5.75,5.75,0,0,0-5,1.09s5.09-3.54,6.42-5.08,6.82-2.17,8.72-.31c1.54,1.51,9.23,4.84,12,6Z" transform="translate(-93.68 -366.57)"/><path class="cls-107" d="M1406.41,517.61a11.25,11.25,0,0,0,4.25,4c2.6,1.19,8.3,6.13,8.77,10s3.46,8.32,3.46,8.32-10.22-2.16-14.34-10.15S1406.41,517.61,1406.41,517.61Z" transform="translate(-93.68 -366.57)"/></g><g id="Layer_6_copy_12-8" data-name="Layer 6 copy 12"><path class="cls-108" d="M1426.9,638.2a14,14,0,0,1-7.16,9.68c-6.21,3.16-8.41,3.88-8.79,4.45s1.41-3.71,2.14-5.44,1.12-3.28,2.57-3.84S1426.9,638.2,1426.9,638.2Z" transform="translate(-93.68 -366.57)"/><path class="cls-109" d="M1427.7,637.88s-4,5.59-9.14,5.62-7.7-3.93-10.49-3.94-3-.23-3-.23a13.64,13.64,0,0,0,3.54-2.8c.86-1.28,5.32-2.48,7.2-1.43,1.53.86,8.46,2.16,11,2.62Z" transform="translate(-93.68 -366.57)"/><path class="cls-110" d="M1409.54,624.73a9.75,9.75,0,0,0,4.17,2.22c2.35.49,7.89,3.21,8.9,5.9s4.21,5.44,4.21,5.44-8.85-.12-13.56-5.23S1409.54,624.73,1409.54,624.73Z" transform="translate(-93.68 -366.57)"/></g><g id="Layer_6_copy_12-9" data-name="Layer 6 copy 12"><path class="cls-111" d="M1456.87,731.2a11.37,11.37,0,0,1-1.21,9.71c-3.13,4.72-4.4,6.1-4.45,6.66a42.87,42.87,0,0,1-.66-4.71c-.17-1.52-.52-2.77.29-3.74S1456.87,731.2,1456.87,731.2Z" transform="translate(-93.68 -366.57)"/><path class="cls-112" d="M1457,730.94s-.57,5.54-4.23,7.63-7,.29-9,1.4a4.21,4.21,0,0,0-2.24,2.64,35.39,35.39,0,0,0,1.4-5c.1-1.25,2.78-3.88,4.53-3.89,1.42,0,6.85-1.85,8.82-2.53Z" transform="translate(-93.68 -366.57)"/><path class="cls-113" d="M1439.2,728.6a7.93,7.93,0,0,0,3.84-.09c1.86-.59,6.86-.88,8.66.62a13.91,13.91,0,0,0,5.16,2.17s-6.31,3.45-11.69,1.71S1439.2,728.6,1439.2,728.6Z" transform="translate(-93.68 -366.57)"/></g><g id="Layer_6_copy_12-10" data-name="Layer 6 copy 12"><path class="cls-114" d="M1515,815.31a11.37,11.37,0,0,1,1.57,9.66c-1.68,5.41-2.51,7.1-2.4,7.64a42.87,42.87,0,0,1-2-4.34c-.6-1.41-1.27-2.51-.78-3.67S1515,815.31,1515,815.31Z" transform="translate(-93.68 -366.57)"/><path class="cls-115" d="M1515,815s1,5.48-1.92,8.51-6.66,2.25-8.24,3.87a4.21,4.21,0,0,0-1.41,3.16,35.39,35.39,0,0,0-.05-5.18c-.26-1.22,1.57-4.51,3.25-5,1.37-.4,6.06-3.7,7.76-4.91Z" transform="translate(-93.68 -366.57)"/><path class="cls-116" d="M1497.29,817.77a7.93,7.93,0,0,0,3.66-1.17c1.62-1.09,6.34-2.77,8.49-1.83a13.91,13.91,0,0,0,5.56.63s-5.09,5.08-10.74,4.93S1497.29,817.77,1497.29,817.77Z" transform="translate(-93.68 -366.57)"/></g></g><g id="Layer_34" data-name="Layer 34"><path class="cls-117" d="M1506.49,609.54s11.74,17.09,15.31,18.29,16.5,6.5,20-17-5.92-22.15-7.88-28.12-10.44-24.07-6.81-49,23.19-39.25,25.13-39.52,13.53-6.7,26.9-.34S1601,516.41,1601,516.41s9.07,18.31,8.63,39.64c-.33,16.29-5.16,26.42-7.42,30.31-.69,1.18-1.34,2.38-1.92,3.62a33.73,33.73,0,0,1-19,17.38c-14.18,5-19.27,9.4-21.36,14.8s-3.3,13.87.64,23.82q.25.62.51,1.21a23.18,23.18,0,0,0,17.74,13.21,162.53,162.53,0,0,1,16.33,3.1c10,3,15,6.78,19.19,12.16s11.82,15.66,14.46,22.38,5.38,21.92,5,28c-.31,4.44,2.93,19.29-5.5,32.09s-13.67,17.08-18.81,18.93-15.63,5.86-31.33-3c-11.53-6.52-18.83-21.12-21.89-28.42a47.22,47.22,0,0,1-2.43-7.47c-1.65-7-5.31-23.89-4.07-30.94,1.58-9,2.75-23.76,2.09-28.49s-.7-15.22-11-21.73-19.05,5.77-20.06,10.73-5.07,16.59-6.91,19.68a30.48,30.48,0,0,1-19.41,14.32c-12.33,3.13-26.21-10-26.21-10s-13.45-15.15-15.15-29.37-3.49-27.1-.74-36.54c2.21-7.6,5.4-19.7,15-26.14s18-7,26.07-2.21A46.88,46.88,0,0,1,1506.49,609.54Z" transform="translate(-93.68 -366.57)"/><path class="cls-118" d="M1510.48,609.41s11.74,17.09,15.31,18.29,16.5,6.5,20-17-4.72-23.76-9-30.1c-3.54-5.19-9.28-22.09-5.65-47s23.19-39.25,25.13-39.52,13.53-6.7,26.9-.34S1605,516.27,1605,516.27s9.07,18.31,8.63,39.64c-.33,16.29-5.16,26.42-7.42,30.31-.69,1.18-1.34,2.38-1.92,3.62a33.73,33.73,0,0,1-19,17.38c-14.18,5-19.27,9.4-21.36,14.8s-3.3,13.87.64,23.82q.25.62.51,1.21a23.18,23.18,0,0,0,17.74,13.21,162.53,162.53,0,0,1,16.33,3.1c10,3,18.43,6.8,24.39,13.16,9.16,9.77,9.55,12.42,12.54,19.39,7.06,16.49,8.53,46.34.92,60.57-7.23,13.51-16.89,18.18-22,20-15,5.15-17.15,6.32-32.85-2.56-11.53-6.52-26.55-23.31-29.34-36.36-1.51-7.05-6.45-18.17-.29-34.38a53.09,53.09,0,0,0,3.33-24.58c-.66-4.73-.7-15.22-11-21.73s-19.05,5.77-20.06,10.73-5.07,16.59-6.91,19.68a30.48,30.48,0,0,1-19.41,14.32c-12.33,3.13-26.21-10-26.21-10s-13.45-15.15-15.15-29.37-3.49-27.1-.74-36.54c2.21-7.6,5.4-19.7,15-26.14s18-7,26.07-2.21A46.88,46.88,0,0,1,1510.48,609.41Z" transform="translate(-93.68 -366.57)"/><path class="cls-119" d="M1497.57,610.78s11.74,17.09,15.31,18.29,16.5,6.5,20-17-4.72-23.76-9-30.1c-3.54-5.19-9.28-22.09-5.65-47s23.19-39.25,25.13-39.52,13.53-6.7,26.9-.34,21.85,22.49,21.85,22.49,9.07,18.31,8.63,39.64c-.33,16.29-5.16,26.42-7.42,30.31-.69,1.18-1.34,2.38-1.92,3.62a33.73,33.73,0,0,1-19,17.38c-14.18,5-19.27,9.4-21.36,14.8s-3.3,13.87.64,23.82q.25.62.51,1.21A23.18,23.18,0,0,0,1570,661.63a162.53,162.53,0,0,1,16.33,3.1c10,3,18.43,6.8,24.39,13.16,9.16,9.77,9.55,12.42,12.54,19.39,7.06,16.49,6.56,48.55-1.87,61.35s-14.67,19.3-19.8,21.15-16.6,4.34-32.3-4.54c-11.53-6.52-26.55-23.31-29.34-36.36-1.51-7.05-6.45-18.17-.29-34.38a53.09,53.09,0,0,0,3.33-24.58c-.66-4.73-.7-15.22-11-21.73s-19.05,5.77-20.06,10.73-5.07,16.59-6.91,19.68a30.48,30.48,0,0,1-19.41,14.32c-12.33,3.13-26.21-10-26.21-10s-13.45-15.15-15.15-29.37-3.49-27.1-.74-36.54c2.21-7.6,5.4-19.7,15-26.14s18-7,26.07-2.21A46.88,46.88,0,0,1,1497.57,610.78Z" transform="translate(-93.68 -366.57)"/></g></g></svg>