<svg id="Computer" xmlns="http://www.w3.org/2000/svg" xmlns:xlink="http://www.w3.org/1999/xlink" viewBox="0 0 164.16 158"><defs><style>.cls-1{fill:#bac5f4;}.cls-2{fill:#fff;}.cls-3{fill:#f8f8ff;}.cls-4{fill:#fa5f5d;}.cls-5{fill:#fdbc4e;}.cls-6{fill:#37cd58;}.cls-7{fill:url(#linear-gradient);}.cls-8{fill:url(#linear-gradient-2);}.cls-9{fill:url(#linear-gradient-3);}.cls-10{fill:url(#linear-gradient-4);}.cls-11{fill:url(#linear-gradient-5);}.cls-12{fill:#e9edfb;}</style><linearGradient id="linear-gradient" x1="1038" y1="361.5" x2="1073" y2="361.5" gradientUnits="userSpaceOnUse"><stop offset="0" stop-color="#f71d69"/><stop offset="1" stop-color="#f8c648"/></linearGradient><linearGradient id="linear-gradient-2" x1="1038" y1="382.5" x2="1144" y2="382.5" gradientUnits="userSpaceOnUse"><stop offset="0" stop-color="#93fd94"/><stop offset="1" stop-color="#21c4c0"/></linearGradient><linearGradient id="linear-gradient-3" y1="406.5" x2="1071" y2="406.5" xlink:href="#linear-gradient-2"/><linearGradient id="linear-gradient-4" x1="1074" y1="406.5" x2="1107" y2="406.5" xlink:href="#linear-gradient-2"/><linearGradient id="linear-gradient-5" x1="1111" y1="406.5" y2="406.5" xlink:href="#linear-gradient-2"/></defs><title>Computer</title><path class="cls-1" d="M1016,464h152.31s5.69-.3,5.69-6.93V444H1010v15.94a5.88,5.88,0,0,0,5.89,4.06" transform="translate(-1009.9 -336)"/><path class="cls-1" d="M1010,345l-.1,104,164.1-1.5V342s1-6-5.39-6H1016.19s-6.89,0-6.19,9.09" transform="translate(-1009.9 -336)"/><polygon class="cls-1" points="69.1 155.9 69.1 127 93.1 128 93.1 153.4 69.1 155.9"/><polygon class="cls-1" points="31 153 130.73 153.03 130.79 158 31 158 31 153"/><path class="cls-2" d="M1090.53,451.1a4.8,4.8,0,1,1-4.8,4.8,4.8,4.8,0,0,1,4.8-4.8" transform="translate(-1009.9 -336)"/><rect class="cls-3" x="5.1" y="5" width="154" height="101"/><path class="cls-4" d="M1022.73,346.2a2.4,2.4,0,1,1-2.4,2.4,2.4,2.4,0,0,1,2.4-2.4" transform="translate(-1009.9 -336)"/><path class="cls-5" d="M1030.93,346.2a2.4,2.4,0,1,1-2.4,2.4,2.4,2.4,0,0,1,2.4-2.4" transform="translate(-1009.9 -336)"/><path class="cls-6" d="M1039.53,346.2a2.4,2.4,0,1,1-2.4,2.4,2.4,2.4,0,0,1,2.4-2.4" transform="translate(-1009.9 -336)"/><path class="cls-7" d="M1073,363.75a2.39,2.39,0,0,1-2.5,2.25H1041c-1.52,0-3-1-3-2.25v-4.49c0-1.25,1.45-2.26,3-2.26h29.44a2.4,2.4,0,0,1,2.59,2.17s0,.06,0,.09Z" transform="translate(-1009.9 -336)"/><path class="cls-8" d="M1144,393.62a2.55,2.55,0,0,1-2.71,2.38H1041c-1.54,0-3-1.06-3-2.38V371.38c0-1.32,1.47-2.38,3-2.38h100.28a2.55,2.55,0,0,1,2.72,2.37h0Z" transform="translate(-1009.9 -336)"/><path class="cls-9" d="M1071,412.57a2.44,2.44,0,0,1-2.45,2.44H1041c-1.55,0-3-1.09-3-2.43V400.42c0-1.33,1.48-2.42,3-2.42h27.38a2.43,2.43,0,0,1,2.59,2.28s0,.09,0,.14Z" transform="translate(-1009.9 -336)"/><path class="cls-10" d="M1107,412.57a2.42,2.42,0,0,1-2.41,2.44H1077c-1.56,0-3-1.09-3-2.43V400.42c0-1.33,1.5-2.42,3-2.42h27.41a2.42,2.42,0,0,1,2.56,2.27c0,.05,0,.1,0,.15Z" transform="translate(-1009.9 -336)"/><path class="cls-11" d="M1144,412.57a2.59,2.59,0,0,1-2.74,2.43h-27.38a2.7,2.7,0,0,1-2.88-2.43V400.42a2.7,2.7,0,0,1,2.88-2.42h27.37a2.59,2.59,0,0,1,2.75,2.42h0Z" transform="translate(-1009.9 -336)"/><path class="cls-12" d="M1107,419.5a1.55,1.55,0,0,1-1.06.9c-.06,0-.12,0-.18-.4h-30.24c-.62.4-1.54.05-1.52-.5v-.39c0-.55.9-1,1.52-1.11h30.24a1.16,1.16,0,0,1,.93.94c0,.06,0,.11.31.17Z" transform="translate(-1009.9 -336)"/><path class="cls-12" d="M1107,423.44a1.6,1.6,0,0,1-1.1,1s-.09,0-.14-.43h-30.24c-.62.44-1.54,0-1.52-.56V423c0-.54.9-.85,1.52-1h30.24a2,2,0,0,1,1.24,1Z" transform="translate(-1009.9 -336)"/><path class="cls-12" d="M1107,427.39a1.67,1.67,0,0,1-1.23,1.08,2.29,2.29,0,0,1,0-.47h-30.24a1,1,0,0,1-1.52-.61V427c0-.54.9-.76,1.52-1h30.24a2,2,0,0,1,1.24,1Z" transform="translate(-1009.9 -336)"/><path class="cls-12" d="M1107,431.33a5.07,5.07,0,0,1-1.24,1.67h-30.24c-.62-.5-1.54-1.12-1.52-1.67v-.39c0-.55.9-1.13,1.52-.94h30.24a.77.77,0,0,1,.94.87s0,0,.3.07Z" transform="translate(-1009.9 -336)"/><path class="cls-12" d="M1090.22,435.27c0,.49-.33.73-.9.73h-13.92c-.56,0-1.39-.24-1.39-.73v-.36c0-.49.83-.9,1.39-.9h13.93a.9.9,0,0,1,.9.9Z" transform="translate(-1009.9 -336)"/><path class="cls-12" d="M1144,419.5c-.57.55-.47.9-1.09.5h-30.25c-.51.44-1,.07-1-.44,0,0,0,0,.34-.06v-.39c-.31-.53.13-1,.66-1.11h30.25c.62.16.52.56,1.09,1.11Z" transform="translate(-1009.9 -336)"/><path class="cls-12" d="M1144,423.44c-.57.55-.47,1-1.09.56h-30.25c-.55.44-1,0-.66-.56V423c-.34-.54.08-.85.66-1h30.25c.62.2.52.51,1.09,1Z" transform="translate(-1009.9 -336)"/><path class="cls-12" d="M1144,427.39c-.57.54-.47,1.08-1.09.61h-30.25c-.57.43-1,0-.66-.61V427c-.34-.54.08-.76.66-1h30.25c.62.23.52.45,1.09,1Z" transform="translate(-1009.9 -336)"/><path class="cls-12" d="M1144,431.33c-.57.55-.47,1.17-1.09,1.67h-30.25c-.59-.57-1-1.08-.66-1.67v-.39a.59.59,0,0,1,.66-.94h30.25c.62-.19.52.39,1.09.94Z" transform="translate(-1009.9 -336)"/><path class="cls-12" d="M1127.37,435.27c0,.49,0,.73-.53.73H1112.9c-.56,0-.9-.24-.9-.73v-.36a.9.9,0,0,1,.9-.9h13.92c.56,0,.53.44.53.9Z" transform="translate(-1009.9 -336)"/><path class="cls-12" d="M1070,419.5c.39.55.17.9-.45.5H1039.3a.81.81,0,0,1-1.3-.5v-.39a1.71,1.71,0,0,1,1.3-1.11h30.25c.62.16.84.56.45,1.11Z" transform="translate(-1009.9 -336)"/><path class="cls-12" d="M1070,423.44c.39.55.17,1-.45.56H1039.3c-.6.47-1.11,0-1.3-.56V423c.13-.54.68-.85,1.3-1h30.25c.62.2.84.51.45,1Z" transform="translate(-1009.9 -336)"/><path class="cls-12" d="M1070,427.39c.39.54.17,1.08-.45.61H1039.3c-.61.46-1.11,0-1.3-.61V427c.13-.54.68-.76,1.3-1h30.25c.62.23.84.45.45,1Z" transform="translate(-1009.9 -336)"/><path class="cls-12" d="M1061,430h8.55c.62-.19.84.39.45.94v.39c.39.55.17,1.17-.45,1.67H1039.3a3.71,3.71,0,0,1-1.3-1.67v-.39a1.12,1.12,0,0,1,1.3-.94H1061" transform="translate(-1009.9 -336)"/><path class="cls-12" d="M1055,435.27c0,.49-.28.73-.89.73h-15c-.6,0-1.14-.24-1.14-.73v-.36a1.09,1.09,0,0,1,1.14-.9h15a.86.86,0,0,1,.89.84s0,0,0,.07Z" transform="translate(-1009.9 -336)"/></svg>