<svg xmlns="http://www.w3.org/2000/svg" xmlns:xlink="http://www.w3.org/1999/xlink" viewBox="0 0 38.14 65.94"><defs><style>.cls-1{fill:url(#linear-gradient);}.cls-2{fill:#4a41bc;}.cls-3{fill:url(#linear-gradient-2);}.cls-4{fill:url(#linear-gradient-3);}.cls-5{fill:url(#linear-gradient-4);}</style><linearGradient id="linear-gradient" x1="1068" y1="524.9" x2="1007.76" y2="545.83" gradientUnits="userSpaceOnUse"><stop offset="0" stop-color="#59cfee"/><stop offset="1" stop-color="#4a41bc"/></linearGradient><linearGradient id="linear-gradient-2" x1="1074.52" y1="1600.68" x2="1069.1" y2="1588.71" gradientTransform="matrix(1, 0, 0, -1, -24.86, 2103.21)" xlink:href="#linear-gradient"/><linearGradient id="linear-gradient-3" x1="1068.1" y1="1603.07" x2="1064.74" y2="1593.93" gradientTransform="matrix(1, 0, 0, -1, -24.86, 2103.21)" xlink:href="#linear-gradient"/><linearGradient id="linear-gradient-4" x1="1082.77" y1="1601.26" x2="1079.37" y2="1592" gradientTransform="matrix(1, 0, 0, -1, -24.86, 2103.21)" xlink:href="#linear-gradient"/></defs><title>Cup</title><g id="Cup"><path class="cls-1" d="M1034.1,519.23a22.48,22.48,0,0,0-2.42-.51,5.2,5.2,0,0,0-4.83,1.4,6.88,6.88,0,0,0-1.53,3.42,11.17,11.17,0,0,0,3.43,10.51,38.32,38.32,0,0,0,6.73,5.32,2.51,2.51,0,0,1,1.27,1.9,60.93,60.93,0,0,0,2.79,8.11.9.9,0,0,0,.64.5,28.66,28.66,0,0,0,15,.13c1.14-.38,1.14-.38,1.66-1.52a81.27,81.27,0,0,0,4.2-16.34,87.6,87.6,0,0,0,1-15.33c0-.88,0-1-1-1.26a18.75,18.75,0,0,0-4.71-.76,103.58,103.58,0,0,0-12.46-.26,42.3,42.3,0,0,0-7.88.89c-.64.13-1.14.38-1.66.51-.25.12-.38.25-.38.5A19.13,19.13,0,0,1,1034.1,519.23Zm1.65,17.72h-.12c-4.23-2.22-7.07-5.48-7.39-10.54a8.64,8.64,0,0,1,.34-3.16,2.7,2.7,0,0,1,1.89-1.81,3.26,3.26,0,0,1,3.46,1.85l0,1.4a74.09,74.09,0,0,0,1.12,9.23c.12.89.39,1.89.65,3Z" transform="translate(-1025.09 -485)"/><path class="cls-2" d="M1034.33,515.94s13.46-4.11,27.72,0C1062.05,515.91,1050.19,520.69,1034.33,515.94Z" transform="translate(-1025.09 -485)"/><path class="cls-3" d="M1056.89,485a16.6,16.6,0,0,1-3.79,13.95c-1.35,1.77-2.71,3.32-4.06,5.09a20.89,20.89,0,0,0-4.06,9.3c0,.44-.27,1.11-.27,1.55h0c0-.89-.27-1.55-.27-2.44a16.94,16.94,0,0,1,3.79-11.07,48.29,48.29,0,0,1,3.52-4.21,24.42,24.42,0,0,0,5.15-10.85" transform="translate(-1025.09 -485)"/><path class="cls-4" d="M1039.28,509.58a6,6,0,0,0-.27-1.33,12.76,12.76,0,0,1,3.25-9.08,28.84,28.84,0,0,0,3.25-4.43,17.82,17.82,0,0,0,2.44-6.2c.05-.26.22-1.45.22-.69l.05.25a11.19,11.19,0,0,1,.27,1.77,13,13,0,0,1-3,8.19l-3.25,4a16.33,16.33,0,0,0-2.5,5.37,3.37,3.37,0,0,0-.08.73,2.86,2.86,0,0,1-.39,1.43Z" transform="translate(-1025.09 -485)"/><path class="cls-5" d="M1054,511.56c0-.1-.22-.95-.29-1.7a12.76,12.76,0,0,1,3.25-9.08,28.84,28.84,0,0,0,3.25-4.43,17.82,17.82,0,0,0,2.44-6.2c.06-.23.34-1.38.25-.57l0,.22a14,14,0,0,1,.27,1.68,13,13,0,0,1-3,8.19l-3.25,4a16.33,16.33,0,0,0-2.5,5.37,3.37,3.37,0,0,0-.08.73,5.35,5.35,0,0,1-.27,1.5Z" transform="translate(-1025.09 -485)"/></g></svg>