<svg id="inbox" xmlns="http://www.w3.org/2000/svg" xmlns:xlink="http://www.w3.org/1999/xlink" viewBox="0 0 210.47 244.25"><defs><style>.cls-1{fill:url(#linear-gradient);}.cls-2{opacity:0.1;}.cls-3{fill:url(#linear-gradient-2);}</style><linearGradient id="linear-gradient" x1="233.5" y1="443.18" x2="443.67" y2="443.18" gradientUnits="userSpaceOnUse"><stop offset="0" stop-color="#e5a4ed"/><stop offset="0.48" stop-color="#7a5bf5"/><stop offset="1" stop-color="#cd94ef"/></linearGradient><linearGradient id="linear-gradient-2" x1="98.5" y1="43.16" x2="136.04" y2="43.16" gradientUnits="userSpaceOnUse"><stop offset="0" stop-color="#f8b14b"/><stop offset="1" stop-color="#f71d69"/></linearGradient></defs><title>inbox</title><path class="cls-1" d="M339.46,535.53l49.92,9.63V462h54.29V387.53s-2.62-36.78-48.16-43.79c-34.83-5.35-88.66-.66-112.24-.16-10.38.22-19.39,3.54-28.33,8.38-6.23,3.37-21.44,22.27-21.44,30.9V462l104.89.87Z" transform="translate(-233.2 -300.91)"/><path class="cls-2" d="M233.5,462l91.59.76V394.67a50.7,50.7,0,0,0-7.67-27c-6.63-10.51-18.37-21.87-38.28-22.23C241.86,344.74,233.2,384,233.2,384Z" transform="translate(-233.2 -300.91)"/><polygon class="cls-2" points="109.2 160.97 156.48 180.95 156.48 160.97 109.2 160.97"/><polygon class="cls-3" points="98.5 0 136.04 0 136.04 86.32 128.65 86.32 128.06 23.35 98.5 24.35 98.5 0"/></svg>