<svg id="lamp" xmlns="http://www.w3.org/2000/svg" xmlns:xlink="http://www.w3.org/1999/xlink" viewBox="0 0 324.63 333.02"><defs><style>.cls-1{fill:#f9f9f9;}.cls-2{fill:url(#linear-gradient);}.cls-3{fill:url(#linear-gradient-2);}.cls-4{fill:url(#linear-gradient-3);}.cls-5{fill:url(#linear-gradient-4);}.cls-6{fill:url(#linear-gradient-5);}.cls-7{fill:url(#linear-gradient-6);}</style><linearGradient id="linear-gradient" x1="359.77" y1="575.8" x2="451.84" y2="575.8" gradientUnits="userSpaceOnUse"><stop offset="0" stop-color="#cd94ef"/><stop offset="1" stop-color="#7a5bf5"/></linearGradient><linearGradient id="linear-gradient-2" x1="780.72" y1="617.36" x2="883.74" y2="617.36" gradientTransform="matrix(0.88, 0.47, -0.47, 0.88, -126.73, -630.5)" xlink:href="#linear-gradient"/><linearGradient id="linear-gradient-3" x1="296.84" y1="100.9" x2="322.86" y2="114.93" xlink:href="#linear-gradient"/><linearGradient id="linear-gradient-4" x1="89.65" y1="-61.79" x2="90.07" y2="251.57" gradientTransform="translate(106.2 -8.43) rotate(26.27)" gradientUnits="userSpaceOnUse"><stop offset="0" stop-color="#fff"/><stop offset="1" stop-color="#fff" stop-opacity="0"/></linearGradient><linearGradient id="linear-gradient-5" x1="353.47" y1="289.65" x2="328.93" y2="339.55" gradientUnits="userSpaceOnUse"><stop offset="0" stop-color="#fff" stop-opacity="0"/><stop offset="1" stop-color="#fff"/></linearGradient><linearGradient id="linear-gradient-6" x1="542.04" y1="963.22" x2="514.01" y2="1020.18" gradientTransform="matrix(0.91, -0.41, 0.41, 0.91, -455.43, -118.97)" xlink:href="#linear-gradient-5"/></defs><title>lamp</title><path class="cls-1" d="M411.07,553.09,446.8,372.17l-83.68-78.92-13.27-15.42-8.59-11a3.08,3.08,0,0,0-5,.2c-7.47,11.53-19.48,30.6-19.48,30.6l25.14-10a5.65,5.65,0,0,1,5.73.92l9.35,7.85,83.61,78.31L405.81,553.09Z" transform="translate(-130.75 -265.59)"/><path class="cls-2" d="M359.77,598.62h92.07s-5-44.21-43.09-45.59C359.77,551.26,359.77,598.62,359.77,598.62Z" transform="translate(-130.75 -265.59)"/><path class="cls-3" d="M255.31,305.91,346,354.81S365.3,307.27,327.75,287C281,261.82,255.31,305.91,255.31,305.91Z" transform="translate(-130.75 -265.59)"/><circle class="cls-4" cx="309.85" cy="107.91" r="14.78"/><polygon class="cls-5" points="124.45 39.82 0 178.97 184.33 267.73 215.13 88.81 124.45 39.82"/><path class="cls-6" d="M333.06,298.8s17.62,6.61,11.55,41.22Z" transform="translate(-130.75 -265.59)"/><path class="cls-7" d="M415.36,558.23s23,5.3,31.44,37.61Z" transform="translate(-130.75 -265.59)"/></svg>