<?xml version="1.0" encoding="utf-8"?>
<!-- Generator: Adobe Illustrator 21.1.0, SVG Export Plug-In . SVG Version: 6.00 Build 0)  -->
<svg version="1.1" id="Layer_2" xmlns="http://www.w3.org/2000/svg" xmlns:xlink="http://www.w3.org/1999/xlink" x="0px" y="0px"
	 viewBox="0 0 208.5 488.2" style="enable-background:new 0 0 208.5 488.2;" xml:space="preserve">
<style type="text/css">
	.st0{fill:#FFFFFF;}
	.st1{fill:url(#SVGID_1_);}
	.st2{fill:#7A5BF5;}
	.st3{fill:url(#SVGID_2_);}
	.st4{fill:url(#SVGID_3_);}
</style>
<title>lamp</title>
<path class="st0" d="M63.9,247.6c0,0-17.8,63.9-12.9,85c4.4,19.1,13.7,29.1,19.5,31.2s71.9,0,71.9,0"/>
<path class="st0" d="M142.5,363.9c0,0,15.5-14.7,17.9-30.8c2.4-16.5,4.6-57.3-10.2-82.5c-8.7-14.8-87.9-1.7-87.9-1.7"/>
<linearGradient id="SVGID_1_" gradientUnits="userSpaceOnUse" x1="944.4446" y1="-91.4333" x2="1010.5471" y2="-91.4333" gradientTransform="matrix(1 0 0 -1 -867.86 232.98)">
	<stop  offset="0" style="stop-color:#F8C547"/>
	<stop  offset="0.51" style="stop-color:#F71D69"/>
	<stop  offset="1" style="stop-color:#F8B14B"/>
</linearGradient>
<path class="st1" d="M99.6,322.2c0,0,7.2,3.6,8.1-0.5s-7.2-32.8-4.5-35s4.9-9,15.7-3.6s23.8,35,23.8,47.1s0.5,24.2-5.8,33.2
	s-50.7,0.9-50.7,0.9s-10.8-9-9.4-26.9s5.4-25.6,7.2-27.8s4.9-4.5,8.1-0.5S99.6,322.2,99.6,322.2z"/>
<path class="st2" d="M34.1,199.6c0,0-7.2-32.9,0.8-50.5s13.5-40.9,14.9-50.8s3.6-50.8,9.9-58.8S72.5,7.2,97.6,5.8L98,0.1
	c0,0-21.3-0.9-39.6,23.1S44.1,89.7,43,97.2S30.3,139.4,27.2,146s-6.9,32.6-3,49.7s6.9,10.5,6.9,10.5L34.1,199.6"/>
<path class="st2" d="M174.5,199.6c0,0,8.7-32.9-1-50.5s-16.4-40.9-18.1-50.8s-4.3-50.8-12-58.8S128.1,7.2,97.7,5.8L98,0
	c0,0,25.1-0.8,47.2,23.2s17.4,66.5,18.7,74s15.4,42.2,19.1,48.9s8.4,32.6,3.7,49.7s-8.4,10.5-8.4,10.5L174.5,199.6"/>
<linearGradient id="SVGID_2_" gradientUnits="userSpaceOnUse" x1="867.8972" y1="-83.366" x2="975" y2="-83.366" gradientTransform="matrix(1 0 0 -1 -867.86 232.98)">
	<stop  offset="0" style="stop-color:#7A5BF5"/>
	<stop  offset="1" style="stop-color:#CD94EF"/>
</linearGradient>
<path class="st3" d="M103.5,363l-0.1,125H26.4c0,0-2.9-8.8,6.6-12.2s7.7-12.6,7.9-16.7c0.1-2.7,0.9-15.8-5.9-18.1s-17-1.1-24.8-8.7
	c-9.1-8.9-10.6-30.7-10-40.6c1-17.4,4.9-64.6,7.1-79.5c2-13.6,10.8-71.5,12-76.4c1.6-6.5,8-36.5,23-43.3s17.9-4.6,20.9-4.9
	s3.7-5.7,3.7-9.1s2.6-6,6.8-6c3.2,0,5.8-2.5,6-5.6c0-1.9-4.1-16.9,1.5-19.4c8.1-2.9,16.8-3.5,25.2-1.6l0.9,100.2
	c0,0-7.6-1.1-25.7,2.2c-11,2-18.5,3.7-23,1c-5.3-3.3-0.5-9.5,1.3-11.6c2.2-2.6,2.7-8.1,2.3-11.9s1.2-8.5-2.8-9.7
	c-3.5-1.1-5.6,1.3-8.2,6.6c-3,6.2-6.3,35.1-9.8,51.7c-3.4,15.8-10.8,69.5-14.2,99.3c-2.9,25.8-1,36.6,10,41.7c6.5,3,14.4,3,18.9,0
	s2.5-17.7,9.2-21.9s-0.3-11.5-2.2-13.4s-10.7-17.5,1.4-17.9C76.3,361.6,103.5,363,103.5,363z"/>
<linearGradient id="SVGID_3_" gradientUnits="userSpaceOnUse" x1="-887.14" y1="-83.506" x2="-775.81" y2="-83.506" gradientTransform="matrix(-0.95 0 0 -1 -637.23 232.98)">
	<stop  offset="0" style="stop-color:#7A5BF5"/>
	<stop  offset="1" style="stop-color:#CD94EF"/>
</linearGradient>
<path class="st4" d="M103.5,363.1l-0.4,125.1l80.4-0.2c0,0,2.7-8.8-6.2-12.2s-7.3-12.6-7.5-16.7c-0.1-2.7-0.8-15.8,5.6-18.1
	s16.1-1.1,23.5-8.7c8.6-8.9,10.1-30.7,9.5-40.6c-1-17.4-4.7-64.6-6.7-79.5c-1.9-13.6-10.2-71.5-11.4-76.4
	c-1.5-6.5-7.5-36.5-21.8-43.3s-16.9-4.5-19.8-4.9s-3.5-5.7-3.5-9.1s-2.5-6-6.4-6s-5.7-3.8-5.7-5.6s3.8-16.9-1.4-19.4
	c-8.2-2.9-17-3.4-25.5-1.6l0.9,100.2c0,0,7.2-1.1,24.3,2.2c10.4,2,17.5,3.7,21.8,1c5.1-3.3,0.5-9.5-1.2-11.6
	c-2-2.6-2.6-8.1-2.2-11.9s-1.1-8.5,2.7-9.7c3.3-1.1,5.3,1.3,7.7,6.6c2.8,6.2,6,35.1,9.3,51.7c3.2,15.8,10.2,69.5,13.4,99.3
	c2.8,25.8,1,36.6-9.5,41.7c-6.2,3-13.6,3-17.9,0s-2.3-17.7-8.8-21.9s0.3-11.5,2-13.4s10.1-17.5-1.3-17.9
	C136.3,361.6,103.5,363.1,103.5,363.1z"/>
</svg>
