<svg id="motorcycle" xmlns="http://www.w3.org/2000/svg" xmlns:xlink="http://www.w3.org/1999/xlink" viewBox="0 0 578.37 322.43"><defs><style>.cls-1{fill:url(#linear-gradient);}.cls-2{fill:url(#linear-gradient-2);}.cls-3{fill:url(#linear-gradient-3);}.cls-4{fill:#fff;}.cls-5{fill:url(#linear-gradient-4);}.cls-6{fill:url(#linear-gradient-5);}.cls-7{fill:url(#linear-gradient-6);}.cls-8{fill:url(#linear-gradient-7);}.cls-9{fill:url(#linear-gradient-8);}.cls-10{fill:url(#linear-gradient-9);}</style><linearGradient id="linear-gradient" x1="493.41" y1="140.74" x2="505.48" y2="140.74" gradientTransform="translate(639.73 -236.66) rotate(90)" gradientUnits="userSpaceOnUse"><stop offset="0" stop-color="#cd94ef"/><stop offset="1" stop-color="#7a5bf5"/></linearGradient><linearGradient id="linear-gradient-2" x1="152" y1="298.04" x2="529.04" y2="515.73" gradientTransform="matrix(1, 0, 0, 1, 0, 0)" xlink:href="#linear-gradient"/><linearGradient id="linear-gradient-3" x1="45.39" y1="252.44" x2="185.37" y2="252.44" gradientTransform="matrix(1, 0, 0, 1, 0, 0)" xlink:href="#linear-gradient"/><linearGradient id="linear-gradient-4" x1="438.38" y1="252.44" x2="578.37" y2="252.44" gradientTransform="matrix(1, 0, 0, 1, 0, 0)" xlink:href="#linear-gradient"/><linearGradient id="linear-gradient-5" x1="179.79" y1="329.3" x2="336.67" y2="329.3" gradientTransform="matrix(1, 0, 0, 1, 0, 0)" xlink:href="#linear-gradient"/><linearGradient id="linear-gradient-6" x1="45.71" y1="441.28" x2="270.52" y2="441.28" gradientUnits="userSpaceOnUse"><stop offset="0" stop-color="#fff"/><stop offset="1" stop-color="#fff" stop-opacity="0"/></linearGradient><linearGradient id="linear-gradient-7" x1="482.95" y1="453.04" x2="605.82" y2="453.04" xlink:href="#linear-gradient-6"/><linearGradient id="linear-gradient-8" x1="270.59" y1="321.54" x2="247.51" y2="368.45" gradientTransform="matrix(0.4, 0.92, -0.92, 0.4, 417.83, 149.37)" gradientUnits="userSpaceOnUse"><stop offset="0" stop-color="#fff" stop-opacity="0"/><stop offset="1" stop-color="#fff"/></linearGradient><linearGradient id="linear-gradient-9" x1="447.54" y1="7.08" x2="424.46" y2="54" gradientTransform="translate(346 154.4) rotate(49.08)" xlink:href="#linear-gradient-8"/></defs><title>motorcycle</title><ellipse class="cls-1" cx="498.99" cy="262.79" rx="22.13" ry="6.03" transform="translate(-63.13 257.4) rotate(-51.47)"/><path class="cls-2" d="M511.7,245.12l-68.22-.71c.72,16,5.24,38,8.29,57.34,4.08,25.88-2,34.91-1,49.13,0,0,4.51,25.67,5.1,34.76,2.31,35.78,6.55,58.84,3.88,81.82-.12,2.22-.09,5.77-2.54,8.29-4.07,4.18-13.72,8.44-36.08,8.73-44.72.6-158.88,17.54-150.25-52.25s46.57-97.58,46.57-97.58l-96.9-2s9.19,45.4-59.44,58.27S47.26,460,45.71,497.28h494s-18-109.08-55.59-151.11S511.7,245.12,511.7,245.12Z" transform="translate(-45.71 -232.04)"/><circle class="cls-3" cx="115.38" cy="252.44" r="69.99"/><circle class="cls-4" cx="115.48" cy="254.15" r="37.59"/><circle class="cls-5" cx="508.38" cy="252.44" r="69.99"/><circle class="cls-4" cx="508.48" cy="254.15" r="37.59"/><path class="cls-6" d="M179.79,342.62H336s3.87-25.52-7-26.29-116,0-116,0S190.62,317.87,179.79,342.62Z" transform="translate(-45.71 -232.04)"/><circle class="cls-4" cx="397.77" cy="12.37" r="12.37"/><path class="cls-7" d="M230.13,497.22l29.2.06s27.92-56.59-4.45-94.71c-8.92-10.5-22-16-35.8-16.84-41.49-2.48-70.53,5.56-99.13,18.7a146.73,146.73,0,0,0-58.76,50.19c-14.72,22.13-15.48,42.66-15.48,42.66h0Z" transform="translate(-45.71 -232.04)"/><path class="cls-8" d="M484.48,491.87l121.34-54.53S577,399.43,524.63,420.69a81.79,81.79,0,0,0-13.84,8.19C499.5,437.6,476.88,458.27,484.48,491.87Z" transform="translate(-45.71 -232.04)"/><path class="cls-9" d="M215.13,511.45s.89,17.67-31.23,25.39Z" transform="translate(-45.71 -232.04)"/><path class="cls-10" d="M614.74,488.32s6.15,16.59-22.17,33.59Z" transform="translate(-45.71 -232.04)"/></svg>