<?xml version="1.0" encoding="utf-8"?>
<!-- Generator: Adobe Illustrator 21.1.0, SVG Export Plug-In . SVG Version: 6.00 Build 0)  -->
<svg version="1.1" id="Layer_2" xmlns="http://www.w3.org/2000/svg" xmlns:xlink="http://www.w3.org/1999/xlink" x="0px" y="0px"
	 viewBox="0 0 227 447.5" style="enable-background:new 0 0 227 447.5;" xml:space="preserve">
<style type="text/css">
	.st0{fill:url(#SVGID_1_);}
	.st1{fill:none;stroke:url(#SVGID_2_);stroke-width:3;stroke-miterlimit:10;}
	.st2{fill:#FFFFFF;}
	.st3{fill:none;stroke:url(#SVGID_3_);stroke-width:2;stroke-miterlimit:10;}
	.st4{fill:url(#SVGID_4_);stroke:url(#SVGID_5_);stroke-miterlimit:10;}
	.st5{fill:url(#SVGID_6_);}
	.st6{fill:url(#SVGID_7_);stroke:url(#SVGID_8_);stroke-miterlimit:10;}
	.st7{fill:none;stroke:url(#SVGID_9_);stroke-width:2;stroke-miterlimit:10;}
</style>
<title>phone</title>
<linearGradient id="SVGID_1_" gradientUnits="userSpaceOnUse" x1="658.1085" y1="-345.1981" x2="1084.8285" y2="-13.188" gradientTransform="matrix(1 0 0 -1 -868 130.5)">
	<stop  offset="0" style="stop-color:#7A5BF5"/>
	<stop  offset="1" style="stop-color:#CD94EF"/>
</linearGradient>
<path class="st0" d="M223.8,434c0,7.5-6,13.5-13.5,13.5l0,0H13.5c-7.4,0-13.5-6-13.5-13.5V16.6C0,9.2,6,3.1,13.5,3.1h196.8
	c7.4,0,13.5,6,13.5,13.5L223.8,434z"/>
<linearGradient id="SVGID_2_" gradientUnits="userSpaceOnUse" x1="868.14" y1="-93.18" x2="1095" y2="-93.18" gradientTransform="matrix(1 0 0 -1 -868 130.5)">
	<stop  offset="0" style="stop-color:#7A5BF5"/>
	<stop  offset="1" style="stop-color:#805FF5"/>
</linearGradient>
<path class="st1" d="M225.5,432.4c0,7.5-6,13.5-13.5,13.5l0,0H15.1c-7.4,0-13.5-6-13.5-13.5V15c0-7.5,6-13.5,13.5-13.5H212
	c7.4,0,13.5,6,13.5,13.5L225.5,432.4z"/>
<rect x="23" y="62.4" class="st2" width="181" height="329.1"/>
<polygon class="st2" points="23.3,391.8 23.3,61.9 145,61.5 72.7,391.5 "/>
<linearGradient id="SVGID_3_" gradientUnits="userSpaceOnUse" x1="22.04" y1="223.035" x2="205.07" y2="223.035" gradientTransform="matrix(1 0 0 -1 0 450)">
	<stop  offset="0" style="stop-color:#7A5BF5"/>
	<stop  offset="1" style="stop-color:#805FF5"/>
</linearGradient>
<rect x="23" y="62.4" class="st3" width="181" height="329.1"/>
<linearGradient id="SVGID_4_" gradientUnits="userSpaceOnUse" x1="94.91" y1="410.715" x2="128.83" y2="410.715" gradientTransform="matrix(1 0 0 -1 0 450)">
	<stop  offset="0" style="stop-color:#7A5BF5"/>
	<stop  offset="1" style="stop-color:#805FF5"/>
</linearGradient>
<linearGradient id="SVGID_5_" gradientUnits="userSpaceOnUse" x1="94.41" y1="410.715" x2="129.33" y2="410.715" gradientTransform="matrix(1 0 0 -1 0 450)">
	<stop  offset="0" style="stop-color:#7A5BF5"/>
	<stop  offset="1" style="stop-color:#805FF5"/>
</linearGradient>
<path class="st4" d="M98.5,35.7h26.7c2,0,3.6,1.6,3.6,3.6v0c0,2-1.6,3.6-3.6,3.6H98.5c-2,0-3.6-1.6-3.6-3.6v0
	C94.9,37.3,96.5,35.7,98.5,35.7z"/>
<linearGradient id="SVGID_6_" gradientUnits="userSpaceOnUse" x1="108.8" y1="427.23" x2="115.13" y2="427.23" gradientTransform="matrix(1 0 0 -1 0 450)">
	<stop  offset="0" style="stop-color:#7A5BF5"/>
	<stop  offset="1" style="stop-color:#805FF5"/>
</linearGradient>
<circle class="st5" cx="112" cy="22.8" r="3.2"/>
<linearGradient id="SVGID_7_" gradientUnits="userSpaceOnUse" x1="969.6899" y1="-288.29" x2="990.7499" y2="-288.29" gradientTransform="matrix(1 0 0 -1 -868 130.5)">
	<stop  offset="0" style="stop-color:#7A5BF5"/>
	<stop  offset="1" style="stop-color:#805FF5"/>
</linearGradient>
<linearGradient id="SVGID_8_" gradientUnits="userSpaceOnUse" x1="969.1899" y1="-288.29" x2="991.2499" y2="-288.29" gradientTransform="matrix(1 0 0 -1 -868 130.5)">
	<stop  offset="0" style="stop-color:#7A5BF5"/>
	<stop  offset="1" style="stop-color:#805FF5"/>
</linearGradient>
<path class="st6" d="M112.2,408.3c5.8,0,10.5,4.7,10.5,10.5s-4.7,10.5-10.5,10.5s-10.5-4.7-10.5-10.5S106.4,408.3,112.2,408.3
	L112.2,408.3"/>
<linearGradient id="SVGID_9_" gradientUnits="userSpaceOnUse" x1="100.69" y1="31.21" x2="123.75" y2="31.21" gradientTransform="matrix(1 0 0 -1 0 450)">
	<stop  offset="0" style="stop-color:#7A5BF5"/>
	<stop  offset="1" style="stop-color:#805FF5"/>
</linearGradient>
<circle class="st7" cx="112.2" cy="418.8" r="10.5"/>
</svg>
