<svg xmlns="http://www.w3.org/2000/svg" xmlns:xlink="http://www.w3.org/1999/xlink" viewBox="0 0 159.83 193.84"><defs><style>.cls-1{fill:url(#linear-gradient);}.cls-12,.cls-2,.cls-4,.cls-6,.cls-9{fill:none;}.cls-2{stroke:#f93764;stroke-width:4px;}.cls-2,.cls-4{stroke-linecap:round;}.cls-12,.cls-2,.cls-6,.cls-9{stroke-miterlimit:10;}.cls-3{fill:#f7b14a;}.cls-4{stroke-linejoin:round;stroke:url(#linear-gradient-2);}.cls-5{fill:url(#linear-gradient-3);}.cls-6{stroke:url(#linear-gradient-4);}.cls-7{font-size:26.71px;}.cls-10,.cls-13,.cls-7{fill:#f9b449;font-family:MyriadPro-Regular, Myriad Pro;}.cls-8{fill:url(#linear-gradient-5);}.cls-9{stroke:url(#linear-gradient-6);}.cls-10{font-size:17.58px;}.cls-11{fill:url(#linear-gradient-7);}.cls-12{stroke:url(#linear-gradient-8);}.cls-13{font-size:12.58px;}</style><linearGradient id="linear-gradient" x1="1047.25" y1="585.39" x2="943.58" y2="510.06" gradientUnits="userSpaceOnUse"><stop offset="0" stop-color="#f92468"/><stop offset="1" stop-color="#f9b449"/></linearGradient><linearGradient id="linear-gradient-2" x1="989.25" y1="508.47" x2="1027.12" y2="508.47" gradientUnits="userSpaceOnUse"><stop offset="0" stop-color="#f92468"/><stop offset="1" stop-color="#f93764"/></linearGradient><linearGradient id="linear-gradient-3" x1="44.53" y1="98.87" x2="87.08" y2="35.49" xlink:href="#linear-gradient"/><linearGradient id="linear-gradient-4" x1="54.71" y1="55.57" x2="92.31" y2="55.57" xlink:href="#linear-gradient-2"/><linearGradient id="linear-gradient-5" x1="80.53" y1="43.29" x2="108.54" y2="1.56" xlink:href="#linear-gradient"/><linearGradient id="linear-gradient-6" x1="87.06" y1="14.78" x2="112.16" y2="14.78" xlink:href="#linear-gradient-2"/><linearGradient id="linear-gradient-7" x1="33.32" y1="44.93" x2="53.37" y2="15.07" xlink:href="#linear-gradient"/><linearGradient id="linear-gradient-8" x1="37.85" y1="24.53" x2="56.1" y2="24.53" xlink:href="#linear-gradient-2"/></defs><title>Pig with coins</title><g id="Layer_2" data-name="Layer 2"><path class="cls-1" d="M935,542l15-1s3-18,15-24V497s14,8,17,9,30-12,61,7c26.11,16,20.3,44.07,17.81,52.52a14.18,14.18,0,0,1-2.08,4.27c-2.16,3-6.53,9-8.73,11.21-3,3,1.91,19.7-2,21-3,1-9-12-12-11a86.29,86.29,0,0,1-50,1.56,2.42,2.42,0,0,0-2.82,1.26c-1.34,2.74-4,7.76-6.15,9.19-3,2-3-11-6-13s-36-31-36-31Z" transform="translate(-935 -409.37)"/><path class="cls-2" d="M1060.52,545.08s12.28-8.71,18.85-2.24,5.54,13.22.26,14.83c-3.94,1.2-10.08-5.4-7.43-9.64s7.28-6.51,12.6-2.95,7.71,10.7,8,14.69" transform="translate(-935 -409.37)"/><circle class="cls-3" cx="31.99" cy="133.98" r="5.57"/><path class="cls-4" d="M989.75,509.43s22.36-6,36.87.6" transform="translate(-935 -409.37)"/></g><g id="coin"><circle class="cls-5" cx="73.66" cy="55.48" r="22.36"/><circle class="cls-6" cx="73.51" cy="55.57" r="18.3"/><text class="cls-7" transform="translate(66.26 64.02)">$</text></g><g id="coin_copy" data-name="coin copy"><circle class="cls-8" cx="99.71" cy="14.72" r="14.72"/><circle class="cls-9" cx="99.61" cy="14.78" r="12.05"/><text class="cls-10" transform="translate(94.83 20.34)">$</text></g><g id="coin_copy_2" data-name="coin copy 2"><circle class="cls-11" cx="47.05" cy="24.49" r="10.53"/><circle class="cls-12" cx="46.97" cy="24.53" r="8.62"/><text class="cls-13" transform="translate(43.56 28.51)">$</text></g></svg>