<svg id="pin" xmlns="http://www.w3.org/2000/svg" xmlns:xlink="http://www.w3.org/1999/xlink" viewBox="0 0 270.26 296.58"><defs><style>.cls-1{fill:url(#linear-gradient);}.cls-2{fill:#fff;}.cls-3{fill:#efefef;}</style><linearGradient id="linear-gradient" x1="248.98" y1="457.81" x2="404.1" y2="457.81" gradientUnits="userSpaceOnUse"><stop offset="0" stop-color="#cd94ef"/><stop offset="1" stop-color="#7a5bf5"/></linearGradient></defs><title>pin</title><path class="cls-1" d="M310.51,572,255.38,442.93c-22.15-51.87,15.9-109.5,72.3-109.5h0c54.77,0,91.72,56,70.21,106.33L341.41,572A16.8,16.8,0,0,1,310.51,572Z" transform="translate(-193.95 -285.62)"/><circle class="cls-2" cx="132.67" cy="126.42" r="42.87"/><rect class="cls-3" y="159.25" width="31.73" height="10.05"/><rect class="cls-3" x="238.53" y="159.25" width="31.73" height="10.05"/><rect class="cls-3" x="396.35" y="525.62" width="31.73" height="10.05" transform="translate(302.01 -421.68) rotate(45)"/><rect class="cls-3" x="229.17" y="528.89" width="31.73" height="10.05" transform="translate(-499.71 44.02) rotate(-45)"/><rect class="cls-3" x="211.01" y="350.36" width="31.73" height="10.05" transform="matrix(0.81, 0.59, -0.59, 0.81, 58.6, -351.08)"/><rect class="cls-3" x="312.87" y="296.47" width="31.73" height="10.05" transform="translate(436.28 -312.87) rotate(90)"/><rect class="cls-3" x="405.74" y="350.36" width="31.73" height="10.05" transform="translate(770.48 166.72) rotate(150)"/></svg>