<svg id="rocket" xmlns="http://www.w3.org/2000/svg" xmlns:xlink="http://www.w3.org/1999/xlink" viewBox="0 0 391.45 467.33"><defs><style>.cls-1{fill:#f9f9f9;}.cls-2{fill:url(#linear-gradient);}.cls-3{fill:#fff;}.cls-4{fill:url(#linear-gradient-2);}.cls-5{fill:url(#linear-gradient-3);}.cls-6{fill:url(#linear-gradient-4);}.cls-7{fill:url(#linear-gradient-5);}.cls-8{fill:url(#linear-gradient-6);}.cls-9{fill:url(#linear-gradient-7);}</style><linearGradient id="linear-gradient" x1="135.37" y1="224.24" x2="260.18" y2="224.24" gradientUnits="userSpaceOnUse"><stop offset="0" stop-color="#cd94ef"/><stop offset="1" stop-color="#7a5bf5"/></linearGradient><linearGradient id="linear-gradient-2" x1="161.06" y1="225.59" x2="235.51" y2="225.59" xlink:href="#linear-gradient"/><linearGradient id="linear-gradient-3" x1="150.28" y1="520.6" x2="267.39" y2="520.6" xlink:href="#linear-gradient"/><linearGradient id="linear-gradient-4" x1="-185.66" y1="513.38" x2="-66.26" y2="513.38" gradientTransform="matrix(-0.95, 0, 0, 1, 366.02, 0)" xlink:href="#linear-gradient"/><linearGradient id="linear-gradient-5" x1="212.1" y1="394.43" x2="188.01" y2="394.43" xlink:href="#linear-gradient"/><linearGradient id="linear-gradient-6" x1="296.89" y1="216.41" x2="389.96" y2="216.41" xlink:href="#linear-gradient"/><linearGradient id="linear-gradient-7" x1="226.28" y1="129.55" x2="203.62" y2="175.6" gradientTransform="translate(346 154.4) rotate(49.08)" gradientUnits="userSpaceOnUse"><stop offset="0" stop-color="#fff" stop-opacity="0"/><stop offset="1" stop-color="#fff"/></linearGradient></defs><title>rocket</title><path class="cls-1" d="M314.8,234.1s-79.34,44.21-58.86,369.32H445.33s12.8-278.29-69.1-369.32Z" transform="translate(-150.28 -180.05)"/><polygon class="cls-1" points="146.05 422.94 146.05 443.46 139 443.46 139 459.69 122.29 459.69 122.29 467.33 278.45 467.33 278.45 458.26 260.18 458.26 260.18 445.13 252.12 445.13 252.12 422.94 146.05 422.94"/><circle class="cls-2" cx="197.77" cy="224.24" r="62.41"/><circle class="cls-3" cx="197.77" cy="225.59" r="51.72"/><circle class="cls-4" cx="198.29" cy="225.59" r="37.22"/><path class="cls-5" d="M267.39,574.5H170.72a17.15,17.15,0,0,1-13.08-6c-7-8.24-14.72-24.17,6.36-42.61,30.86-27,98.76-59.19,98.76-59.19Z" transform="translate(-150.28 -180.05)"/><path class="cls-6" d="M428.73,567.28H522a16.32,16.32,0,0,0,12.62-6c6.76-8.24,14.2-24.17-6.14-42.61-29.78-27-95.29-59.18-95.29-59.18Z" transform="translate(-150.28 -180.05)"/><rect class="cls-7" x="188.01" y="344.11" width="24.09" height="100.65" rx="8.96"/><path class="cls-8" d="M298.68,252.76h89.49a1.88,1.88,0,0,0,1.51-2.88l-41.95-69a1.75,1.75,0,0,0-3-.09l-47.54,69A1.88,1.88,0,0,0,298.68,252.76Z" transform="translate(-150.28 -180.05)"/><path class="cls-9" d="M377.62,401.53s6,16.28-21.76,33Z" transform="translate(-150.28 -180.05)"/></svg>