<?xml version="1.0" encoding="utf-8"?>
<!-- Generator: Adobe Illustrator 21.1.0, SVG Export Plug-In . SVG Version: 6.00 Build 0)  -->
<svg version="1.1" id="Table" xmlns="http://www.w3.org/2000/svg" xmlns:xlink="http://www.w3.org/1999/xlink" x="0px" y="0px"
	 viewBox="0 0 621 394.6" style="enable-background:new 0 0 621 394.6;" xml:space="preserve">
<style type="text/css">
	.st0{fill:url(#SVGID_1_);}
	.st1{fill:url(#SVGID_2_);}
	.st2{fill:url(#SVGID_3_);}
	.st3{fill:url(#SVGID_4_);}
	.st4{fill:url(#SVGID_5_);}
	.st5{fill:url(#SVGID_6_);}
</style>
<title>Table</title>
<linearGradient id="SVGID_1_" gradientUnits="userSpaceOnUse" x1="664.66" y1="-98.29" x2="1285.6896" y2="-98.29" gradientTransform="matrix(1 0 0 -1 -664.67 -89.14)">
	<stop  offset="0" style="stop-color:#58CAEA"/>
	<stop  offset="1" style="stop-color:#4C4CBF"/>
</linearGradient>
<path class="st0" d="M1.6,0.8C0.7,0.8,0,1.5,0,2.4c0,0,0,0,0,0c0,4.4,1,15.9,10.3,15.9c11,0,567.8-0.3,601.4-0.4
	c1.2,0,3.1-2.1,4.2-3.5c1.6-1.9,3.8-4.8,5.1-11.2c0.3-1.4-0.6-2.8-2-3.1c-0.2,0-0.4-0.1-0.5-0.1L1.6,0.8z"/>
<linearGradient id="SVGID_2_" gradientUnits="userSpaceOnUse" x1="706.2922" y1="-113.06" x2="1252.34" y2="-113.06" gradientTransform="matrix(1 0 0 -1 -664.67 -89.14)">
	<stop  offset="0" style="stop-color:#4B45BD"/>
	<stop  offset="1" style="stop-color:#4C4CBF"/>
</linearGradient>
<path class="st1" d="M41.7,18.2c0,0-1,12,9,12c9.7,0,498.9-1,528.4-1.1c1,0,2.1-0.4,2.9-1c1.8-1.4,4.7-4.5,5.8-10.5L41.7,18.2z"/>
<linearGradient id="SVGID_3_" gradientUnits="userSpaceOnUse" x1="489.17" y1="184.655" x2="554.17" y2="184.655" gradientTransform="matrix(1 0 0 -1 0 396)">
	<stop  offset="0" style="stop-color:#4B45BD"/>
	<stop  offset="1" style="stop-color:#4C4CBF"/>
</linearGradient>
<polyline class="st2" points="489.2,28.9 494.8,28.9 554.2,393.5 549.5,393.8 489.2,28.9 489.2,28.9 "/>
<linearGradient id="SVGID_4_" gradientUnits="userSpaceOnUse" x1="-345.1275" y1="-301.28" x2="-280.1175" y2="-301.28" gradientTransform="matrix(-1.22 0 0 -1 -248.4801 -89.14)">
	<stop  offset="0" style="stop-color:#4B45BD"/>
	<stop  offset="1" style="stop-color:#4C4CBF"/>
</linearGradient>
<polyline class="st3" points="169.4,29.7 162.5,29.7 89.8,394.2 95.5,394.6 169.4,29.7 169.4,29.7 "/>
<linearGradient id="SVGID_5_" gradientUnits="userSpaceOnUse" x1="-379.7375" y1="-287.99" x2="-314.7375" y2="-287.99" gradientTransform="matrix(-1.22 0 0 -1 -248.4801 -89.14)">
	<stop  offset="0" style="stop-color:#4B45BD"/>
	<stop  offset="1" style="stop-color:#4C4CBF"/>
</linearGradient>
<polyline class="st4" points="211.7,29.7 204.9,29.7 132.2,367.7 137.9,368 211.7,29.7 211.7,29.7 "/>
<linearGradient id="SVGID_6_" gradientUnits="userSpaceOnUse" x1="907.8707" y1="-286.455" x2="972.9052" y2="-286.455" gradientTransform="matrix(1.16 0 0 -1 -612.33 -89.14)">
	<stop  offset="0" style="stop-color:#4B45BD"/>
	<stop  offset="1" style="stop-color:#4C4CBF"/>
</linearGradient>
<polyline class="st5" points="441.3,28.2 447.8,28.2 516.8,366.1 511.4,366.4 441.3,28.2 441.3,28.2 "/>
</svg>
