<svg id="tag" xmlns="http://www.w3.org/2000/svg" xmlns:xlink="http://www.w3.org/1999/xlink" viewBox="0 0 166.49 155.81"><defs><style>.cls-1{fill:url(#linear-gradient);}.cls-2,.cls-3{fill:#fff;}.cls-2,.cls-4{stroke-miterlimit:10;}.cls-2{stroke:url(#linear-gradient-2);}.cls-4{fill:none;stroke:#7a5bf5;}</style><linearGradient id="linear-gradient" x1="255.68" y1="413.72" x2="411.71" y2="413.72" gradientUnits="userSpaceOnUse"><stop offset="0" stop-color="#cd94ef"/><stop offset="1" stop-color="#7a5bf5"/></linearGradient><linearGradient id="linear-gradient-2" x1="115.93" y1="31.27" x2="134.95" y2="31.27" xlink:href="#linear-gradient"/></defs><title>tag</title><path class="cls-1" d="M257.9,425.35l80.87-80a7.39,7.39,0,0,1,3.49-1.95l30.3-7.38a7.5,7.5,0,0,1,7.09,2l29.89,30.16a7.49,7.49,0,0,1,2,7l-7.42,31.28a7.46,7.46,0,0,1-2,3.55L323,489.42a7.48,7.48,0,0,1-10.54.06L257.92,436A7.48,7.48,0,0,1,257.9,425.35Z" transform="translate(-255.68 -335.81)"/><circle class="cls-2" cx="125.44" cy="31.27" r="9.01"/><circle class="cls-3" cx="75.52" cy="109.15" r="9.01"/><circle class="cls-3" cx="75.52" cy="50.05" r="9.01"/><rect class="cls-3" x="34.6" y="74.1" width="81.82" height="10.43"/><path class="cls-4" d="M375,372s15.48-10.74,18.09,4.91-10.91,43.2,0,73.35c15,41.36,38.56-.49,24.1-13.07-17.7-15.4-14-29.88-14-29.88" transform="translate(-255.68 -335.81)"/></svg>