<svg id="tools" xmlns="http://www.w3.org/2000/svg" xmlns:xlink="http://www.w3.org/1999/xlink" viewBox="0 0 153.65 336.22"><defs><style>.cls-1{fill:#fff;}.cls-2{fill:url(#linear-gradient);}.cls-3{fill:url(#linear-gradient-2);}.cls-4{fill:url(#linear-gradient-3);}.cls-5{fill:url(#linear-gradient-4);}.cls-6{fill:url(#linear-gradient-5);}.cls-7{fill:url(#linear-gradient-6);}.cls-8{fill:url(#linear-gradient-7);}.cls-9{fill:url(#linear-gradient-8);}.cls-10{fill:url(#linear-gradient-9);}.cls-11{fill:url(#linear-gradient-10);}.cls-12{fill:url(#linear-gradient-11);}.cls-13{fill:url(#linear-gradient-12);}.cls-14{fill:url(#linear-gradient-13);}.cls-15{opacity:0.1;}.cls-16{fill:url(#linear-gradient-14);}.cls-17{fill:url(#linear-gradient-15);}.cls-18{fill:url(#linear-gradient-16);}.cls-19{fill:url(#linear-gradient-17);}.cls-20{fill:url(#linear-gradient-18);}.cls-21{fill:#f3f3f3;}</style><linearGradient id="linear-gradient" x1="323.18" y1="357.47" x2="339.97" y2="357.47" gradientTransform="translate(29.13 -24.96) rotate(4.51)" gradientUnits="userSpaceOnUse"><stop offset="0" stop-color="#cd94ef"/><stop offset="1" stop-color="#7a5bf5"/></linearGradient><linearGradient id="linear-gradient-2" x1="371.01" y1="361.11" x2="387.81" y2="361.11" gradientTransform="matrix(0.64, 0.08, -0.05, 1, 103.85, -24.81)" xlink:href="#linear-gradient"/><linearGradient id="linear-gradient-3" x1="371.56" y1="368.02" x2="388.35" y2="368.02" gradientTransform="matrix(0.64, 0.08, -0.05, 1, 104.39, -24.83)" xlink:href="#linear-gradient"/><linearGradient id="linear-gradient-4" x1="326.83" y1="387.24" x2="343.62" y2="387.24" gradientTransform="translate(31.48 -25.16) rotate(4.51)" xlink:href="#linear-gradient"/><linearGradient id="linear-gradient-5" x1="371.95" y1="375.62" x2="388.75" y2="375.62" gradientTransform="matrix(0.64, 0.08, -0.05, 1, 104.99, -24.84)" xlink:href="#linear-gradient"/><linearGradient id="linear-gradient-6" x1="375.15" y1="391.21" x2="391.95" y2="391.21" gradientTransform="matrix(0.64, 0.08, -0.05, 1, 106.23, -24.99)" xlink:href="#linear-gradient"/><linearGradient id="linear-gradient-7" x1="375.92" y1="399.69" x2="392.71" y2="399.69" gradientTransform="matrix(0.64, 0.08, -0.05, 1, 106.9, -25.02)" xlink:href="#linear-gradient"/><linearGradient id="linear-gradient-8" x1="329.78" y1="418.74" x2="346.57" y2="418.74" gradientTransform="translate(33.97 -25.29) rotate(4.51)" xlink:href="#linear-gradient"/><linearGradient id="linear-gradient-9" x1="376.9" y1="407.25" x2="393.69" y2="407.25" gradientTransform="matrix(0.64, 0.08, -0.05, 1, 107.5, -25.06)" xlink:href="#linear-gradient"/><linearGradient id="linear-gradient-10" x1="378.4" y1="428.91" x2="395.2" y2="428.91" gradientTransform="matrix(0.64, 0.08, -0.05, 1, 109.2, -25.12)" xlink:href="#linear-gradient"/><linearGradient id="linear-gradient-11" x1="378.11" y1="435.81" x2="394.9" y2="435.81" gradientTransform="matrix(0.64, 0.08, -0.05, 1, 109.74, -25.1)" xlink:href="#linear-gradient"/><linearGradient id="linear-gradient-12" x1="378.02" y1="421.55" x2="394.82" y2="421.55" gradientTransform="matrix(0.64, 0.08, -0.05, 1, 108.62, -25.11)" xlink:href="#linear-gradient"/><linearGradient id="linear-gradient-13" x1="283.76" y1="526.6" x2="406.03" y2="526.6" gradientTransform="matrix(1, 0, 0, 1, 0, 0)" xlink:href="#linear-gradient"/><linearGradient id="linear-gradient-14" x1="0" y1="114.24" x2="48.86" y2="114.24" gradientTransform="matrix(1, 0, 0, 1, 0, 0)" xlink:href="#linear-gradient"/><linearGradient id="linear-gradient-15" x1="0" y1="40.03" x2="4.61" y2="40.03" gradientTransform="matrix(1, 0, 0, 1, 0, 0)" xlink:href="#linear-gradient"/><linearGradient id="linear-gradient-16" x1="96.9" y1="118.91" x2="130.19" y2="120.33" gradientTransform="matrix(1, 0, 0, 1, 0, 0)" xlink:href="#linear-gradient"/><linearGradient id="linear-gradient-17" x1="378.33" y1="309.67" x2="427.76" y2="309.67" gradientTransform="matrix(1, 0, 0, 1, 0, 0)" xlink:href="#linear-gradient"/><linearGradient id="linear-gradient-18" x1="386.51" y1="307.63" x2="410.13" y2="307.63" gradientTransform="matrix(0.99, 0.13, -0.13, 0.99, 56.3, -35.91)" gradientUnits="userSpaceOnUse"><stop offset="0" stop-color="#fff"/><stop offset="1" stop-color="#fff" stop-opacity="0"/></linearGradient></defs><title>tools</title><polygon class="cls-1" points="43.1 60.47 83.26 57.5 91.52 162.52 54.79 162.52 43.1 60.47"/><rect class="cls-2" x="323.25" y="356.22" width="16.65" height="2.5" transform="translate(-301.19 -250.06) rotate(-4.51)"/><rect class="cls-3" x="324.5" y="363.77" width="10.76" height="2.5" transform="translate(-301.79 -250.17) rotate(-4.51)"/><rect class="cls-4" x="325.05" y="370.67" width="10.76" height="2.5" transform="translate(-302.33 -250.11) rotate(-4.51)"/><rect class="cls-5" x="326.9" y="385.99" width="16.65" height="2.5" transform="translate(-303.52 -249.68) rotate(-4.51)"/><rect class="cls-6" x="325.51" y="378.27" width="10.76" height="2.5" transform="translate(-302.93 -250.04) rotate(-4.51)"/><rect class="cls-7" x="328.02" y="393.92" width="10.76" height="2.5" transform="translate(-304.15 -249.8) rotate(-4.51)"/><rect class="cls-8" x="328.75" y="402.4" width="10.76" height="2.5" transform="translate(-304.81 -249.72) rotate(-4.51)"/><rect class="cls-9" x="329.85" y="417.49" width="16.65" height="2.5" transform="translate(-305.99 -249.35) rotate(-4.51)"/><rect class="cls-10" x="329.6" y="409.97" width="10.76" height="2.5" transform="translate(-305.41 -249.63) rotate(-4.51)"/><rect class="cls-11" x="331.17" y="431.63" width="10.76" height="2.5" transform="translate(-307.1 -249.43) rotate(-4.51)"/><rect class="cls-12" x="331.17" y="438.51" width="10.76" height="2.5" transform="translate(-307.64 -249.41) rotate(-4.51)"/><rect class="cls-13" x="330.72" y="424.27" width="10.76" height="2.5" transform="translate(-306.53 -249.49) rotate(-4.51)"/><path class="cls-14" d="M293,439.75H396.8a9.23,9.23,0,0,1,9.05,11L374.79,606a9.21,9.21,0,0,1-9,7.41H321.34a9.22,9.22,0,0,1-9.08-7.56L283.91,450.63A9.22,9.22,0,0,1,293,439.75Z" transform="translate(-274.11 -277.24)"/><path class="cls-15" d="M365.07,613.45H325.23s31.39-7.81,37.54-49.61,37.71-106.75,43.25-115c-.16.8-.08,1.52-.24,2.32-6.21,30.92-11.79,55.59-12.58,62-2.09,17.09-10.34,40.2-17.6,87.27,0,.28-.12.68-.14,1.17C375,610.9,370.06,613.45,365.07,613.45Z" transform="translate(-274.11 -277.24)"/><polygon class="cls-16" points="0 73.42 27.23 162.52 48.86 162.52 19.77 65.96 0 73.42"/><polygon class="cls-1" points="0 43.77 0 73.42 19.77 65.96 4.61 41.57 0 43.77"/><polygon class="cls-17" points="0 43.77 4.61 41.57 0 36.3 0 43.77"/><polygon class="cls-18" points="107.17 162.52 131.91 80.23 107.17 75.65 95.03 162.52 107.17 162.52"/><polyline class="cls-1" points="107.17 75.65 110.64 60.48 133.94 64.86 131.91 80.23"/><path class="cls-19" d="M391.27,277.24s7.85,10.5-3.69,23.88-12.06,16.28-2.83,36.59l23.3,4.39s18.45-4.32,19.64-22.44C429,300.52,412.5,284.62,391.27,277.24Z" transform="translate(-274.11 -277.24)"/><path class="cls-20" d="M424.2,303.92s0,37.13-28.32,35.95" transform="translate(-274.11 -277.24)"/><path class="cls-21" d="M391.27,277.24" transform="translate(-274.11 -277.24)"/></svg>