<svg xmlns="http://www.w3.org/2000/svg" viewBox="0 0 976.03 688.74"><defs><style>.cls-1{fill:#f8f8ff;}.cls-2{fill:#fff;}.cls-3{fill:#bac6f2;}.cls-4{fill:#e9edfa;}</style></defs><title>bg10</title><g id="bg"><path class="cls-1" d="M566.56,441.76a20.66,20.66,0,0,1-1-3.64C562.07,416.6,545.62,295.61,637,255c45-20,96-53,261,8,194.74,72,322-50,352-50s98-44,178,42,20,190,20,190-38,98-26,148,26,90,22,106-6,124-72,148-44,20-198,12-234,14-266,26-80,8-166-50-106-40-150-66S436.22,599.2,530,495C566.25,454.72,567.46,444.29,566.56,441.76Z" transform="translate(-493.57 -201.75)"/><circle class="cls-2" cx="195.58" cy="162.52" r="30.08"/><circle class="cls-2" cx="228.25" cy="162.38" r="20.48"/><circle class="cls-2" cx="161.31" cy="161.96" r="16.48"/><circle class="cls-2" cx="785.59" cy="114.83" r="30.08"/><circle class="cls-2" cx="818.26" cy="114.69" r="20.48"/><circle class="cls-2" cx="751.32" cy="114.27" r="16.48"/><circle class="cls-2" cx="459.16" cy="219.68" r="30.08"/><circle class="cls-2" cx="491.82" cy="219.54" r="20.48"/><circle class="cls-2" cx="424.89" cy="219.12" r="16.48"/></g><g id="build_1" data-name="build 1"><path class="cls-3" d="M517,687s19-28,21-32,1-20,1-20h-7s6-17,23-17,22,8,24,12,1,6,1,6h-6v16l29,48h12v78S544,741,517,687Z" transform="translate(-493.57 -201.75)"/><path class="cls-2" d="M584,758h14V738s-7-11-14,0Z" transform="translate(-493.57 -201.75)"/><circle class="cls-4" cx="94.78" cy="506.75" r="8.83"/><path class="cls-4" d="M522.79,697.83a8.83,8.83,0,0,1,10.36,14.3" transform="translate(-493.57 -201.75)"/><circle class="cls-4" cx="63.21" cy="466.71" r="8.83"/><path class="cls-2" d="M542.1,701.41a9.93,9.93,0,0,1,2.35-6.23,15.69,15.69,0,0,1,11.45-5.83c9.3-.25,13.38,7.57,13.95,10.77.86,4.83.67,29.15.67,29.15l-21.77-.12L541.93,722Z" transform="translate(-493.57 -201.75)"/></g><g id="build_2" data-name="build 2"><path class="cls-4" d="M612.72,669.12,615,778s41.22,15.38,58.6,19.05,57.82,26.74,57.82,26.74l-.68-154.16-118-.79" transform="translate(-493.57 -201.75)"/><path class="cls-3" d="M611.88,669.12l118.86.5-.54-28.41H695s-4.37-17-20.76-17c-20.11,0-23.46,17.9-23.46,17.9l-39-.41Z" transform="translate(-493.57 -201.75)"/><rect class="cls-3" x="130.88" y="483.52" width="21.02" height="22.8"/><rect class="cls-3" x="168.86" y="483.2" width="21.02" height="22.8"/><rect class="cls-2" x="206.35" y="483.53" width="21.02" height="22.8"/><rect class="cls-3" x="206.67" y="526.42" width="21.02" height="22.8"/><rect class="cls-3" x="206.97" y="576.33" width="21.02" height="22.8"/><rect class="cls-3" x="168.04" y="525.77" width="21.02" height="22.8"/><rect class="cls-2" x="168.04" y="525.77" width="21.02" height="22.8"/><rect class="cls-3" x="131.04" y="526.75" width="21.02" height="22.8"/><path class="cls-3" d="M625.08,781.46l-.16-6.66,20.41.42.06,13.41S630.28,783.61,625.08,781.46Z" transform="translate(-493.57 -201.75)"/><polygon class="cls-3" points="169.17 592.26 168.87 575.28 189.56 575.71 189.1 597.92 169.17 592.26"/><circle class="cls-2" cx="179.55" cy="444.38" r="11.56"/></g><g id="build_3" data-name="build 3"><path class="cls-3" d="M730.39,745.53l1,78.27s62.28,41.44,66.22,44.4,36.51,18.75,51.32,19.74L851.6,730l-8.75-.34-42.79-53.14-15.85-.76-53.81,69.73" transform="translate(-493.57 -201.75)"/><polygon class="cls-4" points="236.82 543.78 290.69 476.11 296.64 476.33 303.44 476.73 307.19 477.12 349.28 527.96 358.03 528.29 358.03 525.26 349.61 524.92 309.29 475.64 309.55 456.58 290.02 455.57 289.27 475.08 237.49 500.01 236.82 543.78"/><rect class="cls-2" x="271.01" y="529.1" width="9.8" height="11.46"/><rect class="cls-2" x="314.22" y="529.19" width="9.8" height="11.46"/><rect class="cls-2" x="298.32" y="529.16" width="9.8" height="11.46"/><rect class="cls-2" x="285.31" y="529.07" width="9.8" height="11.46"/><rect class="cls-2" x="271.02" y="546.62" width="9.8" height="11.46"/><rect class="cls-2" x="314.23" y="546.71" width="9.8" height="11.46"/><rect class="cls-2" x="298.34" y="546.69" width="9.8" height="11.46"/><rect class="cls-2" x="285.33" y="546.6" width="9.8" height="11.46"/><rect class="cls-2" x="247.77" y="598.39" width="9.8" height="11.46"/><rect class="cls-2" x="260.5" y="585.21" width="9.8" height="11.46"/><rect class="cls-2" x="247.49" y="585.12" width="9.8" height="11.46"/><rect class="cls-2" x="260.63" y="598.5" width="9.8" height="11.46"/><rect class="cls-2" x="286.16" y="598.66" width="9.8" height="11.46"/><rect class="cls-2" x="298.88" y="585.48" width="9.8" height="11.46"/><rect class="cls-2" x="285.87" y="585.39" width="9.8" height="11.46"/><rect class="cls-2" x="299.01" y="598.77" width="9.8" height="11.46"/><rect class="cls-2" x="323.32" y="599.04" width="9.8" height="11.46"/><rect class="cls-2" x="336.04" y="585.85" width="9.8" height="11.46"/><rect class="cls-2" x="323.03" y="585.76" width="9.8" height="11.46"/><rect class="cls-2" x="336.17" y="599.15" width="9.8" height="11.46"/><rect class="cls-2" x="322.8" y="654.99" width="9.8" height="16.35"/><rect class="cls-2" x="335.53" y="641.8" width="9.8" height="11.46"/><rect class="cls-2" x="322.52" y="641.72" width="9.8" height="11.46"/><rect class="cls-2" x="296.96" y="641.48" width="9.8" height="11.46"/><polygon class="cls-2" points="306.85 668.15 297.06 661.78 297.01 655.49 306.81 655.49 306.85 668.15"/><rect class="cls-2" x="283.95" y="641.39" width="9.8" height="11.46"/><polygon class="cls-2" points="293.7 659.38 291.21 657.66 287.13 654.97 293.68 654.99 293.7 659.38"/><rect class="cls-2" x="335.66" y="655.1" width="9.8" height="16.28"/></g><g id="build_4" data-name="build 4"><polygon class="cls-3" points="408.75 423.96 427.22 423.96 426.94 414.95 408.45 414.76 408.75 423.96"/><path class="cls-4" d="M850.77,710.24,849,887.93s31.74,4.89,60.29-2.32,61.61-15,61.61-15L972,711.93l-19.22-9.44-31.18-55.2-.77-21.58H902.33l-.59,21.58-32.85,54.23Z" transform="translate(-493.57 -201.75)"/><rect class="cls-3" x="404.66" y="523.73" width="12.12" height="15.08"/><rect class="cls-3" x="421.09" y="524" width="12.93" height="14.81"/><rect class="cls-3" x="404.39" y="541.63" width="12.12" height="15.08"/><rect class="cls-3" x="420.82" y="541.9" width="12.93" height="14.81"/><rect class="cls-3" x="404.92" y="577.56" width="12.12" height="15.08"/><rect class="cls-3" x="376.36" y="577.47" width="12.12" height="15.08"/><rect class="cls-3" x="448.04" y="578.14" width="12.12" height="15.08"/><rect class="cls-3" x="448.39" y="644.57" width="12.12" height="15.08"/><rect class="cls-3" x="376.5" y="645" width="12.12" height="15.08"/><rect class="cls-3" x="421.35" y="577.82" width="12.93" height="14.81"/><rect class="cls-3" x="404.65" y="595.46" width="12.12" height="15.08"/><rect class="cls-3" x="421.08" y="595.73" width="12.93" height="14.81"/><rect class="cls-3" x="404.7" y="642.91" width="12.12" height="15.08"/><rect class="cls-3" x="421.13" y="643.18" width="12.93" height="14.81"/><rect class="cls-3" x="404.43" y="660.82" width="12.12" height="15.08"/><rect class="cls-3" x="420.86" y="661.09" width="12.93" height="14.81"/><circle class="cls-3" cx="383.09" cy="540.49" r="8.47"/><circle class="cls-3" cx="451.78" cy="542.37" r="8.47"/><polygon class="cls-3" points="357.2 508.49 375.67 508.49 375.38 499.48 356.89 499.29 357.2 508.49"/><polygon class="cls-3" points="459.93 510.18 478.4 510.18 478.11 501.17 459.63 500.98 459.93 510.18"/><circle class="cls-3" cx="418.67" cy="489.57" r="14.56"/></g><g id="build_5" data-name="build 5"><path class="cls-3" d="M964.34,712.69l1.07,76.68s2.8,82.15,3.07,81.88c6.57-6.79,108.08-13.72,119.81-14l-2.73-160-8.75-.34L1034,643.73l-15.85-.76-53.81,69.73" transform="translate(-493.57 -201.75)"/><polygon class="cls-4" points="470.77 510.94 524.64 443.27 530.59 443.5 537.39 443.9 541.14 444.28 583.23 495.12 591.98 495.46 591.98 492.43 583.56 492.09 543.24 442.8 543.5 423.74 523.97 422.73 523.22 442.25 470.81 501.12 470.77 510.94"/><rect class="cls-2" x="504.95" y="496.26" width="9.8" height="11.46"/><rect class="cls-2" x="548.17" y="496.36" width="9.8" height="11.46"/><rect class="cls-2" x="532.27" y="496.33" width="9.8" height="11.46"/><rect class="cls-2" x="519.26" y="496.24" width="9.8" height="11.46"/><rect class="cls-2" x="504.97" y="513.78" width="9.8" height="11.46"/><rect class="cls-2" x="548.18" y="513.88" width="9.8" height="11.46"/><rect class="cls-2" x="532.29" y="513.85" width="9.8" height="11.46"/><rect class="cls-2" x="519.28" y="513.76" width="9.8" height="11.46"/><rect class="cls-2" x="481.95" y="573.78" width="9.8" height="11.46"/><rect class="cls-2" x="494.67" y="560.6" width="9.8" height="11.46"/><rect class="cls-2" x="481.66" y="560.51" width="9.8" height="11.46"/><rect class="cls-2" x="494.8" y="573.89" width="9.8" height="11.46"/><rect class="cls-2" x="520.33" y="574.05" width="9.8" height="11.46"/><rect class="cls-2" x="533.06" y="560.87" width="9.8" height="11.46"/><rect class="cls-2" x="520.05" y="560.78" width="9.8" height="11.46"/><rect class="cls-2" x="533.19" y="574.16" width="9.8" height="11.46"/><rect class="cls-2" x="557.49" y="574.43" width="9.8" height="11.46"/><rect class="cls-2" x="570.22" y="561.24" width="9.8" height="11.46"/><rect class="cls-2" x="557.21" y="561.15" width="9.8" height="11.46"/><rect class="cls-2" x="570.35" y="574.54" width="9.8" height="11.46"/><rect class="cls-2" x="482.22" y="624.04" width="9.8" height="11.46"/><rect class="cls-2" x="494.94" y="610.85" width="9.8" height="11.46"/><rect class="cls-2" x="481.93" y="610.76" width="9.8" height="11.46"/><rect class="cls-2" x="495.07" y="624.14" width="9.8" height="11.46"/><rect class="cls-2" x="520.6" y="624.31" width="9.8" height="11.46"/><rect class="cls-2" x="533.33" y="611.12" width="9.8" height="11.46"/><rect class="cls-2" x="520.32" y="611.03" width="9.8" height="11.46"/><rect class="cls-2" x="533.46" y="624.41" width="9.8" height="11.46"/><rect class="cls-2" x="557.76" y="624.68" width="9.8" height="11.46"/><rect class="cls-2" x="570.49" y="611.5" width="9.8" height="11.46"/><rect class="cls-2" x="557.48" y="611.41" width="9.8" height="11.46"/><rect class="cls-2" x="570.62" y="624.79" width="9.8" height="11.46"/></g><g id="build_6" data-name="build 6"><path class="cls-4" d="M1097,676.17S1122.86,635,1124.86,631s1-20,1-20h-7s6-17,23-17,22,8,24,12,1,6,1,6h-6v16l29,48h12l3.94,184.91s-114.07-5.35-116.48-3.74c-.75.5-.69-4.73-.81-5.64-.5-3.9-4.77-145.35-2.62-175.19C1085.89,676.37,1097.08,676.16,1097,676.17Z" transform="translate(-493.57 -201.75)"/><path class="cls-2" d="M1170.38,734.48h14v-20s-7-11-14,0Z" transform="translate(-493.57 -201.75)"/><path class="cls-2" d="M1103.15,736.09h14v-20s-7-11-14,0Z" transform="translate(-493.57 -201.75)"/><path class="cls-2" d="M1103.15,787.72h14v-20s-7-11-14,0Z" transform="translate(-493.57 -201.75)"/><path class="cls-2" d="M1136.58,788.32h14v-20s-7-11-14,0Z" transform="translate(-493.57 -201.75)"/><path class="cls-2" d="M1170,788.92h14v-20s-7-11-14,0Z" transform="translate(-493.57 -201.75)"/><path class="cls-2" d="M1104,837.12h14v-20s-7-11-14,0Z" transform="translate(-493.57 -201.75)"/><path class="cls-2" d="M1137.44,837.72h14v-20s-7-11-14,0Z" transform="translate(-493.57 -201.75)"/><path class="cls-2" d="M1170.88,838.33h14v-20s-7-11-14,0Z" transform="translate(-493.57 -201.75)"/><circle class="cls-4" cx="681.16" cy="483.22" r="8.83"/><circle class="cls-4" cx="618.04" cy="481.88" r="8.83"/><circle class="cls-4" cx="650.26" cy="525.45" r="8.83"/><circle class="cls-4" cx="649.6" cy="443.19" r="8.83"/><path class="cls-2" d="M1128.49,677.89a9.93,9.93,0,0,1,2.35-6.23,15.69,15.69,0,0,1,11.45-5.83c9.3-.25,13.38,7.57,13.95,10.77.86,4.83.67,29.15.67,29.15l-28.74,0,.15-7.23Z" transform="translate(-493.57 -201.75)"/></g><g id="build_7" data-name="build 7"><path class="cls-3" d="M1202.36,710.91l3,150.19s32.92.34,53.07,2.85c17.63,2.2,60,.17,60,.17l2-152.7-118-.79" transform="translate(-493.57 -201.75)"/><path class="cls-3" d="M1201.52,710.91l118.86.5-.54-28.41h-35.21s-4.37-17-20.76-17c-20.11,0-23.46,17.9-23.46,17.9l-39-.41Z" transform="translate(-493.57 -201.75)"/><rect class="cls-2" x="720.52" y="525.31" width="21.02" height="22.8"/><rect class="cls-2" x="758.5" y="524.98" width="21.02" height="22.8"/><rect class="cls-2" x="795.99" y="525.31" width="21.02" height="22.8"/><rect class="cls-2" x="796.31" y="568.2" width="21.02" height="22.8"/><rect class="cls-2" x="796.61" y="618.12" width="21.02" height="22.8"/><rect class="cls-2" x="758.53" y="617.2" width="21.02" height="22.8"/><rect class="cls-2" x="720.53" y="616.73" width="21.02" height="22.8"/><rect class="cls-2" x="757.68" y="567.55" width="21.02" height="22.8"/><rect class="cls-2" x="757.68" y="567.55" width="21.02" height="22.8"/><rect class="cls-2" x="720.68" y="568.53" width="21.02" height="22.8"/><circle class="cls-2" cx="769.19" cy="486.16" r="11.56"/></g><g id="build_8" data-name="build 8"><polygon class="cls-2" points="877.88 380.45 896.35 380.45 896.06 371.45 877.57 371.25 877.88 380.45"/><path class="cls-4" d="M1319.9,666.74l-2.21,197.61s39.54-10,64.58-22.44c23.73-11.77,35-37.68,37.7-42.74a11.59,11.59,0,0,0,.72-1.69l13.72-40.78a20.44,20.44,0,0,0,.85-3.44l6.26-40.24,3-18.42a11,11,0,0,0,0-3.44l-3.31-21.91a1.55,1.55,0,0,0-.85-1.15l-18.54-9.1-31.18-55.2-.77-21.58h-18.47l-.59,21.58L1338,658Z" transform="translate(-493.57 -201.75)"/><rect class="cls-2" x="873.79" y="480.23" width="12.12" height="15.08"/><rect class="cls-2" x="890.21" y="480.49" width="12.93" height="14.81"/><rect class="cls-2" x="873.52" y="498.13" width="12.12" height="15.08"/><rect class="cls-2" x="889.94" y="498.4" width="12.93" height="14.81"/><rect class="cls-2" x="874.05" y="534.05" width="12.12" height="15.08"/><rect class="cls-2" x="845.49" y="533.97" width="12.12" height="15.08"/><rect class="cls-2" x="917.17" y="534.64" width="12.12" height="15.08"/><polygon class="cls-2" points="921.07 607.92 917.43 613.16 917.89 599.94 925.25 599.64 921.07 607.92"/><rect class="cls-2" x="845.63" y="601.5" width="12.12" height="15.08"/><rect class="cls-2" x="890.47" y="534.32" width="12.93" height="14.81"/><rect class="cls-2" x="873.78" y="551.96" width="12.12" height="15.08"/><rect class="cls-2" x="890.2" y="552.23" width="12.93" height="14.81"/><rect class="cls-2" x="873.83" y="599.41" width="12.12" height="15.08"/><rect class="cls-2" x="890.25" y="599.68" width="12.93" height="14.81"/><rect class="cls-2" x="873.56" y="617.32" width="12.12" height="15.08"/><polygon class="cls-2" points="901.89 631.35 900.52 632.4 889.98 632.4 889.98 617.59 902.91 617.59 902.91 630.37 901.89 631.35"/><circle class="cls-2" cx="852.22" cy="496.98" r="8.47"/><circle class="cls-2" cx="920.91" cy="498.87" r="8.47"/><polygon class="cls-2" points="826.32 464.99 844.79 464.99 844.51 455.98 826.02 455.79 826.32 464.99"/><polygon class="cls-2" points="929.06 466.68 947.53 466.68 946.33 461.03 945.55 457.65 928.75 457.48 929.06 466.68"/><circle class="cls-2" cx="887.79" cy="446.07" r="14.56"/></g></svg>