<svg xmlns="http://www.w3.org/2000/svg" viewBox="0 0 1088.7 607.18"><defs><style>.cls-1{fill:#f8f8ff;}.cls-2{fill:#f5f5fc;}.cls-3{fill:#bac6f2;}.cls-4{fill:#fff;}.cls-5,.cls-6{fill:none;stroke:#fff;stroke-width:3px;}.cls-5{stroke-linecap:round;stroke-linejoin:round;}.cls-6{stroke-miterlimit:10;}</style></defs><title>bg11</title><g id="bg"><path class="cls-1" d="M454,493c-12.35-57.36,13.64-121.91,68-144,42.81-17.4,108.31-23.17,196-2,232,56,212-8,302-58,79.22-44,176-98,344,4,127.4,77.35,52,198,138,272,55.31,47.59-38,278-306,228s-328.71,20.15-450,46C624,865,372.08,710.32,440,639,480,597,461.77,529.06,454,493Z" transform="translate(-428.57 -234.73)"/><path class="cls-2" d="M523.43,507c-10.62-49.31,11.72-104.79,58.45-123.78,36.8-15,93.1-19.91,168.48-1.72,199.42,48.14,182.23-6.88,259.59-49.86,68.09-37.83,151.28-84.24,295.69,3.44,109.51,66.49,44.7,170.19,118.62,233.8,47.54,40.91-32.66,239-263,196s-282.55,17.32-386.81,39.54C669.56,826.76,453,693.8,511.4,632.5,545.78,596.39,530.1,538,523.43,507Z" transform="translate(-428.57 -234.73)"/><path class="cls-3" d="M601.29,510.1c-9.09-42.22,10-89.73,50.05-106,31.51-12.81,79.72-17.05,144.27-1.47,170.76,41.22,156-5.89,222.29-42.69,58.31-32.39,129.54-72.13,253.2,2.94,93.77,56.93,38.27,145.74,101.57,200.2,40.71,35-28,204.62-225.23,167.82s-241.94,14.83-331.22,33.86C726.42,783.91,541,670.05,591,617.56,620.43,586.65,607,536.64,601.29,510.1Z" transform="translate(-428.57 -234.73)"/></g><g id="Elippses"><circle class="cls-4" cx="204.43" cy="300.27" r="8"/><circle class="cls-4" cx="266.93" cy="251.77" r="4.5"/><circle class="cls-4" cx="282.43" cy="373.27" r="5"/><circle class="cls-4" cx="239.93" cy="442.77" r="5.5"/><circle class="cls-4" cx="366.93" cy="465.77" r="5.5"/><circle class="cls-4" cx="604.43" cy="463.27" r="6"/><circle class="cls-4" cx="702.93" cy="334.77" r="5.5"/><circle class="cls-4" cx="778.43" cy="260.27" r="4"/><circle class="cls-4" cx="839.93" cy="276.77" r="5.5"/><circle class="cls-4" cx="885.43" cy="207.27" r="5"/><circle class="cls-4" cx="876.43" cy="410.27" r="5"/><circle class="cls-4" cx="793.93" cy="471.77" r="5.5"/><circle class="cls-4" cx="494.43" cy="397.27" r="9"/><circle class="cls-4" cx="538.43" cy="299.27" r="9"/><circle class="cls-4" cx="653.43" cy="256.27" r="9"/><circle class="cls-4" cx="652.93" cy="391.77" r="9.5"/><circle class="cls-4" cx="750.93" cy="378.77" r="9.5"/><circle class="cls-4" cx="457.43" cy="338.27" r="9"/><circle class="cls-4" cx="515.43" cy="418.27" r="9"/><circle class="cls-4" cx="580.43" cy="349.27" r="9"/><circle class="cls-4" cx="347.93" cy="373.77" r="8.5"/><circle class="cls-4" cx="433.94" cy="264.74" r="8.5"/><polyline class="cls-5" points="171.8 439.66 204.43 300.27 344.43 374.27 456.43 338.27 494.43 397.27 515.43 421.27 580.43 348.27 652.43 393.27 749.43 378.27"/><polyline class="cls-6" points="460.3 338.31 537.21 298.22 653.43 256.27"/><circle class="cls-4" cx="352.93" cy="202.77" r="4.5"/><circle class="cls-4" cx="679.43" cy="124.27" r="4"/><circle class="cls-4" cx="440.93" cy="222.77" r="4.5"/><circle class="cls-4" cx="582.43" cy="194.27" r="4"/><circle class="cls-4" cx="345.93" cy="296.77" r="3.5"/><circle class="cls-4" cx="742.43" cy="156.27" r="6"/><circle class="cls-4" cx="628.43" cy="211.27" r="4"/><circle class="cls-4" cx="224.43" cy="193.27" r="5"/><circle class="cls-4" cx="820.43" cy="338.27" r="5"/><polyline class="cls-6" points="876.43 410.27 820.43 338.27 839.43 276.27 778.43 260.27"/><line class="cls-5" x1="433.94" y1="264.74" x2="456.43" y2="338.27"/></g></svg>