<svg id="Layer_2" data-name="Layer 2" xmlns="http://www.w3.org/2000/svg" viewBox="0 0 900.07 580.1"><defs><style>.cls-1{fill:#f8f8ff;}.cls-2{fill:#fff;}.cls-3{fill:none;stroke:#bac6f2;stroke-linecap:round;stroke-linejoin:round;stroke-width:5px;}</style></defs><title>bg12</title><path class="cls-1" d="M548,513S380,309,568,257,822,417,950,423s278-80,318-80,112,4,108,74-56,134-58,168,46,126,54,148,18,84-26,88c-22.52,2-151,27-325-24-131.67-38.59-337.76,28-385.81,28a74.9,74.9,0,0,1-43.45-13.76C556.44,786.13,500.27,723.06,550,593,576,525,548,513,548,513Z" transform="translate(-478.92 -248.8)"/><circle class="cls-2" cx="237.08" cy="246.2" r="51"/><circle class="cls-2" cx="175.08" cy="255.2" r="34"/><circle class="cls-2" cx="291.08" cy="256.2" r="33"/><circle class="cls-2" cx="702.08" cy="402.2" r="51"/><circle class="cls-2" cx="639.08" cy="407.2" r="34"/><circle class="cls-2" cx="758.08" cy="411.2" r="33"/><circle class="cls-2" cx="152.08" cy="470.2" r="34"/><circle class="cls-2" cx="192.08" cy="476.2" r="24"/><path class="cls-3" d="M712,643s23-29,47,3c0,0,23-34,37-5" transform="translate(-478.92 -248.8)"/><path class="cls-3" d="M656,616.85S672.52,596,689.75,619c0,0,16.52-24.42,26.57-3.59" transform="translate(-478.92 -248.8)"/><path class="cls-3" d="M1189,455.85s16.52-20.83,33.75,2.15c0,0,16.52-24.42,26.57-3.59" transform="translate(-478.92 -248.8)"/><path class="cls-3" d="M549,353.85S565.52,333,582.75,356c0,0,16.52-24.42,26.57-3.59" transform="translate(-478.92 -248.8)"/></svg>