<svg id="Layer_2" data-name="Layer 2" xmlns="http://www.w3.org/2000/svg" xmlns:xlink="http://www.w3.org/1999/xlink" viewBox="0 0 1073.42 635.14"><defs><style>.cls-1{fill:#f8f8ff;}.cls-2{stroke:#bac6f2;stroke-miterlimit:10;stroke-width:5px;fill:url(#linear-gradient);}.cls-3{fill:#bac6f2;}.cls-4{fill:#fff;}</style><linearGradient id="linear-gradient" x1="1044.23" y1="750.87" x2="1043.7" y2="298.75" gradientUnits="userSpaceOnUse"><stop offset="0" stop-color="#fff"/><stop offset="1" stop-color="#bac6f2"/></linearGradient></defs><title>bg14</title><path class="cls-1" d="M571.14,720.34c-32.52-30-54-73.38-47.67-117.18,13.06-90-45.88-204.36,49.31-237.93,48.12-17,40.17-142,78.84-176.8,66.69-60,173.5,16.13,384.66,4.78C1243,182.09,1334.39,73.8,1475.88,231.43c110.35,122.94,26.91,190.23,105,303.27,47.79,69.21-94.76,216.14-94.76,216.14l-882.33-.38Z" transform="translate(-517.22 -146.62)"/><path class="cls-2" d="M579,770s9-126,79.5-113.5c70.08,12.42,62,76,98,68s38.93-93.79,53-196c12.21-88.69,60.82-61.53,69.88-32.93C887,519.55,890,595,919,600s39-52,41-80,12-142,48.5-143.5C1043,375.08,1058,426,1058,523s4,160,20,186,37,19,43.5,15.5c8.09-4.36,32.5-45.5,38.5-147.5s46-87,55-72,33.5,97.5,63.5,95.5S1317,579,1322,533s12.41-159.9,50.5-158.5c39.46,1.45,55.32,181.62,54.65,235.78-.85,68.33,50.35,149.22,82.35,149.22" transform="translate(-517.22 -146.62)"/><circle class="cls-3" cx="236.78" cy="577.38" r="13"/><circle class="cls-3" cx="60.81" cy="622.14" r="13"/><circle class="cls-3" cx="409.78" cy="451.38" r="13"/><circle class="cls-3" cx="329.84" cy="322.48" r="13"/><circle class="cls-3" cx="495.97" cy="231.25" r="13"/><circle class="cls-3" cx="680.78" cy="350.38" r="13"/><circle class="cls-3" cx="769.58" cy="453.6" r="13"/><circle class="cls-3" cx="852.97" cy="229.84" r="13"/><circle class="cls-3" cx="991.88" cy="613.96" r="13"/><circle class="cls-3" cx="589.78" cy="578.38" r="13"/><circle class="cls-4" cx="208.58" cy="180.81" r="47.87"/><circle class="cls-4" cx="256.4" cy="184.3" r="34.58"/><circle class="cls-4" cx="777.34" cy="114.65" r="47.87"/><circle class="cls-4" cx="825.16" cy="118.14" r="34.58"/><path class="cls-3" d="M1456.23,481.77l23.77-34c2.61-4.59,9.86-4.19,13.39-.26l23.37,32c4.82,5.36,2.27,15.35-4.93,15.47l-47.26.79A9.42,9.42,0,0,1,1456.23,481.77Z" transform="translate(-517.22 -146.62)"/><path class="cls-3" d="M608.19,505.44l-23.81,33.93c-2.62,4.59-9.87,4.18-13.39.25l-23.33-32.06c-4.81-5.37-2.25-15.36,5-15.47l47.26-.73A9.42,9.42,0,0,1,608.19,505.44Z" transform="translate(-517.22 -146.62)"/></svg>