<svg id="Background_16" data-name="Background 16" xmlns="http://www.w3.org/2000/svg" viewBox="0 0 1052.71 1282.48"><defs><style>.cls-1{fill:#f5f5fc;}.cls-2{fill:#bac5f4;}.cls-3{fill:#b0c0f4;}.cls-4{fill:#e1e6fb;}.cls-5{fill:#fff;}.cls-6{fill:none;stroke:#fff;stroke-linecap:round;stroke-linejoin:round;stroke-width:3px;}</style></defs><title>bg16</title><g id="Bg"><path class="cls-1" d="M111.55,644.1s18.84-394.36,330.74-340.58,319-162.84,480.57-170.29c155.48-7.17,419.45,713.89,58.42,1071.93-309.07,306.53-586.1,249.16-735,14.34S111.55,644.1,111.55,644.1Z" transform="translate(-109.78 -133.18)"/></g><g id="Furniture"><g id="Layer_4" data-name="Layer 4"><polygon class="cls-2" points="282.08 607.7 282.08 651.28 271.14 651.28 258.69 607.7 230.31 607.7 230.31 458.41 509.73 459.97 509.73 608.12 480.73 608.12 469.45 651.28 458.56 651.28 459.73 607.73 282.08 607.7"/><rect class="cls-3" x="245.87" y="473.02" width="246.41" height="57.17"/><rect class="cls-4" x="253.41" y="478.67" width="12.65" height="45.52"/><rect class="cls-4" x="272.58" y="478.67" width="12.65" height="45.52"/><rect class="cls-4" x="412.69" y="610.4" width="12.65" height="45.52" transform="translate(-435.76 353.53) rotate(-45.38)"/><rect class="cls-4" x="335.1" y="495.69" width="50.89" height="9.13"/><rect class="cls-4" x="335.1" y="509.24" width="50.89" height="14.95"/><rect class="cls-3" x="245.87" y="538.15" width="246.41" height="57.17"/><rect class="cls-4" x="298.56" y="543.97" width="7.84" height="45.52"/><rect class="cls-4" x="287.12" y="557.72" width="7.84" height="31.78"/><rect class="cls-4" x="309.23" y="543.97" width="12.65" height="45.52"/><rect class="cls-4" x="504.72" y="696.83" width="45.52" height="12.65" transform="translate(-452.88 691.44) rotate(-61.07)"/><rect class="cls-4" x="435.95" y="560.82" width="50.89" height="9.13"/><rect class="cls-4" x="435.95" y="574.37" width="50.89" height="14.95"/><rect class="cls-5" x="377.71" y="430.68" width="50.89" height="9.13"/><rect class="cls-5" x="377.71" y="444.23" width="50.89" height="14.95"/></g><polygon class="cls-2" points="527.75 651.28 821.06 651.28 821.06 227.88 523.85 227.88 527.75 651.28"/><rect class="cls-3" x="543.58" y="247.49" width="255.93" height="122.81"/><rect class="cls-3" x="544.49" y="515.83" width="255.93" height="122.81"/><rect class="cls-3" x="544.49" y="382.81" width="255.93" height="122.81"/><rect class="cls-2" x="550.54" y="388.17" width="242.53" height="110.3"/><rect class="cls-4" x="557.67" y="262.23" width="24.08" height="103.26"/><rect class="cls-4" x="589.44" y="262.23" width="24.08" height="103.26"/><rect class="cls-4" x="594.84" y="530.91" width="24.08" height="103.26"/><rect class="cls-4" x="779.92" y="706.42" width="17.71" height="103.26" transform="translate(-85.72 1407.19) rotate(-89.51)"/><rect class="cls-4" x="820.61" y="704.93" width="110.94" height="17.71" transform="translate(-237.72 1099.21) rotate(-66.49)"/><rect class="cls-4" x="782.39" y="688.66" width="12.71" height="103.26" transform="matrix(0.01, -1, 1, 0.01, -67.98, 1389.56)"/><circle class="cls-3" cx="606.88" cy="623.57" r="5.41"/><circle class="cls-3" cx="637.54" cy="625.16" r="4.12"/><circle class="cls-3" cx="747.54" cy="623.57" r="4.12"/><rect class="cls-4" x="835.4" y="432.66" width="24.08" height="103.26" transform="translate(241.02 1191.37) rotate(-89.16)"/><rect class="cls-4" x="840.47" y="411.14" width="13.78" height="103.26" transform="translate(262.46 1170.09) rotate(-89.16)"/><circle class="cls-3" cx="601.48" cy="348.72" r="5.41"/><circle class="cls-3" cx="776.04" cy="352.11" r="5.41"/><circle class="cls-3" cx="776.04" cy="330.56" r="3.38"/><circle class="cls-3" cx="569.71" cy="348.72" r="5.41"/><rect class="cls-3" x="665.56" y="387.17" width="5.99" height="113.36"/><circle class="cls-3" cx="648.28" cy="447.8" r="4.48"/><circle class="cls-3" cx="684.86" cy="447.8" r="4.48"/></g><g id="Chair"><polygon class="cls-5" points="726.4 1050.85 751.4 951.85 726.4 951.85 718.4 1050.85 726.4 1050.85"/><polygon class="cls-5" points="868.4 949.85 896.4 943.85 900.4 1032.85 891.4 1032.85 868.4 949.85"/><path class="cls-2" d="M834.18,1003s-46,10-45,41,21,42,87,44,126-4,148-19,28-60,26-75-17-93,0-137,24-72,22-76-13-32-48-3-83,82-90,144c-1.8,15.93-30.89,5-50,5s-42-3-56,19C813.26,969.46,817.18,993,834.18,1003Z" transform="translate(-109.78 -133.18)"/><path class="cls-3" d="M807.18,1014s124.83,38.36,183,18c61.13-21.42,56.13,2.09,59.52-16.64,1.82-10.06,1.22-27.12-1.07-31.83-1.65-3.38-26.29,6-49.42,14.41-42.91,15.68-126,9.07-147-5.93s-27.3-38.74-27.3-38.74-16,26.35,5.23,45.45c6.08,5.48-5.65,6.79-13.09,9.61S807.18,1014,807.18,1014Z" transform="translate(-109.78 -133.18)"/></g><g id="Flower"><polygon class="cls-4" points="110.83 1049.25 141.76 1142.03 186.26 1142.03 211.91 1049.25 155.34 1029.63 110.83 1049.25"/><path class="cls-2" d="M248.4,1106.61S132,1120.47,109.78,1236c0,0,193.14-32.34,173.73-82.25S248.4,1106.61,248.4,1106.61Z" transform="translate(-109.78 -133.18)"/><path class="cls-2" d="M299.31,1132.6s-14.53-132.19-130.17-156.79c0,0,33.46,219.22,83.25,196.92S299.31,1132.6,299.31,1132.6Z" transform="translate(-109.78 -133.18)"/><path class="cls-2" d="M254.57,1112.55s33.3-89,106.61-81.19c23.7,2.52,10.58,49,10.58,49L349.83,1057s-25.58,104.17-50.49,101.43S254.57,1112.55,254.57,1112.55Z" transform="translate(-109.78 -133.18)"/><path class="cls-2" d="M267.91,1174.33s98.2,39.65,82.49,113.5c0,0,52.11-52.07,1.7-125s-67.22-27.39-67.22-27.39Z" transform="translate(-109.78 -133.18)"/><path class="cls-2" d="M307.19,1098.5s99-17,113.91-3.8-11,70.61-29.07,79.63c0,0,7.07-22.41,7.07-36.55s-51.84,29.07-57.34,29.07-42.42-50.28-42.42-50.28Z" transform="translate(-109.78 -133.18)"/><path class="cls-6" d="M262.78,1146.3S312,1068.45,334,1048.41c12.47-11.36,25.67-1.17,34,9.83" transform="translate(-109.78 -133.18)"/><path class="cls-6" d="M262.78,1146.3s104.13-39.74,133.82-41.7c16.83-1.11,20.75,14.14,8.77,45.9" transform="translate(-109.78 -133.18)"/><path class="cls-6" d="M262.78,1146.3s47.29,15.7,71.37,33.19c8.73,6.35,27.85,26.29,26.5,62.77" transform="translate(-109.78 -133.18)"/><path class="cls-6" d="M189.57,1000.92s10.22,27.84,32.5,47.56c12.63,11.18,33.34,59.47,40.71,97.82" transform="translate(-109.78 -133.18)"/><path class="cls-6" d="M140.4,1213.15s17.62-25.54,42.49-41.87c23.8-15.63,43-28.06,79.89-25" transform="translate(-109.78 -133.18)"/></g></svg>