<svg id="Background_17" data-name="Background 17" xmlns="http://www.w3.org/2000/svg" viewBox="0 0 1130.06 1321.23"><defs><style>.cls-1{fill:#f5f5fc;}.cls-2,.cls-3{fill:#eaedfb;}.cls-2{opacity:0.32;}.cls-4{fill:#e1e6fb;}.cls-5{fill:#bac5f4;}.cls-6{fill:#b0c0f4;}.cls-7{fill:#a0b5ef;}.cls-8{fill:#fff;}.cls-9{fill:none;stroke:#fff;stroke-miterlimit:10;stroke-width:6px;}</style></defs><title>bg17</title><g id="Bg"><path class="cls-1" d="M412.74,305.54S29.63,510.66,218.18,877.1c135.16,262.67,218.24,430.05,442.51,470.17,203.85,36.46,458.17,29.69,549-188.39s58.63-192.61,11.41-382.56S1327.92,387.65,1135.89,307C893.69,205.26,972.74,23.74,685.69,44.45,511.05,57.05,412.74,305.54,412.74,305.54Z" transform="translate(-165.63 -42.82)"/></g><g id="Mountains"><path class="cls-2" d="M286.13,775.56s-114-269.36,91-436.94S547,411.39,609.5,402.79s53.8-36.68,115.31-80.69c36.17-25.89,94.17-7,111.08,57.52S900,442,938,381.77s79.94-94.61,118.54-53.76,57.49,111.81,79.35,107.51-33.73-97.41-10-110.23c18.36-9.93,82.81,1.1,100.48,74,17.06,70.4-59.63,188-55.37,262.63s12.39,52.87,25.5,97h0Z" transform="translate(-165.63 -42.82)"/><path class="cls-3" d="M203.51,849.88S74.33,563.17,306.69,384.8,499.21,462.25,570,453.1s61-39,130.68-85.89c41-27.56,106.73-7.44,125.89,61.22s72.68,66.38,115.73,2.29,90.6-100.7,134.34-57.22,65.17,119,89.94,114.44,20.81-100.71,30.8-100.71,41.69-22.07,37.48,54.93-33.34,207.28-28.52,286.74,14.05,56.27,28.9,103.23h0Z" transform="translate(-165.63 -42.82)"/><path class="cls-4" d="M203.51,849.88S234,688.65,382,688.65,570,849.88,570,849.88Z" transform="translate(-165.63 -42.82)"/><path class="cls-4" d="M471.41,847.19s30.51-263.06,178.46-263.06,188,263.06,188,263.06Z" transform="translate(-165.63 -42.82)"/><path class="cls-4" d="M826.58,832.13S857.09,611.87,1005,611.87s188,220.26,188,220.26Z" transform="translate(-165.63 -42.82)"/><path class="cls-5" d="M675.22,832.13s30.51-226.75,178.45-226.75,188.05,226.75,188.05,226.75Z" transform="translate(-165.63 -42.82)"/><path class="cls-3" d="M488.37,201.53s34.81,27.61,71.49,3.6,72,2.19,75.08-35.77c1.27-15.52-23.15-36.37-66.89-27s-39.32-17.94-82.3-11.09c-36.68,5.84-66.09,18-58.48,49.88S488.37,201.53,488.37,201.53Z" transform="translate(-165.63 -42.82)"/><path class="cls-3" d="M880.84,274.05s23.26,22.69,51.75,8,52.19,7,57.31-20.41c2.09-11.2-14.13-28.2-46.65-24.64S916,221,884.19,222.74c-27.13,1.51-49.44,8.18-46.28,31.92S880.84,274.05,880.84,274.05Z" transform="translate(-165.63 -42.82)"/></g><g id="House"><polygon class="cls-4" points="354.06 754.28 540.06 521.28 750.06 744.28 354.06 754.28"/><polygon class="cls-5" points="402.56 753.78 402.56 919.78 721.56 923.78 721.56 744.78 389.56 744.78 389.56 752.78 402.56 753.78"/><polygon class="cls-6" points="812.06 814.28 812.06 905.28 721.56 905.28 721.06 744.28 750.06 744.28 812.06 814.28"/><rect class="cls-7" x="475.06" y="774.28" width="21" height="55"/><rect class="cls-7" x="499.06" y="774.28" width="21" height="55"/><rect class="cls-7" x="558.06" y="774.28" width="21" height="55"/><rect class="cls-7" x="623.06" y="774.28" width="21" height="55"/><rect class="cls-7" x="582.06" y="777.28" width="38" height="49"/><rect class="cls-4" x="584.06" y="780.28" width="33" height="43"/><rect class="cls-7" x="600.06" y="780.28" width="1" height="44"/><polygon class="cls-6" points="354.06 754.28 540.06 521.28 812.06 814.28 819.06 807.28 540.06 507.28 349.06 750.28 354.06 754.28"/><polygon class="cls-4" points="540.06 507.28 649.06 588.28 863.06 808.28 819.06 808.28 540.06 507.28"/><polygon class="cls-6" points="812.06 814.28 859.06 814.28 863.06 808.28 819.06 808.28 812.06 814.28"/><g id="Layer_6" data-name="Layer 6"><rect class="cls-7" x="565.12" y="889.27" width="9.77" height="72.92" rx="4.89" transform="translate(-154.08 -49.83) rotate(0.71)"/><rect class="cls-7" x="581.82" y="889.48" width="9.77" height="72.92" rx="4.89" transform="translate(-154.08 -50.04) rotate(0.71)"/><rect class="cls-7" x="599.71" y="889.7" width="9.77" height="72.92" rx="4.89" transform="translate(-154.07 -50.26) rotate(0.71)"/><rect class="cls-7" x="617.6" y="889.92" width="9.77" height="72.92" rx="4.89" transform="translate(-154.07 -50.48) rotate(0.71)"/><rect class="cls-7" x="635.2" y="890.14" width="9.77" height="72.92" rx="4.89" transform="translate(-154.06 -50.7) rotate(0.71)"/><rect class="cls-7" x="653.46" y="890.37" width="9.77" height="72.92" rx="4.89" transform="translate(-154.06 -50.93) rotate(0.71)"/><rect class="cls-7" x="670.15" y="890.58" width="9.77" height="72.92" rx="4.89" transform="translate(-154.06 -51.14) rotate(0.71)"/><rect class="cls-7" x="688.04" y="890.8" width="9.77" height="72.92" rx="4.89" transform="translate(-154.05 -51.36) rotate(0.71)"/><rect class="cls-7" x="705.93" y="891.02" width="9.77" height="72.92" rx="4.89" transform="translate(-154.05 -51.58) rotate(0.71)"/><rect class="cls-7" x="723.53" y="891.24" width="9.77" height="72.92" rx="4.89" transform="translate(-154.04 -51.8) rotate(0.71)"/><rect class="cls-7" x="742.47" y="891.48" width="9.77" height="72.92" rx="4.89" transform="translate(-154.04 -52.03) rotate(0.71)"/><rect class="cls-7" x="759.17" y="891.68" width="9.77" height="72.92" rx="4.89" transform="translate(-154.04 -52.24) rotate(0.71)"/><rect class="cls-7" x="777.06" y="891.91" width="9.77" height="72.92" rx="4.89" transform="translate(-154.03 -52.46) rotate(0.71)"/><rect class="cls-7" x="794.94" y="892.13" width="9.77" height="72.92" rx="4.89" transform="translate(-154.03 -52.69) rotate(0.71)"/><rect class="cls-7" x="812.55" y="892.35" width="9.77" height="72.92" rx="4.89" transform="translate(-154.02 -52.9) rotate(0.71)"/><rect class="cls-7" x="830.8" y="892.57" width="9.77" height="72.92" rx="4.89" transform="translate(-154.02 -53.13) rotate(0.71)"/><rect class="cls-7" x="847.5" y="892.78" width="9.77" height="72.92" rx="4.89" transform="translate(-154.01 -53.34) rotate(0.71)"/><rect class="cls-7" x="865.39" y="893" width="9.77" height="72.92" rx="4.89" transform="translate(-154.01 -53.56) rotate(0.71)"/><rect class="cls-7" x="883.28" y="893.23" width="9.77" height="72.92" rx="4.89" transform="translate(-154.01 -53.78) rotate(0.71)"/><rect class="cls-7" x="900.88" y="893.45" width="9.77" height="72.92" rx="4.89" transform="translate(-154 -54) rotate(0.71)"/><rect class="cls-7" x="919.17" y="893.67" width="9.77" height="72.92" rx="4.89" transform="translate(-154 -54.23) rotate(0.71)"/><rect class="cls-7" x="937.43" y="893.9" width="9.77" height="72.92" rx="4.89" transform="translate(-153.99 -54.46) rotate(0.71)"/><rect class="cls-7" x="954.12" y="894.11" width="9.77" height="72.92" rx="4.89" transform="translate(-153.99 -54.66) rotate(0.71)"/><rect class="cls-7" x="972.01" y="894.33" width="9.77" height="72.92" rx="4.89" transform="translate(-153.99 -54.89) rotate(0.71)"/><rect class="cls-7" x="989.9" y="894.55" width="9.77" height="72.92" rx="4.89" transform="translate(-153.98 -55.11) rotate(0.71)"/><rect class="cls-7" x="1007.5" y="894.77" width="9.77" height="72.92" rx="4.89" transform="translate(-153.98 -55.33) rotate(0.71)"/><rect class="cls-7" x="565" y="934.49" width="452.18" height="4.98" rx="2.49" transform="translate(-153.92 -52.58) rotate(0.71)"/><rect class="cls-7" x="565.26" y="913.49" width="452.18" height="4.98" rx="2.49" transform="translate(-154.18 -52.58) rotate(0.71)"/></g><g id="Layer_5" data-name="Layer 5"><circle class="cls-8" cx="546.56" cy="624.78" r="11.5"/><polygon class="cls-8" points="379.06 753.28 378.06 753.28 378.06 724.22 378.48 723.63 379.06 722.96 379.06 753.28"/><polygon class="cls-8" points="399.06 744.28 398.06 744.28 398.06 699.16 398.45 698.68 399.06 697.89 399.06 744.28"/><polygon class="cls-8" points="418.06 744.28 417.06 744.28 417.06 675.36 417.49 674.83 418.06 674.09 418.06 744.28"/><polygon class="cls-8" points="437.06 744.28 436.06 744.28 436.06 651.56 436.5 651.01 437.06 650.31 437.06 744.28"/><polygon class="cls-8" points="457.06 744.28 456.06 744.28 456.06 626.51 456.45 626 457.06 625.28 457.06 744.28"/><polygon class="cls-8" points="476.06 744.28 475.06 744.28 475.06 602.71 475.37 602.31 476.06 601.45 476.06 744.28"/><polygon class="cls-8" points="496.06 744.28 495.06 744.28 495.06 577.65 495.34 577.3 496.06 576.4 496.06 744.28"/><polygon class="cls-8" points="515.06 744.28 514.06 744.28 514.06 553.85 514.3 553.52 515.06 552.6 515.06 744.28"/><polygon class="cls-8" points="709.06 745.28 708.06 745.28 708.06 702.23 708.72 702.96 709.06 703.33 709.06 745.28"/><polygon class="cls-8" points="728.06 744.28 727.06 744.28 727.06 722.72 727.7 723.4 728.06 723.79 728.06 744.28"/><polygon class="cls-8" points="689.06 744.28 688.06 744.28 688.06 680.68 688.67 681.36 689.06 681.78 689.06 744.28"/><polygon class="cls-8" points="670.06 744.28 669.06 744.28 669.06 660.24 669.66 660.88 670.06 661.32 670.06 744.28"/><polygon class="cls-8" points="651.06 744.28 650.06 744.28 650.06 639.77 650.31 640.03 650.75 640.51 651.06 640.85 651.06 744.28"/><polygon class="cls-8" points="631.06 744.28 630.06 744.28 630.06 618.22 630.61 618.81 631.06 619.31 631.06 744.28"/><polygon class="cls-8" points="612.06 744.28 611.06 744.28 611.06 597.74 611.56 598.3 612.06 598.84 612.06 744.28"/><polygon class="cls-8" points="593.06 744.28 592.06 744.28 592.06 577.28 592.6 577.89 593.06 578.37 593.06 744.28"/><polygon class="cls-8" points="574.06 744.28 573.06 744.28 573.06 556.8 573.61 557.4 574.06 557.9 574.06 744.28"/><polygon class="cls-8" points="534.06 744.28 533.06 744.28 533.06 530.05 533.3 529.75 534.06 528.8 534.06 744.28"/><polygon class="cls-8" points="554.06 744.28 553.06 744.28 553.06 535.28 554.06 536.28 554.06 536.25 554.06 744.28"/></g></g><g id="Trees"><g id="Layer_8" data-name="Layer 8"><path class="cls-9" d="M188.69,877.1s80.38-32.38,83.7-128.05c0,0,47.17-13.95,44.51-73.08s-2-35.77-8-56.75" transform="translate(-165.63 -42.82)"/><path class="cls-9" d="M194.15,630.44S166,728,272.39,749.05" transform="translate(-165.63 -42.82)"/><polyline class="cls-9" points="70.33 799.19 66.6 606.44 65.96 572.98"/><path class="cls-9" d="M293.51,564.1s7.14,59.52-61.28,85.16" transform="translate(-165.63 -42.82)"/><path class="cls-9" d="M316.59,689.75s50.14-2.3,66.35-59.31" transform="translate(-165.63 -42.82)"/><path class="cls-9" d="M266.88,785.63s95.66,15.82,116.06-72.56" transform="translate(-165.63 -42.82)"/><path class="cls-5" d="M455.63,718.3H308.2s-9.92-38.18,41.56-26.15c0,0,20.11-18.82,38.41-9.41s17.26,16.46,17.26,16.46S447.79,684.31,455.63,718.3Z" transform="translate(-165.63 -42.82)"/><path class="cls-5" d="M330.4,631H477.25s9.88-38.18-41.4-26.15c0,0-20-18.83-38.25-9.42s-17.19,16.47-17.19,16.47S338.21,597,330.4,631Z" transform="translate(-165.63 -42.82)"/><path class="cls-5" d="M165.63,633.57h156s10.49-45.38-44-31.08c0,0-21.26-22.38-40.63-11.19s-18.25,19.57-18.25,19.57S173.93,593.16,165.63,633.57Z" transform="translate(-165.63 -42.82)"/><path class="cls-5" d="M184.59,572.8H371.72s-8.36-53.65-58.37-20.31c0,0,.65-34.28-37.74-34.28-42.24,0-44,28.5-44,28.5S194.55,532.39,184.59,572.8Z" transform="translate(-165.63 -42.82)"/></g><path class="cls-9" d="M1270.53,943.67s-81.07-33-83.71-128.68c0,0-47.62-14.31-44.49-73.42s2.29-35.75,8.5-56.69" transform="translate(-165.63 -42.82)"/><path class="cls-9" d="M1266.86,697s27.72,97.8-80,118" transform="translate(-165.63 -42.82)"/><polyline class="cls-9" points="1057.35 865.4 1062.57 672.69 1063.47 639.24"/><path class="cls-9" d="M1166.84,629.88s-7.67,59.47,61.35,85.63" transform="translate(-165.63 -42.82)"/><path class="cls-9" d="M1142.55,755.35s-50.71-2.68-66.68-59.81" transform="translate(-165.63 -42.82)"/><path class="cls-9" d="M1192.11,851.62s-96.9,15.09-116.87-73.45" transform="translate(-165.63 -42.82)"/><path class="cls-5" d="M1001.66,782.85,1150.82,784s10.32-38.1-41.85-26.46c0,0-20.2-19-38.79-9.71s-17.58,16.33-17.58,16.33S1009.86,748.91,1001.66,782.85Z" transform="translate(-165.63 -42.82)"/><path class="cls-5" d="M1129,696.47l-148.57-1.12s-9.71-38.25,42.08-25.83c0,0,20.4-18.68,38.77-9.13s17.27,16.6,17.27,16.6S1121.37,662.42,1129,696.47Z" transform="translate(-165.63 -42.82)"/><path class="cls-5" d="M1295.69,700.33l-157.78-1.19s-10.27-45.46,44.71-30.75c0,0,21.69-22.22,41.19-10.88s18.32,19.71,18.32,19.71S1287.6,659.86,1295.69,700.33Z" transform="translate(-165.63 -42.82)"/><path class="cls-5" d="M1277,639.42,1087.66,638s8.85-53.58,59.19-19.86c0,0-.39-34.29,38.45-34,42.73.33,44.32,28.84,44.32,28.84S1267.2,598.93,1277,639.42Z" transform="translate(-165.63 -42.82)"/></g></svg>