<svg id="Background_18" data-name="Background 18" xmlns="http://www.w3.org/2000/svg" viewBox="0 0 975.61 1031.67"><defs><style>.cls-1{fill:#f8f8ff;}.cls-2{fill:#e1e6fb;}.cls-3{fill:#eaedfb;}.cls-4{fill:#bac5f4;}.cls-5{opacity:0.5;}.cls-6{fill:#fff;}.cls-7{fill:#b0c0f4;}.cls-8,.cls-9{fill:none;stroke:#e1e6fb;stroke-miterlimit:10;stroke-width:4px;}.cls-8{stroke-dasharray:11.72 11.72;}.cls-9{stroke-dasharray:11.57 11.57;}</style></defs><title>bg18</title><g id="bg"><path class="cls-1" d="M420.36,108.52C310.38,219,256.15,142.23,186.6,250.15c-45,69.78-71.34,165.07-42.23,292C223.45,886.84,217.3,851.68,323.19,922s76.56,185.85,220.72,135.62S866,1122.93,919.39,935.4s-85-353.67,15.82-457.29S988.88,53.93,716,43.88C564.2,38.29,509.46,19,420.36,108.52Z" transform="translate(-70.75 -38.24)"/><path class="cls-1" d="M398.32,234c-125,75.51-186.63,23-265.68,96.82-51.1,47.7-81.08,112.85-48,199.6C174.53,766.07,167.54,742,287.88,790.1s87,127.06,250.86,92.72,366.09,44.64,426.76-83.56-96.62-241.78,18-312.62,61-290-249.11-296.86C561.8,186,499.59,172.8,398.32,234Z" transform="translate(-70.75 -38.24)"/></g><g id="table"><polygon class="cls-2" points="255.29 283.26 255.29 610.26 749.29 610.26 749.79 269.76 255.29 269.26 255.29 283.26"/><polygon class="cls-3" points="218.29 312.26 218.29 639.26 712.29 639.26 712.79 298.76 218.29 298.26 218.29 312.26"/><rect class="cls-4" x="232.79" y="324.76" width="15" height="15" rx="7.5"/><rect class="cls-4" x="255.79" y="324.76" width="15" height="15" rx="7.5"/><rect class="cls-4" x="278.79" y="324.76" width="15" height="15" rx="7.5"/><g id="tables" class="cls-5"><g id="table_1" data-name="table 1"><rect class="cls-6" x="244.79" y="373.76" width="2" height="102"/><rect class="cls-6" x="253.79" y="373.76" width="2" height="102"/><rect class="cls-6" x="261.79" y="373.76" width="2" height="102"/><rect class="cls-6" x="270.79" y="373.76" width="2" height="102"/><rect class="cls-6" x="278.79" y="373.76" width="2" height="102"/><rect class="cls-6" x="287.79" y="373.76" width="2" height="102"/><rect class="cls-6" x="295.79" y="373.76" width="2" height="102"/><rect class="cls-6" x="303.79" y="373.76" width="2" height="102"/><rect class="cls-6" x="311.79" y="373.76" width="2" height="102"/><rect class="cls-6" x="320.79" y="373.76" width="2" height="102"/><rect class="cls-6" x="328.79" y="373.76" width="2" height="102"/><rect class="cls-6" x="337.79" y="373.76" width="2" height="102"/><rect class="cls-6" x="345.79" y="373.76" width="2" height="102"/><rect class="cls-6" x="244.79" y="373.76" width="103" height="2"/><rect class="cls-6" x="244.79" y="383.76" width="103" height="2"/><rect class="cls-6" x="244.79" y="393.76" width="103" height="2"/><rect class="cls-6" x="244.79" y="403.76" width="103" height="2"/><rect class="cls-6" x="244.79" y="413.76" width="103" height="2"/><rect class="cls-6" x="244.79" y="423.76" width="103" height="2"/><rect class="cls-6" x="244.79" y="433.76" width="103" height="2"/><rect class="cls-6" x="244.79" y="443.76" width="103" height="2"/><rect class="cls-6" x="244.79" y="453.76" width="103" height="2"/><rect class="cls-6" x="244.79" y="463.76" width="103" height="2"/><rect class="cls-6" x="244.79" y="473.76" width="103" height="2"/></g><g id="table_2" data-name="table 2"><rect class="cls-6" x="370.79" y="501.76" width="2" height="102"/><rect class="cls-6" x="379.79" y="501.76" width="2" height="102"/><rect class="cls-6" x="387.79" y="501.76" width="2" height="102"/><rect class="cls-6" x="396.79" y="501.76" width="2" height="102"/><rect class="cls-6" x="404.79" y="501.76" width="2" height="102"/><rect class="cls-6" x="413.79" y="501.76" width="2" height="102"/><rect class="cls-6" x="421.79" y="501.76" width="2" height="102"/><rect class="cls-6" x="429.79" y="501.76" width="2" height="102"/><rect class="cls-6" x="437.79" y="501.76" width="2" height="102"/><rect class="cls-6" x="446.79" y="501.76" width="2" height="102"/><rect class="cls-6" x="454.79" y="501.76" width="2" height="102"/><rect class="cls-6" x="463.79" y="501.76" width="2" height="102"/><rect class="cls-6" x="471.79" y="501.76" width="2" height="102"/><rect class="cls-6" x="370.79" y="501.76" width="103" height="2"/><rect class="cls-6" x="370.79" y="511.76" width="103" height="2"/><rect class="cls-6" x="370.79" y="521.76" width="103" height="2"/><rect class="cls-6" x="370.79" y="531.76" width="103" height="2"/><rect class="cls-6" x="370.79" y="541.76" width="103" height="2"/><rect class="cls-6" x="370.79" y="551.76" width="103" height="2"/><rect class="cls-6" x="370.79" y="561.76" width="103" height="2"/><rect class="cls-6" x="370.79" y="571.76" width="103" height="2"/><rect class="cls-6" x="370.79" y="581.76" width="103" height="2"/><rect class="cls-6" x="370.79" y="591.76" width="103" height="2"/><rect class="cls-6" x="370.79" y="601.76" width="103" height="2"/></g><g id="table_3" data-name="table 3"><rect class="cls-6" x="483.79" y="384.76" width="2" height="102"/><rect class="cls-6" x="492.79" y="384.76" width="2" height="102"/><rect class="cls-6" x="500.79" y="384.76" width="2" height="102"/><rect class="cls-6" x="509.79" y="384.76" width="2" height="102"/><rect class="cls-6" x="517.79" y="384.76" width="2" height="102"/><rect class="cls-6" x="526.79" y="384.76" width="2" height="102"/><rect class="cls-6" x="534.79" y="384.76" width="2" height="102"/><rect class="cls-6" x="542.79" y="384.76" width="2" height="102"/><rect class="cls-6" x="550.79" y="384.76" width="2" height="102"/><rect class="cls-6" x="559.79" y="384.76" width="2" height="102"/><rect class="cls-6" x="567.79" y="384.76" width="2" height="102"/><rect class="cls-6" x="576.79" y="384.76" width="2" height="102"/><rect class="cls-6" x="584.79" y="384.76" width="2" height="102"/><rect class="cls-6" x="483.79" y="384.76" width="103" height="2"/><rect class="cls-6" x="483.79" y="394.76" width="103" height="2"/><rect class="cls-6" x="483.79" y="404.76" width="103" height="2"/><rect class="cls-6" x="483.79" y="414.76" width="103" height="2"/><rect class="cls-6" x="483.79" y="424.76" width="103" height="2"/><rect class="cls-6" x="483.79" y="434.76" width="103" height="2"/><rect class="cls-6" x="483.79" y="444.76" width="103" height="2"/><rect class="cls-6" x="483.79" y="454.76" width="103" height="2"/><rect class="cls-6" x="483.79" y="464.76" width="103" height="2"/><rect class="cls-6" x="483.79" y="474.76" width="103" height="2"/><rect class="cls-6" x="483.79" y="484.76" width="103" height="2"/></g></g><rect class="cls-4" x="293.79" y="405.76" width="147" height="102"/><rect class="cls-2" x="308.79" y="418.76" width="147" height="102"/><rect class="cls-6" x="338.79" y="432.76" width="84" height="2"/><rect class="cls-6" x="338.79" y="437.76" width="69" height="2"/><rect class="cls-6" x="338.79" y="441.76" width="91" height="2"/><rect class="cls-6" x="338.79" y="454.76" width="40" height="2"/><rect class="cls-6" x="338.79" y="459.76" width="61" height="2"/><rect class="cls-6" x="338.79" y="463.76" width="57" height="2"/><rect class="cls-6" x="338.79" y="477.76" width="40" height="2"/><rect class="cls-6" x="338.79" y="482.76" width="61" height="2"/><rect class="cls-6" x="338.79" y="486.76" width="57" height="2"/><circle class="cls-6" cx="326.29" cy="438.26" r="6.5"/><circle class="cls-6" cx="326.29" cy="459.26" r="6.5"/><circle class="cls-6" cx="327.29" cy="483.26" r="6.5"/><rect class="cls-6" x="608.79" y="418.76" width="73" height="2"/><rect class="cls-6" x="608.79" y="429.76" width="73" height="2"/><rect class="cls-6" x="608.79" y="440.76" width="73" height="2"/><rect class="cls-6" x="608.79" y="451.76" width="73" height="2"/><rect class="cls-6" x="608.79" y="462.76" width="73" height="2"/><rect class="cls-6" x="608.79" y="473.76" width="73" height="2"/><rect class="cls-6" x="608.79" y="484.76" width="73" height="2"/><rect class="cls-6" x="608.79" y="495.76" width="73" height="2"/><rect class="cls-6" x="608.79" y="506.76" width="73" height="2"/><rect class="cls-6" x="229.79" y="347.76" width="458" height="2"/><circle class="cls-6" cx="645.29" cy="384.26" r="22.5"/></g><g id="bulb"><path class="cls-4" d="M746.54,330V310s2-5-7-9-25-20-24-47,26-51,54-49,48,24,49,54-26,42-26,42-5,1-5,6v23Z" transform="translate(-70.75 -38.24)"/><rect class="cls-4" x="709.54" y="214" width="2" height="20" transform="translate(68.78 664.28) rotate(-57.46)"/><rect class="cls-4" x="748.54" y="184" width="2" height="20" transform="translate(-94.72 122.16) rotate(-12.02)"/><rect class="cls-4" x="798.54" y="190" width="2" height="20" transform="translate(158.58 -433.32) rotate(32.18)"/><rect class="cls-4" x="828.54" y="229" width="2" height="20" transform="translate(729.23 -662.01) rotate(71.97)"/><rect class="cls-4" x="822.54" y="279" width="2" height="20" transform="translate(1433.75 -295.15) rotate(121.94)"/><rect class="cls-4" x="732.54" y="303" width="2" height="20" transform="translate(1116.6 930.58) rotate(-147.79)"/><rect class="cls-4" x="703.54" y="265" width="2" height="20" transform="translate(525.96 985.34) rotate(-103.13)"/><rect class="cls-4" x="671.79" y="291.76" width="49" height="7" rx="3.5"/><rect class="cls-4" x="672.79" y="304.76" width="47" height="7" rx="3.5"/><rect class="cls-6" x="672.79" y="298.76" width="47" height="6" rx="3"/><path class="cls-6" d="M748.54,350h36.74s-.74,12-17.74,12S751.54,355,748.54,350Z" transform="translate(-70.75 -38.24)"/></g><g id="message"><path class="cls-2" d="M781.07,475H898.64a3.69,3.69,0,0,1,3.67,4.09l-8.19,74.62a3.7,3.7,0,0,1-3.67,3.29H772.88a3.69,3.69,0,0,1-3.67-4.09l8.19-74.62A3.69,3.69,0,0,1,781.07,475Z" transform="translate(-70.75 -38.24)"/><path class="cls-6" d="M773.07,475H890.64a3.69,3.69,0,0,1,3.67,4.09l-8.19,74.62a3.7,3.7,0,0,1-3.67,3.29H764.88a3.69,3.69,0,0,1-3.67-4.09l8.19-74.62A3.69,3.69,0,0,1,773.07,475Z" transform="translate(-70.75 -38.24)"/><polygon class="cls-4" points="700.79 437.09 749.01 481.76 821.43 437.09 700.79 437.09"/></g><g id="books"><path class="cls-4" d="M688.49,779.48,546.22,779c-3.72,0-6.73-.18-6.72-3.9l.07-19c0-3.68,3-3.14,6.66-3.18l141.35-1.42c1.77.1,4.74-1.13,9.63,1,6.58,2.82,11.3,20.11-2.72,26.06A26.39,26.39,0,0,1,688.49,779.48Z" transform="translate(-70.75 -38.24)"/><path class="cls-6" d="M541.84,775.08l38.07.14a2.35,2.35,0,0,0,2.35-2.34l0-15.06a2.35,2.35,0,0,0-2.34-2.35l-38.06-.13a7.64,7.64,0,0,0-2.34.11L539.5,775A17.14,17.14,0,0,0,541.84,775.08Z" transform="translate(-70.75 -38.24)"/><path class="cls-3" d="M554.5,725.1H696.76c3.72,0,6.74.16,6.74,3.88v19c0,3.68-3,3.15-6.65,3.2L555.5,753.1c-1.76-.08-4.74-.81-9.32-2.37-6.78-2.3-11.68-18.63,2.32-24.63A26.41,26.41,0,0,1,554.5,725.1Z" transform="translate(-70.75 -38.24)"/><path class="cls-7" d="M701.16,729H663.1a2.35,2.35,0,0,0-2.35,2.34v15.07a2.35,2.35,0,0,0,2.35,2.34h38.06a7.82,7.82,0,0,0,2.34-.12V729.05A15.41,15.41,0,0,0,701.16,729Z" transform="translate(-70.75 -38.24)"/><path class="cls-4" d="M542.46,701.48H684.72c3.73,0,6.74.15,6.74,3.87v19c0,3.69-3,3.15-6.65,3.2l-141.35,1.92c-1.76-.09-4.74-.82-9.32-2.38-6.78-2.29-11.68-18.62,2.32-24.62A25.87,25.87,0,0,1,542.46,701.48Z" transform="translate(-70.75 -38.24)"/><path class="cls-6" d="M689.12,705.35H651.06a2.34,2.34,0,0,0-2.34,2.35v15.06a2.33,2.33,0,0,0,2.34,2.34h38.06a8.47,8.47,0,0,0,2.34-.11V705.42A17.14,17.14,0,0,0,689.12,705.35Z" transform="translate(-70.75 -38.24)"/></g><g id="lights"><circle class="cls-8" cx="209.92" cy="627.95" r="67.13"/><rect class="cls-2" x="198.06" y="690.1" width="23.71" height="7.44" rx="3.72"/><circle class="cls-2" cx="210.27" cy="627.6" r="59.5"/><rect class="cls-2" x="207.85" y="695.08" width="4.82" height="286.16"/><circle class="cls-9" cx="312.97" cy="821.8" r="51.56" transform="translate(-560.19 423.76) rotate(-45)"/><rect class="cls-2" x="233.11" y="831.3" width="18.21" height="5.71" rx="2.7"/><rect class="cls-2" x="198.74" y="981.24" width="54.52" height="5.71" rx="2.7"/><rect class="cls-2" x="185.07" y="986.24" width="80.85" height="5.71" rx="2.7"/><circle class="cls-2" cx="242.49" cy="783.29" r="45.7"/><rect class="cls-2" x="239.92" y="695.08" width="4.82" height="286.16"/></g><g id="chair"><path class="cls-4" d="M658.82,911.79a10.6,10.6,0,0,0,2.3,15.79c32.82,21.23,143.16,83.76,234,31.46,108-62.2,153.77-227.19,151.18-242.74s-56.15-18.57-146-15.33S911.5,861.43,808.7,876.11s-76-27.64-108.85-2.59A270.45,270.45,0,0,0,658.82,911.79Z" transform="translate(-70.75 -38.24)"/><path class="cls-7" d="M718.49,865.83S854.08,901.6,858,823.35c5.43-109.08,28.06-100.08,26.36-30.49s-.65,75-33,88.75c-27.87,11.85-51.24,13.94-88.72,6.4C732,881.85,718.49,865.83,718.49,865.83Z" transform="translate(-70.75 -38.24)"/><rect class="cls-4" x="679.36" y="933.75" width="7.31" height="53.56" transform="translate(657.9 -255.44) rotate(37.63)"/><circle class="cls-7" cx="593.25" cy="947.78" r="10.22"/><rect class="cls-4" x="752.09" y="962.18" width="7.31" height="53.56" transform="translate(524.98 -283.62) rotate(30)"/><circle class="cls-7" cx="669.96" cy="978.68" r="10.22"/><rect class="cls-4" x="908" y="948.91" width="7.31" height="65.13" transform="translate(-487.59 771.48) rotate(-39.75)"/><circle class="cls-7" cx="864.54" cy="972.93" r="10.22"/><rect class="cls-4" x="830.29" y="925.41" width="7.31" height="65.13" transform="translate(-490.53 716.36) rotate(-39.75)"/><circle class="cls-7" cx="786.83" cy="949.44" r="10.22"/></g></svg>