<svg id="Layer_1" data-name="Layer 1" xmlns="http://www.w3.org/2000/svg" viewBox="0 0 686.49 794.27"><defs><style>.cls-1{fill:#e9edfb;}.cls-2{fill:#bac5f4;}.cls-3{fill:#e1e6fb;}.cls-4{fill:#fff;}.cls-5{fill:#f5f5fc;}</style></defs><title>bg19</title><path class="cls-1" d="M670,732.6c5.49-12,14-29,24.05-36.05,25.87-18.1,87.43-49.43,195.1,1.88,120.68,57.5,124.09-48,242.55-55.28,85.34-5.23,177.92,17.23,198,60.23,18.88,40.36,2.9,138.71-71.47,131.77C1124.21,822.64,1133,851.74,1004.34,902c-131.66,51.41-159.82-81.73-283.4-42.24C639.27,885.84,645,787.56,670,732.6Z" transform="translate(-650.53 -130.95)"/><polygon class="cls-1" points="572.7 89.05 442.73 426.96 450.92 426.96 572.7 89.05"/><path class="cls-1" d="M1224.37,162.62s-7.19,45.07-1.14,57.38C1223.23,220,1238.56,194.27,1224.37,162.62Z" transform="translate(-650.53 -130.95)"/><path class="cls-1" d="M1191.6,174.89s12.49,38.05,23.2,45.42C1214.8,220.31,1217.91,194.35,1191.6,174.89Z" transform="translate(-650.53 -130.95)"/><path class="cls-1" d="M1259.12,151.75s-36.75,48.18-33.89,66.33C1225.23,218.08,1264.3,197.58,1259.12,151.75Z" transform="translate(-650.53 -130.95)"/><path class="cls-1" d="M1175.05,191.23s12.16,48.69,16.38,62.39c1,3.22,2,4.69,3,4.95,3,.77,5.81-9.44,6.46-16.52C1201.78,232.62,1197.08,203.36,1175.05,191.23Z" transform="translate(-650.53 -130.95)"/><path class="cls-1" d="M1195.11,257.79s-.11-.25-.09.15c.2,4.33,1.47,30.62.45,35.07-1.12,4.87,2.89-6.22,2.89-6.22Z" transform="translate(-650.53 -130.95)"/><path class="cls-1" d="M1214.81,219.85s-.44-.24-.4-.09c1.11,4.22-.4,21.53-1.42,26-1.12,4.86,2-3.84,2-3.84Z" transform="translate(-650.53 -130.95)"/><path class="cls-1" d="M1164,210.26s2.67,63.43,9.93,78c9.25,18.56,14.49-15.1,13.54-21.39S1184.33,224.41,1164,210.26Z" transform="translate(-650.53 -130.95)"/><path class="cls-1" d="M1214.81,219.85s-.44-.24-.4-.09c1.11,4.22-.4,21.53-1.42,26-1.12,4.86,2-3.84,2-3.84Z" transform="translate(-650.53 -130.95)"/><path class="cls-1" d="M1180,291.58s-.12-.29-.1.16c.19,4.83,1.41,34.13.37,39.09-1.13,5.43,2.92-6.93,2.92-6.93Z" transform="translate(-650.53 -130.95)"/><path class="cls-1" d="M1127.23,234.56s18,72.68,28.76,88.3c13.63,19.88,14.82-21,12.35-28.11S1150.72,247.53,1127.23,234.56Z" transform="translate(-650.53 -130.95)"/><path class="cls-1" d="M1163.45,327.52s-.33-1.23-.31-.73c.21,5.39,4.06,34.72,2.89,40.26-1.27,6.05,3.25-6.67,3.25-6.67Z" transform="translate(-650.53 -130.95)"/><path class="cls-1" d="M1106.08,267.91s24,75.53,34.72,92.17c13.6,21.17,12.82-24.67,9.06-37.3C1146,309.85,1129.56,281.73,1106.08,267.91Z" transform="translate(-650.53 -130.95)"/><path class="cls-1" d="M1148.25,365s-.33-1.31-.31-.78c.21,5.75,4,37,2.85,42.89-1.28,6.45,3.25-7.11,3.25-7.11Z" transform="translate(-650.53 -130.95)"/><path class="cls-1" d="M1091.58,304.65s24,75.53,34.71,92.17c13.61,21.18,12.82-24.67,9.06-37.29C1131.5,346.59,1115.06,318.48,1091.58,304.65Z" transform="translate(-650.53 -130.95)"/><path class="cls-1" d="M1133.75,401.79s-.34-1.31-.32-.78c.21,5.74,4,38,2.84,43.92-1.28,6.45,3.86-8.37,3.86-8.37Z" transform="translate(-650.53 -130.95)"/><path class="cls-1" d="M1066.9,336.66s31.79,78.3,42.48,94.93c13.6,21.18,10.57-30.82,6.81-43.45C1112.34,375.21,1090.38,350.48,1066.9,336.66Z" transform="translate(-650.53 -130.95)"/><path class="cls-1" d="M1115.31,436.19s-.25-.71-.23-.07c.19,6.91,5.38,45.33,4.18,52.43-1.3,7.77,4.75-9.86,4.75-9.86Z" transform="translate(-650.53 -130.95)"/><path class="cls-1" d="M1035.1,376.74s12.91,28.25,29.44,52c11.11,16,26,28.51,31.6,34.39,17.69,18.63,2.64-30.05-3.61-41.84C1086.12,409.24,1061.05,386.59,1035.1,376.74Z" transform="translate(-650.53 -130.95)"/><path class="cls-1" d="M1103.1,466.41s-.25-.71-.23-.07c.19,6.92,5.7,48.43,4.16,55.49-.36,1.67,5.1-12.6,5.1-12.6Z" transform="translate(-650.53 -130.95)"/><path class="cls-1" d="M1020.16,415.71s14.49,31.8,32.89,58.62c12.36,18,28.84,32.23,35,38.87,19.6,21.06,2.51-33.65-4.48-46.93C1076.43,452.66,1048.7,427,1020.16,415.71Z" transform="translate(-650.53 -130.95)"/><path class="cls-1" d="M988.51,480.07s33.29,19.6,56.8,38.06c27.59,21.66,32.48,24.12,40.69,26.79,26,8.43-13-44.2-24.78-51.86C1049.16,485.21,1018,476.77,988.51,480.07Z" transform="translate(-650.53 -130.95)"/><path class="cls-1" d="M1096.19,518.27a9.53,9.53,0,0,0-.47-1.47c.25,3.6,5.63,20.05,4.16,23.73-.35.87,2.75-6.39,2.75-6.39Z" transform="translate(-650.53 -130.95)"/><path class="cls-1" d="M1091.23,543.21s-.51-.88-.48-.72c.28,1.78,5.82,9.91,4.38,11.72-.34.43,2.7-3.15,2.7-3.15Z" transform="translate(-650.53 -130.95)"/><path class="cls-1" d="M1251.69,180.63s-21.53,40.92-31.83,49.86C1219.86,230.49,1226,204,1251.69,180.63Z" transform="translate(-650.53 -130.95)"/><path class="cls-1" d="M1262.82,200.4s-28.41,29.34-38.49,32.71C1224.33,233.11,1237.3,209.83,1262.82,200.4Z" transform="translate(-650.53 -130.95)"/><path class="cls-1" d="M1238.67,161.52s-7,51.88-18.83,66.75C1219.84,228.27,1209.89,199.64,1238.67,161.52Z" transform="translate(-650.53 -130.95)"/><path class="cls-1" d="M1262.7,219.13s-34.24,38.63-44.31,49.27c-2.37,2.5-3.78,3.49-4.48,3.43-2.1-.19,2.14-9.78,5.78-16.07C1224.55,247.38,1243.7,223.43,1262.7,219.13Z" transform="translate(-650.53 -130.95)"/><path class="cls-1" d="M1214,271s.21-.19,0,.15c-2.56,3.68-18.13,26-20.08,30.15-2.14,4.52,1.92-6.18,1.92-6.18Z" transform="translate(-650.53 -130.95)"/><path class="cls-1" d="M1224.59,232.7s.38-.08.27.05c-3,3.32-12,18.69-13.91,22.82-2.14,4.52,1.06-3.87,1.06-3.87Z" transform="translate(-650.53 -130.95)"/><path class="cls-1" d="M1258,238.65s-37.35,54-49.6,64.57c-15.6,13.44.55-17.09,4.63-22.25S1238.82,245.18,1258,238.65Z" transform="translate(-650.53 -130.95)"/><path class="cls-1" d="M1224.59,232.7s.38-.08.27.05c-3,3.32-12,18.69-13.91,22.82-2.14,4.52,1.06-3.87,1.06-3.87Z" transform="translate(-650.53 -130.95)"/><path class="cls-1" d="M1203.2,304.36s.22-.22,0,.17c-2.84,4.11-20.08,29.06-22.32,33.64-2.44,5,2.32-6.81,2.32-6.81Z" transform="translate(-650.53 -130.95)"/><path class="cls-1" d="M1264.57,269.91s-51.06,57.7-65.8,68.18c-18.76,13.35,3.71-22.28,9.08-27.72S1244.27,274.54,1264.57,269.91Z" transform="translate(-650.53 -130.95)"/><path class="cls-1" d="M1192,340s.88-1,.58-.54c-3.17,4.59-21.87,28.83-24.37,33.94-2.72,5.58,2-6.67,2-6.67Z" transform="translate(-650.53 -130.95)"/><path class="cls-1" d="M1257.37,304.62s-56,58.48-71.27,69.85c-19.48,14.47,6.88-24.88,16.1-34.73C1211.63,329.65,1236.6,310,1257.37,304.62Z" transform="translate(-650.53 -130.95)"/><path class="cls-1" d="M1179.18,376.67s.92-1,.61-.58c-3.36,4.9-23.13,30.8-25.83,36.22-2.94,5.92,2.23-7.05,2.23-7.05Z" transform="translate(-650.53 -130.95)"/><path class="cls-1" d="M1244.59,340.4s-56,58.48-71.28,69.85c-19.48,14.47,6.88-24.88,16.1-34.73C1198.85,365.43,1223.82,345.77,1244.59,340.4Z" transform="translate(-650.53 -130.95)"/><path class="cls-1" d="M1166.39,412.45s.93-1,.62-.58c-3.37,4.9-23.71,31.7-26.41,37.12-2.94,5.92,2.61-8.31,2.61-8.31Z" transform="translate(-650.53 -130.95)"/><path class="cls-1" d="M1240.09,374.94S1178.28,433.63,1163,445c-19.48,14.47,11.61-29.57,20.82-39.41C1193.23,395.5,1219.33,380.3,1240.09,374.94Z" transform="translate(-650.53 -130.95)"/><path class="cls-1" d="M1157.11,447.31s.53-.55.16,0c-4,5.92-28.6,37.62-32,44.1-3.67,7.06,3-9.85,3-9.85Z" transform="translate(-650.53 -130.95)"/><path class="cls-1" d="M1235,418.43s-23.1,20.78-45.67,36.68c-15.16,10.68-30.48,17.34-36.88,20.85-20.29,11.12,15.54-26.68,25.66-35.11C1188.44,432.21,1215.08,419.68,1235,418.43Z" transform="translate(-650.53 -130.95)"/><path class="cls-1" d="M1146.74,476.81s.54-.54.17,0c-4,5.92-30.53,40.21-33.68,46.73-.74,1.55,4.31-12.3,4.31-12.3Z" transform="translate(-650.53 -130.95)"/><path class="cls-1" d="M1221.16,456.26s-26,23.39-51.29,41.4c-17,12.09-34.13,19.75-41.31,23.75-22.72,12.69,17.65-29.75,29-39.26C1169.23,472.41,1199,458,1221.16,456.26Z" transform="translate(-650.53 -130.95)"/><path class="cls-1" d="M1202.21,520.68s-29.44,7.6-52.85,17c-27.46,11-31.55,11.74-37.59,11.74-19.11,0,32.18-34.51,43-37.83C1165.86,508.14,1187.81,509.57,1202.21,520.68Z" transform="translate(-650.53 -130.95)"/><path class="cls-1" d="M1121.23,523.51s1.29-1.41,1.08-1.13c-2.17,3-14.44,15.73-15.71,19.32-.3.84,2.09-6.29,2.09-6.29Z" transform="translate(-650.53 -130.95)"/><path class="cls-1" d="M1109.85,546.44s.78-.63.68-.49c-1.17,1.45-8.82,6.92-9,8.89,0,.47.3-3.48.3-3.48Z" transform="translate(-650.53 -130.95)"/><polygon class="cls-1" points="42.84 180.37 177.54 518.28 169.06 518.28 42.84 180.37"/><path class="cls-1" d="M692.19,253.94s7.45,45.07,1.18,57.38C693.37,311.32,677.48,285.59,692.19,253.94Z" transform="translate(-650.53 -130.95)"/><path class="cls-1" d="M726.15,266.21s-12.95,38.05-24,45.42C702.1,311.63,698.88,285.67,726.15,266.21Z" transform="translate(-650.53 -130.95)"/><path class="cls-1" d="M656.18,243.07s38.08,48.18,35.12,66.33C691.3,309.4,650.81,288.9,656.18,243.07Z" transform="translate(-650.53 -130.95)"/><path class="cls-1" d="M743.3,282.55s-12.61,48.69-17,62.39c-1,3.22-2.1,4.69-3.15,4.95-3.13.77-6-9.44-6.69-16.52C715.6,323.94,720.47,294.67,743.3,282.55Z" transform="translate(-650.53 -130.95)"/><path class="cls-1" d="M722.51,349.11s.12-.25.1.15c-.21,4.33-1.53,30.61-.47,35.07,1.17,4.87-3-6.22-3-6.22Z" transform="translate(-650.53 -130.95)"/><path class="cls-1" d="M702.09,311.17s.47-.25.42-.09c-1.15,4.22.41,21.53,1.47,26,1.16,4.87-2.07-3.83-2.07-3.83Z" transform="translate(-650.53 -130.95)"/><path class="cls-1" d="M754.76,301.58S752,365,744.47,379.6c-9.59,18.56-15-15.1-14-21.4S733.68,315.73,754.76,301.58Z" transform="translate(-650.53 -130.95)"/><path class="cls-1" d="M702.09,311.17s.47-.25.42-.09c-1.15,4.22.41,21.53,1.47,26,1.16,4.87-2.07-3.83-2.07-3.83Z" transform="translate(-650.53 -130.95)"/><path class="cls-1" d="M738.13,382.9s.12-.29.11.16c-.2,4.83-1.47,34.12-.39,39.09,1.17,5.43-3-6.93-3-6.93Z" transform="translate(-650.53 -130.95)"/><path class="cls-1" d="M792.86,325.88s-18.71,72.68-29.81,88.3c-14.12,19.88-15.35-21-12.79-28.11S768.51,338.85,792.86,325.88Z" transform="translate(-650.53 -130.95)"/><path class="cls-1" d="M755.32,418.84s.35-1.23.33-.73c-.23,5.39-4.21,34.72-3,40.26,1.32,6.05-3.36-6.67-3.36-6.67Z" transform="translate(-650.53 -130.95)"/><path class="cls-1" d="M814.77,359.23s-24.89,75.53-36,92.17c-14.1,21.17-13.29-24.67-9.39-37.3C773.4,401.17,790.44,373.05,814.77,359.23Z" transform="translate(-650.53 -130.95)"/><path class="cls-1" d="M771.07,456.36s.35-1.31.33-.78c-.22,5.75-4.17,37-2.95,42.89,1.32,6.45-3.37-7.11-3.37-7.11Z" transform="translate(-650.53 -130.95)"/><path class="cls-1" d="M829.81,396s-24.9,75.53-36,92.17c-14.1,21.18-13.28-24.67-9.39-37.29C788.43,437.91,805.48,409.8,829.81,396Z" transform="translate(-650.53 -130.95)"/><path class="cls-1" d="M786.11,493.11s.34-1.31.32-.78c-.22,5.74-4.15,38-2.94,43.92,1.33,6.45-4-8.37-4-8.37Z" transform="translate(-650.53 -130.95)"/><path class="cls-1" d="M855.38,428s-32.94,78.29-44,94.93c-14.1,21.18-11-30.82-7.06-43.45C808.29,466.53,831.05,441.8,855.38,428Z" transform="translate(-650.53 -130.95)"/><path class="cls-1" d="M805.21,527.51s.26-.71.24-.07c-.19,6.91-5.57,45.32-4.34,52.43,1.35,7.77-4.91-9.86-4.91-9.86Z" transform="translate(-650.53 -130.95)"/><path class="cls-1" d="M888.34,468.06s-13.38,28.25-30.52,52c-11.5,16-27,28.51-32.74,34.39-18.34,18.63-2.74-30.05,3.74-41.84C835.46,500.56,861.44,477.91,888.34,468.06Z" transform="translate(-650.53 -130.95)"/><path class="cls-1" d="M817.87,557.73s.25-.71.23-.07c-.19,6.92-5.9,48.43-4.31,55.49.38,1.67-5.29-12.6-5.29-12.6Z" transform="translate(-650.53 -130.95)"/><path class="cls-1" d="M903.82,507s-15,31.8-34.09,58.62c-12.8,18-29.88,32.23-36.29,38.87-20.32,21.06-2.61-33.65,4.64-46.93C845.5,544,874.24,518.34,903.82,507Z" transform="translate(-650.53 -130.95)"/><path class="cls-1" d="M936.62,571.39s-34.49,19.6-58.87,38.06c-28.59,21.66-33.65,24.12-42.16,26.79-27,8.43,13.49-44.2,25.68-51.86C873.77,576.53,906.05,568.09,936.62,571.39Z" transform="translate(-650.53 -130.95)"/><path class="cls-1" d="M825,609.58s.51-1.79.49-1.46c-.26,3.6-5.84,20-4.31,23.73.36.87-2.86-6.39-2.86-6.39Z" transform="translate(-650.53 -130.95)"/><path class="cls-1" d="M830.17,634.53s.52-.88.5-.72c-.3,1.78-6,9.91-4.54,11.72.35.43-2.8-3.15-2.8-3.15Z" transform="translate(-650.53 -130.95)"/><path class="cls-1" d="M663.88,272s22.31,40.92,33,49.86C696.86,321.81,690.54,295.3,663.88,272Z" transform="translate(-650.53 -130.95)"/><path class="cls-1" d="M652.34,291.72s29.44,29.34,39.89,32.71C692.23,324.43,678.79,301.15,652.34,291.72Z" transform="translate(-650.53 -130.95)"/><path class="cls-1" d="M677.37,252.84s7.24,51.88,19.51,66.75C696.88,319.59,707.19,291,677.37,252.84Z" transform="translate(-650.53 -130.95)"/><path class="cls-1" d="M652.46,310.45s35.49,38.63,45.93,49.27c2.45,2.5,3.91,3.49,4.64,3.43,2.18-.19-2.22-9.78-6-16.07C692,338.7,672.16,314.75,652.46,310.45Z" transform="translate(-650.53 -130.95)"/><path class="cls-1" d="M702.94,362.29s-.21-.19,0,.16c2.66,3.68,18.79,26,20.82,30.15,2.21,4.52-2-6.19-2-6.19Z" transform="translate(-650.53 -130.95)"/><path class="cls-1" d="M692,324s-.4-.08-.28.05c3.11,3.32,12.39,18.69,14.42,22.82,2.21,4.52-1.1-3.87-1.1-3.87Z" transform="translate(-650.53 -130.95)"/><path class="cls-1" d="M657.29,330S696,384,708.7,394.54c16.17,13.44-.57-17.09-4.8-22.25S677.22,336.5,657.29,330Z" transform="translate(-650.53 -130.95)"/><path class="cls-1" d="M692,324s-.4-.08-.28.05c3.11,3.32,12.39,18.69,14.42,22.82,2.21,4.52-1.1-3.87-1.1-3.87Z" transform="translate(-650.53 -130.95)"/><path class="cls-1" d="M714.13,395.68s-.23-.22,0,.16c2.94,4.12,20.81,29.07,23.13,33.65,2.53,5-2.4-6.81-2.4-6.81Z" transform="translate(-650.53 -130.95)"/><path class="cls-1" d="M650.53,361.23s52.92,57.69,68.19,68.18c19.44,13.35-3.85-22.28-9.42-27.72S671.56,365.86,650.53,361.23Z" transform="translate(-650.53 -130.95)"/><path class="cls-1" d="M725.72,431.35s-.91-1-.61-.54c3.28,4.59,22.67,28.83,25.25,33.94,2.83,5.58-2.05-6.67-2.05-6.67Z" transform="translate(-650.53 -130.95)"/><path class="cls-1" d="M658,395.94s58,58.48,73.86,69.85c20.19,14.47-7.13-24.88-16.68-34.73C705.39,421,679.51,401.31,658,395.94Z" transform="translate(-650.53 -130.95)"/><path class="cls-1" d="M739,468s-.95-1-.63-.58c3.48,4.9,24,30.8,26.76,36.22,3.05,5.92-2.3-7.05-2.3-7.05Z" transform="translate(-650.53 -130.95)"/><path class="cls-1" d="M671.24,431.72s58,58.48,73.86,69.85c20.19,14.47-7.13-24.88-16.68-34.73C718.64,456.75,692.76,437.09,671.24,431.72Z" transform="translate(-650.53 -130.95)"/><path class="cls-1" d="M752.27,503.77s-1-1-.63-.58c3.48,4.9,24.57,31.69,27.36,37.12,3,5.92-2.7-8.31-2.7-8.31Z" transform="translate(-650.53 -130.95)"/><path class="cls-1" d="M675.89,466.26S740,525,755.82,536.32c20.18,14.47-12-29.57-21.58-39.42C724.46,486.82,697.41,471.62,675.89,466.26Z" transform="translate(-650.53 -130.95)"/><path class="cls-1" d="M761.9,538.63s-.56-.55-.17,0c4.16,5.92,29.64,37.62,33.12,44.09,3.81,7.07-3.07-9.84-3.07-9.84Z" transform="translate(-650.53 -130.95)"/><path class="cls-1" d="M681.21,509.75s23.94,20.78,47.33,36.68c15.7,10.68,31.58,17.33,38.22,20.85,21,11.12-16.11-26.68-26.6-35.11C729.42,523.53,701.82,511,681.21,509.75Z" transform="translate(-650.53 -130.95)"/><path class="cls-1" d="M772.64,568.13s-.56-.54-.17,0c4.16,5.92,31.64,40.21,34.9,46.73.77,1.55-4.47-12.3-4.47-12.3Z" transform="translate(-650.53 -130.95)"/><path class="cls-1" d="M695.52,547.58S722.44,571,748.67,589c17.62,12.09,35.38,19.75,42.81,23.75C815,625.42,773.19,583,761.4,573.47,749.33,563.73,718.46,549.35,695.52,547.58Z" transform="translate(-650.53 -130.95)"/><path class="cls-1" d="M715.15,612s30.51,7.6,54.78,17c28.46,11,32.7,11.74,39,11.74,19.8,0-33.34-34.51-44.56-37.83C752.83,599.46,730.08,600.89,715.15,612Z" transform="translate(-650.53 -130.95)"/><path class="cls-1" d="M799.08,614.83A14.68,14.68,0,0,0,798,613.7c2.26,3,15,15.73,16.29,19.31.31.85-2.17-6.28-2.17-6.28Z" transform="translate(-650.53 -130.95)"/><path class="cls-1" d="M810.87,637.75s-.81-.62-.7-.49c1.21,1.46,9.13,6.93,9.38,8.9.05.47-.31-3.48-.31-3.48Z" transform="translate(-650.53 -130.95)"/><polygon class="cls-2" points="598.54 252.77 473.7 508.87 480.12 509.43 598.54 252.77"/><path class="cls-2" d="M1253.86,338.81s-8.7,34.85-4.79,44.91C1249.07,383.72,1262.84,364.59,1253.86,338.81Z" transform="translate(-650.53 -130.95)"/><path class="cls-2" d="M1227.33,346.21s7.21,30.68,15.11,37.18C1242.44,383.39,1246.64,363.25,1227.33,346.21Z" transform="translate(-650.53 -130.95)"/><path class="cls-2" d="M1281.84,332.65s-32.08,35.28-31.07,49.7C1250.77,382.35,1282.79,368.93,1281.84,332.65Z" transform="translate(-650.53 -130.95)"/><path class="cls-2" d="M1213.25,357.89s6.23,39,8.6,50c.56,2.59,1.27,3.82,2.05,4.09,2.32.81,5.19-7,6.18-12.51C1231.39,392.16,1229.7,368.9,1213.25,357.89Z" transform="translate(-650.53 -130.95)"/><path class="cls-2" d="M1224.46,411.44s-.07-.21-.09.11c-.13,3.41-.92,24.11-2,27.53-1.21,3.74,2.7-4.68,2.7-4.68Z" transform="translate(-650.53 -130.95)"/><path class="cls-2" d="M1242.48,383s-.33-.22-.31-.09c.58,3.38-1.77,16.85-2.88,20.27-1.21,3.74,1.83-2.87,1.83-2.87Z" transform="translate(-650.53 -130.95)"/><path class="cls-2" d="M1203.29,372.06s-2.22,49.92,2.49,61.85c6,15.18,12.38-10.86,12.06-15.86S1218.27,384.54,1203.29,372.06Z" transform="translate(-650.53 -130.95)"/><path class="cls-2" d="M1242.48,383s-.33-.22-.31-.09c.58,3.38-1.77,16.85-2.88,20.27-1.21,3.74,1.83-2.87,1.83-2.87Z" transform="translate(-650.53 -130.95)"/><path class="cls-2" d="M1210.35,436.91s-.08-.23-.09.12c-.18,3.8-1.21,26.85-2.36,30.67-1.26,4.18,2.75-5.24,2.75-5.24Z" transform="translate(-650.53 -130.95)"/><path class="cls-2" d="M1172.82,388.62s9.21,58.21,16.55,71.18c9.34,16.51,13-15.47,11.59-21.2S1190.35,400.39,1172.82,388.62Z" transform="translate(-650.53 -130.95)"/><path class="cls-2" d="M1194.9,464s-.18-1-.2-.59c-.19,4.24.83,27.49-.46,31.76-1.4,4.66,3-5,3-5Z" transform="translate(-650.53 -130.95)"/><path class="cls-2" d="M1154,413.33s13.71,60.85,21,74.62c9.23,17.52,11.72-18.47,9.63-28.63C1182.42,448.92,1171.44,425.76,1154,413.33Z" transform="translate(-650.53 -130.95)"/><path class="cls-2" d="M1180.44,492.35s-.18-1.05-.2-.64c-.22,4.52.64,29.27-.67,33.82-1.44,5,3-5.35,3-5.35Z" transform="translate(-650.53 -130.95)"/><path class="cls-2" d="M1140.11,441.15s13.7,60.85,21,74.62c9.23,17.53,11.73-18.47,9.64-28.62C1168.56,476.74,1157.57,453.59,1140.11,441.15Z" transform="translate(-650.53 -130.95)"/><path class="cls-2" d="M1166.57,520.17s-.17-1-.19-.63c-.23,4.52.55,30.08-.76,34.63-1.44,5,3.59-6.3,3.59-6.3Z" transform="translate(-650.53 -130.95)"/><path class="cls-2" d="M1118.59,464.57s19.6,63.54,26.85,77.32c9.23,17.52,10.38-23.45,8.29-33.61C1151.59,497.88,1136.05,477,1118.59,464.57Z" transform="translate(-650.53 -130.95)"/><path class="cls-2" d="M1149.78,545.89s-.15-.57-.18-.07c-.32,5.43,1.14,35.9-.28,41.39-1.54,6,4.39-7.41,4.39-7.41Z" transform="translate(-650.53 -130.95)"/><path class="cls-2" d="M1090.93,493.83s8.2,23,19.55,42.8c7.62,13.27,18.46,24.12,22.44,29.11,12.61,15.8,4.11-23.38,0-33C1128.72,522.78,1110.61,503.32,1090.93,493.83Z" transform="translate(-650.53 -130.95)"/><path class="cls-2" d="M1138.15,568.76s-.14-.57-.17-.07c-.32,5.43,1.18,38.35-.5,43.78-.4,1.29,4.85-9.53,4.85-9.53Z" transform="translate(-650.53 -130.95)"/><path class="cls-2" d="M1076.57,523.38s9.2,25.91,21.81,48.19c8.46,15,20.42,27.22,24.82,32.85,13.94,17.84,4.26-26.21-.33-37.1C1118.18,556.16,1098.18,534.18,1076.57,523.38Z" transform="translate(-650.53 -130.95)"/><path class="cls-2" d="M1047.39,571.69s24.76,17.62,41.95,33.69c20.16,18.85,23.82,21.12,30.08,23.76,19.81,8.38-7.2-35.53-15.91-42.34C1094.59,579.83,1070.74,571.1,1047.39,571.69Z" transform="translate(-650.53 -130.95)"/><path class="cls-2" d="M1129.22,608.94a8.23,8.23,0,0,0-.27-1.18c0,2.84,3,16.1,1.65,18.88-.34.66,2.59-4.81,2.59-4.81Z" transform="translate(-650.53 -130.95)"/><path class="cls-2" d="M1123.64,628.16s-.34-.73-.33-.6c.1,1.42,3.89,8.17,2.63,9.49-.29.32,2.33-2.29,2.33-2.29Z" transform="translate(-650.53 -130.95)"/><path class="cls-2" d="M1274.05,354.79s-19.66,30.62-28.33,36.92C1245.72,391.71,1252.29,371.35,1274.05,354.79Z" transform="translate(-650.53 -130.95)"/><path class="cls-2" d="M1281.44,371s-24.27,21.08-32.39,23C1249.05,394.07,1260.79,376.7,1281.44,371Z" transform="translate(-650.53 -130.95)"/><path class="cls-2" d="M1265.14,338.92s-9,40.2-19.29,51.05C1245.85,390,1240,366.85,1265.14,338.92Z" transform="translate(-650.53 -130.95)"/><path class="cls-2" d="M1280.08,385.72s-29.48,28-38.09,35.62c-2,1.8-3.2,2.48-3.75,2.38-1.63-.28,2.34-7.52,5.63-12.2C1248.25,405.28,1264.88,387.8,1280.08,385.72Z" transform="translate(-650.53 -130.95)"/><path class="cls-2" d="M1238.36,423.06s.18-.13,0,.12c-2.26,2.71-16,19.16-17.79,22.27-2,3.4,1.92-4.71,1.92-4.71Z" transform="translate(-650.53 -130.95)"/><path class="cls-2" d="M1249.27,393.77s.31,0,.21.06c-2.57,2.4-10.64,13.84-12.46,16.95-2,3.39,1.1-3,1.1-3Z" transform="translate(-650.53 -130.95)"/><path class="cls-2" d="M1275.1,400.71s-32.95,39.81-43.28,47.25c-13.14,9.48,1.59-13.36,5.14-17.13S1259.58,404.52,1275.1,400.71Z" transform="translate(-650.53 -130.95)"/><path class="cls-2" d="M1249.27,393.77s.31,0,.21.06c-2.57,2.4-10.64,13.84-12.46,16.95-2,3.39,1.1-3,1.1-3Z" transform="translate(-650.53 -130.95)"/><path class="cls-2" d="M1227.64,448.5s.19-.15,0,.13c-2.51,3-17.72,21.42-19.79,24.86-2.25,3.75,2.28-5.18,2.28-5.18Z" transform="translate(-650.53 -130.95)"/><path class="cls-2" d="M1278.09,425.66s-43.95,41.77-56.22,49c-15.61,9.19,4.43-17.22,9-21.12S1261.87,427.91,1278.09,425.66Z" transform="translate(-650.53 -130.95)"/><path class="cls-2" d="M1216.45,475.71s.75-.7.49-.39c-2.79,3.39-19.1,21.12-21.41,25-2.51,4.19,2-5.1,2-5.1Z" transform="translate(-650.53 -130.95)"/><path class="cls-2" d="M1270.09,452.39s-47.85,42-60.62,49.92c-16.26,10,7.08-19,15-26.14C1232.53,468.9,1253.44,455.18,1270.09,452.39Z" transform="translate(-650.53 -130.95)"/><path class="cls-2" d="M1203.89,503.56s.8-.75.52-.41c-3,3.61-20.22,22.57-22.7,26.64-2.71,4.45,2.22-5.37,2.22-5.37Z" transform="translate(-650.53 -130.95)"/><path class="cls-2" d="M1257.64,479.57s-47.85,42.05-60.62,49.92c-16.26,10,7.08-19,15-26.13C1220.08,496.09,1241,482.36,1257.64,479.57Z" transform="translate(-650.53 -130.95)"/><path class="cls-2" d="M1191.44,530.75s.8-.75.52-.42c-3,3.61-20.74,23.24-23.22,27.31-2.71,4.45,2.61-6.33,2.61-6.33Z" transform="translate(-650.53 -130.95)"/><path class="cls-2" d="M1251.77,506.34s-52.45,41.82-65.22,49.7c-16.25,10,11.1-22.4,19-29.49C1213.63,519.28,1235.13,509.13,1251.77,506.34Z" transform="translate(-650.53 -130.95)"/><path class="cls-2" d="M1181.79,557.44s.46-.38.13,0c-3.55,4.37-25,27.55-28.05,32.4-3.36,5.29,3-7.52,3-7.52Z" transform="translate(-650.53 -130.95)"/><path class="cls-2" d="M1244.8,540.09a455,455,0,0,1-38.3,25.66c-12.6,7.34-25.07,11.52-30.33,13.84-16.66,7.34,14-19.86,22.51-25.79C1207.39,547.74,1229.12,539.72,1244.8,540.09Z" transform="translate(-650.53 -130.95)"/><path class="cls-2" d="M1171.67,579.88s.45-.39.12,0c-3.55,4.37-26.66,29.45-29.57,34.35-.69,1.16,4.21-9.35,4.21-9.35Z" transform="translate(-650.53 -130.95)"/><path class="cls-2" d="M1231.41,568.81s-22,16.58-43,29c-14.15,8.32-28.1,13.16-34,15.82-18.67,8.4,15.86-22.13,25.42-28.82C1189.59,578,1213.93,568.7,1231.41,568.81Z" transform="translate(-650.53 -130.95)"/><path class="cls-2" d="M1212.18,618s-23.6,4-42.59,9.71c-22.28,6.73-25.54,7-30.27,6.65-15-1.3,27.57-24.88,36.28-26.75C1184.52,605.73,1201.64,608.34,1212.18,618Z" transform="translate(-650.53 -130.95)"/><path class="cls-2" d="M1148.49,614.75a12.29,12.29,0,0,1,.93-.81c-1.91,2.23-12.39,11.35-13.63,14.08-.29.64,2.07-4.79,2.07-4.79Z" transform="translate(-650.53 -130.95)"/><path class="cls-2" d="M1138,632s.66-.43.57-.33c-1,1.06-7.38,4.83-7.7,6.36-.07.36.47-2.71.47-2.71Z" transform="translate(-650.53 -130.95)"/><rect class="cls-3" x="143.72" width="360.57" height="621.52" rx="53.44"/><rect class="cls-4" x="159.5" y="24.27" width="328.05" height="579.31" rx="35.41"/><rect class="cls-3" x="230.48" y="10.99" width="180.14" height="29.31" rx="14.65"/><rect class="cls-4" x="281.76" y="13.52" width="79.74" height="11.13" rx="5.56"/><rect class="cls-5" x="188.28" y="98.55" width="276.39" height="82.74" rx="14.61"/><circle class="cls-2" cx="230.4" cy="139.35" r="29.78"/><rect class="cls-2" x="275.62" y="112.18" width="166.87" height="12.64" rx="6.32"/><rect class="cls-2" x="275.62" y="133.18" width="131.47" height="12.64" rx="6.32"/><rect class="cls-2" x="275.62" y="156.48" width="40.6" height="12.64" rx="6.32"/><rect class="cls-5" x="188.28" y="312.01" width="276.39" height="82.74" rx="14.61"/><circle class="cls-2" cx="230.4" cy="352.81" r="29.78"/><rect class="cls-2" x="275.62" y="325.65" width="166.87" height="12.64" rx="6.32"/><rect class="cls-2" x="275.62" y="346.65" width="131.47" height="12.64" rx="6.32"/><rect class="cls-2" x="275.62" y="369.95" width="40.6" height="12.64" rx="6.32"/><rect class="cls-5" x="188.28" y="413.25" width="276.39" height="82.74" rx="14.61"/><circle class="cls-2" cx="230.4" cy="454.04" r="29.78"/><rect class="cls-2" x="275.62" y="426.88" width="166.87" height="12.64" rx="6.32"/><rect class="cls-2" x="275.62" y="447.88" width="131.47" height="12.64" rx="6.32"/><rect class="cls-2" x="275.62" y="471.18" width="40.6" height="12.64" rx="6.32"/><rect class="cls-5" x="123.55" y="213.15" width="276.39" height="82.74" rx="14.61"/><rect class="cls-2" x="111.55" y="199.15" width="276.39" height="82.74" rx="14.61"/><circle class="cls-4" cx="153.67" cy="239.95" r="29.78"/><rect class="cls-4" x="198.89" y="212.78" width="166.87" height="12.64" rx="6.32"/><rect class="cls-4" x="198.89" y="233.78" width="131.47" height="12.64" rx="6.32"/><rect class="cls-4" x="198.89" y="257.08" width="40.6" height="12.64" rx="6.32"/><path class="cls-2" d="M938.27,925.22A10.59,10.59,0,0,1,927.89,918a19.71,19.71,0,0,1,.16-12.3c2.86-8.78,10.85-28.77,15.86-41.59A12,12,0,0,1,955,856.71l272.26-3s15.43-1.58,16.1,13.5.45,42,.45,42,2.06,10.3-12.38,10.54C1221.9,919.89,980.26,924.43,938.27,925.22Z" transform="translate(-650.53 -130.95)"/><path class="cls-5" d="M940,914.2a15.77,15.77,0,0,1-7.3-1.56c-3.43-1.72-7-5.18-4.76-11.94,2.84-8.78,12.86-34.78,17.84-47.6a11.9,11.9,0,0,1,11-7.41l270.53-2.94s15.33-1.58,16,13.5.46,42,.46,42,2,10.3-12.31,10.54C1221.62,908.9,966.52,913.7,940,914.2Z" transform="translate(-650.53 -130.95)"/><ellipse class="cls-4" cx="983.62" cy="879.03" rx="36.97" ry="26.33" transform="translate(-660.05 -120.18) rotate(-0.62)"/><rect class="cls-4" x="1035.48" y="854.47" width="187.04" height="10.3" rx="5.15" transform="translate(-659.83 -118.6) rotate(-0.62)"/><rect class="cls-4" x="1032.52" y="872.67" width="142.79" height="8.78" rx="4.39" transform="translate(-660.02 -118.87) rotate(-0.62)"/><rect class="cls-4" x="1030.04" y="894.72" width="56.16" height="7.18" rx="3.59" transform="translate(-660.25 -119.37) rotate(-0.62)"/><path class="cls-2" d="M925.27,897.22A10.59,10.59,0,0,1,914.89,890a19.71,19.71,0,0,1,.16-12.3c2.86-8.78,10.85-28.77,15.86-41.59A12,12,0,0,1,942,828.71l272.26-3s15.43-1.58,16.1,13.5.45,42,.45,42,2.06,10.3-12.38,10.54C1208.9,891.89,967.26,896.43,925.27,897.22Z" transform="translate(-650.53 -130.95)"/><path class="cls-5" d="M927,886.2a15.77,15.77,0,0,1-7.3-1.56c-3.43-1.72-7-5.18-4.76-11.94,2.84-8.78,12.86-34.78,17.84-47.6a11.9,11.9,0,0,1,11-7.41l270.53-2.94s15.33-1.58,16,13.5.46,42,.46,42,2,10.3-12.31,10.54C1208.62,880.9,953.52,885.7,927,886.2Z" transform="translate(-650.53 -130.95)"/><ellipse class="cls-4" cx="970.62" cy="851.03" rx="36.97" ry="26.33" transform="translate(-659.74 -120.32) rotate(-0.62)"/><rect class="cls-4" x="1022.48" y="826.47" width="187.04" height="10.3" rx="5.15" transform="translate(-659.52 -118.74) rotate(-0.62)"/><rect class="cls-4" x="1019.52" y="844.67" width="142.79" height="8.78" rx="4.39" transform="translate(-659.71 -119.01) rotate(-0.62)"/><rect class="cls-4" x="1017.04" y="866.72" width="56.16" height="7.18" rx="3.59" transform="translate(-659.95 -119.51) rotate(-0.62)"/><path class="cls-2" d="M951.86,873.06a10.13,10.13,0,0,1-9.89-7.22,20.65,20.65,0,0,1,.15-12.29c2.72-8.78,10.32-28.77,15.08-41.59a11.42,11.42,0,0,1,10.57-7.4l259.29-2.82s14.69-1.58,15.33,13.51.46,42,.46,42,2,10.31-11.79,10.53C1222,867.88,991.84,872.29,951.86,873.06Z" transform="translate(-650.53 -130.95)"/><path class="cls-5" d="M953.5,862a14.2,14.2,0,0,1-7-1.57c-3.26-1.72-6.62-5.17-4.54-11.93,2.7-8.78,12.23-34.78,17-47.6a11.31,11.31,0,0,1,10.5-7.39l257.62-2.81s14.6-1.58,15.24,13.51.46,42,.46,42,2,10.31-11.71,10.53C1221.69,856.88,978.76,861.55,953.5,862Z" transform="translate(-650.53 -130.95)"/><ellipse class="cls-4" cx="995.03" cy="826.9" rx="35.21" ry="26.33" transform="translate(-659.48 -120.06) rotate(-0.62)"/><rect class="cls-4" x="1044.41" y="802.41" width="178.12" height="10.3" rx="5.15" transform="translate(-659.26 -118.55) rotate(-0.62)"/><rect class="cls-4" x="1041.59" y="820.59" width="135.98" height="8.78" rx="4.39" transform="matrix(1, -0.01, 0.01, 1, -659.45, -118.81)"/><rect class="cls-4" x="1039.24" y="842.62" width="53.49" height="7.18" rx="3.59" transform="translate(-659.68 -119.29) rotate(-0.62)"/><path class="cls-2" d="M916.42,846.53a10.12,10.12,0,0,1-9.81-7.32,20.75,20.75,0,0,1,.28-12.3c2.82-8.74,10.63-28.65,15.54-41.41a11.39,11.39,0,0,1,10.65-7.29h259.3s14.71-1.41,15.18,13.68,0,42,0,42,1.86,10.32-11.9,10.4C1186.57,844.3,956.41,846.2,916.42,846.53Z" transform="translate(-650.53 -130.95)"/><path class="cls-5" d="M918.18,835.53a14.26,14.26,0,0,1-6.94-1.64c-3.25-1.76-6.57-5.25-4.42-12,2.8-8.74,12.62-34.64,17.49-47.4a11.33,11.33,0,0,1,10.58-7.29h257.64s14.62-1.41,15.09,13.68,0,42,0,42,1.84,10.32-11.82,10.4C1186.41,833.3,943.44,835.32,918.18,835.53Z" transform="translate(-650.53 -130.95)"/><ellipse class="cls-4" cx="309.56" cy="669.89" rx="35.21" ry="26.33"/><rect class="cls-4" x="359.14" y="646.91" width="178.12" height="10.3" rx="5.15"/><rect class="cls-4" x="356.14" y="664.84" width="135.98" height="8.78" rx="4.39"/><rect class="cls-4" x="353.56" y="686.39" width="53.49" height="7.18" rx="3.59"/></svg>