<svg id="Layer_2" data-name="Layer 2" xmlns="http://www.w3.org/2000/svg" viewBox="0 0 641.08 949.5"><defs><style>.cls-1{fill:#f8f8ff;}.cls-2{fill:#fff;}.cls-3{fill:#e9edfb;}.cls-4{fill:#bac5f4;}</style></defs><title>bg20</title><path class="cls-1" d="M701.64,733.54S618.62,311,816,229.3,946.72,55.17,1060.67,65.92s178.44,155,195.64,289.27,83.48,450.25-26.69,486.29c-132.78,43.43-150.81,179.19-265.77,172.88C741,1002.11,701.64,733.54,701.64,733.54Z" transform="translate(-667.71 -65.06)"/><path class="cls-2" d="M690.92,658.82l590.07-5s-200.56,7.65-202.51,72.74-25.38,121-113.21,127.68S818.11,753.75,705.66,754.34C629.94,754.73,690.92,658.82,690.92,658.82Z" transform="translate(-667.71 -65.06)"/><path class="cls-3" d="M1291.79,655.82l-600.87,3S797.61,527.05,888.81,552.38c64.41,17.88,32.4-96.24,122.27-103s8.55,64,123.6,63.44C1212.16,512.43,1291.79,655.82,1291.79,655.82Z" transform="translate(-667.71 -65.06)"/><path class="cls-4" d="M1245.55,654.79h63.24s-6.15-22.84-25.47-22-19.33,11-19.33,11S1242.91,642.49,1245.55,654.79Z" transform="translate(-667.71 -65.06)"/><path class="cls-4" d="M667.71,679.29h91.36s-1.76-14.93-12.3-14.93-9.66-35.14-33.38-36S674.74,638.88,667.71,679.29Z" transform="translate(-667.71 -65.06)"/></svg>