<svg id="Layer_3" data-name="Layer 3" xmlns="http://www.w3.org/2000/svg" xmlns:xlink="http://www.w3.org/1999/xlink" viewBox="0 0 667.81 949.5"><defs><style>.cls-1{fill:#f8f8ff;}.cls-2{fill:#e9edfb;}.cls-3{fill:url(#linear-gradient);}.cls-4{fill:#bac5f4;}.cls-5{fill:#e1e6fb;}.cls-6{fill:#fff;}.cls-7{fill:none;stroke:#bac5f4;stroke-miterlimit:10;stroke-width:2px;}.cls-8{fill:#b1c1f2;}.cls-9{fill:#bac6f2;}.cls-10{fill:url(#linear-gradient-2);}</style><linearGradient id="linear-gradient" x1="622.26" y1="514.65" x2="1212.33" y2="514.65" gradientUnits="userSpaceOnUse"><stop offset="0.41" stop-color="#fff"/><stop offset="1" stop-color="#fff" stop-opacity="0"/></linearGradient><linearGradient id="linear-gradient-2" x1="120.58" y1="611.33" x2="342.48" y2="611.33" gradientUnits="userSpaceOnUse"><stop offset="0.31" stop-color="#fff"/><stop offset="1" stop-color="#fff" stop-opacity="0"/></linearGradient></defs><title>bg21</title><path class="cls-1" d="M633,692.81S550,270.25,747.33,188.57,878.06,14.44,992,25.19s178.44,155,195.64,289.27,83.48,450.25-26.69,486.29C1028.18,844.18,1010.15,980,895.18,973.63,672.31,961.38,633,692.81,633,692.81Z" transform="translate(-599.05 -24.34)"/><path class="cls-2" d="M622.26,618.09l590.07-5s-200.56,7.64-202.51,72.73-25.38,121-113.21,127.68S749.44,713,637,713.61C561.28,714,622.26,618.09,622.26,618.09Z" transform="translate(-599.05 -24.34)"/><path class="cls-3" d="M622.26,618.09l590.07-5s-107.09-123.75-196.22-98.42c-63,17.89-31.67-96.23-119.5-103s-8.36,64-120.8,63.43C700.09,474.7,622.26,618.09,622.26,618.09Z" transform="translate(-599.05 -24.34)"/><path class="cls-4" d="M887.94,682.18h63.25s-6.15-22.84-25.47-22-19.33,11-19.33,11S885.31,669.88,887.94,682.18Z" transform="translate(-599.05 -24.34)"/><path class="cls-4" d="M941.53,653.19h91.36s-1.76-14.94-12.3-14.94-9.66-35.13-33.38-36S948.56,612.78,941.53,653.19Z" transform="translate(-599.05 -24.34)"/><polygon class="cls-5" points="140.47 345.33 144.92 352.08 120.58 593.81 259.42 593.81 232.37 351.6 236.99 345.33 140.47 345.33"/><polygon class="cls-4" points="236.32 387.02 141.22 387.02 141.88 380.47 235.59 380.47 236.32 387.02"/><path class="cls-2" d="M1078.36,158.67h94.4c15.17,0,23.82-17.76,14.06-29.38-5.7-6.79-16.12-11.87-34.78-11.14,0,0-26.06-49.5-62.59-.07,0,0-30-3-32.35,16.28,0,.19,0,.39-.07.57A21.44,21.44,0,0,0,1078.36,158.67Z" transform="translate(-599.05 -24.34)"/><path class="cls-2" d="M644.22,278.77H751.91c17.3,0,27.17-20.27,16-33.52-6.51-7.74-18.39-13.54-39.68-12.7,0,0-29.73-56.48-71.4-.08,0,0-34.28-3.39-36.9,18.57,0,.22-.06.43-.08.65A24.45,24.45,0,0,0,644.22,278.77Z" transform="translate(-599.05 -24.34)"/><polygon class="cls-5" points="152.23 328.73 152.75 296.65 227.25 296.65 227.25 327.46 152.23 328.73"/><polygon class="cls-4" points="243.72 457.32 135.27 457.32 136.07 450.77 242.88 450.77 243.72 457.32"/><polygon class="cls-4" points="252.88 535.28 126.42 535.28 127.08 528.73 252.15 528.73 252.88 535.28"/><polygon class="cls-4" points="140.47 345.33 139.77 334.64 133.76 329.01 133.76 324.93 246.29 324.93 246.29 329.06 239.85 333.55 236.99 345.33 140.47 345.33"/><path class="cls-6" d="M784.57,342.73h9.06v-8.15s-4.07-6.79-9.06,0Z" transform="translate(-599.05 -24.34)"/><rect class="cls-7" x="134.76" y="314.54" width="13.53" height="12.22"/><rect class="cls-7" x="148.76" y="314.54" width="13.53" height="12.22"/><rect class="cls-7" x="162.76" y="314.54" width="13.53" height="12.22"/><rect class="cls-7" x="176.76" y="314.54" width="13.53" height="12.22"/><rect class="cls-7" x="189.76" y="314.54" width="13.53" height="12.22"/><rect class="cls-7" x="203.76" y="314.54" width="13.53" height="12.22"/><rect class="cls-7" x="217.76" y="314.54" width="13.53" height="12.22"/><rect class="cls-7" x="231.76" y="314.54" width="13.53" height="12.22"/><path class="cls-4" d="M750.81,320.9l-3.48-1c-1-.41-2.14-2-1.37-2.71l36.6-34.77a1.47,1.47,0,0,0,.22-1.89c-.83-1.18-1.57-3.18,1.87-4.14,5.07-1.42,2.35-9.53,3.38-9.53s-.33,6.49,1.69,8.11,6.27,2.13,3.72,5.71a1.46,1.46,0,0,0,.21,1.92l36.56,34a1.49,1.49,0,0,1-.28,2.38l-3.29,1.86a1.53,1.53,0,0,1-.73.19H751.8A2,2,0,0,1,750.81,320.9Z" transform="translate(-599.05 -24.34)"/><path class="cls-8" d="M1186.08,654.2,1186,445.34s-100.39-7.94-85.55-70.82c9.77-41.41,42.81-44.67,42-66.5-.57-15.78,13.77-80.36,57.1-45.17,34.23,27.79,18.15,50.72,35.83,54,18.11,3.34,40.2,33.79,27.92,51.65s1.39,18.53,1.39,27.46,7.26,34.89-29.58,41.59-44,8.84-44,8.84l3.1,207.84Z" transform="translate(-599.05 -24.34)"/><path class="cls-9" d="M1130.23,656l.1-176.78s71.33-6.72,60.79-59.95c-6.94-35.07-30.42-37.82-29.85-56.31.41-13.36-9.78-68-40.57-38.24-24.33,23.53-12.9,42.94-25.46,45.69-12.87,2.83-28.56,28.61-19.84,43.73s-1,15.69-1,23.25-5.16,29.54,21,35.22,31.25,7.48,31.25,7.48l-2,176Z" transform="translate(-599.05 -24.34)"/><path class="cls-8" d="M1154,662l0-105.11s-34.61-4-29.49-35.72c3.36-20.89,14.75-22.53,14.48-33.55-.2-8,4.74-40.53,19.68-22.78,11.8,14,6.26,25.58,12.35,27.22,6.25,1.69,13.86,17.05,9.63,26.06s.48,9.34.48,13.85,2.5,17.6-10.2,21-13.06,3.43-13.06,3.43l.21,105.33Z" transform="translate(-599.05 -24.34)"/><polyline class="cls-10" points="120.58 593.81 342.48 628.85 259.42 593.81"/></svg>