<svg id="Layer_2" data-name="Layer 2" xmlns="http://www.w3.org/2000/svg" xmlns:xlink="http://www.w3.org/1999/xlink" viewBox="0 0 837.25 731.38"><defs><style>.cls-1{fill:#f8f8ff;}.cls-2{fill:#b0c0f4;}.cls-3{fill:url(#linear-gradient);}.cls-4{fill:#bac5f4;}.cls-10,.cls-12,.cls-13,.cls-5,.cls-6,.cls-8,.cls-9{fill:none;stroke-miterlimit:10;}.cls-10,.cls-5,.cls-6,.cls-8,.cls-9{stroke:#fff;}.cls-5,.cls-6,.cls-8,.cls-9{stroke-linecap:round;}.cls-6{stroke-dasharray:6.35 6.35;}.cls-7{fill:#fff;}.cls-8{stroke-dasharray:8.03 8.03;}.cls-9{stroke-dasharray:8.42 8.42;}.cls-10{stroke-width:4px;}.cls-11{fill:#e1e6fb;}.cls-12,.cls-13{stroke:#bac5f4;}.cls-13{stroke-dasharray:7.86 7.86;}</style><linearGradient id="linear-gradient" x1="116.32" y1="219.93" x2="112.48" y2="591.05" gradientUnits="userSpaceOnUse"><stop offset="0.03" stop-color="#fff"/><stop offset="1" stop-color="#fff" stop-opacity="0"/></linearGradient></defs><title>bg22</title><rect class="cls-1" x="171.58" y="31.14" width="491.79" height="700.24" rx="245.9"/><path class="cls-2" d="M851.59,373.37s18.72-19.35,22-42.49,24.23-28.63,38.55-24.23S939.7,351.13,975,350.92s94.73-28.85,96.93-36.56,5.51-22,29.74-25.33,25.33-26.44,60.58-26.44,97.3,5.91,102.81,8.11,31.54,5.86,37,36.38c0,0,4.43,12.84-3.28,49.16s46.26,59.46,59.48,59.46,51.77,81.51,8.81,150.9-37.45,95.82-82.61,68.29-40.75,1.1-45.16-27.54-26.43-13.22-33-28.64,16.52-46.26,1.1-52.87-54,5.51-61.68-34.14-55.08,7.71-33,44.06-24.23,8.81-24.23,30.84-26.43,39.65-13.22,56.17,47.37,109.05-58.37,106.84-46.27,18.73-68.29,20.93S914.37,723,879.12,723s-156.4-6.6-153.1-59.47,35.08-43,34.61-89.22-53.79-99.69,26.84-148.43S851.59,373.37,851.59,373.37Z" transform="translate(-640.35 -157.14)"/><rect class="cls-3" x="30.32" y="93.85" width="170.49" height="398.17"/><circle class="cls-4" cx="120.28" cy="138.22" r="26.84"/><rect class="cls-4" x="46.42" y="193.78" width="96.27" height="10.65" rx="4.62"/><rect class="cls-4" x="165.19" y="193.78" width="23.76" height="10.65" rx="4.62"/><rect class="cls-4" x="46.42" y="216.23" width="66.61" height="10.65" rx="4.62"/><rect class="cls-4" x="177.06" y="216.23" width="11.88" height="10.65" rx="4.62"/><rect class="cls-4" x="47.25" y="241.18" width="106.35" height="10.65" rx="4.62"/><rect class="cls-4" x="172.73" y="241.18" width="17.04" height="10.65" rx="4.62"/><rect class="cls-4" x="47.25" y="263.42" width="89.19" height="10.65" rx="4.62"/><rect class="cls-4" x="166.02" y="263.42" width="23.76" height="10.65" rx="4.62"/><rect class="cls-4" x="47.25" y="286.7" width="53.18" height="10.65" rx="4.62"/><rect class="cls-4" x="156.99" y="286.7" width="32.79" height="10.65" rx="4.62"/><rect class="cls-4" x="47.25" y="309.15" width="87.07" height="10.65" rx="4.62"/><rect class="cls-4" x="166.02" y="309.15" width="23.76" height="10.65" rx="4.62"/><path class="cls-2" d="M1127.53,635.21a31.14,31.14,0,0,1,4.73-36.13c6.33-6.74,11.48-15.49,11.06-25.9-1-26,23.92-35.35,28.08-23.91s2.08,51,18.71,54.07,41.6,22,21.84,45.82-28.07-13.59-19.76,23.85-39.51,68.26-51,39.84-46.74-18.36-21.83-37.76C1136,662.12,1133.87,647.05,1127.53,635.21Z" transform="translate(-640.35 -157.14)"/><path class="cls-5" d="M1240.56,330.9l2.74-2.9" transform="translate(-640.35 -157.14)"/><path class="cls-6" d="M1247.66,323.39c4.06-4.31,9.47-10.08,15.18-16.21" transform="translate(-640.35 -157.14)"/><path class="cls-5" d="M1265,304.85l2.72-2.94" transform="translate(-640.35 -157.14)"/><circle class="cls-7" cx="627.37" cy="142.27" r="7.68"/><circle class="cls-7" cx="591.38" cy="182.01" r="7.68"/><path class="cls-5" d="M854,535.24s.39-1.33,1.34-3.76" transform="translate(-640.35 -157.14)"/><path class="cls-8" d="M858.58,524.12c15.31-31.94,75.15-123.33,266.42-149.7" transform="translate(-640.35 -157.14)"/><path class="cls-5" d="M1129,373.88l4-.51" transform="translate(-640.35 -157.14)"/><path class="cls-5" d="M846.26,543.47s.73,1.23,2.07,3.41" transform="translate(-640.35 -157.14)"/><path class="cls-9" d="M852.79,554c11.71,18.44,37.23,56.33,60.37,75.28" transform="translate(-640.35 -157.14)"/><path class="cls-5" d="M916.48,631.9c1.09.82,2.18,1.59,3.26,2.3" transform="translate(-640.35 -157.14)"/><circle class="cls-10" cx="205.91" cy="385.18" r="34.33"/><circle class="cls-7" cx="205.91" cy="386.33" r="13.62"/><circle class="cls-10" cx="554.14" cy="212.17" r="34.33"/><circle class="cls-7" cx="554.14" cy="213.33" r="13.62"/><circle class="cls-7" cx="505.06" cy="215.08" r="7.68"/><circle class="cls-7" cx="279.39" cy="477.07" r="7.68"/><rect class="cls-1" x="298.95" y="477.07" width="84.86" height="5.32" rx="2.31"/><rect class="cls-1" x="298.95" y="492.02" width="84.86" height="5.32" rx="2.31"/><rect class="cls-1" x="298.95" y="510.86" width="84.86" height="5.32" rx="2.31"/><rect class="cls-1" x="298.95" y="525.87" width="54.34" height="5.32" rx="2.31"/><rect class="cls-11" x="636.2" y="153.28" width="84.86" height="5.32" rx="2.31"/><rect class="cls-11" x="636.2" y="168.23" width="84.86" height="5.32" rx="2.31"/><rect class="cls-11" x="636.2" y="187.07" width="84.86" height="5.32" rx="2.31"/><rect class="cls-11" x="636.2" y="202.08" width="54.34" height="5.32" rx="2.31"/><path class="cls-12" d="M927.42,634.2s1.39.23,4,.55" transform="translate(-640.35 -157.14)"/><path class="cls-13" d="M939.19,635.6c55,5.24,283.45,11.82,256.22-243.63" transform="translate(-640.35 -157.14)"/><path class="cls-12" d="M1195,388.05c-.15-1.32-.31-2.64-.48-4" transform="translate(-640.35 -157.14)"/><path class="cls-2" d="M1356.26,387.22s-16.25-16.53-1-28.23,19.34-11,19.47.66-11.28,13.43-4.37,25.72-1.45,15.51-6.62,12.84S1356.26,387.22,1356.26,387.22Z" transform="translate(-640.35 -157.14)"/><path class="cls-2" d="M1353.5,391s1,9,9.13,12.87,21.93,13,20.71,20.25-17.38-13-22.44-11.22-16.12-4.85-19.44-13.36-2.69-15.28,2.33-15.22S1353.5,391,1353.5,391Z" transform="translate(-640.35 -157.14)"/><path class="cls-1" d="M1325.1,241.85H1453c20.54,0,32.25-24.06,19-39.8-7.72-9.19-21.84-16.08-47.1-15.08,0,0-35.31-67-84.78-.1,0,0-40.7-4-43.82,22l-.09.77A29,29,0,0,0,1325.1,241.85Z" transform="translate(-640.35 -157.14)"/><path class="cls-1" d="M669.42,817.4H797.28c20.54,0,32.25-24.06,19-39.79-7.73-9.2-21.84-16.08-47.11-15.09,0,0-35.3-67-84.78-.09,0,0-40.69-4-43.81,22.05,0,.26-.06.52-.09.77A29,29,0,0,0,669.42,817.4Z" transform="translate(-640.35 -157.14)"/></svg>