<svg xmlns="http://www.w3.org/2000/svg" viewBox="0 0 487.87 339"><defs><style>.cls-1{fill:#e1e6fb;}.cls-2,.cls-6,.cls-8{fill:#bac5f4;}.cls-3{fill:#f8f8ff;}.cls-4,.cls-7{fill:#fff;}.cls-5{fill:#f5f5fc;}.cls-6,.cls-7,.cls-8{font-size:28px;font-family:RevaloModernBold, Revalo ModernBold;}.cls-8{letter-spacing:-0.01em;}.cls-9{letter-spacing:0em;}</style></defs><title>bg4</title><g id="Layer_2" data-name="Layer 2"><rect class="cls-1" x="754.46" y="465.39" width="17.92" height="16.72" transform="translate(-847.6 274.58) rotate(-45)"/><rect class="cls-1" x="768.46" y="480.39" width="17.92" height="16.72" transform="translate(-854.11 288.88) rotate(-45)"/><rect class="cls-1" x="771.46" y="450.39" width="17.92" height="16.72" transform="translate(-832.02 282.21) rotate(-45)"/><rect class="cls-1" x="1171.46" y="666.39" width="17.92" height="16.72" transform="translate(-867.59 628.32) rotate(-45)"/><rect class="cls-1" x="1185.46" y="681.39" width="17.92" height="16.72" transform="translate(-874.1 642.61) rotate(-45)"/><rect class="cls-1" x="1170.46" y="696.39" width="17.92" height="16.72" transform="translate(-889.1 636.4) rotate(-45)"/><rect class="cls-2" x="124.79" width="122" height="63"/><rect class="cls-1" x="51.79" y="236" width="46" height="102"/><path class="cls-1" d="M810,649s-40-65-42-82-4-23-4-23,12-2,16,7,16-2,20,22c0,0,1,12,10,8S810,649,810,649Z" transform="translate(-736.21 -404)"/><path class="cls-2" d="M815,659s-28.56-53-38-74c-7-15.58-13-41-13-41s-12.06,4.42-11,14c1,9-8,12-6,23,2.16,11.9,19.36,14.13,9,25-6.29,6.59-1.57,17.84,3,25,2.93,4.58,17.38,8.75,14,7C765.26,634,815,659,815,659Z" transform="translate(-736.21 -404)"/><ellipse class="cls-2" cx="786" cy="591" rx="2" ry="26" transform="translate(-911.32 -21.21) rotate(-24.72)"/><path class="cls-1" d="M823.59,691.49s-60.9-46-68.94-61.11-12.09-20-12.09-20,10.45-6.23,17.45.7,14.18-7.68,26.63,13.22c0,0,1.37,14.67,10.37,11.67C806.34,632.89,823.59,691.49,823.59,691.49Z" transform="translate(-736.21 -404)"/><path class="cls-3" d="M831.88,699S786,660,769.57,643.87c-12.19-12-27-33.47-27-33.47s-9.63,8.51-5.16,17c4.2,8-3.09,14.09,2.78,23.61,6.34,10.3,23.18,6.12,17.48,20-3.46,8.43,5,17.19,11.89,22.2,4.39,3.2,19.37,1.83,15.59,1.43C776.45,693.79,831.88,699,831.88,699Z" transform="translate(-736.21 -404)"/><ellipse class="cls-1" cx="774.09" cy="658.21" rx="2" ry="26" transform="translate(-973.25 354.55) rotate(-46.04)"/><path class="cls-1" d="M1141,569.09s47.54-77.3,50.59-97.89,5.57-27.81,5.57-27.81-13.2-3-18.08,7.8-17.63-3.15-23.25,25.87c0,0-1.7,14.56-11.48,9.29S1141,569.09,1141,569.09Z" transform="translate(-736.21 -404)"/><path class="cls-2" d="M1135,581s34.27-63.21,45.76-88.34c8.53-18.65,16.43-49.31,16.43-49.31s13.15,5.93,11.5,17.53c-1.55,10.91,8.27,15,5.51,28.26-3,14.38-22.16,16.32-11.21,30,6.64,8.31.86,21.78-4.56,30.29-3.47,5.44-19.69,9.86-15.86,7.89C1191.32,552.85,1135,581,1135,581Z" transform="translate(-736.21 -404)"/><path class="cls-2" d="M1168.49,498.49c-7.3,15.6-12.33,28.74-11.24,29.35s7.89-11.55,15.19-27.15,12.33-28.74,11.24-29.35S1175.78,482.88,1168.49,498.49Z" transform="translate(-736.21 -404)"/><path class="cls-3" d="M1123.84,620.18s69.76-53.24,79.42-71.26,14.38-23.76,14.38-23.76-11.27-8-19.37.07-15.33-10-30.16,14.89c0,0-2.24,17.79-12.07,13.73C1145.85,549.64,1123.84,620.18,1123.84,620.18Z" transform="translate(-736.21 -404)"/><path class="cls-1" d="M1114.28,628.93s52.77-45.38,71.77-64.26c14.1-14,31.59-39.51,31.59-39.51s10.25,10.79,4.87,21c-5.06,9.57,2.73,17.28-4.24,28.6-7.54,12.24-26,6.41-20.35,23.57,3.42,10.41-6.42,20.7-14.27,26.48-5,3.7-21.55,1.35-17.34,1C1176,625.1,1114.28,628.93,1114.28,628.93Z" transform="translate(-736.21 -404)"/><path class="cls-4" d="M1184.38,576.16c-11.44,12.16-20,22.81-19.16,23.78s10.81-8.11,22.25-20.28,20-22.81,19.16-23.78S1195.82,564,1184.38,576.16Z" transform="translate(-736.21 -404)"/><rect class="cls-2" x="105.79" y="236" width="77" height="102"/><rect class="cls-1" x="273.79" y="237" width="77" height="102"/><rect class="cls-1" x="253.79" width="50" height="64"/><rect class="cls-2" x="70.79" y="53" width="349" height="257"/><rect class="cls-3" x="79.79" y="53" width="340" height="257"/><rect class="cls-4" x="82.79" y="57" width="333" height="18"/><rect class="cls-1" x="82.79" y="74" width="333" height="232"/></g><g id="Layer_3" data-name="Layer 3"><rect class="cls-2" x="137.79" y="83" width="41" height="46"/><rect class="cls-2" x="183.79" y="83" width="41" height="46"/><rect class="cls-2" x="228.79" y="83" width="41" height="46"/><rect class="cls-4" x="274.79" y="83" width="41" height="46"/><rect class="cls-4" x="319.79" y="83" width="41" height="46"/><rect class="cls-4" x="365.79" y="83" width="41" height="46"/><rect class="cls-4" x="137.79" y="136" width="41" height="46"/><rect class="cls-4" x="183.79" y="136" width="41" height="46"/><rect class="cls-3" x="228.79" y="136" width="41" height="46"/><rect class="cls-4" x="274.79" y="136" width="41" height="46"/><rect class="cls-4" x="319.79" y="136" width="41" height="46"/><rect class="cls-4" x="365.79" y="136" width="41" height="46"/><rect class="cls-4" x="137.79" y="187" width="41" height="46"/><rect class="cls-4" x="183.79" y="187" width="41" height="46"/><rect class="cls-3" x="228.79" y="187" width="41" height="46"/><rect class="cls-4" x="274.79" y="187" width="41" height="46"/><rect class="cls-3" x="319.79" y="187" width="41" height="46"/><rect class="cls-4" x="365.79" y="187" width="41" height="46"/><rect class="cls-3" x="138.79" y="239" width="41" height="46"/><rect class="cls-3" x="184.79" y="239" width="41" height="46"/><rect class="cls-4" x="229.79" y="239" width="41" height="46"/><rect class="cls-4" x="275.79" y="239" width="41" height="46"/><rect class="cls-2" x="320.79" y="239" width="41" height="46"/><rect class="cls-4" x="366.79" y="239" width="41" height="46"/><circle class="cls-2" cx="92.29" cy="66.5" r="3.5"/><circle class="cls-2" cx="103.29" cy="66.5" r="3.5"/><circle class="cls-2" cx="114.29" cy="66.5" r="3.5"/><rect class="cls-4" x="92.79" y="135" width="37" height="9" rx="4.5" ry="4.5"/><rect class="cls-4" x="92.79" y="187" width="37" height="9" rx="4.5" ry="4.5"/><rect class="cls-4" x="92.79" y="239" width="37" height="9" rx="4.5" ry="4.5"/><rect class="cls-2" x="141.79" y="139" width="23" height="7" rx="3.5" ry="3.5"/><rect class="cls-2" x="141.79" y="152" width="12" height="5" rx="2.5" ry="2.5"/><rect class="cls-2" x="188.79" y="139" width="22" height="6" rx="3" ry="3"/><rect class="cls-4" x="324.79" y="246" width="22" height="6" rx="3" ry="3"/><rect class="cls-5" x="369.79" y="192" width="22" height="6" rx="3" ry="3"/><rect class="cls-5" x="368.79" y="140" width="22" height="6" rx="3" ry="3"/><rect class="cls-5" x="323.79" y="140" width="22" height="6" rx="3" ry="3"/><circle class="cls-2" cx="192.79" cy="153" r="4"/><circle class="cls-2" cx="283.79" cy="146" r="4"/><circle class="cls-2" cx="297.79" cy="146" r="4"/><circle class="cls-2" cx="297.79" cy="196" r="4"/><circle class="cls-2" cx="283.79" cy="196" r="4"/><circle class="cls-2" cx="296.79" cy="247" r="4"/><circle class="cls-2" cx="282.79" cy="247" r="4"/><circle class="cls-2" cx="160.79" cy="248" r="4"/><circle class="cls-2" cx="146.79" cy="248" r="4"/><circle class="cls-2" cx="283.79" cy="92" r="4"/><circle class="cls-4" cx="236.79" cy="92" r="4"/><circle class="cls-4" cx="250.79" cy="92" r="4"/><circle class="cls-4" cx="191.79" cy="92" r="4"/><circle class="cls-4" cx="205.79" cy="92" r="4"/><circle class="cls-4" cx="146.79" cy="92" r="4"/><circle class="cls-4" cx="160.79" cy="92" r="4"/><text class="cls-6" transform="translate(298.27 124.69)">4</text><text class="cls-7" transform="translate(209.27 124.69)">2</text><text class="cls-6" transform="translate(162.61 176.49)">7</text><text class="cls-6" transform="translate(289.6 176.55)">10</text><text class="cls-6" transform="translate(247.25 228.32)">15</text><text class="cls-6" transform="translate(382.25 230.32)">18</text><text class="cls-8" transform="translate(195 277.71)">2<tspan class="cls-9" x="11.73" y="0">0</tspan></text></g></svg>