<svg xmlns="http://www.w3.org/2000/svg" xmlns:xlink="http://www.w3.org/1999/xlink" viewBox="0 0 968.47 618.26"><defs><style>.cls-1{fill:#f5f5fc;}.cls-2{fill:#f8f8ff;}.cls-3{fill:#e9edfb;}.cls-4{fill:#b0c0f4;}.cls-5{fill:#fff;}.cls-6{fill:#e1e6fb;}.cls-7{fill:none;stroke:#fff;stroke-linecap:round;stroke-linejoin:round;stroke-width:3px;}.cls-8{fill:#bac5f4;}.cls-9{fill:url(#linear-gradient);}</style><linearGradient id="linear-gradient" x1="489.36" y1="54.58" x2="489.66" y2="276.34" gradientUnits="userSpaceOnUse"><stop offset="0" stop-color="#fff"/><stop offset="1" stop-color="#fff" stop-opacity="0"/></linearGradient></defs><title>bg5</title><g id="Layer_2" data-name="Layer 2"><path class="cls-1" d="M698.64,602S547,469.15,738.14,406.35c95.32-31.31,117.74-47.4,191.8-108,106-86.76,244.93-136.9,425.54,16.06s316.91,200.4,198,292.11c-133.66,103.09-52.35,156.1-69.11,185.16-4.46,7.73-32.71-25.33-94.92,8.71-141.69,77.53-213.8-40.42-318-11-98.28,27.75-148.78-33.63-180.77-9.63-47.71,35.81-77.56,35.35-95.49,25.93-15-7.9-23.83-24.21-23.14-41.3.79-19.42.93-55.79-6.9-82.26C753.31,642.12,724.5,621.66,698.64,602Z" transform="translate(-641.56 -208.98)"/><path class="cls-2" d="M700.33,603.61s-153.09-135.74,39.86-199.9c96.19-32,118.83-48.43,193.56-110.36,107-88.65,247.19-139.88,429.45,16.41s324.26,211,199.83,298.46c-86.17,60.57-57,31-83.84,51.76-57,44-186.64-38.67-291.81-8.61-99.19,28.35-195.68-14-238.78-16.87-17.08-1.12-86-1.38-120.72-3.24-19.43-1-40.85,7.47-67.77,1.08C719.54,622.71,726.42,623.71,700.33,603.61Z" transform="translate(-641.56 -208.98)"/><g id="books"><path class="cls-3" d="M864.84,351.25l-49.7,33.45c-.65.39-1.8-6.67-2.5-6.37l-33.84,13-.39,242.93,211.53-2.6-1.61-329.25L924,303Z" transform="translate(-641.56 -208.98)"/><path class="cls-4" d="M848.46,359.15l-51.77,25.37-.13,6.78,172.53-1-.69-62.1-74.4-1-16.68,12.76c-2.92,2.21-6.49,4.56-11,7.56C858.84,352.47,854.32,355.78,848.46,359.15Z" transform="translate(-641.56 -208.98)"/><polygon class="cls-4" points="155.09 192.49 155.09 253.82 327.78 253.47 327.79 192.49 155.09 192.49"/><polygon class="cls-4" points="155.57 264.75 155.57 326.09 328.25 325.74 328.26 264.75 155.57 264.75"/><polygon class="cls-4" points="156.52 338.07 156.52 399.41 329.2 399.06 329.21 338.07 156.52 338.07"/><polygon class="cls-5" points="215.18 299.61 223.28 289.01 253.37 315.81 245.84 326.72 215.18 299.61"/><polygon class="cls-5" points="155.52 276.72 175 276.83 175.15 326.21 155.55 325.97 155.52 276.72"/><polygon class="cls-1" points="198.14 285.13 206.08 280.59 226.44 321.23 218.5 326.58 198.14 285.13"/><polygon class="cls-5" points="188.72 271.34 198.19 271.34 198.43 326.39 188.7 326.14 188.72 271.34"/><polygon class="cls-1" points="175.13 288.13 188.93 288.38 188.7 326.26 174.89 326.05 175.13 288.13"/><polygon class="cls-5" points="250.66 276.58 270.14 276.69 270.28 326.07 250.69 325.83 250.66 276.58"/><polygon class="cls-5" points="283.86 271.2 293.32 271.2 293.56 326.25 283.84 326 283.86 271.2"/><polygon class="cls-1" points="270.27 288 284.07 288.24 283.84 326.13 270.02 325.91 270.27 288"/><polygon class="cls-5" points="156.53 343.18 171.4 343.31 171.51 399.92 156.55 399.64 156.53 343.18"/><polygon class="cls-1" points="171.45 351.72 181.52 351.59 181.16 399.66 171.21 399.65 171.45 351.72"/><polygon class="cls-5" points="181.52 361.61 195.17 361.79 194.95 399.68 181.13 399.46 181.52 361.61"/><polygon class="cls-1" points="265.45 174.12 265.45 181.17 320.7 181.56 320.7 174.12 265.45 174.12"/><polygon class="cls-5" points="265.37 168.53 265.63 174.17 301.57 174.43 301.33 168.27 265.37 168.53"/><polygon class="cls-5" points="155.2 204.38 174.68 204.5 174.83 253.88 155.24 253.63 155.2 204.38"/><polygon class="cls-1" points="306.88 212.3 298.67 207.75 277.65 248.4 285.85 253.74 306.88 212.3"/><polygon class="cls-5" points="318.53 198.49 327.99 198.49 328.23 253.53 318.51 253.29 318.53 198.49"/><polygon class="cls-1" points="305.53 215.6 319.33 215.84 319.1 253.73 305.29 253.51 305.53 215.6"/><polygon class="cls-1" points="212.58 246.61 212.58 253.66 267.83 254.05 267.83 246.61 212.58 246.61"/><polygon class="cls-5" points="221.25 240.84 221.52 246.47 257.46 246.73 257.22 240.58 221.25 240.84"/></g><g id="flower"><path class="cls-1" d="M1387.07,704.62s-16.6,19.58-3,20.12,41.5,16.32,46.84,2.18,16-21.21,9.49-22.84-12.45-8.16-26.09-7.07S1387.07,704.62,1387.07,704.62Z" transform="translate(-641.56 -208.98)"/><path class="cls-6" d="M1382.73,609.3s-7.78.84-7.78,10.47,5,93.13,24,94.77c12.35,1.07,25.42,1,31.88.38,2.79-.27,5.53-8.7,6-12.08,2.51-16.59,5.74-57,6.45-80.54.14-4.75-3.13-11.12-4.84-12.68C1429,601,1382.73,609.3,1382.73,609.3Z" transform="translate(-641.56 -208.98)"/><path class="cls-3" d="M1474.67,447.89c-3-2.79-7.18,1-5.59,4.94,1.51,3.77,2.56,10.32-3.49,17.34-9.39,10.89-43.26,47.69-42.92,71.35s-7,30.26,0,39.27,35.21,8.65,42.59-10.5S1491.36,543.4,1491,516s-3.64-39.44-7-48.82C1481.92,461.23,1478.6,451.57,1474.67,447.89Z" transform="translate(-641.56 -208.98)"/><path class="cls-7" d="M1423.36,605.75s3-42.89,36.52-61.56c21-11.7,22.42-52.31,17.4-61.49" transform="translate(-641.56 -208.98)"/><path class="cls-8" d="M1427.66,623.76s10.56,42.22-.88,75.65" transform="translate(-641.56 -208.98)"/><path class="cls-8" d="M1451.8,438.55c-3.19-2.67-7.69.93-6,4.72,1.62,3.61,2.74,9.87-3.74,16.58-10.06,10.42-46.34,45.62-46,68.25s0,35.92,7.54,44.54,25,1.7,32.87-16.62,33.18-26.12,32.82-52.35-3.9-37.72-7.49-46.7C1459.57,451.31,1456,442.07,1451.8,438.55Z" transform="translate(-641.56 -208.98)"/><path class="cls-7" d="M1409.36,606.63s-11.8-58.35,16.93-93.37c11.49-14,28.53-42.12,28.38-55.68" transform="translate(-641.56 -208.98)"/><path class="cls-3" d="M1362.26,447.89c2.95-2.79,7.12,1,5.55,4.94-1.5,3.77-2.54,10.32,3.46,17.34,9.31,10.89,42.9,47.69,42.57,71.35s0,37.55-7,46.57-23.11,1.78-30.43-17.37S1345.71,543.4,1346,516s3.61-39.44,6.94-48.82C1355.08,461.23,1358.37,451.57,1362.26,447.89Z" transform="translate(-641.56 -208.98)"/><path class="cls-7" d="M1400,607.69s13.52-53-13.08-88c-10.64-14-27.68-34.76-27.54-48.32" transform="translate(-641.56 -208.98)"/><path class="cls-4" d="M1340.69,540.31s-27.79.64-42.79-33.12,18.75-40.57,43.64-22.5,14.66,25.57,44.32,42.28,23.19,49.78,14,58.64-26.59,22.5-38.19-13.3S1340.69,540.31,1340.69,540.31Z" transform="translate(-641.56 -208.98)"/><path class="cls-7" d="M1394.67,608.11s2-84.37-81.71-107.62" transform="translate(-641.56 -208.98)"/><path class="cls-8" d="M1382.73,609.3s34.07-5.48,47.38-2.61-23.48,6.26-23.48,6.26S1389.1,613.73,1382.73,609.3Z" transform="translate(-641.56 -208.98)"/></g><path class="cls-8" d="M969.38,618.22s-38.4-30.29-44.89-60,7.57-50.3,28.12-53.54,33-13,104.92,11.36,154.68-18.93,154.68-18.93,67.63-31.11,101-23.52c38,8.63,46.08,31.63,35.81,72.74s-45.26,72.2-45.26,72.2Z" transform="translate(-641.56 -208.98)"/><path class="cls-8" d="M952,615s-6,0-7,6,1,25,4,31,17.07,5.7,17.07,5.7L1309,657s11.39.12,14-9c2.09-7.33,5.14-14.64,5.36-19.7a11.6,11.6,0,0,0-9.94-12,99.37,99.37,0,0,0-11.22-.74C1281.19,615.55,952,615,952,615Z" transform="translate(-641.56 -208.98)"/><polygon class="cls-5" points="294.44 499.02 317.44 449.02 335.44 449.02 311.44 499.02 294.44 499.02"/><polygon class="cls-5" points="648.44 449.02 669.44 500.02 684.44 499.02 664.44 449.02 648.44 449.02"/><path class="cls-4" d="M975.21,615.54S943.6,591.15,942.12,581c-1.93-13.15,10-32.8,56.22-24.1s127.72,32.24,171.89,20.19S1270,514.66,1274,512s51.26-25.94,62,9.53-32.44,93.63-32.44,93.63Z" transform="translate(-641.56 -208.98)"/><polygon class="cls-8" points="487.39 0 488.7 67.72 490.29 67.43 491.7 0 487.39 0"/><path class="cls-8" d="M1094.62,332.18s-12.6-56.55,37.26-57.09c47.17-.51,35.07,60,35.07,60Z" transform="translate(-641.56 -208.98)"/><path class="cls-5" d="M1094.18,332.19s40.12-17.37,72.89,2.68C1167.07,334.87,1132.58,353.22,1094.18,332.19Z" transform="translate(-641.56 -208.98)"/><path class="cls-5" d="M1113.59,285.2s-17.49,6.52-13.93,36.16" transform="translate(-641.56 -208.98)"/><polygon class="cls-9" points="452.61 123.21 417.23 250.5 562.01 249.08 525.5 125.89 452.61 123.21"/></g></svg>