<svg xmlns="http://www.w3.org/2000/svg" viewBox="0 0 935.15 695.84"><defs><style>.cls-1{fill:#f8f8ff;}.cls-2{fill:#f5f5fc;}.cls-3{fill:#e9edfb;}.cls-4{fill:#fff;}.cls-5{fill:#e9edfa;}.cls-6{fill:#bac5f4;}.cls-7{fill:#a2b7ed;}.cls-8{fill:#e9edfc;}.cls-9{fill:#bac4f6;}.cls-10{fill:none;stroke:#fff;stroke-linecap:round;stroke-miterlimit:10;stroke-width:0.75px;}</style></defs><title>bg6</title><g id="bg"><path class="cls-1" d="M671.37,479.69S591.09,221.34,810.43,208.37s178.94,55.26,373.73,13.11,198.07-71.32,299.55-29.18,108,150.74,86.76,205.85-63.84,98.87-60.57,129.67,72.1,110,81.2,163.48c5,29.2-9.53,79-23.11,81.12-100.93,16.12-506.25-10.4-506.25-10.4l-235.27-10.4L700.54,734.47s4.31-72.23,3.89-129.34C704,546.61,671.37,479.69,671.37,479.69Z" transform="translate(-657.03 -171.76)"/><path class="cls-2" d="M701,726.51S673.56,839.88,824.12,832.17s148.77-24.43,243.77,5.14,154.15,41.15,227.64,18S1370.81,836,1464,836,1589.1,736.57,1591.53,723c2.87-16-3.84-68.48-17.16-68.64-98.5-1.2-708.61-6.31-756.71,7-41.33,11.42-91,49.36-114.89,59.47" transform="translate(-657.03 -171.76)"/></g><g id="window"><path class="cls-3" d="M719,627l93-38,1.6-380.36S745,213,718,239Z" transform="translate(-657.03 -171.76)"/><path class="cls-3" d="M718,239l2.27,387.5L704,633.25s2.32-17.63-1.68-55.91C698.64,541.66,660.84,455.08,658,422c-2-23.45-.89-119.16,22.5-147.57C702.09,248.21,718,239,718,239Z" transform="translate(-657.03 -171.76)"/><ellipse class="cls-4" cx="765.5" cy="338.5" rx="19.5" ry="13.5" transform="translate(-703.77 -35.32) rotate(-9.88)"/><ellipse class="cls-4" cx="787.61" cy="334.43" rx="15.91" ry="11.01" transform="translate(-702.75 -31.59) rotate(-9.88)"/><ellipse class="cls-4" cx="677.5" cy="385.5" rx="19.5" ry="13.5" transform="translate(-713.15 -49.73) rotate(-9.88)"/><ellipse class="cls-4" cx="696.61" cy="375.43" rx="15.91" ry="11.01" transform="translate(-711.14 -46.6) rotate(-9.88)"/><path class="cls-4" d="M725.94,232.73l4.72-2.63.22-.11,2.94-1.47,2.81-1.27,4.56,390.56-9.78,4.06Z" transform="translate(-657.03 -171.76)"/><path class="cls-4" d="M690.09,528.93,689,525.25c-.17.13-.85-2.67-.91-2.72l-1.25-3-1.13-3.26,126.87-47.93L813,479Z" transform="translate(-657.03 -171.76)"/><path class="cls-4" d="M659.23,430.25l-.36-2.15c-.24-.63-.51-3.11-.72-3.7l-.52-4.1-.46-3,156.46-59.8L813.16,368Z" transform="translate(-657.03 -171.76)"/></g><g id="seat"><path class="cls-5" d="M1082.48,571.9a32.48,32.48,0,0,0,6.39-15c.92-6.65,3.33-15.13,9.43-20.94,9.27-8.85,10.64-46,10.83-59.78a52.84,52.84,0,0,1,2.43-15.34c2.77-8.71,8.44-20.77,19.44-26.59,11.21-5.93,47-8.36,57.44.33,21.25,17.73,18.28,41,18.61,44.69,1.61,17.42.62,30.13,9.48,41.06s18.88,24.3,16.27,37.84,20.7,33.51-4.81,41.84-51.58,14.09-80,11.82c-25.18-2-59.61-6.09-66.38-22.75C1078.25,580.75,1079.94,575.28,1082.48,571.9Z" transform="translate(-657.03 -171.76)"/><path class="cls-6" d="M1088.83,569.73c1.18-1.7,2.71-4.24,5.43-5.57s8.17-5.23,35.05,5.85c38.39,15.83,70-3.48,73-3.86s30.11-8.88,29.36,8.88-32.75,27.42-42.53,27.81-50.06,4.25-70-1.54-27.53-13.43-28.88-15.33C1088.78,583.89,1083.85,576.89,1088.83,569.73Z" transform="translate(-657.03 -171.76)"/><path class="cls-7" d="M1091.4,698.94l1.91,0a6.22,6.22,0,0,0,6.33-6.32l-.16-9.05a2.56,2.56,0,0,0-1.61-2.33l-.63-.25a2.55,2.55,0,0,1-.57-4.44,6.3,6.3,0,0,1,1.33-.67c4.21-1.58,13.09-6.71,36.5-9.08,12.78-1.29,19.34-1.71,22.67-1.83a2.56,2.56,0,0,0,2.37-3.26h0a2.56,2.56,0,0,0-2.76-1.84c-8.21,1-37.44,4.53-47,6.75a56.44,56.44,0,0,0-16,6.72,7.45,7.45,0,0,0-3.45,5.45,2.54,2.54,0,0,1-1.1,1.89,13.46,13.46,0,0,1-3.08,1.56c-1.58.53-1.55,6-1.24,10.56A6.57,6.57,0,0,0,1091.4,698.94Z" transform="translate(-657.03 -171.76)"/><path class="cls-7" d="M1233.16,698.94l-1.37,0a6.72,6.72,0,0,1-6.85-6.84l.15-8.53a2.56,2.56,0,0,1,1.6-2.33l.63-.25a2.55,2.55,0,0,0,.57-4.43,6.2,6.2,0,0,0-1.33-.68c-4.17-1.58-13-6.71-36.17-9.08-12.64-1.29-19.14-1.71-22.44-1.83a2.56,2.56,0,0,1-2.37-3.25h0a2.56,2.56,0,0,1,2.77-1.85c8.17,1,37.09,4.53,46.51,6.75a55.66,55.66,0,0,1,15.83,6.72,7.46,7.46,0,0,1,3.41,5.45,2.55,2.55,0,0,0,1.1,1.89,13.28,13.28,0,0,0,3,1.56c1.58.53,1.53,6.14,1.22,10.68A6.44,6.44,0,0,1,1233.16,698.94Z" transform="translate(-657.03 -171.76)"/><path class="cls-7" d="M1158.54,615.91l-.2,75.71a1.8,1.8,0,0,1-1.8,1.8h-.4a1.8,1.8,0,0,0-1.8,1.85l.32,12.78a5.87,5.87,0,0,0,5.77,5.72l4,.06a6,6,0,0,0,6.11-6.24l-.46-12.43a1.8,1.8,0,0,0-1.8-1.74h0a1.8,1.8,0,0,1-1.8-1.81l.21-77.64a1.8,1.8,0,0,0-1.82-1.81l-4.59,0a1.8,1.8,0,0,0-1.79,1.88Z" transform="translate(-657.03 -171.76)"/><path class="cls-6" d="M1158.6,670.79s-61.17,24.63-70.82,32.8-11.23,13.34-10.79,15.53c0,.23.37.4.84.51a5.38,5.38,0,0,1,3.93,5.35l-.22,12.88a3.65,3.65,0,0,1-3.64,3.58H1071a3.65,3.65,0,0,1-3.65-3.59l-.22-12.8a5.45,5.45,0,0,1,4.62-5.49l.12,0s2.4-9.68,6.11-13,10.22-10.73,35.83-21.87,44.77-18.16,44.77-18.16Z" transform="translate(-657.03 -171.76)"/><path class="cls-6" d="M1166.38,669.84a2,2,0,0,0,1.23,1.87c8.4,3.6,57.22,24.71,65.56,32.17,9.13,8.17,10.62,13.34,10.21,15.53-.09.5-1.44.7-2.65.77a2,2,0,0,0-1.9,2.07l.22,13.66a5.93,5.93,0,0,0,5.93,5.84h1.73a5.88,5.88,0,0,0,5.88-5.78l.23-13.61a2,2,0,0,0-1.71-2l-1.51-.25a2,2,0,0,1-1.64-1.47c-.74-2.73-2.73-9.17-5.46-11.77-3.51-3.34-9.67-10.73-33.91-21.87-18.57-8.53-33.47-14.63-39.41-17a2,2,0,0,0-2.79,1.9Z" transform="translate(-657.03 -171.76)"/></g><g id="table"><polygon class="cls-4" points="173.97 556.24 174.97 382.24 197.97 382.24 197.97 557.24 173.97 556.24"/><polygon class="cls-4" points="705.05 379.14 705.97 558.24 725.97 558.24 726.41 379.87 705.05 379.14"/><polygon class="cls-4" points="103.97 361.24 103.97 382.24 791.97 380.24 791.97 362.24 103.97 361.24"/><polygon class="cls-6" points="103.97 361.24 152.97 346.24 735.97 347.24 791.97 362.24 103.97 361.24"/><polygon class="cls-1" points="416.45 355.43 427.98 348.41 481.08 348.06 473.07 354.88 416.45 355.43"/></g><g id="Flower"><path class="cls-8" d="M809.08,480.9s-8.69-.4-9.81,2.4,2,41,3.36,43.26,15.21,2.92,19.13,2.92c0,0,14.51-1.29,15.22-2.28s10.55-40.49,7.33-45.77-34.73-.4-34.73-.4" transform="translate(-657.03 -171.76)"/><path class="cls-9" d="M798.56,489.88s27,2.07,30.19,1.16,2.14-9,2.14-9l13.42-.6s0,7.78-.91,8.7a12.67,12.67,0,0,0-2.29,4.12c0,.46-5.67,33.55-5.67,33.55s-8.69,1.34-9.84,1.2c-1.36-.17,3.62-27.37,3.62-29.26s0-5.49-1.37-5.49-27.84.8-28-2.16a4.93,4.93,0,0,0-1.29-2.2" transform="translate(-657.03 -171.76)"/><path class="cls-9" d="M809.19,481.76s-7.53-5.29-11.53-5.77S789,475,785,474.37s-9.1-2.41-9-4.75.58-3.46,2.93-4.85a15.86,15.86,0,0,1,6.57-2.43c1.76-.16,19.82,4.53,27.35,15.74l3,3.68Z" transform="translate(-657.03 -171.76)"/><path class="cls-9" d="M783.14,468.69s6.92-.09,10.71,1.14a60.72,60.72,0,0,1,8.6,4l11.33,7.89" transform="translate(-657.03 -171.76)"/><path class="cls-10" d="M783.14,468.69s6.92-.09,10.71,1.14a60.72,60.72,0,0,1,8.6,4l11.33,7.89" transform="translate(-657.03 -171.76)"/><path class="cls-9" d="M817.14,481.46s-8.76-11.9-12.17-15.25-7.4-7.18-10.69-10.68-7.44-8.52-5.69-10.58,3-3.46,6.19-3a15.12,15.12,0,0,1,6.95,2.57c1.77,1.14,17.67,16.31,20,33.74l2.29,3.53Z" transform="translate(-657.03 -171.76)"/><path class="cls-10" d="M796.55,449s6.82,4.08,9.5,8c2.53,3.66,6.54,10.21,6.54,10.21l4.55,12.49" transform="translate(-657.03 -171.76)"/><path class="cls-8" d="M821.5,482s-10.23-22.21-12.14-26.6-9.72-11-11.45-15.48-2.83-7.74-1-10.2,6.54-4.5,9.53-3c2.83,1.38,6.51,5.58,8.09,7.71,1.25,1.68,9.63,31.85,8.94,38.81l1.6,8.91Z" transform="translate(-657.03 -171.76)"/><path class="cls-10" d="M803.48,435s5.87,7.56,7.65,12c2,5,4,14.53,3.74,13L821,480.57" transform="translate(-657.03 -171.76)"/><path class="cls-8" d="M815.89,481.88s-9-10.27-13.39-12.26-9.38-4.24-13.67-6.38-9.44-5.77-8.57-7.95,1.77-3.06,4.86-3.47a21.11,21.11,0,0,1,8.16.22c2,.52,20.8,11.88,25.63,25.37l2.23,4.65Z" transform="translate(-657.03 -171.76)"/><path class="cls-10" d="M788.56,457.14s7.79,2.56,11.65,5.18a78.76,78.76,0,0,1,8.36,7.06L817.22,482" transform="translate(-657.03 -171.76)"/><path class="cls-9" d="M839.43,482.11s8.15-5,12.48-5.51,9.35-.94,13.68-1.55,9.85-2.3,9.74-4.54-.62-3.3-3.17-4.64a18.65,18.65,0,0,0-7.11-2.32c-1.91-.15-21.45,4.32-29.6,15l-3.29,3.52Z" transform="translate(-657.03 -171.76)"/><path class="cls-9" d="M867.63,469.62s-7.48-.09-11.59,1.09a69.93,69.93,0,0,0-9.3,3.8l-10.87,7.3" transform="translate(-657.03 -171.76)"/><path class="cls-10" d="M867.63,469.62s-7.48-.09-11.59,1.09a69.93,69.93,0,0,0-9.3,3.8l-10.87,7.3" transform="translate(-657.03 -171.76)"/><path class="cls-9" d="M830.84,481.82s9.47-11.36,13.16-14.56,8-6.86,11.57-10.2,8.05-8.13,6.15-10.11-3.24-3.31-6.7-2.89a17.74,17.74,0,0,0-7.52,2.45c-1.91,1.08-19.12,15.58-21.64,32.22l-2.47,3.37Z" transform="translate(-657.03 -171.76)"/><path class="cls-10" d="M853.12,450.79s-7.38,3.89-10.28,7.6c-2.74,3.5-7.07,9.75-7.07,9.75l-4.93,11.92" transform="translate(-657.03 -171.76)"/><path class="cls-8" d="M826.11,482.38s11.07-21.21,13.13-25.41,10.52-10.48,12.39-14.78,3.06-7.4,1.1-9.74-7.07-4.3-10.31-2.9c-3.06,1.32-7,5.33-8.76,7.36-1.36,1.61-10.42,30.41-9.68,37.07l-1.73,8.51Z" transform="translate(-657.03 -171.76)"/><path class="cls-9" d="M825.06,482.11s.89-20.69,3-27.42c1.43-4.46,2.83-12,4.7-16.25s-1-9.84-2.92-12.19-7-1.9-10.28-.51c-3.06,1.32-4.82,5.59-5.21,7.87-.35,2.08,7,27.05,6.22,36.19l.63,12.44Z" transform="translate(-657.03 -171.76)"/><path class="cls-10" d="M845.61,437.44s-6.35,7.22-8.28,11.45c-2.18,4.79-4.35,13.88-4,12.38l-7.19,20.2" transform="translate(-657.03 -171.76)"/><path class="cls-8" d="M832.19,482.22s9.79-9.81,14.48-11.71,10.15-4,14.79-6.09,10.21-5.51,9.27-7.59-1.91-2.92-5.26-3.32a25.83,25.83,0,0,0-8.83.21c-2.2.5-22.5,11.34-27.73,24.23l-2.41,4.44Z" transform="translate(-657.03 -171.76)"/><path class="cls-10" d="M861.76,458.6s-8.44,2.45-12.61,4.94a83.45,83.45,0,0,0-9,6.74l-9.54,10.58" transform="translate(-657.03 -171.76)"/><path class="cls-10" d="M823,430.16s1.69,17.73.71,22.5c-.41,2-.21,14.47-.21,14.47L823.15,481" transform="translate(-657.03 -171.76)"/></g><g id="computer"><rect class="cls-4" x="330.09" y="250.5" width="109.88" height="86.26"/><circle class="cls-2" cx="382.7" cy="294.31" r="6.6"/><path class="cls-4" d="M1032.86,506.47s2.76,7.27-.39,9.31-22.6,9.71-22.6,9.71-1.44,2.31,2,3.05c3.07.67,42.51.14,51,0a2.87,2.87,0,0,0,2.83-1.72c.2-.71-.05-1.49-1.56-2-2.61-.94-12.21-6.17-16.41-8.43-1.48-.8-1.88-2.34-2.17-3.75-.48-2.27-.84-4.78.76-5.26,2.5-.75-13.31.23-13.31.23" transform="translate(-657.03 -171.76)"/></g><g id="books"><polygon class="cls-5" points="292.51 241.65 578.33 241.19 577.75 193.38 276.31 195.71 276.13 241.65 292.51 241.65"/><polygon class="cls-6" points="435.48 201.96 435.48 234.88 569.96 234.42 569.96 202.42 435.48 201.96"/><polygon class="cls-6" points="291.73 201.96 291.73 234.88 426.21 234.42 426.21 202.42 291.73 201.96"/><polygon class="cls-4" points="291.74 209.89 298.75 209.89 298.82 234.96 291.73 234.88 291.74 209.89"/><polygon class="cls-2" points="298.88 214.28 303.6 214.28 303.77 234.85 298.82 234.96 298.88 214.28"/><polygon class="cls-4" points="417.49 209.7 421.61 209.7 421.65 234.76 417.49 234.69 417.49 209.7"/><polygon class="cls-2" points="421.71 214.09 426.43 214.09 426.6 234.66 421.65 234.76 421.71 214.09"/><polygon class="cls-2" points="303.98 211.06 308.7 211.06 308.87 234.91 303.92 235.03 303.98 211.06"/><polygon class="cls-4" points="308.6 216.79 311.02 214.85 323.27 232.74 320.63 234.88 308.6 216.79"/><polygon class="cls-4" points="365.78 234.76 395.26 234.76 395.11 231.45 365.78 231.61 365.78 234.76"/><polygon class="cls-5" points="370.74 231.52 400.23 231.52 400.07 228.21 370.74 228.37 370.74 231.52"/><polygon class="cls-4" points="440.2 208.69 444.34 208.69 444.38 235.07 440.19 234.99 440.2 208.69"/><polygon class="cls-2" points="444.43 214.31 449.14 214.31 449.31 234.87 444.36 234.98 444.43 214.31"/><polygon class="cls-4" points="561.02 209.57 565.14 209.57 565.18 234.63 561.02 234.56 561.02 209.57"/><polygon class="cls-2" points="565.12 213.6 570.03 213.65 570.22 234.43 565.2 234.5 565.12 213.6"/><polygon class="cls-2" points="556.31 215.69 561.03 215.69 561.22 234.62 556.19 234.68 556.31 215.69"/><polygon class="cls-2" points="435.44 211.12 440.16 211.12 440.33 234.97 435.38 235.09 435.44 211.12"/><polygon class="cls-4" points="484.35 216.86 486.77 214.92 499.02 232.81 496.38 234.95 484.35 216.86"/><polygon class="cls-4" points="464.37 234.83 493.86 234.83 493.7 231.52 464.37 231.68 464.37 234.83"/><polygon class="cls-5" points="462.75 231.71 492.23 231.71 492.07 228.4 462.75 228.56 462.75 231.71"/><polyline class="cls-5" points="578.06 190.95 577.77 152.64 845.76 152.64 846.42 244.18 578.29 246.37 578.06 194.36"/><path class="cls-5" d="M1044.22,340.44s-2.58-.86-2.79-1.5-1.07-4.3.64-4.3h14.62s2.36,3.87-.64,4.73-.43,2.36.43,2.36,2.79,0,3.22,1.07.4,23.62.4,23.62l-21.68,0V344.53a2.32,2.32,0,0,1,2.36-2.36C1043.15,342.16,1044.87,341.52,1044.22,340.44Z" transform="translate(-657.03 -171.76)"/><rect class="cls-4" x="384.59" y="177.35" width="15.21" height="9.43"/><path class="cls-6" d="M1069,340.44s-2.58-.86-2.79-1.5-1.07-4.3.64-4.3h14.62s2.36,3.87-.64,4.73-.43,2.36.43,2.36,2.79,0,3.22,1.07.4,23.62.4,23.62l-21.68,0V344.53a2.32,2.32,0,0,1,2.36-2.36C1068,342.16,1069.68,341.52,1069,340.44Z" transform="translate(-657.03 -171.76)"/><rect class="cls-4" x="409.4" y="177.35" width="15.21" height="9.43"/><path class="cls-5" d="M1094.66,340.17s-2.58-.86-2.79-1.5-1.07-4.3.64-4.3h14.62s2.36,3.87-.64,4.73-.43,2.36.43,2.36,2.79,0,3.22,1.07.4,23.62.4,23.62l-21.68,0V344.26a2.32,2.32,0,0,1,2.36-2.36C1093.58,341.89,1095.3,341.25,1094.66,340.17Z" transform="translate(-657.03 -171.76)"/><rect class="cls-4" x="435.03" y="177.07" width="15.21" height="9.43"/><rect class="cls-6" x="587.28" y="161.95" width="123.82" height="75.62"/><circle class="cls-6" cx="724.36" cy="201.72" r="5.4"/><path class="cls-4" d="M1327,383.38s-2.58-.86-2.79-1.5-1.07-4.3.64-4.3h14.62s2.36,3.87-.64,4.73-.43,2.36.43,2.36,2.79,0,3.22,1.07.4,23.62.4,23.62l-21.68,0V387.46a2.32,2.32,0,0,1,2.36-2.36C1325.9,385.1,1327.62,384.45,1327,383.38Z" transform="translate(-657.03 -171.76)"/><rect class="cls-2" x="667.34" y="220.28" width="15.21" height="9.43"/></g></svg>