<svg xmlns="http://www.w3.org/2000/svg" viewBox="0 0 1013.31 691.48"><defs><style>.cls-1{fill:#f5f5fc;}.cls-2{fill:#f8f8ff;}.cls-3{fill:#fff;}.cls-4{fill:#e9edfa;}.cls-5{fill:#bac6f2;}.cls-6{fill:#b1c1f2;}</style></defs><title>bg7</title><g id="bg"><path class="cls-1" d="M695,756.43s-68.45,105.64,94.5,118.46,206.66-3.21,234.48-6.41,108.76-62.5,245.87,11.22c92.85,49.93,191.3-8,237-43.28s73.52-73.73,51.66-80.14S695,756.43,695,756.43Z" transform="translate(-634.23 -207.65)"/><path class="cls-2" d="M692.18,759.58s-97.21-143.39-39.8-199c58.09-56.27-18.41-126.7,7.26-208.75,21.72-69.44,154.3-183.34,275.92-130.7,167.93,72.69,167.14,88.68,270.47,70.79s223.16-115.27,281.36,7.26c34.49,72.61,129.31,88.54,152.48,156.11S1628.14,607.43,1609,625.92c-67.86,65.61-44.69,136.45-44.69,136.45Z" transform="translate(-634.23 -207.65)"/><circle class="cls-3" cx="521.28" cy="193.59" r="28.94"/><circle class="cls-3" cx="552.75" cy="197.11" r="21.38"/><circle class="cls-3" cx="760.04" cy="182.69" r="26.49"/><circle class="cls-3" cx="730.43" cy="185.47" r="19.57"/><circle class="cls-3" cx="794.84" cy="187.97" r="19.57"/><circle class="cls-3" cx="118.61" cy="197.89" r="26.49"/><circle class="cls-3" cx="89.8" cy="194.67" r="19.57"/></g><g id="build_1" data-name="build 1"><g id="Layer_2" data-name="Layer 2"><polygon class="cls-4" points="126.77 147.35 127.77 549.17 446.77 549.17 445.77 148.35 126.77 147.35"/><polygon class="cls-5" points="112.77 110.35 455.77 111.35 456.77 148.35 112.77 148.35 112.77 110.35"/><rect class="cls-5" x="112.77" y="222.35" width="343" height="11"/><rect class="cls-5" x="127.77" y="232.35" width="317" height="11"/><rect class="cls-5" x="126.77" y="145.35" width="317" height="11"/><rect class="cls-5" x="114.77" y="548.35" width="343" height="11"/><polygon class="cls-5" points="158.77 169.35 147.77 181.35 147.77 198.35 157.77 208.35 414.77 209.35 424.77 200.35 424.77 181.35 412.77 169.35 158.77 169.35"/></g><g id="details"><polygon class="cls-6" points="126.77 268.35 146.77 268.35 146.77 281.35 127.77 281.35 126.77 268.35"/><polygon class="cls-6" points="126.77 398.35 138.77 398.35 138.77 411.35 127.77 411.35 126.77 398.35"/><rect class="cls-6" x="234.77" y="379.35" width="32" height="12"/><rect class="cls-6" x="215.77" y="399.35" width="32" height="12"/><rect class="cls-6" x="200.32" y="325.67" width="32" height="12"/><rect class="cls-6" x="273.77" y="400.35" width="32" height="12"/><rect class="cls-6" x="217.1" y="256.57" width="32" height="12"/><rect class="cls-6" x="396.77" y="393.35" width="32" height="12"/><rect class="cls-6" x="401.77" y="246.35" width="32" height="12"/></g><g id="door"><rect class="cls-5" x="363.87" y="433.34" width="64.93" height="118.16" rx="3.43" ry="3.43"/><rect class="cls-3" x="370.09" y="446.65" width="52.62" height="18.94" rx="3.43" ry="3.43"/></g><g id="window"><path class="cls-5" d="M779.55,516.07h6.53L859,516s4-22-12-35-32.57-13-44.57-7S779.1,489,779.55,516.07Z" transform="translate(-634.23 -207.65)"/><polyline class="cls-5" points="151.84 308.42 151.29 361.73 219.15 361.73 219.15 307.07 150.75 305.97 151.84 308.42"/><polygon class="cls-5" points="151.29 361.73 146.83 361.41 146.83 370.43 223.54 370.43 223.16 361.41 151.29 361.73"/><rect class="cls-3" x="159.74" y="311.4" width="23.69" height="21.81"/><rect class="cls-3" x="188.25" y="311.15" width="22.64" height="21.81"/><rect class="cls-3" x="188.13" y="338.6" width="23.08" height="21.81"/><rect class="cls-3" x="159.96" y="338.59" width="23.69" height="21.81"/><polyline class="cls-6" points="154.89 275.93 152.11 308.57 165.67 308.13 168.43 266.3 159.85 271.33 155.93 274.83"/><polyline class="cls-6" points="216.35 276.61 218.9 308.58 206.48 308.15 204.05 267.53 211.71 272.52 215.4 275.54"/><polyline class="cls-6" points="172.77 275.29 170.92 308.26 182.75 308.46 185.4 262.54 180.28 262.68 174.1 263.84"/><polyline class="cls-6" points="200.57 275.16 202.24 308.13 191.6 308.33 189.35 262.72 194.93 263.89 199.59 265.38"/></g><g id="window_copy" data-name="window copy"><path class="cls-5" d="M880.86,516.77h6.53l72.92-.07s4-22-12-35-32.57-13-44.57-7S880.42,489.73,880.86,516.77Z" transform="translate(-634.23 -207.65)"/><polyline class="cls-5" points="253.16 309.11 252.61 362.43 320.46 362.43 320.46 307.76 252.06 306.66 253.16 309.11"/><polygon class="cls-5" points="252.61 362.43 248.15 362.1 248.15 371.13 324.85 371.13 324.48 362.1 252.61 362.43"/><rect class="cls-3" x="261.06" y="312.09" width="23.69" height="21.81"/><rect class="cls-3" x="289.56" y="311.84" width="22.64" height="21.81"/><rect class="cls-3" x="289.44" y="339.29" width="23.08" height="21.81"/><rect class="cls-3" x="261.28" y="339.28" width="23.69" height="21.81"/><polyline class="cls-6" points="256.2 276.62 253.42 309.26 266.98 308.83 269.74 267 261.17 272.03 257.24 275.53"/><polyline class="cls-6" points="317.66 277.3 320.21 309.28 307.79 308.85 305.36 268.22 313.02 273.21 316.71 276.23"/><polyline class="cls-6" points="274.08 275.98 272.23 308.95 284.06 309.15 286.71 263.23 281.59 263.37 275.41 264.54"/><polyline class="cls-6" points="301.89 275.86 303.55 308.82 292.92 309.02 290.66 263.42 296.25 264.58 300.9 266.07"/></g><g id="window_copy_2" data-name="window copy 2"><path class="cls-5" d="M980.79,516.77h6.53l72.92-.07s4-22-12-35-32.57-13-44.57-7S980.34,489.73,980.79,516.77Z" transform="translate(-634.23 -207.65)"/><polyline class="cls-5" points="353.08 309.11 352.53 362.43 420.39 362.43 420.39 307.76 351.98 306.66 353.08 309.11"/><polygon class="cls-5" points="352.53 362.43 348.07 362.1 348.07 371.13 424.78 371.13 424.4 362.1 352.53 362.43"/><rect class="cls-3" x="360.98" y="312.09" width="23.69" height="21.81"/><rect class="cls-3" x="389.48" y="311.84" width="22.64" height="21.81"/><rect class="cls-3" x="389.37" y="339.29" width="23.08" height="21.81"/><rect class="cls-3" x="361.2" y="339.28" width="23.69" height="21.81"/><polyline class="cls-6" points="356.13 276.62 353.35 309.26 366.91 308.83 369.66 267 361.09 272.03 357.16 275.53"/><polyline class="cls-6" points="417.59 277.3 420.14 309.28 407.71 308.85 405.29 268.22 412.95 273.21 416.64 276.23"/><polyline class="cls-6" points="374.01 275.98 372.16 308.95 383.99 309.15 386.63 263.23 381.52 263.37 375.34 264.54"/><polyline class="cls-6" points="401.81 275.86 403.48 308.82 392.84 309.02 390.59 263.42 396.17 264.58 400.82 266.07"/></g><g id="window_copy_3" data-name="window copy 3"><path class="cls-5" d="M779.78,668.56h17.29l193-.07s15.67-24.32-26.68-37.6-112-9.5-143.73-3.37S778.6,640.95,779.78,668.56Z" transform="translate(-634.23 -207.65)"/><polyline class="cls-5" points="148.08 461.4 146.39 548.53 355.28 548.53 355.28 459.2 144.7 457.4 148.08 461.4"/><rect class="cls-3" x="158.21" y="462.58" width="184.05" height="44.37"/><rect class="cls-3" x="223.11" y="514.1" width="53.01" height="21.81"/><rect class="cls-3" x="159.47" y="514.48" width="53.01" height="21.81"/><rect class="cls-3" x="287.51" y="514.48" width="53.01" height="21.81"/><polyline class="cls-6" points="165.09 426.76 161.31 458.27 179.32 457.86 182.52 419.68 171.96 422.21 166.12 424.61"/><polyline class="cls-6" points="194.81 427.08 191.78 457.97 209.85 457.74 213.14 415.89 204.32 416.93 196.35 417.67"/><polyline class="cls-6" points="329.36 426.53 332.33 458.04 318.17 457.63 315.66 419.45 323.96 421.98 328.55 424.38"/><polyline class="cls-6" points="305.86 426.85 308.38 457.74 293.33 457.51 290.6 415.66 297.94 416.7 304.57 417.44"/><polyline class="cls-6" points="278.23 426.61 280.75 457.5 265.7 457.28 262.9 414.44 270.03 414.79 276.82 415.14"/><polyline class="cls-6" points="245.51 427.76 248.03 458.65 232.98 458.43 230.18 415.6 237.68 415.34 244.73 415.19"/></g></g><g id="build_2" data-name="build 2"><polygon class="cls-4" points="471.54 356.54 470.59 556.72 808.86 557.63 808.86 354.68 471.54 356.54"/><rect class="cls-5" x="468.72" y="547.4" width="343" height="11"/><rect class="cls-5" x="452.84" y="356.35" width="375.14" height="13.26"/><path class="cls-5" d="M1093,566.16s4-59.6,43-60.74c32.12-.94,196.75-.13,253.46.39,33.4.31,62,25,66.07,58.15q.13,1.09.24,2.2Z" transform="translate(-634.23 -207.65)"/><g id="details_copy" data-name="details copy"><polygon class="cls-6" points="788.23 446.6 808.23 446.6 808.23 459.6 789.23 459.6 788.23 446.6"/><polygon class="cls-6" points="796.48 392.3 808.48 392.3 808.48 405.3 797.48 405.3 796.48 392.3"/><rect class="cls-6" x="486.17" y="489.35" width="32" height="12"/><rect class="cls-6" x="474.85" y="436.64" width="32" height="12"/><rect class="cls-6" x="494.73" y="393.95" width="32" height="12"/><rect class="cls-6" x="608.52" y="383.43" width="32" height="12"/><rect class="cls-6" x="769.98" y="423.34" width="32" height="12"/><rect class="cls-6" x="752.67" y="516.01" width="32" height="12"/><rect class="cls-6" x="676.7" y="373.84" width="32" height="12"/></g><g id="window_copy_4" data-name="window copy 4"><path class="cls-5" d="M1167.18,667.28h17.29l193-.07s15.67-24.32-26.68-37.6-112-9.5-143.73-3.37S1166,639.67,1167.18,667.28Z" transform="translate(-634.23 -207.65)"/><polyline class="cls-5" points="535.48 460.12 533.79 547.25 742.68 547.25 742.68 457.92 532.1 456.12 535.48 460.12"/><rect class="cls-3" x="610.51" y="461.3" width="119.15" height="44.37"/><rect class="cls-3" x="610.51" y="512.82" width="53.01" height="21.81"/><rect class="cls-3" x="546.87" y="462.13" width="53.01" height="72.88"/><rect class="cls-3" x="674.92" y="513.2" width="53.01" height="21.81"/><polyline class="cls-6" points="552.49 425.48 548.72 456.99 566.73 456.58 569.92 418.4 559.37 420.93 553.53 423.33"/><polyline class="cls-6" points="582.21 425.8 579.19 456.69 597.26 456.46 600.54 414.61 591.73 415.65 583.76 416.39"/><polyline class="cls-6" points="716.77 425.25 719.73 456.76 705.58 456.35 703.07 418.17 711.36 420.7 715.95 423.1"/><polyline class="cls-6" points="693.27 425.57 695.78 456.46 680.73 456.23 678 414.38 685.34 415.42 691.98 416.16"/><polyline class="cls-6" points="665.63 425.33 668.15 456.22 653.1 456 650.3 413.17 657.43 413.51 664.22 413.86"/><polyline class="cls-6" points="632.92 426.49 635.43 457.37 620.38 457.15 617.58 414.32 625.08 414.06 632.13 413.92"/></g></g><g id="Layer_13" data-name="Layer 13"><rect class="cls-3" x="837.69" y="545.38" width="9.33" height="19.06" rx="4.66" ry="4.66"/><rect class="cls-3" x="867.69" y="545.38" width="9.33" height="19.06" rx="4.66" ry="4.66"/><path class="cls-5" d="M1468.28,683.74s-7.24,75.15-5.86,76.18,56.53,1.72,57.91.69-4.14-76.18-5.17-76.53S1470,682.71,1468.28,683.74Z" transform="translate(-634.23 -207.65)"/><rect class="cls-3" x="841.28" y="495.05" width="34.13" height="3.79" rx="1.9" ry="1.9"/><rect class="cls-3" x="837.15" y="507.11" width="41.71" height="3.79" rx="1.9" ry="1.9"/></g></svg>