<svg id="bank" xmlns="http://www.w3.org/2000/svg" viewBox="0 0 1012.16 658.45"><defs><style>.cls-1{fill:#f8f8ff;}.cls-2{fill:#f5f5fc;}.cls-3{fill:#e9edfa;}.cls-4{fill:#bac6f2;}.cls-5{fill:#b1c1f2;}</style></defs><title>bg8</title><path class="cls-1" d="M480.61,744.14c-.7-5.06,6.68-26.58,8.73-31.32,12.07-27.91,54.49-134.32,2-177.72-59.32-49.1-89-157.46,11.12-201.48C579.63,299.7,628.57,172.77,775,257.42s244.69-15.24,309.57-10.16,198.35,3.39,228,106.66,213.18,147.3,100.1,287.83S1405.28,846.62,1268.1,872s-116.78-20.32-261.37-11.85-152,25.4-298.45,27.09C571,888.84,487.46,793.7,480.61,744.14Z" transform="translate(-436.97 -228.82)"/><path class="cls-2" d="M515.88,639.44,1412,643l23.32-35.74s-86.24-76.52-184.08-44c-83.8,27.88-185.69-23.26-231.94-25.15C907.2,533.53,877,603.57,809.73,603.57s-95-69.47-171.21-58.35S515.88,639.44,515.88,639.44Z" transform="translate(-436.97 -228.82)"/><path class="cls-3" d="M729.4,639.59s15.47,1,18,0-.86-3.68-6-3.68-7.55-.08-10.13.56A2.48,2.48,0,0,0,729.4,639.59Z" transform="translate(-436.97 -228.82)"/><path class="cls-3" d="M734.78,635.35s-6.94-6.56-4.13-6.75,5.44,1.5,5.81,2.81.38-4.88,2.25-4.69,2.81,2.25,2.06,4.88c0,0,2.44-2.06,4.69-2.06s1.88,2.81.56,3.75-5.25,3.38-5.25,3.38h-6.19Z" transform="translate(-436.97 -228.82)"/><path class="cls-3" d="M1225.49,640.9s15.47,1,18,0-.86-3.68-6-3.68-7.55-.08-10.13.56A2.48,2.48,0,0,0,1225.49,640.9Z" transform="translate(-436.97 -228.82)"/><path class="cls-3" d="M1230.87,636.66s-6.94-6.56-4.13-6.75,5.44,1.5,5.81,2.81.38-4.88,2.25-4.69,2.81,2.25,2.06,4.88c0,0,2.44-2.06,4.69-2.06s1.88,2.81.56,3.75-5.25,3.38-5.25,3.38h-6.19Z" transform="translate(-436.97 -228.82)"/><path class="cls-3" d="M617.14,641.56s15.47,1,18,0-.86-3.68-6-3.68-7.55-.08-10.13.56A2.48,2.48,0,0,0,617.14,641.56Z" transform="translate(-436.97 -228.82)"/><path class="cls-3" d="M622.52,637.31s-6.94-6.56-4.13-6.75,5.44,1.5,5.81,2.81.38-4.88,2.25-4.69,2.81,2.25,2.06,4.88c0,0,2.44-2.06,4.69-2.06s1.88,2.81.56,3.75-5.25,3.38-5.25,3.38h-6.19Z" transform="translate(-436.97 -228.82)"/><path class="cls-3" d="M1295.22,642.38s15.47,1,18,0-.86-3.68-6-3.68-7.55-.08-10.13.56A2.48,2.48,0,0,0,1295.22,642.38Z" transform="translate(-436.97 -228.82)"/><path class="cls-3" d="M1300.6,638.14s-6.94-6.56-4.13-6.75,5.44,1.5,5.81,2.81.38-4.88,2.25-4.69,2.81,2.25,2.06,4.88c0,0,2.44-2.06,4.69-2.06s1.88,2.81.56,3.75-5.25,3.38-5.25,3.38h-6.19Z" transform="translate(-436.97 -228.82)"/><path class="cls-3" d="M553.93,639.91s15.47,1,18,0-.86-3.68-6-3.68-7.55-.08-10.13.56A2.48,2.48,0,0,0,553.93,639.91Z" transform="translate(-436.97 -228.82)"/><path class="cls-3" d="M559.31,635.67s-6.94-6.56-4.13-6.75,5.44,1.5,5.81,2.81.38-4.88,2.25-4.69,2.81,2.25,2.06,4.88c0,0,2.44-2.06,4.69-2.06s1.88,2.81.56,3.75-5.25,3.38-5.25,3.38h-6.19Z" transform="translate(-436.97 -228.82)"/><path class="cls-3" d="M1334.86,642.68s15.47,1,18,0-.86-3.68-6-3.68-7.55-.08-10.13.56A2.48,2.48,0,0,0,1334.86,642.68Z" transform="translate(-436.97 -228.82)"/><path class="cls-3" d="M1340.24,638.44s-6.94-6.56-4.13-6.75,5.44,1.5,5.81,2.81.38-4.88,2.25-4.69,2.81,2.25,2.06,4.88c0,0,2.44-2.06,4.69-2.06s1.88,2.81.56,3.75-5.25,3.38-5.25,3.38h-6.19Z" transform="translate(-436.97 -228.82)"/><path class="cls-3" d="M1145.4,641.81l-.92-29.25s-35.87-1.67-20.53-29.7c0,0,3.7-.53,3.7-5.29s-8.46-4.76-9-7.93-.53-10,7.93-15.86-10.58-19-11.1-21.15,0-7.4,5.82-12.69,7.4-11.1,6.87-16.39-14.81-12.16-8.46-17.45,19.57-9.52,20.62-13.75-.53-23.27,12.16-18.51,40.72-1.06,46.54-.53a26.26,26.26,0,0,1,20.09,11.63c6.35,9,10.58,2.64,13.22,9s-3.17,27,1.59,32.26,12.16,9.52,9,19-14.81,15.34-14.81,19,5.29,16.39,5.29,20.09-2.12,9.52-8.46,10.58-6.87,4.23-6.87,11.1-4.76,1.59-4.76,1.59l1.06,52.35h-7.93s0-48.12-1.59-53.41h-5.29l.53,53.41h-6.35l-.53-47.59s-7.93-9.52-11.1-10,2.12,58.7,2.12,58.7h-5.82l-1.59-53.94s-2.64,10.58-5.29,10.58,1.06,42.83,1.06,42.83h-5.82l-2.12-43.36s-3.17-5.82-5.82,1.59-4.54,1.45-4,4.62.69,38.46.69,38.46Z" transform="translate(-436.97 -228.82)"/><path class="cls-3" d="M690.74,638.83l8.41.29-.42-29.52s7.91-7.91,13.18-7.38,17.39,3.16,24.25-3.69,1.58-14.23,5.27-14.23-3.16-8.43-3.16-12.12c0-2.38,7.05-40-8.39-36.3-13.56,3.21-19.72-21.62-34.52-12.14-11.69,7.49-27.41,3.09-28.49,10.44-2.61,17.63-17.68,12.05-15.5,22.18,3.16,14.76,1,21.09,7.31,22.67s-1.58,8.43,1.05,13.71.53,10.54,7.91,10.54,12.12,2.11,16.87,3.16,5.8,3.69,5.8,3.69Z" transform="translate(-436.97 -228.82)"/><path class="cls-3" d="M1367,642l8.41.29-.42-29.52s7.91-7.91,13.18-7.38,17.39,3.16,24.25-3.69,1.58-14.23,5.27-14.23-3.16-8.43-3.16-12.12c0-2.38,7.05-40-8.39-36.3-13.56,3.21-19.72-21.62-34.52-12.14-11.69,7.49-27.41,3.09-28.49,10.44-2.61,17.63-17.68,12.05-15.5,22.18,3.16,14.76,1,21.09,7.31,22.67s-1.58,8.43,1.05,13.71.53,10.54,7.91,10.54,12.12,2.11,16.87,3.16,5.8,3.69,5.8,3.69Z" transform="translate(-436.97 -228.82)"/><path class="cls-3" d="M599,638.76l8.41.36L607,602.58s7.91-9.79,13.18-9.13,17.39,3.91,24.25-4.57,1.58-17.62,5.27-17.62-3.16-10.44-3.16-15c0-2.95,7.05-49.46-8.39-44.94-13.56,4-19.72-26.76-34.52-15-11.69,9.27-27.41,3.83-28.49,12.92-2.61,21.82-17.68,14.92-15.5,27.46,3.16,18.27,1,26.11,7.31,28.07s-1.58,10.44,1.05,17,.53,13,7.91,13,12.12,2.61,16.87,3.91,5.8,4.57,5.8,4.57Z" transform="translate(-436.97 -228.82)"/><path class="cls-4" d="M655.1,638.83l11.46.32V491.63s30.29,5,33.65-1.68,2.8-9,12.9-9,14-.56,9-9.54-12.34,1.12-5-9S739.48,446.2,729.38,440s-26.92,5-26.92-6.73-5-9.54-2.24-21.31,3.93-10.66,3.37-22.44.56-17.39,1.12-20.75-7.85-9.54-14-15.7-7.29-14-19.07-12.34-15.7,2.24-12.34,12.34-11.78,2.24-14,5.61,1.68,6.73-5,9-4.49,1.68,2.8,6.17,2.24,8.41-2.8,8.41-10.66-10.1-11.78-5.61-7.85,2.24-3.37,14.58,4.49,10.1,2.24,12.34-2.8,2.24,0,5-12.9-2.24-12.9,3.93-1.12,17.95,2.8,26.36-15.7,1.68-15.14,5.61,1.12,7.85,5,9,14.58,1.12,7.85,3.93-20.75,11.78-20.75,14,.56,7.29,7.85,9.54.56,10.1,7.29,10.66,16.27,0,24.12-2.8,17.95-3.37,19.63,1.12,5,1.12,5,1.12Z" transform="translate(-436.97 -228.82)"/><path class="cls-4" d="M1284.39,642.53l-10.31.28V512.91s-27.24,4.45-30.27-1.48-2.52-7.9-11.6-7.9-12.61-.49-8.07-8.4,11.1,1,4.54-7.9-9.44-15.57-.36-21,5.71-3.71,5.71-14.08,12.3,1,9.78-9.37-11.43-9.19-10.92-19.56,7.39-15.51,6.89-18.47,7.06-8.4,12.61-13.83,6.56-12.35,17.15-10.87,14.13,2,11.1,10.87,10.6,2,12.61,4.94-1.51,5.93,4.54,7.9,4,1.48-2.52,5.43-2,7.41,2.52,7.41,9.59-8.89,10.6-4.94,7.06,2,3,12.84-4,8.89-2,10.87,2.52,2,0,4.45,11.6-2,11.6,3.46,1,15.81-2.52,23.21,14.13,1.48,13.62,4.94-1,6.91-4.54,7.9-13.12,1-7.06,3.46,5.67,7.71,5.67,9.69,4.12,8.76-2.44,10.74,7.87,9.21,1.82,9.7a56.56,56.56,0,0,1-21.69-2.47c-7.06-2.47-16.15-3-17.66,1s-4.54,1-4.54,1Z" transform="translate(-436.97 -228.82)"/><polygon class="cls-5" points="320.31 451.38 320.31 475.38 709.31 475.38 709.31 452.38 320.31 451.38"/><polygon class="cls-5" points="362.31 369.38 361.69 452.71 373.38 452.71 373.31 369.38 362.31 369.38"/><polygon class="cls-5" points="656.31 369.38 657.18 453.25 668.36 453.25 668.31 369.38 656.31 369.38"/><path class="cls-4" d="M778.29,598.2s3-11,11-11l323.26.08a6.55,6.55,0,0,1,3.12.79c2.73,1.47,8.14,5,9.62,10.13Z" transform="translate(-436.97 -228.82)"/><polygon class="cls-4" points="339.57 381.58 339.57 390.86 688 391.13 687.73 382.13 339.57 381.58"/><polygon class="cls-4" points="339.57 401.58 339.57 410.86 688 411.13 687.73 402.13 339.57 401.58"/><polygon class="cls-4" points="339.57 424.58 339.57 433.86 688 434.13 687.73 425.13 339.57 424.58"/><polygon class="cls-4" points="339.57 442.58 339.57 451.86 688 452.13 687.73 443.13 339.57 442.58"/><polygon class="cls-4" points="355.66 475.44 355.94 536.02 383.5 536.02 384.31 475.44 355.66 475.44"/><polygon class="cls-4" points="647.08 475.44 647.62 536.84 676.54 536.84 676 475.17 647.08 475.44"/><circle class="cls-3" cx="368.82" cy="151.98" r="25.48"/></svg>