<svg xmlns="http://www.w3.org/2000/svg" viewBox="0 0 837.6 576.91"><defs><style>.cls-1{fill:#f8f8ff;}.cls-2{fill:#f5f5fc;}.cls-3{fill:#e9edfa;}.cls-4{fill:#bac6f2;}.cls-5{fill:#b1c1f2;}.cls-6{fill:#fff;}</style></defs><title>bg9</title><g id="bg"><path class="cls-1" d="M673.6,775.1a137.85,137.85,0,0,1-69.25-104c-9.72-80.7-4.26-252.5,210-282.82,150-21.23,248.69-92.07,311.41-96.25,42.46-2.83,140.77,4.1,179.77,82.1s68.59,109.39,90.59,127.39,37.55,90.58,24.06,127.39C1404.5,671.68,1377,708,1251,745s-349,82-482,61C727.41,799.43,696.48,787.88,673.6,775.1Z" transform="translate(-589.01 -234.45)"/><path class="cls-2" d="M605.3,683.51s283.78-58.33,349.77-40.57,215.74,16.12,247.82,10.77c55.41-9.24,140.78,16.87,159.87,8.28,9.41-4.24,42.76-1.29,42.76-1.29s-67.3,78.81-249.83,110.92c-173.3,30.49-299.39,52.42-414.87,25.77S605.3,683.51,605.3,683.51Z" transform="translate(-589.01 -234.45)"/><path class="cls-3" d="M633.58,679.26S715.71,488,777.3,472.31s39,3.48,102.66-20.87,72.64-61.59,84.57-7.32,1.92,214.36,1.92,214.36S678.75,663.6,633.58,679.26Z" transform="translate(-589.01 -234.45)"/><path class="cls-3" d="M948.35,661.86s42.81-271.72,118.79-269.77,116,14.13,161.2,19.34,65.54,52.7,84.94,68.09,51.81,39,60.82,68.91,71.4,117.22,1.84,124.18S954.37,661.3,954.37,661.3" transform="translate(-589.01 -234.45)"/></g><g id="leaf_1" data-name="leaf 1"><g id="Layer_3" data-name="Layer 3"><polygon class="cls-4" points="161.29 137.89 86.19 437.5 92.48 437.07 161.29 137.89"/><path class="cls-4" d="M747,322.55s-2.22,39.43,3.33,49.78C750.3,372.33,760.19,349.23,747,322.55Z" transform="translate(-589.01 -234.45)"/><path class="cls-4" d="M722.69,334.9s12.39,32.31,21.16,38.14C743.85,373,744.33,350.38,722.69,334.9Z" transform="translate(-589.01 -234.45)"/><path class="cls-4" d="M772.87,311.31S748.16,355,751.69,370.56C751.69,370.56,780.21,350.75,772.87,311.31Z" transform="translate(-589.01 -234.45)"/><path class="cls-4" d="M711.17,349.92s12.91,41.56,17.16,53.2c1,2.74,1.9,4,2.69,4.13,2.38.51,3.77-8.49,3.75-14.65C734.74,384.39,729,359.28,711.17,349.92Z" transform="translate(-589.01 -234.45)"/><path class="cls-4" d="M731.46,406.55s-.11-.22-.07.13c.47,3.75,3.38,26.46,2.92,30.37-.5,4.28,1.77-5.55,1.77-5.55Z" transform="translate(-589.01 -234.45)"/><path class="cls-4" d="M743.82,372.64s-.36-.19-.32,0c1.16,3.59,1.27,18.67.81,22.59-.5,4.28,1.26-3.43,1.26-3.43Z" transform="translate(-589.01 -234.45)"/><path class="cls-4" d="M704.07,367s6.7,54.83,13.35,67.09c8.47,15.6,10-13.84,8.83-19.25S720.73,378.19,704.07,367Z" transform="translate(-589.01 -234.45)"/><path class="cls-4" d="M743.82,372.64s-.36-.19-.32,0c1.16,3.59,1.27,18.67.81,22.59-.5,4.28,1.26-3.43,1.26-3.43Z" transform="translate(-589.01 -234.45)"/><path class="cls-4" d="M722.36,436.62s-.11-.24-.06.14c.5,4.18,3.59,29.5,3.15,33.86-.47,4.76,1.73-6.16,1.73-6.16Z" transform="translate(-589.01 -234.45)"/><path class="cls-4" d="M677.6,390s19.19,62,28.57,75c11.93,16.51,9.84-19,7.43-25S696.61,400,677.6,390Z" transform="translate(-589.01 -234.45)"/><path class="cls-4" d="M712.25,468.63s-.35-1-.3-.62c.56,4.66,5.67,29.87,5.18,34.73-.53,5.31,2-6,2-6Z" transform="translate(-589.01 -234.45)"/><path class="cls-4" d="M663.8,420s24,64.19,33.43,78c12,17.63,8-22,4.23-32.79C697.55,454.23,682.85,430.73,663.8,420Z" transform="translate(-589.01 -234.45)"/><path class="cls-4" d="M703.32,501.94s-.35-1.12-.3-.66c.58,5,5.8,31.83,5.33,37-.51,5.66,2-6.33,2-6.33Z" transform="translate(-589.01 -234.45)"/><path class="cls-4" d="M655.35,452.59s24,64.19,33.43,78c12,17.63,8-22,4.23-32.79C689.1,486.83,674.4,463.34,655.35,452.59Z" transform="translate(-589.01 -234.45)"/><path class="cls-4" d="M694.87,534.55s-.35-1.12-.3-.66c.58,5,5.86,32.73,5.4,37.91-.51,5.66,2.35-7.45,2.35-7.45Z" transform="translate(-589.01 -234.45)"/><path class="cls-4" d="M638.73,481.61s30.16,66.18,39.6,80c12,17.63,5.86-27.26,2-38C676.47,512.64,657.78,492.36,638.73,481.61Z" transform="translate(-589.01 -234.45)"/><path class="cls-4" d="M683.22,565.32s-.24-.6-.18,0c.65,6,7.45,39,7.06,45.22-.43,6.8,2.92-8.8,2.92-8.8Z" transform="translate(-589.01 -234.45)"/><path class="cls-4" d="M617.23,518s12,23.81,26.44,43.54c9.7,13.25,22.08,23.35,26.8,28.15,15,15.21-.17-26.18-5.84-36.07C658.82,543.5,637.9,525.19,617.23,518Z" transform="translate(-589.01 -234.45)"/><path class="cls-4" d="M676.06,592.15s-.24-.6-.18,0c.65,6,7.93,41.66,7.26,47.86-.16,1.47,3-11.18,3-11.18Z" transform="translate(-589.01 -234.45)"/><path class="cls-4" d="M608.61,552.57s13.46,26.79,29.57,49.07c10.81,15,24.52,26.41,29.76,31.85,16.61,17.22-.53-29.29-6.88-40.44C654.56,581.63,631.37,560.87,608.61,552.57Z" transform="translate(-589.01 -234.45)"/><path class="cls-4" d="M589,610s27,15.24,46.44,30c22.79,17.32,26.72,19.2,33.22,21.08,20.6,5.95-13.24-37.62-22.84-43.64C636,611.27,611.44,605.59,589,610Z" transform="translate(-589.01 -234.45)"/><path class="cls-4" d="M674.55,637.45a9.33,9.33,0,0,0-.47-1.24c.46,3.11,5.8,17.08,4.93,20.34-.2.77,1.65-5.68,1.65-5.68Z" transform="translate(-589.01 -234.45)"/><path class="cls-4" d="M672.57,659.33s-.46-.74-.42-.6c.35,1.53,5.2,8.28,4.22,9.93-.23.39,1.84-2.88,1.84-2.88Z" transform="translate(-589.01 -234.45)"/></g><g id="Layer_3_copy" data-name="Layer 3 copy"><path class="cls-4" d="M769.28,336.72s-13.54,36.59-20.8,44.87C748.48,381.59,751.22,358.31,769.28,336.72Z" transform="translate(-589.01 -234.45)"/><path class="cls-4" d="M779.28,353.27s-19.68,26.92-27.17,30.36C752.11,383.63,760.36,362.78,779.28,353.27Z" transform="translate(-589.01 -234.45)"/><path class="cls-4" d="M757.87,320.85s-1.56,45.32-9.57,58.82C748.3,379.67,738.56,355.38,757.87,320.85Z" transform="translate(-589.01 -234.45)"/><path class="cls-4" d="M780.56,369.51s-23.48,35.27-30.44,45c-1.64,2.29-2.64,3.22-3.19,3.2-1.63,0,.92-8.58,3.26-14.22C753.32,396,766.28,374.23,780.56,369.51Z" transform="translate(-589.01 -234.45)"/><path class="cls-4" d="M746.94,417s.15-.18,0,.13c-1.7,3.33-12,23.5-13.22,27.18-1.31,4,1-5.46,1-5.46Z" transform="translate(-589.01 -234.45)"/><path class="cls-4" d="M752.27,383.27s.29-.09.21,0c-2.06,3-7.82,16.82-9,20.51-1.31,4,.53-3.41.53-3.41Z" transform="translate(-589.01 -234.45)"/><path class="cls-4" d="M778.41,386.67S753.68,435.43,745,445.22c-11,12.46-.83-14.84,1.93-19.53S764.12,393.33,778.41,386.67Z" transform="translate(-589.01 -234.45)"/><path class="cls-4" d="M752.27,383.27s.29-.09.21,0c-2.06,3-7.82,16.82-9,20.51-1.31,4,.53-3.41.53-3.41Z" transform="translate(-589.01 -234.45)"/><path class="cls-4" d="M741.09,446.48s.16-.2,0,.15c-1.88,3.72-13.3,26.24-14.68,30.32-1.51,4.46,1.28-6,1.28-6Z" transform="translate(-589.01 -234.45)"/><path class="cls-4" d="M785.72,413.41s-35,52.67-45.56,62.53c-13.44,12.55,1.22-19.5,5-24.5S770.47,418.49,785.72,413.41Z" transform="translate(-589.01 -234.45)"/><path class="cls-4" d="M735.11,478s.61-.88.41-.5c-2.1,4.15-14.69,26.13-16.24,30.69-1.68,5,1-5.88,1-5.88Z" transform="translate(-589.01 -234.45)"/><path class="cls-4" d="M782.73,443.87S744,497.48,733.09,508.13c-13.91,13.56,3.46-21.92,9.82-30.94C749.43,468,767.17,449.61,782.73,443.87Z" transform="translate(-589.01 -234.45)"/><path class="cls-4" d="M727.93,510.4s.63-.95.43-.54c-2.23,4.42-15.52,27.9-17.19,32.74-1.83,5.29,1.19-6.22,1.19-6.22Z" transform="translate(-589.01 -234.45)"/><path class="cls-4" d="M775.53,475.54s-38.72,53.61-49.64,64.26c-13.91,13.56,3.46-21.92,9.82-30.94C742.23,499.63,760,481.28,775.53,475.54Z" transform="translate(-589.01 -234.45)"/><path class="cls-4" d="M720.73,542.07s.63-.95.43-.54c-2.23,4.42-15.89,28.71-17.57,33.55-1.83,5.29,1.39-7.33,1.39-7.33Z" transform="translate(-589.01 -234.45)"/><path class="cls-4" d="M774.61,505.7s-43.19,54.1-54.12,64.76c-13.91,13.56,6.75-26.23,13.11-35.25C740.11,526,759,511.44,774.61,505.7Z" transform="translate(-589.01 -234.45)"/><path class="cls-4" d="M716.15,572.76s.37-.5.13,0c-2.65,5.34-19.22,34.1-21.33,39.88C692.64,619,696.5,604,696.5,604Z" transform="translate(-589.01 -234.45)"/><path class="cls-4" d="M773.86,543.67s-16.23,19.21-32.4,34.17c-10.86,10-22.14,16.62-26.81,20-14.77,10.7,10-23.93,17.14-31.77C739.12,558,758.67,545.78,773.86,543.67Z" transform="translate(-589.01 -234.45)"/><path class="cls-4" d="M710.35,598.88s.37-.5.13,0c-2.65,5.34-20.51,36.44-22.45,42.26-.46,1.38,2.41-10.88,2.41-10.88Z" transform="translate(-589.01 -234.45)"/><path class="cls-4" d="M766,577.17s-18.24,21.63-36.38,38.56c-12.18,11.37-24.78,18.9-30,22.75-16.53,12.19,11.38-26.71,19.42-35.55C727.31,593.88,749.15,579.86,766,577.17Z" transform="translate(-589.01 -234.45)"/><path class="cls-4" d="M756.19,634s-22.06,8.13-39.37,17.46c-20.3,10.95-23.38,11.82-28,12.14-14.68,1,22.19-31.59,30.27-35C727.33,625,744.31,625.11,756.19,634Z" transform="translate(-589.01 -234.45)"/><path class="cls-4" d="M694.17,640.68s.89-1.29.75-1c-1.45,2.75-9.95,14.39-10.66,17.56-.17.75,1.15-5.56,1.15-5.56Z" transform="translate(-589.01 -234.45)"/><path class="cls-4" d="M687.11,661.14s.56-.58.48-.46c-.79,1.32-6.26,6.46-6.3,8.18,0,.41,0-3,0-3Z" transform="translate(-589.01 -234.45)"/></g></g><g id="leaf_2" data-name="leaf 2"><g id="Layer_3_copy_2" data-name="Layer 3 copy 2"><polygon class="cls-4" points="335.94 76.8 224.77 427.54 234.01 427.42 335.94 76.8"/><path class="cls-4" d="M920,252.38s-3.32,46.63,5,58.87C924.95,311.25,939.74,283.93,920,252.38Z" transform="translate(-589.01 -234.45)"/><path class="cls-4" d="M883.66,267s18.52,38.21,31.64,45.1C915.3,312.08,916,285.29,883.66,267Z" transform="translate(-589.01 -234.45)"/><path class="cls-4" d="M958.7,239.09S921.76,290.74,927,309.16C927,309.16,969.68,285.73,958.7,239.09Z" transform="translate(-589.01 -234.45)"/><path class="cls-4" d="M866.44,284.75s19.31,49.14,25.66,62.91c1.49,3.24,2.84,4.69,4,4.89,3.56.6,5.64-10,5.61-17.32C901.68,325.5,893.07,295.81,866.44,284.75Z" transform="translate(-589.01 -234.45)"/><path class="cls-4" d="M896.78,351.71s-.16-.26-.1.15c.71,4.43,5.05,31.28,4.36,35.91-.75,5.06,2.65-6.56,2.65-6.56Z" transform="translate(-589.01 -234.45)"/><path class="cls-4" d="M915.26,311.61s-.54-.22-.48-.06c1.74,4.25,1.91,22.08,1.22,26.71-.75,5.06,1.88-4.05,1.88-4.05Z" transform="translate(-589.01 -234.45)"/><path class="cls-4" d="M855.81,304.93s10,64.84,20,79.33c12.66,18.45,15-16.37,13.21-22.76S880.74,318.18,855.81,304.93Z" transform="translate(-589.01 -234.45)"/><path class="cls-4" d="M915.26,311.61s-.54-.22-.48-.06c1.74,4.25,1.91,22.08,1.22,26.71-.75,5.06,1.88-4.05,1.88-4.05Z" transform="translate(-589.01 -234.45)"/><path class="cls-4" d="M883.16,387.27s-.17-.29-.1.17c.75,4.94,5.36,34.88,4.72,40-.7,5.63,2.58-7.29,2.58-7.29Z" transform="translate(-589.01 -234.45)"/><path class="cls-4" d="M816.24,332.11s28.7,73.36,42.72,88.7c17.84,19.52,14.72-22.45,11.11-29.57S844.66,344,816.24,332.11Z" transform="translate(-589.01 -234.45)"/><path class="cls-4" d="M868,425.12s-.52-1.24-.44-.73c.84,5.51,8.47,35.32,7.74,41.07-.8,6.28,3-7,3-7Z" transform="translate(-589.01 -234.45)"/><path class="cls-4" d="M795.6,367.6s35.88,75.9,50,92.29c18,20.85,12-26.07,6.32-38.78C846.06,408.1,824.09,380.31,795.6,367.6Z" transform="translate(-589.01 -234.45)"/><path class="cls-4" d="M854.69,464.51s-.53-1.32-.45-.78c.87,5.87,8.67,37.64,8,43.77-.76,6.69,3-7.49,3-7.49Z" transform="translate(-589.01 -234.45)"/><path class="cls-4" d="M783,406.15s35.88,75.9,50,92.29c18,20.85,12-26.07,6.32-38.78C833.43,446.65,811.45,418.86,783,406.15Z" transform="translate(-589.01 -234.45)"/><path class="cls-4" d="M842.06,503.06s-.53-1.32-.45-.78c.87,5.87,8.77,38.71,8.07,44.83-.76,6.69,3.52-8.81,3.52-8.81Z" transform="translate(-589.01 -234.45)"/><path class="cls-4" d="M758.11,440.47s45.1,78.26,59.21,94.65c18,20.85,8.77-32.24,3.06-44.95C814.55,477.16,786.6,453.18,758.11,440.47Z" transform="translate(-589.01 -234.45)"/><path class="cls-4" d="M824.64,539.46s-.36-.71-.27-.06c1,7.07,11.14,46.11,10.56,53.47-.64,8,4.37-10.4,4.37-10.4Z" transform="translate(-589.01 -234.45)"/><path class="cls-4" d="M726,483.51S743.9,511.66,765.5,535c14.51,15.67,33,27.61,40.08,33.28,22.37,18-.26-31-8.74-42.65C788.15,513.65,756.86,492,726,483.51Z" transform="translate(-589.01 -234.45)"/><path class="cls-4" d="M813.93,571.18s-.36-.71-.27-.06c1,7.07,11.86,49.27,10.86,56.6-.23,1.73,4.48-13.22,4.48-13.22Z" transform="translate(-589.01 -234.45)"/><path class="cls-4" d="M713.07,524.37s20.13,31.69,44.22,58c16.17,17.69,36.67,31.23,44.51,37.66,24.83,20.36-.8-34.64-10.29-47.82C781.78,558.75,747.1,534.19,713.07,524.37Z" transform="translate(-589.01 -234.45)"/><path class="cls-4" d="M683.76,592.29s40.39,18,69.44,35.48c34.07,20.48,40,22.7,49.68,24.92,30.8,7-19.8-44.48-34.16-51.6C754,593.79,717.3,587.07,683.76,592.29Z" transform="translate(-589.01 -234.45)"/><path class="cls-4" d="M811.67,624.75s-.76-1.81-.7-1.47c.68,3.67,8.67,20.2,7.38,24.05-.31.91,2.47-6.72,2.47-6.72Z" transform="translate(-589.01 -234.45)"/><path class="cls-4" d="M808.71,650.62s-.68-.88-.63-.71c.52,1.81,7.77,9.79,6.32,11.74-.34.46,2.75-3.4,2.75-3.4Z" transform="translate(-589.01 -234.45)"/></g><g id="Layer_3_copy_2-2" data-name="Layer 3 copy 2"><path class="cls-4" d="M953.33,269.14s-20.25,43.26-31.1,53.06C922.22,322.2,926.33,294.66,953.33,269.14Z" transform="translate(-589.01 -234.45)"/><path class="cls-4" d="M968.28,288.7s-29.42,31.83-40.63,35.9C927.65,324.61,940,300,968.28,288.7Z" transform="translate(-589.01 -234.45)"/><path class="cls-4" d="M936.28,250.37S933.94,304,922,319.93C922,319.93,907.39,291.21,936.28,250.37Z" transform="translate(-589.01 -234.45)"/><path class="cls-4" d="M970.21,307.9s-35.12,41.71-45.52,53.24c-2.45,2.71-4,3.81-4.77,3.79-2.44-.06,1.38-10.15,4.88-16.82C929.47,339.22,948.84,313.49,970.21,307.9Z" transform="translate(-589.01 -234.45)"/><path class="cls-4" d="M919.92,364.05s.22-.21,0,.16c-2.54,3.94-18,27.78-19.77,32.14-2,4.76,1.53-6.46,1.53-6.46Z" transform="translate(-589.01 -234.45)"/><path class="cls-4" d="M927.9,324.18s.43-.11.32,0c-3.08,3.59-11.69,19.89-13.48,24.25-2,4.76.8-4,.8-4Z" transform="translate(-589.01 -234.45)"/><path class="cls-4" d="M967,328.2s-37,57.66-49.92,69.24c-16.45,14.73-1.24-17.55,2.89-23.09S945.62,336.08,967,328.2Z" transform="translate(-589.01 -234.45)"/><path class="cls-4" d="M927.9,324.18s.43-.11.32,0c-3.08,3.59-11.69,19.89-13.48,24.25-2,4.76.8-4,.8-4Z" transform="translate(-589.01 -234.45)"/><path class="cls-4" d="M911.18,398.93s.24-.23,0,.17c-2.81,4.4-19.89,31-22,35.86-2.26,5.28,1.92-7.11,1.92-7.11Z" transform="translate(-589.01 -234.45)"/><path class="cls-4" d="M977.92,359.83s-52.35,62.28-68.14,73.94c-20.09,14.84,1.83-23.06,7.4-29S955.11,365.83,977.92,359.83Z" transform="translate(-589.01 -234.45)"/><path class="cls-4" d="M902.24,436.17s.91-1,.62-.59c-3.14,4.9-22,30.9-24.28,36.29-2.52,5.89,1.55-7,1.55-7Z" transform="translate(-589.01 -234.45)"/><path class="cls-4" d="M973.45,395.84s-57.9,63.39-74.24,76c-20.8,16,5.18-25.92,14.69-36.59C923.64,424.32,950.18,402.62,973.45,395.84Z" transform="translate(-589.01 -234.45)"/><path class="cls-4" d="M891.5,474.51s.95-1.12.64-.64c-3.33,5.23-23.2,33-25.71,38.72-2.73,6.25,1.79-7.36,1.79-7.36Z" transform="translate(-589.01 -234.45)"/><path class="cls-4" d="M962.68,433.29s-57.9,63.39-74.24,76c-20.8,16,5.18-25.92,14.69-36.59C912.88,461.78,939.41,440.08,962.68,433.29Z" transform="translate(-589.01 -234.45)"/><path class="cls-4" d="M880.74,512s.95-1.12.64-.64c-3.33,5.23-23.77,33.95-26.27,39.67-2.73,6.25,2.08-8.67,2.08-8.67Z" transform="translate(-589.01 -234.45)"/><path class="cls-4" d="M961.31,469s-64.59,64-80.93,76.57c-20.8,16,10.09-31,19.6-41.68C909.71,492.93,938,475.74,961.31,469Z" transform="translate(-589.01 -234.45)"/><path class="cls-4" d="M873.88,548.26s.56-.59.19,0c-4,6.31-28.74,40.32-31.89,47.16-3.45,7.47,2.33-10.27,2.33-10.27Z" transform="translate(-589.01 -234.45)"/><path class="cls-4" d="M960.18,513.85s-24.27,22.72-48.45,40.41c-16.24,11.88-33.11,19.65-40.09,23.65-22.09,12.66,14.93-28.3,25.64-37.57C908.24,530.85,937.47,516.36,960.18,513.85Z" transform="translate(-589.01 -234.45)"/><path class="cls-4" d="M865.21,579.14s.56-.59.19,0c-4,6.31-30.67,43.09-33.57,50-.69,1.63,3.6-12.87,3.6-12.87Z" transform="translate(-589.01 -234.45)"/><path class="cls-4" d="M948.46,553.46s-27.28,25.58-54.4,45.6C875.86,612.5,857,621.41,849.21,626c-24.71,14.41,17-31.58,29-42C890.57,573.23,923.23,556.65,948.46,553.46Z" transform="translate(-589.01 -234.45)"/><path class="cls-4" d="M933.75,620.65s-33,9.62-58.87,20.65c-30.35,12.95-35,14-41.9,14.35-22,1.19,33.19-37.36,45.26-41.43C890.61,610.05,916,610.16,933.75,620.65Z" transform="translate(-589.01 -234.45)"/><path class="cls-4" d="M841,628.57a16.35,16.35,0,0,1,1.13-1.23c-2.17,3.25-14.88,17-15.94,20.77-.25.89,1.71-6.57,1.71-6.57Z" transform="translate(-589.01 -234.45)"/><path class="cls-4" d="M830.45,652.76s.83-.69.72-.54c-1.18,1.56-9.37,7.64-9.42,9.68,0,.48,0-3.58,0-3.58Z" transform="translate(-589.01 -234.45)"/></g></g><g id="leaf_3" data-name="leaf 3"><g id="Layer_3_copy_3" data-name="Layer 3 copy 3"><polygon class="cls-4" points="518.96 74.62 576.43 436.94 569 435.72 518.96 74.62"/><path class="cls-4" d="M1117.21,250.67s-1.55,46.81-9.24,58.4C1108,309.07,1098.66,280.67,1117.21,250.67Z" transform="translate(-589.01 -234.45)"/><path class="cls-4" d="M1144.76,268s-18.15,36.74-29.19,42.61C1115.56,310.64,1117.39,283.84,1144.76,268Z" transform="translate(-589.01 -234.45)"/><path class="cls-4" d="M1087.61,234.45s24.73,54.38,18.89,72.37C1106.5,306.82,1074.7,280.18,1087.61,234.45Z" transform="translate(-589.01 -234.45)"/><path class="cls-4" d="M1156.85,287.07s-19.76,47.59-26,60.86c-1.48,3.12-2.68,4.46-3.64,4.57-2.88.33-3.58-10.45-2.9-17.73C1125.18,325.08,1134.69,296.09,1156.85,287.07Z" transform="translate(-589.01 -234.45)"/><path class="cls-4" d="M1126.72,351.62s.15-.24.06.16c-1,4.37-6.82,30.85-6.69,35.53.14,5.11-1.52-6.75-1.52-6.75Z" transform="translate(-589.01 -234.45)"/><path class="cls-4" d="M1115.64,310.17s.45-.18.38,0c-1.76,4.11-3.5,21.9-3.36,26.58.14,5.11-1.13-4.19-1.13-4.19Z" transform="translate(-589.01 -234.45)"/><path class="cls-4" d="M1163.49,308s-13.78,64-23,77.69c-11.72,17.45-10.44-17.49-8.46-23.73S1142.49,319.36,1163.49,308Z" transform="translate(-589.01 -234.45)"/><path class="cls-4" d="M1115.64,310.17s.45-.18.38,0c-1.76,4.11-3.5,21.9-3.36,26.58.14,5.11-1.13-4.19-1.13-4.19Z" transform="translate(-589.01 -234.45)"/><path class="cls-4" d="M1134.36,388.16s.16-.27.06.18c-1,4.88-7.39,34.42-7.34,39.61.05,5.68-1.4-7.47-1.4-7.47Z" transform="translate(-589.01 -234.45)"/><path class="cls-4" d="M1192.5,338.19s-29.4,71.06-41.92,85.31c-15.93,18.13-9.68-23.54-6.17-30.37S1168.85,347.85,1192.5,338.19Z" transform="translate(-589.01 -234.45)"/><path class="cls-4" d="M1143,427.11s.53-1.2.42-.69c-1.16,5.44-9.9,34.62-9.84,40.42.07,6.33-1.75-7.26-1.75-7.26Z" transform="translate(-589.01 -234.45)"/><path class="cls-4" d="M1205.73,375.19s-35.33,73.05-48,88.34c-16.14,19.45-7.22-26.95-1.54-39.2C1162,411.78,1181.94,385.71,1205.73,375.19Z" transform="translate(-589.01 -234.45)"/><path class="cls-4" d="M1150.06,467.46s.54-1.28.43-.74c-1.22,5.8-10.27,36.93-10.27,43.09,0,6.73-1.68-7.7-1.68-7.7Z" transform="translate(-589.01 -234.45)"/><path class="cls-4" d="M1212.31,414.65S1177,487.7,1164.3,503c-16.14,19.45-7.22-26.95-1.54-39.2C1168.57,451.24,1188.53,425.17,1212.31,414.65Z" transform="translate(-589.01 -234.45)"/><path class="cls-4" d="M1156.64,506.91s.54-1.28.43-.74c-1.22,5.8-10.44,38-10.44,44.14,0,6.73-2-9.07-2-9.07Z" transform="translate(-589.01 -234.45)"/><path class="cls-4" d="M1229,450.82s-42.87,74.7-55.56,90c-16.14,19.45-4.08-32.86,1.6-45.11C1180.83,483.14,1205.2,461.34,1229,450.82Z" transform="translate(-589.01 -234.45)"/><path class="cls-4" d="M1167.22,544.58s.35-.68.22,0c-1.41,7-13,45.19-13.19,52.58-.21,8.08-2.54-10.72-2.54-10.72Z" transform="translate(-589.01 -234.45)"/><path class="cls-4" d="M1250.68,496.24s-16.78,26.74-36,48.4c-12.94,14.54-28.72,25-34.84,30.18-19.39,16.25,3-30.89,10.77-41.92C1198.54,521.59,1225.35,502.36,1250.68,496.24Z" transform="translate(-589.01 -234.45)"/><path class="cls-4" d="M1172.89,577.07s.35-.68.22,0c-1.41,7-13.84,48.29-13.71,55.68,0,1.75-2.38-13.54-2.38-13.54Z" transform="translate(-589.01 -234.45)"/><path class="cls-4" d="M1257.26,538s-18.85,30.1-40.35,54.57C1202.46,609,1185,621,1178.15,626.8c-21.56,18.43,3.74-34.53,12.47-47C1199.56,567.1,1229.33,545.23,1257.26,538Z" transform="translate(-589.01 -234.45)"/><path class="cls-4" d="M1274.46,608.07s-33.72,14.91-58.38,30.13c-28.92,17.85-33.8,19.62-41.73,21.1-25.11,4.67,19.73-42.9,31.78-48.92C1218.49,604.21,1248.27,600.31,1274.46,608.07Z" transform="translate(-589.01 -234.45)"/><path class="cls-4" d="M1169.88,630.72a11,11,0,0,1,.69-1.42c-.87,3.62-8.7,19.5-8,23.46.16.94-1.36-6.89-1.36-6.89Z" transform="translate(-589.01 -234.45)"/><path class="cls-4" d="M1169.91,656.78s.62-.83.57-.66c-.58,1.76-7.06,9.18-6.07,11.24.23.49-1.88-3.61-1.88-3.61Z" transform="translate(-589.01 -234.45)"/></g><g id="Layer_3_copy_3-2" data-name="Layer 3 copy 3"><path class="cls-4" d="M1089.19,264.86s12.22,44.74,20,55.35C1109.15,320.21,1108.36,292.4,1089.19,264.86Z" transform="translate(-589.01 -234.45)"/><path class="cls-4" d="M1075.55,283.26s20.53,34,29.07,38.94C1104.62,322.2,1097,296.64,1075.55,283.26Z" transform="translate(-589.01 -234.45)"/><path class="cls-4" d="M1104.43,247.42s-3,53.68,5.14,70.54C1109.56,318,1123.72,290.4,1104.43,247.42Z" transform="translate(-589.01 -234.45)"/><path class="cls-4" d="M1072.29,302.28s24.17,44.32,31.41,56.63c1.7,2.89,2.8,4.1,3.45,4.15,1.94.13-.19-10.24-2.37-17.17C1101.86,336.65,1088.78,309.49,1072.29,302.28Z" transform="translate(-589.01 -234.45)"/><path class="cls-4" d="M1107.23,362.17s-.16-.22,0,.16c1.67,4.12,11.8,29.11,12.83,33.6,1.13,4.9-.64-6.56-.64-6.56Z" transform="translate(-589.01 -234.45)"/><path class="cls-4" d="M1104.46,321.75s-.33-.14-.25,0c2.12,3.82,7.51,20.75,8.54,25.24,1.13,4.9-.27-4.08-.27-4.08Z" transform="translate(-589.01 -234.45)"/><path class="cls-4" d="M1073,322.79s24.23,60.39,33.47,72.94c11.75,16,2.56-17.42-.22-23.28S1089.31,332.29,1073,322.79Z" transform="translate(-589.01 -234.45)"/><path class="cls-4" d="M1104.46,321.75s-.33-.14-.25,0c2.12,3.82,7.51,20.75,8.54,25.24,1.13,4.9-.27-4.08-.27-4.08Z" transform="translate(-589.01 -234.45)"/><path class="cls-4" d="M1111,397.67s-.17-.25,0,.17c1.84,4.6,13,32.5,14.24,37.48,1.32,5.44-.89-7.25-.89-7.25Z" transform="translate(-589.01 -234.45)"/><path class="cls-4" d="M1061.51,353.53s36,66.18,47.52,79c14.64,16.35.62-23.17-3.29-29.49S1079.1,361.27,1061.51,353.53Z" transform="translate(-589.01 -234.45)"/><path class="cls-4" d="M1114.81,435.53s-.63-1.11-.44-.64c2.05,5.13,14.69,32.53,16,38.08,1.47,6.07-.61-7.06-.61-7.06Z" transform="translate(-589.01 -234.45)"/><path class="cls-4" d="M1061.83,389.83s40.33,67.71,52.19,81.53c15.09,17.6-1.79-26.28-8.39-37.65C1098.86,422.07,1079.72,398.38,1061.83,389.83Z" transform="translate(-589.01 -234.45)"/><path class="cls-4" d="M1119.9,474.63s-.65-1.19-.45-.68c2.18,5.47,15.48,34.71,17,40.62,1.61,6.45-.76-7.48-.76-7.48Z" transform="translate(-589.01 -234.45)"/><path class="cls-4" d="M1067,428.05s40.33,67.71,52.19,81.53c15.09,17.6-1.79-26.28-8.39-37.65C1104.06,460.29,1084.91,436.6,1067,428.05Z" transform="translate(-589.01 -234.45)"/><path class="cls-4" d="M1125.1,512.85s-.65-1.19-.45-.68c2.18,5.47,15.85,35.71,17.32,41.62,1.61,6.45-.88-8.82-.88-8.82Z" transform="translate(-589.01 -234.45)"/><path class="cls-4" d="M1064.92,463.77s45.6,68.8,57.46,82.63c15.09,17.6-5.24-31.74-11.84-43.11C1103.77,491.64,1082.81,472.31,1064.92,463.77Z" transform="translate(-589.01 -234.45)"/><path class="cls-4" d="M1127.29,549.61s-.39-.63-.15,0c2.59,6.6,19.22,42.45,21.12,49.52,2.07,7.72-.93-10.43-.93-10.43Z" transform="translate(-589.01 -234.45)"/><path class="cls-4" d="M1061.78,508.67s17.25,24.54,34.89,44c11.84,13.1,24.56,22.15,29.74,26.67,16.43,14.32-9.33-29.4-17-39.46C1101.55,529.61,1079.61,512.91,1061.78,508.67Z" transform="translate(-589.01 -234.45)"/><path class="cls-4" d="M1131.41,581.1s-.39-.63-.15,0c2.59,6.6,20.51,45.36,22.2,52.46.4,1.68-1.71-13.13-1.71-13.13Z" transform="translate(-589.01 -234.45)"/><path class="cls-4" d="M1067.54,549.12s19.39,27.62,39.15,49.68c13.27,14.81,27.44,25.14,33.24,30.28,18.35,16.27-10.69-32.83-19.31-44.18C1111.79,573.27,1087.32,554.23,1067.54,549.12Z" transform="translate(-589.01 -234.45)"/><path class="cls-4" d="M1073.21,617.32s25.36,12.12,44.94,25.11c23,15.24,26.54,16.62,32,17.53,17.35,2.86-23-39.83-32.26-44.82C1108.45,610,1088.27,608.2,1073.21,617.32Z" transform="translate(-589.01 -234.45)"/><path class="cls-4" d="M1146.21,632.3s-.92-1.63-.78-1.31c1.43,3.41,10.3,18.12,10.8,22,.12.91-.77-6.69-.77-6.69Z" transform="translate(-589.01 -234.45)"/><path class="cls-4" d="M1152.43,657.27s-.6-.75-.53-.6c.79,1.65,6.76,8.34,6.62,10.38,0,.48.35-3.57.35-3.57Z" transform="translate(-589.01 -234.45)"/></g></g><g id="leaf_4" data-name="leaf 4"><g id="Layer_3_copy_4" data-name="Layer 3 copy 4"><polygon class="cls-4" points="799.15 162.2 741.17 441.14 747.53 440.1 799.15 162.2"/><path class="cls-4" d="M1381.75,351.94s.15,35.92,6.41,44.71C1388.16,396.65,1396.8,374.71,1381.75,351.94Z" transform="translate(-589.01 -234.45)"/><path class="cls-4" d="M1357.86,365.63s14.54,28,23.79,32.32C1381.65,398,1380.77,377.4,1357.86,365.63Z" transform="translate(-589.01 -234.45)"/><path class="cls-4" d="M1407.36,339.08s-22.42,42.09-17.89,55.82C1389.47,394.9,1417.21,374,1407.36,339.08Z" transform="translate(-589.01 -234.45)"/><path class="cls-4" d="M1347.09,380.42s15.64,36.27,20.65,46.37c1.18,2.37,2.17,3.39,3,3.46,2.45.21,3.31-8.07,2.91-13.65C1373.11,409.17,1365.73,387,1347.09,380.42Z" transform="translate(-589.01 -234.45)"/><path class="cls-4" d="M1371.13,429.57s-.12-.19-.06.12c.71,3.34,5,23.59,4.81,27.18-.25,3.92,1.46-5.2,1.46-5.2Z" transform="translate(-589.01 -234.45)"/><path class="cls-4" d="M1381.6,397.59s-.38-.13-.33,0c1.4,3.13,2.43,16.77,2.2,20.36-.25,3.92,1.07-3.23,1.07-3.23Z" transform="translate(-589.01 -234.45)"/><path class="cls-4" d="M1340.92,396.61s10.13,48.93,17.63,59.33c9.54,13.24,9.33-13.57,7.79-18.33S1358.51,405,1340.92,396.61Z" transform="translate(-589.01 -234.45)"/><path class="cls-4" d="M1381.6,397.59s-.38-.13-.33,0c1.4,3.13,2.43,16.77,2.2,20.36-.25,3.92,1.07-3.23,1.07-3.23Z" transform="translate(-589.01 -234.45)"/><path class="cls-4" d="M1363.72,457.72s-.13-.21-.06.14c.76,3.73,5.43,26.32,5.26,30.31-.19,4.36,1.38-5.76,1.38-5.76Z" transform="translate(-589.01 -234.45)"/><path class="cls-4" d="M1315.46,420.15s23.26,54.15,33.56,64.92c13.11,13.7,8.83-18.2,6-23.4S1335.35,427.24,1315.46,420.15Z" transform="translate(-589.01 -234.45)"/><path class="cls-4" d="M1355.41,487.74s-.42-.91-.34-.53c.85,4.16,7.57,26.44,7.37,30.9-.22,4.86,1.67-5.59,1.67-5.59Z" transform="translate(-589.01 -234.45)"/><path class="cls-4" d="M1303.27,448.74s28.26,55.6,38.68,67.17c13.26,14.71,6.82-20.79,2.29-30.12C1339.61,476.24,1323.26,456.49,1303.27,448.74Z" transform="translate(-589.01 -234.45)"/><path class="cls-4" d="M1348.37,518.82s-.43-1-.34-.56c.89,4.43,7.82,28.21,7.67,32.94-.17,5.17,1.62-5.93,1.62-5.93Z" transform="translate(-589.01 -234.45)"/><path class="cls-4" d="M1296.68,479.12s28.26,55.6,38.68,67.17c13.26,14.71,6.82-20.79,2.29-30.12C1333,506.62,1316.67,486.88,1296.68,479.12Z" transform="translate(-589.01 -234.45)"/><path class="cls-4" d="M1341.78,549.2s-.43-1-.34-.56c.89,4.43,7.94,29,7.79,33.75-.17,5.17,1.93-7,1.93-7Z" transform="translate(-589.01 -234.45)"/><path class="cls-4" d="M1281.59,507.12s34.64,56.76,45.06,68.33c13.26,14.71,4.29-25.28-.23-34.61C1321.77,531.28,1301.58,514.87,1281.59,507.12Z" transform="translate(-589.01 -234.45)"/><path class="cls-4" d="M1331.83,578.26s-.28-.52-.19,0c1,5.35,9.94,34.52,9.92,40.19,0,6.2,2.43-8.26,2.43-8.26Z" transform="translate(-589.01 -234.45)"/><path class="cls-4" d="M1262,542.29s13.62,20.3,29.48,36.66c10.65,11,23.83,18.84,28.91,22.69,16.11,12.21-1.77-23.67-8.13-32C1305.74,561,1283.39,546.64,1262,542.29Z" transform="translate(-589.01 -234.45)"/><path class="cls-4" d="M1326.19,603.28s-.28-.52-.19,0c1,5.35,10.58,36.88,10.29,42.56-.07,1.34,2.36-10.43,2.36-10.43Z" transform="translate(-589.01 -234.45)"/><path class="cls-4" d="M1255.34,574.45s15.3,22.85,33,41.34c11.89,12.42,26.49,21.36,32.14,25.74,17.9,13.86-2.33-26.46-9.45-35.88C1303.73,596,1278.94,579.61,1255.34,574.45Z" transform="translate(-589.01 -234.45)"/><path class="cls-4" d="M1238.94,628.46s28.34,11,49,22.33c24.18,13.31,28.29,14.6,35,15.63,21.27,3.25-15.73-32.67-25.84-37.12C1286.69,624.74,1261.43,622.15,1238.94,628.46Z" transform="translate(-589.01 -234.45)"/><path class="cls-4" d="M1327.42,644.43s-.61-1.33-.55-1.08c.65,2.77,6.92,14.85,6.25,17.9-.16.72,1.33-5.31,1.33-5.31Z" transform="translate(-589.01 -234.45)"/><path class="cls-4" d="M1326.74,664.44s-.51-.63-.47-.5c.45,1.35,5.78,7,4.89,8.55-.21.38,1.69-2.79,1.69-2.79Z" transform="translate(-589.01 -234.45)"/></g><g id="Layer_3_copy_4-2" data-name="Layer 3 copy 4"><path class="cls-4" d="M1405.25,362.45s-11.52,34.52-18.38,42.76C1386.88,405.21,1388.24,383.86,1405.25,362.45Z" transform="translate(-589.01 -234.45)"/><path class="cls-4" d="M1416.41,376.38s-18.33,26.4-25.73,30.29C1390.68,406.68,1397.79,387,1416.41,376.38Z" transform="translate(-589.01 -234.45)"/><path class="cls-4" d="M1392.72,349.27s1.17,41.17-6.13,54.23C1386.58,403.49,1375.21,382.52,1392.72,349.27Z" transform="translate(-589.01 -234.45)"/><path class="cls-4" d="M1418.71,390.95s-21.69,34.36-28.15,43.9c-1.52,2.24-2.49,3.19-3,3.23-1.66.13.42-7.86,2.45-13.21C1392.67,417.73,1404.49,396.71,1418.71,390.95Z" transform="translate(-589.01 -234.45)"/><path class="cls-4" d="M1387.47,437.4s.14-.17,0,.12c-1.52,3.19-10.77,22.51-11.77,26-1.08,3.78.71-5,.71-5Z" transform="translate(-589.01 -234.45)"/><path class="cls-4" d="M1390.83,406.34s.29-.11.22,0c-1.9,3-6.91,16-7.9,19.5-1.08,3.78.33-3.14.33-3.14Z" transform="translate(-589.01 -234.45)"/><path class="cls-4" d="M1417.57,406.7s-22.14,46.7-30.32,56.45c-10.41,12.42-1.74-13.34.77-17.87S1403.47,414.21,1417.57,406.7Z" transform="translate(-589.01 -234.45)"/><path class="cls-4" d="M1390.83,406.34s.29-.11.22,0c-1.9,3-6.91,16-7.9,19.5-1.08,3.78.33-3.14.33-3.14Z" transform="translate(-589.01 -234.45)"/><path class="cls-4" d="M1383.33,464.7s.15-.2,0,.13c-1.68,3.56-11.9,25.12-13.06,29-1.26,4.2.94-5.58.94-5.58Z" transform="translate(-589.01 -234.45)"/><path class="cls-4" d="M1426.61,430.15s-32.32,51.3-42.44,61.32c-12.87,12.75.05-17.78,3.53-22.68S1411.44,436.32,1426.61,430.15Z" transform="translate(-589.01 -234.45)"/><path class="cls-4" d="M1379.18,493.83s.56-.86.39-.5c-1.88,4-13.32,25.17-14.61,29.46-1.41,4.68.69-5.43.69-5.43Z" transform="translate(-589.01 -234.45)"/><path class="cls-4" d="M1425.43,458s-36,52.53-46.47,63.31c-13.29,13.71,2.18-20.2,8.09-29C1393.1,483.27,1410,464.83,1425.43,458Z" transform="translate(-589.01 -234.45)"/><path class="cls-4" d="M1373.87,523.92s.59-.92.4-.53c-2,4.23-14,26.86-15.45,31.41-1.53,5,.83-5.76.83-5.76Z" transform="translate(-589.01 -234.45)"/><path class="cls-4" d="M1420.05,487.43s-36,52.53-46.47,63.31c-13.29,13.71,2.18-20.2,8.09-29C1387.72,512.69,1404.61,494.24,1420.05,487.43Z" transform="translate(-589.01 -234.45)"/><path class="cls-4" d="M1368.49,553.33s.59-.92.4-.53c-2,4.23-14.38,27.63-15.79,32.19-1.53,5,1-6.78,1-6.78Z" transform="translate(-589.01 -234.45)"/><path class="cls-4" d="M1421,514.82s-40.54,53.44-51,64.22c-13.29,13.71,5.25-24.44,11.16-33.26C1387.18,536.75,1405.51,521.63,1421,514.82Z" transform="translate(-589.01 -234.45)"/><path class="cls-4" d="M1365.71,581.58s.35-.49.13,0c-2.37,5.11-17.43,32.85-19.22,38.31-2,6,1.05-8,1.05-8Z" transform="translate(-589.01 -234.45)"/><path class="cls-4" d="M1422.5,549.26a454.79,454.79,0,0,1-30.8,34.29c-10.41,10.22-21.46,17.34-26,20.88-14.34,11.22,8.68-22.69,15.46-30.53C1388.13,565.87,1407.22,552.75,1422.5,549.26Z" transform="translate(-589.01 -234.45)"/><path class="cls-4" d="M1361.41,605.81s.35-.49.13,0c-2.37,5.11-18.6,35.11-20.21,40.58-.38,1.29,1.78-10.1,1.78-10.1Z" transform="translate(-589.01 -234.45)"/><path class="cls-4" d="M1416.59,580.39s-17.2,21.47-34.57,38.67c-11.67,11.55-24,19.68-29.06,23.7-16,12.74,9.92-25.35,17.54-34.18C1378.31,599.53,1399.63,584.58,1416.59,580.39Z" transform="translate(-589.01 -234.45)"/><path class="cls-4" d="M1410.07,632.82s-21.9,9.65-38.89,19.89c-19.93,12-23,13.12-27.7,13.89-14.84,2.44,20.6-30.89,28.58-34.85C1380.24,627.71,1397.47,626,1410.07,632.82Z" transform="translate(-589.01 -234.45)"/><path class="cls-4" d="M1347.53,645.32s.82-1.26.7-1c-1.3,2.64-9.22,14.05-9.75,17-.12.7.82-5.15.82-5.15Z" transform="translate(-589.01 -234.45)"/><path class="cls-4" d="M1341.61,664.57s.53-.58.46-.47c-.72,1.28-6,6.5-5.89,8.06,0,.37-.21-2.74-.21-2.74Z" transform="translate(-589.01 -234.45)"/></g></g><g id="leaf_5" data-name="leaf 5"><path class="cls-5" d="M944.81,661.74A22.3,22.3,0,0,1,927,650.89c-7.69-13.08-8.08-28.34-7.64-33.09,5.37-58.6,32.64-326.93,103-333.33,78-7.1,48.64,329.33,27.35,362.15s-84,16.5-84,16.5Z" transform="translate(-589.01 -234.45)"/><path class="cls-4" d="M1012.68,393.67s19.59-20.87,26.89-28.7,22.78-31.38,22.78-31.38l.77,3.22s-35.87,53.14-48.85,67.41-2.49-.73-2.49-.73l.9-9.81" transform="translate(-589.01 -234.45)"/><path class="cls-4" d="M1006,436.9s-18-22.57-23.92-30.37-19.23-32.21-19.23-32.21l-.79,2.52s29.58,55.16,40.2,69.36c1.84,2.47,2.17-.9,2.17-.9l1.19-6" transform="translate(-589.01 -234.45)"/><path class="cls-4" d="M1016.89,354.45s-11.73-15.22-15.62-20.48-12.52-21.75-12.52-21.75l-.77,1.25s19.48,37.72,26.41,47.3c1.2,1.66,1.44-.62,1.44-.62l.81-4.06" transform="translate(-589.01 -234.45)"/><path class="cls-4" d="M1003.84,452.76S1039.25,434,1054,416.33c14.44-17.36,16.88-22.47,16.88-22.47l.29,2.54s-31.82,49.43-67.6,72.51c-3.4,2.2-.45-3.16-.45-3.16l.75-13" transform="translate(-589.01 -234.45)"/><path class="cls-4" d="M996.78,480.55s-26.59-19-35.83-36.11c-9.07-16.81-10.74-22.78-10.74-22.78l-.6,2.46s19.3,47.82,44.55,68.08c.24.19,1,0,1,0l1.57-11.53" transform="translate(-589.01 -234.45)"/><path class="cls-4" d="M999.24,508.91s38.23-19.91,54.38-38.21c15.85-18,18.82-23.26,18.82-23.26l0,2.39s-35.26,51.11-74,75.42c-3.69,2.31-.39-3.18-.39-3.18l1.15-13.16" transform="translate(-589.01 -234.45)"/><path class="cls-4" d="M990.22,536.65s-29.31-21-39.45-40c-10-18.63-11.17-23.88-11.17-23.88L939,475.9s20.44,51.29,48.25,73.68c.26.21,1.12,0,1.12,0l1.78-12.81" transform="translate(-589.01 -234.45)"/><path class="cls-4" d="M992.93,562.38s40.34-20.8,57.58-39.55c16.91-18.4,20.41-24,20.41-24l-.14,2.49s-38,52.31-79,77.54c-3.9,2.4-.35-3.2-.35-3.2l1.45-13.28" transform="translate(-589.01 -234.45)"/><path class="cls-4" d="M984.94,588.64s-30.85-22.28-41.34-42.73c-10.28-20.07-11.85-26.79-11.85-26.79l-.58,3.66s21.16,56.11,50.4,80c.27.22,1.2-.06,1.2-.06l2.12-13.95" transform="translate(-589.01 -234.45)"/><path class="cls-4" d="M986.35,620.93s38.23-19.91,54.38-38.21c15.85-18,18.48-23,18.48-23l.72,1.92s-35.6,51.33-74.34,75.64c-3.69,2.31-1.49-3.46-1.49-3.46l2.25-12.87" transform="translate(-589.01 -234.45)"/><path class="cls-4" d="M977.32,648.67s-29.31-21-39.45-40c-10-18.63-14.32-31.38-14.32-31.38l-.43,3.5s23.44,58.38,51.25,80.77c.26.21,1.12,0,1.12,0l1.78-12.81" transform="translate(-589.01 -234.45)"/><polygon class="cls-4" points="439.27 50.27 425.09 153.23 391.93 430.82 378.89 429.17 436.2 55.82 437.47 49.79 439.27 50.27"/></g><g id="leaf_6" data-name="leaf 6"><path class="cls-5" d="M1172.28,661c-6.1-2-14.75-25.75-14.65-30.77,1-48.31,7.42-274.73,85.48-288.23,86.59-15,79.06,277.34,58.1,306.55S1181.86,666,1181.86,666Z" transform="translate(-589.01 -234.45)"/><path class="cls-4" d="M1241.64,432s20.09-19.29,27.58-26.53S1292,377.27,1292,377.27l1.13,2.53s-35.51,47.47-48.79,60.61-2.84-.3-2.84-.3l.16-8.09" transform="translate(-589.01 -234.45)"/><path class="cls-4" d="M1237.88,468s-22-16.24-29.34-21.89-24.25-23.94-24.25-23.94l-.67,2.14s37.8,41.39,50.87,51.69c2.27,1.79,2.35-1,2.35-1l.82-5" transform="translate(-589.01 -234.45)"/><path class="cls-4" d="M1243,399.61s-14.41-11-19.22-14.82-15.86-16.22-15.86-16.22l-.76,1.11s25,28.39,33.57,35.37c1.49,1.21,1.55-.67,1.55-.67l.56-3.4" transform="translate(-589.01 -234.45)"/><path class="cls-4" d="M1236.84,481.14s38-19.42,52.88-35.56c14.64-15.83,16.93-20.28,16.93-20.28l.54,2s-31.3,44-69.29,67c-3.61,2.19-.78-2.52-.78-2.52l-.28-10.66" transform="translate(-589.01 -234.45)"/><path class="cls-4" d="M1231.35,504.58s-31.34-12.31-43.14-25.15c-11.58-12.6-14-17.27-14-17.27l-.45,2.07s25.68,36.63,55.62,50.13c.28.13,1.13-.15,1.13-.15l.76-9.57" transform="translate(-589.01 -234.45)"/><path class="cls-4" d="M1236.54,527.36s41-20.71,57.48-37.51c16.17-16.48,19-21.15,19-21.15l.25,1.94s-35,45.74-76.19,70.1c-3.92,2.32-.71-2.54-.71-2.54l.16-10.84" transform="translate(-589.01 -234.45)"/><path class="cls-4" d="M1228.83,551s-34.54-13.6-47.51-27.85c-12.73-14-14.53-18.11-14.53-18.11l-.38,2.57s27.25,39.32,60.25,54.25c.31.14,1.25-.17,1.25-.17l.89-10.63" transform="translate(-589.01 -234.45)"/><path class="cls-4" d="M1234.07,571.61s43.29-21.68,60.94-39c17.31-17,20.74-21.94,20.74-21.94l.06,2s-38,47-81.55,72.41c-4.15,2.41-.67-2.56-.67-2.56l.48-11" transform="translate(-589.01 -234.45)"/><path class="cls-4" d="M1227.41,593.92S1191,579.44,1177.56,564c-13.22-15.12-15.54-20.4-15.54-20.4l-.33,3s28.46,43.16,63.18,59.11c.32.15,1.33-.19,1.33-.19l1.17-11.6" transform="translate(-589.01 -234.45)"/><path class="cls-4" d="M1231.76,620s41-20.71,57.48-37.51c16.17-16.48,18.67-20.91,18.67-20.91l1,1.48s-35.36,46-76.56,70.32c-3.92,2.32-2-2.64-2-2.64l1.41-10.74" transform="translate(-589.01 -234.45)"/><path class="cls-4" d="M1224.06,643.66s-34.54-13.6-47.51-27.85c-12.73-14-18.69-23.84-18.69-23.84l-.18,2.9s31.2,44.73,64.21,59.66c.31.14,1.25-.17,1.25-.17l.89-10.63" transform="translate(-589.01 -234.45)"/><polygon class="cls-4" points="660.7 107.08 653.71 192.52 639.6 435.33 624.32 434.9 657.75 111.95 658.64 106.9 660.7 107.08"/></g><g id="leaf_1_white" data-name="leaf 1 white"><g id="Layer_3_copy_6" data-name="Layer 3 copy 6"><polygon class="cls-6" points="256.5 211.81 181.41 429.43 187.69 429.12 256.5 211.81"/><path class="cls-6" d="M842.18,410.1s-2.22,28.64,3.33,36.16C845.51,446.25,855.41,429.48,842.18,410.1Z" transform="translate(-589.01 -234.45)"/><path class="cls-6" d="M817.9,419.07s12.39,23.47,21.16,27.7C839.06,446.77,839.55,430.31,817.9,419.07Z" transform="translate(-589.01 -234.45)"/><path class="cls-6" d="M868.09,401.93s-24.71,31.72-21.18,43C846.91,445,875.43,430.58,868.09,401.93Z" transform="translate(-589.01 -234.45)"/><path class="cls-6" d="M806.39,430s12.91,30.18,17.16,38.64c1,2,1.9,2.88,2.69,3,2.38.37,3.77-6.16,3.75-10.64C830,455,824.2,436.77,806.39,430Z" transform="translate(-589.01 -234.45)"/><path class="cls-6" d="M826.68,471.11s-.11-.16-.07.09c.47,2.72,3.38,19.22,2.92,22.06-.5,3.11,1.77-4,1.77-4Z" transform="translate(-589.01 -234.45)"/><path class="cls-6" d="M839,446.48s-.36-.13-.32,0c1.16,2.61,1.27,13.56.81,16.41-.5,3.11,1.26-2.49,1.26-2.49Z" transform="translate(-589.01 -234.45)"/><path class="cls-6" d="M799.28,442.38s6.7,39.82,13.35,48.73c8.47,11.33,10-10.06,8.83-14S816,450.51,799.28,442.38Z" transform="translate(-589.01 -234.45)"/><path class="cls-6" d="M839,446.48s-.36-.13-.32,0c1.16,2.61,1.27,13.56.81,16.41-.5,3.11,1.26-2.49,1.26-2.49Z" transform="translate(-589.01 -234.45)"/><path class="cls-6" d="M817.57,492.95s-.11-.18-.06.1c.5,3,3.59,21.43,3.15,24.59-.47,3.46,1.73-4.48,1.73-4.48Z" transform="translate(-589.01 -234.45)"/><path class="cls-6" d="M772.82,459.07s19.19,45.06,28.57,54.48c11.93,12,9.84-13.79,7.43-18.16S791.82,466.34,772.82,459.07Z" transform="translate(-589.01 -234.45)"/><path class="cls-6" d="M807.46,516.2s-.35-.76-.3-.45c.56,3.38,5.67,21.7,5.18,25.23-.53,3.86,2-4.32,2-4.32Z" transform="translate(-589.01 -234.45)"/><path class="cls-6" d="M759,480.87s24,46.62,33.43,56.69c12,12.81,8-16,4.23-23.82C792.76,505.74,778.07,488.67,759,480.87Z" transform="translate(-589.01 -234.45)"/><path class="cls-6" d="M798.53,540.4s-.35-.81-.3-.48c.58,3.61,5.8,23.12,5.33,26.88-.51,4.11,2-4.6,2-4.6Z" transform="translate(-589.01 -234.45)"/><path class="cls-6" d="M750.56,504.55s24,46.62,33.43,56.69c12,12.81,8-16,4.23-23.82C784.31,529.42,769.62,512.35,750.56,504.55Z" transform="translate(-589.01 -234.45)"/><path class="cls-6" d="M790.08,564.08s-.35-.81-.3-.48c.58,3.61,5.86,23.78,5.4,27.54-.51,4.11,2.35-5.41,2.35-5.41Z" transform="translate(-589.01 -234.45)"/><path class="cls-6" d="M733.95,525.63s30.16,48.07,39.6,58.13c12,12.81,5.86-19.8,2-27.61C771.69,548.16,753,533.44,733.95,525.63Z" transform="translate(-589.01 -234.45)"/><path class="cls-6" d="M778.44,586.43s-.24-.44-.18,0c.65,4.35,7.45,28.32,7.06,32.84-.43,4.94,2.92-6.39,2.92-6.39Z" transform="translate(-589.01 -234.45)"/><path class="cls-6" d="M712.45,552.07a259.59,259.59,0,0,0,26.44,31.63c9.7,9.63,22.08,17,26.8,20.44,15,11-.17-19-5.84-26.2C754,570.58,733.11,557.28,712.45,552.07Z" transform="translate(-589.01 -234.45)"/><path class="cls-6" d="M771.27,605.92s-.24-.44-.18,0c.65,4.35,7.93,30.26,7.26,34.76-.16,1.07,3-8.12,3-8.12Z" transform="translate(-589.01 -234.45)"/><path class="cls-6" d="M703.83,577.16s13.46,19.46,29.57,35.64c10.81,10.87,24.52,19.18,29.76,23.13,16.61,12.5-.53-21.28-6.88-29.37C749.77,598.28,726.59,583.2,703.83,577.16Z" transform="translate(-589.01 -234.45)"/><path class="cls-6" d="M684.23,618.88s27,11.07,46.44,21.79c22.79,12.58,26.72,13.94,33.22,15.31,20.6,4.32-13.24-27.32-22.84-31.7C731.21,619.8,706.65,615.68,684.23,618.88Z" transform="translate(-589.01 -234.45)"/><path class="cls-6" d="M769.76,638.82s-.51-1.11-.47-.9c.46,2.26,5.8,12.4,4.93,14.78-.2.56,1.65-4.12,1.65-4.12Z" transform="translate(-589.01 -234.45)"/><path class="cls-6" d="M767.78,654.71s-.46-.54-.42-.44c.35,1.11,5.2,6,4.22,7.21-.23.28,1.84-2.09,1.84-2.09Z" transform="translate(-589.01 -234.45)"/></g><g id="Layer_3_copy_6-2" data-name="Layer 3 copy 6"><path class="cls-6" d="M864.49,420.39S850.95,447,843.69,453C843.69,453,846.44,436.07,864.49,420.39Z" transform="translate(-589.01 -234.45)"/><path class="cls-6" d="M874.49,432.41S854.82,452,847.32,454.46A53.61,53.61,0,0,1,874.49,432.41Z" transform="translate(-589.01 -234.45)"/><path class="cls-6" d="M853.09,408.86s-1.56,32.92-9.57,42.72C843.52,451.58,833.77,433.94,853.09,408.86Z" transform="translate(-589.01 -234.45)"/><path class="cls-6" d="M875.78,444.2s-23.48,25.62-30.44,32.7c-1.64,1.66-2.64,2.34-3.19,2.33-1.63,0,.92-6.23,3.26-10.33C848.54,463.43,861.49,447.63,875.78,444.2Z" transform="translate(-589.01 -234.45)"/><path class="cls-6" d="M842.15,478.69s.15-.13,0,.1c-1.7,2.42-12,17.07-13.22,19.74-1.31,2.92,1-4,1-4Z" transform="translate(-589.01 -234.45)"/><path class="cls-6" d="M847.49,454.2s.29-.07.21,0c-2.06,2.21-7.82,12.22-9,14.9-1.31,2.92.53-2.48.53-2.48Z" transform="translate(-589.01 -234.45)"/><path class="cls-6" d="M873.63,456.66s-24.74,35.42-33.38,42.53c-11,9-.83-10.78,1.93-14.18S859.34,461.51,873.63,456.66Z" transform="translate(-589.01 -234.45)"/><path class="cls-6" d="M847.49,454.2s.29-.07.21,0c-2.06,2.21-7.82,12.22-9,14.9-1.31,2.92.53-2.48.53-2.48Z" transform="translate(-589.01 -234.45)"/><path class="cls-6" d="M836.3,500.11s.16-.14,0,.11c-1.88,2.7-13.3,19.06-14.68,22-1.51,3.24,1.28-4.37,1.28-4.37Z" transform="translate(-589.01 -234.45)"/><path class="cls-6" d="M880.94,476.09s-35,38.26-45.56,45.42c-13.44,9.11,1.22-14.17,5-17.79S865.68,479.78,880.94,476.09Z" transform="translate(-589.01 -234.45)"/><path class="cls-6" d="M830.33,523s.61-.64.41-.36c-2.1,3-14.69,19-16.24,22.29-1.68,3.62,1-4.27,1-4.27Z" transform="translate(-589.01 -234.45)"/><path class="cls-6" d="M877.95,498.21s-38.72,38.94-49.64,46.68c-13.91,9.85,3.46-15.92,9.82-22.47C844.64,515.71,862.39,502.38,877.95,498.21Z" transform="translate(-589.01 -234.45)"/><path class="cls-6" d="M823.15,546.54s.63-.69.43-.39c-2.23,3.21-15.52,20.27-17.19,23.78-1.83,3.84,1.19-4.52,1.19-4.52Z" transform="translate(-589.01 -234.45)"/><path class="cls-6" d="M870.75,521.22S832,560.16,821.1,567.9c-13.91,9.85,3.46-15.92,9.82-22.47C837.44,538.72,855.19,525.39,870.75,521.22Z" transform="translate(-589.01 -234.45)"/><path class="cls-6" d="M815.95,569.54s.63-.69.43-.39c-2.23,3.21-15.89,20.85-17.57,24.37-1.83,3.84,1.39-5.33,1.39-5.33Z" transform="translate(-589.01 -234.45)"/><path class="cls-6" d="M869.83,543.13s-43.19,39.29-54.12,47c-13.91,9.85,6.75-19.05,13.11-25.6C835.33,557.85,854.26,547.29,869.83,543.13Z" transform="translate(-589.01 -234.45)"/><path class="cls-6" d="M811.37,591.84s.37-.36.13,0c-2.65,3.88-19.22,24.77-21.33,29-2.31,4.59,1.56-6.31,1.56-6.31Z" transform="translate(-589.01 -234.45)"/><path class="cls-6" d="M869.08,570.7a400.59,400.59,0,0,1-32.4,24.82c-10.86,7.3-22.14,12.07-26.81,14.53-14.77,7.77,10-17.38,17.14-23.08C834.34,581.14,853.89,572.24,869.08,570.7Z" transform="translate(-589.01 -234.45)"/><path class="cls-6" d="M805.57,610.8s.37-.36.13,0c-2.65,3.88-20.51,26.47-22.45,30.7-.46,1,2.41-7.91,2.41-7.91Z" transform="translate(-589.01 -234.45)"/><path class="cls-6" d="M861.24,595S843,610.75,824.86,623c-12.18,8.26-24.78,13.73-30,16.52-16.53,8.85,11.38-19.4,19.42-25.82C822.52,607.17,844.36,597,861.24,595Z" transform="translate(-589.01 -234.45)"/><path class="cls-6" d="M851.4,636.3S829.34,642.2,812,649c-20.3,8-23.38,8.59-28,8.82-14.68.73,22.19-22.95,30.27-25.45C822.55,629.79,839.52,629.86,851.4,636.3Z" transform="translate(-589.01 -234.45)"/><path class="cls-6" d="M789.39,641.16a10.42,10.42,0,0,1,.75-.75c-1.45,2-9.95,10.45-10.66,12.76-.17.55,1.15-4,1.15-4Z" transform="translate(-589.01 -234.45)"/><path class="cls-6" d="M782.32,656s.56-.42.48-.33c-.79,1-6.26,4.69-6.3,5.94,0,.3,0-2.2,0-2.2Z" transform="translate(-589.01 -234.45)"/></g></g><g id="leaf_2_white" data-name="leaf 2 white"><g id="Layer_3_copy_5" data-name="Layer 3 copy 5"><polygon class="cls-6" points="463.7 208.73 510.33 435.05 504.31 434.29 463.7 208.73"/><path class="cls-6" d="M1060.21,406.7s-1.26,29.24-7.5,36.48C1052.71,443.18,1045.16,425.44,1060.21,406.7Z" transform="translate(-589.01 -234.45)"/><path class="cls-6" d="M1082.56,417.54s-14.73,22.95-23.69,26.62C1058.88,444.16,1060.36,427.42,1082.56,417.54Z" transform="translate(-589.01 -234.45)"/><path class="cls-6" d="M1036.2,396.57s20.07,34,15.32,45.21C1051.52,441.78,1025.72,425.13,1036.2,396.57Z" transform="translate(-589.01 -234.45)"/><path class="cls-6" d="M1092.38,429.44s-16,29.73-21.12,38c-1.2,1.95-2.17,2.79-3,2.86-2.34.21-2.91-6.53-2.35-11.07C1066.68,453.18,1074.39,435.07,1092.38,429.44Z" transform="translate(-589.01 -234.45)"/><path class="cls-6" d="M1067.93,469.76s.12-.15.05.1c-.78,2.73-5.53,19.27-5.43,22.19.12,3.19-1.23-4.22-1.23-4.22Z" transform="translate(-589.01 -234.45)"/><path class="cls-6" d="M1058.93,443.87s.36-.11.31,0c-1.43,2.57-2.84,13.68-2.73,16.6.12,3.19-.92-2.62-.92-2.62Z" transform="translate(-589.01 -234.45)"/><path class="cls-6" d="M1097.76,442.53s-11.18,40-18.65,48.53c-9.51,10.9-8.47-10.92-6.86-14.82S1080.72,449.61,1097.76,442.53Z" transform="translate(-589.01 -234.45)"/><path class="cls-6" d="M1058.93,443.87s.36-.11.31,0c-1.43,2.57-2.84,13.68-2.73,16.6.12,3.19-.92-2.62-.92-2.62Z" transform="translate(-589.01 -234.45)"/><path class="cls-6" d="M1074.13,492.58s.13-.17,0,.11c-.84,3-6,21.5-6,24.74,0,3.55-1.14-4.67-1.14-4.67Z" transform="translate(-589.01 -234.45)"/><path class="cls-6" d="M1121.3,461.37s-23.85,44.39-34,53.29c-12.93,11.33-7.86-14.7-5-19S1102.11,467.4,1121.3,461.37Z" transform="translate(-589.01 -234.45)"/><path class="cls-6" d="M1081.12,516.91s.43-.75.34-.43c-.94,3.4-8,21.63-8,25.25.06,4-1.42-4.53-1.42-4.53Z" transform="translate(-589.01 -234.45)"/><path class="cls-6" d="M1132,484.48s-28.66,45.63-39,55.18c-13.1,12.15-5.86-16.83-1.25-24.49C1096.54,507.34,1112.73,491.05,1132,484.48Z" transform="translate(-589.01 -234.45)"/><path class="cls-6" d="M1086.86,542.11s.44-.8.35-.46c-1,3.62-8.33,23.07-8.33,26.92,0,4.21-1.36-4.81-1.36-4.81Z" transform="translate(-589.01 -234.45)"/><path class="cls-6" d="M1137.37,509.13s-28.66,45.63-39,55.18c-13.1,12.15-5.86-16.83-1.25-24.49C1101.88,532,1118.07,515.7,1137.37,509.13Z" transform="translate(-589.01 -234.45)"/><path class="cls-6" d="M1092.21,566.76s.44-.8.35-.46c-1,3.62-8.47,23.72-8.47,27.57,0,4.21-1.63-5.66-1.63-5.66Z" transform="translate(-589.01 -234.45)"/><path class="cls-6" d="M1150.9,531.72s-34.78,46.66-45.08,56.21c-13.1,12.15-3.31-20.52,1.3-28.18C1111.83,551.91,1131.6,538.29,1150.9,531.72Z" transform="translate(-589.01 -234.45)"/><path class="cls-6" d="M1100.79,590.29s.28-.43.18,0c-1.14,4.37-10.54,28.23-10.7,32.85-.17,5-2.06-6.7-2.06-6.7Z" transform="translate(-589.01 -234.45)"/><path class="cls-6" d="M1168.5,560.09a279.52,279.52,0,0,1-29.25,30.23c-10.5,9.08-23.3,15.64-28.27,18.85-15.74,10.15,2.42-19.29,8.74-26.19C1126.2,575.93,1148,563.92,1168.5,560.09Z" transform="translate(-589.01 -234.45)"/><path class="cls-6" d="M1105.39,610.58s.28-.43.18,0c-1.14,4.37-11.23,30.16-11.13,34.78,0,1.09-1.93-8.46-1.93-8.46Z" transform="translate(-589.01 -234.45)"/><path class="cls-6" d="M1173.84,586.19s-15.29,18.8-32.74,34.08c-11.72,10.26-25.92,17.73-31.44,21.37-17.5,11.51,3-21.57,10.12-29.33C1127,604.36,1151.18,590.7,1173.84,586.19Z" transform="translate(-589.01 -234.45)"/><path class="cls-6" d="M1187.8,629.94s-27.36,9.31-47.36,18.82C1117,659.91,1113,661,1106.58,661.94c-20.37,2.92,16-26.8,25.79-30.56C1142.38,627.54,1166.55,625.1,1187.8,629.94Z" transform="translate(-589.01 -234.45)"/><path class="cls-6" d="M1102.94,644.1s.62-1.09.56-.88c-.71,2.26-7.06,12.18-6.51,14.65.13.58-1.1-4.31-1.1-4.31Z" transform="translate(-589.01 -234.45)"/><path class="cls-6" d="M1103,660.37s.5-.52.46-.41c-.47,1.1-5.73,5.74-4.93,7,.19.3-1.53-2.25-1.53-2.25Z" transform="translate(-589.01 -234.45)"/></g><g id="Layer_3_copy_5-2" data-name="Layer 3 copy 5"><path class="cls-6" d="M1037.48,415.57s9.91,27.95,16.2,34.57C1053.67,450.14,1053,432.77,1037.48,415.57Z" transform="translate(-589.01 -234.45)"/><path class="cls-6" d="M1026.41,427.06s16.66,21.25,23.59,24.33A49.75,49.75,0,0,0,1026.41,427.06Z" transform="translate(-589.01 -234.45)"/><path class="cls-6" d="M1049.84,404.67s-2.39,33.53,4.17,44.06C1054,448.73,1065.5,431.52,1049.84,404.67Z" transform="translate(-589.01 -234.45)"/><path class="cls-6" d="M1023.77,438.94s19.61,27.68,25.48,35.37c1.38,1.81,2.27,2.56,2.8,2.59,1.58.08-.15-6.4-1.92-10.72C1047.76,460.41,1037.14,443.44,1023.77,438.94Z" transform="translate(-589.01 -234.45)"/><path class="cls-6" d="M1052.11,476.35s-.13-.14,0,.1c1.35,2.58,9.57,18.19,10.41,21,.92,3.06-.52-4.1-.52-4.1Z" transform="translate(-589.01 -234.45)"/><path class="cls-6" d="M1049.87,451.1s-.27-.09-.21,0c1.72,2.39,6.09,13,6.93,15.77.92,3.06-.22-2.55-.22-2.55Z" transform="translate(-589.01 -234.45)"/><path class="cls-6" d="M1024.37,451.75s19.66,37.72,27.15,45.56c9.54,10,2.08-10.88-.18-14.54S1037.58,457.68,1024.37,451.75Z" transform="translate(-589.01 -234.45)"/><path class="cls-6" d="M1049.87,451.1s-.27-.09-.21,0c1.72,2.39,6.09,13,6.93,15.77.92,3.06-.22-2.55-.22-2.55Z" transform="translate(-589.01 -234.45)"/><path class="cls-6" d="M1055.21,498.52s-.14-.16,0,.11c1.49,2.88,10.57,20.3,11.55,23.41,1.07,3.4-.72-4.53-.72-4.53Z" transform="translate(-589.01 -234.45)"/><path class="cls-6" d="M1015,471s29.22,41.34,38.56,49.36c11.88,10.21.5-14.47-2.67-18.42S1029.29,475.78,1015,471Z" transform="translate(-589.01 -234.45)"/><path class="cls-6" d="M1058.26,522.17s-.51-.69-.35-.4c1.67,3.21,11.92,20.32,13,23.79,1.19,3.79-.49-4.41-.49-4.41Z" transform="translate(-589.01 -234.45)"/><path class="cls-6" d="M1015.28,493.63s32.72,42.29,42.34,50.93c12.24,11-1.45-16.41-6.81-23.52C1045.32,513.76,1029.79,499,1015.28,493.63Z" transform="translate(-589.01 -234.45)"/><path class="cls-6" d="M1062.4,546.6s-.53-.74-.37-.43c1.77,3.42,12.56,21.68,13.76,25.37,1.31,4-.62-4.67-.62-4.67Z" transform="translate(-589.01 -234.45)"/><path class="cls-6" d="M1019.49,517.5s32.72,42.29,42.34,50.93c12.24,11-1.45-16.41-6.81-23.52C1049.54,537.64,1034,522.84,1019.49,517.5Z" transform="translate(-589.01 -234.45)"/><path class="cls-6" d="M1066.61,570.47s-.53-.74-.37-.43c1.77,3.42,12.86,22.31,14.05,26,1.31,4-.71-5.51-.71-5.51Z" transform="translate(-589.01 -234.45)"/><path class="cls-6" d="M1017.79,539.81s37,43,46.62,51.61c12.24,11-4.25-19.82-9.61-26.93C1049.31,557.22,1032.3,545.15,1017.79,539.81Z" transform="translate(-589.01 -234.45)"/><path class="cls-6" d="M1068.39,593.43s-.32-.39-.12,0c2.1,4.13,15.6,26.52,17.14,30.93,1.68,4.82-.75-6.52-.75-6.52Z" transform="translate(-589.01 -234.45)"/><path class="cls-6" d="M1015.24,567.86a367.17,367.17,0,0,0,28.31,27.51c9.61,8.18,19.92,13.83,24.13,16.66,13.33,8.95-7.57-18.36-13.8-24.65C1047.5,580.94,1029.71,570.5,1015.24,567.86Z" transform="translate(-589.01 -234.45)"/><path class="cls-6" d="M1071.73,613.1s-.32-.39-.12,0c2.1,4.13,16.64,28.34,18,32.77.32,1-1.39-8.2-1.39-8.2Z" transform="translate(-589.01 -234.45)"/><path class="cls-6" d="M1019.91,593.12a426,426,0,0,0,31.76,31c10.76,9.25,22.27,15.7,27,18.91,14.89,10.16-8.67-20.51-15.67-27.6C1055.81,608.21,1036,596.32,1019.91,593.12Z" transform="translate(-589.01 -234.45)"/><path class="cls-6" d="M1024.51,635.72s20.58,7.57,36.46,15.68c18.63,9.52,21.53,10.38,26,10.95,14.07,1.79-18.68-24.88-26.17-28C1053.11,631.17,1036.73,630,1024.51,635.72Z" transform="translate(-589.01 -234.45)"/><path class="cls-6" d="M1083.74,645.08a9.74,9.74,0,0,0-.64-.82c1.16,2.13,8.35,11.32,8.77,13.71.1.57-.63-4.18-.63-4.18Z" transform="translate(-589.01 -234.45)"/><path class="cls-6" d="M1088.79,660.68s-.49-.47-.43-.37c.64,1,5.48,5.21,5.37,6.48,0,.3.29-2.23.29-2.23Z" transform="translate(-589.01 -234.45)"/></g></g></svg>