<?xml version="1.0" encoding="utf-8"?>
<!-- Generator: Adobe Illustrator 23.0.3, SVG Export Plug-In . SVG Version: 6.00 Build 0)  -->
<svg version="1.1" xmlns="http://www.w3.org/2000/svg" xmlns:xlink="http://www.w3.org/1999/xlink" x="0px" y="0px"
	 viewBox="0 0 565.6 319.5" style="enable-background:new 0 0 565.6 319.5;" xml:space="preserve">
<style type="text/css">
	.st0{fill:#F8F8FF;}
	.st1{fill:#E9EDFC;}
	.st2{fill:#E1E6FC;}
	.st3{fill:#BAC4F6;}
	.st4{fill:#BAC4F6;stroke:#FFFFFF;stroke-width:0.75;stroke-linecap:round;stroke-miterlimit:10;}
	.st5{fill:none;stroke:#FFFFFF;stroke-width:0.75;stroke-linecap:round;stroke-miterlimit:10;}
	.st6{fill:#FFFFFF;}
	.st7{fill:#4B44BE;}
	.st8{fill:url(#SVGID_1_);}
	.st9{fill:url(#SVGID_2_);}
	.st10{fill:url(#SVGID_3_);}
	.st11{fill:url(#SVGID_4_);}
	.st12{opacity:7.000000e-02;enable-background:new    ;}
	.st13{fill:url(#SVGID_5_);}
	.st14{fill:url(#SVGID_6_);}
	.st15{fill:url(#SVGID_7_);}
	.st16{fill:url(#SVGID_8_);}
	.st17{fill:url(#SVGID_9_);}
	.st18{fill:url(#SVGID_10_);}
	.st19{fill:url(#SVGID_11_);}
	.st20{fill:url(#SVGID_12_);}
	.st21{fill:url(#SVGID_13_);}
	.st22{fill:url(#SVGID_14_);}
	.st23{fill:#4A41BC;}
	.st24{fill:url(#SVGID_15_);}
	.st25{fill:url(#SVGID_16_);}
	.st26{fill:url(#SVGID_17_);}
</style>
<g id="Layer_1">
	<title>bg1</title>
	<path class="st0" d="M1.6,319.5c0,0-11.9-98.5,29.8-128.4c36.4-26,66.7-41.8,128.3-43.8s95.5-2,132.3-42.8S378.7,2.2,434.4,0.1
		c53.7-2,86.6,14.9,117.4,134.3s-1,181.1-2,182.1C549.1,317.2,1.6,319.5,1.6,319.5z"/>
	<path class="st1" d="M252,241.6c3.4-41-9.2-101,5.5-109.4c14.6-8.2,19.5-10.9,34.6-27.6C328.9,63.8,378.7,2.2,434.4,0.1
		c53.7-2,86.6,14.9,117.4,134.3c15.4,59.7,14.5,91.2,13,110.1c-0.8,10.4-1.6,23.9-2.1,24.4C561.9,269.6,249.2,275.7,252,241.6z"/>
	<path class="st2" d="M127.4,109.3L123,317.5c0,1.5,4,1,5,1h6L133,109.6l35.7,1l-15.5-87.7c-0.8-4.5-4.7-7.9-9.4-7.9h-24.7
		c-5.9,0-11,4.2-12,10l-15.1,83.5L127.4,109.3z"/>
	<g id="Flower">
		<path class="st2" d="M65.8,269.4c0,0-0.2,8.2,1.2,9.1c0.6,0.5,1.3,0.8,2,1l6.9,37.1c0,0,20.1,3.7,30.2-0.5l6.9-36.6l2.3-0.9
			l0.9-9.2C116.2,269.4,91.5,261.2,65.8,269.4z"/>
		<path class="st3" d="M68.1,279.3c0,0,27,2.1,30.2,1.2s2.3-8.2,2.3-8.2l13.3-1.4c0,0,0,7.8-0.9,8.7c-1,1.2-1.8,2.6-2.3,4.1
			c0,0.5-5.5,33-5.5,33s-8.7,1.4-10.1,1.4s3.7-27,3.7-28.8s0-5.5-1.4-5.5s-27.8,0.8-28-2.2C69.2,280.7,68.8,279.9,68.1,279.3z"/>
		<path class="st3" d="M78.8,271.1c0,0-7.5-5.3-11.5-5.8s-8.6-1-12.6-1.6s-9.1-2.4-9-4.8s0.6-3.5,2.9-4.8c2-1.3,4.2-2.1,6.6-2.4
			c1.8-0.2,19.8,4.5,27.3,15.7l3,3.7H78.8z"/>
		<path class="st4" d="M52.7,258.1c0,0,6.9-0.1,10.7,1.1c3,1.1,5.8,2.4,8.6,4l11.3,7.9"/>
		<path class="st3" d="M86.7,270.8c0,0-8.8-11.9-12.2-15.2s-7.4-7.2-10.7-10.7s-7.4-8.5-5.7-10.6s3-3.5,6.2-3
			c2.5,0.3,4.9,1.1,6.9,2.6c1.8,1.1,17.7,16.3,20,33.7l2.3,3.5L86.7,270.8z"/>
		<path class="st5" d="M66.1,238.3c0,0,6.8,4.1,9.5,8c2.5,3.7,6.5,10.2,6.5,10.2l4.6,12.5"/>
		<path class="st1" d="M91.1,271.4c0,0-10.2-22.2-12.1-26.6s-9.7-11-11.4-15.5s-2.8-7.7-1-10.2s6.5-4.5,9.5-3
			c2.8,1.4,6.5,5.6,8.1,7.7c1.3,1.7,9.6,31.8,8.9,38.8l1.6,8.9L91.1,271.4z"/>
		<path class="st5" d="M73.1,224.3c0,0,5.9,7.6,7.7,12c2,5,4,14.5,3.7,13l6.1,20.6"/>
		<path class="st1" d="M85.5,271.3c0,0-9-10.3-13.4-12.3s-9.4-4.2-13.7-6.4s-9.4-5.8-8.6-8s1.8-3.1,4.9-3.5c2.7-0.5,5.5-0.4,8.2,0.2
			c2,0.5,20.8,11.9,25.6,25.4l2.2,4.7L85.5,271.3z"/>
		<path class="st5" d="M58.1,246.5c0,0,7.8,2.6,11.7,5.2c2.9,2.2,5.7,4.5,8.4,7.1l8.6,12.6"/>
		<path class="st3" d="M109,271.5c0,0,8.2-5,12.5-5.5s9.3-0.9,13.7-1.5s9.8-2.3,9.7-4.5s-0.6-3.3-3.2-4.6c-2.2-1.2-4.6-2-7.1-2.3
			c-1.9-0.2-21.4,4.3-29.6,15l-3.3,3.5L109,271.5z"/>
		<path class="st4" d="M137.2,259c0,0-7.5-0.1-11.6,1.1c-3.2,1-6.3,2.3-9.3,3.8l-10.9,7.3"/>
		<path class="st3" d="M100.4,271.2c0,0,9.5-11.4,13.2-14.6s8-6.9,11.6-10.2s8.1-8.1,6.2-10.1s-3.2-3.3-6.7-2.9
			c-2.7,0.2-5.2,1.1-7.5,2.5c-1.9,1.1-19.1,15.6-21.6,32.2l-2.5,3.4L100.4,271.2z"/>
		<path class="st5" d="M122.7,240.2c0,0-7.4,3.9-10.3,7.6c-2.7,3.5-7.1,9.8-7.1,9.8l-4.9,11.9"/>
		<path class="st1" d="M95.7,271.8c0,0,11.1-21.2,13.1-25.4s10.5-10.5,12.4-14.8s3.1-7.4,1.1-9.7s-7.1-4.3-10.3-2.9
			c-3.1,1.3-7,5.3-8.8,7.4c-1.4,1.6-10.4,30.4-9.7,37.1l-1.7,8.5L95.7,271.8z"/>
		<path class="st3" d="M94.6,271.5c0,0,0.9-20.7,3-27.4c1.4-4.5,2.8-12,4.7-16.2s-1-9.8-2.9-12.2s-7-1.9-10.3-0.5
			c-3.1,1.3-4.8,5.6-5.2,7.9c-0.3,2.1,7,27,6.2,36.2l0.6,12.4L94.6,271.5z"/>
		<path class="st5" d="M115.2,226.8c0,0-6.3,7.2-8.3,11.5c-2.2,4.8-4.3,13.9-4,12.4l-7.2,20.2"/>
		<path class="st1" d="M101.8,271.6c0,0,9.8-9.8,14.5-11.7s10.2-4,14.8-6.1s10.2-5.5,9.3-7.6s-1.9-2.9-5.3-3.3
			c-2.9-0.4-5.9-0.4-8.8,0.2c-2.2,0.5-22.5,11.3-27.7,24.2l-2.4,4.4L101.8,271.6z"/>
		<path class="st5" d="M131.3,248c0,0-8.4,2.4-12.6,4.9c-3.2,2-6.2,4.3-9.1,6.7l-9.5,10.6"/>
		<path class="st5" d="M92.6,219.5c0,0,1.7,17.7,0.7,22.5c-0.4,2-0.2,14.5-0.2,14.5l-0.4,13.8"/>
	</g>
	<polygon class="st3" points="93,103.9 167.2,105.3 168.7,110.6 92.1,108.6 	"/>
	<path class="st3" d="M457.9,116.8l-0.6,145.8l92.6,0.2c0,0,0.7-76.8-3-150.3l-88.8-1.3L457.9,116.8z"/>
	<polygon class="st3" points="370.7,135.7 368.3,263 447.4,263 446.9,135.7 	"/>
	<polygon class="st3" points="255.8,210.4 369.6,211 368.3,263 256.2,262.9 	"/>
	<path class="st6" d="M246.4,137l0.3,126.3c0,0,0.7,7.9,8.3,8.3s306.8,0.5,306.8,0.5s2.7-8.4,1.6-8.7s-307.2-0.3-307.2-0.3
		s0.1-4.5,0.1-7.3c0-3.2-0.2-122.6-0.2-122.6C253.1,134.7,249.8,136,246.4,137z"/>
	<polygon class="st6" points="253,149.5 555.7,151.4 557.3,157.9 253,159.4 	"/>
	<polygon class="st6" points="338.4,51.2 338.4,263.2 346.4,263.8 346.4,45.7 	"/>
	<polygon class="st6" points="483,8.6 482.8,263.2 490.2,262.6 491.4,13.6 	"/>
	<polygon class="st6" points="346.4,45.7 519.2,46.8 514.2,37.8 356.3,37.7 	"/>
	<circle class="st6" cx="375.5" cy="69.9" r="17.6"/>
	<circle class="st6" cx="392.6" cy="75.5" r="11.5"/>
	<circle class="st6" cx="508.8" cy="86.1" r="17.9"/>
	<circle class="st6" cx="490.3" cy="88.4" r="11.7"/>
</g>
<g id="Layer_2">
	<g id="Man">
		<g>
			<path class="st7" d="M500.1,309.8c-1.2-5.1-1.6-11.7-2.4-11.8h-0.9l-8.6,0.1c0,0-1.8,8.2-2.7,11.6c-0.1,0.2-0.2,0.8-0.4,1.2
				c-0.2,0.6-0.2,1.2-0.2,1.8c0.2,3.1,1.4,5.8,4.1,7.1c3.1,1.5,5.4,3,8.6,0C500.9,316.8,501.3,314.9,500.1,309.8z"/>
			<path class="st7" d="M473,298.8l-10.9,0.6c0,0-4.3,7.5-10.6,9.2c-5.9,1.7-15.7,5.8-11.3,8.2c3.2,1.9,24.1,0.2,29.2,0.6
				c3.8,0.3,4.9-2,4.5-7.1C473.6,306.4,473,298.8,473,298.8z"/>
		</g>
		
			<linearGradient id="SVGID_1_" gradientUnits="userSpaceOnUse" x1="1036.1917" y1="1856.3555" x2="1096.0282" y2="1856.3555" gradientTransform="matrix(1 0 0 1 -584.07 -1625.03)">
			<stop  offset="0" style="stop-color:#4F68CA"/>
			<stop  offset="1" style="stop-color:#5ACEED"/>
		</linearGradient>
		<path class="st8" d="M460,163.2c0,0-7.3,59.9-7.8,63.8c-0.5,3.9,2.5,23.9,2.5,27.7c0,3.8,7.1,44.7,7.1,44.7l11.3-0.5
			c0,0-2.3-60.2-2-63.1s12.6-37.8,12.6-37.8s0.9,9.2,0.9,12.2s3.4,88.1,3.4,88.1h9.9l14-125.4l-0.2-2.4L460,163.2z"/>
		
			<linearGradient id="SVGID_2_" gradientUnits="userSpaceOnUse" x1="1029.3594" y1="1742.7834" x2="1113.4447" y2="1742.7834" gradientTransform="matrix(1 0 0 1 -584.07 -1625.03)">
			<stop  offset="0" style="stop-color:#F87B58"/>
			<stop  offset="0.41" style="stop-color:#F89453"/>
			<stop  offset="0.71" style="stop-color:#F8C548"/>
			<stop  offset="1" style="stop-color:#F89C51"/>
		</linearGradient>
		<path class="st9" d="M493.3,47.4c0,0-10.9,4.2-13.3,5.2c-2.4,1-3.8,4-3.8,4s-1.2-0.7-1.2,1.3c0,2,1,6.6,1.8,7.9
			c1.3,2,2.4,4.1,3.5,6.2c1,2.1,0.6,6.5-0.4,7.1s-19.4,17.2-19.4,17.2l-15.2,46.9l2,14.8l3.1,14.6c0,0-0.6,1.1,0.6,2.3
			c1.3,1.2,6.8,10.3,6.8,10.3l1.9-13.4l-6.2-19.8l-2.2-16.7l14.6-29.8l50.5,9l5.5,32.5l-10.2,27.7l-1.8,13.5l8.6-7.5
			c0.5-0.4,1.5-2.5,1.9-3.6l5.1-14.4l3.8-23c0,0-31.9-57.5-33.5-60.9c-0.7-1.5,0.1-5.3,0.5-7.1c0.4-1.7,1.2-3.9,2-4.5
			c1.2-1.3,1.8-3.2,2.1-4.9c0-1.2,0.5-5.9-0.7-4.8c-0.2,0.3-1.1-1.1-1.5-3C497.5,51.5,495.5,49.2,493.3,47.4z"/>
		
			<linearGradient id="SVGID_3_" gradientUnits="userSpaceOnUse" x1="1024.0522" y1="1753.8486" x2="1117.4845" y2="1753.8486" gradientTransform="matrix(1 0 0 1 -584.07 -1625.03)">
			<stop  offset="0" style="stop-color:#E1A1ED"/>
			<stop  offset="1" style="stop-color:#7658F4"/>
		</linearGradient>
		<path class="st10" d="M489.2,94.3c-0.8,0.7-2,0.6-2.8-0.1c-0.6-0.9-1.1-1.8-1.5-2.7c-0.8-1.6-7-10.8-7-10.8s-14.8,3.8-17.2,5.3
			c-2.4,1.6-4.6,3.8-5.4,6.6c-0.8,2.8-12.2,36.1-12.8,38.2c-0.6,2-3.5,5.3-2.1,13.4c1.4,8.2,9.1,29.2,9.9,29.4c0.8,0.2,9-3.8,9-3.8
			s-6.5-26.1-6.5-28.7s5.8-10,8.2-15c2.3-5,4.1-9.4,4.9-11.6c0.8-2.2-7,43.3-7,43.3s-0.2,8.3,1.4,9.1c1.5,0.7,18.9,7.4,22.9,8.9
			c0.4,0.2,0.9-0.1,1.1-0.5l0,0l2.6-7.4c0-0.1,0.1-0.2,0.2-0.1c0.1,0,0.1,0.1,0.1,0.1l2.4,8c0.1,0.4,0.6,0.6,1,0.6l21.5-4.6
			c0,0-0.3-39.6,0.1-46.3c0.3-6.5-0.5-10.1,0.7-8.3c1.3,1.9,6.7,19.8,6.7,22.8c0,3-6.1,29.3-6.1,29.3l8,4.5c0,0,10.9-28.9,11.4-32.7
			c0.6-3.8,0.8-5.8-1-9.6c-1.8-3.8-11.7-38.4-11.7-38.4s-1-4.2-8.3-6.4s-12.7-5.4-14-5.3c-1.3,0.1-5.3,7.7-7.1,10
			C490,92.5,490.2,92.9,489.2,94.3z"/>
		
			<linearGradient id="SVGID_4_" gradientUnits="userSpaceOnUse" x1="473.0077" y1="490.6197" x2="501.1031" y2="490.6197" gradientTransform="matrix(1 0 0 1 0 -442)">
			<stop  offset="0" style="stop-color:#4F68CA"/>
			<stop  offset="1" style="stop-color:#5ACEED"/>
		</linearGradient>
		<path class="st11" d="M493.2,47.5c0,0-12.2,4.5-14.7,6.3c-1.9,1.4-2.3,2.7-2.3,2.7s-1.3-0.6-1.2,1.3c0.1,1.9-1.5-2.9-1.9-4.5
			c-0.3-1.5-0.4-5.8,2.9-9s7-5.5,10-5.3s5.6,1.1,8,3.4c2.4,2.3,3,2.2,3.5,2.4c0.5,0.2,3,2.9,3.3,5.8s-0.6,7.2-0.6,7.2
			s-0.6-0.6-1.2-0.2c-0.6,0.5-0.8-2.8-2.9-6.7C494.7,48.1,493.2,47.5,493.2,47.5z"/>
		<path class="st12" d="M485.5,191.9c-1.4,4.1-6.8,12-10.4,16.8c-3.6,4.8-14.5,14.8-13.8,27.1c0.7,12.2,8.1,43.7,8.1,46.6
			c0,2.8-2.8,16.2-4.9,20.3c-2.1,4.1-3.1,11.5-2,11.5c1.9-0.1,4-0.3,5.9-0.8c1.8-0.4,3.6-0.8,5.3-1.4c0.7-0.3,0.9-2.7,0.9-2.7
			c0.1-1-0.1-2-0.3-2.9c-0.5-1.5-0.9-3.1-1.1-4.6c-0.4-11.5-1.5-38.2-1.2-40c0.4-3.5-2.4-21.1,0.2-29.7
			C474.7,223.3,485.5,191.9,485.5,191.9z"/>
		<path class="st12" d="M459.2,170l-1.9,14.4c0,0,1.9,3,2.4,0.5c0.6-2.5,4.5-7.2,2-10.6C459.4,170.9,459.2,170,459.2,170z"/>
		<path class="st12" d="M511.9,174l-0.6,6.9l-0.8,6.6c0,0-2.8,2-2.7-0.6c0.1-2.6-4.6-6.5-1.1-9.1S511.9,174,511.9,174z"/>
		<path class="st12" d="M477.8,80.9c0.5-0.1-2.3,0.6,0.2-0.2c4.3-1.4,2.5-9.5,2.5-9.5s0.4,3,4.5,4.2c4.1,1.2,5.1,0.3-1,3.2
			s-2.9,3.8-2.5,7.5"/>
		<path class="st12" d="M465.6,117.5l-6.8,41.3c0,0,0.1,7.4,1.4,8.4s5.7,1.8,6.6,2.5c1,0.7,11.5,4.2,8.7-1.7
			c-0.6-1.3-14.8-9.2-8.5-17.6c6.3-8.3,5.2-19.8,2.2-27.9c-1.8-4.7-2.7-9.7-2.4-14.7L465.6,117.5z"/>
	</g>
</g>
<g id="Layer_3">
	<g id="Table">
		<title>Table</title>
		
			<linearGradient id="SVGID_5_" gradientUnits="userSpaceOnUse" x1="808.5999" y1="-957.4562" x2="1013.5999" y2="-957.4562" gradientTransform="matrix(1 0 0 -1 -664.67 -767.14)">
			<stop  offset="0" style="stop-color:#58CAEA"/>
			<stop  offset="1" style="stop-color:#4C4CBF"/>
		</linearGradient>
		<path class="st13" d="M144.5,187.6c-0.3,0-0.5,0.2-0.5,0.5l0,0c0,1.5,0.3,5.2,3.4,5.2c3.6,0,187.4-0.1,198.5-0.1
			c0.4,0,1-0.7,1.4-1.2c0.5-0.6,1.3-1.6,1.7-3.7c0.1-0.5-0.2-0.9-0.7-1c-0.1,0-0.1,0-0.2,0L144.5,187.6z"/>
		
			<linearGradient id="SVGID_6_" gradientUnits="userSpaceOnUse" x1="822.3552" y1="-962.325" x2="1002.6222" y2="-962.325" gradientTransform="matrix(1 0 0 -1 -664.67 -767.14)">
			<stop  offset="0" style="stop-color:#4B45BD"/>
			<stop  offset="1" style="stop-color:#4C4CBF"/>
		</linearGradient>
		<path class="st14" d="M157.7,193.3c0,0-0.3,4,3,4c3.2,0,164.7-0.3,174.4-0.4c0.3,0,0.7-0.1,1-0.3c0.6-0.5,1.6-1.5,1.9-3.5
			L157.7,193.3z"/>
		
			<linearGradient id="SVGID_7_" gradientUnits="userSpaceOnUse" x1="305.4061" y1="-539.0588" x2="326.8614" y2="-539.0588" gradientTransform="matrix(1 0 0 -1 0 -282)">
			<stop  offset="0" style="stop-color:#4B45BD"/>
			<stop  offset="1" style="stop-color:#4C4CBF"/>
		</linearGradient>
		<polyline class="st15" points="305.4,196.8 307.3,196.8 326.9,317.2 325.3,317.3 305.4,196.8 305.4,196.8 		"/>
		
			<linearGradient id="SVGID_8_" gradientUnits="userSpaceOnUse" x1="-752.2902" y1="-1024.4629" x2="-730.8316" y2="-1024.4629" gradientTransform="matrix(-1.22 0 0 -1 -716.9001 -767.14)">
			<stop  offset="0" style="stop-color:#4B45BD"/>
			<stop  offset="1" style="stop-color:#4C4CBF"/>
		</linearGradient>
		<polyline class="st16" points="199.8,197.1 197.6,197.1 173.6,317.4 175.5,317.5 199.8,197.1 199.8,197.1 		"/>
		
			<linearGradient id="SVGID_9_" gradientUnits="userSpaceOnUse" x1="-763.7144" y1="-1020.0728" x2="-742.259" y2="-1020.0728" gradientTransform="matrix(-1.22 0 0 -1 -716.9001 -767.14)">
			<stop  offset="0" style="stop-color:#4B45BD"/>
			<stop  offset="1" style="stop-color:#4C4CBF"/>
		</linearGradient>
		<polyline class="st17" points="213.8,197.1 211.6,197.1 187.6,308.7 189.4,308.8 213.8,197.1 213.8,197.1 		"/>
		
			<linearGradient id="SVGID_10_" gradientUnits="userSpaceOnUse" x1="748.276" y1="-1019.5612" x2="769.7598" y2="-1019.5612" gradientTransform="matrix(1.16 0 0 -1 -578.57 -767.14)">
			<stop  offset="0" style="stop-color:#4B45BD"/>
			<stop  offset="1" style="stop-color:#4C4CBF"/>
		</linearGradient>
		<polyline class="st18" points="289.6,196.6 291.7,196.6 314.5,308.1 312.7,308.2 289.6,196.6 289.6,196.6 		"/>
	</g>
</g>
<g id="Layer_4">
	<g id="Laptop">
		<title>Laptop</title>
		
			<linearGradient id="SVGID_11_" gradientUnits="userSpaceOnUse" x1="200.18" y1="725.2494" x2="259.668" y2="725.2494" gradientTransform="matrix(1 0 0 1 0 -554)">
			<stop  offset="0" style="stop-color:#CD94EF"/>
			<stop  offset="1" style="stop-color:#7D5DF5"/>
		</linearGradient>
		<polyline class="st19" points="201.1,190.1 252.1,188 259.7,152.4 207.9,152.9 200.2,190 		"/>
		<ellipse class="st6" cx="230.6" cy="172.3" rx="3.1" ry="3.3"/>
		
			<linearGradient id="SVGID_12_" gradientUnits="userSpaceOnUse" x1="853.9539" y1="1166.2797" x2="882.8976" y2="1166.2797" gradientTransform="matrix(1 0 0 1 -681.86 -977.55)">
			<stop  offset="0" style="stop-color:#7A5BF5"/>
			<stop  offset="1" style="stop-color:#8260F4"/>
		</linearGradient>
		<path class="st20" d="M200.7,187.4l-27.8,0c-0.2,0-0.3,0.1-0.4,0.3l-0.4,1.7c0,0.2,0.1,0.4,0.3,0.4c0,0,0,0,0.1,0l27.7,0.3
			c0.2,0,0.3-0.1,0.4-0.3l0.5-1.9C201.1,187.7,201,187.5,200.7,187.4C200.7,187.4,200.7,187.4,200.7,187.4z"/>
		
			<linearGradient id="SVGID_13_" gradientUnits="userSpaceOnUse" x1="882.0562" y1="1148.3364" x2="941.5443" y2="1148.3364" gradientTransform="matrix(1 0 0 1 -681.86 -977.55)">
			<stop  offset="0" style="stop-color:#7A5BF5"/>
			<stop  offset="0.71" style="stop-color:#8260F4"/>
		</linearGradient>
		<path class="st21" d="M207.1,151.9l51.8-0.4c0.1,0,0.1,0,0.2,0.1l0.7,0.8l-51.6,0.4c-0.1,0-0.2,0.1-0.2,0.2l-6.7,36.8
			c0,0.1-0.1,0.2-0.2,0.2l-0.5,0c-0.1,0-0.2-0.1-0.2-0.2c0,0,0,0,0,0l6.4-37.5C206.7,152.1,206.8,151.9,207.1,151.9z"/>
	</g>
</g>
<g id="Layer_5">
	<g>
		<title>Cup</title>
		<g id="Cup">
			
				<linearGradient id="SVGID_14_" gradientUnits="userSpaceOnUse" x1="1340.5941" y1="1383.271" x2="1307.6171" y2="1394.7288" gradientTransform="matrix(1 0 0 1 -1025.09 -1209)">
				<stop  offset="0" style="stop-color:#59CFEE"/>
				<stop  offset="1" style="stop-color:#4A41BC"/>
			</linearGradient>
			<path class="st22" d="M297,171.2c-0.4-0.1-0.9-0.2-1.3-0.3c-0.9-0.2-2,0.1-2.6,0.8c-0.4,0.5-0.7,1.2-0.8,1.9
				c-0.4,2.1,0.3,4.3,1.9,5.7c1.1,1.1,2.4,2.1,3.7,2.9c0.4,0.2,0.7,0.6,0.7,1c0.4,1.5,0.9,3,1.5,4.4c0.1,0.2,0.2,0.2,0.3,0.3
				c2.7,0.8,5.5,0.8,8.2,0.1c0.6-0.2,0.6-0.2,0.9-0.8c1.1-2.9,1.9-5.9,2.3-8.9c0.4-2.8,0.6-5.6,0.5-8.4c0-0.5,0-0.5-0.5-0.7
				c-0.8-0.3-1.7-0.4-2.6-0.4c-2.2-0.2-4.5-0.2-6.8-0.2c-1.4,0-2.9,0.2-4.3,0.5c-0.3,0.1-0.6,0.2-0.9,0.3c-0.1,0.1-0.2,0.1-0.2,0.3
				C297,170.2,297,170.7,297,171.2z M297.9,180.9L297.9,180.9c-2.4-1.2-3.9-3-4.1-5.7c-0.1-0.6,0-1.1,0.2-1.8c0.2-0.5,0.5-0.9,1-1
				c0.8-0.1,1.5,0.3,1.9,1v0.8c0.1,1.7,0.3,3.4,0.6,5C297.6,179.8,297.7,180.3,297.9,180.9L297.9,180.9z"/>
			<path class="st23" d="M297.1,169.4c0,0,7.4-2.2,15.2,0C312.3,169.4,305.8,172,297.1,169.4z"/>
			
				<linearGradient id="SVGID_15_" gradientUnits="userSpaceOnUse" x1="1355.4139" y1="778.131" x2="1352.4468" y2="771.5782" gradientTransform="matrix(1 0 0 -1 -1049.95 940.21)">
				<stop  offset="0" style="stop-color:#59CFEE"/>
				<stop  offset="1" style="stop-color:#4A41BC"/>
			</linearGradient>
			<path class="st24" d="M309.4,152.5c0.5,2.7-0.3,5.5-2.1,7.7c-0.7,1-1.5,1.8-2.2,2.8c-1.1,1.5-1.9,3.2-2.2,5.1
				c0,0.2-0.2,0.6-0.2,0.8l0,0c0-0.5-0.2-0.8-0.2-1.3c-0.1-2.2,0.7-4.3,2.1-6.1c0.6-0.8,1.3-1.6,1.9-2.3c1.5-1.8,2.5-3.8,2.9-6"/>
			
				<linearGradient id="SVGID_16_" gradientUnits="userSpaceOnUse" x1="1351.8989" y1="779.4375" x2="1350.0596" y2="774.4341" gradientTransform="matrix(1 0 0 -1 -1049.95 940.21)">
				<stop  offset="0" style="stop-color:#59CFEE"/>
				<stop  offset="1" style="stop-color:#4A41BC"/>
			</linearGradient>
			<path class="st25" d="M299.8,166c0-0.3-0.1-0.5-0.2-0.7c-0.1-1.8,0.5-3.6,1.8-5c0.7-0.8,1.3-1.6,1.8-2.4c0.7-1,1.1-2.2,1.3-3.4
				c0.1-0.2,0.1-0.8,0.1-0.4l0.1,0.1c0.1,0.3,0.1,0.7,0.2,1c0,1.6-0.6,3.2-1.6,4.5l-1.8,2.2c-0.7,0.9-1.1,1.9-1.4,3
				c-0.1,0.1-0.1,0.3-0.1,0.4C300,165.5,299.9,165.7,299.8,166L299.8,166z"/>
			
				<linearGradient id="SVGID_17_" gradientUnits="userSpaceOnUse" x1="1359.8832" y1="778.4639" x2="1358.0219" y2="773.3946" gradientTransform="matrix(1 0 0 -1 -1049.95 940.21)">
				<stop  offset="0" style="stop-color:#59CFEE"/>
				<stop  offset="1" style="stop-color:#4A41BC"/>
			</linearGradient>
			<path class="st26" d="M307.9,167.1c0-0.1-0.1-0.5-0.2-0.9c-0.1-1.8,0.5-3.6,1.8-5c0.7-0.8,1.3-1.6,1.8-2.4c0.7-1,1.1-2.2,1.3-3.4
				c0.1-0.1,0.2-0.8,0.1-0.3v0.1c0.1,0.3,0.1,0.6,0.2,0.9c0,1.6-0.6,3.2-1.6,4.5l-1.8,2.2c-0.7,0.9-1.1,1.9-1.4,3
				c-0.1,0.1-0.1,0.3-0.1,0.4c0,0.3-0.1,0.5-0.2,0.8L307.9,167.1z"/>
		</g>
	</g>
</g>
</svg>
