<?xml version="1.0" encoding="utf-8"?>
<!-- Generator: Adobe Illustrator 23.0.3, SVG Export Plug-In . SVG Version: 6.00 Build 0)  -->
<svg version="1.1" id="Layer_1" xmlns="http://www.w3.org/2000/svg" xmlns:xlink="http://www.w3.org/1999/xlink" x="0px" y="0px"
	 viewBox="0 0 1088.7 607.2" style="enable-background:new 0 0 1088.7 607.2;" xml:space="preserve">
<style type="text/css">
	.st0{fill:#F8F8FF;}
	.st1{fill:#F5F5FC;}
	.st2{fill:#BAC6F2;}
	.st3{fill:#FFFFFF;}
	.st4{fill:none;stroke:#FFFFFF;stroke-width:3;stroke-linecap:round;stroke-linejoin:round;}
	.st5{fill:none;stroke:#FFFFFF;stroke-width:3;stroke-miterlimit:10;}
	.st6{fill:url(#SVGID_1_);stroke:url(#SVGID_2_);stroke-width:5;stroke-miterlimit:10;}
	.st7{fill:url(#SVGID_3_);stroke:url(#SVGID_4_);stroke-miterlimit:10;}
	.st8{fill:url(#SVGID_5_);stroke:url(#SVGID_6_);stroke-miterlimit:10;}
	.st9{fill:none;stroke:url(#SVGID_7_);stroke-width:5;stroke-miterlimit:10;}
	.st10{fill:url(#SVGID_8_);}
	.st11{fill:url(#SVGID_9_);stroke:url(#SVGID_10_);stroke-miterlimit:10;}
	.st12{fill:url(#SVGID_11_);stroke:url(#SVGID_12_);stroke-miterlimit:10;}
	.st13{fill:url(#SVGID_13_);}
	.st14{fill:url(#SVGID_14_);}
	.st15{fill:url(#SVGID_15_);}
	.st16{fill:url(#SVGID_16_);}
	.st17{fill:url(#SVGID_17_);}
	.st18{fill:url(#SVGID_18_);}
	.st19{fill:url(#SVGID_19_);}
	.st20{fill:url(#SVGID_20_);}
</style>
<title>bg11</title>
<g id="bg">
	<path class="st0" d="M25.4,258.3c-12.4-57.4,13.6-121.9,68-144c42.8-17.4,108.3-23.2,196-2c232,56,212-8,302-58
		c79.2-44,176-98,344,4c127.4,77.4,52,198,138,272c55.3,47.6-38,278-306,228s-328.7,20.2-450,46c-122,26-373.9-128.7-306-200
		C51.4,362.3,33.2,294.3,25.4,258.3z"/>
	<path class="st1" d="M94.9,272.3c-10.6-49.3,11.7-104.8,58.5-123.8c36.8-15,93.1-19.9,168.5-1.7c199.4,48.1,182.2-6.9,259.6-49.9
		c68.1-37.8,151.3-84.2,295.7,3.4c109.5,66.5,44.7,170.2,118.6,233.8c47.5,40.9-32.7,239-263,196s-282.5,17.3-386.8,39.5
		C241,592,24.4,459.1,82.8,397.8C117.2,361.7,101.5,303.3,94.9,272.3z"/>
	<path class="st2" d="M172.7,275.4c-9.1-42.2,10-89.7,50-106c31.5-12.8,79.7-17,144.3-1.5c170.8,41.2,156-5.9,222.3-42.7
		c58.3-32.4,129.5-72.1,253.2,2.9c93.8,56.9,38.3,145.7,101.6,200.2c40.7,35-28,204.6-225.2,167.8S476.9,511,387.6,530
		c-89.8,19.1-275.2-94.7-225.2-147.2C191.9,351.9,178.4,301.9,172.7,275.4z"/>
</g>
<g id="Elippses">
	<circle class="st3" cx="204.4" cy="300.3" r="8"/>
	<circle class="st3" cx="266.9" cy="251.8" r="4.5"/>
	<circle class="st3" cx="282.4" cy="373.3" r="5"/>
	<circle class="st3" cx="239.9" cy="442.8" r="5.5"/>
	<circle class="st3" cx="366.9" cy="465.8" r="5.5"/>
	<circle class="st3" cx="604.4" cy="463.3" r="6"/>
	<circle class="st3" cx="702.9" cy="334.8" r="5.5"/>
	<circle class="st3" cx="778.4" cy="260.3" r="4"/>
	<circle class="st3" cx="839.9" cy="276.8" r="5.5"/>
	<circle class="st3" cx="885.4" cy="207.3" r="5"/>
	<circle class="st3" cx="876.4" cy="410.3" r="5"/>
	<circle class="st3" cx="793.9" cy="471.8" r="5.5"/>
	<circle class="st3" cx="494.4" cy="397.3" r="9"/>
	<circle class="st3" cx="538.4" cy="299.3" r="9"/>
	<circle class="st3" cx="653.4" cy="256.3" r="9"/>
	<circle class="st3" cx="652.9" cy="391.8" r="9.5"/>
	<circle class="st3" cx="750.9" cy="378.8" r="9.5"/>
	<circle class="st3" cx="457.4" cy="338.3" r="9"/>
	<circle class="st3" cx="515.4" cy="418.3" r="9"/>
	<circle class="st3" cx="580.4" cy="349.3" r="9"/>
	<circle class="st3" cx="347.9" cy="373.8" r="8.5"/>
	<circle class="st3" cx="433.9" cy="264.7" r="8.5"/>
	<polyline class="st4" points="171.8,439.7 204.4,300.3 344.4,374.3 456.4,338.3 494.4,397.3 515.4,421.3 580.4,348.3 652.4,393.3 
		749.4,378.3 	"/>
	<polyline class="st5" points="460.3,338.3 537.2,298.2 653.4,256.3 	"/>
	<circle class="st3" cx="352.9" cy="202.8" r="4.5"/>
	<circle class="st3" cx="679.4" cy="124.3" r="4"/>
	<circle class="st3" cx="440.9" cy="222.8" r="4.5"/>
	<circle class="st3" cx="582.4" cy="194.3" r="4"/>
	<circle class="st3" cx="345.9" cy="296.8" r="3.5"/>
	<circle class="st3" cx="742.4" cy="156.3" r="6"/>
	<circle class="st3" cx="628.4" cy="211.3" r="4"/>
	<circle class="st3" cx="224.4" cy="193.3" r="5"/>
	<circle class="st3" cx="820.4" cy="338.3" r="5"/>
	<polyline class="st5" points="876.4,410.3 820.4,338.3 839.4,276.3 778.4,260.3 	"/>
	<line class="st4" x1="433.9" y1="264.7" x2="456.4" y2="338.3"/>
</g>
<g>
	
		<linearGradient id="SVGID_1_" gradientUnits="userSpaceOnUse" x1="844.3931" y1="686.6442" x2="823.6133" y2="565.403" gradientTransform="matrix(1 0 0 1 0 -424)">
		<stop  offset="0" style="stop-color:#21C2C1"/>
		<stop  offset="1" style="stop-color:#84F599"/>
	</linearGradient>
	
		<linearGradient id="SVGID_2_" gradientUnits="userSpaceOnUse" x1="-1420.5974" y1="-2258.1958" x2="-1290.6864" y2="-2258.1958" gradientTransform="matrix(-0.1691 -0.9868 -0.9868 0.1691 -1623.516 -753.2311)">
		<stop  offset="0" style="stop-color:#21C2C1"/>
		<stop  offset="1" style="stop-color:#84F599"/>
	</linearGradient>
	<polygon class="st6" points="772.5,207.4 828.7,140.5 895.5,196.7 839.4,263.5 	"/>
	
		<linearGradient id="SVGID_3_" gradientUnits="userSpaceOnUse" x1="1571.493" y1="-1357.9044" x2="1655.754" y2="-1357.9044" gradientTransform="matrix(1.0012 -4.678037e-03 -4.678037e-03 -1.0012 -823.6127 -1111.1113)">
		<stop  offset="0" style="stop-color:#93FD93"/>
		<stop  offset="1" style="stop-color:#21C2C1"/>
	</linearGradient>
	
		<linearGradient id="SVGID_4_" gradientUnits="userSpaceOnUse" x1="1570.7882" y1="-1357.9047" x2="1656.4585" y2="-1357.9047" gradientTransform="matrix(1.0012 -4.678037e-03 -4.678037e-03 -1.0012 -823.6127 -1111.1113)">
		<stop  offset="0" style="stop-color:#21C2C1"/>
		<stop  offset="1" style="stop-color:#84F599"/>
	</linearGradient>
	<polygon class="st7" points="756,218.2 768.3,203.5 840.6,263.5 828.3,278.3 	"/>
	<path class="st3" d="M854,205.9c-4.7,0-61.6,16-61.6,16l44.1,37.3l7.8-19.4C844.3,239.9,855.4,205.9,854,205.9z"/>
	
		<linearGradient id="SVGID_5_" gradientUnits="userSpaceOnUse" x1="743.7072" y1="599.6944" x2="831.5125" y2="599.6944" gradientTransform="matrix(1 0 0 1 0 -424)">
		<stop  offset="0" style="stop-color:#21C2C1"/>
		<stop  offset="1" style="stop-color:#84F599"/>
	</linearGradient>
	
		<linearGradient id="SVGID_6_" gradientUnits="userSpaceOnUse" x1="743.2072" y1="-197.6944" x2="832.0125" y2="-197.6944" gradientTransform="matrix(1 0 0 -1 0 -22)">
		<stop  offset="0" style="stop-color:#21C2C1"/>
		<stop  offset="1" style="stop-color:#84F599"/>
	</linearGradient>
	<rect x="743.7" y="131.8" class="st8" width="87.8" height="87.8"/>
	
		<linearGradient id="SVGID_7_" gradientUnits="userSpaceOnUse" x1="740.5123" y1="-909.0403" x2="833.3176" y2="-909.0403" gradientTransform="matrix(1 0 0 -1 0 -734)">
		<stop  offset="0" style="stop-color:#21C2C1"/>
		<stop  offset="1" style="stop-color:#84F599"/>
	</linearGradient>
	<rect x="743" y="131.1" class="st9" width="87.8" height="87.8"/>
	
		<linearGradient id="SVGID_8_" gradientUnits="userSpaceOnUse" x1="741.9903" y1="-962.9376" x2="831.8395" y2="-962.9376" gradientTransform="matrix(1 0 0 -1 0 -734)">
		<stop  offset="0" style="stop-color:#93FD93"/>
		<stop  offset="1" style="stop-color:#21C2C1"/>
	</linearGradient>
	<rect x="742" y="219.1" class="st10" width="89.8" height="19.6"/>
	<polygon class="st3" points="792,217.3 816.9,175.6 829.8,193.7 829.8,218.2 819.7,218.2 	"/>
	<polygon class="st3" points="768.3,217.9 797.8,178.4 821.3,218.2 	"/>
	<path class="st3" d="M770.6,148c3.9,0,7,3.1,7,7c0,3.9-3.1,7-7,7s-7-3.1-7-7C763.5,151.2,766.7,148,770.6,148L770.6,148"/>
</g>
<g id="Laptop">
	<title>Laptop</title>
	
		<linearGradient id="SVGID_9_" gradientUnits="userSpaceOnUse" x1="220.677" y1="828.5818" x2="395.8298" y2="828.5818" gradientTransform="matrix(1 0 0 1 0 -554)">
		<stop  offset="0" style="stop-color:#21C2C1"/>
		<stop  offset="1" style="stop-color:#84F599"/>
	</linearGradient>
	<linearGradient id="SVGID_10_" gradientUnits="userSpaceOnUse" x1="220.1875" y1="274.579" x2="396.4487" y2="274.579">
		<stop  offset="0" style="stop-color:#21C2C1"/>
		<stop  offset="1" style="stop-color:#84F599"/>
	</linearGradient>
	<polyline class="st11" points="223.5,330 373.5,323.8 395.8,219.2 243.4,220.5 220.7,329.9 	"/>
	<ellipse class="st3" cx="310.1" cy="277.8" rx="9.1" ry="9.6"/>
	
		<linearGradient id="SVGID_11_" gradientUnits="userSpaceOnUse" x1="819.8422" y1="1303.5994" x2="905.0621" y2="1303.5994" gradientTransform="matrix(1 0 0 1 -681.86 -977.55)">
		<stop  offset="0" style="stop-color:#21C2C1"/>
		<stop  offset="1" style="stop-color:#84F599"/>
	</linearGradient>
	<linearGradient id="SVGID_12_" gradientUnits="userSpaceOnUse" x1="137.4822" y1="326.0494" x2="223.7021" y2="326.0494">
		<stop  offset="0" style="stop-color:#21C2C1"/>
		<stop  offset="1" style="stop-color:#84F599"/>
	</linearGradient>
	<path class="st12" d="M222.1,322.2l-81.9-0.1c-0.5,0-0.9,0.3-1.1,0.8l-1.1,4.9c-0.1,0.6,0.2,1.1,0.8,1.2c0.1,0,0.1,0,0.2,0
		l81.7,0.8c0.5,0,0.9-0.3,1.1-0.8l1.4-5.6c0.1-0.6-0.2-1.2-0.8-1.2C222.3,322.2,222.2,322.2,222.1,322.2z"/>
	
		<linearGradient id="SVGID_13_" gradientUnits="userSpaceOnUse" x1="902.5849" y1="1250.7687" x2="1077.7377" y2="1250.7687" gradientTransform="matrix(1 0 0 1 -681.86 -977.55)">
		<stop  offset="0" style="stop-color:#93FD93"/>
		<stop  offset="1" style="stop-color:#21C2C1"/>
	</linearGradient>
	<path class="st13" d="M240.9,217.6l152.4-1.1c0.2,0,0.4,0.1,0.6,0.3l2,2.4L244,220.5c-0.3,0-0.6,0.2-0.7,0.6l-19.8,108.3
		c0,0.3-0.4,0.6-0.7,0.6l-1.3,0c-0.4,0-0.7-0.3-0.7-0.7c0,0,0,0,0-0.1l18.9-110.4C239.7,218.1,240.3,217.6,240.9,217.6z"/>
</g>
<g id="Layer_6">
	<g id="Layer_18">
		
			<linearGradient id="SVGID_14_" gradientUnits="userSpaceOnUse" x1="1349.6711" y1="-864.5659" x2="1435.6161" y2="-864.5659" gradientTransform="matrix(0.9006 -0.4347 -0.4347 -0.9006 -1077.1931 276.6345)">
			<stop  offset="0" style="stop-color:#93FD93"/>
			<stop  offset="0.51" style="stop-color:#21C2C1"/>
			<stop  offset="1" style="stop-color:#84F599"/>
		</linearGradient>
		<path class="st14" d="M599.3,469.4c0,0-9.6-34.9-48.9-37.1s-40.7-1.3-47.8-0.3c-4.1,0.5-6.5,4.8,0,7.9c6.6,3.2,4.9,5.6,14.1,3.9
			c9.2-1.7,15.3,7.7,20.6,8.2c5.3,0.5,9.2-0.6,24.2-1.2c13.7-0.6,30,8.5,32.4,13.4c2.4,4.9,14.2,1.1,14.2,1.1L599.3,469.4z"/>
		
			<linearGradient id="SVGID_15_" gradientUnits="userSpaceOnUse" x1="1381.8739" y1="-837.4232" x2="1430.7078" y2="-897.2946" gradientTransform="matrix(0.9006 -0.4347 -0.4347 -0.9006 -1077.1931 276.6345)">
			<stop  offset="0" style="stop-color:#93FD93"/>
			<stop  offset="0.51" style="stop-color:#21C2C1"/>
			<stop  offset="1" style="stop-color:#84F599"/>
		</linearGradient>
		<path class="st15" d="M596,465.5c0,0-6.3-33.3-41.2-36.1c-34.9-2.8-44.3,2-50.6,2.6c-3.6,0.4,6.7,0.1,12.5,3.1
			c5.8,3,4.4,2.4,12.5,2.8c9.4,0.5,14.4,3,19.1,1.7c6.9-1.8,8.2,5.6,21.5,5.3c12-0.3,19.1,11.1,21.3,15.6c2.2,4.5,12.6,1.4,12.6,1.4
			L596,465.5z"/>
		
			<linearGradient id="SVGID_16_" gradientUnits="userSpaceOnUse" x1="1438.1053" y1="-905.1246" x2="1505.2421" y2="-853.178" gradientTransform="matrix(0.9006 -0.4347 -0.4347 -0.9006 -1077.1931 276.6345)">
			<stop  offset="0" style="stop-color:#93FD93"/>
			<stop  offset="0.51" style="stop-color:#21C2C1"/>
			<stop  offset="1" style="stop-color:#84F599"/>
		</linearGradient>
		<path class="st16" d="M621.3,448l1.7-4.4c0.8-2.1,2.1-3.9,3.8-5.4c8.4-7.2,34-31.2,35.5-60.1c0-0.2-0.2-0.5-0.5-0.5l-0.1,0
			c-0.1,0-0.1,0-0.2,0c-4.3,1.7-26,11.7-42.9,50.1c-0.3,0.6-0.6,1.4-0.7,2.1c-0.2,1.3-0.6,3.6-0.7,4.8c-0.1,1.7,2.5,3.2,1.4,6.1
			c-1.1,2.9-3,9.9-3,9.9l4.8,0.9L621.3,448z"/>
		
			<linearGradient id="SVGID_17_" gradientUnits="userSpaceOnUse" x1="1454.983" y1="-878.7429" x2="1397.3191" y2="-805.7437" gradientTransform="matrix(0.9006 -0.4347 -0.4347 -0.9006 -1077.1931 276.6345)">
			<stop  offset="0" style="stop-color:#93FD93"/>
			<stop  offset="0.51" style="stop-color:#21C2C1"/>
			<stop  offset="1" style="stop-color:#84F599"/>
		</linearGradient>
		<path class="st17" d="M604,453.9c0,0-27.4-77.8-61.1-90.1c-31-11.3-21.9,8.4-20.2,11.7c0.1,0.3,0.4,0.5,0.6,0.7
			c9.3,6.8,16.1,16.4,19.2,27.5c3,11.7,17.6,2.9,24,12.8c6.4,9.9,19.5,23.5,22.6,31.2c3,7.7,6.5,15,6.5,15l8.4-3.8L604,453.9z"/>
		
			<linearGradient id="SVGID_18_" gradientUnits="userSpaceOnUse" x1="1398.0496" y1="-833.5058" x2="1438.6212" y2="-833.5058" gradientTransform="matrix(0.9006 -0.4347 -0.4347 -0.9006 -1077.1931 276.6345)">
			<stop  offset="0" style="stop-color:#93FD93"/>
			<stop  offset="0.51" style="stop-color:#21C2C1"/>
			<stop  offset="1" style="stop-color:#84F599"/>
		</linearGradient>
		<path class="st18" d="M604,454.2c0-0.2-0.1-0.4-0.1-0.6c-1.8-5.1-28.4-77.9-61-89.8c-30.8-11.3-21.9,8.1-20.1,11.5
			c0.2,0.4,0.6,0.7,1,0.9c2.6,1.5,14,7.9,19.5,3.8c15.2-11,10.2,16.1,24.4,22.5c11.3,5,23,35.3,26.1,43.1c1.7,4.4,3,8.9,3.9,13.5
			c0.3,1.2,1.5,1.8,2.6,1.5c0.1,0,0.1,0,0.2-0.1c0.2-0.1,0.3-0.1,0.4-0.1l1.5-0.7c0.9-0.4,1.5-1.2,1.5-2.2L604,454.2z"/>
		
			<linearGradient id="SVGID_19_" gradientUnits="userSpaceOnUse" x1="1435.1436" y1="-899.7919" x2="1479.0929" y2="-836.2321" gradientTransform="matrix(0.9006 -0.4347 -0.4347 -0.9006 -1077.1931 276.6345)">
			<stop  offset="0" style="stop-color:#93FD93"/>
			<stop  offset="0.51" style="stop-color:#21C2C1"/>
			<stop  offset="1" style="stop-color:#84F599"/>
		</linearGradient>
		<path class="st19" d="M614.2,454.6c0,0-8.4-21.1-2.5-39.4c1.7-5,4.8-9.4,8.9-12.7c3.2-2.5,7.6-8.2,8.1-20.2c0,0,3.1-18.2,10.7-27
			c7.6-8.8-2.2-4.6-2.2-4.6s-25,18.5-34.8,43.1c-0.6,1.5-1.3,3.1-2.2,4.5c-3.1,5.3-10,23.2,7.1,57.3L614.2,454.6z"/>
		
			<linearGradient id="SVGID_20_" gradientUnits="userSpaceOnUse" x1="1409.8066" y1="-916.2177" x2="1472.4252" y2="-916.2177" gradientTransform="matrix(0.9006 -0.4347 -0.4347 -0.9006 -1077.1931 276.6345)">
			<stop  offset="0" style="stop-color:#F8C547"/>
			<stop  offset="1" style="stop-color:#F71D69"/>
		</linearGradient>
		<path class="st20" d="M637.3,441.4c0,0-0.8-2.7-4-1c-2.8,1.5-51.5,24.6-51.5,24.6s-2.3,1.1-1.3,2.7c1,1.6,27.8,38.5,29,39
			c0.5,0.4,1.2,0.5,1.9,0.4c1-0.2,35-16.8,35-16.8c0.8-0.5,1-1.4,0.7-2.3C647,488.1,637.6,441.9,637.3,441.4"/>
	</g>
</g>
</svg>
