<svg id="behind_woman" data-name="behind woman" xmlns="http://www.w3.org/2000/svg" xmlns:xlink="http://www.w3.org/1999/xlink" viewBox="0 0 202.89 500.99"><defs><style>.cls-1{fill:none;}.cls-2{fill:url(#linear-gradient);}.cls-3{fill:url(#linear-gradient-2);}.cls-4{fill:url(#linear-gradient-3);}.cls-5{fill:url(#linear-gradient-4);}.cls-6{fill:url(#linear-gradient-5);}.cls-7{fill:url(#linear-gradient-6);}.cls-8{clip-path:url(#clip-path);}.cls-9{fill:#4b44be;}.cls-10{opacity:0.1;}</style><linearGradient id="linear-gradient" x1="226.83" y1="536.84" x2="343.37" y2="536.84" gradientUnits="userSpaceOnUse"><stop offset="0" stop-color="#5282d3"/><stop offset="0.28" stop-color="#4f68ca"/><stop offset="1" stop-color="#5aceed"/></linearGradient><linearGradient id="linear-gradient-2" x1="368.23" y1="363.53" x2="390.05" y2="363.53" gradientUnits="userSpaceOnUse"><stop offset="0" stop-color="#f87b58"/><stop offset="0.5" stop-color="#f8c548"/><stop offset="1" stop-color="#f89c51"/></linearGradient><linearGradient id="linear-gradient-3" x1="302.47" y1="665.26" x2="325.4" y2="665.26" gradientTransform="matrix(1, -0.04, 0.04, 1, 75.5, -302.54)" xlink:href="#linear-gradient-2"/><linearGradient id="linear-gradient-4" x1="261.17" y1="341.94" x2="407.86" y2="341.94" gradientUnits="userSpaceOnUse"><stop offset="0" stop-color="#906af2"/><stop offset="0.12" stop-color="#e1a1ed"/><stop offset="0.64" stop-color="#9b71f1"/><stop offset="0.94" stop-color="#7658f4"/><stop offset="1" stop-color="#7658f4"/></linearGradient><linearGradient id="linear-gradient-5" x1="284.47" y1="253.23" x2="318.09" y2="253.23" xlink:href="#linear-gradient-2"/><linearGradient id="linear-gradient-6" x1="223.4" y1="239.93" x2="318.52" y2="239.93" gradientUnits="userSpaceOnUse"><stop offset="0" stop-color="#4b44be"/><stop offset="0.33" stop-color="#4b44be"/><stop offset="1" stop-color="#5bd3ef"/></linearGradient><clipPath id="clip-path" transform="translate(-223.4 -197.62)"><rect class="cls-1" x="-784.14" y="-96.41" width="1910" height="1035"/></clipPath></defs><title>behind woman </title><path class="cls-2" d="M243.89,674l51.83-210.88,10.72,89.36V674h16.08s20.77-189.17,20.85-205.35c.08-17.8-5.38-64-5.38-64l-71.21-5s-18.66,64.81-19.06,103.61c-.28,26.86-20.89,166.28-20.89,166.28Z" transform="translate(-223.4 -197.62)"/><path class="cls-3" d="M370.8,359.15s9.72-.53,12.57,0,9.93,4.92,5,7.32-20.1,1.51-20.1,1.51Z" transform="translate(-223.4 -197.62)"/><path class="cls-4" d="M403.66,346s9.68-.91,12.55-.49,14.25-2.7,8.47,5.29c-3.24,4.47-21,4.37-21,4.37Z" transform="translate(-223.4 -197.62)"/><path class="cls-5" d="M275.71,279.72a3,3,0,0,1,1.49-.39h7.27a45,45,0,0,1,7.2.92,5.78,5.78,0,0,0,1.1.11c4.05,0,4.54,0,5.3,0,4.63,0,4.79-1.07,7-1.09,4.49,0,6.73-.05,8.77.1a36.2,36.2,0,0,1,9.24,1.52c5,1.76,10.49,5.38,15.44,12.52,8.69,12.51,5.46,9.33,10.32,19.13,3.3,6.63,5.36,30.31,22.29,32.4,7.88,1,7.68,1.43,17.37,1.9,8.7.42,13.1-.9,16.83-.9,6.39,0-1.3,9.26-1.3,9.26-6.3.46-32.43,6.93-35.79,3.76-3.76-3.55-23.9-9.41-25.43-11.43-6.76-8.95-6.93-9.61-8.19-11.81a1.87,1.87,0,0,1-.24-.53h0c-1-2.63-2.71-5.08-2.38,2.77.08,1.9,7.38,7.64,10.8,9.57.74.42,27.88,11.52,28,11.66.38.43,2.16,9.19-2.57,8.83-4.27-.33-35.43-7.29-35.37-6.33.24,4.36,3.16,28,5.13,43-22.86-.66-48.15-3.63-71.21-5,0,0,9.31-30,1.2-53.63C261.68,327.64,253.54,292.53,275.71,279.72Z" transform="translate(-223.4 -197.62)"/><path class="cls-6" d="M284.47,279.33l1-11.31L306,233.4,318,225.88s1.17,28.21-7.18,38.63c0,0-6.92,2.59-6.53,5.81s.7,9,.7,9c.35-.1-1.76.38-4.67,1-.67.15-4.79.23-5.24.22l-2.88-.2c-.42,0-1.08-.17-1.26-.2C287.8,279.65,284.6,279.33,284.47,279.33Z" transform="translate(-223.4 -197.62)"/><path class="cls-7" d="M285.27,270.1s19.51-11.7,19.47-17.48,1.41-10.41,6.81-14.76c7.41-6,9.28-17.34,3.83-22.11s-21.6-12.48-36.24-6.35c0,0-3.07-11.13-13.66-11.77-6-.36-25.55,7.78-26.1,30-.35,14.05-8.6,37.3-13.54,46.91-10,19.36,13.23-2.27,21.06-15.65,10.55-18,23.39-41.38,23.39-41.38s-8,11-8.84,18.62C260.57,244.12,260.13,253.4,285.27,270.1Z" transform="translate(-223.4 -197.62)"/><g class="cls-8"><path class="cls-9" d="M258.73,684.24c-9.55-2.77-14.48-13.61-14.48-13.61l-17.42-1.1s-1.22,11.21-1.68,17.31c-.62,8.08.91,11.69,6.78,11.25,7.7-.58,39.13,2,44.06-.87,6.42-3.75-8.32-10.38-17.26-13" transform="translate(-223.4 -197.62)"/><path class="cls-9" d="M339.18,683.33c-9.55-2.77-16.06-14.71-16.06-14.71h-16.6s-.46,11.21-.92,17.31c-.62,8.07.91,11.68,6.77,11.25,7.71-.58,39.14,2,44.07-.87,6.41-3.75-8.32-10.38-17.26-13" transform="translate(-223.4 -197.62)"/></g><path class="cls-10" d="M295.72,463.16,244.25,670.63l-17.42-1.1s22.3-38.79,23.5-76.63c1.65-52,19-62.15,20.63-91S295.72,463.16,295.72,463.16Z" transform="translate(-223.4 -197.62)"/><path class="cls-10" d="M266.78,399.64s11-24.31,3.16-51c-7.94-26.92-14.62-41.92,1-64.42,6.85-9.85-6.21,44.79,16.1,54.76,12.53,5.6.81,31.41,11.8,41.59A43.5,43.5,0,0,1,311.91,403Z" transform="translate(-223.4 -197.62)"/></svg>