<?xml version="1.0" encoding="utf-8"?>
<!-- Generator: Adobe Illustrator 21.1.0, SVG Export Plug-In . SVG Version: 6.00 Build 0)  -->
<svg version="1.1" id="Boy" xmlns="http://www.w3.org/2000/svg" xmlns:xlink="http://www.w3.org/1999/xlink" x="0px" y="0px"
	 viewBox="0 0 194.4 361.3" style="enable-background:new 0 0 194.4 361.3;" xml:space="preserve">
<style type="text/css">
	.st0{fill:#4B44BE;}
	.st1{fill:url(#SVGID_1_);}
	.st2{fill:url(#SVGID_2_);}
	.st3{fill:url(#SVGID_3_);}
	.st4{fill:url(#SVGID_4_);}
	.st5{opacity:7.000000e-02;enable-background:new    ;}
</style>
<title>Boy</title>
<g>
	<path class="st0" d="M114.5,353.5c-5.5-0.3-11.7-6.6-11.7-6.6l-12.3-1.6c0,0-3.8,11.6,0.3,14c4.1,2.4,28.8,3.1,28.8,0
		C119.6,356.2,119.2,353.7,114.5,353.5z"/>
	<path class="st0" d="M30.8,353.1c-4.8-2.7-7.5-11.2-7.5-11.2L13,335c0,0-8.7,8.7-6,12.6c2.7,3.9,24.3,15.8,25.7,13
		C34.1,357.8,34.9,355.5,30.8,353.1z"/>
</g>
<linearGradient id="SVGID_1_" gradientUnits="userSpaceOnUse" x1="911.6136" y1="1301.4865" x2="1106.0537" y2="1301.4865" gradientTransform="matrix(1 0 0 1 -911.63 -1124.66)">
	<stop  offset="0" style="stop-color:#F87B58"/>
	<stop  offset="0.5" style="stop-color:#F8C548"/>
	<stop  offset="1" style="stop-color:#F89C51"/>
</linearGradient>
<path class="st1" d="M49.2,22.9c0,0,11.8-25,30.8-12S99.4,41,93.7,49.2c-6.7,9.7-5,17.6-3.8,20.7c0.3,0.9,1,1.7,1.8,2.1l32.1,18
	l12.8,12.1l30.8-38.8c0,0,5-7,14-7s13,3,13,3s1,4-10,7l-11,3l-28,50c0,0-8.3,3.5-17.2-3.9c-7.8-6.5-15.1-13.5-21.8-21.1l-1,116
	l3.4,33.2l-1.4,19.6c0.1,1.8-0.7,21.2-0.8,23l-2.2,30l-2.7,30.4l-11.2-1.4l-1.9-22L84.2,244l-0.5-71.5l-19.4,44.8l0.7,26.1L49,293
	c-0.7,2.1-1.5,4.1-2.5,6l-22.9,43.2l-10.8-6.7l12.3-31.2c1.3-2.7,7.7-23.4,8.5-26.3l8.2-38.8l35.6-135.7l-17.9,9.1
	c0,0-13.1,29.3-15.1,32.3s-25.9,33.2-26.9,37.2s-4.8,11.7-9.8,13.7s-14,5.3-1-13.7c10.2-14.9,16.7-26,19.1-30
	c0.6-1.1,1.2-2.2,1.7-3.4l13.5-34l21.5-34.5l2.9-2.1l6.1-4.8c0.8-0.6,1.2-1.6,1.1-2.6c-0.7-4.6-3.1-8.8-6.8-11.6
	C58.8,53.5,44.6,42.9,49.2,22.9z"/>
<linearGradient id="SVGID_2_" gradientUnits="userSpaceOnUse" x1="41.4" y1="918.3" x2="111.4" y2="918.3" gradientTransform="matrix(1 0 0 1 0 -716)">
	<stop  offset="0" style="stop-color:#4F68CA"/>
	<stop  offset="1" style="stop-color:#5ACEED"/>
</linearGradient>
<polygon class="st2" points="53.4,174.3 41.4,239.3 65.4,244.3 80.4,190.3 84,244.2 109.1,244.2 111.4,160.3 "/>
<linearGradient id="SVGID_3_" gradientUnits="userSpaceOnUse" x1="952.13" y1="1247.385" x2="1038.53" y2="1247.385" gradientTransform="matrix(1 0 0 1 -911.63 -1124.66)">
	<stop  offset="0" style="stop-color:#7658F4"/>
	<stop  offset="1" style="stop-color:#E1A1ED"/>
</linearGradient>
<path class="st3" d="M40.5,115.4c0,0,7.7-27.8,23.2-37c1.6-0.9,4.4-3.8,4.6-2.1c0.3,3,2,10,9,10c11,0,14.2-9.2,14.2-14.2
	c0-1.5,6.2-1.2,11.6-0.3c5.1,0.8,10.2,3,13.6,6.8l10.2,14.3l-9.5,10.5l-3,1.6l-3,55.4c0,0-22.1,10.2-42,13c-5.3,0.6-10.7,1-16,1
	l4-57L40.5,115.4z"/>
<linearGradient id="SVGID_4_" gradientUnits="userSpaceOnUse" x1="959.5634" y1="1154.182" x2="1007.6304" y2="1154.182" gradientTransform="matrix(1 0 0 1 -911.63 -1124.66)">
	<stop  offset="0" style="stop-color:#4F68CA"/>
	<stop  offset="1" style="stop-color:#5ACEED"/>
</linearGradient>
<path class="st4" d="M56.1,40.5c3.5-4.2,7.3-8.1,11.4-11.7c5.8-4.8,8.8-7.6,8.8-7.6s7.9,5.8,11.1,6.9s8,3.1,8,3.1s2.7-9-4-10.1
	s-26.8-8.4-31-5.2S49.1,28.3,48.1,32.7s1.5,10.1,3.1,11.2c0.9,0.6-1.6-4.5-0.2-5.5C52,37.5,56.1,40.5,56.1,40.5z"/>
<path class="st0" d="M48.1,32.7L110.8,18c0,0,1.2-2.9-1.1-3s-16.6,4.7-16.6,4.7S86.9,1.5,66.7,1.9c0,0,0.8-1.8-0.3-1.9
	s-6.3,1.3-6.7,1.7s0.8,1.6,0.2,2.1S41.7,12.7,48.1,32.7z"/>
<path class="st5" d="M91.9,51.3c0,0-4.1,5.1-7.4,6.2s-1.4,1.2,0,5.3c0.7,2.2,1.7,4.2,3,6.1C87.5,68.9,89.3,52.8,91.9,51.3z"/>
<path class="st5" d="M59.9,3.9c0,0,2.8,2.7,1,9.8s-2.4,9.3-0.9,12s0.4,4.2,0.4,4.2l-12.3,2.9C48.2,32.7,40.5,14.7,59.9,3.9z"/>
<path class="st5" d="M57.4,117.3c0,0,3.9-5.6,4.3-10.7s-1.8,10.1,0.7,19.2s-0.4,17,4.7,20.2s1.1,14.1,2.2,18.8
	c0.7,2.8,2.7,5.1,5.4,6.2c0,0-0.7,2.5-9.4,2.9s-11.9,0.4-11.9,0.4L57.4,117.3z"/>
</svg>
