<?xml version="1.0" encoding="utf-8"?>
<!-- Generator: Adobe Illustrator 21.1.0, SVG Export Plug-In . SVG Version: 6.00 Build 0)  -->
<svg version="1.1" id="Layer_1" xmlns="http://www.w3.org/2000/svg" xmlns:xlink="http://www.w3.org/1999/xlink" x="0px" y="0px"
	 viewBox="0 0 198.1 354.2" style="enable-background:new 0 0 198.1 354.2;" xml:space="preserve">
<style type="text/css">
	.st0{fill:#4B44BE;}
	.st1{fill:url(#SVGID_1_);}
	.st2{fill:url(#SVGID_2_);}
	.st3{fill:url(#SVGID_3_);}
	.st4{opacity:7.000000e-02;enable-background:new    ;}
</style>
<g>
	<path class="st0" d="M92.2,338.7c0,0-7.2,7.8-12.6,8.1c-4.6,0.2-5.2,2-5.2,5.1s20,2.5,26.5,1.3c4.6-0.8,1.4-14.3,1.4-14.3
		L92.2,338.7z"/>
	<path class="st0" d="M155.7,337.3l-9.1,0.9c0,0-6.8,7.9-12.1,8.6c-4.6,0.6-5.7,2.6-5.5,5.7c0.2,3.1,22.8,1,26.7-1.6
		C159.6,348.3,155.7,337.3,155.7,337.3z"/>
</g>
<linearGradient id="SVGID_1_" gradientUnits="userSpaceOnUse" x1="3.952612e-04" y1="171.7318" x2="164.659" y2="171.7318">
	<stop  offset="2.000000e-02" style="stop-color:#F87B58"/>
	<stop  offset="0.51" style="stop-color:#F8C548"/>
	<stop  offset="1" style="stop-color:#F89C51"/>
</linearGradient>
<path class="st1" d="M137.7,24.1c-1.8,20.3-3.6,19.8-9.3,26.9c-2.8,3.5-7.4,7.8-7.9,12.3c-0.1,1,0.3,1.9,1.1,2.6l6,4.8l2.5,1.9
	c0.2,0.2,0.4,0.4,0.5,0.6l20.8,34.1l0.1,0.1l12.9,24.6c0.8,1.5-0.4,6.2-1.6,7.5c-6.2,6.6-20.5,13.6-18.4,20.2
	c6.9,21.8,1.3,16.7-2.7,13.2c-2.1-1.9-4.9-10.9-5.9-14.9s18-23,16-26c-1.8-2.8-15.9-23.1-18.1-26.3c-0.2-0.3-0.4-0.5-0.8-0.7
	l-13.3-6.9c-1-0.5-2.3-0.1-2.8,0.9c-0.2,0.4-0.3,0.8-0.2,1.3L137,218.6v0.1l3.6,31.6c0,0,0,0.1,0,0.2c0.1,3.8,1.8,21.8,2.2,25.4
	c1,7.2,2.7,10.7,4,17.4l8.4,41.7c0.2,1.2,1.2,4.3,0,4.5l-6.9,0.1c-1,0.1-2-1.9-2.3-2.9L131.3,292c-1-3.4-6-13.1-7.4-20.6
	c-2-10.3-3.9-22-4.8-26.5l-4.3-24.6c-0.1-0.8,0.2-1.7,0.9-2.1L127,211c0.9-0.5,1.2-1.6,0.8-2.6l-12.5-30.1c-0.5-1.1-1.7-1.5-2.8-1.1
	c-0.8,0.4-1.3,1.2-1.2,2.1l3.7,36.5c0,0.1,0,0.3,0,0.4l-2.2,27.2c0,0.1,0,0.1,0,0.2l-6,36.2c0,0.1,0,0.1,0,0.2l-4.4,57.2
	c-0.1,1.1-0.3,3.5-1.3,3.5l-7.4,0.3c-1.2,0-1.7-2.7-1.7-3.9l-0.2-29V308l-1.4-20.3c0,0,0-0.1,0-0.2c-0.7-4.1-0.2-12.9,0-19.1
	c0.3-8.5,1-13.3,1.1-14.8l0.7-23.7c0-0.1,0-0.2,0-0.3l-3.7-26.3c0-0.1,0-0.2,0-0.3V93c0-1.2-0.9-2.1-2.1-2.1c-0.7,0-1.3,0.3-1.7,0.9
	c-4.9,7-10.7,13.5-17.2,19.1c-6,5-9.7,5.9-11.5,6c-0.7,0-1.4-0.3-1.8-0.9l-32-44.6c-0.4-0.6-1.2-0.9-1.9-0.9L15.5,71
	c-0.1,0-0.3,0-0.4,0C7.7,70.3,3.5,68.1,1,67.2c-0.8-0.3-1.2-1.1-0.9-1.8c0.1-0.3,0.3-0.5,0.5-0.7C4.4,62,9,60.4,13.7,60.2
	c5.4,0.1,10.8,1.5,15.6,4c0.2,0.1,0.5,0.3,0.6,0.5L56.3,98c0.7,0.9,2,1.1,2.9,0.4c0.2-0.1,0.3-0.3,0.4-0.5l10.5-15
	c0.2-0.3,0.4-0.5,0.7-0.6l31-17.8c0.8-0.5,1.5-1.2,1.8-2.1c1.1-3.1,2.3-6.2-2.3-15.1c-3.2-6.2-6.7-31,11.9-44c3.8-2.7,1.9,2,5.1,2
	c12.3,0,17,13.8,17,13.8"/>
<linearGradient id="SVGID_2_" gradientUnits="userSpaceOnUse" x1="68.1" y1="210.646" x2="157.1243" y2="210.646" gradientTransform="matrix(1 0 0 -1 0 356)">
	<stop  offset="0" style="stop-color:#E1A1ED"/>
	<stop  offset="1" style="stop-color:#7658F4"/>
</linearGradient>
<path class="st2" d="M101.9,64.8c0,5,3.2,14.2,13.9,14.2c6.9,0,8.5-7.1,8.9-10c0.2-1.7,2.9,1.2,4.5,2.1c15.3,9.2,22.8,37,22.8,37
	l-16.5,1.9l-2.1,41.1l23.6,69.2c0.4,1.1-0.2,2.3-1.3,2.7c-0.3,0.1-0.6,0.1-1,0.1c-9.2-1.2-34.4-4.2-39-1c-11.8,8-41.7,4.5-41.7,1.5
	c0-4.4,14.1-78.2,14.1-78.2l-8.4-47.9l-2.4-1.9l-9.2-9.5l9.3-14.9c3.3-3.8,8.3-6,13.3-6.8c2.5-0.4,5.1-0.6,7.6-0.7
	C100.4,63.9,101.9,64.1,101.9,64.8"/>
<linearGradient id="SVGID_3_" gradientUnits="userSpaceOnUse" x1="-5651.9282" y1="-765.7238" x2="-5561.1084" y2="-765.7238" gradientTransform="matrix(-0.88 0 0 -1 -4814.7798 -735.35)">
	<stop  offset="0" style="stop-color:#4F6ACB"/>
	<stop  offset="1" style="stop-color:#5ACEED"/>
</linearGradient>
<path class="st3" d="M135,43.4c-0.8,0.3-1.7,0-2.2-0.7c-3.9-5.1-19.7-25.8-20.3-27.1c-0.7-1.5-11.6,11.5-13.3,16.4
	c-2,5.9-2.5-9.3-3.4-11.6s-8.4,9.5-12.3,10.5s-5.1-1.5-7.7,3.1c-1.5,2.8,1.4-17.1,11.4-23.7c6.5-4.3,8.3,6.8,8.3,6.8
	c3.7-5.1,8.5-9.3,14-12.3c8-4.4,15.7-4.7,25.9,4.8c5.9,5.5,10.9,16.5,10.7,21.6c-0.2,4.9,4.8,0.7,5.7-0.3s9.6,1.3,8.1,8.6
	s-1.8,6.9-7.2,11.2c-3,2.3-5.6,5.1-7.5,8.2V40.4C145.1,38.4,139.3,41.8,135,43.4z"/>
<path class="st4" d="M112.5,55.8c0,0,7.2,4.5,10.8-0.2c2.3-3.1-4.2,6.5-3.1,10.3S112.5,55.8,112.5,55.8z"/>
<path class="st4" d="M126.3,92l9.1,18l-2.1,41.1l23.6,69.2c0,0,4.9,3.5-8.9,2s-22.7-2-27.1-2s-14.8-4.4,1-19.7
	c6.4-6.2,4.9-10.9,0.5-27.1s9.4-13.3,0-26.7S135.7,114.7,126.3,92z"/>
</svg>
