<svg id="man_working" data-name="man working" xmlns="http://www.w3.org/2000/svg" xmlns:xlink="http://www.w3.org/1999/xlink" viewBox="0 0 172.57 384.15"><defs><style>.cls-1{fill:none;}.cls-2{clip-path:url(#clip-path);}.cls-3{fill:#4b44be;}.cls-4{fill:url(#linear-gradient);}.cls-5{fill:url(#linear-gradient-2);}.cls-6{fill:url(#linear-gradient-3);}.cls-7{opacity:0.1;}.cls-8{clip-path:url(#clip-path-3);}.cls-9{fill:url(#linear-gradient-4);}.cls-10{opacity:0.07;}.cls-11{opacity:0.07;}.cls-12{clip-path:url(#clip-path-6);}.cls-13{clip-path:url(#clip-path-7);}.cls-14{fill:#fff;}.cls-15{clip-path:url(#clip-path-9);}.cls-16{fill:url(#linear-gradient-5);}</style><clipPath id="clip-path" transform="translate(-270.82 -248.91)"><rect class="cls-1" x="-284.96" y="64.91" width="1240.2" height="697.61"/></clipPath><linearGradient id="linear-gradient" x1="328.34" y1="272.35" x2="377.78" y2="272.35" gradientUnits="userSpaceOnUse"><stop offset="0" stop-color="#4b44be"/><stop offset="0.33" stop-color="#4b44be"/><stop offset="1" stop-color="#5bd3ef"/></linearGradient><linearGradient id="linear-gradient-2" x1="323.21" y1="313.87" x2="389.42" y2="313.87" gradientUnits="userSpaceOnUse"><stop offset="0" stop-color="#f87b58"/><stop offset="0.41" stop-color="#f89453"/><stop offset="0.71" stop-color="#f8c548"/><stop offset="1" stop-color="#f89c51"/></linearGradient><linearGradient id="linear-gradient-3" x1="272.25" y1="520.68" x2="434.83" y2="520.68" gradientUnits="userSpaceOnUse"><stop offset="0" stop-color="#5aceed"/><stop offset="0.39" stop-color="#5492d8"/><stop offset="0.49" stop-color="#5282d3"/><stop offset="0.84" stop-color="#538bd6"/><stop offset="1" stop-color="#5aceed"/></linearGradient><clipPath id="clip-path-3" transform="translate(-270.82 -248.91)"><path class="cls-1" d="M383.65,321.48c-8,.87-11.48,1.67-12.73,2.06a70.22,70.22,0,0,1-4.63,7.59c-4.15,5.37-6.13,12.18-8.72,12.38-3.38.26-11.19-11.79-15.21-14.66-2.6-1.86-2.87-2.65-4.31-3.29l-22.74,1.06a12.79,12.79,0,0,0-9.45,5.6c-10.43,15.64-33.8,62-34.52,73.46-.52,8.36,18.42,21.18,23.73,22.46,2.16.52,5.94-20.06,7.2-21.9l-7.94-2.46a129.32,129.32,0,0,1,9.34-17c1-1.48,10.15-15.63,11.21-20.41a104.16,104.16,0,0,1,.67,14.07c-.23,5.72,1.14,11.81,1.14,16.05s2.93,17.78-.17,25.41-7.63,25.29-7.63,25.29l78.27-.42s3.59-29,4.72-40.55a91.7,91.7,0,0,1-.24-10.65c.3-14.37.4-30.46-.22-33-1-4.06,22.34,27.81,27.57,36.53,2.17,3.62-27.6,10-30.06,12.82s2.51,10.8,2.51,10.8,51.95-6.32,51.64-14.27-27.84-68.28-39.38-78.79c-7.17-6.54-5.32-4.55-9.7-6.47-2.51-1.09-2.18-1.17-7.24-1.56"/></clipPath><linearGradient id="linear-gradient-4" x1="-750.41" y1="-129.06" x2="-749.77" y2="-129.06" gradientTransform="translate(199184.75 34390.02) scale(265.43)" gradientUnits="userSpaceOnUse"><stop offset="0" stop-color="#906af2"/><stop offset="0.12" stop-color="#e1a1ed"/><stop offset="0.64" stop-color="#9b71f1"/><stop offset="0.94" stop-color="#7658f4"/><stop offset="1" stop-color="#7658f4"/></linearGradient><clipPath id="clip-path-6" transform="translate(-270.82 -248.91)"><rect class="cls-1" x="280.01" y="464.84" width="135.66" height="40.31"/></clipPath><clipPath id="clip-path-7" transform="translate(-270.82 -248.91)"><rect class="cls-1" x="313.77" y="332.6" width="25.81" height="67.71"/></clipPath><clipPath id="clip-path-9" transform="translate(-270.82 -248.91)"><path class="cls-1" d="M344.84,432.74a4.32,4.32,0,1,0,4.31-4.32,4.31,4.31,0,0,0-4.31,4.32"/></clipPath><linearGradient id="linear-gradient-5" x1="-759.7" y1="-52.73" x2="-759.06" y2="-52.73" gradientTransform="matrix(-13.37, 0, 0, 13.37, -10072.96, 888.69)" gradientUnits="userSpaceOnUse"><stop offset="0" stop-color="#59c2e9"/><stop offset="1" stop-color="#5bd3ef"/></linearGradient></defs><title>man working</title><g class="cls-2"><g class="cls-2"><path class="cls-3" d="M402.18,589.94l-13.38.12s-5.8,10.49-8.68,16.1c-.18.36-.7,1.26-1.06,1.91a14.32,14.32,0,0,0-1,3.06c-1.06,5.49-.39,10.5,3.26,14,4,3.83,7,7.19,13.24,3.24s7.87-7,8-16.45-.33-22-.33-22" transform="translate(-270.82 -248.91)"/><path class="cls-3" d="M334.05,590.63l-12.21,5.45s-1.13,11.94-1.52,18.23c0,.41-.14,1.44-.21,2.18a14.29,14.29,0,0,0,.29,3.21c1.22,5.45,3.84,9.78,8.58,11.52,5.2,1.9,9.3,3.78,13.43-2.33s4.4-9.59.73-18.27-9.09-20-9.09-20" transform="translate(-270.82 -248.91)"/></g><path class="cls-4" d="M337,295.8l38.32-7.35s3.2-16,2.24-18.84-1.86-9.09-7.29-11-12.73-17.19-30.94-5.05-8.39,26.6-8.39,26.6Z" transform="translate(-270.82 -248.91)"/><path class="cls-5" d="M364.06,263.75s-19.09,7.37-23.43,9.18-6.69,7.05-6.69,7.05-2.14-1.27-2.14,2.35,1.78,11.77,3.07,13.85a111.34,111.34,0,0,1,6.08,10.9c1.76,3.73,1.37,9.35.95,11.42-.8,3.9-18.69,31.21-18.69,31.21l6.63,7.73,7.42,6.55,52.16-4s-18.16-35.56-21-41.56c-1.28-2.69.08-9.22.83-12.55.68-3.05,2.17-6.88,3.62-8s4-6.15,4-8.33.42-9.07-1.45-7.24c-.5.49-3-3.41-3.71-6.67A22.72,22.72,0,0,0,364.06,263.75Z" transform="translate(-270.82 -248.91)"/><path class="cls-6" d="M288.05,459.58s-15.8,14.18-15.8,20.17,2.72,21.8,7.9,31.07,37,79.74,40.83,85.17c.66.94,14.27-2.84,14.27-2.84s-6.31-28.91-7.4-35.45S311,512.46,311,508.64s2.72-9.27,11.45-10.9,27.25-3.82,33.79-1.64S391,498,396,504.28c3.17,4.05,0,8.65-3.27,24s-1.09,36.55-3.81,43.1-2.54,20.65-1.2,20.74c3.65.23,13.53,1.07,14.56.34,1.81-1.29,12.27-24.65,14.07-28.62,2.84-6.24,11.81-40.43,12.9-49.15s6.54-24.53,5.45-28.89-25.07-31.07-43.06-34.89-73.59-8.17-80.13-3.81S288.05,459.58,288.05,459.58Z" transform="translate(-270.82 -248.91)"/><path class="cls-7" d="M333.62,585.64s-4.95-24.46-6.36-30.29c-1.61-6.65-14.41-36.65-16.31-46.71-1.84-9.69-7.35,3.53-5.71,12.8s10.9,26.16,11.44,34.34S333.62,585.64,333.62,585.64Z" transform="translate(-270.82 -248.91)"/><g class="cls-8"><rect class="cls-9" y="69.34" width="172.57" height="128.9"/></g><path class="cls-11" d="M341.67,324.73c-.92-1.21-3.58.64-1.18-3,4-6.09.45-15.41.45-15.41s2,4.24,9,3.67,8.19-2.63.48,5.52-9.94,7.9-8.77,9.26" transform="translate(-270.82 -248.91)"/><g class="cls-2"><g class="cls-10"><g class="cls-12"><path d="M295.41,465.13,405,463.42s-23,11.9-19.61,18.23c4.45,8.34-4.48,17.68-17.06,16.14-10.64-1.3-12.84-3.48-19.44-2.92-17.11,1.45-28.87.45-30.57-2.15-14.11-21.67-22.88-27.59-22.88-27.59" transform="translate(-270.82 -248.91)"/></g></g><g class="cls-10"><g class="cls-13"><path d="M321.2,363.33c1.88,3.38,3.69,5.26,2.58,8.18-2.19,5.76-2.7,12.58,4.1,18.05,4.59,3.69,3.77,9.55,7.26,9.6,2.7,1.59-5.22,1.12-5.22,1.12H322L317,400c.06-1.11-1.51-15.81-1.44-17.82.25-7.08.39-11.23-.18-14.33-1-5.24-.71-3.27,1.55-6.94.83-1.33,3.34,1.21,4.3,2.43" transform="translate(-270.82 -248.91)"/></g></g></g><g class="cls-2"><path class="cls-14" d="M291.91,405.46s-.08-4.77,4.62-5,104.6-.08,104.6-.08,4.39.52,4.54,4.1.15,56.32.15,56.32a4.08,4.08,0,0,1-4.25,4.17c-4.32.08-106.16.15-106.16.15s-3.8-1-3.73-4.77.23-54.9.23-54.9" transform="translate(-270.82 -248.91)"/></g><g class="cls-15"><rect class="cls-16" x="74.02" y="179.51" width="8.63" height="8.63"/></g></g></svg>