<svg id="man_with_documents" data-name="man with documents" xmlns="http://www.w3.org/2000/svg" xmlns:xlink="http://www.w3.org/1999/xlink" viewBox="0 0 334.41 638.23"><defs><style>.cls-1{fill:none;}.cls-2{fill:#fafafa;}.cls-3{clip-path:url(#clip-path);}.cls-4{fill:url(#linear-gradient);}.cls-5{clip-path:url(#clip-path-2);}.cls-6{fill:url(#linear-gradient-2);}.cls-7{clip-path:url(#clip-path-3);}.cls-8{fill:url(#linear-gradient-3);}.cls-9{clip-path:url(#clip-path-4);}.cls-10{fill:url(#linear-gradient-4);}.cls-11{fill:#4b44be;}.cls-12{opacity:0.07;}.cls-13{clip-path:url(#clip-path-5);}.cls-14{clip-path:url(#clip-path-6);}.cls-15{opacity:0.07;}.cls-16{opacity:0.1;}</style><clipPath id="clip-path" transform="translate(-114.49 -104.37)"><path class="cls-1" d="M422.09,360l-23.35,63.44-4.05,30.93,19.66-17.23c1.09-.92,3.26-5.81,4.42-8.39l11.76-33,8.67-52.62S426,319.29,410.46,291.3ZM410.46,291.3l-.94-5.55-2.36-.42,3.3,6M331.29,131.43a41.81,41.81,0,0,0-11.05.28c-1.12.2-4.47,7.25-6.87,12.3-3.05,6.41-3.67,16.71-3.67,23.3,0,8.26,8.24,17.49,18.42,24,4.51,2.9,1.7,18-.66,19.45s-45.8,33.56-45.8,33.56l-4.53,25.39L251.57,411.05l-8.79,10.64a9.33,9.33,0,0,0-2.91,5.21c-.58,3.17-.73,8.44,2.75,9.62,7.46,2.54,20.36,4.52,22.44,2.34,15.56-16.29-.23-5.32-3.31-8.26l6.87-17.32-9.92-11.13,9.29-4.1,25.9-133,113.27,20.29C387,248.91,364.43,208,362.41,203.75a16,16,0,0,1-1.21-11.14c.89-4,4.66-13,6-14.88,1.74-2.52,2.69-7.29,3.27-10s.51-1.86-1.91.51c-.66.64-2.74.75-3.68-3.48s-13.44-10.17-19.55-15.34c0,0-6.5-1.67-13-3.9"/></clipPath><linearGradient id="linear-gradient" x1="-748.38" y1="-142.34" x2="-745.25" y2="-142.34" gradientTransform="matrix(103.78, 0, 0, -103.78, 77664.92, -14596.89)" gradientUnits="userSpaceOnUse"><stop offset="0" stop-color="#f87b58"/><stop offset="0.63" stop-color="#f89453"/><stop offset="0.81" stop-color="#f8c548"/><stop offset="0.94" stop-color="#f89952"/><stop offset="1" stop-color="#f89c51"/></linearGradient><clipPath id="clip-path-2" transform="translate(-114.49 -104.37)"><path class="cls-1" d="M365.46,112.39c2.2,1.64,8.53,7.57,10.88,9.44,2.56,2.08,4.1,4.92,6.36,8.62,1.17,1.91,3,7.3,3.83,9.42,4.75,12.16.07,17.46-3.62,26.08-5.1,11.88-16.68,13.71-17.59,15.42-9.17-3-10.23-1.87-14.27-.59-5.14-3.42-7.39-8.09-10.14-10.49,1.69-2.41,2.45-22.81-7-12.82,3.73-3.93-6.26-16.16-8.36-17.68s-4.36-3.23-4.17-4.09c1.1-4.92-7-4.11.16-9.34,5.75-4.19,7.94-13.77,15.47-14.53,4.67-.47,10.63-1,15.34-1.7,3.37-.51,6.07,1.11,8.95,1.45a10.6,10.6,0,0,1,4.34,1.46"/></clipPath><linearGradient id="linear-gradient-2" x1="-747.94" y1="-149.67" x2="-746.97" y2="-149.09" gradientTransform="matrix(0, -66.35, 63.74, 0, 9867.19, -49438.17)" gradientUnits="userSpaceOnUse"><stop offset="0" stop-color="#4b44be"/><stop offset="0.33" stop-color="#4b44be"/><stop offset="1" stop-color="#5bd3ef"/></linearGradient><clipPath id="clip-path-3" transform="translate(-114.49 -104.37)"><path class="cls-1" d="M262.62,544.05c-1,8.77,5.67,54.66,5.67,63.42S284.68,709.7,284.68,709.7l25.9-1.17s-5.16-137.67-4.65-144.37,28.88-86.62,28.88-86.62,2.06,21.14,2.06,27.84,7.85,201.35,7.85,201.35H367.3L399.39,420l-.61-5.52L280.36,398.05s-16.7,137.24-17.74,146"/></clipPath><linearGradient id="linear-gradient-3" x1="-745.42" y1="-147.83" x2="-743.58" y2="-147.83" gradientTransform="matrix(73.85, 0, 0, -73.85, 55196.37, -10468.34)" gradientUnits="userSpaceOnUse"><stop offset="0" stop-color="#5282d3"/><stop offset="0.28" stop-color="#4f68ca"/><stop offset="1" stop-color="#5aceed"/></linearGradient><clipPath id="clip-path-4" transform="translate(-114.49 -104.37)"><path class="cls-1" d="M293.85,217.41c-13.62,8.49-20.29,18.81-22.88,27.33-6.7,22-2.89,18.94-9.57,46.56-8.42,34.79-6.15,56.32-7.17,68.62-1.17,14.2-9,53.79-3.15,54.69,3,.46,2.51,1.9,15.76.58,3.41-.33,10.89-29.32,10.89-29.32s-.46,18.85,3.22,20.69c3.25,1.62,41.25,12.7,50.44,16.21,1,.39,16.11,2,20.14,2l47.86-6.65s-.67-90.67.16-105.82c.83-14.83-1-23.1,1.6-19.08,2.94,4.48,15.45,45.23,15.45,52.13s-13.83,67.17-13.83,67.17l18.39,10.12s24.82-66.2,26.2-74.94,1.84-13.33-2.29-22.06-26.67-87.81-26.67-87.81-5-7.3-18.85-14.71c-9.56-3.46-28.9-14.7-43.59-9.48a170.75,170.75,0,0,1-34.74,1.11,63.13,63.13,0,0,0-20.39-.48"/></clipPath><linearGradient id="linear-gradient-4" x1="-748.29" y1="-141.38" x2="-745.7" y2="-141.38" gradientTransform="matrix(115.34, 0, 0, -115.34, 86342.19, -16124.11)" gradientUnits="userSpaceOnUse"><stop offset="0" stop-color="#906af2"/><stop offset="0.12" stop-color="#e1a1ed"/><stop offset="0.64" stop-color="#9b71f1"/><stop offset="0.94" stop-color="#7658f4"/><stop offset="1" stop-color="#7658f4"/></linearGradient><clipPath id="clip-path-5" transform="translate(-114.49 -104.37)"><rect class="cls-1" x="283.95" y="462.08" width="55.6" height="279.87"/></clipPath><clipPath id="clip-path-6" transform="translate(-114.49 -104.37)"><rect class="cls-1" x="304.32" y="319.97" width="152.23" height="66.11" transform="translate(-12.37 692.22) rotate(-83.67)"/></clipPath></defs><title>man with documents</title><polygon class="cls-2" points="63.57 237.42 79.24 333.62 137.66 324.13 141.09 229.98 63.57 237.42"/><g class="cls-3"><rect class="cls-4" width="325.15" height="350.3"/></g><g class="cls-5"><rect class="cls-6" x="314.18" y="107.44" width="74.13" height="80.53" transform="translate(47.93 374.29) rotate(-83.1)"/></g><g class="cls-7"><rect class="cls-8" x="147.22" y="292.84" width="137.15" height="311.38"/></g><g class="cls-9"><rect class="cls-10" x="30.57" y="41.06" width="303.85" height="283.29"/></g><path class="cls-11" d="M275.9,722c10.31-2,9-13.94,9-13.94l25.39-.93a71.31,71.31,0,0,1,3.41,18.28c.22,6.56,2.48,15.48-4,16.72-7.74,1.47-51.06-.78-55.13-5.88-5.3-6.64,7.38-11.14,17-13" transform="translate(-114.49 -104.37)"/><path class="cls-11" d="M333.61,721.17c10.31-2,11-14.44,11-14.44l22.6-.48a100.53,100.53,0,0,1,2.12,17.15c.21,6.56,2.74,15.39-2.85,16.66-7.68,1.74-50.17.46-54.24-4.64-5.3-6.64,7.39-11.14,17-13" transform="translate(-114.49 -104.37)"/><g class="cls-12"><g class="cls-13"><path d="M338.76,463.17c-3.2,9.35-15.66,27.48-23.64,38.27s-33.11,33.85-31.51,61.9,18.59,100,18.59,106.49-6.36,37.11-11.14,46.46-3.9,19.13-1.51,19.13c1,0,5.05,1.45,10.44,0,4.13-1.11,9.65,3.37,12,2.29,1.64-.77,2-6.06,2-6.06a18.41,18.41,0,0,0-.78-6.73c-.54-1.39-2.56-8.52-2.64-10.58-1-26.36-3.24-87.34-2.8-91.6.83-8-5.5-48.21.28-68s30.75-91.53,30.75-91.53" transform="translate(-114.49 -104.37)"/></g></g><g class="cls-12"><g class="cls-14"><path d="M398.86,301.81l-.23,93.41s2.34,19.8-.91,22-16.6,3.85-20.63,3.85c-2.75,0-39.67,4.31-26.52-2.26,5.89-2.95,42.77-23.65,31-44s-6.36-46.39,2.3-63.95,15.17-29.42,15.17-29.42Z" transform="translate(-114.49 -104.37)"/></g></g><path class="cls-15" d="M326.73,190.42a9.76,9.76,0,0,0,6.89-1c1.11-.65,5.16-3.54,7.15-5.13,4.28-3.42-4.73,7.62-6.41,13.94-1.87,7-3.91-4.5-5.42-6.12A6,6,0,0,0,326.73,190.42Z" transform="translate(-114.49 -104.37)"/><path class="cls-15" d="M384,454.66s-8.64,34.79-16.31,45c-8.27,11,.85,61.38-6.82,83.55-7.25,20.95,2.56,66.5.85,81-1.4,11.88-1.7,37.55-7.93,51.83-2.12,4.86-6.65,8.44-6.65,10.75,0,12.79,17.24,4.54,17.24,4.54l.9-11.34L377.1,619.89,398.86,421.3Z" transform="translate(-114.49 -104.37)"/><path class="cls-16" d="M290.1,334.08s8.55-23.38,8.95-35.55,1.86,34,1.86,34-7.19-2.18-10.81,1.54" transform="translate(-114.49 -104.37)"/><path class="cls-2" d="M309.93,429.65l-9-97.11s-10.81-1.64-10.81,1.54c0,5.36-3.93,20.56-6,29.31-1.86,8-5,16.54-10.15,34.42-1.75,6.13-6.7,16.47-6.7,16.47l-5.53,16.32s-1.43,1.69,8.59-.74h0s1.27-.47,1.49.78h0Z" transform="translate(-114.49 -104.37)"/></svg>