<?xml version="1.0" encoding="utf-8"?>
<!-- Generator: Adobe Illustrator 21.1.0, SVG Export Plug-In . SVG Version: 6.00 Build 0)  -->
<svg version="1.1" id="man_hand_up" xmlns="http://www.w3.org/2000/svg" xmlns:xlink="http://www.w3.org/1999/xlink" x="0px"
	 y="0px" viewBox="0 0 280.6 539" style="enable-background:new 0 0 280.6 539;" xml:space="preserve">
<style type="text/css">
	.st0{fill:#4B44BE;}
	.st1{fill:url(#SVGID_1_);}
	.st2{fill:url(#SVGID_2_);}
	.st3{fill:url(#SVGID_3_);}
	.st4{fill:url(#SVGID_4_);}
	.st5{opacity:7.000000e-02;}
	.st6{clip-path:url(#SVGID_6_);}
	.st7{clip-path:url(#SVGID_8_);}
	.st8{fill:#FAFAFA;}
	.st9{opacity:7.000000e-02;enable-background:new    ;}
</style>
<path class="st0" d="M213.9,523c-0.2-4.8-0.8-9.7-1.8-14.4l-19,0.4c0,0-0.6,10.4-9.2,12.1l-3.6,1.1c-4.5,0.9-9.9,2.5-13,4.6
	c-0.1-0.8-0.1-1.5-0.1-2.2c-0.3-5.2-1.3-10.3-2.9-15.3l-21.3,0.8c0,0,1.1,10-7.5,11.7l-3.7,1c-8.1,1.6-18.8,5.3-14.3,10.9
	c3.5,4.2,39.8,6.1,46.3,4.9c2.5-0.4,3.4-2.2,3.7-4.5c7.7,3.4,38.1,4.2,44,2.9C216.2,535.9,214.1,528.5,213.9,523z"/>
<linearGradient id="SVGID_1_" gradientUnits="userSpaceOnUse" x1="124.2036" y1="159.3" x2="238.9" y2="159.3" gradientTransform="matrix(1 0 0 -1 0 540)">
	<stop  offset="0" style="stop-color:#5ACEED"/>
	<stop  offset="1" style="stop-color:#4F68CA"/>
</linearGradient>
<path class="st1" d="M124.3,372.4c-0.9,7.4,4.8,45.9,4.8,53.2s13.7,85.8,13.7,85.8l21.7-1c0,0-4.3-115.5-3.9-121.1
	s24.2-72.7,24.2-72.7s1.7,17.7,1.7,23.4s6.6,169,6.6,169H212l26.9-240.6l-0.5-4.6L139.1,250C139.2,249.9,125.2,365.1,124.3,372.4"/>
<linearGradient id="SVGID_2_" gradientUnits="userSpaceOnUse" x1="12.0335" y1="150.9466" x2="272.5" y2="150.9466">
	<stop  offset="0" style="stop-color:#F87B58"/>
	<stop  offset="0.63" style="stop-color:#F89453"/>
	<stop  offset="0.81" style="stop-color:#F8C548"/>
	<stop  offset="0.94" style="stop-color:#F89952"/>
	<stop  offset="1" style="stop-color:#F89C51"/>
</linearGradient>
<path class="st2" d="M258.1,218l-19.6,53.2l-3.4,26l16.5-14.5c0.9-0.8,2.7-4.9,3.7-7l9.9-27.7l7.3-44.2c0,0-11.1-20-24.1-43.5
	L258.1,218z M248.4,160.3l-0.8-4.7l-2-0.4L248.4,160.3 M181.9,26.2c-3.1-0.3-6.2-0.3-9.3,0.2c-0.9,0.2-3.8,6.1-5.8,10.3
	c-2.6,5.4-3.1,14-3.1,19.5c0,6.9,6.9,14.7,15.5,20.2c3.8,2.4,1.4,15.1-0.5,16.3s-38.4,28.2-38.4,28.2L114,106.5L42.4,45.1l-3.6-4.5
	c0,0-8-34.1-11-35.5c-5.2-2.4-9,6.3-13.8,13.5c-2.7,4.1-2.7,16.2,0.5,19.9l13.9,16.9l76.6,62.9l21.3,6.8l24.2,13.2l95,17
	c-16.9-30.6-35.9-64.9-37.6-68.5c-1.5-2.9-1.8-6.2-1-9.3c1.2-4.3,2.9-8.5,5-12.5c1.5-2.1,2.3-6.1,2.7-8.4S215,55,213,57
	c-0.6,0.5-2.3,0.6-3.1-2.9s-11.3-8.5-16.4-12.9c0,0-5.4-1.4-10.9-3.3"/>
<linearGradient id="SVGID_3_" gradientUnits="userSpaceOnUse" x1="27.8995" y1="383.7164" x2="280.2292" y2="383.7164" gradientTransform="matrix(1 0 0 -1 0 540)">
	<stop  offset="0" style="stop-color:#E1A1ED"/>
	<stop  offset="1" style="stop-color:#7658F4"/>
</linearGradient>
<path class="st3" d="M148.3,95.4c-6.1,0.6-9.7-0.5-16.9-2.1c-5.8-1.4-16.5-3.7-20.2-5.2C95.3,81.8,41.3,44,39.1,40.4
	c-1.2-2-10.6,9.4-11.2,14.5c-0.1,1.4,16.2,19,23,26.7C52.1,83,62.3,93.7,66,96.5c8.2,6.2,28.1,18.8,33.6,22.3
	c4.2,2.7,17.6,9.7,32.8,14.3c10.2,3.1,12.9,5.6,16.1,12.6c3.4,7.5-11.5,94-11.5,94s-0.4,15.8,2.7,17.4c2.7,1.4,34.6,10.7,42.3,13.6
	c5.6,0.9,11.2,1.4,16.9,1.7l40.2-5.6c0,0-0.6-76.1,0.1-88.8c0.7-12.5-0.9-19.4,1.3-16c2.5,3.8,13,38,13,43.8S242,262.1,242,262.1
	l15.4,8.5c0,0,20.8-55.5,22-62.9s1.5-11.2-1.9-18.5s-22.4-73.7-22.4-73.7s-1.9-8.1-15.8-12.3s-27.4-15.7-43-6.7
	c-16.1,9.2-22.7-0.3-22.7-0.3s-15.9,0.8-24.8-0.6"/>
<linearGradient id="SVGID_4_" gradientUnits="userSpaceOnUse" x1="171.0994" y1="501.8879" x2="229.9022" y2="501.8879" gradientTransform="matrix(1 0 0 -1 0 540)">
	<stop  offset="0" style="stop-color:#5BD3EF"/>
	<stop  offset="1" style="stop-color:#4B44BE"/>
</linearGradient>
<path class="st4" d="M210.6,10.2c1.8,1.4,7.2,6.4,9.1,7.9c2.2,1.7,3.4,4.1,5.3,7.2c1,1.6,2.5,6.1,3.2,7.9c4,10.2,0.1,14.6-3,21.9
	c-4.3,10-14,11.5-14.8,12.9c-7.7-2.5-8.6-1.6-12-0.5c-4.3-2.9-6.2-6.8-8.5-8.8c1.4-2-2.8-20.5-5.9-10.8c-1.3-4.4-5.3-13.6-7-14.8
	s-3.7-2.7-3.5-3.4c0.9-4.1-5.9-3.5,0.1-7.8c4.8-3.5,6.7-11.6,13-12.2c3.9-0.4,8.9-0.8,12.9-1.4c2.8-0.4,5.1,0.9,7.5,1.2
	c1.3,0.1,2.5,0.6,3.6,1.2"/>
<g class="st5">
	<g>
		<g>
			<g>
				<defs>
					<rect id="SVGID_5_" x="142.2" y="303.6" width="46.7" height="234.9"/>
				</defs>
				<clipPath id="SVGID_6_">
					<use xlink:href="#SVGID_5_"  style="overflow:visible;"/>
				</clipPath>
				<g class="st6">
					<path d="M188.2,304.6c-2.7,7.8-13.1,23.1-19.8,32.1s-27.8,28.4-26.5,51.9s15.6,83.9,15.6,89.4s-5.3,31.1-9.3,39
						c-4,7.9-3.3,16.1-1.3,16.1c0.9,0,4.2,1.2,8.8,0c3.5-0.9,8.1,2.8,10,1.9c1.4-0.6,1.7-5.1,1.7-5.1c0.1-1.9-0.1-3.8-0.7-5.6
						c-1-2.9-1.7-5.9-2.2-8.9c-0.8-22.1-2.7-73.3-2.3-76.9c0.7-6.7-4.6-40.5,0.2-57.1S188.1,304.6,188.2,304.6"/>
				</g>
			</g>
		</g>
	</g>
</g>
<g class="st5">
	<g>
		<g>
			<g>
				<defs>
					
						<rect id="SVGID_7_" x="159.3" y="184.4" transform="matrix(0.1103 -0.9939 0.9939 0.1103 -12.2902 410.5637)" width="127.7" height="55.5"/>
				</defs>
				<clipPath id="SVGID_8_">
					<use xlink:href="#SVGID_7_"  style="overflow:visible;"/>
				</clipPath>
				<g class="st7">
					<path d="M238.6,169.2l-0.2,78.4c0,0,2,16.6-0.8,18.4s-13.9,3.2-17.3,3.2c-2.3,0-33.3,3.6-22.3-1.9c4.9-2.5,35.9-19.8,26-36.9
						s-5.3-38.9,1.9-53.7s12.8-24.7,12.8-24.7L238.6,169.2z"/>
				</g>
			</g>
		</g>
	</g>
</g>
<path class="st8" d="M39.2,40.5L28.9,48c-0.7,0.5-1.6,0.3-2.1-0.3c-0.2-0.2-0.3-0.5-0.3-0.8l-1.1-15l2.7-4.7
	c0.3-0.6,0.5-1.3,0.4-1.9l-0.8-7.4c0-0.3-0.1-0.5-0.2-0.8L23.8,2.9c-0.1-0.8,0.5-1.5,1.3-1.6L36.3,0c0.8-0.1,1.6,0.5,1.7,1.3v0.1
	l1.9,37.8C39.9,39.8,39.7,40.2,39.2,40.5z"/>
<path class="st9" d="M179,74.8c0,0,7.3-1.4,10.9-4.2s-4.5,5.3-7.1,8.5S179,74.8,179,74.8z"/>
<path class="st9" d="M226.2,297.4c0,0-7.2,29.2-13.7,37.8c-6.9,9.2,0.7,51.5-5.7,70.1c-6.1,17.6,2.2,55.8,0.7,68
	c-1.2,10-1.4,31.5-6.7,43.5c-1.8,4.1-5.6,7.1-5.6,9c0,10.7,14.5,3.8,14.5,3.8l0.8-9.5l9.9-84l18.3-166.7L226.2,297.4z"/>
</svg>
