<?xml version="1.0" encoding="utf-8"?>
<!-- Generator: Adobe Illustrator 21.1.0, SVG Export Plug-In . SVG Version: 6.00 Build 0)  -->
<svg version="1.1" id="Man" xmlns="http://www.w3.org/2000/svg" xmlns:xlink="http://www.w3.org/1999/xlink" x="0px" y="0px"
	 viewBox="0 0 116.4 348.8" style="enable-background:new 0 0 116.4 348.8;" xml:space="preserve">
<style type="text/css">
	.st0{fill:#4B44BE;}
	.st1{fill:url(#SVGID_1_);}
	.st2{fill:url(#SVGID_2_);}
	.st3{fill:url(#SVGID_3_);}
	.st4{fill:url(#SVGID_4_);}
	.st5{opacity:7.000000e-02;enable-background:new    ;}
</style>
<g>
	<path class="st0" d="M75.4,334.3c-1.5-6.3-2-14.4-3-14.6h-1.1l-10.6,0.1c0,0-2.2,10.1-3.3,14.3c-0.1,0.3-0.3,1-0.5,1.5
		c-0.2,0.7-0.2,1.5-0.2,2.2c0.2,3.8,1.7,7.1,5.1,8.8c3.8,1.9,6.7,3.7,10.6,0C76.3,342.9,76.9,340.6,75.4,334.3z"/>
	<path class="st0" d="M41.9,320.7l-13.4,0.7c0,0-5.3,9.2-13.1,11.4c-7.3,2.1-19.4,7.2-14,10.1c4,2.3,29.8,0.2,36.1,0.7
		c4.7,0.4,6-2.5,5.5-8.8C42.6,330.1,41.9,320.7,41.9,320.7z"/>
</g>
<linearGradient id="SVGID_1_" gradientUnits="userSpaceOnUse" x1="600.2042" y1="1420.4301" x2="674.07" y2="1420.4301" gradientTransform="matrix(1 0 0 1 -584.07 -1183.03)">
	<stop  offset="0" style="stop-color:#4F68CA"/>
	<stop  offset="1" style="stop-color:#5ACEED"/>
</linearGradient>
<path class="st1" d="M25.8,153.3c0,0-9,74-9.6,78.8s3.1,29.5,3.1,34.2s8.8,55.2,8.8,55.2l14-0.6c0,0-2.8-74.3-2.5-77.9
	s15.6-46.7,15.6-46.7s1.1,11.4,1.1,15S60.5,320,60.5,320h12.2L90,165.2l-0.3-3L25.8,153.3z"/>
<linearGradient id="SVGID_2_" gradientUnits="userSpaceOnUse" x1="591.77" y1="1280.23" x2="695.57" y2="1280.23" gradientTransform="matrix(1 0 0 1 -584.07 -1183.03)">
	<stop  offset="0" style="stop-color:#F87B58"/>
	<stop  offset="0.41" style="stop-color:#F89453"/>
	<stop  offset="0.71" style="stop-color:#F8C548"/>
	<stop  offset="1" style="stop-color:#F89C51"/>
</linearGradient>
<path class="st2" d="M67,10.4c0,0-13.4,5.2-16.4,6.4s-4.7,4.9-4.7,4.9s-1.5-0.9-1.5,1.6s1.2,8.2,2.2,9.7c1.6,2.5,3,5,4.3,7.6
	c1.2,2.6,0.8,8-0.5,8.8S26.5,70.6,26.5,70.6L7.7,128.5l2.5,18.3l3.8,18c0,0-0.8,1.3,0.8,2.8s8.4,12.7,8.4,12.7l2.3-16.5l-7.7-24.5
	l-2.7-20.6l18-36.8L95.5,93l6.8,40.1l-12.6,34.2L87.5,184l10.6-9.3c0.6-0.5,1.8-3.1,2.4-4.5l6.3-17.8l4.7-28.4
	c0,0-39.4-71-41.4-75.2c-0.9-1.9,0.1-6.5,0.6-8.8c0.5-2.1,1.5-4.8,2.5-5.6c1.5-1.6,2.2-3.9,2.6-6c0-1.5,0.6-7.3-0.9-5.9
	c-0.3,0.4-1.4-1.4-1.9-3.7C72.1,15.4,69.7,12.6,67,10.4z"/>
<linearGradient id="SVGID_3_" gradientUnits="userSpaceOnUse" x1="585.2187" y1="1293.8895" x2="700.5569" y2="1293.8895" gradientTransform="matrix(1 0 0 1 -584.07 -1183.03)">
	<stop  offset="0" style="stop-color:#E1A1ED"/>
	<stop  offset="1" style="stop-color:#7658F4"/>
</linearGradient>
<path class="st3" d="M61.9,68.3c-1,0.9-2.5,0.8-3.4-0.1c-0.7-1.1-1.4-2.2-1.9-3.3c-1-2-8.7-13.3-8.7-13.3s-18.3,4.7-21.2,6.6
	c-3,2-5.7,4.7-6.7,8.2S4.9,111,4.2,113.5s-4.3,6.5-2.6,16.6s11.2,36,12.2,36.3s11.1-4.7,11.1-4.7s-8-32.2-8-35.4S24.1,114,27,107.8
	s5-11.6,6-14.3S24.4,147,24.4,147s-0.2,10.2,1.7,11.2c1.8,0.9,23.3,9.1,28.3,11c0.5,0.2,1.1-0.1,1.4-0.6l0,0l3.2-9.1
	c0-0.1,0.1-0.2,0.2-0.1c0.1,0,0.1,0.1,0.1,0.1l3,9.9c0.1,0.5,0.7,0.8,1.2,0.7l26.5-5.7c0,0-0.4-48.9,0.1-57.1
	c0.4-8-0.6-12.5,0.9-10.3c1.6,2.4,8.3,24.4,8.3,28.1s-7.5,36.2-7.5,36.2l9.9,5.5c0,0,13.4-35.7,14.1-40.4s1-7.2-1.2-11.9
	s-14.4-47.4-14.4-47.4S99,61.9,90,59.2s-15.7-6.7-17.3-6.6s-6.6,9.5-8.8,12.3C62.9,66,63.1,66.5,61.9,68.3z"/>
<linearGradient id="SVGID_4_" gradientUnits="userSpaceOnUse" x1="41.9497" y1="11.9794" x2="76.6323" y2="11.9794">
	<stop  offset="0" style="stop-color:#4F68CA"/>
	<stop  offset="1" style="stop-color:#5ACEED"/>
</linearGradient>
<path class="st4" d="M66.9,10.5c0,0-15.1,5.5-18.2,7.8c-2.3,1.7-2.8,3.3-2.8,3.3s-1.6-0.7-1.5,1.6s-1.8-3.6-2.3-5.5
	c-0.4-1.9-0.5-7.2,3.6-11.1s8.6-6.8,12.4-6.6s6.9,1.3,9.9,4.2s3.7,2.7,4.3,3c0.6,0.3,3.7,3.6,4.1,7.2s-0.7,8.9-0.7,8.9
	s-0.7-0.8-1.5-0.2s-1-3.4-3.6-8.3C68.7,11.2,66.9,10.5,66.9,10.5z"/>
<path class="st5" d="M57.3,188.7c-1.7,5-8.4,14.8-12.8,20.7s-17.9,18.3-17,33.4c0.9,15.1,10,54,10,57.5s-3.4,20-6,25.1
	s-3.8,14.2-2.5,14.2c2.4-0.1,4.9-0.4,7.3-1c2.2-0.5,4.4-1,6.5-1.7c0.9-0.4,1.1-3.3,1.1-3.3c0.1-1.2-0.1-2.5-0.4-3.6
	c-0.6-1.9-1.1-3.8-1.4-5.7c-0.5-14.2-1.8-47.1-1.5-49.4c0.5-4.3-3-26,0.2-36.7S57.3,188.7,57.3,188.7z"/>
<path class="st5" d="M24.9,161.7l-2.3,17.8c0,0,2.3,3.7,3,0.6s5.5-8.9,2.5-13.1S24.9,161.7,24.9,161.7z"/>
<path class="st5" d="M89.9,166.6l-0.8,8.5l-1,8.2c0,0-3.4,2.5-3.3-0.7s-5.7-8-1.3-11.2S89.9,166.6,89.9,166.6z"/>
<path class="st5" d="M47.8,51.7c0.6-0.1-2.9,0.8,0.2-0.2c5.3-1.7,3.1-11.7,3.1-11.7s0.5,3.7,5.5,5.2s6.3,0.4-1.2,3.9
	s-3.6,4.7-3.1,9.3"/>
<path class="st5" d="M32.8,96.9l-8.4,51c0,0,0.1,9.1,1.7,10.4s7,2.2,8.2,3.1s14.2,5.2,10.8-2.1c-0.8-1.6-18.3-11.4-10.5-21.7
	s6.4-24.5,2.7-34.4c-2.2-5.8-3.3-12-3-18.2L32.8,96.9z"/>
</svg>
