<?xml version="1.0" encoding="utf-8"?>
<!-- Generator: Adobe Illustrator 21.1.0, SVG Export Plug-In . SVG Version: 6.00 Build 0)  -->
<svg version="1.1" id="man_with_ipad" xmlns="http://www.w3.org/2000/svg" xmlns:xlink="http://www.w3.org/1999/xlink" x="0px"
	 y="0px" viewBox="0 0 295.5 666" style="enable-background:new 0 0 295.5 666;" xml:space="preserve">
<style type="text/css">
	.st0{fill:#4B44BE;}
	.st1{fill:url(#SVGID_1_);}
	.st2{fill:url(#SVGID_2_);}
	.st3{fill:url(#SVGID_3_);}
	.st4{fill:url(#SVGID_4_);}
	.st5{opacity:7.000000e-02;}
	.st6{clip-path:url(#SVGID_6_);}
	.st7{clip-path:url(#SVGID_8_);}
	.st8{clip-path:url(#SVGID_10_);}
	.st9{fill:#FFFFFF;}
</style>
<g>
	<path class="st0" d="M132.3,611l-3.6-0.1l-18.7,0.2c0,0-4.1,19.2-6.3,27.2c-0.1,0.5-0.6,1.8-0.8,2.8c-0.3,1.4-0.4,2.8-0.4,4.2
		c0.4,7.3,3.1,13.4,9.6,16.7c7.1,3.6,12.6,6.9,20.2,0s8.6-11.3,5.7-23.3S134.1,611.4,132.3,611z"/>
	<path class="st0" d="M210.6,634.9L210.6,634.9c-12.9-4.1-21.5-21.6-21.5-21.6l-22-1.3c0,0-1.2,17.8-1.8,26.8
		c-0.8,12,1.2,17.3,9.1,16.7c10.4-0.8,52.7,3,59.4-1.3C242.5,648.6,222.6,638.7,210.6,634.9z"/>
</g>
<linearGradient id="SVGID_1_" gradientUnits="userSpaceOnUse" x1="78.48" y1="454.5049" x2="214.708" y2="454.5049">
	<stop  offset="0" style="stop-color:#4F68CA"/>
	<stop  offset="1" style="stop-color:#5ACEED"/>
</linearGradient>
<path class="st1" d="M78.5,295v26.3l31.8,290h22.5c0,0,7.8-198.9,7.8-205.8s2-28.5,2-28.5s28.3,81.7,28.8,88.5s-4.6,147.5-4.6,147.5
	l22.5,0.9c0,0,19.7-95.2,19.7-104.2s6.7-55.8,5.7-64.8s-17.7-149.2-17.7-149.2l-34.5-0.9L78.5,295z"/>
<linearGradient id="SVGID_2_" gradientUnits="userSpaceOnUse" x1="46.94" y1="143.535" x2="231.9245" y2="143.535">
	<stop  offset="0" style="stop-color:#F87B58"/>
	<stop  offset="0" style="stop-color:#F87B58"/>
	<stop  offset="0.41" style="stop-color:#F89453"/>
	<stop  offset="0.71" style="stop-color:#F8C548"/>
	<stop  offset="1" style="stop-color:#F89C51"/>
</linearGradient>
<path class="st2" d="M224.4,264.5l-0.3-0.4C224.2,264.4,224.3,264.6,224.4,264.5 M158.3,239l-12.6,5.2l-0.7,17.4l13.9,5.5
	c0-0.1,15.2-0.6,15.2-0.7c0.1-0.7,6-0.5,8.7,1.2l47.1-16.2l1.7-11.3c0,0,3.5,14.2-12.3-14.4L158.3,239z M214.6,181.6l-1-5.7
	l-2.4-0.4L214.6,181.6 M127.5,30.1c-5.8,2.4-8.6,10.9-8.6,10.9s-2.8-1.7-2.8,3.1s2.4,15.6,4.1,18.4c3,4.7,5.7,9.5,8.1,14.5
	c2.3,5,1.5,15.2-0.9,16.7s-45.2,39.9-45.2,39.9L46.9,242v4.3l5.4,1.9l5.6,4.8c0.5,0.1,7.6,4,8.6,4.7c5.6,2.8,11.6,4.9,17.7,6.3
	c4,0.8,21.7,0.4,21.7,0.4l17.9-0.4l-3.1-22.8l-26.5-0.3L58,239.1l36.7-84.4l115.8,20.7c-20.6-37.2-43.7-79-45.7-83.4
	c-1.7-3.6,0.1-12.2,1.1-16.7c0.9-4.1,2.9-9.1,4.8-10.6s5.3-8.1,5.3-11s0.8-14.2-1.6-11.8c-0.7,0.7-3.5-3.6-4.5-7.9
	c-1.6-6.2-5.9-10.6-10.9-14.6c0,0-25.5,8.4-31.2,10.8"/>
<linearGradient id="SVGID_3_" gradientUnits="userSpaceOnUse" x1="39.5409" y1="209.67" x2="235.1279" y2="209.67">
	<stop  offset="0" style="stop-color:#E1A1ED"/>
	<stop  offset="1" style="stop-color:#7658F4"/>
</linearGradient>
<path class="st3" d="M83.2,110.3c-5.6,3.8-10.8,8.9-12.7,15.5s-15.4,58-17.2,64.5c-4.4,15.9-7,20.5-12.2,39.2
	c-6.4,23,8.3,26.5,23.3,29.9c15.6,3.5,15.7,5,19.4,5c0.6,0,19.1,3.8,19.7-6.7c0.4-6.6-0.8-17.1-3.3-16.8c-5.7,0.8-24.1-4.1-25-4.7
	c-1.2-0.8,4-15.2,7-24.1c2.2-6.6,10.7-34,12.6-39.1c1-2.8-4.8,26.6-8.3,55.4c-0.1,1.1-1.5,12.3-1.1,12.3c4.2,0,15.7,0.2,19.3,0.6
	c16.2,1.9,19.3,9.6,18.3,15.8c-1.8,10.8-41.2,5.8-41,7.2c0,0-6.8,30.6-3,32.5c3.3,1.7,47.5,20.1,56.9,23.7c1,0.4,2.2-0.1,2.6-1.2
	c0,0,0,0,0-0.1l6-17.2c0.1-0.2,0.3-0.3,0.5-0.2c0.1,0,0.2,0.1,0.2,0.2l5.7,18.8c0.1,0.5,0.5,0.9,0.9,1.1h2.5l49.1-10.6
	c0,0-0.2-19.4-0.3-44.2c0-2.5-0.4-11.7-2.2-10c-1.8,1.7-42.8,7.1-47.3,5.2c-9.5-4-7-13.9-3.7-18c3.8-4.7,52.2-7,52.4-10.5
	c0.8-15.2-0.4-55.1-1.2-50.3c-1.2,7.5-29.5,48.5-29.5,55.6s-0.5,25.1-0.5,25.1l46.5-3.6c0,0,15.6-5.4,17-14.4s-0.3-13-0.9-26.4
	c-0.4-8.5-12.4-59.6-15.8-74.1c-0.5-2.2-0.8-4.4-1-6.6c-0.4-6-2.8-20-15.7-26.1c-16-7.6-28.5-13.6-31.7-13.6c-3,0-11.2,18-15.5,23.1
	c-1.9,2.3-1.5,3.4-4,6.8c-1.3,1.8-3.7,2.1-5.5,0.9c-0.4-0.3-0.7-0.7-1-1.1c-1.4-2-2.6-4.2-3.7-6.4c-1.9-3.8-16.6-25.5-16.6-25.5
	S88.8,106.4,83.2,110.3"/>
<linearGradient id="SVGID_4_" gradientUnits="userSpaceOnUse" x1="112.4276" y1="23.4127" x2="177.5234" y2="23.4127">
	<stop  offset="0" style="stop-color:#5ACEED"/>
	<stop  offset="0.55" style="stop-color:#4F68CA"/>
	<stop  offset="1" style="stop-color:#5282D3"/>
</linearGradient>
<path class="st4" d="M158.9,19.5c0,0-31.4,11.7-33.6,13.4c-2.2,1.7-6.4,8.1-6.4,8.1s-2.2-1.2-2.7,2.1c0,0-3.2-6.6-3.6-10.3
	c-0.4-3.7,0-13.2,6-19.5c6-6.3,18.1-14.6,25.6-13.5s10.7,2,15.4,6.7s8.7,6.1,10.1,6.8c1.4,0.7,6.8,4.6,7.7,11.9
	c0.9,7.3-1.6,21.9-1.6,21.9s0.7-5.7-1.6-3.9c-1.6,1.2-3.9-4-4.6-7.1C168.7,33.1,160.6,20.3,158.9,19.5z"/>
<g class="st5">
	<g>
		<defs>
			<rect id="SVGID_5_" x="149.3" y="77.7" width="20.8" height="34.1"/>
		</defs>
		<clipPath id="SVGID_6_">
			<use xlink:href="#SVGID_5_"  style="overflow:visible;"/>
		</clipPath>
		<g class="st6">
			<path d="M169.4,99.5c-0.2-0.6,3.4,2.1-0.8-0.9c-5.9-4.3-3.1-21.9-3.1-21.9c-2.2,4.6-6,8.2-10.7,10c-7.5,2.8-9.8,0.7,1.8,7.4
				c11.4,6.6,5.5,8.9,4.7,17.6"/>
		</g>
	</g>
</g>
<g>
	<g class="st5">
		<g>
			<defs>
				<rect id="SVGID_7_" x="159.1" y="140.7" width="58" height="100.7"/>
			</defs>
			<clipPath id="SVGID_8_">
				<use xlink:href="#SVGID_7_"  style="overflow:visible;"/>
			</clipPath>
			<g class="st7">
				<path d="M192.4,161.7l15.6,59.1c0,0-0.1,10.5-3.2,12.1s-12.9,2.6-15.2,3.6s-26.2,6-20-2.4c1.4-1.9,33.8-13.2,19.3-25.1
					s-11.9-28.4-4.9-39.8s5.5-21.1,5.5-21.1L192.4,161.7z"/>
			</g>
		</g>
	</g>
	<g class="st5">
		<g>
			<defs>
				<rect id="SVGID_9_" x="73.5" y="295.5" width="47.3" height="359.9"/>
			</defs>
			<clipPath id="SVGID_10_">
				<use xlink:href="#SVGID_9_"  style="overflow:visible;"/>
			</clipPath>
			<g class="st8">
				<path d="M126.3,317.5c0,0-13.5,71.6-6.5,100.2c10.6,43.4-4.7,102.1-4.7,130.3c0,18.3,7.2,68.9,7.7,89.5c0.1,6.2,4.6,18.2,1.3,21
					c-1.4,1.2-10-1.6-14.7-3.8c-2.5-1.2-3.9-3.8-3.6-6.4l2.8-12.2l4-16.2l-28-262c0,0-9-58.3-3.9-58.5S126.4,317.5,126.3,317.5"/>
			</g>
		</g>
	</g>
	<path class="st9" d="M113.5,221.2l52.9,6.6c1.1,0.3,1.8,1.3,1.7,2.5l-1.5,47.8c-0.1,1.5-1,3.5-2.4,3.1l-52.6-10.1
		c-1-0.3-1.7-1.2-1.7-2.3l-0.2-5.2l5.8-1.5c1.5-0.4,2.9-1.2,4.1-2.1c0.3-0.2,0.5-0.4,0.7-0.7l1.2-1.8c0.4-0.5,0.5-1.2,0.4-1.9
		c-0.2-1.1-0.5-2.6-0.7-3.4c-0.1-0.3-0.2-0.6-0.3-0.8l-1.3-2.8c-0.6-1.3-1.6-2.3-2.9-2.9l-0.8-0.4l-5.7-3.1l0.5-18.7
		c0-1.3,1.1-2.3,2.4-2.3C113.3,221.2,113.4,221.2,113.5,221.2z"/>
</g>
</svg>
