<?xml version="1.0" encoding="utf-8"?>
<!-- Generator: Adobe Illustrator 21.1.0, SVG Export Plug-In . SVG Version: 6.00 Build 0)  -->
<svg version="1.1" id="man" xmlns="http://www.w3.org/2000/svg" xmlns:xlink="http://www.w3.org/1999/xlink" x="0px" y="0px"
	 viewBox="0 0 358.9 591.4" style="enable-background:new 0 0 358.9 591.4;" xml:space="preserve">
<style type="text/css">
	.st0{fill:#FFFFFF;}
	.st1{fill:none;stroke:#C1272D;stroke-miterlimit:10;}
	.st2{fill:#4B44BE;}
	.st3{fill:url(#SVGID_1_);}
	.st4{fill:url(#SVGID_2_);}
	.st5{fill:url(#SVGID_3_);}
	.st6{fill:url(#SVGID_4_);}
	.st7{fill:url(#SVGID_5_);}
	.st8{fill:url(#SVGID_6_);}
	.st9{opacity:7.000000e-02;enable-background:new    ;}
</style>
<path class="st0" d="M175.5,50.7l172,23.5c6.6,0.9,11.2,6.9,10.3,13.5l0,0l-25.4,186c-0.9,6.6-6.9,11.2-13.5,10.3l0,0l-172-23.5
	c-6.6-0.9-11.2-6.9-10.3-13.5l0,0L162,61C162.9,54.5,168.9,49.8,175.5,50.7L175.5,50.7z"/>
<circle class="st1" cx="254.4" cy="199.3" r="0"/>
<g>
	<path class="st2" d="M94,558.7c-5.1,1-22.9-4.5-25.9-7.3c-1-0.9-1.8-3.5-2.6-4.6c-0.7-3.5-2.4-1.7-4.1-2
		c-5.1-1.1-18.9-4.7-25.4-1.2c-1.2,2.7-1.3,5.3-2.1,6.8c-1.7,6.8-2.8,13.8-3.5,20.8c-0.5,4.3,2.6,8.1,6.8,8.6c0,0,0,0,0.1,0h0.1
		c1.4,0.1,2.9,0,4.4-0.2c11-2.7,33.3-3.4,41.9-6.8C98.1,569,106.3,561.4,94,558.7z"/>
	<path class="st2" d="M265.1,566.8c-5,1.3-23.2-3.1-26.3-5.7c-1.1-0.8-2-3.3-2.9-4.4c-0.9-3.4-2.5-1.6-4.2-1.8
		c-5.2-0.8-19.2-3.6-25.5,0.3c-1.1,2.7-0.9,5.4-1.6,6.9c-1.2,6.9-2,14-2.2,21c-0.2,4.3,3.1,7.9,7.4,8.2c0,0,0,0,0.1,0h0.1
		c1.4,0.1,2.9-0.1,4.3-0.4c10.8-3.4,33-5.4,41.4-9.4C269.8,576.8,277.6,568.7,265.1,566.8z"/>
</g>
<linearGradient id="SVGID_1_" gradientUnits="userSpaceOnUse" x1="340.92" y1="779.84" x2="540.72" y2="779.84" gradientTransform="matrix(1 0 0 1 -305.52 -364.49)">
	<stop  offset="0" style="stop-color:#4F68CA"/>
	<stop  offset="1" style="stop-color:#5ACEED"/>
</linearGradient>
<path class="st3" d="M35.4,543.8c8.7,1.2,29.6,1.5,29.6,1.5s1.3-10.2,7.7-29.8c6.5-19.9,39.2-82.3,39.2-82.3
	c6.7-10.2,13.7-31.3,13.7-31.3l9.8-80.8c0,0,51.7,80.7,51,99s12.1,89.9,12.1,89.9c1.3,10.7,7.7,46.1,7.7,46.1
	c9.6-1.2,19.3-1.4,29-0.8c-1.3-14.7-6.6-75-6.6-75s-3.3-46.8-4-75.3s-21-88.6-34.7-116.1c-1.8-4.7-3.3-9.4-4.5-14.3L64.5,289.9
	c2.7,7.7,4.9,15.5,6.5,23.5c7.1,35.7,12.1,95.7,12.1,95.7c-18.9,21.4-30.8,61.7-30.8,61.7C44.6,495,35.4,543.8,35.4,543.8z"/>
<g>
	
		<linearGradient id="SVGID_2_" gradientUnits="userSpaceOnUse" x1="109.1" y1="548.8383" x2="175.5535" y2="548.8383" gradientTransform="matrix(1 0 0 1 0 -486)">
		<stop  offset="0" style="stop-color:#F87B58"/>
		<stop  offset="0" style="stop-color:#F87B58"/>
		<stop  offset="0.41" style="stop-color:#F89453"/>
		<stop  offset="0.94" style="stop-color:#F8C548"/>
	</linearGradient>
	<path class="st4" d="M169.8,48.6c-18.6-3.5-37.7,3.1-37.7,3.1l-3.2,1l-19.8,25.4l18.3-4.9c4.9-1.7,14.5-4.3,18.9-4
		c3.3-0.2,11.1,1.4,14.8-1.6c2.8-1.3,3.3-3.6,9-9.2c4.1-4.5,2.9-5.8,4.5-6.4C176.7,51.1,174.9,49,169.8,48.6z"/>
	
		<linearGradient id="SVGID_3_" gradientUnits="userSpaceOnUse" x1="197.6" y1="755.3691" x2="235.5968" y2="755.3691" gradientTransform="matrix(1 0 0 1 0 -486)">
		<stop  offset="0" style="stop-color:#F87B58"/>
		<stop  offset="0" style="stop-color:#F87B58"/>
		<stop  offset="0.41" style="stop-color:#F89453"/>
		<stop  offset="0.94" style="stop-color:#F8C548"/>
	</linearGradient>
	<path class="st5" d="M235.5,274.2c-0.2-1-3.8-0.4-4.4-1.3c-3.9-5.5-8.5-12.5-18.3-15.8c-2.8-0.9-5.7-1.5-8.6-1.8l-6.6,11.5
		c0.8,2,1.9,3.9,3.1,5.6c4,5.4,12.4,12.7,27.8,10.7C232.1,282.7,236,277.9,235.5,274.2z"/>
	
		<linearGradient id="SVGID_4_" gradientUnits="userSpaceOnUse" x1="41.2" y1="544.473" x2="103.6964" y2="544.473" gradientTransform="matrix(1 0 0 1 0 -486)">
		<stop  offset="0" style="stop-color:#F87B58"/>
		<stop  offset="0" style="stop-color:#F87B58"/>
		<stop  offset="0.41" style="stop-color:#F89453"/>
		<stop  offset="0.94" style="stop-color:#F8C548"/>
	</linearGradient>
	<path class="st6" d="M98,18.5c-2.2,0-48.6,35.8-49,39.8c-0.1,2.1-0.2,11.2-1.8,17.2c-1.5,5.6-6,13.6-6,13.6s4,7.5,14.4,9
		c10,1.4,23.4-1.9,23.4-1.9s-3.1-19.8,0.7-22c3.3-1.9,4.3,0.1,15.7-9.5s7.7-33.8,7.4-35.4C102.5,27.7,100.2,18.5,98,18.5z"/>
</g>
<linearGradient id="SVGID_5_" gradientUnits="userSpaceOnUse" x1="0.1556" y1="-63.35" x2="211.1" y2="-63.35" gradientTransform="matrix(1 0 0 -1 0 108)">
	<stop  offset="0" style="stop-color:#E1A1ED"/>
	<stop  offset="1" style="stop-color:#7658F4"/>
</linearGradient>
<path class="st7" d="M151,186c-15.1-13.7-24.7-56.4-29.5-67.1S109,105.2,106,104c-1.5-0.6-9.8-2.9-16-4.7L135,71
	c6.1-11.5-5.9-18.4-5.9-18.4L77.9,78v17.3l-16.6-2.7l-19.8-3.9c-6.1-1.4-12.3-2.4-18.5-2.9c-2.6-0.2-5.2,0.1-7.7,1L14,87.3
	c-3.1,1.1-5.7,3.3-7.2,6.3c-3.2,7-5.4,14.5-6.4,22.1C-1.5,128,8,155.9,17.7,176.2c4.2,8.6,20.6,52.8,24.7,63.9
	c20,46.4,21.4,50,21.4,50c61.4-0.6,121.2-14.3,121.2-14.3c2.8-5.1-7.3-19.9-7.3-19.9l18.6,15.4c8.1,2.6,14.8-15.5,14.8-15.5
	S163.7,197.5,151,186z"/>
<linearGradient id="SVGID_6_" gradientUnits="userSpaceOnUse" x1="841.0706" y1="1316.7568" x2="900.6005" y2="1290.6367" gradientTransform="matrix(1 0 0 1 -807.25 -1270.27)">
	<stop  offset="0" style="stop-color:#4B44BE"/>
	<stop  offset="1" style="stop-color:#5BD3EF"/>
</linearGradient>
<path class="st8" d="M40.3,20.6c1-1.8,3.2-5.9,4.5-7.4c2.2-2.3,4.6-4.5,7.1-6.6c2.3-1.4,8-4.3,10.2-5.5c7.8-2.4,18.2,0,25.8,0.4
	c6.9-0.5,12,8.1,14.7,13.8s-2.5,5-2,9.4c0.1,0.8-2.2,2-4.2,3.1S88.7,38,86.7,42.3c-2.1-10.5-9.1,8.2-7.8,10.5
	c-2.8,1.8-6.2,9.4-11.2,11.8c-3.5-1.5-10-7.3-18.7-5.7c-0.6-1.6-9.2-8-10.1-18.8C38.2,36.9,37.5,25.4,40.3,20.6z"/>
<path class="st9" d="M66.8,67.8c0,0,7.8,7,12.5,6.8l-1.2,5.9l0.3,8.5c0,0-3-4.8-6.8-9.7C69.2,75.9,67.5,72,66.8,67.8z"/>
<path class="st9" d="M95.1,153.7c0,0,9.8,29.5,40,60.2s37.5,37.1,37.5,37.1s6.2,7.8,4.2,13s-15.2-12.2-44.8-25.7
	c-16.9-7.7-22.7-21-30.5-39.6c-9.8-23.5-12-28.5-13.3-36.9C84.9,139.8,95.1,153.7,95.1,153.7z"/>
<path class="st9" d="M135.3,321c0,0-14.3,30.9-18.4,46c-4.2,15.6-4.2,38.3-16.8,49.3c-14.3,12.5-31.1,54.5-35,63.4
	c-5.5,12.7-16.8,82.7-13.5,87.6c3.2,4.8,16.1-2.4,16.1-2.4S63,547.1,67,531s22.8-59.1,34.6-80.4c10.7-19.1,21.6-41.2,24-54
	C128,383.8,135.3,321,135.3,321z"/>
</svg>
