<svg id="Layer_3" data-name="Layer 3" xmlns="http://www.w3.org/2000/svg" xmlns:xlink="http://www.w3.org/1999/xlink" viewBox="0 0 233.4 542.39"><defs><style>.cls-1{fill:none;}.cls-2{clip-path:url(#clip-path);}.cls-3{fill:#4b44be;}.cls-4{fill:url(#linear-gradient);}.cls-5{opacity:0.1;}.cls-6{fill:url(#linear-gradient-2);}.cls-7{fill:url(#linear-gradient-3);}.cls-8{fill:url(#linear-gradient-4);}.cls-9{fill:url(#linear-gradient-5);}.cls-10{fill:url(#linear-gradient-6);}.cls-11{fill:url(#linear-gradient-7);}</style><clipPath id="clip-path" transform="translate(-274.57 -154.44)"><rect class="cls-1" x="-807.81" y="-171.78" width="2073.67" height="1123.69"/></clipPath><linearGradient id="linear-gradient" x1="9.45" y1="361.59" x2="194.11" y2="361.59" gradientUnits="userSpaceOnUse"><stop offset="0" stop-color="#5282d3"/><stop offset="0.28" stop-color="#4f68ca"/><stop offset="1" stop-color="#5aceed"/></linearGradient><linearGradient id="linear-gradient-2" x1="318.79" y1="420.17" x2="341.6" y2="420.17" gradientUnits="userSpaceOnUse"><stop offset="0" stop-color="#f87b58"/><stop offset="0.5" stop-color="#f8c548"/><stop offset="1" stop-color="#f89c51"/></linearGradient><linearGradient id="linear-gradient-3" x1="725.52" y1="14.9" x2="748.33" y2="14.9" gradientTransform="translate(59.08 1014.35) rotate(-59.36)" xlink:href="#linear-gradient-2"/><linearGradient id="linear-gradient-4" x1="349.4" y1="205.27" x2="396.21" y2="205.27" xlink:href="#linear-gradient-2"/><linearGradient id="linear-gradient-5" x1="324.55" y1="322.9" x2="446.83" y2="322.9" gradientUnits="userSpaceOnUse"><stop offset="0" stop-color="#906af2"/><stop offset="0.12" stop-color="#e1a1ed"/><stop offset="0.64" stop-color="#9b71f1"/><stop offset="0.94" stop-color="#7658f4"/><stop offset="1" stop-color="#7658f4"/></linearGradient><linearGradient id="linear-gradient-6" x1="337.76" y1="179.86" x2="397.91" y2="179.86" xlink:href="#linear-gradient"/><linearGradient id="linear-gradient-7" x1="373.77" y1="157.97" x2="373.77" y2="157.97" xlink:href="#linear-gradient"/></defs><title>man walking</title><g class="cls-2"><path class="cls-3" d="M312.19,677.21c-8.76-6.3-9.87-19.19-9.87-19.19l-17.43-7.45s-5.31,11-8,17.09c-3.57,8-3.32,12.29,2.84,14,8.09,2.21,39.3,16.28,45.39,15.12,7.93-1.5-4.73-13.64-12.93-19.55" transform="translate(-274.57 -154.44)"/><path class="cls-3" d="M483.88,669c-11.63-.8-20.08-8.75-20.08-8.75l-20.47.41s1.48,12.08,2.21,18.68c1,8.75,3.49,12.25,10.18,10.46,8.8-2.35,45.73-6.68,50.84-10.87,6.65-5.44-11.79-9.18-22.68-9.93" transform="translate(-274.57 -154.44)"/></g><polygon class="cls-4" points="9.45 495.93 53.73 367.97 72.17 213.68 138.28 213.68 181.87 361.59 194.11 509.49 169.13 509.19 146.41 364.13 115.06 305.91 101.78 369.8 29.79 509.49 9.45 495.93"/><path class="cls-5" d="M284,650.38l44.29-128,17.79-148.92S389.86,369,373,396c-27.36,43.85,3.85,93.66-11.38,117.59s-8,32.41-18,48.45c-8.89,14.27-17.76,14.76-28.61,50.29a325.2,325.2,0,0,0-10.69,51.6Z" transform="translate(-274.57 -154.44)"/><path class="cls-6" d="M324.81,405.75s-8.28,13.32-5.42,20.94,5.48,10.48,10.72,5.24,11.49-20.82,11.49-20.82Z" transform="translate(-274.57 -154.44)"/><path class="cls-7" d="M432.35,385.2s7.24,13.91,15.25,15.34,11.81.63,10-6.55-12.06-20.5-12.06-20.5Z" transform="translate(-274.57 -154.44)"/><path class="cls-8" d="M378.39,243.18s-4.89-23.41,5.08-28.14c13.47-6.37,14-24.3,11-35.49-2.54-9.59,1.72-12.19,1.72-12.19s-29.64,9.85-30.12,16-14.63,14.23-14.63,20.8-2.06,32.16-2.06,32.16Z" transform="translate(-274.57 -154.44)"/><path class="cls-9" d="M343.8,392.68l69.92,4.14.36-24.51-1.23-4.18s15.57,19.83,19.5,17.07c6.23-4.38,18.5-5,13.17-11.71-1.15-1.45-41.79-59.44-41.91-61.27-1.48-21.28-2.35-21.15-2.35-28.05,0-11.36-8.74-24.33-17.2-36.05-9.19-12.74-13.14-11.78-19.62-12.44-7.1-.72-13.54-.91-14.91-1,0,0-18.24,31.6-22.19,89.27-4,58-2.53,81.79-2.53,81.79l13.55,5.36h3.24Z" transform="translate(-274.57 -154.44)"/><path class="cls-5" d="M343.79,392.52s10.12-72,12-89.87S372.68,285.7,377,309.1s-6,30.81,2.61,41.28,11.25,18.49,7.23,24c-5.31,7.31,4.67,21,4.67,21Z" transform="translate(-274.57 -154.44)"/><path class="cls-5" d="M404.52,324l8.33,44.17s-1.51-.65-4.17-9.07-3.86-9-4.16-18.94S404.52,324,404.52,324Z" transform="translate(-274.57 -154.44)"/><path class="cls-5" d="M377.45,227.92s-6.67-11.53-9.25-13.18c-1.25-.81,4.46,4,13.85,1.49C382.05,216.23,377.61,218.15,377.45,227.92Z" transform="translate(-274.57 -154.44)"/><path class="cls-10" d="M351.69,205.11s8.53,1,8.53-1.84-.31-11.26,1.9-13,6.32,0,8.53,0,17.7-9.15,19.91-13.37,15.85-22.44-.82-20c-5.82.86-8.64,2-17.88-1.25-7-2.41-9.36-.92-13.53,1.71-10.43,6.58-8.93-11.11-19.28,13.53C332.75,185.89,351.69,205.11,351.69,205.11Z" transform="translate(-274.57 -154.44)"/><path class="cls-11" d="M373.77,158" transform="translate(-274.57 -154.44)"/></svg>