<?xml version="1.0" encoding="utf-8"?>
<!-- Generator: Adobe Illustrator 21.1.0, SVG Export Plug-In . SVG Version: 6.00 Build 0)  -->
<svg version="1.1" id="map" xmlns="http://www.w3.org/2000/svg" xmlns:xlink="http://www.w3.org/1999/xlink" x="0px" y="0px"
	 viewBox="0 0 123 352" style="enable-background:new 0 0 123 352;" xml:space="preserve">
<style type="text/css">
	.st0{fill:#4B44BE;}
	.st1{fill:url(#SVGID_1_);}
	.st2{fill:url(#SVGID_2_);}
	.st3{fill:url(#SVGID_3_);}
	.st4{fill:url(#SVGID_4_);}
	.st5{opacity:7.000000e-02;}
	.st6{clip-path:url(#SVGID_6_);}
	.st7{clip-path:url(#SVGID_8_);}
	.st8{opacity:7.000000e-02;enable-background:new    ;}
	.st9{fill:#FFFFFF;}
	.st10{fill:#E1E6FC;}
</style>
<g>
	<path class="st0" d="M57.5,323H56l-10.3,0.1c0,0-2.2,10.1-3.3,14.3c-0.1,0.3-0.3,1-0.4,1.5c-0.2,0.7-0.2,1.5-0.2,2.2
		c0.2,3.8,1.7,7.1,5.1,8.8c3.8,1.9,6.7,3.7,10.6,0s4.5-6,3-12.3S58.5,323.2,57.5,323z"/>
	<path class="st0" d="M98.8,335.8c-6.8-2.2-11.3-11.4-11.3-11.4l-11.6-0.7c0,0-0.6,9.4-0.9,14.1c-0.4,6.3,0.7,9.2,4.8,8.8
		c5.5-0.5,27.8,1.6,31.3-0.7C115.6,343,105.1,337.8,98.8,335.8z"/>
</g>
<linearGradient id="SVGID_1_" gradientUnits="userSpaceOnUse" x1="27.1" y1="114.4" x2="100.8489" y2="114.4" gradientTransform="matrix(1 0 0 -1 0 354)">
	<stop  offset="0" style="stop-color:#5ACEED"/>
	<stop  offset="1" style="stop-color:#4F68CA"/>
</linearGradient>
<path class="st1" d="M100.8,235.2c0.5,4.7-3,29.5-3,34.2s-10.4,55-10.4,55L75.5,324c0,0,2.7-74.3,2.4-77.9s-15.2-46.7-15.2-46.7
	s-1.1,11.4-1.1,15s-4,108.6-4,108.6H45.7l-17-155l-1.6-13.2l64.3,1.6C91.4,156.4,100.2,230.4,100.8,235.2"/>
<linearGradient id="SVGID_2_" gradientUnits="userSpaceOnUse" x1="13.8" y1="75.4114" x2="117.3" y2="75.4114">
	<stop  offset="0" style="stop-color:#F87B58"/>
	<stop  offset="0" style="stop-color:#F87B58"/>
	<stop  offset="0.41" style="stop-color:#F89453"/>
	<stop  offset="0.71" style="stop-color:#F8C548"/>
	<stop  offset="1" style="stop-color:#F89C51"/>
</linearGradient>
<path class="st2" d="M108.7,124.7l-5.4,4.6l1.7,7.2l2.3,3.2c-0.2,0.3-0.7-1.6,1.7-0.2l4.7-0.3l3.6-4.7c0,0-1.9-21.7-10.3-36.8
	L108.7,124.7z M102.1,96l-0.5-3l-1.3-0.2L102.1,96 M56.8,16.1c3-1.3,14.6-6.8,16.3-5.6c2.6,2.2,4.5,5.1,5.3,8.4
	c0.5,2.3,2.3,5.1,2.6,4.7c1.3-1.3,1,3.6,1,5.1c-0.4,2.1-1.3,4.2-2.8,5.8c-1,0.8-2,3.5-2.5,5.6c-0.5,2.3-1.5,6.9-0.6,8.8
	c1,2.3,13.2,24.4,24.1,44l-61.1-11l-19.3,40.8l8.7,7L26,138l-1.6,0.3c0,0-1.4,3.3-2.9,1.8c-1.2-1.2-3-0.6-3.7-0.3
	c-0.2,0.1-0.5,0.1-0.7,0.1l-2-0.4l-1.3-11l18.8-57.9c0,0,22.6-20.3,23.9-21.1s1.7-6.2,0.5-8.8c-1.3-2.6-2.7-5.1-4.3-7.6
	c-1-1.5-2.2-7.2-2.2-9.7s1.5-1.6,1.5-1.6s1.4-4.9,4.4-6.2c1.1-0.7,16.7-5.1,16.7-5.1"/>
<linearGradient id="SVGID_3_" gradientUnits="userSpaceOnUse" x1="4.4588" y1="243.1404" x2="122.5147" y2="243.1404" gradientTransform="matrix(1 0 0 -1 0 354)">
	<stop  offset="0" style="stop-color:#E1A1ED"/>
	<stop  offset="1" style="stop-color:#7658F4"/>
</linearGradient>
<path class="st3" d="M32.7,58.2c-3,2-5.7,4.7-6.7,8.2S8,102.6,7.2,105s-4,11.8-2.2,22s9.5,12.6,10.8,12.6c0.7,0-0.6-5.3-0.9-8.8
	c-0.1-1.3,1-4.5,1.3-5.8c0.5-1.9,2.1-1.4,2.1-3.1c0-3.2,8-14.3,11-20.5s8.6-7.3,9.6-10S30.5,147,30.5,147s-0.2,10.2,1.7,11.2
	c1.8,0.9,23.3,9.1,28.3,11c0.5,0.2,1.1-0.1,1.4-0.6l0,0l3.2-9.1c0-0.1,0.1-0.2,0.2-0.1c0.1,0,0.1,0.1,0.1,0.1l3,9.9
	c0.1,0.5,0.7,0.8,1.2,0.7l26.5-5.7c0,0-0.4-48.9,0.1-57.1c0.4-8-0.6-12.5,0.9-10.3c1.6,2.4,14.8,15.5,14.8,19.2
	c-0.1,2.1,0.9,4,2.6,5.2l-0.7,18c0,0,7.5-8.3,8.2-13s1-7.2-1.2-11.9s-14.4-47.4-14.4-47.4s-1.2-5.2-10.2-7.9s-15.7-6.7-17.3-6.6
	s-6.6,9.5-8.8,12.2c-1,1.2-0.8,1.8-2.1,3.6c-0.7,0.9-2,1.1-2.9,0.4c-0.2-0.2-0.4-0.3-0.5-0.6c-0.7-1.1-1.3-2.2-1.9-3.3
	c-1-2-8.7-13.3-8.7-13.3S35.7,56.2,32.7,58.2"/>
<linearGradient id="SVGID_4_" gradientUnits="userSpaceOnUse" x1="48.0047" y1="12.0214" x2="82.6186" y2="12.0214">
	<stop  offset="0" style="stop-color:#5ACEED"/>
	<stop  offset="1" style="stop-color:#4F68CA"/>
</linearGradient>
<path class="st4" d="M73.1,10.5c0,0-15.5,5.2-18.3,7.7C53,19.8,52,21.8,52,21.8s-1.5-0.6-1.5,1.6c0,0-0.6-1.5-1.1-2.4
	s-2.4-5.7-0.6-9.5s4-6,4.9-6.6s6.1-5.1,11.2-4.9s8.4,3.7,9.3,4.5c1,0.8,2.8,2.3,4,2.6c1.2,0.4,4.2,4.4,4.4,7.4S81.7,24,81.7,24
	s-0.1-0.9-0.7-0.4s-2.3-2.7-2.8-5S73.1,10.5,73.1,10.5z"/>
<g class="st5">
	<g>
		<g>
			<g>
				<defs>
					<rect id="SVGID_5_" x="67.4" y="40.8" width="11.4" height="18"/>
				</defs>
				<clipPath id="SVGID_6_">
					<use xlink:href="#SVGID_5_"  style="overflow:visible;"/>
				</clipPath>
				<g class="st6">
					<path d="M78.2,52.7c-0.1-0.3,1.8,1.1-0.4-0.5c-3.1-2.2-1.7-11.6-1.7-11.6C75,43,73,44.9,70.5,45.9c-4,1.5-5.2,0.4,0.9,3.9
						s2.9,4.7,2.5,9.3"/>
				</g>
			</g>
		</g>
	</g>
</g>
<g class="st5">
	<g>
		<g>
			<g>
				<defs>
					<rect id="SVGID_7_" x="31" y="85" width="21" height="78"/>
				</defs>
				<clipPath id="SVGID_8_">
					<use xlink:href="#SVGID_7_"  style="overflow:visible;"/>
				</clipPath>
				<g class="st7">
					<path d="M38.9,96.9l-8.4,51c0,0,0.1,9.1,1.7,10.4s7,2.2,8.2,3.1s14.2,5.2,10.8-2.1c-0.8-1.6-18.3-11.4-10.4-21.7
						s6.4-24.5,2.7-34.4c-2.2-5.8-3.3-12-3-18.2L38.9,96.9z"/>
				</g>
			</g>
		</g>
	</g>
</g>
<path class="st8" d="M53,165.6c0,0-7.1,37.8-3.4,52.9c5.6,22.9-2.5,53.9-2.5,68.8c0,9.6,3.8,36.4,4,47.2c0.1,3.3,2.4,9.6,0.7,11.1
	c-0.8,0.6-5.3-0.8-7.8-2c-1.3-0.6-2.1-2-1.9-3.4l1.5-6.5l2.1-8.5L31,186.9c0,0-4.8-30.8-2.1-30.9S53,165.6,53,165.6z"/>
<polygon class="st9" points="40,96 63,89 64,154 43,162 "/>
<polygon class="st9" points="63,89 90,97 90,161 64,154 "/>
<path class="st10" d="M90,97l26-8l-3.6,33.8l-6.4,4.7c-0.7,0.5-1.1,1.2-1.2,2l-0.2,1.2c-0.1,0.6,0,1.2,0.2,1.8l1.1,2.7
	c0.4,0.9,1,1.7,1.9,2.2l3.7,2l-0.2,13.7L90,161V97z"/>
<path class="st10" d="M40,96l-25.2-7.8l3.5,34.3l6.3,4.8c0.6,0.5,1.1,1.2,1.2,2l0.2,1.2c0.1,0.6,0,1.3-0.2,1.8l-1,2.8
	c-0.4,0.9-1,1.7-1.9,2.2l-3.6,2l0.2,14.5L43,162L40,96z"/>
<polygon class="st10" points="62.5,89.2 63,89 63.4,89.1 64.6,154.2 64,154 63.3,154.2 "/>
</svg>
