<?xml version="1.0" encoding="utf-8"?>
<!-- Generator: Adobe Illustrator 21.1.0, SVG Export Plug-In . SVG Version: 6.00 Build 0)  -->
<svg version="1.1" id="woman_check_phone" xmlns="http://www.w3.org/2000/svg" xmlns:xlink="http://www.w3.org/1999/xlink" x="0px"
	 y="0px" viewBox="0 0 167.4 518.2" style="enable-background:new 0 0 167.4 518.2;" xml:space="preserve">
<style type="text/css">
	.st0{fill:#4B44BE;}
	.st1{fill:url(#SVGID_1_);}
	.st2{fill:url(#SVGID_2_);}
	.st3{fill:url(#SVGID_3_);}
	.st4{fill:url(#SVGID_4_);}
	.st5{opacity:7.000000e-02;enable-background:new    ;}
	.st6{clip-path:url(#SVGID_6_);}
	.st7{opacity:7.000000e-02;}
	.st8{fill:#EFEFEF;}
</style>
<g>
	<path class="st0" d="M57.4,480.2l-13.2,3c0,0-3.2,10.4-4.7,16c-0.1,0.3-0.4,1.3-0.6,1.9c-0.2,1-0.3,1.9-0.3,2.9
		c0.3,5,2.2,9.3,6.6,11.5c4.9,2.5,8.7,4.8,13.9,0s6.1-7.8,3.9-16.1S57.4,480.3,57.4,480.2"/>
	<path class="st0" d="M134,497.5c-8.9-2.8-12.7-13.8-12.7-13.8l-17.9-0.9c0,0-0.4,11.2-0.9,17.3c-0.6,8.1,0.9,11.7,6.3,11.2
		c7.2-0.6,36.6,2,41.2-0.9C156.2,506.7,142.4,500.1,134,497.5"/>
</g>
<linearGradient id="SVGID_1_" gradientUnits="userSpaceOnUse" x1="20.4724" y1="163.75" x2="130.5" y2="163.75" gradientTransform="matrix(1 0 0 -1 0 520)">
	<stop  offset="0" style="stop-color:#4F68CA"/>
	<stop  offset="1" style="stop-color:#5ACEED"/>
</linearGradient>
<path class="st1" d="M29.8,227.8c0,0-6.7,9.2-8.8,34s2.6,71.9,4.8,81S36.8,437,39,443.2s5.2,40.1,5.2,40.1l14.2,0.4
	c0,0,4.2-44.2,4.2-55.9s5.9-122.4,5.5-130.5s1.5-5.5,1.5-5.5S82,331.4,85.7,338S96,357.5,96,357.5s1.5,41.5,3.3,65.5
	s3.7,61.8,3.7,61.8l19.1-0.4c0,0,4.4-63.2,4.4-76.5s4-45.2,4-48.9s-12.4-68.3-12.4-68.3l-8.7-63L29.8,227.8z"/>
<linearGradient id="SVGID_2_" gradientUnits="userSpaceOnUse" x1="33.8" y1="138.1257" x2="148.4121" y2="138.1257">
	<stop  offset="0" style="stop-color:#F87B58"/>
	<stop  offset="0.5" style="stop-color:#F8C548"/>
	<stop  offset="1" style="stop-color:#F89C51"/>
</linearGradient>
<path class="st2" d="M52.3,19.2c-6.5,2.4-14.8,34.7-14.8,34.7l-0.1-0.1l-3.6,3.6l1.5,6.8l6.3,106.5l32.6-7l28.5-30.2l17.8,8.4
	c0,0,1.4,38.7,1.6,40.8s3.2,60.6,3.2,64.4c0.1,4.1,17.5,22.5,20.4,20.5c8.6-6-5.7-17.1-9.1-19.8c-2-1.6-6.3-56-6.6-62.4
	s9.9-22.7-7.8-44.2c-12.9-15.7-19.9-56-30.7-101.8C85.8,15.6,82.4,8.5,76.8,8.5C71.7,8.5,64.7,14.6,52.3,19.2"/>
<linearGradient id="SVGID_3_" gradientUnits="userSpaceOnUse" x1="-0.1696" y1="346.8777" x2="136.4" y2="346.8777" gradientTransform="matrix(1 0 0 -1 0 520)">
	<stop  offset="0" style="stop-color:#E1A1ED"/>
	<stop  offset="1" style="stop-color:#7658F4"/>
</linearGradient>
<path class="st3" d="M46.8,109.9c-0.1,0.3-12.4,6.1-17.7,12.6s-9.6,15.9-9.6,15.9s-7.8,18.4-13.2,32c-2.9,7.3-12.4,37.2-1,38.3
	c10.8,1,34.7-24.4,38.4-29.2l4.1-9.2c0.3-1.2-6.4-13.6-6.2-14.7c0.2-1.8,15.8-10.9,18.2-5.5c0.8,1.8,2.9,7,3.5,8.6
	c1.5,3.9-21.2,11.5-21.2,15c0,4.3-1.9,20.2-5,28S29.3,228,29.3,228l79.8,0.2c0,0-2.7-35.5-1.6-47.3c0,0,3.4-38.7,5.4-42.5
	s5.4,47.8,4.9,58.4c-0.4,7.4,6.3,51.8,8.2,53.4c3.1,2.4,10.4-2.4,10.4-2.4s-0.3-48.7-0.6-56.8s0.2-73.6-10.5-85.4
	s-13.6-11.5-22.5-8.4s-13.3,6.1-25.4,8.1c-7.4,1.3-15.1,0.3-22-2.7c1.9-6.9-2.1,4.8-1.6,1.6"/>
<linearGradient id="SVGID_4_" gradientUnits="userSpaceOnUse" x1="19.5" y1="441.8274" x2="124.3159" y2="441.8274" gradientTransform="matrix(1 0 0 -1 0 520)">
	<stop  offset="0" style="stop-color:#4B44BE"/>
	<stop  offset="1" style="stop-color:#5BD3EF"/>
</linearGradient>
<path class="st4" d="M58.6,0.9c0,0-15.9,0.6-20.4,16.1S33,54.3,32.9,57.7c-0.2,3.6,1.7,28-0.3,34.8c-1.8,6-6.9,17.1-10,24.8
	c-1.2,3-2.1,6.2-2.7,9.4l-0.4,2.6c0.8,2.7,3.7,4.3,6.5,3.4c0.2-0.1,0.4-0.1,0.5-0.2c1.6-0.7,3.1-1.5,4.6-2.4
	c4.8-2.9,10.9-10.6,15.7-13c5.1-2.5,10.9-14.1,11.7-15s0.5-3.8,0.6-6.6c0.5-14.5-2.2-27.8-5.6-34.8S42.3,40,47.7,32.1
	S64.4,17.9,64.9,16s0.8,7.6,6.8,11s14.4,12.5,14.4,14.5s2,8.5-3.7,19.8S72.2,87,80.1,97.8s27.8,25.8,29.2,29.2s0,18.5-0.5,27
	s16.1-14.5,15.5-25.6s1.4-15.9-9.9-32.8s-18.7-46.1-19-53.2S91.7,15.7,84.9,10c-5.8-4.8-7.1-9.5-19.2-9.5
	C63.3,0.5,60.9,0.7,58.6,0.9"/>
<g>
	<g>
		<g class="st5">
			<defs>
				<rect id="SVGID_5_" x="20.1" y="16.7" class="st5" width="46" height="500"/>
			</defs>
			<clipPath id="SVGID_6_">
				<use xlink:href="#SVGID_5_"  style="overflow:visible;"/>
			</clipPath>
			<g class="st6">
				<path d="M52.5,149.6c-2.4,1-4.7,2.1-6.9,3.4l-2.4,1.2c0,0-25.4,26.5-24.3,25.1c4.9-6.1,20.1-38.5,25.2-46
					c5.4-7.8,8.4-4.7,14.3,16"/>
			</g>
		</g>
		<g class="st7">
			<path d="M51.3,483.1c0.1,0.3,0.1,0.6,0.1,0.9c0.1,2.2,0,7.7-2.4,11.2c-3,4.6,4.1,14.7,4.1,17.2s-3.3,4.8-5.6,4.1
				s-11.9-6.1-8.1-17.7c1.5-4.7,2.4-8.8,3.3-11.4c0.5-1.3,0.9-2.6,1.3-3.9c0.1-0.6,0.1-1.2,0.1-1.8c-0.1-0.8-0.1-1.7-0.2-2.6
				c-0.5-4.5-19.5-144.8-20.2-150.2c-0.6-4.8-3.4-34.5-3.1-51.9c-0.2-1.5-0.2-3-0.1-4.4c0-0.4,0.2-2.1,0.1-2.8
				c0.1-1.6,0.2-3.2,0.4-4.8c-0.3-1.3-0.1-1.3,0-3.4s0-3.3,0.2-4.6c1.9-11.8,6.2-25.2,8.3-29l0.6-2.1c0,0,4.8-17.8,6.4-21.1
				c1.4-3,5.4-18.7,5-22c-0.2-1.8,6.2-8.8,6.2-8.8l1.3-1.1c0.6-0.1,1.3,0,1.9,0.2c1.4,0.6,6.8-4.1,7.7-1.1c6.4,20.5,9,29.2-2.3,41.4
				s-0.9,23.1-0.7,31.7c0.5,21.2-9.8,18.9-10.4,32.1s2.3,22.7,2.5,29.6c0.5,22.7,0.2,27.2-1,36.1s-7.3,25.8-0.5,59s5.8,36.2,5.1,55
				S51.3,483.1,51.3,483.1"/>
		</g>
		<path class="st8" d="M40.8,140.1L41,140c0.8-0.4,5.5-2.8,8.8-4.1c3.7-1.5,8.2,11.1,9.3,13.6c0.1,0.2,0.1,0.2-0.7,0.3
			c-2.7,0.3-5.4,0.8-8,1.5c-3.8,0.9-8.1,3.9-8.3,4s-1.3-2.3-3.5-7.9c-0.5-1.3-1.6-4.7-0.6-5.5L40.8,140.1z"/>
	</g>
	<path class="st5" d="M69.5,73.2c2.4,0.9,5.2,0.3,7-1.6c3.2-3.2-1.2,7.9-0.5,10.4S69.5,73.2,69.5,73.2z"/>
	<path class="st8" d="M47.8,169.4c0,0,15.1-9.9,15.3-9.5c0.4,0.9,1.7,4.5,1.7,4.5s1.2,2.3,0.8,3s-14.7,6.8-14.7,6.8
		c-0.6-0.1-1.1-0.4-1.3-0.9C48.9,172.1,48.3,170.8,47.8,169.4z"/>
</g>
</svg>
