<?xml version="1.0" encoding="utf-8"?>
<!-- Generator: Adobe Illustrator 21.1.0, SVG Export Plug-In . SVG Version: 6.00 Build 0)  -->
<svg version="1.1" id="Layer_1" xmlns="http://www.w3.org/2000/svg" xmlns:xlink="http://www.w3.org/1999/xlink" x="0px" y="0px"
	 viewBox="0 0 435.6 670.4" style="enable-background:new 0 0 435.6 670.4;" xml:space="preserve">
<style type="text/css">
	.st0{fill:#4B44BE;}
	.st1{fill:url(#SVGID_1_);}
	.st2{fill:url(#SVGID_2_);}
	.st3{fill:url(#SVGID_3_);}
	.st4{fill:url(#SVGID_4_);}
	.st5{opacity:7.000000e-02;enable-background:new    ;}
	.st6{fill:#FFFFFF;}
	.st7{fill:url(#SVGID_5_);}
</style>
<g id="woman">
	<g>
		<path class="st0" d="M346.5,407c-5.9-9.8-10.6-12.4-25.2-12.8c-14.6-0.4-34-0.2-34-0.2l-0.2,20.7c0,0,16.1,9.3,24.7,13.9
			c0.5,0.3,1.9,1.1,2.9,1.7c1.5,0.7,3.1,1.3,4.7,1.7c8.5,1.8,16.2,0.9,21.7-4.6C347.2,421.3,352.4,416.8,346.5,407z"/>
		<path class="st0" d="M236.4,388.6c-0.5,0.4-1.8,1.4-2.7,2.1c-1.2,1.1-2.3,2.4-3.3,3.7c-4.8,7.2-6.9,14.7-3.8,21.9
			c3.4,7.9,5.7,14.5,16.9,12.6c11.2-1.9,15.5-5.3,21.3-18.6c5.8-13.3,12.9-31.5,12.8-31.5l-19.1-7.9
			C258.5,370.9,243.9,382.4,236.4,388.6z"/>
	</g>
	
		<linearGradient id="SVGID_1_" gradientUnits="userSpaceOnUse" x1="1142.9341" y1="-368.0163" x2="829.3901" y2="-368.0163" gradientTransform="matrix(1 0 0 -1 -707.48 3.02)">
		<stop  offset="0" style="stop-color:#5ACEED"/>
		<stop  offset="1" style="stop-color:#538BD6"/>
	</linearGradient>
	<path class="st1" d="M288.6,394.9c0,0,0.3,20.9-3.1,21.4s-50.3-6.3-69-7.3s-61.1-13.1-81.9-36.6c-18-20.3-15.2-42.8-1.9-42.8
		s25.5-11.3,59.3,4.8s69.6,18.8,89.7,17.2s76.4-12,80.8-15.2s25.5-12.4,54.9-9.2s15.5,26.5,9.3,35.5c-8.7,12.5-29.3,25.9-46.5,26.5
		S288.6,394.9,288.6,394.9z"/>
	<linearGradient id="SVGID_2_" gradientUnits="userSpaceOnUse" x1="228" y1="149.2491" x2="402.9014" y2="149.2491">
		<stop  offset="0" style="stop-color:#F87B58"/>
		<stop  offset="0.5" style="stop-color:#F8C548"/>
		<stop  offset="1" style="stop-color:#F89C51"/>
	</linearGradient>
	<path class="st2" d="M253.8,29.4C243.9,33,231.3,82,231.3,82l-0.2-0.2l-1.4,6.8l-1.7,8.9l3.3,53.2l32,16l73.5,19.8l20.3,28.9
		c0,0,45.5,46.3,45.8,49.5s-48.9,19.5-53.6,20.2c-11.3,1.7,72.3-18.8,45.5-51.3c-11.4-13.9-28.1-55.7-61.2-83.4
		c-19.2-16-13.8-61.5-20.6-90.3c-8.5-36-13.7-46.8-22.2-46.8C283.1,13.3,272.4,22.5,253.8,29.4"/>
	
		<linearGradient id="SVGID_3_" gradientUnits="userSpaceOnUse" x1="153.7839" y1="441.1743" x2="419.9015" y2="441.1743" gradientTransform="matrix(1 0 0 -1 0 672)">
		<stop  offset="0" style="stop-color:#E1A1ED"/>
		<stop  offset="1" style="stop-color:#7658F4"/>
	</linearGradient>
	<path class="st3" d="M357.8,145.7c-15.4-14.1-20.6-17.5-34.1-12.7s-20.1,9.2-38.5,12.2c-11.3,2-23,0.5-33.5-4.1l-37.9,3.8
		c-4.8-0.6-58.7,100.6-60,121.6c-0.8,12.9,28.5,32.8,36.7,34.8c3.3,0.8,9.2-31,11.1-33.9l-12.3-3.8c2.2-5.5,9.6-19.1,14.5-26.4
		c1.5-2.3,13.2-21.6,14.8-29c0.3,0.7,2,14.7,3.6,19.2c3,8.3,7.1,13,7.1,19.6s-0.8,32.8-5.6,44.6s-11.8,39.1-11.8,39.1l121.2-0.7
		c0,0-4.4-52.1-2.6-70c0,0-1.9-7.2,1.7-17.6c5.9-17.2,7.6-42.8,6.6-46.8c-1.5-6.3,35.6,47,43.7,60.5c3.4,5.6-42.7,15.5-46.5,19.8
		c-4,4.5,3.9,16.7,3.9,16.7s80.4-9.8,80-22.1C419.5,258.2,375.7,162,357.8,145.7z"/>
	
		<linearGradient id="SVGID_4_" gradientUnits="userSpaceOnUse" x1="207.1" y1="554.2117" x2="357.0181" y2="554.2117" gradientTransform="matrix(1 0 0 -1 0 672)">
		<stop  offset="0" style="stop-color:#5ACEED"/>
		<stop  offset="1" style="stop-color:#538BD6"/>
	</linearGradient>
	<path class="st4" d="M263.5,0.6c0,0-22.5,0.9-29,24.5s-7.4,56.5-7.6,61.6c-0.2,5.4,2.3,37-9.8,50.2c-10.4,11.4-6.2,22.4-8.8,31.5
		l-1.2,15.1c0.2,1.8,1.5,3.3,3.2,3.9c1.6,0.5,7.2-2.1,8.2-2.5c14-5.6,14-10.1,19.3-14.6c4.4-3.7,16.5-12.3,20.1-15.7
		s6.1-6.4,6.3-10.7c0.7-21.9-3.1-42.1-7.9-52.8s-14-28.8-6.3-40.8s21.6-24,22.4-27s1.2,11.6,9.7,16.7s15.6,12.2,18.2,19.1
		c2.2,5.8,5.1,15.7-2.9,32.8s-14.5,39.1-3.2,55.4s35.1,33.9,39,42.1c4.4,9.1,0.2,30.5-0.6,43.4s25.2-22.4,24.4-39.2s2-24-14.1-49.8
		s-26.6-70-27-80.7s-5.2-40.4-14.9-48.9C292.6,7,290.8,0,273.6,0C270.2,0,266.8,0.2,263.5,0.6"/>
	<path class="st5" d="M212.2,358.2l113.6,0.6c0,0-13.3,10.4-19.7,11.6s-33.8,14.8-44,9.6C254.9,376.1,212.2,358.2,212.2,358.2z"/>
	<path class="st5" d="M275.5,103.1c0,0,10.6,2.7,15-3.5c9.9-14,0.9,7.1,0.9,7.1s-2.9,8.2-2.7,12.3S277.3,103.7,275.5,103.1"/>
	<path class="st5" d="M233.1,175.1c-1.3,1.6-3.2,2.9-4.2,7c-1.7,6.6-3.5,14-8.1,20.8c-2.7,4-1.2,19.5,3.3,29.3
		c1.3,2.8,5.3,10.1,5.2,11.8l-0.3,14.2h12.2c0,0,10.4,1.1,8.2-7.5c-1.9-7.6-11.8-35.9-5.1-42.1c12.6-11.5-3.3-34.5,2.6-41.9
		c5.1-6.4,12.4-11,12.4-13.1c0-0.8-1.9,1.8-3.2,2.7c-2.5,1.8-3.8,3.2-5.9,4.6c-2.3,1.5-5.8,4-8.1,5.7
		C238.8,169.1,235.8,171.9,233.1,175.1z"/>
</g>
<g id="laptop">
	<path class="st6" d="M185.6,266.2c0,0-0.1-7.4,7.2-7.7s161.9-0.1,161.9-0.1s6.8,0.8,7,6.3s0.2,87.2,0.2,87.2s0.1,6.3-6.6,6.5
		S191,358.6,191,358.6s-5.9-1.5-5.8-7.4S185.6,266.2,185.6,266.2z"/>
	
		<linearGradient id="SVGID_5_" gradientUnits="userSpaceOnUse" x1="280.9" y1="-44.5" x2="267.54" y2="-44.5" gradientTransform="matrix(1 0 0 -1 0 264)">
		<stop  offset="0" style="stop-color:#59C2E9"/>
		<stop  offset="1" style="stop-color:#5BD3EF"/>
	</linearGradient>
	<circle class="st7" cx="274.2" cy="308.5" r="6.7"/>
</g>
</svg>
