<?xml version="1.0" encoding="utf-8"?>
<!-- Generator: Adobe Illustrator 21.1.0, SVG Export Plug-In . SVG Version: 6.00 Build 0)  -->
<svg version="1.1" id="girl" xmlns="http://www.w3.org/2000/svg" xmlns:xlink="http://www.w3.org/1999/xlink" x="0px" y="0px"
	 viewBox="0 0 162.5 516.1" style="enable-background:new 0 0 162.5 516.1;" xml:space="preserve">
<style type="text/css">
	.st0{fill:#4B44BE;}
	.st1{fill:url(#SVGID_1_);}
	.st2{fill:url(#SVGID_2_);}
	.st3{fill:url(#SVGID_3_);}
	.st4{fill:url(#_Path__1_);}
	.st5{opacity:7.000000e-02;enable-background:new    ;}
	.st6{fill:#EFEFEF;}
</style>
<g>
	<path class="st0" d="M53.4,478l-13.2,3c0,0-3.2,10.4-4.7,16c-0.1,0.3-0.4,1.3-0.6,1.9c-0.2,1-0.3,1.9-0.3,2.9
		c0.3,5,2.2,9.3,6.6,11.5c4.9,2.5,8.7,4.8,13.9,0c5.2-4.8,6.1-7.8,3.9-16.1C56.8,488.9,53.4,478,53.4,478z"/>
	<path class="st0" d="M130.1,495.3c-8.9-2.8-12.7-13.8-12.7-13.8l-17.9-0.9c0,0-0.4,11.2-0.9,17.3c-0.6,8.1,0.9,11.7,6.3,11.2
		c7.2-0.6,36.6,2,41.2-0.9C152.2,504.5,138.4,497.9,130.1,495.3z"/>
</g>
<linearGradient id="SVGID_1_" gradientUnits="userSpaceOnUse" x1="1023.5398" y1="1224.0364" x2="1193.9299" y2="1225.1564" gradientTransform="matrix(1 0 0 1 -1048.21 -870.97)">
	<stop  offset="0" style="stop-color:#4F68CA"/>
	<stop  offset="1" style="stop-color:#5ACEED"/>
</linearGradient>
<path class="st1" d="M25.8,225.4c0,0-6.7,9.2-8.8,34s2.6,71.9,4.8,81s11,94.1,13.2,100.4s5.2,40.1,5.2,40.1l14.2,0.4
	c0,0,4.2-44.2,4.2-55.9S64.4,303,64,294.9s1.5-5.5,1.5-5.5s12.5,39.7,16.2,46.3S92,355.2,92,355.2s1.5,41.5,3.3,65.5
	s3.7,61.8,3.7,61.8l19.1-0.4c0,0,4.4-63.2,4.4-76.5s4-45.2,4-48.9S114,288.3,114,288.3l-8.7-63L25.8,225.4z"/>
<linearGradient id="SVGID_2_" gradientUnits="userSpaceOnUse" x1="1078.11" y1="983.908" x2="1203.946" y2="983.908" gradientTransform="matrix(1 0 0 1 -1048.21 -870.97)">
	<stop  offset="0" style="stop-color:#F87B58"/>
	<stop  offset="0.5" style="stop-color:#F8C548"/>
	<stop  offset="1" style="stop-color:#F89C51"/>
</linearGradient>
<path class="st2" d="M33.6,51.7c0,0,8.3-32.3,14.8-34.7C74,7.5,76.6-8.5,87.5,37.3s41.1,98.9,54,114.6c17.7,21.5,16.2,35.4,9.9,36.7
	s-38.5,9.8-41,10.6s5.2,23.1-5.6,20c-6-1.7-6.5-28.2,1-29.4c3.1-0.5,38.8-7.6,38.6-9.7s-27.8-40.4-27.8-40.4l-17.8-8.4l-44.1-23.7
	L33.6,97.1L31.4,62l-1.5-6.8l3.6-3.6"/>
<linearGradient id="SVGID_3_" gradientUnits="userSpaceOnUse" x1="1048.1858" y1="1023.1221" x2="1210.7112" y2="1023.1221" gradientTransform="matrix(1 0 0 1 -1048.21 -870.97)">
	<stop  offset="0" style="stop-color:#E1A1ED"/>
	<stop  offset="1" style="stop-color:#7658F4"/>
</linearGradient>
<path class="st3" d="M27.9,95c0,0,0.2,2.5-5.8,11.1c-3.6,5.2,5.5,1.5-2.2,14.6C7.7,141.4,0.9,163.6,0,177.4c-0.5,8.5,6.9,6.8,10,9.5
	c1.7,1.5,7.3-1,8.6-2.9l2.5-4.4c0.7-1,7.5-11,7.7-12.2c0.6-3.9,4.4-20.4,5.7-26.3c1.1-5,9.9-16.4,17-39.9c2.1-7.2,0-10.2,0.5-13.5
	c1.5-10.7-13.5-10.5-14.8-6.8c-0.3,0.9-11.7,45.9-12.3,51.9c-0.2,2,3.8,19.8,6.9,24.7s6.6,8.4,6.6,12.7s-2,21.9-5.2,29.7
	s-7.8,25.8-7.8,25.8l79.9-0.4c0,0-2.9-34.3-1.7-46.2c0,0,3.4-38.7,5.4-42.5s23.4,31,28.8,39.9c2.2,3.7-28.2,10.2-30.7,13.1
	s2.6,11,2.6,11s53.1-6.5,52.8-14.6s-30.3-70.5-41-82.3S108,92.3,99,95.5s-13.3,6.1-25.4,8.1c-8.8,1.5-17.9-0.1-25.7-4.6
	C43.6,96.3,27.9,95,27.9,95z"/>
<linearGradient id="_Path__1_" gradientUnits="userSpaceOnUse" x1="1064.51" y1="948.5959" x2="1169.6259" y2="948.5959" gradientTransform="matrix(1 0 0 1 -1048.21 -870.97)">
	<stop  offset="0" style="stop-color:#4B44BE"/>
	<stop  offset="1" style="stop-color:#5BD3EF"/>
</linearGradient>
<path id="_Path_" class="st4" d="M17,125.8c0.9-1.3,1.8-2.6,2.5-4c0.7-1.3,1.2-2.1,1.5-2.7c3.9-6.6,12.8-21.7,14.2-28.3
	c0.8-2.6,1.4-5.3,1.8-8c0.3-1.8,0.4-3.7,0.2-5.5c-0.5-3.4-7.4-17.6-6.4-18.9c0.1-0.2,1-4.2,2.3-2.9c1.5,1.5,11.3,6.9,12,7.9
	c1.9,3.4,3.4,7,4.5,10.7c0.7,2.2,1.3,8.6,1.5,9.1c2.1,5.3-0.3,9.3-0.1,12.1c0.1,1,0.1,5,0.6,5.4c1.4,1,3.3,1.9,4.1,0.9
	s0.5-3.8,0.6-6.6c0.5-14.5-2.2-27.8-5.6-34.8s-11.3-20.7-5.9-28.6S61.5,17.5,62,15.5s0.8,7.6,6.8,11S83.2,39,83.2,40.9
	s2,8.5-3.7,19.8s-10.2,25.8-2.3,36.5s27.8,25.8,29.2,29.2s0,18.5-0.5,27s16.1-14.5,15.5-25.6s1.4-15.9-9.9-32.8s-18.7-46.1-19-53.2
	S88.9,15.2,82.1,9.5s-7.4-11-26.3-9.1c0,0-15.9,0.6-20.4,16.1S30.2,53.8,30,57.2c-0.2,3.6,1.4,25.6-0.6,32.5s-11.3,21.6-13.1,27.6"
	/>
<path class="st5" d="M47.3,481c0.1,0.3,0.1,0.6,0.1,0.9c0.1,2.2,0,7.7-2.4,11.2c-3,4.6,4.1,14.7,4.1,17.2c0,2.5-3.3,4.8-5.6,4.1
	s-11.9-6.1-8.1-17.7c1.5-4.7,2.4-8.8,3.3-11.4c0.5-1.3,0.9-2.6,1.3-3.9c0.1-0.6,0.1-1.2,0.1-1.8c-0.1-0.8-0.1-1.7-0.2-2.6
	c-0.5-4.5-19.5-144.8-20.2-150.2c-0.6-4.8-3.4-34.5-3.1-51.9c-0.2-1.5-0.2-3-0.1-4.4c0-0.4,0.2-2.1,0.1-2.8c0.1-1.6,0.2-3.2,0.4-4.8
	c-0.3-1.3-0.1-1.3,0-3.4s0-3.3,0.2-4.6c1.9-11.8,6.2-25.2,8.3-29l0.6-2.1c0,0,3.5-15.8,5.1-19.1c1.4-3,7.5-32.7,7-36
	S31.3,157,31.3,157l0.9-4.5c0,0,2-6.6,4-12.2c1.6-4.3,6.7-15.7,8.8-20.6c3.4-8,5-11.1,5.7-16.4c0.5-4,0.9-2.3,2.7-1.5
	c2.6,1,2.7-0.3,2.8-2.8c0.1-7.8-0.2-15.5-0.9-23.3c-0.8-6.1-7.1-15.9-9.8-21.9c-1.6-3.1-2.8-6.4-3.8-9.8c-1.2-5.2-1.1-11,3.8-15.9
	c4.3-4.3,17.1-13.2,17.1-13.2s-5.9,12-3.5,16.1c3.9,6.3,2,14.3,2,17.1S58,57.9,59.9,65c3.3,12.5-2.4,19.6-0.3,28.1
	c1.3,5.2,2.1,6.9,0.8,11.5s-14.2,39.5-7.1,59.8s10.4,34.7-1,46.9c-11.4,12.2-0.9,23.1-0.7,31.7c0.5,21.2-9.8,18.9-10.4,32.1
	s2.3,22.7,2.5,29.6c0.5,22.7,0.2,27.2-1,36.1s-7.3,25.8-0.5,59s5.8,36.2,5.1,55S47.3,481,47.3,481z"/>
<path class="st6" d="M28.2,45c2.7-1.9,5.6-3.6,8.6-5.1c3.7-1.5,5.4,4,6.4,6.5s6,17.9,6.2,19.1c0.1,0.5-0.7,0.4-3.3,2.4
	c-0.4,0.3-1.1,0.1-1.9-1.7c-0.4-1-1.7-3.4-3.2-4.2c-0.6-0.3-10-3.6-10.1-2.7s2.2,6.6,3.4,9.9c0.1,0.3,1.7,3.6,1.4,4.2
	c-0.1,0.1,0.1,0,0.1,0s-1.7,0.6-2.2,0s-5.3-16.1-7.1-22c-0.4-1.3-1.3-3.1-0.4-3.9L28.2,45z"/>
</svg>
