<svg id="woman_presenting" data-name="woman presenting" xmlns="http://www.w3.org/2000/svg" xmlns:xlink="http://www.w3.org/1999/xlink" viewBox="0 0 209.91 504.99"><defs><style>.cls-1{fill:none;}.cls-2{clip-path:url(#clip-path);}.cls-3{clip-path:url(#clip-path-3);}.cls-4{fill:#4b44be;}.cls-5{clip-path:url(#clip-path-4);}.cls-6{fill:url(#linear-gradient);}.cls-7{clip-path:url(#clip-path-5);}.cls-8{fill:url(#linear-gradient-2);}.cls-9{fill:url(#linear-gradient-3);}.cls-10{opacity:0.1;}.cls-11{fill:url(#linear-gradient-4);}.cls-12{clip-path:url(#clip-path-6);}.cls-13{fill:url(#linear-gradient-5);}.cls-14{clip-path:url(#clip-path-7);}.cls-15{opacity:0.07;}.cls-16{clip-path:url(#clip-path-8);}</style><clipPath id="clip-path" transform="translate(-184.71 -217.83)"><rect class="cls-1" x="-684.83" y="-137.02" width="1920" height="1080"/></clipPath><clipPath id="clip-path-3" transform="translate(-184.71 -217.83)"><rect class="cls-1" x="-806.54" y="-76.29" width="1910" height="1035"/></clipPath><clipPath id="clip-path-4" transform="translate(-184.71 -217.83)"><path class="cls-1" d="M331.39,417.65s10.15,26.87,12.3,51.66,9.4,65.05,10.11,89c.58,19.77,13.16,85.66,13.57,93.21.36,6.6,2.25,33.87,2.25,33.87H352.2s-15.15-67.88-20.1-79.47c-4.61-10.83-26.38-98.38-26-106.47a45.49,45.49,0,0,0-1.92-14.86s-3.37,31-6.58,40.65c-2.38,7.16-3.8,30.77-3.8,30.77s3.45,22.51,4.28,36c2.09,34-.74,93.26-.74,93.26h-18s-2.21-40.76-6.56-56.44c-6.68-24-17-74.6-17-78.28,0-3.33,3.15-70.15,3.11-80,0-4.23.09-13.46.2-18.36a37.75,37.75,0,0,1,.58-5.81L264.38,420Z"/></clipPath><linearGradient id="linear-gradient" x1="-755.93" y1="-127" x2="-754.27" y2="-127" gradientTransform="matrix(-140.79, 1.12, 0.93, 170.13, -106043.49, 22792.66)" gradientUnits="userSpaceOnUse"><stop offset="0" stop-color="#5282d3"/><stop offset="0.28" stop-color="#4f68ca"/><stop offset="1" stop-color="#5aceed"/></linearGradient><clipPath id="clip-path-5" transform="translate(-184.71 -217.83)"><path class="cls-1" d="M307.46,223c-5,.83-11.89,6.33-23.28,10.53-6.54,2.41-14.8,34.71-14.8,34.71l-.12-.13,3.14,2.9c-.65.65.29,2.28.29,3.2l-.58,3.63-4.9.65,8,47.26-7.58,32.51-13,26.09-1,27.68s-11.24,18.32-11,20.42S233.8,444,228,447.55c-3.72,4.54-13.8,22.54-5,20.32,8.3-2.09,16.35-13.89,17-15.7,6.6-18.4,9.66-20.56,10.27-22.13,9.29-23.81,16.06-46.2,15.19-64.73-.31-6.42,53.58,14.42,35.88-7.07-12.9-15.67,32.8-58.7,21.94-104.49-5.25-22.12-8.57-29.81-13.5-30.77Z"/></clipPath><linearGradient id="linear-gradient-2" x1="-752.23" y1="-124.69" x2="-750.56" y2="-124.69" gradientTransform="translate(94450.75 15792.2) scale(125.56)" gradientUnits="userSpaceOnUse"><stop offset="0" stop-color="#f87b58"/><stop offset="0.5" stop-color="#f8c548"/><stop offset="1" stop-color="#f89c51"/></linearGradient><linearGradient id="linear-gradient-3" x1="228.53" y1="378.31" x2="389.89" y2="378.31" gradientUnits="userSpaceOnUse"><stop offset="0" stop-color="#906af2"/><stop offset="0.12" stop-color="#e1a1ed"/><stop offset="0.64" stop-color="#9b71f1"/><stop offset="0.94" stop-color="#7658f4"/><stop offset="1" stop-color="#7658f4"/></linearGradient><linearGradient id="linear-gradient-4" x1="266.38" y1="380.03" x2="299.38" y2="380.03" gradientTransform="matrix(1, 0, 0, 1, 0, 0)" xlink:href="#linear-gradient-2"/><clipPath id="clip-path-6" transform="translate(-184.71 -217.83)"><path class="cls-1" d="M292.72,218.25s-15.85.57-20.38,16.14-5.2,37.25-5.36,40.66c-.16,3.58,1.67,28-.31,34.76-1.75,6-6.91,17.09-10,24.77A47.31,47.31,0,0,0,254,344l-.36,2.65a5.18,5.18,0,0,0,6.95,3.23,41.09,41.09,0,0,0,4.59-2.42c4.83-2.9,11.75-9.38,15.71-13.05,4.94-4.57,6.22-8.71,9.65-12.46,2.72-3,2.56-6.33,2.66-9.14.5-14.46-1.28-22.86-8.51-31.95-4.89-6.14-10.53-23.27-5.15-31.19s18.86-14.45,19.42-16.43,1,5.94,6.8,11c5.12,4.54,8.44,7.7,10.43,12.33.78,1.82.51,10.7-3.2,22.24-3.88,12.05-6.67,25.46,1.26,36.22S342,340.85,343.4,344.25s0,18.49-.52,27,16.1-14.53,15.53-25.58,1.42-15.85-9.91-32.84-18.69-46.15-19-53.23-3.68-26.61-10.48-32.28c-5.81-4.84-7.06-9.48-19.17-9.48a71.53,71.53,0,0,0-7.16.42"/></clipPath><linearGradient id="linear-gradient-5" x1="-751.67" y1="-123.04" x2="-750.67" y2="-123.04" gradientTransform="translate(79438.43 13072.49) scale(105.59)" gradientUnits="userSpaceOnUse"><stop offset="0" stop-color="#4b44be"/><stop offset="0.33" stop-color="#4b44be"/><stop offset="1" stop-color="#5bd3ef"/></linearGradient><clipPath id="clip-path-7" transform="translate(-184.71 -217.83)"><rect class="cls-1" x="-674.83" y="-92.02" width="1910" height="1035"/></clipPath><clipPath id="clip-path-8" transform="translate(-184.71 -217.83)"><rect class="cls-1" x="387.9" y="230.98" width="47.27" height="500"/></clipPath></defs><title>woman presenting</title><g class="cls-2"><g class="cls-2"><g class="cls-3"><path class="cls-4" d="M369.53,684.77l-17-.37s.53,13.76-1,19.29c-.09.35-.39,1.25-.59,1.9a11.94,11.94,0,0,0-.27,2.89c.28,5,2.16,9.28,6.62,11.55,4.91,2.49,8.71,4.78,13.93,0s6.1-7.84,3.92-16.11-5.66-19.15-5.66-19.15" transform="translate(-184.71 -217.83)"/><path class="cls-4" d="M263.93,700c9.77-2.78,15.39-14.72,15.39-14.72h18s.47,11.22.95,17.31c.63,8.08-.94,11.69-6.93,11.25-7.88-.57-40,2-45.07-.86-6.56-3.76,8.51-10.39,17.65-13" transform="translate(-184.71 -217.83)"/></g><g class="cls-5"><polygon class="cls-6" points="209.91 472.64 54.77 473.44 52.44 199.58 207.58 198.78 209.91 472.64"/></g><g class="cls-7"><rect class="cls-8" y="5.15" width="201.55" height="260.91"/></g><path class="cls-9" d="M228,447.55,248.54,391l3.23-16.69a61.1,61.1,0,0,0,1-15.39,112.21,112.21,0,0,1,.84-20.9c1.61-12.75,4.05-21.26,7.37-24.47,5.11-4.93,21-11.3,29.22-8.17,18.35,7,27-2.49,32.58-.64s24,5.08,27.74,31,8.79,44.39,9.52,56.3c.43,7.06,3,23.21-8.6,22.29s-43.56-19.88-58.07-25.89-15.43-11.17-15-15.29,21.73,0,30.51,5.12,27.74,12,29.13,9.25-.76-10.34-3.45-19.78c-2.32-8.11-2.4-12.83-3.55-15.36-2.29-5.07-3.9,16-3.9,21.78a57.52,57.52,0,0,0,.66,7.17s.32,3.18.64,5.22c1.73,10.91,5.19,36.78,5.19,36.78h0l-70.15.46,7.41-31c-.2.37.1-18.79-1.28-15.25-2.65,6.82-6.13,25.49-16.12,47.34l-13.46,27.34Z" transform="translate(-184.71 -217.83)"/><path class="cls-10" d="M263.5,423.72s8.57-20.87,7.28-33.3c-1.33-12.75.47-27,1.19-31.54.56-3.53,2.59,7.74,3.2,12.82,1.25,10.43.05,1.44,4.67,12.28s.84,15.84-1.43,20c-3.38,6.15,1.43,19.5,1.43,19.5Z" transform="translate(-184.71 -217.83)"/><path id="hand" class="cls-11" d="M292,374.81l1.42,13.56-23-8.34s-11.92-8.46,4.76-8.33A49.23,49.23,0,0,1,292,374.81Z" transform="translate(-184.71 -217.83)"/><g class="cls-12"><rect class="cls-13" x="68.91" width="106.2" height="161.9"/></g></g></g><path class="cls-10" d="M304.17,484.6c-1.35,5.5-.34,15.94-3.43,25.72a156.16,156.16,0,0,0-6.95,45.7c.11,7.12,1.88,9.06,2,15.54,1,59.37,1.55,113.76,1.55,113.76h-18S292,656.66,282,610.84c-9.25-42.5-15.89-49.51-4.32-69.94,12.38-21.85-3.26-23,9.46-37.71C294,495.26,304.17,484.6,304.17,484.6Z" transform="translate(-184.71 -217.83)"/><path class="cls-10" d="M327.27,368.53a12.37,12.37,0,0,0-3.82,10.34c.41,5.51-5,5-5,5l10.09,2.54S326.29,372.82,327.27,368.53Z" transform="translate(-184.71 -217.83)"/><path class="cls-10" d="M289.66,288.75s4.41,4.21,11,.3c9.42-5.58,9.51-5.44,4.71.17-7.33,8.57-12.14,15.35-12.14,15.35S291.9,292.57,289.66,288.75Z" transform="translate(-184.71 -217.83)"/></svg>