<svg id="woman_walking" data-name="woman walking" xmlns="http://www.w3.org/2000/svg" xmlns:xlink="http://www.w3.org/1999/xlink" viewBox="0 0 214.98 502.23"><defs><style>.cls-1{fill:none;}.cls-2{clip-path:url(#clip-path);}.cls-3{fill:#4b44be;}.cls-4{fill:url(#linear-gradient);}.cls-5{opacity:0.1;}.cls-6{fill:url(#linear-gradient-2);}.cls-7{fill:url(#linear-gradient-3);}.cls-8{fill:url(#linear-gradient-4);}.cls-9{fill:url(#linear-gradient-5);}.cls-10{fill:url(#linear-gradient-6);}</style><clipPath id="clip-path" transform="translate(-213.34 -201.13)"><rect class="cls-1" x="-783.6" y="-96.7" width="1910" height="1035"/></clipPath><linearGradient id="linear-gradient" x1="8.7" y1="335.7" x2="178.79" y2="335.7" gradientUnits="userSpaceOnUse"><stop offset="0" stop-color="#5282d3"/><stop offset="0.28" stop-color="#4f68ca"/><stop offset="1" stop-color="#5aceed"/></linearGradient><linearGradient id="linear-gradient-2" x1="254.07" y1="448.53" x2="275.08" y2="448.53" gradientUnits="userSpaceOnUse"><stop offset="0" stop-color="#f87b58"/><stop offset="0.5" stop-color="#f8c548"/><stop offset="1" stop-color="#f89c51"/></linearGradient><linearGradient id="linear-gradient-3" x1="648.54" y1="-25.99" x2="669.55" y2="-25.99" gradientTransform="translate(59.08 1014.35) rotate(-59.36)" xlink:href="#linear-gradient-2"/><linearGradient id="linear-gradient-4" x1="284.16" y1="250.59" x2="325.38" y2="250.59" xlink:href="#linear-gradient-2"/><linearGradient id="linear-gradient-5" x1="259.61" y1="358.93" x2="371.05" y2="358.93" gradientUnits="userSpaceOnUse"><stop offset="0" stop-color="#906af2"/><stop offset="0.12" stop-color="#e1a1ed"/><stop offset="0.64" stop-color="#9b71f1"/><stop offset="0.94" stop-color="#7658f4"/><stop offset="1" stop-color="#7658f4"/></linearGradient><linearGradient id="linear-gradient-6" x1="249.96" y1="269.55" x2="324.76" y2="269.55" xlink:href="#linear-gradient"/></defs><title>woman walking</title><g class="cls-2"><path class="cls-3" d="M248,685.29c-8.07-5.82-9.09-17.68-9.09-17.68l-16.05-6.87s-4.9,10.16-7.38,15.75c-3.28,7.4-3.05,11.32,2.62,12.87,7.46,2,36.2,15,41.81,13.93,7.31-1.38-4.36-12.57-11.91-18" transform="translate(-213.34 -201.13)"/><path class="cls-3" d="M406.13,677.74c-10.71-.73-18.49-8-18.49-8l-18.86.38s1.37,11.13,2,17.2c.88,8.06,3.21,11.29,9.38,9.64,8.1-2.17,42.11-6.16,46.82-10,6.12-5-10.86-8.47-20.89-9.16" transform="translate(-213.34 -201.13)"/></g><polygon class="cls-4" points="8.7 459.44 49.49 341.57 66.47 199.46 127.37 199.46 167.51 335.7 178.79 471.93 155.78 471.64 138.9 335.7 103.56 275.19 89.04 343.04 27.44 471.93 8.7 459.44"/><path class="cls-5" d="M222,660.57,262.83,542.7l14.39-120.42s67.34-3.18,37.15,17.06c-39.54,26.51-6.8,73.2-20.82,95.24s-7.37,29.85-16.58,44.63c-8.18,13.15-16.35,13.6-26.34,46.32a299.55,299.55,0,0,0-9.85,47.53Z" transform="translate(-213.34 -201.13)"/><path class="cls-6" d="M259.61,435.25s-7.62,12.26-5,19.28,5.05,9.66,9.88,4.83,10.58-19.17,10.58-19.17Z" transform="translate(-213.34 -201.13)"/><path class="cls-7" d="M358.67,431.58s6.66,12.82,14.05,14.13,10.88.58,9.18-6-11.1-18.88-11.1-18.88Z" transform="translate(-213.34 -201.13)"/><path class="cls-8" d="M309,285.51s-4.5-21.57,4.69-25.92c12.4-5.87,12.87-22.38,10.15-32.69-2.34-8.84,1.58-11.22,1.58-11.22s-27.3,9.06-27.74,14.71-13.48,13.11-13.48,19.16,1.94,32.56,1.94,32.56Z" transform="translate(-213.34 -201.13)"/><path class="cls-9" d="M279.81,400.59H340.7s14.34,33.54,18,31c5.74-4,16-7.59,11.08-13.78-1.05-1.34-36.16-60.21-35.48-61.76,7.89-17.89,6.48-33.82,2.54-38.8-7.52-9.51-14.23-18.19-23.06-28.15-9.42-10.61-11.66-9.89-17.63-10.49-6.55-.66-16.31.32-13.86-.9s-21.09,37.84-17.41,91-5.24,66.59-5.24,66.59l12.49,4.94h3Z" transform="translate(-213.34 -201.13)"/><path class="cls-5" d="M279.81,400.59s16.94-61.12,18.64-77.56,7.38-15.88,11.35,5.67-4,30.62,4,40.26,4.54,21.38,5.68,26.51l1.13,5.12Z" transform="translate(-213.34 -201.13)"/><path class="cls-5" d="M333,359.91l7.66,40.68s-1.38-.59-3.83-8.35-3.56-8.3-3.83-17.44S333,359.91,333,359.91Z" transform="translate(-213.34 -201.13)"/><path class="cls-10" d="M257,337.24c-3.09,3.21-12.53-4.45-2.56-18.57,5.91-8.38-.79-17.26,8.41-28.44,17.29-21-7.67-47.66,10.65-72.64s34.16-15.15,43.6-11.26,9.92,13.22,2.85,23.77-11.69,8.84-22.8,19.32c-11.58,10.91-6.08,32.83-7,46.7C289.38,307.82,262,332,257,337.24Z" transform="translate(-213.34 -201.13)"/><path class="cls-5" d="M308.1,271.45s-6.15-10.62-8.51-12.14c-1.16-.74,4.1,3.67,12.74,1.37C312.33,260.68,308.24,262.45,308.1,271.45Z" transform="translate(-213.34 -201.13)"/></svg>