<svg id="women_sitting" data-name="women sitting" xmlns="http://www.w3.org/2000/svg" xmlns:xlink="http://www.w3.org/1999/xlink" viewBox="0 0 218.71 470.89"><defs><style>.cls-1{fill:none;}.cls-2{fill:url(#linear-gradient);}.cls-3{clip-path:url(#clip-path);}.cls-4{fill:#4b44be;}.cls-5{clip-path:url(#clip-path-2);}.cls-6{fill:url(#linear-gradient-2);}.cls-7{clip-path:url(#clip-path-3);}.cls-8{fill:url(#linear-gradient-3);}.cls-9{clip-path:url(#clip-path-4);}.cls-10{fill:url(#linear-gradient-4);}.cls-11{clip-path:url(#clip-path-5);}.cls-12{opacity:0.07;}.cls-13{clip-path:url(#clip-path-6);}.cls-14{opacity:0.07;}.cls-15{fill:#efefef;}.cls-16{opacity:0.1;}.cls-17{fill:url(#linear-gradient-5);}</style><linearGradient id="linear-gradient" x1="255.49" y1="551.19" x2="428.75" y2="551.19" gradientUnits="userSpaceOnUse"><stop offset="0" stop-color="#5282d3"/><stop offset="0.28" stop-color="#4f68ca"/><stop offset="1" stop-color="#5aceed"/></linearGradient><clipPath id="clip-path" transform="translate(-230.24 -234.4)"><rect class="cls-1" x="-779.27" y="-84.93" width="1920" height="1080"/></clipPath><clipPath id="clip-path-2" transform="translate(-230.24 -234.4)"><path class="cls-1" d="M317,253.6c-6.53,2.41-14.79,34.7-14.79,34.7l-.13-.12-3.56,3.57,1.51,6.81,8.77,135.05c1.45,1.5-20.86,2.77-19.42,4.26-1.52,4,2.93,20.68,11.25,18.31,15.37-4.38,24.51-13.55,29-12.09Q348.5,406,367.39,367.9l17.8,8.42s1.45,38.72,1.64,40.82,13.36,67.51,16.71,69.18c5.36,5.56,23.48,7,26.3,5.05,8.63-6-14.17-10.3-17.61-13-2.05-1.6-17.29-52.16-17.59-58.56s9.89-22.71-7.81-44.2c-12.91-15.67-19.87-56-30.73-101.77-5.64-23.78-9.05-30.88-14.63-30.88-9.1,0-18.87,5.33-24.52,10.64"/></clipPath><linearGradient id="linear-gradient-2" x1="-751.79" y1="-142.52" x2="-750.14" y2="-142.52" gradientTransform="matrix(125.87, 0, 0, -125.87, 94626.23, -17799.12)" gradientUnits="userSpaceOnUse"><stop offset="0" stop-color="#f87b58"/><stop offset="0.5" stop-color="#f8c548"/><stop offset="1" stop-color="#f89c51"/></linearGradient><clipPath id="clip-path-3" transform="translate(-230.24 -234.4)"><path class="cls-1" d="M297.33,324.05a99,99,0,0,1-9.26,13.7c-3.58,4.33-6.73,16.9-8.37,24.41a54.91,54.91,0,0,1-4.06,11.89c-4.6,9.66-13.48,28.55-17.41,38.42-2.9,7.3,17.65,23.26,26,28.62,5.71,3.67,4.38,3.22,6.65,1.49l3.48-1.5c3.1-1.79,6.84-4.31,7-5.46.26-1.78-14.08-11.32-18.81-19.3-3.4-5.72,4.89-15.23,9.15-24.68,6.33-14.07,8.42-26.28,10.58-25.25,3.55,1.7,6.68,40.24-10.44,59,0,0-.56.43-.61.63-.62,2.56,4.54,4.68,9.72,9.14,9.76,8.4,9.39,14.31,9.23,14.51-.46.57,2.89-.91-1.32,2.49a15.82,15.82,0,0,1-3.48,2.29c-1.84.78,3.18.17,3.26.16a22.38,22.38,0,0,1,4-.66c1.3-.11,3,0,7-.28,1.93-.13,4.54-.62,6.45-.93l31.08-4s9.52-30.37,10.68-42.2c0,0,4.44-25.69,6.46-29.44s8.57,28.54,7.73,44.15c-.4,7.36,12.92,55.43,14.89,57,3.11,2.44,16.91,0,16.91,0s-13-44.58-13.31-52.71-4.83-82.09-7.51-97.8c-1.6-9.31-11.89-22.05-20.84-18.87s-19.48,10.33-31.6,12.35c-9.38,1.56-16.91-.32-22.24-1.5-5.95-1.32-9.45-2.47-12.78-1.6a12.22,12.22,0,0,0-5.25,3.1"/></clipPath><linearGradient id="linear-gradient-3" x1="-751.37" y1="-140.3" x2="-750.18" y2="-140.3" gradientTransform="matrix(162.48, 0, 0, -162.48, 122089.69, -22638.3)" gradientUnits="userSpaceOnUse"><stop offset="0" stop-color="#906af2"/><stop offset="0.12" stop-color="#e1a1ed"/><stop offset="0.64" stop-color="#9b71f1"/><stop offset="0.94" stop-color="#7658f4"/><stop offset="1" stop-color="#7658f4"/></linearGradient><clipPath id="clip-path-4" transform="translate(-230.24 -234.4)"><path class="cls-1" d="M323.28,235.34s-15.86.57-20.39,16.14-5.2,37.24-5.36,40.65a73.46,73.46,0,0,0,.74,11.1,38.83,38.83,0,0,1-1.18,14.94c-.67,2.38-1.48,5.2-2.37,8.21-.16.53-.72,1.23-1.12,2.23-1.66,4.24-5.21,6.47-10,16.9-.7,1.52-2,8.61,0,12.81l1,7.08c.91,2.92,3.69,2.77,6.51,1.58a41.34,41.34,0,0,0,4.59-2.41c4.84-2.9,6.77-6.44,8.93-12.13,3-7.86,11-13,11.77-13.93s7.22-5.78,7.32-8.59c.51-14.46-2.16-27.76-5.56-34.84s-11.33-20.67-5.95-28.59,16.71-14.16,17.28-16.14.84,7.64,6.79,11,14.44,12.46,14.44,14.44,2,8.49-3.68,19.82-10.19,25.76-2.27,36.52,27.75,25.77,29.17,29.17,0,18.49-.53,27,16.1-14.53,15.53-25.57,1.42-15.85-9.91-32.84-18.68-46.15-19-53.23-3.68-26.62-10.47-32.28c-5.82-4.84-7.07-9.48-19.18-9.48a68.33,68.33,0,0,0-7.15.42"/></clipPath><linearGradient id="linear-gradient-4" x1="-751.3" y1="-144.13" x2="-750.3" y2="-144.13" gradientTransform="matrix(105.12, 0, 0, -105.12, 79028.05, -15069.06)" gradientUnits="userSpaceOnUse"><stop offset="0" stop-color="#4b44be"/><stop offset="0.33" stop-color="#4b44be"/><stop offset="1" stop-color="#5bd3ef"/></linearGradient><clipPath id="clip-path-5" transform="translate(-230.24 -234.4)"><rect class="cls-1" x="-586.58" y="-129.44" width="1920" height="1080"/></clipPath><clipPath id="clip-path-6" transform="translate(-230.24 -234.4)"><rect class="cls-1" x="477.42" y="193.56" width="46" height="500"/></clipPath><linearGradient id="linear-gradient-5" x1="269.79" y1="509.92" x2="269.79" y2="509.92" xlink:href="#linear-gradient"/></defs><title>women sitting</title><path class="cls-2" d="M332.91,662l19.64-117.86S376,569.77,389,582.87s31.43,39.29,31.43,39.29l8.34-7.15s-56.07-112.84-59-120.58,1.37-13.35,3.71-22.28S364.9,449.72,356,447.8,289.08,441,289.08,441s-.23-3.68-16.52,6.89c-19.07,12.38-26.91,46.63,1.93,52.81,33.87,7.26,35.8,3.62,35.8,3.62s11.9,97.63,8.33,120.84S320.41,662,320.41,662Z" transform="translate(-230.24 -234.4)"/><g class="cls-3"><path class="cls-4" d="M332.91,662h-12.5s-2.59,11.22-4.09,16.74c-.09.35-.07.34-.27,1A77.92,77.92,0,0,0,316,688c.28,5,4.43,13.75,8.9,16,4.91,2.49,6.08,2.1,11.32-7.12,3.5-6.17,3.76-7.69,2.74-14.13-1.33-8.44-5.66-19.15-5.66-19.15" transform="translate(-230.24 -234.4)"/><path class="cls-4" d="M427.72,613.21,419.89,622s3.5,10.21,5.5,15.51c.13.34.42,1.23.64,1.86a13.32,13.32,0,0,0,1.41,2.54c3,4.05,6.71,6.68,11.16,6.42,4.91-.28,8.9-.19,10-6.67s0-9.43-6.15-15.27-14.71-13.2-14.71-13.2" transform="translate(-230.24 -234.4)"/></g><g class="cls-5"><rect class="cls-6" y="8.67" width="213.18" height="261.85"/></g><g class="cls-7"><rect class="cls-8" x="9.18" y="64.24" width="194.55" height="184.36"/></g><g class="cls-9"><rect class="cls-10" x="53.38" width="107" height="162"/></g><g class="cls-11"><g class="cls-12"><g class="cls-13"><path d="M378.56,463.29a54.43,54.43,0,0,0-6.91,3.43l-2.43,1.17S343.8,494.4,344.91,493c4.87-6.11,20.07-38.52,25.23-46,5.36-7.8,8.4-4.68,14.3,16" transform="translate(-230.24 -234.4)"/></g></g></g><path class="cls-14" d="M334.13,307.6a85.53,85.53,0,0,0,9.93-7.7c3.22-3.22-4.2,14-3.49,16.47S334.13,307.6,334.13,307.6Z" transform="translate(-230.24 -234.4)"/><path class="cls-15" d="M316,431.85l.27.35c.64.9,3.58,5,5.41,8,2.06,3.37-9.63,9.87-12,11.27-.16.1-.2.1-.45-.65a77.54,77.54,0,0,0-2.7-7.66c-1.48-3.57-5.15-7.34-5.24-7.55s2.09-1.67,7.26-4.71c1.19-.7,4.39-2.29,5.37-1.48Z" transform="translate(-230.24 -234.4)"/><path class="cls-15" d="M289.56,443.55c1.72,3.83,4.06,6,5.18,7.93a14.72,14.72,0,0,0,4.47,4.71,2.83,2.83,0,0,1,.34.23c.07.06-.22.53-.3.65a3,3,0,0,1-.47.52,14.1,14.1,0,0,1-2.89,2.45s-2,1.68-2.73,1.31-8.69-13.68-8.69-13.68a1.71,1.71,0,0,1,.77-1.41C286.1,445.55,289.56,443.55,289.56,443.55Z" transform="translate(-230.24 -234.4)"/><path class="cls-16" d="M374.43,363.77c-2.44,11.94-2.63,23-5.07,34.9-3.29,16.09-7.09,33-12.11,49.17l-17.75,3.1s-3.19-10.62,5.37-22.67,8-11.77,8-18.64-2.34-14.58,1.17-20.39S374.43,363.77,374.43,363.77Z" transform="translate(-230.24 -234.4)"/><path class="cls-17" d="M269.79,509.92" transform="translate(-230.24 -234.4)"/><path class="cls-16" d="M322.69,657.39l2.16-.79,8-93.62c.35-6.37,4.14-14.82,9.59-18.91a10.23,10.23,0,0,0,4.19-7.37h0L332.3,512.43c-.63-1.25-.14-.62-4-6.91l-2-2.91a24.63,24.63,0,0,0-4.33-4.95c-5.34-4.58-12.34-9.9-16.43-9.9l-25.29-.24s-7.73.2-7.73,5.19,23.28,9.67,30,10.15,9.45.38,11.24,18.78c3.89,40,3.94,57,6,97.15.13,2.6-1.33,14.4-1.57,18.8-.14,2.51,0,14.87,1.07,20.39C319,656.91,321.62,657.59,322.69,657.39Z" transform="translate(-230.24 -234.4)"/><path class="cls-16" d="M313.26,465.67s25,4.44,39,12.58c12.19,7.07,15.78,15.71,16,16.87.58,3-.83-4.54,1.23-10.9s-22.85-15.9-22.85-15.9Z" transform="translate(-230.24 -234.4)"/></svg>