<?xml version="1.0" encoding="utf-8"?>
<!-- Generator: Adobe Illustrator 21.1.0, SVG Export Plug-In . SVG Version: 6.00 Build 0)  -->
<svg version="1.1" id="Layer_2" xmlns="http://www.w3.org/2000/svg" xmlns:xlink="http://www.w3.org/1999/xlink" x="0px" y="0px"
	 viewBox="0 0 195.9 500.3" style="enable-background:new 0 0 195.9 500.3;" xml:space="preserve">
<style type="text/css">
	.st0{fill:#4B49BB;}
	.st1{fill:url(#SVGID_1_);}
	.st2{fill:url(#SVGID_2_);}
	.st3{fill:url(#SVGID_3_);}
	.st4{fill:url(#SVGID_4_);}
	.st5{opacity:7.000000e-02;enable-background:new    ;}
	.st6{fill:#FFFFFF;}
</style>
<title>women handup</title>
<g>
	<path class="st0" d="M192.8,494.2c-2.8-1.8-6.1-4.1-14.3-5.7c-6.7-1.2-10.7-11.7-10.7-11.7l-15.6,0c0,0-1.4,17.4-0.7,18.8
		c0.7,1.4,1.1,2.9,4.7,4c3.6,1.1,35.2,0.7,36.6,0.4C194.2,499.7,198.1,497.6,192.8,494.2z"/>
	<path class="st0" d="M11.4,326.9C9.3,330,0.1,360.2,0,361.7s0.7,5.8,5.5,1.8c2.6-2.2,5.8-4.6,9.7-12c3.2-6,14.4-6.7,14.4-6.7
		l4.8-14.8c0,0-16.2-6.6-17.8-6.4C15,323.8,13.5,323.8,11.4,326.9z"/>
</g>
<linearGradient id="SVGID_1_" gradientUnits="userSpaceOnUse" x1="1014.9271" y1="1263.9867" x2="1169.8423" y2="1263.9867" gradientTransform="matrix(1 0 0 1 -985.94 -893.24)">
	<stop  offset="0" style="stop-color:#4F68CA"/>
	<stop  offset="1" style="stop-color:#5ACEED"/>
</linearGradient>
<path class="st1" d="M114.1,272.1c-0.4,0.1-0.9,3-1,3.4c-2.3,7.4-24,73.4-24,76.2s-46.5-18.2-54-21.5c-0.6-0.3-1.2,0-1.5,0.5
	c-1.5,3.2-5.8,12.7-4.3,13.8c1.9,1.3,50.8,36.2,54.8,37.2s10,6,20-6c8.6-10.3,32.6-49.3,39.3-60.2c0.3-0.5,1-0.7,1.5-0.4
	c0.3,0.2,0.5,0.5,0.6,0.9c1.2,10.5,1.7,51.2,5.2,62.1s-1.5,22.6-1.5,38.6l2.9,58.9c0,0.6,0.5,1.1,1.1,1.1l13.5,0.3
	c0.6,0,1.1-0.4,1.2-1c0.9-9.5,9.8-80.7,10.7-91.8c1-12,6.8-112.7,5.2-118.8C182.6,261.6,121.5,270.9,114.1,272.1z"/>
<linearGradient id="SVGID_2_" gradientUnits="userSpaceOnUse" x1="1088.64" y1="1010.7097" x2="1181.0321" y2="1010.7097" gradientTransform="matrix(1 0 0 1 -985.94 -893.24)">
	<stop  offset="0.11" style="stop-color:#F87B58"/>
	<stop  offset="0.5" style="stop-color:#F8C548"/>
	<stop  offset="1" style="stop-color:#F89C51"/>
</linearGradient>
<path class="st2" d="M119.1,94.8c0,0,3.4-13.6,6.1-13.6s19.1,2,21.1,11.6s9.5,15,9.5,26.6s4.8,17,4.8,17s5.4-17.1,9.4-24.5
	s11.1-12.1,11.1-17.1s-6-61.8-6.5-63.3s-2-10.5,1.5-15.6c0,0,10.8-8.9,12.2-12.5c1.1-3,4.6-4.7,6.6-1.2s-6.3,13-7.7,16.8
	c-1.2,3.6-2.1,7.3-2.5,11.1c0,1-2,16.1-2,23.6s4.5,31.2,4.5,38.7s-16.6,37.6-18.1,43.2s-49.8,58.3-50.8,59.8s-6,13.1-6,17.1
	s0,17.1,2,14.6s10.3-22.5,11.8-25s13.4-4.9,19-6.4s13.8,1.5,12.8,5s-17.3,10.1-22.5,11.4c-3.3,0.8-17.6,16.6-18.6,21.1
	s-14.1-2-14.1-8.5s1.5-39.7,3.5-44.2s11.1-24.1,16.1-34.2s-6-15.1-8-22.1S119.1,94.8,119.1,94.8z"/>
<linearGradient id="SVGID_3_" gradientUnits="userSpaceOnUse" x1="1088.7756" y1="1094.9098" x2="1233.2856" y2="994.3298" gradientTransform="matrix(1 0 0 1 -985.94 -893.24)">
	<stop  offset="0" style="stop-color:#7658F4"/>
	<stop  offset="1" style="stop-color:#E1A1ED"/>
</linearGradient>
<path class="st3" d="M162.3,126.9c0,0,13.1-23.5,14.4-29.4s-2-66.2-2-66.2l10.1-1.5c0,0,9.7,55.9,11,62.4s-3.4,20.5-7.9,28.4
	s-16.9,41-16.9,44.9s0.8,41,2.8,48.2s10.1,51.9,10.1,51.9l-70,6.6c0,0,3.1-19.5,2.9-26c-0.5-14.3-4.4-24.9,6-31.6
	c7-4.4,13.6-2.3,21.1-6c8.7-4.3,10.7-7.8,11.2-10.2c0.3-1.4-1.9-4.6-15.4,0.4c-4.5,1.7-13.6,1.6-13.8,7.4
	c-0.1,4.9,6.2,15.5-1.4,20.3c0,0-8.7,20.5-16.8,23.7c-7,2.7-15.3-4.7-15.1-14.4c0.2-11.6,0.9-33.8,6.2-43.5s19.8-34.6,22.4-36.6
	s10.5,7.5,19.7,6.2s13-5.6,15-10.1S162.3,126.9,162.3,126.9z"/>
<linearGradient id="SVGID_4_" gradientUnits="userSpaceOnUse" x1="1082.2306" y1="1030.944" x2="1171.0532" y2="1030.944" gradientTransform="matrix(1 0 0 1 -985.94 -893.24)">
	<stop  offset="0" style="stop-color:#4B44BE"/>
	<stop  offset="1" style="stop-color:#5BD3EF"/>
</linearGradient>
<path class="st4" d="M133.1,84.2c4.1,6.6,9.4,12.3,15.6,17c10.6,8.2,0.1,31-0.4,42.4c-0.4,9.1,5,21.7,18.1,30.2
	c9.4,6.2,2.8,20.2,2.8,27.2s15.2-9.9,15.8-17.9c0.7-9.9-1.8-16.9-8.8-24.9c-6.5-7.5-14.1-35.6-16.2-48.9c-0.2-1.4-0.3-2.7-0.2-4.1
	c0.2-4.7-0.4-19.6-13.8-28c-16-10-26-0.8-32.5,4.7c-7.9,6.7-11.1,25.4-9.1,54.4s-3,45.5-6.4,53.9c-7.8,19.1,13.4,5.7,17.3-5.3
	c5-14.1,8.5-15.2,15.6-26.2c2.8-4.3-0.9-18.9-4-25c-5.9-11.8-9.3-16.7-9.3-24.7S127.1,87.2,133.1,84.2z"/>
<path class="st5" d="M136.2,136c0,0,11.3,0.7,14.4-6.5c0.3-0.8-1.8,22-2.4,19C147.4,145.4,136.2,136,136.2,136z"/>
<path class="st6" d="M350.1,72.8"/>
<path class="st5" d="M116.3,188.7c0,0-2.6,16.2-4,23.6c-0.8,4-1.3,8-1.4,12.1c0,0,9.6-12,12.7-16.8c1.9-3-3.9-1.5-4.4-12.5
	s-0.4-18.1-0.4-18.1L116.3,188.7z"/>
<path class="st5" d="M117.1,240.8c0,0,8.6-8.4,9-12.8c0.5-5.8,4.6-5.5,4.6-1.9s-6.4,30.5-2.5,37.6c3.9,7.1,7,7,7,7l-21,1.5
	L117.1,240.8z"/>
<path class="st5" d="M135.1,270.6c0,0,1.2,21.4-6.4,28.5c-15.5,14.5-6.4,33.5-13.3,41.8c-5.8,6.9-7.3,26.8-21.2,31.2
	c-5.5,1.8-25.3-10.3-29.3-11.7c-8.5-2.9-14.5-19.2-41-27.6c-6.2-2,16.3,0.1,16.3,0.1L89,353.1l25.2-80.9L135.1,270.6z"/>
</svg>
